<?xml version="1.0" encoding="UTF-8"?><svg id="Layer_1" xmlns="http://www.w3.org/2000/svg" viewBox="0 0 500 500"><defs><style>.cls-1{fill:#ff9601;}</style></defs><path class="cls-1" d="m300.61,391.76c-39.43,6.39-78.58,9.01-116.21-4.81-58.74-21.58-93.39-64.23-101.86-126.42-2.66-19.52-1.34-39.61-1.5-59.45-.2-24.6-.07-49.2-.04-73.8.02-15.41,8.63-24.2,23.96-24.21,96.67-.04,193.34-.04,290.01,0,15.39,0,24.12,8.74,24.14,24.03.04,36.9.03,73.8.01,110.7-.03,75.49-45.14,134.28-118.52,153.96m-124.4-220.58h-42.43c0,4.43-.04,8.08,0,11.72.26,21.77-1.36,43.77,1.2,65.28,6.34,53.29,48.13,92.64,101.97,98.46,53.9,5.83,103.98-24.92,121.73-75.43,3.71-10.57,5.11-21.95,7.75-33.73h-59.66c-.45,1.88-.97,3.72-1.33,5.59-5.35,27.79-27.7,45.66-56.9,45.48-27.92-.18-51.58-18.71-54.73-46.07-2.4-20.87-1.04-42.18-1.35-63.29-.04-2.5,0-5,0-8.01-5.54,0-10.25,0-16.24,0m171.24-17.36c-8.29-2.02-16.57-4.04-25.34-6.18-4.79,19.35-9.37,37.85-14.09,56.94,19.25,4.73,37.76,9.29,56.96,14.01,4.79-19.09,9.46-37.73,14.08-56.15-1.08-.62-1.42-.92-1.81-1.02-9.58-2.48-19.17-4.93-29.8-7.6Z"/></svg>