<?xml version="1.0" encoding="UTF-8"?><svg id="Layer_1" xmlns="http://www.w3.org/2000/svg" viewBox="0 0 500 500"><defs><style>.cls-1{fill:#1266a8;}.cls-2{fill:#35b1c4;}.cls-3{fill:#f7fbfc;}.cls-4{fill:#376660;}.cls-5{fill:none;}.cls-6{fill:#82cfda;}.cls-7{fill:#eb6737;}</style></defs><path class="cls-5" d="m177.61,202.08c.02,2.12.1,4.31.12,6.57-.02-2.19-.1-4.39-.12-6.57Z"/><path class="cls-5" d="m211.98,210.47c1.09-2.88,2.95-5.71,3.11-8.64-.16,2.91-1.99,5.72-3.35,8.83.08-.07.16-.13.23-.19Z"/><path class="cls-5" d="m180.12,213.6c-.58-1.12-1.58-2.03-2.38-3.04,0,.12,0,.25,0,.37.8.64,1.8,1.55,2.38,2.67Z"/><path class="cls-5" d="m252.88,213.87c.05.04.1.08.16.12,6.19,1.18,10.33-1.29,12.06-7.2-1.71,5.85-5.79,8.33-12.22,7.08Z"/><path class="cls-5" d="m294.14,214.74c.4-.72.94-1.36,1.7-2.19-.54,3.66-1.62,6.91-3.16,9.79,1.71-3.1,2.95-6.67,3.66-10.76.17-.94.35-1.89.51-2.83-.19.98-.45,2.04-.9,3.39-.87,1.24-1.4,1.88-1.81,2.59Z"/><path class="cls-5" d="m177.74,211.3c.32.95.64,1.89.95,2.84-.3-.95-.63-1.89-.95-3.2,0,.12,0,.24,0,.36Z"/><path class="cls-1" d="m184.36,376.43c3.28,4.18,6.28,8.63,8.88,13.26,2.21,3.93,4.78,4.51,8.61,2.73,6.64-3.09,13.24-6.29,20.05-8.95,31.33-12.25,61.92-9.8,91.77,5.12,3.12,1.56,6.23,3.13,9.31,4.67.58-.42,1.19-.61,1.34-.99,8.53-21.14,26.6-28.8,46.99-32.43,1.2-.21,2.4-.4,3.61-.56.41-.06.83-.09,1.25-.14.8-.1,1.6-.2,2.4-.28,7.34-.73,14.91-.82,22.89-1.37,1.94-.02,3.02-.03,4.11-.03.19-.22.41-.42.82-1.11-.83-3.67-1.87-6.84-2.85-10.02-15.9-52.04-26.3-105.25-33.99-159.04-.39-2.7-1-5.78-2.6-7.82-8.55-10.85-17.06-21.78-26.32-32.01-17.2-19-36.4-35.68-59.64-47.09-17.25-8.47-35.3-12.85-54.64-10.09-21.54,3.07-38.93,14.02-54.14,28.88-19.56,19.1-33.55,42.1-45.66,66.35-.86,1.71-1.14,3.81-1.29,5.76-1.89,25.07-3.11,50.21-5.7,75.2-3.45,33.24-9.59,65.93-25.27,96.02-.11.22.07.59.2,1.42h4.83c12.77-2.12,25.58-4.05,38.3-6.42,19.72-3.68,34.84,3.73,46.76,18.94Zm-6.15-182.77c2.49-12.76,10.3-21.51,22.77-25.41,12.46-3.9,23.65-1.03,33.28,7.76.97.88,1.62,2.11,2.46,3.24,1.13-.83,1.7-1.15,2.16-1.59,11.94-11.55,26.68-14.26,40.18-7.36,13.49,6.9,20.39,21.21,17.98,37.36-.05.36-.12.73-.19,1.1-.16.94-.34,1.89-.51,2.83-.71,4.09-1.95,7.66-3.66,10.76-3.55,6.62-9.57,11.25-17.3,14.14-12.21,4.57-23.59,2.19-33.64-6.17-1.39-1.15-2.68-2.42-4.19-3.79-1.05.85-1.97,1.51-2.79,2.27-19.22,17.95-48.07,10.41-56.07-14.65-.3-.95-.63-1.89-.95-2.84,0-.12,0-.24,0-.36,0,0,0,0,0-.01,0,0,0,0,0,0,0-.12,0-.25,0-.37,0,0,0,0,0,0,.01-.63.01-1.26,0-1.89-.03-2.26-.11-4.45-.12-6.57-.03-2.85.06-5.68.6-8.43Z"/><path class="cls-7" d="m378.57,358.85c-.8.08-1.6.18-2.4.28-.41.05-.83.09-1.25.14-1.21.16-2.41.35-3.61.56-20.39,3.63-38.46,11.29-46.99,32.43-.15.38-.75.57-1.34.99-3.08-1.55-6.19-3.12-9.31-4.67-29.85-14.92-60.44-17.37-91.77-5.12-6.81,2.66-13.42,5.87-20.05,8.95-3.82,1.78-6.4,1.2-8.61-2.73-2.6-4.62-5.6-9.08-8.88-13.26-11.92-15.21-27.04-22.62-46.76-18.94-12.72,2.37-25.53,4.3-38.12,6.76-1.72,5.51-3.63,10.68-5.86,16.72,5.65-.34,10.82-.22,15.83-1.04,7.87-1.29,15.67-3.1,23.45-4.9,21.06-4.86,38.11,1.3,51.07,18.53,3.39,4.51,6.55,9.24,9.41,14.1,1.72,2.93,3.55,3.61,6.48,2.17,2.68-1.33,5.45-2.49,8.13-3.83,37.38-18.76,74.33-17.81,110.9,2.32,1.29.71,2.64,1.31,4.38,2.17,4.99-14.47,15.31-23.54,29.01-28.55,7.91-2.89,16.26-5,24.59-6.22,9.47-1.39,19.15-1.39,29.18-2.02-1.51-5.39-3.02-10.77-4.99-16.18-7.67.52-15.17.6-22.49,1.33Z"/><path class="cls-2" d="m177.74,208.65c0,.63,0,1.26,0,1.89,0,0,0,0,0,0,0-.64,0-1.28,0-1.9Z"/><path class="cls-2" d="m178.21,193.66c-.54,2.74-.63,5.57-.6,8.43-.03-2.91.07-5.71.6-8.43Z"/><path class="cls-2" d="m297.04,207.65c-.05.37-.12.73-.19,1.1.07-.37.13-.74.19-1.1Z"/><path class="cls-7" d="m294.14,214.74c-12.07,21.41-36.09,25.4-54.16,9.01-.81-.73-1.82-1.23-2.74-1.84-.77.6-1.31.98-1.8,1.42-18.99,17.25-43.58,12.91-55.31-9.73-.58-1.13-1.58-2.04-2.38-2.67,0,0,0,0,0,.01.32,1.32.64,2.26.95,3.2,8,25.06,36.85,32.6,56.07,14.65.82-.76,1.74-1.42,2.79-2.27,1.51,1.37,2.81,2.64,4.19,3.79,10.05,8.36,21.43,10.73,33.64,6.17,7.61-2.84,13.57-7.37,17.3-14.14,1.54-2.88,2.62-6.13,3.16-9.79-.76.83-1.3,1.47-1.7,2.19Z"/><path class="cls-6" d="m177.73,210.93s0,0,0,.01c0,0,0,0,0-.01,0,0,0,0,0,0Z"/><path class="cls-6" d="m275.38,236.48c7.73-2.89,13.75-7.52,17.3-14.14-3.73,6.77-9.69,11.29-17.3,14.14Z"/><path class="cls-4" d="m200.97,211.88c3.54,2.49,7.05,1.94,10.77-1.21,1.35-3.11,3.19-5.93,3.35-8.83.38-6.85-5.41-12.32-11.06-11-4.56,1.07-6.93,4.36-7.73,8.78-.9,4.97.44,9.29,4.67,12.26Z"/><path class="cls-3" d="m200.97,211.88c3.62,2.54,7.19,1.92,10.74-1.14.01-.02.02-.05.03-.07-3.73,3.15-7.23,3.7-10.77,1.21Z"/><path class="cls-4" d="m252.88,213.87c6.42,1.25,10.5-1.23,12.22-7.08,1.77-6.04-1.14-12.61-6.45-14.45-4.26-1.48-7.47.28-9.94,3.61-4.14,5.59-2.61,13.01,4.17,17.92Z"/><path class="cls-4" d="m252.69,213.83c.07.01.13.02.2.03-6.78-4.92-8.31-12.33-4.17-17.92-4.18,5.64-2.59,13.13,3.97,17.89Z"/></svg>