<?xml version="1.0" encoding="UTF-8"?><svg id="Layer_1" xmlns="http://www.w3.org/2000/svg" viewBox="0 0 500 500"><defs><style>.cls-1{fill:#fff;}.cls-2{fill:#017aca;}</style></defs><path class="cls-2" d="m68.32,68.32h363.36v363.36H68.32V68.32Z"/><path class="cls-1" d="m242.79,202.88h17.43v30.09h-47.12v133.88l-1.25.34c-1.7.45-24.13.45-28.96-.06l-3.86-.34v-133.82h-47.12v-30.09l14.93-.17c8.18-.11,29.18-.11,46.67,0,17.49.11,39.63.17,49.28.17Zm133.02,149.77c-6.93,7.32-14.36,11.41-26.74,14.76-5.39,1.48-6.3,1.53-18.45,1.48s-13.12-.06-19.02-1.59c-15.27-3.92-27.59-11.58-36-22.43-2.38-3.07-6.3-9.42-6.3-10.22,0-.23.57-.74,1.31-1.08s2.27-1.31,3.52-2.04c1.25-.74,3.52-2.1,5.05-2.9,1.53-.79,5.96-3.41,9.82-5.73s7.38-4.2,7.78-4.2,1.14.79,1.7,1.76c3.41,5.73,11.36,13.06,16.98,15.56,3.46,1.48,11.13,3.12,14.82,3.12,3.41,0,9.65-1.48,13-3.01,3.58-1.65,5.39-3.29,7.55-6.59,1.48-2.33,1.65-2.95,1.59-7.38,0-4.09-.23-5.22-1.36-7.1-3.18-5.22-7.49-7.95-24.98-15.67-18.05-8.01-26.17-12.77-32.76-19.19-4.88-4.77-5.85-6.07-8.91-12.04-3.97-7.66-4.49-10.16-4.54-21.57-.06-8.01.11-10.62.97-13.34,1.19-4.09,5.05-11.98,6.81-13.97,3.63-4.26,4.94-5.56,7.49-7.66,7.72-6.36,19.76-10.56,31.28-10.96,1.31,0,5.62.23,9.65.51,11.58.97,19.47,3.8,27.08,9.88,5.73,4.54,14.42,15.22,13.57,16.64-.57.85-23.22,15.95-24.7,16.41-.91.28-1.53-.06-2.78-1.53-7.72-9.25-10.84-11.24-18.34-11.7-5.34-.34-8.18.28-11.75,2.67-3.75,2.5-5.56,6.3-5.56,11.58.06,7.72,3.01,11.36,13.91,16.75,7.04,3.46,13.06,6.3,13.51,6.3.68,0,15.27,7.27,19.08,9.54,17.71,10.39,24.92,21.06,26.8,39.46,1.36,13.85-2.55,26.51-11.07,35.48h0Z"/></svg>