<?xml version="1.0" encoding="UTF-8"?><svg id="Layer_1" xmlns="http://www.w3.org/2000/svg" viewBox="0 0 500 500"><defs><style>.cls-1{fill:#fff;}.cls-2{fill:#d4d1c9;}.cls-3{fill:#ba464b;}.cls-4{fill:#dfddd7;}.cls-5{fill:#df684b;}</style></defs><polygon class="cls-5" points="400.75 162.9 353.61 135.69 308.2 161.86 355.43 189.16 400.75 162.9"/><polygon class="cls-5" points="144.66 189.16 295.37 102.06 250.04 75.89 99.25 162.9 144.66 189.16"/><polygon class="cls-5" points="202.81 277.21 250.04 304.43 297.19 277.21 250.04 250 202.81 277.21"/><polygon class="cls-3" points="355.43 189.16 355.43 310.84 250.04 371.68 144.66 310.84 144.66 189.16 99.25 162.9 99.25 337.01 250.04 424.11 400.75 337.01 400.75 162.9 355.43 189.16"/><polygon class="cls-3" points="250.04 195.49 202.81 222.7 202.81 277.21 250.04 250 297.19 277.21 297.19 222.7 250.04 195.49"/><polygon class="cls-4" points="355.43 189.16 297.19 222.7 297.19 277.21 250.04 304.43 250.04 371.68 355.43 310.84 355.43 189.16"/><polygon class="cls-2" points="144.66 189.16 202.81 222.7 202.81 277.21 250.04 304.43 250.04 371.68 144.66 310.84 144.66 189.16"/><polygon class="cls-1" points="295.37 102.06 353.61 135.69 308.2 161.86 355.43 189.16 297.19 222.7 250.04 195.49 202.81 222.7 144.66 189.16 295.37 102.06"/></svg>