<?xml version="1.0" encoding="UTF-8"?><svg id="Layer_1" xmlns="http://www.w3.org/2000/svg" viewBox="0 0 500 500"><defs><style>.cls-1{fill:#fff;}.cls-2{fill:#d24a47;}</style></defs><path class="cls-2" d="m301.41,447.57l4.03-67.23,11.14-19.02s-25.35,10.37-67.8,10.37-67.42-10.18-67.42-10.18l12.48,20.74,4.42,65.31c0,7,23.09,12.68,51.57,12.68s51.57-5.68,51.57-12.68m-12.73-313.94l8.47-33.47,46.89-49.34-12.36-10.53-49.65,52.56-9.83,39.99c-7.4-.25-14.8-.37-22.21-.37-52.29,0-94.68,5.96-94.68,13.31s42.39,13.31,94.68,13.31,94.67-5.96,94.67-13.31c0-5.41-22.99-10.07-55.99-12.15"/><path class="cls-1" d="m283.76,152.38s-1.83.41-7.23.43c-5.4.02-9.23-.03-10.75-1.43-.41-.37-.63-1.11-.63-1.62,0-.96.68-1.52,1.55-1.87l.82,1.28c-.36.12-.56.27-.56.42,0,.73,5.52,1.22,9.74,1.17,4.22-.05,9.33-.4,9.33-1.12,0-.22-.39-.42-1.06-.58l.81-1.27c1.09.34,2.05,1,2.05,2.13-.01,1.93-2.47,2.23-4.06,2.44"/><path class="cls-2" d="m343.96,50.92c1.18-1.36-.61-4.85-4-7.78-3.39-2.93-7.09-4.21-8.27-2.85-1.18,1.36.61,4.85,4,7.78,3.39,2.93,7.09,4.21,8.27,2.85m-44.8,232.45c-1.11-10.69,23.39-26.18,17.1-26.68-13.54.77-20.27,15.86-27.08,31.67-2.5,5.79-11.04,30.49-16.64,27.45-5.6-3.04,7.26-23.35,10.86-35.41-4.16,3.05-19.41,14.9-23.34,3.8-6.32,5.37-19.82,8.27-18.3-5.82-3.36,5.95-10.91,14.27-19.96,10.81-11.89-4.54,6.89-42.42,11.56-40.51,4.67,1.91-.94,10.54-2.41,13.89-3.23,7.38-6.97,16.65-4.47,18.54,4.28,3.25,15.91-12.3,16.17-12.64,2.18-2.87,8.38-21.68,13.37-19.52,5,2.16-12.46,26.99-5.93,31.92,1.32.99,6.7-.61,9.98-4.16,2.12-2.29,1.39-7.37,8.46-24.23,7.07-16.85,13.37-37.84,18.21-36.24,4.85,1.6.85,12.37-.89,16.39-8.16,18.85-22.27,49.99-15.62,47.63,6.65-2.36,10.12-2.49,16.64-10.12,6.52-7.63,6.22-20.18,10.56-19.92,4.34.27,3.62,4.29,2.56,7.36,4.27-4.89,20.26-15.19,24.12-4.99,4.57,12.08-22.87,29.53-16.03,28.64,6.67-.87,17.48-7.71,22.1-13.94l12.7-114.21s-12.78,10.58-94.11,10.58-92.79-10.36-92.79-10.36l10.82,104.24c5.74-16.32,19.37-49.32,40.86-48.21,9.77.5,22.82,19.32,11.65,19.96-4.73.27-5.21-9.39-10.81-10.81-4.04-1.02-9.67,2.26-13.31,5.82-7.25,7.1-22.86,35.11-20.79,49.08,2.63,17.8,24.57-6.19,28.28-13.31,2.61-5.02,4.38-19.88,10.1-18.32,5.72,1.56-.5,16.9-4.64,30.46-4.66,15.23-7.1,31.3-12.94,29.45-5.84-1.85,3.67-21.51,3.33-24.95-5.49,5.06-15.59,17.88-28.52,11.53l6.72,64.73s17.85,14.1,71.63,14.1,72.29-13.88,72.29-13.88l8.34-74.98c-6.82,6.64-28.42,18.44-29.8,5.14"/></svg>