<?xml version="1.0" encoding="UTF-8"?><svg id="Layer_1" xmlns="http://www.w3.org/2000/svg" viewBox="0 0 500 500"><defs><style>.cls-1{fill:#ed350f;}</style></defs><path class="cls-1" d="m274.58,137c6.41-.57,12.8-1.13,19.91-1.75,6.05,9.58,11.4,19.21,16.5,29.89-2.43,1.37-4.71,2.19-6.95,2.82,2.26-.6,4.54-1.33,7.04-2.31,5.1,8.35,9.85,17.19,14.7,26.56-6.32,1-12.76,1.48-20.28,1.64-4.92-8.02-8.75-15.73-12.56-23.44,2.22-.47,4.42-.9,6.64-1.39-2.23.47-4.51.83-7.03,1.04-6.26-11.27-12.11-22.17-17.96-33.07Z"/><path class="cls-1" d="m155,335.96c-6.33,1.75-12.05,3.51-17.75,5.26-4.77-11.93-6.5-24.3-4.28-37.75,6.71-.18,12.61.32,18.53,1.49,1.42,10.78,2.77,20.89,3.5,30.99Z"/><path class="cls-1" d="m171.32,362.96c-6.82,1.01-13.65,2.04-21.05,3.12-4.69-7.87-8.78-15.82-12.94-24.31,5.63-2.29,11.34-4.06,17.95-5.34,5.96,9.15,10.99,17.84,16.05,26.53Z"/><path class="cls-1" d="m206.83,171.18c-6.76-1.22-13.17-1.98-19.56-2.73,6.26-11.87,12.53-23.72,19.21-35.89,6.71.21,13.02.72,19.86,1.87-6.03,12.85-12.59,25.03-19.52,36.75Z"/><path class="cls-1" d="m150.26,245.49c7.51-16.44,15.02-32.86,23.6-49.59,2.73-.29,4.98-.6,7.04-.69-2.04.06-4.19.3-6.65.36,3.6-8.87,7.89-17.69,12.59-26.81,6.82.45,13.23,1.21,19.91,2.96-4.18,9.24-8.64,17.49-13.09,25.74-2.47-.57-4.93-1.3-7.4-1.78,2.47.51,4.89,1.33,7.19,2.25-7.62,16.2-15.04,31.91-22.86,47.19-7.04-.18-13.68.11-20.33.38Z"/><path class="cls-1" d="m226.45,133.9c-6.95-.62-13.26-1.13-19.58-1.63,7.03-12.55,14.04-25.09,21.91-39.21,7.44,13.14,13.9,24.55,21.19,37.4,7.33-12.41,14.19-24.01,21.94-37.1,8.11,14.4,15.53,27.57,22.43,41.35-6.97,1.15-13.36,1.7-20.12,2.01-1.9-.59-3.47-.92-5.63-1.51-1.51,6.3-3.6,12.34-5.97,19.45-6.65,1.84-13,2.59-19.35,3.33-4.01-7.09-8.01-14.16-12.14-21.76,2.26-.98,4.61-1.99,7-2.23-2.38.23-4.81,1.15-7.51,1.49-1.43-.66-2.49-1.09-4.18-1.6Z"/><path class="cls-1" d="m159.33,274.88c-5.84-.78-11.69-1.57-18.26-2.4,2.4-8.72,5.52-17.37,8.93-26.51,6.92-.75,13.56-1.04,20.43-.35-3.54,10.41-7.31,19.83-11.1,29.26Z"/><path class="cls-1" d="m260.57,189.96c2.94-.86,5.64-1.22,8.28-1.57-2.64.3-5.35.57-8.34,1.03-6.02-9.97-11.54-20.15-17.15-30.87,6.27-1.28,12.62-2.04,19.33-3.26,5.85,9.71,11.33,19.91,16.89,30.63-1.74.7-3.51,1.23-5.3,1.62,1.8-.34,3.59-.73,5.38-1.09,8.51,17.78,17.01,35.56,24.9,53.9-6.79,1.09-12.97,1.61-19.14,2.14-8.43-17.25-16.86-34.52-24.85-52.53Z"/><path class="cls-1" d="m151.45,304.29c-5.88-.5-11.78-1-18.25-1.46,1.76-9.85,4.1-19.73,7.51-29.94,6.92.42,12.77,1.21,18.52,2.53-2.65,9.98-5.22,19.42-7.78,28.87Z"/><path class="cls-1" d="m324.96,305.21c-6.74.08-12.8-.42-18.87-.92-2.67-9.68-5.35-19.38-8.1-29.62,6.48.45,13.05,1.43,20.28,2.41,2.9,9.17,5.13,18.37,6.68,28.13Z"/><path class="cls-1" d="m332.55,360.15c7.12,1.3,13.84,2.1,20.57,2.88-6.45,7.56-12.91,15.1-19.83,22.79-3.95-.09-7.72-.15-11.4-.32,3.63.2,7.28.29,10.93.45-10.21,5.88-19.86,13.29-30.78,17.16-9.35,3.33-20.12,3.27-30.3,3.59-17.3.51-34.63-.03-51.94.18-17.58.21-32.61-6.44-46.74-17.31,5.34-1.06,10.81-1.46,16.29-1.95-5.5.47-11.04.8-16.66,1.57-7.69-6.98-15.2-14.51-22.27-22.62,7.25-1.58,14.09-2.61,21.32-3.38,10.1,7.06,19.77,13.89,29.45,20.71-1.46.75-2.87,1.86-4.31,2.55,1.49-.68,3.03-1.76,4.9-2.46,19.95,7.16,39.11,5.75,58.53-.94,12.17-7.21,23.09-15.96,32.36-27.33,6.21,2.68,11.7,5.16,17.19,7.65-5.46,6.59-10.92,13.18-16.54,20.24-.3.86-.56,1.79-.74,2.22.21-.39.54-1.22,1.16-1.7,3.48-.54,6.39-1.15,9.85-1.49,3.74.89,7.01,1.81,10.3,2.25-3.27-.45-6.52-1.42-9.94-2.64,9.27-7.98,18.73-15.29,28.59-22.09Z"/><path class="cls-1" d="m347.12,331.17c6.79.17,12.91.24,19.02.3-4.09,10.29-8.17,20.57-12.64,31.22-7.1-.44-13.83-1.24-20.81-3.02,4.42-10.19,9.09-19.39,14.43-28.5Z"/><path class="cls-1" d="m322.08,334.08c-6.92-.12-12.85-.69-18.76-1.25.84-9.14,1.69-18.26,2.65-27.98,6.18-.06,12.25.44,18.9.95-.21,9.27-1,18.55-2.79,28.28Z"/><path class="cls-1" d="m305.9,194.18c7.12-.5,13.56-.98,20-1.48,8.54,18.23,17.07,36.48,24.99,55.24-6.64,1.58-12.64,2.62-19.03,3.32-9.14-19.27-17.9-38.19-25.95-57.08Z"/><path class="cls-1" d="m297.92,274.13c-4.12-10.18-8.25-20.34-12.44-31.08,6.11-1.09,12.29-1.61,19.12-2.14,5.2,11.66,9.74,23.33,13.63,35.59-7.19-.39-13.75-1.37-20.31-2.37Z"/><path class="cls-1" d="m332.25,251.63c6-1.06,12-2.1,18.67-3.14,3.86,8.63,7.06,17.24,9.71,26.53-6.59,1.22-12.61,1.78-18.87,1.89-3.35-8.72-6.42-17-9.52-25.28Z"/><path class="cls-1" d="m349.47,301.28c6.61,0,12.52.02,18.43.03-.39,9.67-.77,19.32-1.46,29.57-6.41.53-12.53.45-19.17-.35.15-10.23.83-19.74,2.2-29.26Z"/><path class="cls-1" d="m310.29,363.09c-5.91-2.2-11.4-4.68-17.21-7.66,2.97-7.6,6.27-14.72,9.91-22.21,6.24.17,12.17.74,18.84,1.37-3.2,9.44-7.15,18.82-11.54,28.5Z"/><path class="cls-1" d="m342,277.36c6.02-.56,12.03-1.12,18.66-1.75,2.88,8.13,5.16,16.32,7.33,25.11-6,.57-11.91.56-18.87.11-3.06-8.11-5.08-15.79-7.12-23.47Z"/></svg>