<?xml version="1.0" encoding="UTF-8"?><svg id="Layer_1" xmlns="http://www.w3.org/2000/svg" viewBox="0 0 500 500"><defs><style>.cls-1{fill:#fff;}.cls-2{fill:#ec1846;}</style></defs><path class="cls-2" d="m25.65,162.46h448.7c7.53,0,13.67,4.69,13.67,10.43v154.22c0,5.74-6.14,10.43-13.67,10.43H25.65c-7.53,0-13.67-4.69-13.67-10.43v-154.22c0-5.74,6.14-10.43,13.67-10.43Z"/><g><path class="cls-1" d="m56.05,209.16h39.88c14.53,0,23.72,3.56,29.35,9.34,4.89,4.89,7.41,10.97,7.41,19.42v.3c0,11.86-6.23,20.16-16.16,25.05l18.97,27.72h-31.13l-15.12-23.57h-5.78v23.27h-27.42v-81.53h0Zm39.14,38.84c6.52,0,10.53-2.96,10.53-8.01v-.15c0-5.19-4.15-7.86-10.38-7.86h-11.86v16.01h11.71Zm55.15-38.84h27.28v81.68h-27.28v-81.68Zm43.14,41.06v-.3c0-23.72,19.57-42.55,44.77-42.55s44.47,18.68,44.47,42.4v.3c0,23.72-19.42,42.55-44.77,42.55s-44.47-18.68-44.47-42.4h0Zm61.67,0v-.3c0-9.64-6.67-18.38-17.2-18.38s-16.9,8.6-16.9,18.23v.3c0,9.64,6.67,18.38,17.2,18.38s16.9-8.75,16.9-18.23Zm59.3-18.09h-24.02v-22.98h75.46v23.13h-24.02v58.56h-27.28v-58.7h-.15Z"/><g><path class="cls-1" d="m364.37,285.11c0-3.82,2.62-6.58,6.37-6.58s6.3,2.69,6.3,6.58-2.55,6.51-6.37,6.51-6.3-2.76-6.3-6.51Z"/><path class="cls-1" d="m393.26,243.12h10.76v30.16c0,13.59-6.51,18.34-16.99,18.34-2.48,0-5.73-.43-7.86-1.13l1.2-8.71c1.49.5,3.4.85,5.52.85,4.53,0,7.36-2.05,7.36-9.49v-30.02Z"/><path class="cls-1" d="m413.36,279.72c2.9,1.49,7.36,2.97,11.97,2.97,4.96,0,7.58-2.05,7.58-5.17s-2.27-4.67-8-6.73c-7.93-2.76-13.1-7.15-13.1-14.09,0-8.14,6.8-14.37,18.05-14.37,5.38,0,9.35,1.13,12.18,2.41l-2.41,8.71c-1.91-.92-5.31-2.27-9.98-2.27s-6.94,2.12-6.94,4.6c0,3.04,2.69,4.39,8.85,6.73,8.42,3.12,12.39,7.5,12.39,14.23,0,8-6.16,14.8-19.26,14.8-5.45,0-10.83-1.42-13.52-2.9l2.19-8.92Z"/></g></g></svg>