<?xml version="1.0" encoding="UTF-8"?><svg id="Layer_1" xmlns="http://www.w3.org/2000/svg" viewBox="0 0 500 500"><defs><style>.cls-1{fill:#fff;}.cls-2{fill:#34a753;}</style></defs><circle class="cls-2" cx="250" cy="250" r="172.28"/><path class="cls-1" d="m324.98,141.38c-17.48.61-32.73,10.24-44.09,23.57-12.57,14.61-20.94,31.94-26.97,49.63-10.78-8.84-19.1-20.28-36.4-25.26-13.37-3.84-27.41-2.25-40.33,7.37-6.12,4.57-10.33,11.48-12.34,17.97-5.19,16.87,5.46,31.89,10.29,37.28l10.57,11.33c2.18,2.22,7.43,8.02,4.86,16.32-2.77,9.03-13.66,14.88-24.83,11.43-4.99-1.52-12.15-5.24-10.55-10.47.66-2.14,2.2-3.74,3.02-5.59.75-1.59,1.11-2.78,1.34-3.48,2.04-6.66-.75-15.33-7.88-17.53-6.66-2.04-13.47-.42-16.11,8.15-2.99,9.74,1.66,27.41,26.63,35.11,29.25,8.99,53.99-6.94,57.5-27.71,2.21-13.01-3.66-22.67-14.42-35.1l-8.77-9.7c-5.31-5.31-7.14-14.35-1.64-21.3,4.64-5.86,11.24-8.37,22.06-5.42,15.79,4.29,22.83,15.25,34.58,24.08-4.85,15.91-8.02,31.88-10.89,46.19l-1.75,10.67c-8.4,44.04-14.81,68.22-31.46,82.11-3.36,2.39-8.15,5.96-15.38,6.21-3.79.12-5.02-2.49-5.07-3.63-.09-2.66,2.15-3.88,3.64-5.08,2.23-1.21,5.59-3.23,5.36-9.68-.24-7.62-6.56-14.23-15.69-13.93-6.84.23-17.26,6.67-16.87,18.45.41,12.17,11.75,21.28,28.84,20.71,9.14-.31,29.55-4.03,49.66-27.94,23.41-27.41,29.96-58.83,34.88-81.82l5.5-30.36c3.05.37,6.32.61,9.87.69,29.16.62,43.74-14.49,43.96-25.47.14-6.65-4.36-13.19-10.67-13.04-4.52.13-10.19,3.13-11.55,9.38-1.33,6.13,9.28,11.66.99,17.03-5.89,3.81-16.45,6.5-31.32,4.32l2.7-14.94c5.52-28.34,12.33-63.2,38.15-64.05,1.88-.1,8.77.08,8.93,4.64.05,1.52-.33,1.91-2.11,5.39-1.81,2.71-2.5,5.03-2.41,7.68.25,7.24,5.75,11.99,13.71,11.7,10.65-.34,13.72-10.72,13.54-16.05-.43-12.52-13.62-20.43-31.09-19.85h0Z"/></svg>