<?xml version="1.0" encoding="UTF-8"?><svg id="Layer_1" xmlns="http://www.w3.org/2000/svg" viewBox="0 0 500 500"><defs><style>.cls-1{fill:#ed4323;}</style></defs><path class="cls-1" d="m195.44,433.7c-22.03-9.52-42.65-33.73-42.7-58.5-.06-27,17.05-49.93,38.34-64.99-2.56,9.67-3.95,18.51,2.38,27.16,5.89,8.04,16.21,11.95,25.96,9.83,22.77-4.99,23.82-30.02,10.32-44.6-13.35-14.44-26.26-30.76-21.18-51.7,2.54-10.5,8.99-20.33,17.16-27.36-6.28,16.5,11.56,32.77,23.31,40.87,20.39,14.06,42.76,24.69,61.5,41.17,19.72,17.32,34.28,40.74,31.34,67.91-3.19,29.44-26.58,49.92-52.82,60.26,55.45-12.24,112.75-55.28,113.93-116.78.97-50.6-33.74-89.54-76.73-111.83l-2.25-1.23c1.18,2.86,1.57,5.3,1.52,7.48.38-1.61.65-3.26.72-4.97-.01,2.03-.28,4.04-.79,6l.07-1.04c-.64,2.69-1.71,5.25-3.18,7.59l.63-.68c-8.58,14.23-31.8,17.32-43.27,2.58-18.44-23.7.39-49.25,3.02-74.34,3.3-31.45-16.43-61.98-40.88-80.25,13.47,21.79-4.28,50.61-18.47,66.73-13.77,15.62-30.51,28.66-45.7,42.86-16.32,15.24-32.02,31.3-45.44,49.19-26.84,35.81-43.27,80.85-31.19,125.53,12.07,44.65,50.74,73.07,94.41,83.12h0Z"/></svg>