<?xml version="1.0" encoding="UTF-8"?><svg id="Layer_1" xmlns="http://www.w3.org/2000/svg" viewBox="0 0 500 500"><defs><style>.cls-1{fill:#cc2027;}.cls-2{fill:#00b3ef;}</style></defs><path class="cls-1" d="m279.68,219.09c0,4.52-3.53,6.8-6.8,6.8h-.75c-3.28,0-6.8-2.28-6.8-6.8v-1.02c0-4.52,3.53-6.8,6.8-6.8h.75c3.28,0,6.8,2.28,6.8,6.8v1.02h0Zm-139.72,45.39c3.84.49,5.78,3.73,5.78,6.74,0,3.28-2.28,6.8-6.8,6.8h-5.78c-2.39,0-4.54-1.33-5.76-3.26-3.81,2.26-8.27,3.55-13.09,3.55-13.57,0-25.07-11.33-25.07-25.07s10.98-25.94,25.36-25.94,25.15,10.96,25.36,24.69v12.48Zm-13.97-11.91c0-6.18-5.14-11.22-11.39-11.22s-11.39,5.27-11.39,11.72c0,6.12,5.17,11.22,11.22,11.22,6.51,0,11.55-5.22,11.55-11.72Zm102.04-11.37c-6.18,0-11.22,5.14-11.22,11.39s5.27,11.39,11.72,11.39c6.12,0,11.22-5.17,11.22-11.22,0-6.51-5.22-11.55-11.72-11.55h0Zm25.75,23.17c3.84.49,5.78,3.72,5.78,6.74,0,3.28-2.28,6.8-6.8,6.8h-5.78c-2.43,0-4.62-1.38-5.82-3.36-3.67,2.14-7.93,3.39-12.44,3.39-14.09,0-25.94-10.98-25.94-25.36s11.16-25.36,25.07-25.36c4.45,0,8.65,1.09,12.33,3.03v-13.23c0-4.52,3.53-6.13,6.8-6.13s6.8,1.61,6.8,6.13v47.35h0,0Zm-200.04,10.03l-13.92-33.1h-.87c-4.53,0-6.81-3.53-6.81-6.81s2.28-6.81,6.81-6.81h5.4c2.89,0,5.35,1.87,6.29,4.2l10.67,27.95,10.69-28c.97-2.16,3.33-4.15,6.27-4.15h5.4c4.53,0,6.81,3.53,6.81,6.81s-2.28,6.81-6.81,6.81h-.87l-13.92,33.1c-.96,2.23-2.69,4.16-7.54,4.16s-6.61-1.92-7.57-4.16Zm142.51-9.92c3.84.49,5.78,3.73,5.78,6.74,0,3.28-2.28,6.8-6.8,6.8h-5.78c-2.39,0-4.54-1.33-5.76-3.26-3.81,2.26-8.27,3.55-13.08,3.55-13.57,0-25.07-11.33-25.07-25.07s10.98-25.94,25.36-25.94,25.15,10.96,25.36,24.69v12.48Zm-13.97-11.91c0-6.18-5.14-11.22-11.39-11.22s-11.39,5.27-11.39,11.72c0,6.12,5.16,11.22,11.22,11.22,6.51,0,11.55-5.22,11.55-11.72Zm124.84-2.4l-.03,22.16c0,4.52-3.29,5.7-7.6,5.7-3.28,0-6.8-1.18-6.8-5.7-.03-.44-.05-29.89-.05-29.89-3.84-.49-5.78-3.72-5.78-6.74,0-3.28,2.28-6.8,6.8-6.8h5.78c2.36,0,4.5,1.3,5.73,3.21,3.93-3.2,9.44-4.9,14.64-4.9,14.53,0,23.47,10.68,23.51,23.95v13.31c3.85.49,5.79,3.72,5.79,6.74,0,3.28-2.28,6.8-6.8,6.8h-6.53c-3.66,0-6.8-3.14-6.8-6.8v-20.84c0-6.02-3.93-10.66-11.04-10.66-5.68,0-10.82,4.72-10.82,10.46h0Zm-28.8,27.86h-5.78c-3.66,0-6.8-3.14-6.8-6.8v-35.6c0-4.52,3.53-6.8,6.8-6.8h.75c3.27,0,6.8,2.28,6.8,6.8v28.85c3.84.49,5.78,3.73,5.78,6.74,0,3.28-2.28,6.8-6.8,6.8h-.75Z"/><path class="cls-2" d="m464.15,256.65l-36.82,12.43v.78c0,4.04-3.15,6.08-6.08,6.08s-6.08-2.04-6.08-6.08v-4.82c0-2.58,1.67-4.78,3.75-5.61l32.23-9.52-32.27-9.54c-1.93-.86-3.7-2.97-3.7-5.6v-4.82c0-4.04,3.15-6.08,6.08-6.08s6.08,2.04,6.08,6.08v.78l36.82,12.43c1.99.86,3.72,2.4,3.72,6.73s-1.72,5.9-3.72,6.76h0Zm-82.64,28.61v-23.35c0-10.62,8.17-11.44,12.26-11.79-4.09-.58-12.26-1.4-12.26-12.02v-23.35c0-4.9-2.22-7-5.49-7h-2.92c-3.04,0-5.25-1.63-5.25-5.25,0-3.38,2.22-5.25,5.25-5.25h8.64c10.16,0,15.18,4.79,15.18,15.53v23.82c0,7.12,3.03,7.82,5.95,7.82,3.85,0,5.61,2.8,5.61,5.6s-1.75,5.61-5.61,5.61c-2.92,0-5.95.7-5.95,7.82v23.82c0,10.74-5.02,15.53-15.18,15.53h-8.64c-3.04,0-5.25-1.87-5.25-5.26,0-3.62,2.22-5.26,5.25-5.26h2.92c3.27,0,5.49-2.1,5.49-7.01h0Z"/></svg>