<?xml version="1.0" encoding="UTF-8"?><svg id="Layer_1" xmlns="http://www.w3.org/2000/svg" viewBox="0 0 500 500"><defs><style>.cls-1{fill:#9c5025;}.cls-2{fill:#f58436;}.cls-3{fill:#fabe92;}.cls-4{fill:#6b3a19;}</style></defs><path class="cls-1" d="m106.25,351.79l18.33,9.17,3.01-5.34v-212.64l-3.01-3.92-18.33,9.17v203.57"/><path class="cls-2" d="m159.79,147.73l-35.22-8.68v221.9l35.22-8.2v-205.02"/><path class="cls-4" d="m267.85,164.62l25.08-13.02,83.45,32.32-22.19,2.89-86.35-22.19"/><path class="cls-3" d="m268.81,335.38l24.6,13.02,83.45-32.32-22.19-2.9-85.87,22.19"/><path class="cls-1" d="m275.09,299.69l43.9,5.79,2.52-4.52v-101.08l-2.52-5.35-43.9,5.79v99.37M146.28,127.95l27.01-13.51,2.95,5.69v259.43l-2.95,5.98-27.01-13.51V127.95"/><path class="cls-2" d="m228.29,367.22l-54.99,17.85V114.45l54.99,17.85v234.93"/><path class="cls-1" d="m207.07,401.95l42.93,21.71,4.49-5.16V82.7l-4.49-6.36-42.93,21.71v303.91m146.17-215.15l22.19-2.89,1.91,2.77v126.63l-1.91,3.26-22.19-2.89v-126.87"/><path class="cls-2" d="m318.98,194.52v111.43l45.83-55.96-45.83-55.48"/><path class="cls-2" d="m375.42,139.05l-125.42-62.71v347.33l143.75-71.88v-203.57l-18.33-9.17Zm0,177.69l-82.49,24.64v-182.75l82.49,24.64v133.48Z"/></svg>