<?xml version="1.0" encoding="UTF-8"?><svg id="Layer_1" xmlns="http://www.w3.org/2000/svg" viewBox="0 0 500 500"><defs><style>.cls-1{fill:#05988a;}</style></defs><path class="cls-1" d="m126.81,338.73l-12.42-7.17L252.8,91.82l12.42,7.17-138.41,239.73Z"/><path class="cls-1" d="m111.54,312.4h276.83v14.35H111.54v-14.35Z"/><path class="cls-1" d="m255.49,400.41l-138.47-79.95,7.17-12.42,138.47,79.95-7.17,12.42Zm120.28-208.36l-138.47-79.95,7.17-12.42,138.47,79.95-7.17,12.42Z"/><path class="cls-1" d="m124.23,191.99l-7.17-12.42,138.47-79.95,7.17,12.42-138.47,79.95Z"/><path class="cls-1" d="m373.22,338.73L234.8,99l12.42-7.17,138.41,239.73-12.42,7.17ZM122.52,170.05h14.35v159.89h-14.35v-159.89Z"/><path class="cls-1" d="m363.13,170.05h14.35v159.89h-14.35v-159.89Z"/><path class="cls-1" d="m253.04,394.33l-6.27-10.85,120.43-69.53,6.27,10.85-120.43,69.53Z"/><path class="cls-1" d="m396.49,334.61c-8.3,14.43-26.79,19.36-41.23,11.06-14.43-8.3-19.36-26.79-11.06-41.23s26.79-19.36,41.23-11.06c14.52,8.38,19.45,26.79,11.06,41.23m-240.79-139.06c-8.3,14.43-26.79,19.36-41.23,11.06-14.43-8.3-19.36-26.79-11.06-41.23,8.3-14.43,26.79-19.36,41.23-11.06,14.43,8.38,19.36,26.79,11.06,41.23m-52.2,139.06c-8.3-14.43-3.37-32.84,11.06-41.23,14.43-8.3,32.84-3.37,41.23,11.06,8.3,14.43,3.37,32.84-11.06,41.23-14.52,8.3-32.93,3.37-41.23-11.06m240.79-139.06c-8.3-14.43-3.37-32.84,11.06-41.23,14.43-8.3,32.84-3.37,41.23,11.06,8.3,14.43,3.37,32.84-11.06,41.23-14.43,8.3-32.93,3.37-41.23-11.06m-94.29,223.67c-16.68,0-30.16-13.48-30.16-30.16s13.48-30.16,30.16-30.16,30.16,13.48,30.16,30.16-13.48,30.16-30.16,30.16m0-278.12c-16.68,0-30.16-13.48-30.16-30.16s13.48-30.16,30.16-30.16,30.16,13.48,30.16,30.16-13.48,30.16-30.16,30.16"/></svg>