<?xml version="1.0" encoding="UTF-8"?><svg id="Layer_1" xmlns="http://www.w3.org/2000/svg" viewBox="0 0 500 500"><defs><style>.cls-1{fill:#8086e7;}</style></defs><path class="cls-1" d="m392.31,89.02c4.63,2.22,5.71,4.13,5.21,9.13-3.87,39.02-7.72,78.04-11.62,117.05-3.88,38.81-7.82,77.6-11.73,116.41-1.08,10.74-2.21,21.48-3.18,32.24-.33,3.68-2.09,5.95-5.51,7.23-35.02,13.1-70.01,26.27-105.07,39.25-2.16.8-5.07.86-7.26.14-39.48-13.02-78.89-26.22-118.33-39.34-3.6-1.2-5.45-3.45-5.83-7.28-3.53-35.89-7.12-71.77-10.73-107.66-4.1-40.89-8.25-81.78-12.35-122.67-1.17-11.68-2.27-23.37-3.41-35.06-.53-5.41.45-7.2,5.17-9.45h284.63Zm-275.77,13.57c0,.98-.05,1.61,0,2.23,1.73,17.42,3.47,34.85,5.22,52.27,2.21,22.01,4.45,44.02,6.65,66.04,2.2,22.01,4.36,44.03,6.56,66.04,2.23,22.33,4.53,44.64,6.65,66.98.24,2.52,1.14,3.54,3.48,4.32,36.29,12.02,72.54,24.15,108.84,36.16,1.52.5,3.55.51,5.04-.05,32-11.9,63.95-23.95,95.95-35.85,2.35-.88,3.14-2.09,3.37-4.48,2.3-24.11,4.7-48.21,7.11-72.31,2.83-28.27,5.71-56.54,8.56-84.81,2.71-26.91,5.4-53.83,8.08-80.74.52-5.2.99-10.4,1.5-15.8H116.54Z"/><path class="cls-1" d="m315.91,236.82h-4.11c-41.97,0-83.94,0-125.92,0-7.44,0-9.41-1.88-10.14-9.28-2.03-20.66-4.1-41.32-6.19-61.97-.64-6.27,1.96-9.33,8.27-9.33,52.57-.02,105.14-.01,157.71,0,.94,0,1.9.03,2.82.18,3.1.49,5.29,2.9,5.5,5.97.22,3.14-1.5,5.86-4.54,6.72-1.48.42-3.1.49-4.66.49-49,.02-98,.02-147.01.02h-4.13c1.79,17.97,3.56,35.65,5.36,53.68,1.53,0,2.86,0,4.2,0,42.5,0,84.99,0,127.49,0,1.25,0,2.53,0,3.76.19,4.47.72,6.76,3.74,6.07,8.26-3.57,23.41-7.19,46.82-10.8,70.23-.77,4.97-1.58,9.94-2.26,14.92-.49,3.55-2.18,5.89-5.65,7.18-17.19,6.37-34.3,12.92-51.52,19.2-1.99.73-4.65.76-6.67.11-19.42-6.3-38.77-12.84-58.16-19.24-3.46-1.14-5.29-3.29-5.97-6.89-1.91-10.09-4.03-20.13-6.05-30.2-.7-3.48-.65-6.79,2.78-8.92,4.21-2.62,9.11-.02,10.26,5.45,1.35,6.46,3.13,12.89,3.72,19.43.65,7.12,3.8,10.39,10.77,12.35,14.6,4.12,28.86,9.45,43.3,14.15,1.45.47,3.35.46,4.77-.06,14.35-5.27,28.65-10.71,42.98-16.04,1.58-.59,2.62-1.2,2.91-3.15,3.59-23.94,7.29-47.86,10.95-71.79.06-.41.08-.82.16-1.65Z"/></svg>