<?xml version="1.0" encoding="UTF-8"?>
<svg id="Layer_1" data-name="Layer 1" xmlns="http://www.w3.org/2000/svg" viewBox="0 0 500 500">
  <defs>
    <style>
      .cls-1 {
        fill: #a6120d;
      }

      .cls-2 {
        fill: #00d2ff;
      }

      .cls-3 {
        fill: #dd1b16;
      }

      .cls-4 {
        fill: #ccc;
      }

      .cls-5 {
        fill: #b3b3b3;
      }

      .cls-6 {
        fill: #f2f2f2;
      }
    </style>
  </defs>
  <path class="cls-4" d="m139.88,276.22v-46.69h6.04l28.57,37.61v-37.61h5.71v46.69h-6.04l-28.57-37.94v37.94h-5.71,0Zm86.68-1.83c-3.76,1.44-7.83,2.16-12.18,2.16-16.91,0-25.37-8.11-25.37-24.32,0-15.34,8.16-23.02,24.48-23.02,4.68,0,9.04.65,13.06,1.96v5.22c-4.02-1.52-8.16-2.29-12.41-2.29-12.73,0-19.09,6.04-19.09,18.12,0,12.95,6.26,19.43,18.81,19.43,2,0,4.22-.26,6.66-.79v-15.87h6.04v19.39h0Zm9.63-16.19v-28.66h6.03v28.66c0,8.97,4.46,13.46,13.39,13.46s13.39-4.49,13.39-13.46v-28.66h6.04v28.66c0,12.24-6.47,18.35-19.42,18.35s-19.42-6.11-19.42-18.35h0Zm55.66-28.67v41.79h24.43v4.9h-30.46v-46.69h6.04,0Zm33.14,46.69h-6.27l23.21-52.85,23.21,52.85h-6.69l-6.04-14.69h-15.44l1.66-4.89h11.75l-8.72-21.16-16.68,40.74h0Zm46.52,0v-46.69h19.92c8.88,0,13.32,3.73,13.32,11.2,0,6.07-4.34,10.57-13.03,13.48l16.03,22.01h-7.97l-14.85-20.99v-3.95c8.92-1.42,13.38-4.85,13.38-10.29,0-4.31-2.48-6.47-7.44-6.47h-13.32v41.69h-6.04s0,0,0,0Zm58.87-46.69v33.24c0,8.97-5.28,13.45-15.84,13.45v-4.9c6.53,0,9.8-2.85,9.8-8.55v-33.24h6.04Zm10.77,45.05v-5.55c4.9,1.74,10.19,2.61,15.87,2.61,8.03,0,12.05-2.94,12.05-8.82,0-5-2.96-7.51-8.88-7.51h-6.01c-9.77,0-14.66-4.24-14.66-12.73,0-8.92,6.26-13.39,18.78-13.39,5.44,0,10.5.66,15.18,1.96v5.55c-4.68-1.74-9.74-2.61-15.18-2.61-8.49,0-12.73,2.83-12.73,8.49,0,5,2.87,7.51,8.61,7.51h6.01c9.94,0,14.92,4.25,14.92,12.73,0,9.14-6.03,13.72-18.09,13.72-5.68,0-10.97-.66-15.87-1.96h0Z"/>
  <path class="cls-2" d="m141.41,274.7v-46.69h6.04l28.57,37.61v-37.61h5.71v46.69h-6.04l-28.57-37.94v37.94h-5.71Zm86.68-1.83c-3.76,1.44-7.82,2.15-12.18,2.15-16.91,0-25.37-8.11-25.37-24.32,0-15.34,8.16-23.02,24.49-23.02,4.68,0,9.03.66,13.06,1.96v5.22c-4.02-1.52-8.16-2.29-12.4-2.29-12.73,0-19.1,6.04-19.1,18.12,0,12.95,6.27,19.43,18.8,19.43,2,0,4.22-.26,6.66-.79v-15.87h6.04v19.39Zm9.63-16.19v-28.67h6.04v28.67c0,8.97,4.46,13.45,13.39,13.45s13.39-4.49,13.39-13.45v-28.67h6.04v28.67c0,12.24-6.47,18.35-19.42,18.35s-19.42-6.11-19.42-18.35Zm55.66-28.67v41.79h24.42v4.9h-30.46v-46.69h6.04Zm33.14,46.69h-6.27l23.21-52.85,23.21,52.85h-6.7l-6.04-14.69h-15.44l1.67-4.9h11.75l-8.71-21.16-16.68,40.75h0Zm46.52,0v-46.69h19.92c8.88,0,13.32,3.73,13.32,11.2,0,6.07-4.34,10.57-13.02,13.48l16.03,22.01h-7.97l-14.85-20.99v-3.95c8.92-1.42,13.39-4.84,13.39-10.29,0-4.31-2.48-6.46-7.45-6.46h-13.32v41.69h-6.04Z"/>
  <path class="cls-1" d="m431.91,228.01v33.24c0,8.97-5.28,13.45-15.83,13.45v-4.9c6.53,0,9.8-2.86,9.8-8.56v-33.24h6.04,0Zm10.77,45.05v-5.55c4.9,1.74,10.19,2.61,15.87,2.61,8.03,0,12.05-2.94,12.05-8.82,0-5-2.96-7.51-8.88-7.51h-6.01c-9.77,0-14.66-4.24-14.66-12.73,0-8.92,6.26-13.39,18.78-13.39,5.44,0,10.5.66,15.18,1.96v5.55c-4.68-1.74-9.74-2.61-15.18-2.61-8.49,0-12.73,2.83-12.73,8.49,0,5,2.87,7.51,8.61,7.51h6.01c9.94,0,14.92,4.25,14.92,12.73,0,9.14-6.03,13.71-18.09,13.71-5.68,0-10.97-.66-15.87-1.96h0Z"/>
  <g>
    <path class="cls-5" d="m77.89,192.06l-54.53,19.19,8.62,71.44,45.97,25.26,46.2-25.61,8.61-71.43-54.87-18.85h0Z"/>
    <path class="cls-1" d="m127.33,215.03l-49.56-16.9v103.78l41.54-22.99,8.03-63.89h0Z"/>
    <path class="cls-3" d="m29.49,215.34l7.38,63.89,40.9,22.68v-103.78l-48.28,17.21h0Z"/>
    <path class="cls-6" d="m91.41,253.38l-13.64,6.38h-14.38l-6.76,16.91-12.57.23,33.71-75,13.64,51.48Zm-1.32-3.21l-12.23-24.22-10.03,23.8h9.94l12.33.42h0Z"/>
    <path class="cls-5" d="m77.76,201.9l.09,24.05,11.39,23.82h-11.45l-.03,9.97,15.83.02,7.4,17.14,12.03.22-35.27-75.22h0Z"/>
  </g>
</svg>