<?xml version="1.0" encoding="UTF-8"?><svg id="Layer_1" xmlns="http://www.w3.org/2000/svg" xmlns:xlink="http://www.w3.org/1999/xlink" viewBox="0 0 500 500"><defs><style>.cls-1{fill:url(#linear-gradient-2);}.cls-2{fill:#fff;}.cls-3{fill:url(#linear-gradient-14);}.cls-4{fill:url(#linear-gradient-6);}.cls-5{fill:url(#linear-gradient-11);}.cls-6{fill:url(#linear-gradient-10);}.cls-7{fill:url(#radial-gradient);}.cls-8{fill:url(#linear-gradient-5);}.cls-9{fill:url(#radial-gradient-2);}.cls-10{fill:#9d1209;}.cls-11{fill:url(#linear-gradient-7);}.cls-12{fill:url(#linear-gradient-9);}.cls-13{fill:url(#linear-gradient-3);}.cls-14{fill:url(#linear-gradient);}.cls-15{fill:url(#linear-gradient-4);}.cls-16{fill:url(#linear-gradient-8);}.cls-17{fill:url(#linear-gradient-12);}.cls-18{fill:#43a4ea;}.cls-19{fill:url(#linear-gradient-13);}</style><linearGradient id="linear-gradient" x1="-548.81" y1="-2590.73" x2="-548.82" y2="-2590.72" gradientTransform="translate(1087846.3 -5129637.87) scale(1981.58 -1980.1)" gradientUnits="userSpaceOnUse"><stop offset="0" stop-color="#fa7655"/><stop offset="0" stop-color="#fa7655"/><stop offset=".41" stop-color="#e32b1e"/><stop offset=".99" stop-color="#980000"/><stop offset="1" stop-color="#980000"/></linearGradient><linearGradient id="linear-gradient-2" x1="-550.48" y1="-2591.42" x2="-550.52" y2="-2591.41" gradientTransform="translate(324512.86 -2828244.49) scale(588.89 -1091.48)" gradientUnits="userSpaceOnUse"><stop offset="0" stop-color="#861101"/><stop offset="0" stop-color="#861101"/><stop offset=".99" stop-color="#901209"/><stop offset="1" stop-color="#901209"/></linearGradient><linearGradient id="linear-gradient-3" x1="-548.81" y1="-2596.78" x2="-548.82" y2="-2596.71" gradientTransform="translate(1009514.69 -557228.12) scale(1838.89 -214.69)" xlink:href="#linear-gradient-2"/><linearGradient id="linear-gradient-4" x1="-547.97" y1="-2591.49" x2="-547.97" y2="-2591.52" gradientTransform="translate(349272.9 -2456905.03) scale(636.89 -948.15)" gradientUnits="userSpaceOnUse"><stop offset="0" stop-color="#fff"/><stop offset="0" stop-color="#fff"/><stop offset=".23" stop-color="#e47252"/><stop offset=".46" stop-color="#dd3b20"/><stop offset=".99" stop-color="#a50003"/><stop offset="1" stop-color="#a50003"/></linearGradient><linearGradient id="linear-gradient-5" x1="-548.89" y1="-2591.95" x2="-548.89" y2="-2591.98" gradientTransform="translate(564785.6 -2703525.15) scale(1028.42 -1043.12)" gradientUnits="userSpaceOnUse"><stop offset="0" stop-color="#fff"/><stop offset="0" stop-color="#fff"/><stop offset=".23" stop-color="#e3714e"/><stop offset=".56" stop-color="#bd1a0d"/><stop offset=".99" stop-color="#a70d00"/><stop offset="1" stop-color="#a70d00"/></linearGradient><linearGradient id="linear-gradient-6" x1="-549.69" y1="-2594.6" x2="-549.69" y2="-2594.63" gradientTransform="translate(506596.7 -1682551.23) scale(921.02 -648.55)" gradientUnits="userSpaceOnUse"><stop offset="0" stop-color="#fff"/><stop offset="0" stop-color="#fff"/><stop offset=".18" stop-color="#e36342"/><stop offset=".4" stop-color="#c72410"/><stop offset=".99" stop-color="#a70d00"/><stop offset="1" stop-color="#a70d00"/></linearGradient><linearGradient id="linear-gradient-7" x1="-549.79" y1="-2605.17" x2="-549.76" y2="-2605.14" gradientTransform="translate(380220.87 -618011.71) scale(691.02 -237.29)" gradientUnits="userSpaceOnUse"><stop offset="0" stop-color="#fff"/><stop offset="0" stop-color="#fff"/><stop offset=".54" stop-color="#c71f11"/><stop offset=".99" stop-color="#be0905"/><stop offset="1" stop-color="#be0905"/></linearGradient><linearGradient id="linear-gradient-8" x1="-544.46" y1="-2592.68" x2="-544.45" y2="-2592.7" gradientTransform="translate(96894.69 -1838917.98) scale(177.49 -709.36)" gradientUnits="userSpaceOnUse"><stop offset="0" stop-color="#fff"/><stop offset="0" stop-color="#fff"/><stop offset=".31" stop-color="#dd4024"/><stop offset=".99" stop-color="#be190b"/><stop offset="1" stop-color="#be190b"/></linearGradient><linearGradient id="linear-gradient-9" x1="-548.54" y1="-2591.49" x2="-548.5" y2="-2591.45" gradientTransform="translate(847420.81 -3996396.46) scale(1544.41 -1542.21)" gradientUnits="userSpaceOnUse"><stop offset="0" stop-color="#bc0012"/><stop offset="0" stop-color="#bc0012"/><stop offset=".07" stop-color="#fff"/><stop offset=".17" stop-color="#fff"/><stop offset=".27" stop-color="#c72f1c"/><stop offset=".33" stop-color="#810c01"/><stop offset=".46" stop-color="#a21601"/><stop offset=".72" stop-color="#b21301"/><stop offset=".99" stop-color="#e72609"/><stop offset="1" stop-color="#e72609"/></linearGradient><linearGradient id="linear-gradient-10" x1="-548.73" y1="-2591.51" x2="-548.75" y2="-2591.5" gradientTransform="translate(681181.93 -2464720.35) scale(1240.83 -951.17)" gradientUnits="userSpaceOnUse"><stop offset="0" stop-color="#8b0c01"/><stop offset="0" stop-color="#8b0c01"/><stop offset=".54" stop-color="#980c00"/><stop offset=".99" stop-color="#a70d0e"/><stop offset="1" stop-color="#a70d0e"/></linearGradient><linearGradient id="linear-gradient-11" x1="-549.69" y1="-2591.99" x2="-549.71" y2="-2591.98" gradientTransform="translate(504941.81 -2672595.72) scale(917.99 -1031.18)" gradientUnits="userSpaceOnUse"><stop offset="0" stop-color="#7e110b"/><stop offset="0" stop-color="#7e110b"/><stop offset=".99" stop-color="#9d0c00"/><stop offset="1" stop-color="#9d0c00"/></linearGradient><linearGradient id="linear-gradient-12" x1="-550.05" y1="-2593.82" x2="-550.07" y2="-2593.81" gradientTransform="translate(428430 -2071402.62) scale(778.27 -798.67)" gradientUnits="userSpaceOnUse"><stop offset="0" stop-color="#79130d"/><stop offset="0" stop-color="#79130d"/><stop offset=".99" stop-color="#9d120b"/><stop offset="1" stop-color="#9d120b"/></linearGradient><radialGradient id="radial-gradient" cx="-549.71" cy="-2595.46" fx="-549.71" fy="-2595.46" r=".02" gradientTransform="translate(500134.5 -1232908.15) scale(909.23 -475.1)" gradientUnits="userSpaceOnUse"><stop offset="0" stop-color="#a70d00"/><stop offset="0" stop-color="#a70d00"/><stop offset=".99" stop-color="#7e0e08"/><stop offset="1" stop-color="#7e0e08"/></radialGradient><radialGradient id="radial-gradient-2" cx="-548.96" cy="-2592.21" fx="-548.96" fy="-2592.21" r=".03" gradientTransform="translate(522579.27 -1919640.8) scale(951.41 -740.63)" gradientUnits="userSpaceOnUse"><stop offset="0" stop-color="#a20c00"/><stop offset="0" stop-color="#a20c00"/><stop offset=".99" stop-color="#800e08"/><stop offset="1" stop-color="#800e08"/></radialGradient><linearGradient id="linear-gradient-13" x1="-547.21" y1="-2591.84" x2="-547.23" y2="-2591.81" gradientTransform="translate(214726.33 -2053363.82) scale(391.92 -792.34)" gradientUnits="userSpaceOnUse"><stop offset="0" stop-color="#8a2114"/><stop offset="0" stop-color="#8a2114"/><stop offset=".43" stop-color="#9d100a"/><stop offset=".99" stop-color="#b2100c"/><stop offset="1" stop-color="#b2100c"/></linearGradient><linearGradient id="linear-gradient-14" x1="-550.09" y1="-2601.03" x2="-550.07" y2="-2601.06" gradientTransform="translate(419838.47 -828395.64) scale(762.62 -318.55)" gradientUnits="userSpaceOnUse"><stop offset="0" stop-color="#b21000"/><stop offset="0" stop-color="#b21000"/><stop offset=".44" stop-color="#900f08"/><stop offset=".99" stop-color="#791c12"/><stop offset="1" stop-color="#791c12"/></linearGradient></defs><g><path class="cls-18" d="m103.83,280.82c8.03-37.03,22.97-70.74,45.98-100.63,18.98-24.65,41.98-44.67,70.29-58.15,10.17-4.84,20.8-8.36,32.01-9.7,9.14-1.09,18.31-1.15,27.51-.25,37.85,3.7,70.43,20.09,100.68,41.9,8.54,6.16,16.41,13.26,24.58,19.93.74.6,1.49,1.18,2.49,1.96-2.02,1.59-3.61,2.84-5.16,4.05-6.22-4.11-12.25-8.32-18.5-12.19-15.23-9.43-31.35-16.87-48.89-20.96-9.44-2.2-19.03-3.58-28.71-3.03-25.91,1.47-48.67,10.6-67.15,29.15-12.76,12.8-20.51,28.51-25.06,45.86-2.45,9.34-3.75,18.84-4.43,28.49-.73,10.26-.22,20.45.65,30.65.36,4.15,1.2,8.27,1.85,12.57h-109.74c.52-3.25,1.02-6.35,1.58-9.65Z"/><path class="cls-18" d="m92.71,349.33v-30.62h2.6c13.43,0,26.87,0,40.3,0,12.87,0,24.29,9.81,26.26,22.56,1.02,6.55.72,13.02-1.57,19.26-3.05,8.32-9.04,13.39-18.23,15.37,8.67,8.74,17.13,17.27,25.88,26.1-.95.1-1.52.2-2.1.21-9.78.01-19.55.05-29.33-.06-1.1-.01-2.44-.65-3.23-1.45-5.85-5.91-11.6-11.94-17.8-18.37v19.73h-22.78v-52.73m25.07-9.62h-2.18v18.9c5.13,0,10.05-.17,14.95.06,3.43.16,5.33-1.52,6.61-4.33,1.41-3.1,1.45-6.31.4-9.5-1.26-3.83-3.15-5.12-7.17-5.12-4.05,0-8.09,0-12.61,0Z"/><path class="cls-18" d="m209.6,387.5h-13.39v14.58h-22.99c-.05-.75-.13-1.44-.13-2.14,0-19.39-.05-38.78.01-58.16.04-10.29,6.36-19.13,15.46-21.67,2.19-.61,4.53-.85,6.81-.88,7.31-.11,14.62-.1,21.93-.02,6.1.06,11.5,2.12,16.05,6.24,3.98,3.61,6.12,8.28,6.16,13.51.17,20.97.07,41.94.07,63.09h-22.22v-14.54h-7.75m-3.57-48.41c-1.82.08-3.67,0-5.46.29-2.23.35-4.37,1.4-4.44,3.92-.18,6.72-.06,13.45-.06,20.28h21.16c0-6.4.01-12.65,0-18.91,0-3.21-1.55-5.02-4.79-5.38-1.96-.22-3.96-.14-6.42-.19Z"/><path class="cls-18" d="m402.06,358.24c3.36,4.1,4.9,8.69,4.84,13.79-.05,4.21.24,8.5-.49,12.6-1.76,9.89-9.83,17.11-20.17,17.47-13.02.45-26.07.11-39.29.11v-21.44h38.5v-10.18c-3.96,0-7.83.09-11.7-.03-3.8-.12-7.7.04-11.36-.77-10.12-2.23-16.76-10.65-16.75-20.96,0-4.66-.03-9.46,1.04-13.94,2-8.4,10.52-15.3,19.11-15.52,12.48-.32,24.96-.11,37.45-.12.14,0,.27.12.53.23v21.09h-37.5v9.72c1.19,0,2.43,0,3.67,0,5.01,0,10.02-.07,15.03.02,6.78.12,12.5,2.66,17.11,7.94Z"/><path class="cls-18" d="m290.24,402.22h-6.76v-82.84h23.65v61.18h31.71v21.66h-48.61Z"/><path class="cls-18" d="m253.54,402.22c-1.25,0-2.27,0-3.44,0v-82.82h23.51v82.82h-20.07Z"/><path class="cls-18" d="m103.16,219.11c4.25,1.55,8.31,3.05,12.54,4.61-2.34,5.6-4.62,11.05-6.99,16.72-5.29-1.93-10.53-3.84-16.08-5.86,2.31-5.56,4.58-10.99,6.94-16.67,1.22.41,2.31.78,3.59,1.19Z"/><path class="cls-18" d="m233.58,286.01c-4.86-1.74-9.57-3.39-14.26-5.12-.66-.24-1.63-.81-1.69-1.32-.7-5.47-1.25-10.95-1.9-16.94,5.23,1.88,9.84,3.5,14.41,5.22.45.17.91.86,1.01,1.38,1.08,5.44,2.09,10.89,3.09,16.35.02.13-.32.33-.66.43Z"/><path class="cls-18" d="m153.51,166.33c-1.84,2.19-3.57,4.26-5.48,6.54-3.53-3.02-7.05-6.02-10.79-9.22,3.7-3.35,7.26-6.58,11-9.97,2.72,2.38,5.98,5.22,9.32,8.15-1.41,1.57-2.67,2.97-4.05,4.5Z"/><path class="cls-18" d="m229.69,233.9c-.1.88-.18,1.56-.32,2.71-3.82-3.01-7.36-5.75-10.81-8.59-.33-.27-.34-1.19-.21-1.73,1.16-4.6,2.39-9.17,3.7-14.15,3.38,2.67,6.5,5.05,9.51,7.57.43.36.5,1.42.39,2.09-.69,3.97-1.48,7.93-2.26,12.09Z"/><path class="cls-18" d="m249.9,178.29c1.1,1.66,2.09,3.19,3.14,4.79-2.72,3.25-5.44,6.48-8.3,9.9-2.25-3.37-4.42-6.63-6.72-10.08,2.84-3.08,5.63-6.1,8.64-9.36,1.14,1.68,2.15,3.14,3.25,4.75Z"/><path class="cls-18" d="m193.46,118.33c.09-.75.07-1.66.46-1.89,3.12-1.85,6.31-3.57,9.65-5.42,2.12,3.24,4.14,6.33,6.3,9.62-3.55,2.06-7.01,4.06-10.73,6.22-1.86-2.78-3.73-5.58-5.68-8.53Z"/><path class="cls-18" d="m321.27,106.94c2.86,1.02,5.54,1.98,8.2,2.97,1.16.43,1.68,1.08,1.48,2.51-.32,2.41-.28,4.86-.41,7.64-4.68-1.73-9.08-3.35-13.63-5.03.2-3.04.4-6.01.62-9.19,1.3.39,2.43.72,3.74,1.1Z"/><path class="cls-18" d="m273.63,156.64c3.78-1.41,7.4-2.75,11.22-4.17,1.09,3.25,2.09,6.21,3.11,9.26-4.08,1.66-8,3.25-12.17,4.94-1.02-3.01-2.05-5.96-2.99-8.94-.08-.25.42-.67.82-1.08Z"/><path class="cls-18" d="m330.83,154.38c-.11,1.86-.19,3.51-.29,5.27-4.64-.56-9.13-1.09-13.83-1.65.16-2.83.32-5.63.5-8.88,4.45.62,8.68,1.09,12.85,1.85,1.98.37.4,2.14.77,3.41Z"/><path class="cls-18" d="m267.05,104.84c.62,1.49-.29,1.43-1.11,1.43-3.95,0-7.9,0-12.18,0-.7-2.19-1.55-4.86-2.51-7.87,4.33-.27,8.34-.57,12.35-.72.47-.02,1.22.64,1.42,1.14.75,1.91,1.32,3.89,2.03,6.02Z"/></g><g><path class="cls-18" d="m267.11,302.5v-6.69c0-3.95-1.34-5.42-4.38-5.42h-2.31v17.34h-6.69v-42.59h10.1c6.94,0,9.92,3.22,9.92,9.79v3.35c0,4.38-1.4,7.24-4.38,8.64,3.35,1.4,4.44,4.62,4.44,9.07v6.57c0,2.07.06,3.59.73,5.17h-6.81c-.37-1.09-.61-1.76-.61-5.23Zm-6.69-18.19h2.62c2.49,0,4.02-1.1,4.02-4.5v-4.2c0-3.04-1.03-4.38-3.41-4.38h-3.22v13.08Z"/><path class="cls-18" d="m284.57,298c0,3.04,1.34,4.14,3.47,4.14s3.47-1.1,3.47-4.14v-32.85h6.33v32.43c0,6.81-3.41,10.71-9.98,10.71s-9.98-3.89-9.98-10.71v-32.43h6.69v32.85Z"/><path class="cls-18" d="m322.41,274.95v1.52c0,4.38-1.34,7.18-4.32,8.58,3.59,1.4,4.99,4.62,4.99,9.13v3.47c0,6.57-3.47,10.1-10.16,10.1h-10.52v-42.59h10.1c6.94,0,9.92,3.22,9.92,9.79Zm-13.32,7.54h2.62c2.49,0,4.02-1.1,4.02-4.5v-2.37c0-3.04-1.03-4.38-3.41-4.38h-3.22v11.25Zm0,19.16h3.83c2.25,0,3.47-1.03,3.47-4.2v-3.71c0-3.96-1.28-5.17-4.32-5.17h-2.98v13.08Z"/><path class="cls-18" d="m323.99,265.15h7l5.11,19.41,5.11-19.41h6.39l-8.46,28.47v14.11h-6.69v-14.11l-8.46-28.47Z"/><path class="cls-18" d="m369.31,264.66c6.57,0,10.16,3.89,10.16,10.71v22.14c0,6.81-3.59,10.71-10.16,10.71s-10.16-3.89-10.16-10.71v-22.14c0-6.81,3.59-10.71,10.16-10.71Zm0,37.48c2.13,0,3.47-1.16,3.47-4.2v-23c0-3.04-1.34-4.2-3.47-4.2s-3.47,1.16-3.47,4.2v23c0,3.04,1.34,4.2,3.47,4.2Z"/><path class="cls-18" d="m389.75,307.74h-6.02v-42.59h8.4l6.87,25.49v-25.49h5.96v42.59h-6.87l-8.33-30.84v30.84Z"/></g><g><path class="cls-14" d="m322.57,227.6l-50.04,29.71,64.79-4.4,4.99-65.33-19.74,40.02h0Z"/><path class="cls-1" d="m337.43,252.88l-5.57-38.44-15.17,20.03,20.74,18.41h0Z"/><path class="cls-13" d="m337.5,252.88l-40.8-3.2-23.96,7.56,64.76-4.36h0Z"/><path class="cls-15" d="m272.8,257.24l10.19-33.39-22.43,4.8,12.24,28.59h0Z"/><path class="cls-8" d="m316.69,234.58l-9.38-36.73-26.84,25.16,36.22,11.58h0Z"/><path class="cls-4" d="m340.18,198.36l-25.37-20.72-7.06,22.84,32.43-2.12h0Z"/><path class="cls-11" d="m328.32,170.26l-14.92,8.25-9.41-8.36,24.34.11h0Z"/><path class="cls-16" d="m254.66,239.85l6.25-11.4-5.06-13.58-1.19,24.98Z"/><path class="cls-2" d="m255.52,214.44l5.09,14.43,22.11-4.96,25.24-23.45,7.12-22.62-11.21-7.92-19.07,7.14c-6.01,5.59-17.66,16.64-18.08,16.85-.42.21-7.7,13.97-11.19,20.54h0Z"/><path class="cls-12" d="m273.39,188.52c13.02-12.91,29.8-20.53,36.24-14.04,6.44,6.5-.39,22.29-13.41,35.2-13.02,12.9-29.59,20.95-36.03,14.45-6.44-6.49.18-22.71,13.2-35.61h0Z"/><path class="cls-6" d="m272.8,257.23l10.11-33.5,33.58,10.79c-12.14,11.39-25.65,21.01-43.7,22.71h0Z"/><path class="cls-5" d="m308,200.39l8.62,34.15c10.14-10.67,19.25-22.13,23.71-36.31l-32.33,2.16h0Z"/><path class="cls-17" d="m340.24,198.4c3.45-10.41,4.25-25.35-12.02-28.13l-13.35,7.37,25.37,20.75Z"/><path class="cls-10" d="m254.66,239.7c.48,17.19,12.88,17.44,18.16,17.59l-12.2-28.49-5.96,10.9Z"/><path class="cls-7" d="m308.05,200.44c7.79,4.79,23.5,14.41,23.82,14.59.5.28,6.77-10.59,8.2-16.73l-32.02,2.14Z"/><path class="cls-9" d="m282.9,223.73l13.52,26.08c7.99-4.34,14.25-9.62,19.99-15.27l-33.51-10.81h0Z"/><path class="cls-19" d="m260.57,228.83l-1.92,22.81c3.61,4.94,8.59,5.37,13.8,4.98-3.77-9.39-11.31-28.17-11.89-27.79Z"/><path class="cls-3" d="m314.78,177.7l26.86,3.77c-1.43-6.07-5.84-9.99-13.34-11.22l-13.52,7.45h0Z"/></g></svg>