<?xml version="1.0" encoding="UTF-8"?>
<svg id="Layer_1" data-name="Layer 1" xmlns="http://www.w3.org/2000/svg" viewBox="0 0 500 500">
  <defs>
    <style>
      .cls-1 {
        fill: #ffd42e;
      }

      .cls-2 {
        fill: #00a4ff;
      }
    </style>
  </defs>
  <path class="cls-2" d="m251.55,58c3.32,1.97,4.56,4.81,4.5,8.72-.18,12.24.01,24.48-.15,36.72-.03,1.98-.55,4.59-1.86,5.76-1.37,1.22-4.11,1.71-6.02,1.33-2.86-.57-3.95-3.16-3.95-6.06,0-8.37,0-16.74,0-25.11,0-4.25.2-8.51-.06-12.74-.24-3.93,1.09-6.78,4.55-8.63h3Z"/>
  <path class="cls-1" d="m250.01,369.42c-14.12,0-28.24,0-42.36,0-7.09,0-8.35-1.74-8.71-8.93-.4-7.95-1.07-15.96-2.56-23.76-1.98-10.4-7.2-19.1-14.92-26.66-48.9-47.89-35.48-129.43,26.06-159.23,58-28.1,127.29,6.31,139.52,69.73,6.42,33.32-2.34,63.12-26.18,87.08-14.62,14.7-18.93,31.92-19.42,51.27-.02.87.03,1.75,0,2.62-.16,5.91-2.07,7.85-7.94,7.86-14.5.03-28.99.01-43.49.01Zm39.04-12.34c.23-.5.49-.82.53-1.16.14-1.49.2-2.99.32-4.48,1.55-19.28,7.11-36.53,21.29-50.9,24.65-24.98,31.7-55.31,20.96-88.38-10.74-33.06-34.63-52.84-69.03-58.51-26.36-4.34-50.17,2.71-70.23,20.42-21.38,18.87-31.09,42.92-29.22,71.44,1.37,20.88,9.25,39.21,24.19,53.74,11.56,11.24,18.36,24.39,21.01,39.96,1,5.87,1.51,11.83,2.26,17.87h77.93Z"/>
  <path class="cls-2" d="m249.48,406.01c-13.12,0-26.25.12-39.37-.05-7.28-.09-13.23-5.62-14.13-12.58-.94-7.31,3.05-13.94,9.94-16.09,2.11-.66,4.42-.9,6.64-.91,25-.06,49.99-.09,74.99-.01,11.91.04,19.42,9.51,15.8,19.67-2.18,6.11-7.9,9.95-15.25,9.98-12.87.06-25.75.02-38.62.02v-.03Zm.46-12.14c10.99,0,21.97,0,32.96,0,2.12,0,4.3.23,6.34-.19,1.03-.21,2.62-1.78,2.51-2.52-.17-1.14-1.45-2.27-2.52-3.04-.58-.42-1.69-.13-2.57-.13-24.6,0-49.19,0-73.79,0-.87,0-1.91-.25-2.58.13-.96.54-2.32,1.57-2.3,2.35.03,1.06,1,2.46,1.96,3.03.96.57,2.42.36,3.66.37,12.11.02,24.22.01,36.33.01Z"/>
  <path class="cls-2" d="m250.15,441.98c-8.87,0-17.74.04-26.6-.01-9.25-.06-15.99-6.26-16.11-14.71-.12-8.38,6.6-14.95,15.83-15.01,17.86-.13,35.72-.13,53.58,0,9.31.07,15.9,6.6,15.7,15.06-.2,8.49-6.9,14.6-16.16,14.66-8.74.05-17.49.01-26.23.01Zm.28-18.08c-9,0-18,.02-27-.01-2.06,0-3.99.33-3.96,2.83.02,2.43,1.93,2.93,3.98,2.95.25,0,.5,0,.75,0,17.25,0,34.49,0,51.74,0,2.23,0,4.64-.16,4.51-3.12-.12-2.71-2.45-2.67-4.53-2.66-8.5.02-17,0-25.5.01Z"/>
  <path class="cls-2" d="m184.18,126.93c-1.39,1.47-2.72,3.58-4.63,4.71-2.46,1.45-4.96.3-6.56-1.92-2.33-3.24-4.4-6.66-6.56-10.02-5.11-7.99-10.21-15.98-15.32-23.98-1.6-2.5-2.38-5.37-.17-7.57,1.38-1.37,3.9-2.25,5.86-2.18,1.51.05,3.41,1.63,4.34,3.05,7.19,10.95,14.21,22.02,21.21,33.09.71,1.12.97,2.52,1.81,4.82Z"/>
  <path class="cls-2" d="m409.87,157.06c-.67.82-1.67,3.05-3.38,4.01-11.76,6.57-23.64,12.92-35.54,19.23-3.14,1.66-6.39.75-7.93-1.8-1.74-2.88-1-6.7,2.18-8.46,11.9-6.58,23.84-13.08,35.9-19.35,4.45-2.31,8.85.46,8.77,6.38Z"/>
  <path class="cls-2" d="m137.8,174c-.08,6.17-4.58,8.54-9.27,6.09-7.07-3.69-14.03-7.59-21.04-11.41-4.49-2.44-9.01-4.83-13.45-7.36-3.82-2.18-4.84-5.17-3.04-8.36,1.7-3.02,5.16-3.95,8.79-2.01,11.54,6.18,23.06,12.39,34.45,18.84,1.8,1.02,2.86,3.34,3.57,4.21Z"/>
  <path class="cls-2" d="m325.54,133.59c-5.08-.08-7.89-4.04-6.62-7.67.37-1.04.95-2.04,1.56-2.97,6.97-10.5,13.97-20.99,20.97-31.47.48-.72.98-1.46,1.6-2.06,2.29-2.21,4.86-2.51,7.45-.66,2.61,1.86,3.19,4.44,1.65,7.24-1.26,2.29-2.79,4.43-4.24,6.61-6.01,9.04-11.97,18.12-18.13,27.06-1.24,1.79-3.27,3.04-4.25,3.91Z"/>
  <path class="cls-2" d="m326.54,239.35c0,.37,0,.75,0,1.12.07,5.15-1.91,7.97-5.69,8.08-3.79.1-6.03-2.67-6.23-7.73-.75-18.68-8.08-34.32-22.04-46.71-11.33-10.06-24.75-15.22-39.85-16.02-5.84-.31-8.67-2.28-8.61-6.14.06-4.02,3.27-6.03,9.17-5.77,39.94,1.77,72.42,34.23,73.25,73.17Z"/>
</svg>