<?xml version="1.0" encoding="UTF-8"?><svg id="Layer_1" xmlns="http://www.w3.org/2000/svg" viewBox="0 0 500 500"><defs><style>.cls-1{fill:#34a753;}</style></defs><g><path class="cls-1" d="m34.08,221.63v23.36c0,2.34.57,4.13,1.72,5.4,1.15,1.26,2.84,1.89,5.06,1.89s3.93-.63,5.12-1.89c1.19-1.26,1.78-3.06,1.78-5.4v-23.36h9.51v23.3c0,3.49-.74,6.44-2.22,8.84-1.48,2.41-3.48,4.23-5.98,5.45-2.5,1.22-5.3,1.83-8.37,1.83s-5.83-.6-8.26-1.81c-2.43-1.2-4.35-3.02-5.76-5.45-1.41-2.43-2.11-5.38-2.11-8.87v-23.3h9.51Z"/><path class="cls-1" d="m98.88,260.68h-9.51l-15.91-24.09v24.09h-9.51v-39.05h9.51l15.91,24.19v-24.19h9.51v39.05Z"/><path class="cls-1" d="m131.19,224.08c3.08,1.63,5.46,3.92,7.15,6.87,1.69,2.95,2.53,6.35,2.53,10.21s-.85,7.21-2.53,10.18c-1.68,2.96-4.08,5.26-7.17,6.89-3.1,1.63-6.68,2.45-10.76,2.45h-14.63v-39.05h14.63c4.11,0,7.71.81,10.79,2.44Zm-3,25.42c2-1.96,3-4.74,3-8.34s-1-6.4-3-8.4c-2-2-4.8-3-8.4-3h-4.5v22.69h4.5c3.6,0,6.4-.98,8.4-2.95Z"/><path class="cls-1" d="m155.72,229.25v7.9h12.74v7.34h-12.74v8.57h14.41v7.62h-23.92v-39.05h23.92v7.62h-14.41Z"/><path class="cls-1" d="m196.21,260.68l-8.12-14.74h-2.28v14.74h-9.51v-39.05h15.97c3.07,0,5.7.54,7.87,1.61,2.17,1.08,3.79,2.55,4.87,4.42,1.08,1.87,1.62,3.96,1.62,6.26,0,2.6-.73,4.92-2.2,6.95-1.46,2.04-3.62,3.49-6.48,4.34l9.01,15.46h-10.74Zm-10.4-21.47h5.9c1.74,0,3.05-.43,3.92-1.28.87-.85,1.31-2.06,1.31-3.62,0-1.48-.44-2.65-1.31-3.5-.87-.85-2.18-1.28-3.92-1.28h-5.9v9.68Z"/><path class="cls-1" d="m219.02,259.68c-2.26-.93-4.07-2.3-5.42-4.11-1.35-1.82-2.07-4.01-2.14-6.56h10.13c.14,1.44.65,2.55,1.5,3.31.86.76,1.96,1.14,3.34,1.14s2.52-.33,3.34-.97c.81-.65,1.22-1.55,1.22-2.7,0-.96-.33-1.76-.97-2.39-.65-.63-1.44-1.15-2.39-1.56s-2.29-.87-4.03-1.39c-2.52-.78-4.58-1.56-6.17-2.34-1.59-.78-2.97-1.93-4.11-3.45-1.15-1.52-1.72-3.5-1.72-5.95,0-3.63,1.31-6.48,3.95-8.54,2.63-2.06,6.07-3.09,10.29-3.09s7.77,1.03,10.4,3.09c2.63,2.06,4.04,4.92,4.23,8.59h-10.29c-.08-1.26-.54-2.25-1.39-2.97-.86-.72-1.95-1.09-3.28-1.09-1.15,0-2.08.31-2.78.92-.7.61-1.05,1.49-1.05,2.64,0,1.26.59,2.25,1.78,2.95,1.19.71,3.04,1.47,5.56,2.28,2.52.85,4.57,1.67,6.15,2.45,1.58.78,2.94,1.91,4.09,3.39,1.15,1.48,1.72,3.39,1.72,5.73s-.57,4.25-1.7,6.06c-1.13,1.82-2.77,3.26-4.92,4.34-2.15,1.07-4.69,1.61-7.62,1.61s-5.41-.46-7.68-1.39Z"/><path class="cls-1" d="m247.66,230.78c1.67-3.02,4-5.38,6.98-7.06,2.98-1.69,6.37-2.53,10.15-2.53,4.64,0,8.6,1.22,11.9,3.67,3.3,2.44,5.5,5.78,6.62,10.01h-10.46c-.78-1.63-1.88-2.87-3.31-3.73-1.43-.85-3.05-1.28-4.87-1.28-2.93,0-5.31,1.02-7.12,3.06-1.82,2.04-2.72,4.77-2.72,8.18s.91,6.14,2.72,8.17c1.82,2.04,4.19,3.06,7.12,3.06,1.82,0,3.44-.43,4.87-1.28,1.43-.85,2.53-2.1,3.31-3.73h10.46c-1.11,4.23-3.32,7.55-6.62,9.99-3.3,2.43-7.27,3.64-11.9,3.64-3.78,0-7.17-.84-10.15-2.53-2.99-1.68-5.31-4.03-6.98-7.03-1.67-3.01-2.5-6.43-2.5-10.29s.83-7.3,2.5-10.32Z"/><path class="cls-1" d="m297.53,258.51c-3.06-1.71-5.49-4.09-7.29-7.15-1.8-3.06-2.69-6.5-2.69-10.32s.9-7.25,2.69-10.29c1.8-3.04,4.23-5.41,7.29-7.12,3.06-1.71,6.42-2.56,10.09-2.56s7.04.85,10.1,2.56c3.06,1.71,5.47,4.08,7.23,7.12s2.64,6.47,2.64,10.29-.89,7.26-2.67,10.32c-1.78,3.06-4.19,5.44-7.23,7.15-3.04,1.71-6.4,2.56-10.07,2.56s-7.03-.85-10.09-2.56Zm17.58-9.23c1.87-2.08,2.81-4.82,2.81-8.23s-.94-6.2-2.81-8.26c-1.87-2.06-4.36-3.09-7.48-3.09s-5.66,1.02-7.54,3.06c-1.87,2.04-2.81,4.8-2.81,8.29s.94,6.2,2.81,8.26c1.87,2.06,4.39,3.09,7.54,3.09s5.61-1.04,7.48-3.11Z"/><path class="cls-1" d="m352.79,260.68l-8.12-14.74h-2.28v14.74h-9.51v-39.05h15.97c3.07,0,5.7.54,7.87,1.61,2.17,1.08,3.79,2.55,4.87,4.42,1.08,1.87,1.62,3.96,1.62,6.26,0,2.6-.73,4.92-2.2,6.95-1.46,2.04-3.62,3.49-6.48,4.34l9.01,15.46h-10.74Zm-10.4-21.47h5.9c1.74,0,3.05-.43,3.92-1.28.87-.85,1.31-2.06,1.31-3.62,0-1.48-.44-2.65-1.31-3.5-.87-.85-2.18-1.28-3.92-1.28h-5.9v9.68Z"/><path class="cls-1" d="m378.65,229.25v7.9h12.74v7.34h-12.74v8.57h14.41v7.62h-23.92v-39.05h23.92v7.62h-14.41Z"/><path class="cls-1" d="m399.59,259.65c-1.06-.98-1.58-2.2-1.58-3.64s.53-2.72,1.58-3.73c1.05-1,2.42-1.5,4.09-1.5s2.97.5,4.03,1.5c1.05,1,1.58,2.24,1.58,3.73s-.53,2.66-1.58,3.64c-1.06.98-2.4,1.47-4.03,1.47s-3.03-.49-4.09-1.47Z"/><path class="cls-1" d="m439.39,221.63v26.58c0,4.12-1.16,7.29-3.48,9.51-2.32,2.22-5.45,3.34-9.37,3.34s-7.41-1.17-9.9-3.5c-2.49-2.34-3.73-5.65-3.73-9.96h9.46c0,1.63.33,2.87,1,3.7.67.84,1.63,1.25,2.89,1.25,1.15,0,2.04-.37,2.67-1.11.63-.74.95-1.82.95-3.23v-26.58h9.51Z"/><path class="cls-1" d="m453.51,259.68c-2.26-.93-4.07-2.3-5.42-4.11-1.35-1.82-2.07-4.01-2.14-6.56h10.13c.14,1.44.65,2.55,1.5,3.31.86.76,1.96,1.14,3.34,1.14s2.52-.33,3.34-.97c.81-.65,1.22-1.55,1.22-2.7,0-.96-.33-1.76-.97-2.39-.65-.63-1.44-1.15-2.39-1.56s-2.29-.87-4.03-1.39c-2.52-.78-4.58-1.56-6.17-2.34-1.59-.78-2.97-1.93-4.11-3.45-1.15-1.52-1.72-3.5-1.72-5.95,0-3.63,1.31-6.48,3.95-8.54,2.63-2.06,6.07-3.09,10.29-3.09s7.77,1.03,10.4,3.09c2.63,2.06,4.04,4.92,4.23,8.59h-10.29c-.08-1.26-.54-2.25-1.39-2.97-.86-.72-1.95-1.09-3.28-1.09-1.15,0-2.08.31-2.78.92-.7.61-1.05,1.49-1.05,2.64,0,1.26.59,2.25,1.78,2.95,1.19.71,3.04,1.47,5.56,2.28,2.52.85,4.57,1.67,6.15,2.45,1.58.78,2.94,1.91,4.09,3.39,1.15,1.48,1.72,3.39,1.72,5.73s-.57,4.25-1.7,6.06c-1.13,1.82-2.77,3.26-4.92,4.34-2.15,1.07-4.69,1.61-7.62,1.61s-5.41-.46-7.68-1.39Z"/></g><rect class="cls-1" x="24.57" y="271.13" width="450.86" height="7.79"/></svg>