<?xml version="1.0" encoding="UTF-8"?>
<svg id="Layer_1" data-name="Layer 1" xmlns="http://www.w3.org/2000/svg" viewBox="0 0 500 500">
  <defs>
    <style>
      .cls-1, .cls-2 {
        fill: #fff;
      }

      .cls-2 {
        font-family: Arial-BoldMT, Arial;
        font-size: 86.66px;
        font-weight: 700;
      }

      .cls-3 {
        fill: #a6120d;
      }

      .cls-4 {
        fill: #dd1b16;
      }

      .cls-5 {
        fill: #b3b3b3;
      }
    </style>
  </defs>
  <g>
    <path class="cls-3" d="m356.57,325.32l20.92-166.49h0s-129.16-44.04-129.16-44.04v270.44"/>
    <path class="cls-4" d="m122.51,159.62l19.24,166.49,106.57,59.11V114.78l-125.81,44.84h0Z"/>
    <path class="cls-1" d="m279.2,260.71l-30.59,14.31h-32.24l-15.16,37.91-28.19.52,75.59-168.16,30.59,115.43h0Zm-2.96-7.2l-27.43-54.31-22.5,53.37h22.3l27.64.94h0Z"/>
    <path class="cls-5" d="m248.61,145.28l.2,53.92,25.53,53.41h-25.68l-.06,22.37,35.5.03,16.59,38.44,26.97.5-79.07-168.67h0Z"/>
  </g>
  <text class="cls-2" transform="translate(220.22 360.32)"><tspan x="0" y="0">4</tspan></text>
</svg>