<?xml version="1.0" encoding="UTF-8"?><svg id="Layer_1" xmlns="http://www.w3.org/2000/svg" xmlns:xlink="http://www.w3.org/1999/xlink" viewBox="0 0 500 500"><defs><style>.cls-1{fill:url(#linear-gradient-2);}.cls-2{fill:url(#linear-gradient-3);}.cls-3{fill:url(#linear-gradient);}.cls-4{fill:url(#linear-gradient-4);}</style><linearGradient id="linear-gradient" x1="-30.3" y1="-6233.52" x2="-30.3" y2="-6233.68" gradientTransform="translate(25879.22 -10154668.31) scale(841.99 -1629.05)" gradientUnits="userSpaceOnUse"><stop offset="0" stop-color="#73b723"/><stop offset="1" stop-color="#d8ee61"/></linearGradient><linearGradient id="linear-gradient-2" x1="-29.59" y1="-6234.32" x2="-29.7" y2="-6234.43" gradientTransform="translate(25632.29 -7385318.64) scale(855.98 -1184.67)" gradientUnits="userSpaceOnUse"><stop offset="0" stop-color="#98c9ea"/><stop offset=".69" stop-color="#026fb2"/><stop offset="1" stop-color="#086eb6"/></linearGradient><linearGradient id="linear-gradient-3" x1="-28.93" y1="-6235.17" x2="-28.8" y2="-6235.27" gradientTransform="translate(41250.26 -7325659.81) scale(1423.38 -1174.91)" gradientUnits="userSpaceOnUse"><stop offset="0" stop-color="#d73721"/><stop offset="1" stop-color="#f7d768"/></linearGradient><linearGradient id="linear-gradient-4" x1="-31.53" y1="-6236.65" x2="-31.44" y2="-6236.73" gradientTransform="translate(12618.12 -5540090.24) scale(391.21 -888.35)" gradientUnits="userSpaceOnUse"><stop offset="0" stop-color="#d4c883"/><stop offset="1" stop-color="#a1d1a7"/></linearGradient></defs><path class="cls-3" d="m380.41,60.19c25.82,13.16,47.99,47.68,46.88,94.53-3.37,57.72-45.23,107.47-90.76,153.3-2.55-55.9-14.7-91.52-33.68-141.61-17.92-50.48,34.47-104.6,77.56-106.22h0Z"/><path class="cls-1" d="m240.76,306.06c13.86-17.25,23.69-32.6,30.55-46.48,46.97,24.56,35.89,19.97,58.54,46.14.08.81.15,1.63.22,2.44,1.88,36.28-24.59,120.16-128.8,131.65-7.21-56.36,16.24-104.43,39.5-133.75h0Z"/><path class="cls-2" d="m73.04,95.23c74.25-29.38,154.17.72,200.31,63.43,4.46,6.07,8.7,12.37,12.69,18.85,7.21,46.02,1.71,71.58-12.32,85.13-9.23-4.66-19.07-8.78-29.58-12.6-24.43-8.88-46.98-14.75-79.18-24.28-76.47-20.87-95.32-86.43-91.91-130.53Z"/><path class="cls-4" d="m283.2,173.01c.49.76.97,1.51,1.44,2.27l.59.94c1.19,1.91,2.36,3.84,3.51,5.79l.19.32.31.53.28.49.82,1.42.06.1,1.12,1.96.03.06c.81,1.43,1.6,2.86,2.39,4.3l.1.18.87,1.62.02.04.96,1.8.27.53.53,1.03.65,1.26.63,1.23c.64,1.27,1.28,2.54,1.9,3.82l.16.32c1.13,2.31,2.22,4.62,3.29,6.96l.81,1.78.08.18.52,1.16.61,1.37.34.79.55,1.27.39.91.83,1.96.06.14.89,2.13.11.26c.95,2.3,1.86,4.61,2.75,6.93l.09.21.73,1.94.05.11.42,1.15c.47,1.27.93,2.55,1.39,3.82l.18.5c.5,1.43,1,2.86,1.48,4.28l.15.45c.45,1.34.89,2.68,1.32,4.02l.21.66.05.15.69,2.17.03.1.64,2.07.64,2.14.02.05.53,1.8.17.59.32,1.12c.36,1.29.72,2.57,1.06,3.86l.26.96.5,1.9.02.09c.61,2.34,1.18,4.67,1.73,7.01l.05.24.06.25c.71,3.08,1.36,6.14,1.97,9.2l.06.3c.92,4.7,1.71,9.41,2.38,14.15v.06c.22,1.44.41,2.88.58,4.32l.07.62.24,2.06h0s.21,1.91.21,1.91l.07.63.15,1.51.06.61.02.25.18,2.07c-16.4-21.13-36-35.69-59.52-47.08,18.98-37.52,16.31-64.25,12.65-88.07"/></svg>