<?xml version="1.0" encoding="UTF-8"?><svg id="Layer_1" xmlns="http://www.w3.org/2000/svg" viewBox="0 0 500 500"><defs><style>.cls-1{fill:#f8ad41;}.cls-2{fill:#4f90cc;}.cls-3{fill:#ed4035;}.cls-4{fill:#7abf43;}</style></defs><path class="cls-1" d="m142.11,102.97s73.78-40.13,136.89,8.22l-35.32,121.37s-39.53-27.23-68.88-24.29c-29.35,2.93-68,16.99-68,16.99l35.31-122.28h0Z"/><path class="cls-4" d="m100.57,246.64s39.6-18.42,72.47-16.07c32.87,2.35,59.12,20.04,64.78,24.11l-35.68,122.63s-39.67-25.81-67.84-23.46c-28.18,2.35-52.61,6.65-68.87,15.07l35.14-122.27Z"/><path class="cls-2" d="m256.31,266.54s37.66,24.49,62.32,23.9c24.29-.58,41.09-2.49,74.05-15.41.26-.1.93-.58.7-.44-.7.44-35.31,121.53-35.31,121.53,0,0-38.85,18.18-74.08,16.42-35.22-1.76-56.37-21.9-62.82-24.46l35.14-121.55h0Z"/><path class="cls-3" d="m297.68,123.99l-35.41,120.67s28.76,28.18,69.27,25.83c40.5-2.35,62.52-15.11,67.87-16.91l35.15-121.73s-46.67,19.48-77.2,15.96c-30.52-3.52-49.54-16.5-59.69-23.8h0Z"/></svg>