<?xml version="1.0" encoding="UTF-8"?>
<svg id="Layer_1" data-name="Layer 1" xmlns="http://www.w3.org/2000/svg" viewBox="0 0 500 500">
  <defs>
    <style>
      .cls-1 {
        fill: #ff2a00;
      }

      .cls-2 {
        fill: #1e9e88;
      }
    </style>
  </defs>
  <path class="cls-2" d="m328.02,160.16c19.72,0,38.84,0,57.97,0,12.78,0,20.05,7.21,20.05,19.89,0,62.39,0,124.77,0,187.16,0,1.25.13,2.54-.17,3.73-.75,2.99-2.74,4.8-5.89,4.76-3.14-.04-5.13-1.86-5.79-4.88-.29-1.32-.15-2.73-.15-4.1,0-61.89,0-123.77,0-185.66,0-7.33-1.62-8.92-9.07-8.92-90.03,0-180.05,0-270.08,0-7.36,0-8.95,1.61-8.95,9.04,0,61.51,0,123.02,0,184.54,0,1,.02,2,0,2.99-.1,4.37-2.43,7.07-6.06,7.03-3.62-.04-5.93-2.73-5.93-7.15-.02-63.38-.03-126.77.01-190.15,0-10.64,7.84-18.25,18.65-18.26,32.38-.04,64.77-.02,97.15-.02,1.47,0,2.94,0,4.45,0-2.62-26.86,17.57-41.75,35.43-41.96,18.05-.21,38.71,14.72,36.19,41.78h29.87v-10.22c-3.38-.76-6.97-1.66-10.6-2.35-3.32-.63-5.11-2.52-6.22-5.69-1.59-4.57-3.42-9.08-5.56-13.42-1.44-2.92-1.45-5.38.33-8.04,2.08-3.09,4.02-6.27,6.03-9.42-2.16-2.05-4.13-3.92-6.45-6.12-2.79,1.76-5.98,3.66-9.04,5.74-2.77,1.88-5.32,1.91-8.39.41-4.34-2.13-8.9-3.87-13.48-5.45-3.04-1.05-4.88-2.78-5.51-5.93-.73-3.66-1.58-7.29-2.4-11.06h-8.77c-.77,3.34-1.73,6.78-2.32,10.28-.63,3.79-2.65,5.77-6.35,6.89-4.27,1.29-8.45,3.04-12.42,5.08-3.29,1.69-6.04,1.72-9.05-.41-2.84-2.01-5.86-3.76-8.68-5.56-2.16,2.11-4.18,4.07-6.43,6.26,1.9,2.98,3.83,6.16,5.91,9.24,1.79,2.66,1.77,5.12.36,8.05-2.14,4.47-3.91,9.13-5.6,13.8-.98,2.71-2.53,4.54-5.37,5.15-5.37,1.16-10.73,2.35-16.12,3.41-3.74.73-6.71-1.13-7.46-4.45-.73-3.22,1.24-6.15,4.99-7.1,3.39-.86,6.89-1.3,10.21-2.35,1.38-.44,2.42-1.97,3.57-3.06.25-.23.24-.72.45-1.02,4.28-6.11,2.26-11.2-1.85-16.64-4.62-6.12-4.13-7.52,1.39-13.02,3.18-3.18,6.34-6.38,9.56-9.52,3.29-3.21,5.48-3.44,9.34-1.11.64.39,1.27.8,1.9,1.2,8.98,5.7,9.01,5.75,18.66,1.31,1-.46,1.86-1.9,2.18-3.05.93-3.36,1.58-6.79,2.3-10.21.76-3.59,2.99-5.31,6.62-5.31,5.75,0,11.5-.01,17.26,0,3.45.01,5.65,1.67,6.43,5.08.22.97.6,1.93.65,2.91.35,6.98,3.19,11.69,10.58,13.42,2.5.59,4.28,1.05,6.44-.56,2.5-1.86,5.23-3.4,7.86-5.08,2.91-1.85,5.72-1.73,8.2.69,4.29,4.18,8.54,8.42,12.72,12.71,2.3,2.36,2.47,5.06.76,7.87-.52.85-1.06,1.69-1.59,2.53-5.73,8.97-5.79,9-1.3,18.6.47,1,1.9,1.84,3.05,2.17,3.12.88,6.34,1.4,9.49,2.15,4.66,1.12,6.01,2.84,6.04,7.55.03,4.46,0,8.93,0,13.78Zm-101.12-.2h46.19c2.64-9.57-1.13-19.62-9.42-25.45-8.16-5.74-19.19-5.72-27.4.04-8.26,5.8-12.04,15.96-9.37,25.41Z"/>
  <path class="cls-2" d="m83.35,399.73c2.39,6.95,8.44,11.49,15.39,11.94,1,.06,2,.04,3,.04,98.89,0,197.79-.01,296.68.03,7.67,0,13.55-2.84,17.42-9.53.35-.61.52-1.32.97-2.48-1.87,0-3.32,0-4.76,0-39.01,0-78.01,0-117.02,0-1.25,0-2.53.12-3.74-.1-3.22-.59-5.19-2.57-5.19-5.88,0-3.31,1.95-5.29,5.18-5.9,1.09-.2,2.24-.09,3.37-.09,42.26,0,84.52,0,126.77,0,7.16,0,9.47,2.68,8.43,9.71-2.29,15.44-14.56,26.2-30.28,26.2-99.77.04-199.54.05-299.31,0-15.63,0-28-11-30.13-26.37-.95-6.87,1.34-9.53,8.26-9.53,42.38,0,84.77,0,127.15,0,1.12,0,2.28-.1,3.37.12,3.05.63,4.82,2.55,5.03,5.67.2,2.93-2,5.57-5.03,6.05-1.34.21-2.74.12-4.12.12-38.88,0-77.76,0-116.65,0-1.48,0-2.97,0-4.79,0Z"/>
  <path class="cls-1" d="m272.87,229.92c-.71,2.35-1.07,3.67-1.5,4.96-10.43,31.29-20.86,62.58-31.3,93.87-.28.83-.54,1.66-.91,2.45-1.49,3.16-4.7,4.52-7.77,3.32-2.86-1.12-4.42-4.16-3.39-7.36,3.04-9.48,6.21-18.92,9.36-28.37,7.48-22.43,14.98-44.86,22.49-67.29.43-1.29.84-2.65,1.56-3.78,1.6-2.52,4.22-3.6,6.79-2.33,1.96.97,3.32,3.16,4.67,4.53Z"/>
  <path class="cls-1" d="m181.17,279.96c7.47,6.54,14.68,12.85,21.89,19.16,3.01,2.63,6.07,5.2,9.03,7.89,3.1,2.83,3.45,6.2,1.07,8.9-2.39,2.71-5.77,2.85-8.97.07-11.89-10.31-23.75-20.66-35.56-31.06-3.6-3.17-3.63-6.77-.04-9.92,11.81-10.4,23.67-20.75,35.56-31.06,3.23-2.8,6.55-2.7,8.97,0,2.48,2.76,2.1,6.2-1.25,9.16-8.81,7.76-17.69,15.44-26.53,23.16-1.29,1.13-2.56,2.29-4.16,3.71Z"/>
  <path class="cls-1" d="m318.9,279.95c-9.69-8.48-18.97-16.59-28.26-24.71-.85-.74-1.72-1.45-2.54-2.2-3.27-2.99-3.71-6.39-1.2-9.15,2.43-2.67,5.72-2.73,8.97.04,5.22,4.45,10.35,9.01,15.52,13.52,6.48,5.66,13,11.29,19.45,16.98,4.3,3.79,4.32,7.2.05,10.95-11.53,10.12-23.09,20.21-34.66,30.27-3.57,3.1-7.03,3.08-9.51.08-2.35-2.84-1.83-6.08,1.62-9.1,10.02-8.79,20.08-17.54,30.57-26.68Z"/>
  <path class="cls-1" d="m322.01,357.52c-.12,3.63-2.65,6.26-6.02,6.24-3.37-.02-6.1-2.92-5.94-6.29.16-3.35,3.07-6.28,6.2-6.26,3.53.03,5.89,2.61,5.76,6.31Z"/>
  <path class="cls-1" d="m346.02,357.37c-.06,3.79-2.75,6.54-6.24,6.39-3.23-.14-5.8-2.9-5.72-6.14.08-3.51,3.14-6.56,6.41-6.4,3.41.16,5.61,2.6,5.55,6.15Z"/>
  <path class="cls-1" d="m370.03,357.32c-.04,3.8-2.7,6.56-6.19,6.44-3.22-.11-5.82-2.85-5.77-6.09.05-3.5,3.09-6.59,6.36-6.46,3.41.13,5.64,2.56,5.6,6.1Z"/>
</svg>