<?xml version="1.0" encoding="UTF-8"?><svg id="Layer_1" xmlns="http://www.w3.org/2000/svg" viewBox="0 0 500 500"><defs><style>.cls-1{fill:#00b935;}</style></defs><path class="cls-1" d="m213.05,118.48c.33,1.96-.65,3.59-3.91,5.22-4.24-2.28-13.37-3.59-20.87-2.94-8.15.65-15,3.26-14.02,8.8,1.3,5.54,9.13,8.81,23.15,7.5,34.24-2.94,33.91-26.09,84.13-30.65,39.13-3.59,60.98,8.48,63.91,23.15,2.28,11.41-7.17,22.5-35.54,24.78-25.11,2.28-39.78-4.57-41.09-11.41-.65-3.59,1.3-8.81,13.37-10.11,1.31,5.54,8.15,11.41,24.46,9.78,11.74-.98,21.52-5.22,20.22-11.74-1.3-6.85-13.7-10.76-33.26-9.13-39.78,3.59-49.56,25.43-83.48,28.37-24.13,2.28-43.69-6.52-46.3-19.57-.98-4.89-.98-16.3,24.46-18.59,13.04-.98,23.48,1.3,24.78,6.52h0Zm-127.17,136.3c-11.09,14.02-15.98,30.32-15,46.3.98,15.98,8.8,29.02,21.2,39.13,13.04,10.11,27.06,13.04,43.04,10.11,6.2-.98,13.04-4.24,19.24-6.2-13.04,0-24.13-4.24-35.22-13.04-12.06-8.81-20.22-21.2-22.17-36.2-2.94-14.02,0-27.06,7.83-38.48,8.8-11.09,20.22-17.28,35.22-19.24,15-.98,28.04,2.94,41.09,12.07-2.93-4.24-7.17-7.17-11.09-11.09-13.04-8.81-27.07-13.04-44.35-8.81-15.65,3.26-28.69,11.41-39.78,25.44h0Zm174.78-75.33c-42.07,0-79.56-4.24-106.63-10.11-29.02-7.17-44.35-15-44.35-25.11,0-4.24,1.96-7.83,7.83-12.07-18.26,7.17-28.04,13.04-28.04,22.17.98,10.11,17.28,20.22,50.54,28.04,31.3,7.83,71.41,12.06,119.67,12.06s88.37-4.24,119.67-12.06c33.26-7.83,49.24-18.26,49.24-28.04,0-7.17-7.17-14.02-20.22-19.24,2.94,1.96,5.22,5.22,5.22,8.8,0,10.11-15,18.26-45.33,25.11-28.04,6.2-63.91,10.44-107.61,10.44h0Zm120,28.04c-31.3,7.17-71.41,12.07-119.67,12.07s-89.35-5.22-120.65-12.07c-28.04-7.17-43.04-15-48.26-23.15,5.22,35.22,17.28,68.48,33.26,97.82,12.07,18.26,24.13,34.24,36.19,51.52,5.22,10.11,8.8,20.22,11.09,30.33,7.83,11.09,19.24,18.26,33.26,22.17,17.28,6.2,35.22,8.8,53.48,7.83h1.95c18.26.98,37.5-1.96,55.11-7.83,13.04-4.24,24.13-11.09,32.28-22.17h.98c1.96-10.11,5.22-20.22,10.11-30.33,12.07-17.28,24.13-33.26,36.19-51.52,15.98-29.02,27.07-62.28,33.26-97.82-6.52,9.13-21.52,16.96-48.59,23.15h0Z"/></svg>