<?xml version="1.0" encoding="UTF-8"?><svg id="Layer_1" xmlns="http://www.w3.org/2000/svg" viewBox="0 0 500 500"><defs><style>.cls-1{fill:#fdfa1f;}.cls-2{fill:none;stroke:#34a753;stroke-miterlimit:10;stroke-width:3px;}.cls-3{fill:#f24b41;}.cls-4{fill:#43a4ea;}.cls-5{fill:#34a753;}</style></defs><g><circle class="cls-4" cx="250" cy="251.88" r="146.88"/><circle class="cls-3" cx="250.52" cy="252.24" r="97.9"/><circle class="cls-1" cx="250.52" cy="252.24" r="49.62"/></g><path class="cls-5" d="m62.83,149.87l5.46-8.83c2.17-3.52,4.52-5.57,7.05-6.15,2.53-.58,5.07-.08,7.63,1.5.87.54,1.65,1.22,2.3,2.02.67.81,1.22,1.72,1.62,2.69.41.98.65,2.02.73,3.1.08,1.09-.06,2.19-.41,3.23l17.61,1.33-2.31,3.74-17.29-1.53-3.56,5.76,13.19,8.15-2.14,3.45-29.89-18.47Zm5.3-1.5l10.55,6.52,3.57-5.78c1.32-2.13,1.8-3.97,1.45-5.51-.35-1.54-1.31-2.79-2.88-3.76-.72-.45-1.51-.77-2.35-.92-.78-.14-1.57-.13-2.34.04-.76.16-1.53.54-2.29,1.13-.76.59-1.48,1.42-2.15,2.51l-3.57,5.78Zm26.38-42.12l15.56-14.9,2.42,2.52-12.87,12.33,7.99,8.35,10.63-10.18,2.57,2.69-10.63,10.18,8.93,9.33,12.75-12.21,2.42,2.53-15.44,14.78-24.34-25.42Zm69.82-29.8c2.55,4.52,3.81,8.52,3.77,11.99s-1.37,6.39-3.98,8.73c.68,1.04,1.46,1.77,2.33,2.18.88.41,2.01.22,3.38-.55.26-.15.51-.32.76-.49.34-.23.72-.48,1.14-.74.42-.26.8-.51,1.16-.75.36-.25.62-.42.78-.51l1.79,3.39-1.91,1.09c-1.6.91-3,1.59-4.19,2.04-1.19.46-2.29.58-3.29.37-1-.21-1.93-.68-2.68-1.37-.78-.7-1.54-1.69-2.26-2.97-1.37.55-2.84.79-4.32.73-1.55-.05-3.14-.46-4.77-1.22-1.64-.76-3.25-1.91-4.84-3.45-1.58-1.54-3.08-3.56-4.49-6.05-1.74-3.07-2.83-5.83-3.28-8.25-.44-2.43-.46-4.54-.04-6.33.41-1.79,1.11-3.31,2.09-4.55.98-1.25,2.04-2.19,3.19-2.84,1.4-.79,2.95-1.27,4.55-1.41,1.63-.14,3.34.13,5.13.82,1.79.69,3.51,1.85,5.14,3.47,1.63,1.63,3.24,3.84,4.84,6.66h0Zm-21.45-1.03c-.61,2.9.31,6.5,2.75,10.82,1.11,1.96,2.29,3.65,3.54,5.06s2.54,2.5,3.85,3.26c1.32.77,2.66,1.2,4.03,1.28,1.33.1,2.66-.2,3.82-.87.82-.46,1.55-1.14,2.18-2.04.64-.9,1.05-2.02,1.24-3.36.19-1.34.08-2.88-.34-4.61-.42-1.73-1.24-3.67-2.46-5.83-1.55-2.75-3.05-4.86-4.49-6.34-1.44-1.48-2.84-2.48-4.2-3-1.36-.53-2.57-.74-3.63-.64-1.06.11-1.99.38-2.77.82-.98.56-1.76,1.32-2.33,2.29-.57.97-.98,2.04-1.2,3.14h0Zm40.61-25.55l4.3-1.16.08.09c.04.15.01.38-.08.7-.09.36-.12.73-.08,1.1l5.56,20.56c.51,1.89,1.09,3.3,1.73,4.24.65.94,1.38,1.65,2.22,2.15.83.49,1.76.79,2.72.87.98.09,1.98.03,3.02-.17.95-.33,1.86-.77,2.71-1.32.82-.53,1.48-1.27,1.94-2.13.48-.89.77-1.91.87-3.07.1-1.16-.12-2.72-.65-4.68l-5.99-22.14,3.65-.99,5.96,22.05c.6,2.21.86,4.15.78,5.81-.08,1.66-.49,3.13-1.23,4.42-.73,1.28-1.73,2.39-2.92,3.24-1.2.87-2.64,1.53-4.31,1.98-1.63.44-3.19.59-4.67.45-1.43-.13-2.82-.57-4.06-1.3-1.23-.72-2.29-1.72-3.2-2.99-.91-1.27-1.69-3.11-2.34-5.5l-6.01-22.21Zm55.48-10.26l17.54-.16.03,3.27-6.94.06.26,28.71,7.28-.06.03,3.21-18.27.16-.03-3.27,6.94-.06-.26-28.65-6.54.06-.03-3.27h0Zm50.48,3.33l10.09,2.45c4.02.97,6.69,2.57,8.03,4.79,1.34,2.22,1.65,4.79.94,7.71-.24,1-.65,1.95-1.21,2.81-.56.89-1.26,1.69-2.06,2.38-.81.69-1.72,1.25-2.72,1.66-1.02.41-2.1.62-3.2.62l4.19,17.15-4.28-1.04-3.9-16.91-6.58-1.6-3.66,15.07-3.95-.96,8.29-34.14h0Zm3.07,4.57l-2.93,12.06,6.6,1.6c2.44.59,4.33.48,5.69-.33s2.25-2.11,2.68-3.9c.21-.88.26-1.72.15-2.52-.11-.78-.37-1.53-.76-2.21-.39-.68-.99-1.29-1.78-1.83-.8-.54-1.81-.96-3.05-1.26l-6.61-1.6h0Zm48.72,12.21l19,10.16-1.65,3.08-15.72-8.41-5.45,10.2,12.98,6.94-1.76,3.28-12.98-6.94-6.09,11.39,15.57,8.32-1.65,3.08-18.85-10.08,16.59-31.04h0Zm31.7,32.17c.48.37.88.83,1.19,1.38.31.55.52,1.11.63,1.69.11.58.12,1.15.01,1.72-.1.57-.32,1.07-.65,1.5-.36.47-.8.83-1.31,1.1-.51.26-1.06.42-1.63.45-.59.04-1.19-.03-1.76-.2-.61-.18-1.19-.48-1.69-.87-.49-.37-.91-.83-1.24-1.36-.3-.5-.51-1.04-.62-1.61-.1-.56-.08-1.13.04-1.68.13-.55.38-1.08.75-1.56.36-.47.8-.83,1.32-1.09.51-.26,1.07-.41,1.64-.45.58-.04,1.15.02,1.74.18.58.16,1.11.43,1.57.78h0Zm30.62,12.85l10.91,11.81-2.41,2.22-3.67-3.98-14.73,13.61c-1.69,1.56-3.24,2.7-4.67,3.43-1.43.73-2.83,1.1-4.22,1.1s-2.61-.25-3.66-.76c-1.09-.53-2.07-1.27-2.89-2.17-2.27-2.46-3.2-5.37-2.77-8.73l4.16-.23c0,.16-.09.33-.26.51-.15.15-.26.34-.3.55l-.04.95c-.04.24-.01.55.06.94.08.39.2.8.37,1.23.17.43.36.86.57,1.28.21.42.47.8.78,1.13,1.27,1.38,2.69,1.94,4.25,1.68,1.55-.26,3.54-1.5,5.95-3.73l14.77-13.66-4.59-4.97,2.4-2.22h0Zm32.9,52.94l-4.17-.47c-.03-.2.06-.37.26-.51.2-.14.33-.27.4-.39.56-1.15.81-2.41.75-3.78-.06-1.38-.53-2.85-1.43-4.42-.86-1.5-2.02-2.49-3.47-2.98-1.45-.49-2.78-.39-3.99.31-.72.41-1.27.89-1.65,1.43-.38.55-.67,1.21-.87,2-.2.78-.27,1.81-.21,3.08.06,1.27.22,2.86.5,4.78.24,1.86.34,3.45.3,4.77-.04,1.32-.23,2.48-.58,3.46-.31.92-.81,1.77-1.46,2.5-.62.69-1.41,1.3-2.36,1.84-1.08.61-2.26,1.03-3.49,1.22-1.3.22-2.62.15-3.89-.21-1.31-.35-2.59-1.02-3.84-1.99-1.25-.97-2.39-2.36-3.42-4.15-2.26-3.94-2.79-7.87-1.56-11.78h4.67c0,.2-.12.38-.35.51-.23.13-.38.28-.45.45-.51,1.29-.72,2.76-.63,4.39.09,1.64.66,3.35,1.69,5.14.52.91,1.16,1.66,1.91,2.25.7.56,1.5,1,2.36,1.28.82.26,1.68.36,2.57.28.88-.07,1.74-.34,2.51-.79.58-.32,1.09-.76,1.5-1.29.38-.5.66-1.12.81-1.87.16-.74.2-1.69.13-2.84-.11-1.48-.28-2.96-.5-4.43-.3-1.96-.43-3.65-.41-5.07.03-1.42.18-2.65.46-3.68.28-1.03.71-1.89,1.3-2.6.62-.73,1.37-1.35,2.21-1.82,1.08-.63,2.29-1,3.54-1.09,1.25-.09,2.51.07,3.69.48,1.21.41,2.35,1.07,3.41,1.97,1.09.94,2.01,2.06,2.72,3.32.94,1.61,1.52,3.41,1.69,5.27.18,1.82-.04,3.66-.65,5.38h0Z"/><g><path class="cls-2" d="m84.3,440.13h307.03"/><path class="cls-5" d="m417.16,437.96c2.13,1.02,2.14,2.72.03,3.78l-28.54,14.32c-2.11,1.06-3.77-.01-3.77-2.37v-26.98c0-2.36,1.67-3.46,3.8-2.44l28.48,13.7h0Z"/><path class="cls-2" d="m111.3,419.73l20.58,20.4m-35.61-20.4l20.58,20.4m-35.61-20.4l20.58,20.4m0,0l-20.58,20.4m35.61-20.4l-20.58,20.4m35.61-20.4l-20.58,20.4m15.03-40.8l20.58,20.4m0,0l-20.58,20.4"/></g></svg>