<?xml version="1.0" encoding="UTF-8"?><svg xmlns="http://www.w3.org/2000/svg" xmlns:xlink="http://www.w3.org/1999/xlink" viewBox="0 0 500 500"><defs><style>.cls-1{fill:url(#linear-gradient-2);}.cls-2{fill:#fff;}.cls-3{fill:#ffea95;}.cls-4{fill:#3e3279;}.cls-5{fill:#18226e;}.cls-6{fill:#242f86;}.cls-7{fill:url(#linear-gradient-6);}.cls-8,.cls-9{fill:#fbfdff;}.cls-10{isolation:isolate;}.cls-11,.cls-12{fill:#6d6e71;}.cls-13{fill:#7b2725;}.cls-14,.cls-15{fill:#919bb7;}.cls-16{fill:#cbcbcb;}.cls-16,.cls-17,.cls-18{mix-blend-mode:multiply;}.cls-19,.cls-15,.cls-12{mix-blend-mode:screen;}.cls-20{fill:#ffa2e9;}.cls-21{fill:url(#linear-gradient-5);}.cls-9,.cls-22{mix-blend-mode:overlay;}.cls-23{fill:url(#linear-gradient-7);}.cls-24{fill:#ffe063;}.cls-25{fill:#f0cbcc;}.cls-26{fill:#ff75c7;}.cls-27{fill:url(#linear-gradient-3);}.cls-28{fill:#ac7dff;}.cls-29,.cls-17{fill:#9db2dd;}.cls-30{fill:url(#linear-gradient);}.cls-31{fill:#353e47;}.cls-32{fill:url(#linear-gradient-4);}.cls-33{fill:url(#linear-gradient-8);}.cls-34{fill:#e7cde1;}</style><linearGradient id="linear-gradient" x1="249.57" y1="135.73" x2="249.57" y2="725.88" gradientUnits="userSpaceOnUse"><stop offset="0" stop-color="#6ed0ff"/><stop offset="1" stop-color="#1c57ec"/></linearGradient><linearGradient id="linear-gradient-2" x1="249.57" y1="110.02" x2="249.57" y2="229.74" gradientUnits="userSpaceOnUse"><stop offset="0" stop-color="#565fd5"/><stop offset="1" stop-color="#3f0ba0"/></linearGradient><linearGradient id="linear-gradient-3" x1="223.81" y1="114.94" x2="223.81" y2="251.41" gradientUnits="userSpaceOnUse"><stop offset="0" stop-color="#ffb9fd"/><stop offset="1" stop-color="#ff7ac5"/></linearGradient><linearGradient id="linear-gradient-4" x1="369.09" y1="164.93" x2="369.09" y2="235.96" gradientUnits="userSpaceOnUse"><stop offset="0" stop-color="#ffda45"/><stop offset="1" stop-color="#ffa25c"/></linearGradient><linearGradient id="linear-gradient-5" x1="223.81" y1="224.17" x2="223.81" y2="258.2" xlink:href="#linear-gradient-3"/><linearGradient id="linear-gradient-6" x1="316.07" y1="249.44" x2="462.85" y2="249.44" xlink:href="#linear-gradient-4"/><linearGradient id="linear-gradient-7" x1="236.74" y1="230.72" x2="236.74" y2="375.14" gradientUnits="userSpaceOnUse"><stop offset="0" stop-color="#52f3ff"/><stop offset="1" stop-color="#42bcff"/></linearGradient><linearGradient id="linear-gradient-8" x1="112.77" y1="341.53" x2="137.53" y2="394.01" xlink:href="#linear-gradient-3"/></defs><g class="cls-10"><g id="Layer_1"><g><path class="cls-30" d="m69.69,110.44h359.75c6.58,0,11.92,5.34,11.92,11.92v250.85c0,6.14-4.98,11.12-11.12,11.12H68.89c-6.14,0-11.12-4.98-11.12-11.12V122.36c0-6.58,5.34-11.92,11.92-11.92Z"/><g><g><path class="cls-2" d="m173.47,279.08c-.17,0-.31-.14-.31-.31v-3.75c0-.17.14-.31.31-.31h3.75c.17,0,.31.14.31.31s-.14.31-.31.31h-3.44v3.44c0,.17-.14.31-.31.31Z"/><path class="cls-2" d="m234.49,275.33h-7.16c-.17,0-.31-.14-.31-.31s.14-.31.31-.31h7.16c.17,0,.31.14.31.31s-.14.31-.31.31Zm-14.32,0h-7.16c-.17,0-.31-.14-.31-.31s.14-.31.31-.31h7.16c.17,0,.31.14.31.31s-.14.31-.31.31Zm-14.32,0h-7.16c-.17,0-.31-.14-.31-.31s.14-.31.31-.31h7.16c.17,0,.31.14.31.31s-.14.31-.31.31Zm-14.32,0h-7.16c-.17,0-.31-.14-.31-.31s.14-.31.31-.31h7.16c.17,0,.31.14.31.31s-.14.31-.31.31Z"/><path class="cls-2" d="m245.4,279.08c-.17,0-.31-.14-.31-.31v-3.44h-3.44c-.17,0-.31-.14-.31-.31s.14-.31.31-.31h3.75c.17,0,.31.14.31.31v3.75c0,.17-.14.31-.31.31Z"/><path class="cls-2" d="m245.4,336.34c-.17,0-.31-.14-.31-.31v-7.16c0-.17.14-.31.31-.31s.31.14.31.31v7.16c0,.17-.14.31-.31.31Zm0-14.32c-.17,0-.31-.14-.31-.31v-7.16c0-.17.14-.31.31-.31s.31.14.31.31v7.16c0,.17-.14.31-.31.31Zm0-14.32c-.17,0-.31-.14-.31-.31v-7.16c0-.17.14-.31.31-.31s.31.14.31.31v7.16c0,.17-.14.31-.31.31Zm0-14.32c-.17,0-.31-.14-.31-.31v-7.16c0-.17.14-.31.31-.31s.31.14.31.31v7.16c0,.17-.14.31-.31.31Z"/><path class="cls-2" d="m245.4,347.25h-3.75c-.17,0-.31-.14-.31-.31s.14-.31.31-.31h3.44v-3.44c0-.17.14-.31.31-.31s.31.14.31.31v3.75c0,.17-.14.31-.31.31Z"/><path class="cls-2" d="m234.49,347.25h-7.16c-.17,0-.31-.14-.31-.31s.14-.31.31-.31h7.16c.17,0,.31.14.31.31s-.14.31-.31.31Zm-14.32,0h-7.16c-.17,0-.31-.14-.31-.31s.14-.31.31-.31h7.16c.17,0,.31.14.31.31s-.14.31-.31.31Zm-14.32,0h-7.16c-.17,0-.31-.14-.31-.31s.14-.31.31-.31h7.16c.17,0,.31.14.31.31s-.14.31-.31.31Zm-14.32,0h-7.16c-.17,0-.31-.14-.31-.31s.14-.31.31-.31h7.16c.17,0,.31.14.31.31s-.14.31-.31.31Z"/><path class="cls-2" d="m177.22,347.25h-3.75c-.17,0-.31-.14-.31-.31v-3.75c0-.17.14-.31.31-.31s.31.14.31.31v3.44h3.44c.17,0,.31.14.31.31s-.14.31-.31.31Z"/><path class="cls-2" d="m173.47,336.34c-.17,0-.31-.14-.31-.31v-7.16c0-.17.14-.31.31-.31s.31.14.31.31v7.16c0,.17-.14.31-.31.31Zm0-14.32c-.17,0-.31-.14-.31-.31v-7.16c0-.17.14-.31.31-.31s.31.14.31.31v7.16c0,.17-.14.31-.31.31Zm0-14.32c-.17,0-.31-.14-.31-.31v-7.16c0-.17.14-.31.31-.31s.31.14.31.31v7.16c0,.17-.14.31-.31.31Zm0-14.32c-.17,0-.31-.14-.31-.31v-7.16c0-.17.14-.31.31-.31s.31.14.31.31v7.16c0,.17-.14.31-.31.31Z"/></g><rect class="cls-2" x="170.8" y="272.11" width="4.75" height="4.75"/><rect class="cls-2" x="170.8" y="344.89" width="4.75" height="4.75"/><rect class="cls-2" x="243.03" y="344.89" width="4.75" height="4.75"/><rect class="cls-2" x="243.03" y="272.64" width="4.75" height="4.75"/></g><g><g><path class="cls-2" d="m346.21,155.76c-.17,0-.31-.14-.31-.31v-3.75c0-.17.14-.31.31-.31h3.75c.17,0,.31.14.31.31s-.14.31-.31.31h-3.44v3.44c0,.17-.14.31-.31.31Z"/><path class="cls-2" d="m407.22,152.01h-7.16c-.17,0-.31-.14-.31-.31s.14-.31.31-.31h7.16c.17,0,.31.14.31.31s-.14.31-.31.31Zm-14.32,0h-7.16c-.17,0-.31-.14-.31-.31s.14-.31.31-.31h7.16c.17,0,.31.14.31.31s-.14.31-.31.31Zm-14.32,0h-7.16c-.17,0-.31-.14-.31-.31s.14-.31.31-.31h7.16c.17,0,.31.14.31.31s-.14.31-.31.31Zm-14.32,0h-7.16c-.17,0-.31-.14-.31-.31s.14-.31.31-.31h7.16c.17,0,.31.14.31.31s-.14.31-.31.31Z"/><path class="cls-2" d="m418.13,155.76c-.17,0-.31-.14-.31-.31v-3.44h-3.44c-.17,0-.31-.14-.31-.31s.14-.31.31-.31h3.75c.17,0,.31.14.31.31v3.75c0,.17-.14.31-.31.31Z"/><path class="cls-2" d="m418.13,213.03c-.17,0-.31-.14-.31-.31v-7.16c0-.17.14-.31.31-.31s.31.14.31.31v7.16c0,.17-.14.31-.31.31Zm0-14.32c-.17,0-.31-.14-.31-.31v-7.16c0-.17.14-.31.31-.31s.31.14.31.31v7.16c0,.17-.14.31-.31.31Zm0-14.32c-.17,0-.31-.14-.31-.31v-7.16c0-.17.14-.31.31-.31s.31.14.31.31v7.16c0,.17-.14.31-.31.31Zm0-14.32c-.17,0-.31-.14-.31-.31v-7.16c0-.17.14-.31.31-.31s.31.14.31.31v7.16c0,.17-.14.31-.31.31Z"/><path class="cls-2" d="m418.13,223.93h-3.75c-.17,0-.31-.14-.31-.31s.14-.31.31-.31h3.44v-3.44c0-.17.14-.31.31-.31s.31.14.31.31v3.75c0,.17-.14.31-.31.31Z"/><path class="cls-2" d="m407.22,223.93h-7.16c-.17,0-.31-.14-.31-.31s.14-.31.31-.31h7.16c.17,0,.31.14.31.31s-.14.31-.31.31Zm-14.32,0h-7.16c-.17,0-.31-.14-.31-.31s.14-.31.31-.31h7.16c.17,0,.31.14.31.31s-.14.31-.31.31Zm-14.32,0h-7.16c-.17,0-.31-.14-.31-.31s.14-.31.31-.31h7.16c.17,0,.31.14.31.31s-.14.31-.31.31Zm-14.32,0h-7.16c-.17,0-.31-.14-.31-.31s.14-.31.31-.31h7.16c.17,0,.31.14.31.31s-.14.31-.31.31Z"/><path class="cls-2" d="m349.96,223.93h-3.75c-.17,0-.31-.14-.31-.31v-3.75c0-.17.14-.31.31-.31s.31.14.31.31v3.44h3.44c.17,0,.31.14.31.31s-.14.31-.31.31Z"/><path class="cls-2" d="m346.21,213.03c-.17,0-.31-.14-.31-.31v-7.16c0-.17.14-.31.31-.31s.31.14.31.31v7.16c0,.17-.14.31-.31.31Zm0-14.32c-.17,0-.31-.14-.31-.31v-7.16c0-.17.14-.31.31-.31s.31.14.31.31v7.16c0,.17-.14.31-.31.31Zm0-14.32c-.17,0-.31-.14-.31-.31v-7.16c0-.17.14-.31.31-.31s.31.14.31.31v7.16c0,.17-.14.31-.31.31Zm0-14.32c-.17,0-.31-.14-.31-.31v-7.16c0-.17.14-.31.31-.31s.31.14.31.31v7.16c0,.17-.14.31-.31.31Z"/></g><rect class="cls-2" x="343.54" y="148.79" width="4.75" height="4.75"/><rect class="cls-2" x="343.54" y="221.57" width="4.75" height="4.75"/><rect class="cls-2" x="415.76" y="221.57" width="4.75" height="4.75"/><rect class="cls-2" x="415.76" y="149.32" width="4.75" height="4.75"/></g><g class="cls-19"><path class="cls-31" d="m335.32,302.66h-40.29c-.87,0-1.58-.71-1.58-1.58h0c0-.87.71-1.58,1.58-1.58h40.29c.87,0,1.58.71,1.58,1.58h0c0,.87-.71,1.58-1.58,1.58Z"/><path class="cls-31" d="m406.48,302.66h-62.42c-.87,0-1.58-.71-1.58-1.58h0c0-.87.71-1.58,1.58-1.58h62.42c.87,0,1.58.71,1.58,1.58h0c0,.87-.71,1.58-1.58,1.58Z"/><path class="cls-31" d="m429.84,302.66h-13.1c-.76,0-1.37-.62-1.37-1.37h0c0-.76.62-1.37,1.37-1.37h13.1c.76,0,1.37.62,1.37,1.37h0c0,.76-.62,1.37-1.37,1.37Z"/><path class="cls-31" d="m429.63,318.98h-134.6c-.87,0-1.58-.71-1.58-1.58h0c0-.87.71-1.58,1.58-1.58h134.6c.87,0,1.58.71,1.58,1.58h0c0,.87-.71,1.58-1.58,1.58Z"/><path class="cls-31" d="m335.32,349.85h-40.29c-.87,0-1.58-.71-1.58-1.58h0c0-.87.71-1.58,1.58-1.58h40.29c.87,0,1.58.71,1.58,1.58h0c0,.87-.71,1.58-1.58,1.58Z"/><path class="cls-31" d="m406.48,349.85h-62.42c-.87,0-1.58-.71-1.58-1.58h0c0-.87.71-1.58,1.58-1.58h62.42c.87,0,1.58.71,1.58,1.58h0c0,.87-.71,1.58-1.58,1.58Z"/><path class="cls-31" d="m362.01,333.54h-66.98c-.87,0-1.58-.71-1.58-1.58h0c0-.87.71-1.58,1.58-1.58h66.98c.87,0,1.58.71,1.58,1.58h0c0,.87-.71,1.58-1.58,1.58Z"/><path class="cls-31" d="m429.63,333.54h-51.57c-.87,0-1.58-.71-1.58-1.58h0c0-.87.71-1.58,1.58-1.58h51.57c.87,0,1.58.71,1.58,1.58h0c0,.87-.71,1.58-1.58,1.58Z"/><path class="cls-31" d="m429.84,349.85h-13.1c-.76,0-1.37-.62-1.37-1.37h0c0-.76.62-1.37,1.37-1.37h13.1c.76,0,1.37.62,1.37,1.37h0c0,.76-.62,1.37-1.37,1.37Z"/></g><g><path class="cls-2" d="m112.05,230.47c-.17,0-.31-.14-.31-.31,0-.17.14-.31.31-.31,1.89,0,3.78-.18,5.62-.5.17-.03.33.08.36.25.03.17-.08.33-.25.36-1.88.33-3.8.51-5.73.51h0Zm-5.68-.47s-.04,0-.05,0c-1.89-.32-3.76-.82-5.56-1.47-.16-.06-.25-.24-.19-.4.06-.16.24-.25.4-.19,1.77.64,3.6,1.12,5.46,1.44.17.03.28.19.26.36-.03.15-.16.26-.31.26Zm16.85-1.52c-.13,0-.25-.08-.29-.2-.06-.16.02-.34.19-.4,1.76-.65,3.48-1.45,5.1-2.4.15-.09.34-.04.43.11.09.15.04.34-.11.43-1.66.96-3.41,1.79-5.2,2.45-.04.01-.07.02-.11.02Zm-27.53-2.32c-.05,0-.11-.01-.16-.04-1.66-.95-3.25-2.06-4.72-3.29-.13-.11-.15-.31-.04-.44.11-.13.31-.15.44-.04,1.44,1.2,3,2.29,4.63,3.22.15.09.2.28.12.43-.06.1-.16.16-.27.16Zm37.33-3.39c-.09,0-.18-.04-.24-.11-.11-.13-.09-.33.04-.44,1.43-1.21,2.77-2.56,3.98-4,.11-.13.31-.15.44-.04.13.11.15.31.04.44-1.23,1.47-2.59,2.84-4.06,4.08-.06.05-.13.07-.2.07Zm-46.05-3.88c-.09,0-.18-.04-.24-.11-1.24-1.46-2.36-3.04-3.32-4.7-.09-.15-.04-.34.11-.43.15-.09.34-.04.43.11.95,1.62,2.04,3.17,3.26,4.61.11.13.1.33-.04.44-.06.05-.13.07-.2.07Zm53.33-4.83c-.05,0-.11-.01-.16-.04-.15-.09-.2-.28-.12-.43.94-1.63,1.74-3.35,2.38-5.12.06-.16.24-.25.4-.19.16.06.25.24.19.4-.65,1.8-1.47,3.55-2.42,5.22-.06.1-.16.16-.27.16Zm-59.05-4.97c-.13,0-.25-.08-.29-.2-.66-1.8-1.17-3.66-1.51-5.55-.03-.17.08-.33.25-.36.17-.03.33.08.36.25.33,1.85.83,3.68,1.48,5.44.06.16-.02.34-.18.4-.04.01-.07.02-.11.02Zm62.9-5.71s-.04,0-.05,0c-.17-.03-.28-.19-.26-.36.31-1.82.47-3.69.47-5.55v-.07c0-.17.14-.31.31-.31s.31.14.31.31v.07c0,1.9-.16,3.8-.48,5.66-.03.15-.16.26-.31.26Zm-64.91-5.46c-.17,0-.31-.14-.31-.31v-.14c0-1.92.17-3.85.49-5.73.03-.17.19-.28.36-.25.17.03.28.19.25.36-.32,1.84-.49,3.74-.49,5.62v.14c0,.17-.14.31-.31.31Zm64.89-5.89c-.15,0-.28-.11-.31-.26-.33-1.85-.82-3.68-1.47-5.45-.06-.16.02-.34.19-.4.16-.06.34.02.4.19.66,1.8,1.16,3.67,1.5,5.55.03.17-.08.33-.25.36-.02,0-.04,0-.05,0Zm-62.93-5.43s-.07,0-.11-.02c-.16-.06-.25-.24-.19-.4.65-1.8,1.47-3.55,2.43-5.21.09-.15.28-.2.43-.11.15.09.2.28.11.43-.94,1.63-1.74,3.35-2.39,5.11-.05.13-.17.21-.29.21Zm59.03-5.22c-.11,0-.21-.06-.27-.16-.94-1.62-2.03-3.17-3.25-4.61-.11-.13-.09-.33.04-.44.13-.11.33-.09.44.04,1.24,1.47,2.35,3.05,3.31,4.7.09.15.04.34-.11.43-.05.03-.1.04-.16.04Zm-53.35-4.61c-.07,0-.14-.02-.2-.07-.13-.11-.15-.31-.04-.44,1.23-1.47,2.6-2.84,4.06-4.07.13-.11.33-.09.44.04s.09.33-.04.44c-1.44,1.21-2.78,2.55-3.99,3.99-.06.07-.15.11-.24.11Zm46.04-4.07c-.07,0-.14-.02-.2-.07-1.44-1.21-3-2.3-4.62-3.23-.15-.09-.2-.28-.11-.43.09-.15.28-.2.43-.11,1.66.96,3.24,2.06,4.71,3.3.13.11.15.31.04.44-.06.07-.15.11-.24.11Zm-37.35-3.23c-.11,0-.21-.06-.27-.16-.09-.15-.04-.34.11-.43,1.66-.96,3.41-1.78,5.21-2.44.16-.06.34.02.4.19.06.16-.02.34-.19.4-1.76.64-3.48,1.45-5.11,2.39-.05.03-.1.04-.16.04Zm27.51-2.44s-.07,0-.11-.02c-1.76-.64-3.6-1.13-5.45-1.45-.17-.03-.28-.19-.25-.36.03-.17.19-.28.36-.25,1.89.33,3.76.83,5.56,1.48.16.06.25.24.19.4-.05.13-.17.21-.29.21Zm-16.85-1.45c-.15,0-.28-.11-.31-.26-.03-.17.08-.33.25-.36,1.88-.33,3.81-.5,5.73-.5h0c.17,0,.31.14.31.31s-.14.31-.31.31c-1.89,0-3.78.17-5.62.49-.02,0-.04,0-.05,0Z"/><rect class="cls-2" x="142.98" y="195.58" width="3.31" height="3.31"/><rect class="cls-2" x="77.17" y="195.58" width="3.31" height="3.31"/><rect class="cls-2" x="110.28" y="228.27" width="3.31" height="3.31"/><rect class="cls-2" x="110.28" y="163.1" width="3.31" height="3.31"/></g><circle class="cls-17" cx="78.51" cy="192.03" r="31.87" transform="translate(-124.9 232.81) rotate(-79.1)"/><path class="cls-1" d="m65.02,108.23h369.09c4,0,7.25,3.25,7.25,7.25v26.84H57.77v-26.84c0-4,3.25-7.25,7.25-7.25Z"/><g class="cls-19"><rect class="cls-31" x="102.26" y="244.99" width="42.82" height="7.04" rx="3.29" ry="3.29"/></g><g class="cls-19"><rect class="cls-31" x="102.26" y="281.31" width="42.82" height="7.04" rx="3.28" ry="3.28"/></g><g class="cls-19"><rect class="cls-31" x="102.26" y="317.63" width="42.82" height="7.04" rx="3.29" ry="3.29"/></g><g class="cls-22"><g class="cls-19"><g class="cls-19"><circle class="cls-14" cx="76.3" cy="125.28" r="3.71" transform="translate(-66.24 90.65) rotate(-45)"/></g><g class="cls-19"><circle class="cls-14" cx="86.68" cy="125.28" r="3.71" transform="translate(-63.2 97.99) rotate(-45)"/></g><g class="cls-19"><circle class="cls-14" cx="97.06" cy="125.28" r="3.71" transform="translate(-42.15 201.02) rotate(-80.78)"/></g></g><rect class="cls-15" x="110.77" y="118.98" width="260.55" height="12.6" rx="5.88" ry="5.88"/><rect class="cls-15" x="379.1" y="118.98" width="46.7" height="12.6" rx="5.88" ry="5.88"/></g><path class="cls-17" d="m262.97,180.93v47.06c0,4.11-2.53,7.64-6.12,9.1-1.14.47-2.4.72-3.71.72h-47.05c-5.43,0-9.83-4.4-9.83-9.83v-47.06c0-5.43,4.4-9.82,9.83-9.82h47.05c5.43,0,9.83,4.4,9.83,9.82Z"/><path class="cls-17" d="m408.25,180.93v47.05c0,5.43-4.4,9.83-9.83,9.83h-47.06c-5.43,0-9.83-4.4-9.83-9.83v-47.05c0-5.43,4.4-9.83,9.83-9.83h47.06c5.43,0,9.83,4.4,9.83,9.83Z"/><rect class="cls-17" x="196.26" y="247.38" width="66.71" height="14.08" rx="5.44" ry="5.44"/><rect class="cls-17" x="343.4" y="247.38" width="66.71" height="14.08" rx="6.37" ry="6.37"/><path class="cls-17" d="m202.26,295.43h82.69c2.52,0,4.57,2.05,4.57,4.57v61.02c0,2.52-2.05,4.57-4.57,4.57h-82.69c-2.52,0-4.57-2.05-4.57-4.57v-61.02c0-2.52,2.05-4.57,4.57-4.57Z"/><path class="cls-2" d="m257.16,175.14v47.06c0,4.11-2.52,7.64-6.12,9.1-1.14.47-2.4.72-3.71.72h-47.05c-5.42,0-9.83-4.4-9.83-9.82v-47.06c0-5.42,4.41-9.82,9.83-9.82h47.05c5.43,0,9.83,4.4,9.83,9.82Z"/><path class="cls-27" d="m200.28,230.14c-4.39,0-7.96-3.57-7.96-7.95v-47.06c0-4.38,3.57-7.95,7.96-7.95h47.05c4.39,0,7.96,3.57,7.96,7.95v47.06c0,3.25-1.94,6.14-4.95,7.36-.95.39-1.96.59-3.01.59h-47.05Z"/><path class="cls-2" d="m402.45,175.14v47.05c0,5.43-4.4,9.83-9.83,9.83h-47.06c-5.43,0-9.83-4.4-9.83-9.83v-47.05c0-5.43,4.4-9.83,9.83-9.83h47.06c5.43,0,9.83,4.4,9.83,9.83Z"/><path class="cls-32" d="m345.56,230.15c-4.38,0-7.95-3.57-7.95-7.95v-47.05c0-4.39,3.57-7.95,7.95-7.95h47.06c4.38,0,7.95,3.57,7.95,7.95v47.05c0,4.39-3.57,7.95-7.95,7.95h-47.06Z"/><g class="cls-19"><path class="cls-11" d="m368.4,165.31v45.27h-32.66v-35.44c0-5.43,4.4-9.83,9.83-9.83h22.84Z"/></g><rect class="cls-21" x="190.45" y="242.4" width="66.71" height="14.08" rx="5.44" ry="5.44"/><rect class="cls-7" x="337.59" y="242.4" width="66.71" height="14.08" rx="6.37" ry="6.37"/><g><path class="cls-25" d="m400.42,281.97s-13.8,10.94-18.58,12.63c-5.76,2.03-20.21.05-20.21.05-2.77,2.86-6.91,3.67-10.21,1.48-2.2-1.46,4.92-2.18,5.98-4.06,0,0-5.15-2.42-3.07-3.03,2.37-.7,7.01,1.43,7.01,1.43l16.94-4,16.26-13.29,5.89,8.78Z"/><path class="cls-25" d="m391.99,385.01l5.24-2.97c-1.53-5.86-3.2-11.62-5.35-17.16-1.67-4.27-3.63-8.4-6.04-12.36-1.43-2.33-2.24-4.98-2.29-7.71-.3-16.32,1.09-30.72,5.37-41.85h13.08c10.11,22.99-1.17,27.45-7.21,45.11,2.66,5.16,4.35,10.85,5.48,16.82,1,5.25.45,10.12.85,15.65,1.18,1.37.14,2.39.38,3.33-4.46,1.88-8.64,4.67-9.5,1.15Z"/><path class="cls-6" d="m401.43,380.96c.93,2.19-.09,3.42-.41,4.85-.1.44-.46.77-.91.8l-.89.06c-.25.1-.53.06-.73-.11l-.02-.02c-.24-.21-.59-.24-.86-.07-2.83,1.76-8.56,3.57-9.79,2.24-1.09-1.17,2.92-3.99,2.92-3.99,1.83,2.01,7.65.59,10.7-3.76Z"/><path class="cls-13" d="m398.49,347.04c1.68,6.31,1.87,10.97,2.33,16.48.06.73-.51,1.35-1.24,1.35h-6.86c-.51,0-.96-.31-1.15-.78-1.59-3.99-3.46-7.86-5.72-11.57-1.43-2.33-2.24-4.98-2.29-7.71-.23-12.6.54-24.06,2.89-33.75,2.29-2.88,6.04-7.54,6.04-7.54l3.23-.56h5.62c.43.03.82.28,1.03.66,11.41,21.54.05,27.14-3.87,42.79-.05.2-.05.42,0,.63Z"/><path class="cls-5" d="m398.49,347.04c1.68,6.31,1.87,10.97,2.33,16.48.06.73-.51,1.35-1.24,1.35h-6.86c-.51,0-.96-.31-1.15-.78-1.59-3.99-3.46-7.86-5.72-11.57-1.43-2.33-2.24-4.98-2.29-7.71-.23-12.6.54-24.06,2.89-33.75,2.29-2.88,6.04-7.54,6.04-7.54l3.23-.56h5.62c.43.03.82.28,1.03.66,11.41,21.54.05,27.14-3.87,42.79-.05.2-.05.42,0,.63Z"/><path class="cls-25" d="m394.23,384c1.03,2.25,0,3.92-1.32,5.51-4.55.46-8.65.48-10.65-1.5l7.88-3.29c-.14-6.75-1.62-13.31-3.78-19.85-1.16-3.54-2.52-7.08-3.96-10.64-.76-1.87-1.26-3.85-1.44-5.87-1.36-15.3-.76-30.87,1.62-45.41h13.11c7.14,15.66-5.81,27.14-4.64,48.91,1.47,4.37,2.55,8.71,3.22,13.01.99,6.44,1.02,12.82-.05,19.12Z"/><path class="cls-6" d="m393.27,348.07c1.36,4.04,1.75,11.25,2.06,18.69.04.98-.74,1.8-1.72,1.8h-5.48c-.76,0-1.38-.56-1.5-1.3-.62-4.08-2.93-9.82-4.23-13.02-.76-1.87-1.26-3.85-1.44-5.87-1.36-15.3-.76-30.87,1.62-45.41h15.95c10.91,22.24.51,22.93-5.27,45.11Z"/><path class="cls-25" d="m377.61,268.82l-1.82,11.49s-.88-.62-2.25-1.63l3.4-10.42c.22.19.45.37.67.56Z"/><path class="cls-4" d="m402,302.96c-4.89-16.96-2.12-25.09-11.13-34.31-1.96,2.28-4.95,2.43-13.25.18l-1.81,11.49c3.87,5.93,8.75,9.22,6.79,22.65h19.41Z"/><path class="cls-26" d="m402.63,304.36c-7.77,1.15-14.16-1.57-19.12-1.02-.53.05-1.04.14-1.53.29-1.02.27-2.09-.53-1.92-1.57,1.66-9.29.45-13.84-1.76-16.83l-.02-.03c-1.49-2-3.44-3.31-5.28-4.88l.53-1.63,3.4-10.42.16-.46c10.63,4.91,11.09-.85,13.06-3.13,3.82,3.92,6.08,8.55,7.75,13.88,1.57,4.96,2.65,10.52,4.09,16.67.54,2.33,1.15,4.76,1.84,7.27.22.86-.34,1.74-1.22,1.87Z"/><path class="cls-25" d="m388.12,248.72c-2.15,1.59-7.79,6.32-6.69,10.09,1.1,3.77,7.77,4.65,7.77,4.65l7.42-9.53-8.5-5.22Z"/><polygon class="cls-25" points="391.97 267.51 390.93 262.87 385.85 261.2 384.64 269.94 391.97 267.51"/><path class="cls-16" d="m384.35,295.9l-.84,7.43c-.53.06-1.03.15-1.53.29-1.03.28-2.1-.52-1.92-1.57,1.66-9.28.45-13.84-1.76-16.84l2.75,2.35c2.42,2.06,3.65,5.18,3.29,8.34Z"/><path class="cls-6" d="m394.68,385.73c.52,2.45-.96,3.31-1.49,4.71-.12.3-.4.51-.72.53l-1.25.06c-.26.06-.53-.04-.7-.25l-.02-.02c-.2-.25-.54-.34-.83-.23-3.11,1.19-9.08,1.89-10.04.36-.85-1.36,3.62-3.37,3.62-3.37,1.42,2.32,5.51,1.38,11.44-1.79Z"/><path class="cls-16" d="m402,295.22c-1.36.45-3.01.38-3.82.27-2.94-.4-5.64-4.03-6.62-5.99-1.3-2.59-8.64-1.35-8.93-7.23l15.3-3.71c1.57,4.96,2.65,10.51,4.08,16.67Z"/><path class="cls-6" d="m409.16,275.63c-.46-1.65-1.24-3.21-1.64-4.87-.67-2.76-.29-5.68-.84-8.46-.55-2.78-3.43-4.87-5.57-6.74-1.61-1.4.03-4.43-2.34-8.22-.88-1.42-4.11-2.62-6.25-2.36-2.14.26-4.09,1.7-4.98,3.66-.85,1.88-.26,6.12-.97,8.05-.96,2.61-3.84,2.52-4.41,5.24-.83,3.91,2.39,7.59,2.51,11.59.08,2.68-1.23,5.17-1.89,7.77-.66,2.6-.4,5.86,1.89,7.25,1.84,1.11,4.31.59,6.2,1.61,2.21,1.2,2.94,4.1,4.95,5.61,2.55,1.91,6.83.52,7.76-2.53.77-2.52-.5-5.46.71-7.8,1.03-1.99,3.51-2.85,4.62-4.8.85-1.49.73-3.35.26-5Z"/><g><path class="cls-2" d="m369.58,198.6l-22.04.26,8.96,10.39v23c0,.8.65,1.45,1.45,1.45s1.45-.65,1.45-1.45v-22.96l10.18-10.69Zm-6.64,2.89l-4.93,5.18-4.38-5.07,9.31-.11Z"/><path class="cls-3" d="m371.27,201.7h-26.63c-2.41,0-4.37-1.95-4.37-4.37h0c0-2.41,1.95-4.37,4.37-4.37h26.63c2.41,0,4.37,1.95,4.37,4.37h0c0,2.41-1.95,4.37-4.37,4.37Z"/></g><path class="cls-25" d="m376.94,268.26l-3.4,10.42c-4.54-3.36-14.48-11.08-15.94-15.33-2.48-7.23-1.58-26.31-1.58-26.31-1.92-2.38-3-5.91-1-8.96,1.95-2.99,1.69,2.23,3.92,4.14,0,0,3.17-4.49,2.59-.86-.58,3.63-1.85,5.58-1.85,5.58,2.54,6.46,3.53,13.41,4.64,21.15,4.33,3.36,8.54,6.75,12.63,10.18Z"/></g><g class="cls-19"><path class="cls-31" d="m88.58,238.77h-15.3c-1.01,0-1.83.92-1.83,2.06v17.22c0,1.14.82,2.06,1.83,2.06h15.3c1.01,0,1.83-.92,1.83-2.06v-17.22c0-1.14-.82-2.06-1.83-2.06Z"/></g><g class="cls-19"><path class="cls-31" d="m88.46,310.49h-15.08c-1.07,0-1.94.98-1.94,2.18v16.97c0,1.21.87,2.18,1.94,2.18h15.08c1.07,0,1.94-.98,1.94-2.18v-16.97c0-1.21-.87-2.18-1.94-2.18Z"/></g><g class="cls-19"><path class="cls-31" d="m88.46,274.17h-15.08c-1.07,0-1.94.98-1.94,2.18v16.97c0,1.21.87,2.18,1.94,2.18h15.08c1.07,0,1.94-.98,1.94-2.18v-16.97c0-1.21-.87-2.18-1.94-2.18Z"/></g><g><path class="cls-12" d="m257.16,184.47v37.72c0,4.11-2.52,7.64-6.12,9.1-1.14.47-2.4.72-3.71.72h-47.05c-5.42,0-9.83-4.4-9.83-9.82v-11.74c3.68-5.18,7.45-10.49,9.51-13.36,2.01-2.8,6.39-2.12,7.77.21,1.64,2.76,7.51,10.43,7.51,10.43.78,1.07,2.52,3.22,2.52,3.22h0s0-.01,0-.02c.32-.42,5.3-6.94,8.76-7.81.07-.02.13-.04.2-.05.06-.01.12-.03.19-.03.04,0,.09-.01.14-.02.06,0,.12,0,.17,0h.03c.08,0,.15,0,.22.01.09.01.19.02.29.05.03,0,.06.01.09.02h0s.03.01.04.02c.02,0,.04.01.05.02.03,0,.06,0,.09.02.03.01.06.02.09.03.06.02.12.04.18.07.32.12.66.31,1.02.53.14.08.28.17.41.27.29.21.61.44.92.69.08.07.16.14.25.21,2.01,1.66,3.97,3.94,4.75,4.89.08.1.17.21.26.31.03.04.07.08.1.12,0,0,14.69-18.59,18.16-23.4.79-1.11,1.73-2.02,2.95-2.41Z"/><path class="cls-12" d="m215.94,187.55c0-6.31,5.11-11.42,11.42-11.42s11.42,5.11,11.42,11.42-5.11,11.42-11.42,11.42c-6.31,0-11.42-5.11-11.42-11.42Z"/><path class="cls-12" d="m251.05,231.29c-1.14.47-2.4.72-3.71.72h-44.87c3.48-5.27,9.74-14.45,15.31-21.06,3.45-4.1,6.64-7.21,8.77-7.82.07-.02.13-.04.2-.05.06-.01.12-.03.19-.03.04,0,.09-.01.14-.02.06,0,.12,0,.17,0h.03c.08,0,.15,0,.22.01.09.01.19.02.29.05.03,0,.07.01.1.02.01,0,.03,0,.04.01.04.01.09.02.14.04.03.01.06.02.09.03.06.02.12.04.18.07.32.12.66.31,1.02.53.14.08.28.17.41.27.29.21.61.44.92.69.08.07.16.14.25.21,1.44,1.21,3.06,2.91,4.75,4.89.08.1.17.21.26.31.03.04.07.08.1.12,5.47,6.5,11.64,15.79,14.99,21.01Z"/></g><g><rect class="cls-2" x="190.82" y="289.59" width="91.84" height="70.17" rx="4.57" ry="4.57"/><path class="cls-23" d="m195.39,290.94h82.69c1.78,0,3.22,1.44,3.22,3.22v61.02c0,1.78-1.44,3.22-3.22,3.22h-82.69c-1.78,0-3.22-1.44-3.22-3.22v-61.02c0-1.78,1.44-3.22,3.22-3.22Z"/><g class="cls-19"><rect class="cls-9" x="209.44" y="300.36" width="55.06" height="37.21" rx="1.69" ry="1.69"/><path class="cls-2" d="m245.78,318.12l-14.88-7.05c-.62-.29-1.34.16-1.34.85v14.1c0,.69.72,1.14,1.34.85l14.88-7.05c.71-.34.71-1.35,0-1.69Z"/><rect class="cls-9" x="202.87" y="345.32" width="64.63" height="1.75" rx=".59" ry=".59"/><circle class="cls-8" cx="200.32" cy="346.19" r="1.06"/><rect class="cls-9" x="215.12" y="344.56" width="1.18" height="3.45"/></g></g><g class="cls-18"><path class="cls-29" d="m289.17,186.16c4.82,0,8.72-3.9,8.72-8.72s-3.9-8.72-8.72-8.72-8.72,3.9-8.72,8.72,3.9,8.72,8.72,8.72Z"/><path class="cls-29" d="m289.17,193.17c-4.82,0-8.72,3.9-8.72,8.72s3.9,8.72,8.72,8.72,8.72-3.9,8.72-8.72-3.9-8.72-8.72-8.72Z"/><path class="cls-29" d="m289.17,217.63c-4.82,0-8.72,3.9-8.72,8.72s3.9,8.72,8.72,8.72,8.72-3.9,8.72-8.72-3.9-8.72-8.72-8.72Z"/></g><g><circle class="cls-2" cx="286.55" cy="176.13" r="8.72"/><circle class="cls-20" cx="286.55" cy="176.13" r="6.17"/></g><g><circle class="cls-2" cx="286.55" cy="200.58" r="8.72"/><circle class="cls-24" cx="286.55" cy="200.58" r="6.17"/></g><g><circle class="cls-2" cx="286.55" cy="225.04" r="8.72"/><circle class="cls-28" cx="286.55" cy="225.04" r="6.17"/></g><g class="cls-18"><path class="cls-29" d="m134.94,364.87c.05-.06.1-.11.15-.17.24-.28.48-.56.7-.86.03-.04.06-.08.09-.12.2-.28.4-.56.59-.85.04-.06.07-.11.11-.16.2-.31.38-.64.56-.97.04-.07.07-.14.11-.22.17-.34.34-.69.49-1.05,0,0,0,0,0,0,.64-1.51,1.02-3.06,1.17-4.61.08-.77.09-1.55.05-2.31-.03-.51-.08-1.02-.15-1.52-.04-.25-.08-.5-.13-.75-.59-2.98-2.04-5.77-4.19-7.97-.18-.18-.36-.36-.55-.54-1.32-1.23-2.88-2.25-4.63-2.99,0,0,0,0,0,0-.28-.12-.56-.23-.85-.33-.09-.03-.17-.06-.26-.09-.21-.07-.41-.13-.62-.19-.09-.03-.19-.05-.28-.08-.21-.06-.42-.11-.63-.16-.08-.02-.16-.04-.24-.05-.27-.06-.55-.11-.82-.15-.01,0-.03,0-.04,0-.61-.09-1.23-.15-1.84-.17-.04,0-.08,0-.11,0-.27,0-.54,0-.81,0-.04,0-.07,0-.11,0-5.98.19-11.59,3.78-14.06,9.66-3.38,8.04.39,17.31,8.44,20.69,1.94.82,3.96,1.21,5.94,1.24.01,0,.03,0,.05,0,.4,0,.79,0,1.18-.04.03,0,.07,0,.1,0,.78-.06,1.55-.17,2.31-.34.04,0,.07-.02.11-.03.37-.09.74-.19,1.11-.3.02,0,.05-.02.07-.02.36-.11.72-.24,1.08-.38.01,0,.03,0,.04-.02.35-.14.7-.3,1.04-.46.05-.02.1-.05.15-.07.34-.17.67-.35,1-.54,0,0,0,0,.01,0,.32-.19.63-.39.94-.6.05-.03.09-.06.14-.09.3-.21.59-.43.88-.67.05-.04.09-.08.14-.12.28-.23.54-.47.8-.72.01-.01.03-.03.05-.04.27-.26.52-.53.77-.8Zm-13.35-6.77c-1.69-.71-2.65-2.43-2.48-4.16.03-.27.08-.53.16-.8.04-.13.09-.26.14-.39,0,0,0,0,0-.01.06-.13.12-.26.18-.38.02-.03.04-.06.06-.1.05-.09.11-.18.17-.27.02-.03.04-.06.06-.09.06-.08.13-.17.19-.25.02-.02.04-.04.06-.06.08-.08.15-.17.23-.24.01-.01.03-.02.04-.04.09-.08.18-.16.28-.23,0,0,.02-.01.03-.02.1-.08.21-.15.32-.22,0,0,0,0,.01,0,.23-.14.48-.26.73-.35h0c.93-.34,1.99-.35,2.98.07,2.08.87,3.05,3.27,2.18,5.35-.85,2.01-3.12,2.99-5.16,2.25h0c-.06-.02-.13-.04-.19-.07Z"/><path class="cls-29" d="m149.35,357.37h0c.2-1.7.22-3.4.09-5.08-.02-.24-.03-.48-.06-.72l5.56-4.74c.94-.8,1.26-2.12.8-3.26l-1.79-4.38c-.47-1.15-1.63-1.87-2.88-1.78h0l-.56.04-1.15.09h0l-5.55.43h0c-.05-.07-.11-.13-.17-.2h0s0,0,0,0c-.57-.71-1.18-1.4-1.83-2.05-.04-.04-.08-.07-.11-.11-.29-.29-.58-.57-.89-.84-.33-.3-.66-.58-1.01-.86-.02-.02-.04-.04-.06-.05h0s.58-7.28.58-7.28c.02-.23,0-.46-.04-.68-.15-.96-.78-1.8-1.71-2.19l-2.62-1.1-1.75-.73s0,0,0,0c-.13-.05-.26-.09-.39-.13-.04-.01-.08-.02-.13-.03-.09-.02-.18-.03-.28-.04-.05,0-.09-.01-.14-.02-.12,0-.23,0-.35,0-.07,0-.15.02-.22.02-.05,0-.09.01-.14.02-.08.02-.17.03-.25.06-.01,0-.03,0-.04.01-.52.15-1,.45-1.37.88l-4.73,5.52s0,0,0,0c-.88-.11-1.76-.16-2.63-.17h0c-.23,0-.45,0-.67,0-.23,0-.45,0-.67.02-.16,0-.32,0-.48.02h0,0c-.44.02-.89.06-1.33.1,0,0,0,0,0,0l-.12-.14h0l-4.62-5.42c-.2-.24-.43-.43-.69-.59-.51-.31-1.1-.45-1.7-.41-.3.02-.59.09-.88.21l-.34.14h0l-4.04,1.65c-1.15.47-1.87,1.63-1.78,2.87l.56,7.24c-1.51,1.19-2.89,2.56-4.12,4.08l-7.28-.58c-.18-.01-.37,0-.54.01-.02,0-.03,0-.05,0-.17.02-.34.06-.5.11,0,0,0,0,0,0h0c-.78.25-1.44.82-1.77,1.61l-1.84,4.36c-.48,1.15-.17,2.48.78,3.29l5.52,4.72s0,0,0,0c-.23,1.94-.23,3.89-.03,5.8l-5.56,4.74c-.94.8-1.26,2.12-.8,3.26l1.79,4.38c.4.97,1.28,1.63,2.29,1.75.01,0,.03,0,.04,0,.18.02.36.03.54.01h0l2.66-.21,4.58-.35c1.19,1.51,2.55,2.89,4.07,4.11h0s-.58,7.29-.58,7.29c-.1,1.23.61,2.39,1.74,2.87l4.06,1.71h0s.25.1.25.1l.06.03c.43.18.89.25,1.33.22.74-.06,1.45-.4,1.96-.99l2.24-2.62,2.48-2.9s0,0,0,0c.56.07,1.11.11,1.67.14h0c.49.03.98.04,1.47.04h0c.89,0,1.78-.05,2.65-.14,0,0,0,0,0,0l4.74,5.56c.44.51,1.03.83,1.66.95.04,0,.08.01.12.02.07.01.15.02.22.03.11,0,.22,0,.34,0,.05,0,.09,0,.14-.01.09,0,.18-.02.28-.04.04,0,.08-.02.12-.03.13-.03.26-.07.38-.12l1.46-.6,2.92-1.19c.79-.32,1.37-.98,1.63-1.76.12-.35.18-.73.14-1.12l-.56-7.24c.36-.29.72-.59,1.07-.89.31-.28.62-.56.92-.86.03-.03.05-.05.08-.08.72-.71,1.41-1.46,2.05-2.25l6.65.53.63.05c.15.01.31.01.46,0,.68-.05,1.3-.35,1.78-.82.16-.16.31-.32.43-.52.08-.13.15-.26.21-.41l1.84-4.36c.06-.14.11-.29.14-.44.25-1.03-.09-2.14-.92-2.85l-5.52-4.72Zm-27.57,15.75c-.97-.07-1.95-.22-2.92-.45-.03,0-.05-.01-.07-.02-.45-.11-.9-.24-1.35-.38-.08-.02-.15-.05-.23-.08-.44-.15-.89-.31-1.33-.49,0,0,0,0,0,0-1.8-.76-3.42-1.76-4.83-2.95-1.42-1.19-2.63-2.58-3.62-4.1-.5-.76-.94-1.55-1.32-2.37-.76-1.64-1.29-3.39-1.55-5.19-.49-3.3-.11-6.77,1.28-10.06.16-.38.33-.74.51-1.11.05-.1.1-.19.15-.29.15-.29.31-.58.48-.86.04-.07.08-.14.12-.21.21-.34.42-.67.65-.99.05-.07.09-.13.14-.2.19-.27.39-.53.59-.78.06-.07.11-.14.17-.22.51-.62,1.05-1.19,1.62-1.73.06-.05.11-.11.17-.16.27-.25.55-.49.84-.73.02-.01.03-.03.05-.04.32-.26.65-.5.98-.74.03-.02.06-.04.09-.06.31-.22.63-.42.95-.62.03-.02.06-.04.1-.06.7-.43,1.44-.81,2.19-1.14.02,0,.05-.02.07-.03,1.93-.84,4-1.36,6.13-1.51h0c2.88-.21,5.85.23,8.69,1.42,9.59,4.04,14.09,15.08,10.05,24.67-3.22,7.66-10.91,12.06-18.76,11.48Z"/></g><g><path class="cls-33" d="m124.94,339.77c-8.04-3.39-17.31.38-20.69,8.43-3.38,8.04.39,17.31,8.44,20.69,8.04,3.38,17.31-.39,20.69-8.43,3.39-8.04-.39-17.31-8.43-20.69Zm-7.71,18.33c-2.08-.88-3.05-3.27-2.18-5.35.87-2.08,3.27-3.06,5.35-2.18,2.08.87,3.05,3.27,2.18,5.35-.87,2.08-3.27,3.05-5.35,2.18Zm33.27,4l-5.52-4.72s0,0,0,0c.23-1.94.23-3.89.03-5.8l5.56-4.74c.94-.8,1.26-2.12.8-3.26l-1.79-4.38c-.47-1.15-1.63-1.87-2.88-1.78l-7.25.56h0c-1.19-1.51-2.55-2.89-4.07-4.12h0s.58-7.28.58-7.28c.1-1.23-.6-2.39-1.74-2.87l-4.36-1.84c-1.15-.48-2.48-.17-3.29.78l-4.73,5.52s0,0,0,0c-1.94-.23-3.88-.24-5.79-.04,0,0,0,0,0,0l-4.74-5.56c-.8-.94-2.12-1.26-3.26-.8l-4.38,1.79c-1.15.47-1.87,1.63-1.78,2.87l.56,7.24c-1.51,1.19-2.89,2.56-4.12,4.08l-7.28-.58c-1.23-.1-2.39.61-2.87,1.74l-1.84,4.36c-.48,1.15-.17,2.48.78,3.29l5.52,4.72s0,0,0,0c-.23,1.94-.23,3.89-.03,5.8l-5.56,4.74c-.94.8-1.26,2.12-.8,3.26l1.79,4.38c.47,1.15,1.63,1.87,2.88,1.78l7.25-.56c1.19,1.51,2.55,2.89,4.07,4.11h0s-.58,7.29-.58,7.29c-.1,1.23.61,2.39,1.74,2.87l4.36,1.84c1.15.48,2.48.17,3.29-.78l4.73-5.52s0,0,0,0c1.94.23,3.88.24,5.79.03,0,0,0,0,0,0l4.74,5.56c.8.94,2.12,1.26,3.26.8l4.38-1.79c1.15-.47,1.87-1.63,1.78-2.88l-.56-7.24c1.51-1.19,2.89-2.56,4.12-4.08l7.28.58c1.23.1,2.39-.61,2.87-1.74l1.84-4.36c.48-1.15.17-2.48-.78-3.29Zm-39,9.6c-9.59-4.04-14.09-15.08-10.05-24.67,4.04-9.59,15.08-14.09,24.67-10.05,9.59,4.04,14.09,15.08,10.05,24.67-4.04,9.59-15.08,14.09-24.67,10.06Z"/><g class="cls-18"><path class="cls-34" d="m117.41,350.49c-2.04-.74-4.31.24-5.15,2.25-.87,2.08.1,4.47,2.18,5.35.99.42,2.04.41,2.98.07-.06-.02-.13-.04-.19-.07-2.08-.88-3.05-3.27-2.18-5.35.46-1.09,1.34-1.88,2.37-2.25Z"/><path class="cls-34" d="m119.06,328.16s0,0,0,0l.15-.17c-.61,0-1.22,0-1.83.03.56.03,1.12.07,1.68.14Z"/><path class="cls-34" d="m108.53,322.56l4.74,5.56s0,0,0,0c.88-.09,1.77-.14,2.66-.14l-4.62-5.42c-.8-.94-2.12-1.26-3.26-.8l-.34.14c.31.17.59.38.82.66Z"/><path class="cls-34" d="m133.37,360.46c3.39-8.04-.39-17.31-8.43-20.69-2.46-1.04-5.03-1.4-7.52-1.18,1.59.14,3.19.53,4.74,1.18,8.04,3.38,11.82,12.65,8.43,20.69-2.35,5.58-7.54,9.11-13.18,9.61,6.66.59,13.23-3.11,15.96-9.61Z"/><path class="cls-34" d="m131.44,323.7c1.14.48,1.84,1.64,1.74,2.87l-.58,7.28h0c1.52,1.23,2.88,2.61,4.07,4.12h0s2.61-.2,2.61-.2c-1.15-1.43-2.45-2.74-3.9-3.92h0s.58-7.28.58-7.28c.1-1.23-.6-2.39-1.74-2.87l-4.36-1.84c-.82-.34-1.73-.28-2.48.13l4.06,1.71Z"/><path class="cls-34" d="m111.5,371.69c-9.59-4.04-14.09-15.08-10.05-24.67,2.84-6.75,9.15-10.97,15.98-11.48-7.85-.58-15.54,3.82-18.76,11.48-4.04,9.59.47,20.64,10.05,24.67,2.84,1.2,5.81,1.64,8.69,1.42-1.98-.15-3.97-.61-5.91-1.42Z"/><path class="cls-34" d="m118.78,380.53s0,0,0,0c-.44.05-.89.08-1.34.11.49.03.98.04,1.47.04l-.12-.14Z"/><path class="cls-34" d="m139.11,371.11l-2.6-.21c-1.23,1.52-2.61,2.89-4.12,4.08l.56,7.24c.1,1.24-.62,2.4-1.78,2.88l-4.04,1.65c.74.4,1.63.47,2.44.14l4.38-1.79c1.15-.47,1.87-1.63,1.78-2.88l-.56-7.24c1.44-1.14,2.76-2.43,3.94-3.87Z"/><path class="cls-34" d="m144.98,357.37h0c.23-1.94.23-3.89.03-5.8l5.56-4.74c.94-.8,1.26-2.12.8-3.26l-1.79-4.38c-.47-1.15-1.63-1.87-2.88-1.78l-1.7.13c.8.25,1.47.84,1.8,1.64l1.79,4.38c.47,1.15.15,2.46-.8,3.26l-5.56,4.74c.2,1.91.2,3.86-.03,5.8,0,0,0,0,0,0l5.52,4.72c.95.81,1.26,2.14.78,3.29l-1.84,4.36c-.33.79-.99,1.36-1.77,1.61l1.68.13c1.23.1,2.39-.61,2.87-1.74l1.84-4.36c.48-1.15.17-2.48-.78-3.29l-5.52-4.72Z"/><path class="cls-34" d="m95.54,337.75c.06-.07.12-.14.18-.21l-4.68-.37c-.38-.03-.75.02-1.1.13l5.6.45Z"/><path class="cls-34" d="m112.99,380.5s0,0,0,0l-4.73,5.52c-.23.27-.51.48-.81.65l.31.13c1.15.48,2.48.17,3.29-.78l4.58-5.35c-.88-.01-1.75-.07-2.63-.17Z"/><path class="cls-34" d="m95.37,370.69l-5.55.43c.34.11.71.16,1.08.13l4.63-.36c-.05-.07-.11-.13-.17-.2Z"/></g></g></g></g></g></svg>