<?xml version="1.0" encoding="UTF-8"?>
<svg id="Layer_1" data-name="Layer 1" xmlns="http://www.w3.org/2000/svg" xmlns:xlink="http://www.w3.org/1999/xlink" viewBox="0 0 500 500">
  <defs>
    <style>
      .cls-1 {
        fill: url(#linear-gradient-2);
      }

      .cls-2 {
        fill: #fff;
      }

      .cls-3 {
        fill: url(#linear-gradient-3);
      }

      .cls-4 {
        fill: url(#linear-gradient);
      }

      .cls-5 {
        fill: url(#linear-gradient-4);
      }

      .cls-6 {
        opacity: .2;
      }

      .cls-6, .cls-7 {
        fill: #8123b9;
      }

      .cls-7 {
        opacity: .02;
      }

      .cls-8 {
        fill: #c611ea;
      }
    </style>
    <linearGradient id="linear-gradient" x1="394.23" y1="68.28" x2="182.68" y2="434.69" gradientUnits="userSpaceOnUse">
      <stop offset="0" stop-color="#a00096"/>
      <stop offset="1" stop-color="#b419e3"/>
    </linearGradient>
    <linearGradient id="linear-gradient-2" x1="195.08" y1="108" x2="32.6" y2="389.44" xlink:href="#linear-gradient"/>
    <linearGradient id="linear-gradient-3" x1="367.16" y1="212.38" x2="224.78" y2="459" xlink:href="#linear-gradient"/>
    <linearGradient id="linear-gradient-4" x1="154.24" y1="290.66" x2="81.06" y2="417.42" xlink:href="#linear-gradient"/>
  </defs>
  <g>
    <path class="cls-4" d="m163.43,423.58c-.05-1-.1-1.65-.1-2.31,0-46.99,0-93.99.02-140.98,0-10,.04-19.99.07-29.99.03-8.84.09-17.67.09-26.51.02-41.93.02-83.87.02-125.8,0-6.58-.07-13.16-.11-19.75,0-1.62.1-1.76,1.77-1.77,7.68-.03,15.36-.05,23.04-.05,26.58-.01,53.15-.02,79.73-.03,44.74,0,89.48-.03,134.22,0,10,0,17.44,5.88,20.47,14.52.63,1.8.91,3.8.98,5.72.15,4.02.06,8.04.06,12.07-.02,67.72-.06,135.44-.07,203.15,0,29.38.02,58.76.05,88.14,0,3.36,0,6.7-1.29,9.89-3.01,7.42-8.46,11.9-16.28,13.45-1.36.27-2.79.19-4.19.2-34.13.02-68.27.02-102.4.03-44.62,0-89.23.01-133.85.02-.66,0-1.32,0-2.22,0Zm95.05-83.51c.94-.34,1.6-.65,2.29-.82,2.97-.75,5.79-1.89,8.47-3.35,7.34-4,12.76-9.66,15.35-17.78,1.35-4.23,1.72-8.56,1.62-12.98-.11-4.57-1.04-8.94-2.95-13.08-3.31-7.19-8.87-12.1-15.91-15.46-3.2-1.53-6.55-2.58-10.02-3.33-4.11-.89-8.25-1.62-12.46-1.64-14.69-.06-29.37-.03-44.06-.04-2.51,0-2.53.01-2.53,2.53,0,39.24.01,78.49.03,117.73,0,.65.07,1.31.11,2.12.9.07,1.67.18,2.44.18,5.06.02,10.12.02,15.17.02.91,0,1.83.03,2.74-.02,1.34-.07,1.56-.29,1.61-1.66.04-1.22.01-2.44.01-3.66,0-14.75,0-29.49,0-44.24,0-2.24.05-2.28,2.22-2.27,3.84,0,7.68.08,11.52,0,1.33-.02,2.1.42,2.73,1.59,4.48,8.31,9.01,16.58,13.54,24.86,4.38,8.01,8.8,16.01,13.16,24.04.5.92,1.11,1.36,2.14,1.35,7.74-.01,15.48,0,23.22-.01.49,0,.99-.19,1.81-.36-10.79-18.09-21.55-35.8-32.27-53.74Zm40.33-7.19h.03c0,19.44,0,38.88,0,58.32,0,.55.02,1.1.01,1.65,0,.92.47,1.32,1.36,1.32.43,0,.85.01,1.28.01,5.42,0,10.85,0,16.27,0q3.14,0,3.14-3.06c0-15.18,0-30.35,0-45.53,0-2.01.06-2.07,2.04-2.07,4.02,0,8.05.06,12.07,0,4.56-.07,9.12.05,13.68-.59,4.84-.67,9.61-1.58,14.17-3.31,6.31-2.39,11.91-5.86,15.99-11.4,2.9-3.93,4.95-8.24,5.63-13.11.28-1.98.43-3.99.56-5.99.27-4.33.01-8.61-1.14-12.84-2.38-8.74-7.67-15.07-15.67-19.21-7.53-3.9-15.71-5.29-24.03-5.43-14.44-.25-28.89-.08-43.33-.07-2.01,0-2.04.06-2.06,2.05,0,.18,0,.37,0,.55,0,19.56,0,39.13,0,58.69Z"/>
    <path class="cls-1" d="m141.05,250.13c0,14.14-.01,28.28,0,42.42.05,42.78.1,85.57.16,128.35,0,2.98.08,2.73-2.82,2.73-13.1-.01-26.21-.02-39.31,0-3.63,0-7.18-.28-10.5-1.93-6.26-3.13-10.37-7.98-11.74-14.93-.4-2.01-.57-4.1-.57-6.16,0-100.13.03-200.27.03-300.4,0-3.13.24-6.19,1.22-9.17,2.2-6.7,6.68-11.2,13.32-13.53,2.49-.88,5.11-1.12,7.73-1.12,13.53-.02,27.06-.03,40.59-.03,1.77,0,1.86.12,1.85,2.27-.01,16.39-.04,32.79-.04,49.18,0,40.77,0,81.55,0,122.32h.06Z"/>
    <path class="cls-2" d="m258.48,340.07c10.72,17.94,21.48,35.65,32.27,53.74-.82.17-1.32.36-1.81.36-7.74.01-15.48,0-23.22.01-1.04,0-1.64-.43-2.14-1.35-4.36-8.03-8.77-16.02-13.16-24.04-4.53-8.28-9.06-16.55-13.54-24.86-.63-1.17-1.4-1.62-2.73-1.59-3.84.07-7.68,0-11.52,0-2.17,0-2.22.04-2.22,2.27,0,14.75,0,29.49,0,44.24,0,1.22.03,2.44-.01,3.66-.05,1.37-.27,1.59-1.61,1.66-.91.04-1.83.02-2.74.02-5.06,0-10.12,0-15.17-.02-.77,0-1.54-.11-2.44-.18-.04-.82-.11-1.47-.11-2.12-.01-39.24-.02-78.49-.03-117.73,0-2.52.02-2.53,2.53-2.53,14.69,0,29.37-.02,44.06.04,4.21.02,8.35.75,12.46,1.64,3.47.75,6.83,1.8,10.02,3.33,7.04,3.36,12.6,8.27,15.91,15.46,1.9,4.14,2.84,8.51,2.95,13.08.1,4.42-.27,8.74-1.62,12.98-2.59,8.12-8.01,13.78-15.35,17.78-2.68,1.46-5.5,2.6-8.47,3.35-.69.17-1.35.48-2.29.82Zm-38.04-33.08h-.05c0,4.87,0,9.74,0,14.61,0,.49.02.97.04,1.46.03.65.4,1,1.04,1.03.55.02,1.1.03,1.64.03,5.97-.02,11.94,0,17.9-.07,4.03-.05,8.01-.56,11.82-1.94,5.2-1.88,9.19-5.11,10.55-10.7.51-2.09.46-4.34.43-6.52-.05-4.13-2.1-7.27-5.24-9.78-4.36-3.49-9.58-4.45-14.9-4.65-7.05-.26-14.12-.12-21.19-.13-2,0-2.06.06-2.06,2.04,0,4.87,0,9.74,0,14.61Z"/>
    <path class="cls-2" d="m298.82,332.88c0-19.56,0-39.13,0-58.69,0-.18,0-.37,0-.55.02-1.99.05-2.05,2.06-2.05,14.44,0,28.89-.18,43.33.07,8.31.15,16.49,1.54,24.03,5.43,8,4.14,13.28,10.47,15.67,19.21,1.15,4.23,1.42,8.51,1.14,12.84-.13,2-.28,4-.56,5.99-.68,4.87-2.73,9.18-5.63,13.11-4.09,5.54-9.68,9.01-15.99,11.4-4.56,1.72-9.33,2.63-14.17,3.31-4.56.63-9.12.51-13.68.59-4.02.07-8.04,0-12.07,0-1.98,0-2.04.06-2.04,2.07,0,15.18,0,30.35,0,45.53q0,3.06-3.14,3.06c-5.42,0-10.85,0-16.27,0-.43,0-.85-.02-1.28-.01-.89,0-1.37-.4-1.36-1.32,0-.55-.01-1.1-.01-1.65,0-19.44,0-38.88,0-58.32h-.03Zm22.19-42.38v34.05c.53.09.93.24,1.34.23,7.54-.21,15.1.44,22.63-.6,3.17-.44,6.24-1.11,9.08-2.55,5.16-2.6,8.35-6.61,8.52-12.6.05-1.58.06-3.17-.07-4.75-.27-3.44-1.81-6.29-4.37-8.57-2.96-2.63-6.55-4.02-10.38-4.6-3.18-.48-6.42-.63-9.64-.71-5.12-.12-10.24-.05-15.35-.05-.53,0-1.06.08-1.77.14Z"/>
    <path class="cls-8" d="m220.44,306.99c0-4.87,0-9.74,0-14.61,0-1.98.06-2.05,2.06-2.04,7.06.01,14.13-.13,21.19.13,5.31.2,10.54,1.15,14.9,4.65,3.14,2.52,5.19,5.65,5.24,9.78.03,2.18.08,4.43-.43,6.52-1.36,5.59-5.35,8.82-10.55,10.7-3.81,1.38-7.79,1.89-11.82,1.94-5.97.07-11.93.05-17.9.07-.55,0-1.1,0-1.64-.03-.65-.03-1.01-.37-1.04-1.03-.03-.49-.04-.97-.04-1.46,0-4.87,0-9.74,0-14.61h.05Z"/>
    <path class="cls-8" d="m321.01,290.5c.71-.06,1.24-.14,1.77-.14,5.12,0,10.24-.06,15.35.05,3.22.07,6.46.23,9.64.71,3.83.57,7.42,1.97,10.38,4.6,2.56,2.27,4.1,5.12,4.37,8.57.12,1.57.11,3.17.07,4.75-.18,5.99-3.37,10-8.52,12.6-2.84,1.44-5.92,2.11-9.08,2.55-7.53,1.04-15.09.39-22.63.6-.4.01-.81-.13-1.34-.23v-34.05Z"/>
  </g>
  <path class="cls-3" d="m326.26,188.76l-162.88,82.92c0,2.87-.02,5.74-.02,8.61-.01,46.99-.02,93.99-.02,140.98,0,.66.06,1.31.1,2.31h2.22c44.62,0,89.23-.01,133.85-.02,34.13,0,68.27-.01,102.4-.03,1.4,0,2.84.07,4.19-.2,7.82-1.55,13.27-6.03,16.28-13.45,1.29-3.19,1.29-6.53,1.29-9.89-.03-29.38-.06-58.76-.05-88.14,0-20.06.01-40.12.02-60.19l-97.38-62.92Zm-37.32,205.41c-7.74.01-15.48,0-23.22.01-1.04,0-1.64-.43-2.14-1.35-4.36-8.03-8.77-16.02-13.16-24.04-4.53-8.28-9.06-16.55-13.54-24.86-.63-1.17-1.4-1.62-2.73-1.59-3.84.07-7.68,0-11.52,0-2.17,0-2.22.04-2.22,2.27,0,14.75,0,29.49,0,44.24,0,1.22.03,2.44-.01,3.66-.05,1.37-.27,1.59-1.61,1.66-.91.04-1.83.02-2.74.01-5.06,0-10.12,0-15.17-.02-.77,0-1.54-.11-2.44-.18-.04-.82-.11-1.47-.11-2.12-.01-39.24-.02-78.49-.03-117.73,0-2.52.02-2.53,2.53-2.53,14.69,0,29.37-.02,44.06.04,4.21.02,8.35.75,12.46,1.64,3.47.75,6.83,1.8,10.02,3.33,7.04,3.36,12.6,8.27,15.91,15.46,1.9,4.14,2.84,8.51,2.95,13.08.1,4.42-.27,8.74-1.62,12.98-2.59,8.12-8.01,13.78-15.35,17.78-2.68,1.46-5.5,2.6-8.47,3.35-.69.17-1.35.48-2.29.82,10.72,17.94,21.48,35.65,32.27,53.74-.82.17-1.32.36-1.81.36Zm96.1-85.03c-.13,2-.28,4-.56,5.99-.68,4.87-2.73,9.18-5.63,13.11-4.09,5.54-9.68,9.01-15.99,11.4-4.56,1.72-9.33,2.63-14.17,3.31-4.56.64-9.12.51-13.68.59-4.02.07-8.04,0-12.07,0-1.98,0-2.04.06-2.04,2.07,0,15.18,0,30.35,0,45.53q0,3.06-3.14,3.06c-5.42,0-10.85,0-16.27-.01-.43,0-.85-.02-1.28-.01-.89,0-1.37-.4-1.36-1.32,0-.55-.01-1.1-.01-1.65,0-19.44,0-38.88,0-58.32h-.03v-58.69c0-.18,0-.37,0-.55.02-1.99.05-2.05,2.06-2.05,14.44,0,28.89-.18,43.33.07,8.31.15,16.49,1.54,24.03,5.43,8,4.14,13.28,10.47,15.67,19.21,1.15,4.23,1.42,8.51,1.14,12.84Z"/>
  <path class="cls-5" d="m76.29,400.62c0,2.06.17,4.15.57,6.16,1.36,6.94,5.47,11.8,11.74,14.93,3.31,1.65,6.87,1.94,10.5,1.93,13.1-.03,26.21-.02,39.31,0,2.9,0,2.82.25,2.82-2.73-.06-42.78-.11-85.57-.16-128.35,0-3.17,0-6.34,0-9.51l-64.76,32.97c0,28.2,0,56.4,0,84.6Z"/>
  <path class="cls-2" d="m260.77,339.25c2.97-.75,5.79-1.89,8.47-3.35,7.34-4,12.76-9.66,15.35-17.78,1.35-4.23,1.72-8.56,1.62-12.98-.11-4.57-1.04-8.94-2.95-13.08-3.31-7.19-8.87-12.1-15.91-15.46-3.2-1.53-6.55-2.58-10.02-3.33-4.11-.89-8.25-1.62-12.46-1.64-14.69-.06-29.37-.03-44.06-.04-2.51,0-2.53.01-2.53,2.53,0,39.24.01,78.49.03,117.73,0,.65.07,1.31.11,2.12.9.07,1.67.18,2.44.18,5.06.02,10.12.02,15.17.02.91,0,1.83.03,2.74-.01,1.34-.07,1.56-.29,1.61-1.66.04-1.22.01-2.44.01-3.66,0-14.75,0-29.49,0-44.24,0-2.24.05-2.28,2.22-2.27,3.84,0,7.68.08,11.52,0,1.33-.02,2.1.42,2.73,1.59,4.48,8.31,9.01,16.58,13.54,24.86,4.38,8.01,8.8,16.01,13.16,24.04.5.92,1.1,1.36,2.14,1.35,7.74-.01,15.48,0,23.22-.01.49,0,.99-.19,1.81-.36-10.79-18.09-21.55-35.8-32.27-53.74.94-.34,1.6-.65,2.29-.82Zm-19.75-15.2c-5.97.07-11.94.05-17.9.07-.55,0-1.1,0-1.64-.03-.65-.03-1.01-.38-1.04-1.03-.03-.49-.04-.97-.04-1.46,0-4.87,0-9.74,0-14.61h.05c0-4.87,0-9.74,0-14.61,0-1.98.06-2.05,2.06-2.04,7.06.01,14.13-.13,21.19.13,5.31.2,10.54,1.15,14.9,4.65,3.14,2.52,5.19,5.65,5.24,9.78.03,2.18.08,4.43-.43,6.52-1.36,5.59-5.35,8.82-10.55,10.7-3.81,1.38-7.79,1.89-11.82,1.94Z"/>
  <path class="cls-2" d="m368.23,277.09c-7.53-3.9-15.71-5.29-24.03-5.43-14.44-.25-28.89-.08-43.33-.07-2.01,0-2.04.06-2.06,2.05,0,.18,0,.37,0,.55v58.69h.03c0,19.44,0,38.88,0,58.32,0,.55.02,1.1.01,1.65,0,.92.47,1.32,1.36,1.32.43,0,.85.01,1.28.01,5.42,0,10.85,0,16.27.01q3.14,0,3.14-3.06c0-15.18,0-30.35,0-45.53,0-2.01.06-2.07,2.04-2.07,4.02,0,8.05.06,12.07,0,4.56-.07,9.12.05,13.68-.59,4.84-.67,9.61-1.58,14.17-3.31,6.31-2.39,11.91-5.86,15.99-11.4,2.9-3.93,4.95-8.24,5.63-13.11.28-1.98.43-3.99.56-5.99.27-4.33.01-8.61-1.14-12.84-2.38-8.74-7.67-15.07-15.67-19.21Zm-5.65,31.93c-.18,5.99-3.37,10-8.52,12.6-2.84,1.44-5.92,2.11-9.08,2.55-7.53,1.04-15.09.39-22.63.6-.4.01-.81-.13-1.34-.23v-34.05c.71-.06,1.24-.14,1.77-.14,5.12,0,10.24-.06,15.35.05,3.22.07,6.46.23,9.64.71,3.83.57,7.42,1.97,10.38,4.6,2.56,2.27,4.1,5.12,4.37,8.57.12,1.57.11,3.17.07,4.75Z"/>
  <path class="cls-7" d="m163.46,83.57c.03,4.81.07,9.61.07,14.42,0,41.93,0,83.87-.02,125.8,0,8.84-.07,17.67-.09,26.51-.02,7.13-.03,14.25-.05,21.38l162.88-82.92-162.8-105.19Z"/>
  <path class="cls-7" d="m140.99,250.13c0-40.77,0-81.55,0-122.32,0-16.39.03-32.79.04-49.18,0-2.15-.08-2.27-1.85-2.27-13.53,0-27.06,0-40.59.03-2.63,0-5.24.24-7.73,1.12-6.63,2.34-11.11,6.83-13.32,13.53-.98,2.97-1.22,6.04-1.22,9.17,0,71.93-.01,143.87-.02,215.8l64.76-32.97c0-10.97,0-21.94,0-32.91h-.06Z"/>
  <path class="cls-7" d="m326.26,188.76l97.38,62.92c.01-37.5.02-75.01.04-112.51l-97.42,49.59Z"/>
  <path class="cls-6" d="m423.69,108.71c0-4.02.09-8.05-.06-12.07-.07-1.92-.34-3.92-.98-5.72-3.04-8.64-10.47-14.51-20.47-14.52-44.74-.03-89.48-.01-134.22,0-26.58,0-53.15.01-79.73.03-7.68,0-15.36.02-23.04.05-1.68,0-1.78.15-1.77,1.77,0,1.78.02,3.55.04,5.33l162.8,105.19,97.42-49.59c0-10.15,0-20.3.01-30.46Z"/>
</svg>