<?xml version="1.0" encoding="UTF-8"?><svg id="Layer_1" xmlns="http://www.w3.org/2000/svg" viewBox="0 0 500 500"><defs><style>.cls-1{fill:#017aca;}.cls-2{fill:#ff9800;}</style></defs><g><path class="cls-1" d="m81.43,297.01c-.84,0-1.45-.15-1.84-.44-.39-.29-.68-.76-.87-1.4l-17.13-56.34-17.13,56.34c-.19.65-.48,1.11-.87,1.4s-1,.44-1.84.44h-8.03c-1.49,0-2.42-.61-2.81-1.84l-20.23-63.99c-.39-1.29.06-1.94,1.36-1.94h5.23c1.42,0,2.32.61,2.71,1.84l18.01,58.47,17.81-58.47c.19-.64.48-1.11.87-1.4.39-.29,1-.44,1.84-.44h6.58c1.48,0,2.42.61,2.81,1.84l17.71,58.66,18.1-58.66c.39-1.23,1.32-1.84,2.81-1.84h4.74c1.29,0,1.74.65,1.36,1.94l-20.23,63.99c-.39,1.23-1.32,1.84-2.81,1.84h-8.13Z"/><path class="cls-1" d="m182.39,229.25c1.36,0,2.03.65,2.03,1.94v3.78c0,1.29-.68,1.94-2.03,1.94h-51.11v22.07h43.46c1.36,0,2.03.65,2.03,1.94v3.78c0,1.29-.68,1.94-2.03,1.94h-43.46v22.75h51.11c1.36,0,2.03.65,2.03,1.94v3.78c0,1.29-.68,1.94-2.03,1.94h-57.98c-1.36,0-2.03-.64-2.03-1.94v-63.89c0-1.29.68-1.94,2.03-1.94h57.98Z"/><path class="cls-1" d="m262.54,249.09c0,7.42-2.68,11.97-8.03,13.65,3.16.77,5.45,2.27,6.87,4.5,1.42,2.23,2.13,5.34,2.13,9.34v5.91c0,9.68-5.03,14.52-15.1,14.52h-48.11c-1.36,0-2.03-.64-2.03-1.94v-63.89c0-1.29.68-1.94,2.03-1.94h47.05c10.13,0,15.2,4.84,15.2,14.52v5.32Zm-55.37,9.87h36.2c2.13,0,3.86-.13,5.18-.39,1.32-.26,2.36-.71,3.1-1.36.74-.64,1.24-1.53,1.5-2.66.26-1.13.39-2.57.39-4.31v-4.65c0-1.74-.13-3.18-.39-4.31-.26-1.13-.76-2.02-1.5-2.66-.74-.64-1.78-1.1-3.1-1.36-1.32-.26-3.05-.39-5.18-.39h-36.2v22.07Zm0,7.65v22.75h37.27c2.13,0,3.86-.13,5.18-.39,1.32-.26,2.36-.71,3.1-1.36.74-.64,1.24-1.53,1.5-2.66.26-1.13.39-2.57.39-4.31v-5.32c0-1.74-.13-3.18-.39-4.31-.26-1.13-.76-2.02-1.5-2.66-.74-.64-1.78-1.1-3.1-1.36-1.32-.26-3.05-.39-5.18-.39h-37.27Z"/></g><g><path class="cls-1" d="m398.94,229.25c10.13,0,15.2,4.84,15.2,14.52v14.13c0,9.68-5.07,14.52-15.2,14.52h-40.17v22.65c0,1.29-.68,1.94-2.03,1.94h-4.84c-1.36,0-2.03-.64-2.03-1.94v-63.89c0-1.29.68-1.94,2.03-1.94h47.05Zm-40.17,35.53h35.91c2.19,0,3.97-.13,5.32-.39,1.36-.26,2.42-.73,3.19-1.4.77-.68,1.29-1.6,1.55-2.76.26-1.16.39-2.65.39-4.45v-9.87c0-1.81-.13-3.29-.39-4.45-.26-1.16-.77-2.08-1.55-2.76-.77-.68-1.84-1.15-3.19-1.4-1.36-.26-3.13-.39-5.32-.39h-35.91v27.88Z"/><path class="cls-1" d="m449.27,271.07l-30.78-39.88c-.39-.52-.5-.97-.34-1.36.16-.39.53-.58,1.11-.58h6.29c.84,0,1.48.08,1.94.24.45.16.87.5,1.26,1.02l25.17,33.98,25.27-33.98c.39-.52.82-.85,1.31-1.02.48-.16,1.15-.24,1.98-.24h5.91c.52,0,.85.19,1.02.58.16.39.05.84-.34,1.36l-30.78,39.79v24.1c0,1.29-.68,1.94-2.03,1.94h-4.94c-1.36,0-2.03-.64-2.03-1.94v-24.01Z"/></g><path class="cls-2" d="m292.48,278.92h50.59v16.65h-74.43v-10.85c0-39.95,54.24-34.48,54.24-53.27,0-6.12-4.08-11.17-15.14-11.17-9.99,0-17.4,3.76-17.29,13h-20.94c0-19.44,12.78-30.29,37.16-30.29s37.05,10.42,37.05,27.49c0,32.54-46.93,24.49-51.23,48.44Z"/></svg>