<?xml version="1.0" encoding="UTF-8"?><svg id="Layer_1" xmlns="http://www.w3.org/2000/svg" viewBox="0 0 500 500"><defs><style>.cls-1{fill:#00598d;}</style></defs><path class="cls-1" d="m401.46,379.6c-9.76,11.49-17.98-1.24-29.83,2.33-20.18,1.02,1.53-9.04,1.02-18.28-10.68-8.21-22.77,11.27-29.62,16.51-16.89-3.05-33.59-7.89-49.09-15.19-17.67-9.2-35-20.13-47.79-35.65-13.37-15.85-28.18-31.87-34.28-52.22-12.91-33.61-12.07-69.97-15.37-105.26,1.22-23.89,26.46,2.57,37.36-6.06-3.74-12.38-23.65-16.29-34.65-21.26-10.59-.73-14.47-10.23-25.77-11.01.53-13.25-20.75-5.96-28.51-15.41,7.64-19.68-25.24.49-22.69-16.55,10.7-22.16-32.67-18.41-14.6,1.1,17.37,9.81-17.14,17.02-7.07,23.6,3.21,6.91-.24,14.59-9.63,15.84-13.75,1.19-12.46,19.96.95,10.13,14.96-4.76,2.57,1.89-4.48,3.25-15.83,4.59-26.6,20.38-17.42,34.84,8.8,19.9,11.13,42.09,17.95,62.79,11.28,31.83,27.78,62.12,49.21,88.28,10.18,14.84,25.08,25.37,39.05,36.35h0c13.76,8.92,29.04,17.84,44.7,22.39,27.79,10.17,57.63,11.15,86.85,13.45,17.81-.03,35.68-1.29,53.24-4.44,15.82,1.7,27.2-11.81,41.48-4.67,8.66-7.68,21.28-4.31,29.94-9.89,6.4-21.77-21.99-4.32-30.98-14.97Zm-31.86-13.59c-4.11.54.91-6.25,0,0h0Zm-140.12-201.26c-1.82.52-1.52-2.23-2.88-2.68-14.76-7.53,7.15-4.89,2.88,2.68Zm124.16,209.18c-6.41-1.43,5.05-4.63,0,0h0Zm-51.67,1.99c-4.13-.32,3.31-2.44,0,0h0Zm-34.42-21.69c-2.41.46-.62-2.37,0,0h0Zm-4.17-3.04c-6.55-.09-1.66-4.24,0,0h0Zm-7.65-6.72c-6.04,1.53-.11-6.13,0,0h0Zm-109.43-214.07c-9.78-5.1,1.97,6.15-6.24,5.94-4.43.07-12.65-9.47-9.94-14.27,4.79,2.1,14.57,3.08,16.18,8.33Zm-16.88-14.78h0l-2.67-.14c-.7-5.56,15.91-1.61,2.67.14Zm-19.53-15.27c-7.57-3.55.08-17.04,8.06-10.7,9.47,12.74-17.38-1.47-8.06,10.7Zm9.07,12.77c-4.98,1.96,2.84-3.85,0,0h0Zm8.71,16.9c11.07,8.42-6.18-.03-13.2,5.27-11.04,1.12,12.11-6.22,13.2-5.27Zm3.3,10.9c6.37.13,34.4-12.57,25.06-1.34,7.88,9.39,2.94,7.28-2.45,1.27,2.65,5.12-1.24,15.84-8.18,6.59-4.94-9.22-8.27-4.78-4.86,1.3.63.7,1.19,1.5,1.67,2.41-.68-.81-1.23-1.63-1.67-2.41-6.91-7.75-21.99-3.48-33.27.35h0s0,0,0,0c0,0,0,0,0,0-7.93-.88,20.65-6.79,23.71-8.17Zm-51.56,51.29s0,0,0,0h-.93c-12.5-16.1,1.4-22.66,17.22-24.72-3.01,7.42,4.32,9.84,11.35,11.17,11.39-3.16-7.5-5.17,1.11-8.16,4.73-.87-15.1-4.76,1.42-6.98,16.94-2.85,32.19-9.48,48.97-12.96,15.15-3.02,29.5-4.73,43.2-3.57,5.51,6.42-4.17,17.24-14.22,17.96-12.23,4.57-24.63,5.71-35.97,7.21-14.56-1.84-25.01,11.24-40.09,12.9,4.02-7.43-3.3-2.53-10.95-2.9,3.89,15.01-26.91-4-8.71-7.61-13.63-4.84-13.83,9.5-12.4,17.66h0s0,0,0,0Zm50.78-4.8c-4.14-.99,2.99-3.71,0,0h0Zm-13.27,16.13c-.15.47-6.29-1.47-3.75-3.16,18.98,2.4-16.37-5.98,2.41-4.04,12.12-.4,8.24,6.73,1.34,7.19Zm6.07,3.07c-2.14,2.35-.72-4.42,0,0h0Zm-13,.76c-8.13-1.61,3.74-3.97,0,0h0Zm-1.07,25.54c-1.42,1.86-1.83-1.48,0,0h0Zm-6.32-3.11c-10.13-3.42.14-3.8,0,0h0Zm-2.16,23.58c-4.81-1.68-4.58-9.22-6.82-13.2-6.21-18.99,8.23,7.34,6.82,13.2Zm4.27-27.48c-12.82-1.34-1.08-8.94,0,0h0Zm-.67-6.15l-1.61-.58c-12.75-5.83,9.5-2.51,1.61.58Zm-1.94-14.57c-11.32-5.67,10.66-6.53,0,0h0Zm3.85,4.8c-6.26,1.15.84-5.79,0,0h0Zm-23.93,1.19c-2.21,1.55-.32-4.12,0,0h0Zm3.38-2.55c-2.9.62-.55-4.89,0,0h0Zm1.36-17.73c-7.21-1.78,6.09-4.68,0,0h0Zm4.78,36.12c-8.02-1.79-2.11-11.83,0,0h0Zm5.2,23.63c7.76,9.37,4.71,14.52,12.75,25.99,0,0,0,0,0,0h0s0,0,0,0c-10.34-6.53-12.29-22.12-18.86-32.19-7.18-17.21,4.64-.96,6.12,6.2Zm75.06,117.23h0c-6.24-1.33-10.5-7.82-14.92-12.07-13.11-8.32-21.61-22.27-28.81-35.61-9.27-14-20.41-28.04-26.74-44.41-7.44-17.01,4.67,1.27,6.4,7.64,3.9,12.43,16.14,19.58,17.38,27.82,13.57,7.83,6.61,20.57,18.01,24.17,5.06-2.57,5.57,15.38,16.34,11.64-5.99,2.8,2.5,6.1,5.51,11.32,6.78-.92,21.67,14.99,6.85,9.5Zm-57.12-118.63c-5.63-1.35,6.08-2.05,0,0h0Zm3.74,8.72c-10.15-2.61,9.47-3.66,0,0h0Zm25.47,8.55c7.3-3.09,3.01,14.4,10.16,16.52,13.97,18.23-9.71.54-17.61-1.23h0c1.01-.06-6.99-2.27-3.54-3.05-2.53-2.6-8.19-12.04,4.73-5.72,10.29,5.15,11.16,1.68,6.26-6.51Zm24.08,32.3c.65,2.78-13.22,2.37-1.1,7.79-7.08-.2-9.2-.75.89,5.43-3.96,3.19,7.99,5.73,3.89,10.5,12.17,9.5-2.21,2.4-7.4-1.48h0c-3.07-2.12-15.58-6.37-13.64-9.17,14.76,7.76,3.76-.3-2.74-5.45,11.9,2.91-9.55-8.82,1.8-5.72,3.35.82-5.1-6.94,6-1.29-10.91-8.84,7.64-1.52,12.31-.6Zm-1.45-4.7c-4.07-3.4-.2-.49,0,0h0Zm10.01,2.34c-11.07-2.52,0-6.2,0,0h0Zm-3.02,36.17c-11.29-4.76,7.05-.75,0,0h0Zm-8.29-3.11c-12.96-4.17,9.46-.57,0,0h0Zm-1.56,1.93c-4.07.25-.65-3.07,0,0h0Zm-19.71-27.75c-13.2-5.55-3.7-6.13,0,0h0Zm-9.96-6.53c-10.71-5.98-1.53-6.01,0,0h0Zm-.25,12c-10.29-8.16-1.18-4.54,0,0h0Zm-2.7-24.68c-6.43-.48,2.48-3.7,0,0h0Zm46.12,64.28c-9.43-2.82-.59-2.55,0,0h0Zm-7.16-7.78l-3.01-.65c-12.45-9.88,5.81-6.92,13.92-2.6,17.82,3.96-3.78,8.72-10.9,3.26Zm49.52,30.22c-12.44-2.89,2.97-5.05,0,0h0Zm-3.13-9.58c-.82.43-1.73-1.98,0,0h0Zm-15.76-23.75c-10.86-2.5,3.95-3.48,6.72.61,18.7,3-1.18,4.31-6.72-.61Zm3.84,21.38l-2-.78-2.3-1.04c-10.34-9.2,21.7,6.74,4.3,1.82Zm-5.14,12.63c-2.69,1.14-.22-2.54,0,0h0Zm5.29-21.85l-2.78-.92c-12.27-7.69,15.43,2.55,2.78.92Zm3.03,31.57c-7.39-2.88,4.79-4.57,0,0h0Zm1.84-13.52c-10.64-2.48,6.57-2.47,0,0h0Zm2.34-11.16c-8.07-1.18.93-3.9,0,0h0Zm-13.24-16.24c8.53,1.16,8.57,5.05-.86,2.62-1.68-1.03-4.38-.97-5.24-3.15-12.96-8.26,1.52-3.74,6.1.52Zm-1.01,36.71c-3.67,2.27-.83-4.05,0,0h0Zm-5.81-9.28c-9.62-.07,7.44-4.82,0,0h0Zm-2.23,6.35c-4.72-1.85,3.28-1.47,0,0h0Zm2.25-25.79c-5.15-.12-1-2.92,0,0h0Zm2.92,10.34c-9.49-2.46,4.58-3.19,0,0h0Zm-12.73-27.76c-10.58-8.5,21.56,6.94,0,0h0Zm-1.21,3.48c.25,1.08-1.95-1.7,0,0h0Zm67.11,69.4c-16.76-2.11-31.71-9.08-47-15.68h0c-2.22-1.06-4.31-2.36-6.43-3.6-10.51-5.82-9.21-7.02,1.01-1.28,3.62,2.88,29.23,13.35,17.03,6.43-5.27-1.32-34.89-17.59-15.36-10.47,15.62,9.65,33.62,14.76,50.29,22.18,14.67,1.92,30.16,5.82,44.58,2.72,12.03,6.01,24.52-1.55,36.59,3.9-26.68,5.19-54.13-.51-80.72-4.2Zm-22.98-12.92c-9.32-1.62,2.91-4.3,0,0h0Zm13.43-18.3c-10.7-2.12,10.98-4.35,0,0h0Zm15.78,24.1c18.39,6.82-10.98,2.26-17.05-1.57-17.05-7.2,13.97,2.22,17.05,1.57Zm-19.48-20.33c-14.9-2.27,16.49.16,0,0h0Zm27.89,15.64c-5.38,4.13.44-5.54,0,0h0Zm5.3.86c-2.8,1.14-.16-3.03,0,0h0Zm4.94-6.94c-2.94,3.65.28-4.28,0,0h0Zm5.78-.25c-8.25,3.18,8.52-7.15,0,0h0Zm2.56.61c8.99-7.71,9.32-3.96,9.24,2.38-8.04,8.86-3.27-3.63-8.24,1.18h0c-4.58,3.65-3.48-2.18-.99-3.56Zm15.19,8.34c-9.13.59,9.43-9.99,0,0h0Zm-.03,3.21c-3.67,1,.05-2.29,0,0h0Zm-2.93-6.39c-7.12-4.88,17.36-11.21,0,0h0Zm10.48,1.65l-1.53.5c-.41-5.09,9.94-5.92,1.53-.5Zm2.76,3.54c-5.5-1.56,8.69-7.46,0,0h0Zm6.6-1.87c-9.27,3.26,8.79-7.35,0,0h0Zm4.13,2l-2.26,1.48c-4.27-2.97,13.04-9.26,2.26-1.48Zm-7.95-9.69c-9.94-3.42-25.68-13.93-36.34-6.8-14.73,9.24,7.55-10.29-4.4-1.56-12.12,14.54-8.23-9.05-20.04-2,0,0,0,0,0,0h0s0,0,0,0c-.69-2.26-10.5-2.87-3.07-6.84-6.66-.41-2.51-.83-.09-6.16-2.86-.59-18.76-.04-25.01-5.26-7.35-9.56,1.28-5.68,8.97-4.28-12.31,2.16,4.26,9.23,12.5,5.3-3.71-1.59-7.94-9.59-17.73-16.58-13.69-8.25-24.96-12.18-39.15-18.76-15.37-9.12,3.45-3.2,8.76,1.59,15.33,6.76,9.3-9.48.41-13.71-8.43.34-11.45-7.95-17.13-9.8-.94-.07-1.92-.18-2.92-.34,1.06-.09,2.02.05,2.92.34,10.64.75,16.85-4.54,4.24-15.92-13.04-15.22,5.43,11.45-2.17,8.02-3.46-4.55-.87-11.07-11.89-13.43-.11,4.22-1.48,10.72-3.89,1.87-3.07.52-6.6,3.88-9.11-5.23,2.38-10.35-10.26-12.71-12.21-19.34,10.9,6.97,15.84,1.46,8.11-6.14-5.32-9.29-6.06-1.99-9.02-.69-10.7,10.92-.97-18.86-5.72-10.27-4.8-.13-2.05,5.28-1.97,11.97-15.64-3.88,3.78,8.22,8.31,14.88-7.15-7.48-5.92,5.61-11.89-.61-2.02-5.5-2.32-14.19-12.24-15.73,11.29-3.92-6.7-11.85-5.2-12.27,6.47-5.87,7.29-13.94,15.07-1.3-9.86-.79-.3,16.26,2.13,11.17-.37-8.74,4.04-17.93-10.87-21.97-4.38,5.9-11.94-11.54-3.18-7.85-1.15-11.6,13.61-4.77,12.67-9.78,7.61-3.33-9.21-14.11-.18-18.42,6.94,4.23,24.96-6.66,12.84-8.16,7.59-.07,13.66,3.24,14.45-4.44,6.14,1.32,22.71,6.62,7.65-1.68,4.8-2.39,14.96-4.43,20.82-4.52,14.48-11.26,11.49,18.27,8.16,26.53,5.5-3.76,4.46,17.4,2.67,25.3,2.99-4,4.22,6.41.94,13.85.72-1.15,7.04-1.8,2.08,6.7-3.93-8.65-5.61,17.59-3.09,5.82,6.93-11.14,5.12-.6,7.23,4.32,1.36,10.21,5.9,19.63,7.27,28.67,6.4,6.45-2.74,2.08-2.71,10.8,2.08-2.53,10.59,3.57,10.53,12.63.7-14.35,1.53-3.37,8.53.36,5.86,9.43,10.21,18.25,18.93,26.01,6.8,7.87-.4,2.38,2.55,7.18,7.23,12.82,23.97,20.22,38.45,23.57,6.35,8.27,15.89,16.51,28.79,12.75-10.93,6.74,30.77,8.57,16.67,12.37-7.33,3.97-14.29-2.56-21.43-2.21Zm-119.72-65.94c-4.45.31-.29-3.67,0,0h0Zm7.05,4.06c-3.45.71-2.25-4.53,0,0h0Zm-47.96-67.07c-4.44-1.27,1.88-1.72,0,0h0Zm-10.78.78c-4.84-.23.14-6.21,0,0h0Zm-5.61-1.42c-1.86.77-.1-2.01,0,0h0Zm201.94,151.32c-7.16-1.27,5.9-3.94,0,0h0Zm13.38-19.29h0s0,0,0,0c0,0,0,0,0,0l-3.35-.2-2.08-.33c1.11-8.24,24.46-1.77,33.96-1.53-2.88,6.05-20.7.49-28.52,2.07Zm36.14-.28c-5.1.79,2.02-5.98,0,0h0Zm17.8-1.7c-4.66,2.44.18-5.43,0,0h0Zm8.8,2.11c-9.67-2.28,4.37-2.19,7.28-2.64,18.53-.01,1.24,2.67-7.28,2.64Z"/></svg>