<?xml version="1.0" encoding="UTF-8"?><svg id="Layer_1" xmlns="http://www.w3.org/2000/svg" xmlns:xlink="http://www.w3.org/1999/xlink" viewBox="0 0 500 500"><defs><style>.cls-1{fill:#00749a;}.cls-2{clip-path:url(#clippath);}.cls-3{fill:none;}</style><clipPath id="clippath"><rect class="cls-3" x="63.99" y="67.64" width="373.91" height="373.91"/></clipPath></defs><g class="cls-2"><g><path class="cls-1" d="m1019.78,214.82h-64.87v6.88c20.29,0,23.55,4.35,23.55,30.08v46.39c0,25.73-3.26,30.44-23.55,30.44-15.58-2.18-26.09-10.51-40.59-26.46l-16.67-18.12c22.46-3.99,34.42-18.12,34.42-34.07,0-19.93-17.03-35.15-48.92-35.15h-63.78v6.88c20.29,0,23.55,4.35,23.55,30.08v46.39c0,25.73-3.26,30.44-23.55,30.44v6.88h72.12v-6.88c-20.29,0-23.55-4.72-23.55-30.44v-13.04h6.16l40.23,50.37h105.46c51.82,0,74.3-27.54,74.3-60.52,0-32.98-22.47-60.16-74.3-60.16h0Zm-151.85,59.07v-48.19h14.86c16.31,0,23.56,11.23,23.56,24.28s-7.25,23.92-23.56,23.92h-14.86Zm152.93,50.38h-2.54c-13.04,0-14.86-3.26-14.86-19.93v-78.64h17.4c37.69,0,44.57,27.54,44.57,48.92,0,22.1-6.88,49.65-44.57,49.65Zm-403.35-36.96l25-73.94c7.25-21.38,3.99-27.54-19.2-27.54v-7.25h68.13v7.25c-22.83,0-28.27,5.43-37.32,31.89l-41.32,123.95h-4.71l-36.97-113.44-37.69,113.44h-4.72l-40.23-123.94c-8.7-26.46-14.5-31.89-35.52-31.89v-7.25h80.45v7.25c-21.39,0-27.19,5.07-19.57,27.54l24.28,73.94,36.6-108.73h6.89l35.88,108.72h0Zm123.21,52.91c-39.86,0-72.48-29.35-72.48-65.24s32.62-64.87,72.48-64.87,72.48,29.36,72.48,64.87-32.61,65.24-72.48,65.24Zm0-118.86c-33.34,0-44.94,30.07-44.94,53.63s11.6,53.64,44.94,53.64,45.3-29.72,45.3-53.64-11.6-53.63-45.3-53.63h0Z"/><g><path class="cls-1" d="m90.56,254.59c0,63.49,36.89,118.35,90.39,144.35l-76.51-209.62c-9.17,20.54-13.9,42.78-13.89,65.27h0Zm268.66-8.09c0-19.82-7.12-33.55-13.23-44.23-8.13-13.21-15.75-24.4-15.75-37.61,0-14.74,11.18-28.47,26.93-28.47.71,0,1.39.09,2.08.13-28.54-26.14-66.55-42.1-108.31-42.1-56.03,0-105.33,28.75-134,72.29,3.76.11,7.31.19,10.32.19,16.78,0,42.74-2.04,42.74-2.04,8.65-.51,9.67,12.19,1.03,13.21,0,0-8.69,1.02-18.36,1.53l58.41,173.72,35.1-105.27-24.99-68.46c-8.64-.51-16.82-1.53-16.82-1.53-8.64-.51-7.63-13.72,1.01-13.21,0,0,26.49,2.04,42.25,2.04,16.77,0,42.74-2.04,42.74-2.04,8.65-.51,9.67,12.19,1.03,13.21,0,0-8.71,1.02-18.36,1.53l57.96,172.41,15.99-53.46c6.94-22.18,12.21-38.12,12.21-51.85h0Z"/><path class="cls-1" d="m253.76,268.62l-48.12,139.83c14.71,4.34,29.97,6.54,45.31,6.54,18.68,0,36.59-3.23,53.26-9.09-.45-.7-.83-1.44-1.14-2.21l-49.3-135.06Zm137.92-90.98c.69,5.11,1.08,10.6,1.08,16.49,0,16.28-3.04,34.57-12.19,57.45l-48.99,141.64c47.68-27.8,79.75-79.46,79.75-138.63.04-26.9-6.72-53.37-19.65-76.95h0Z"/><path class="cls-1" d="m250.95,67.64c-103.09,0-186.96,83.87-186.96,186.95s83.87,186.97,186.96,186.97,186.97-83.86,186.97-186.97c0-103.09-83.88-186.95-186.97-186.95Zm0,365.35c-98.36,0-178.39-80.03-178.39-178.39S152.58,76.21,250.95,76.21s178.38,80.02,178.38,178.38-80.02,178.39-178.38,178.39h0Z"/></g></g></g></svg>