<?xml version="1.0" encoding="UTF-8"?><svg id="Layer_1" xmlns="http://www.w3.org/2000/svg" viewBox="0 0 500 500"><defs><style>.cls-1{fill:#233e96;}</style></defs><path class="cls-1" d="m31.48,276.75v-53.5h36.68v9.05h-25.88v12.66h22.33v9.05h-22.33v22.74h-10.8Z"/><path class="cls-1" d="m92.3,276.75v-53.06h10.8v44.05h26.86v9.01h-37.66Z"/><path class="cls-1" d="m152.61,276.75v-53.5h39.67v9.05h-28.87v11.86h26.86v9.02h-26.86v14.56h29.89v9.01h-40.69Z"/><path class="cls-1" d="m211.97,276.75l18.28-27.92-16.57-25.58h12.63l10.73,17.19,10.51-17.19h12.52l-16.64,25.98,18.28,27.52h-13.03l-11.86-18.5-11.9,18.5h-12.96Z"/><path class="cls-1" d="m282.25,223.25h21.39c4.23,0,7.39.18,9.47.53,2.08.35,3.94,1.09,5.58,2.21,1.64,1.12,3.01,2.61,4.11,4.47s1.64,3.95,1.64,6.26c0,2.51-.68,4.81-2.03,6.9-1.35,2.09-3.18,3.66-5.49,4.71,3.26.95,5.77,2.57,7.52,4.85s2.63,4.98,2.63,8.06c0,2.43-.57,4.8-1.7,7.1-1.13,2.3-2.68,4.14-4.64,5.51-1.96,1.37-4.37,2.22-7.24,2.54-1.8.19-6.14.32-13.03.36h-18.21v-53.5Zm10.8,8.9v12.37h7.08c4.21,0,6.82-.06,7.85-.18,1.85-.22,3.3-.86,4.36-1.92s1.59-2.45,1.59-4.18-.46-3-1.37-4.03c-.91-1.03-2.27-1.66-4.07-1.88-1.07-.12-4.15-.18-9.23-.18h-6.21Zm0,21.28v14.31h10c3.89,0,6.36-.11,7.41-.33,1.61-.29,2.92-1,3.92-2.13,1.01-1.13,1.52-2.65,1.52-4.54,0-1.61-.39-2.97-1.17-4.09-.78-1.12-1.9-1.93-3.38-2.44s-4.66-.77-9.58-.77h-8.72Z"/><path class="cls-1" d="m418.78,276.75l18.28-27.92-16.57-25.58h12.63l10.73,17.19,10.51-17.19h12.52l-16.64,25.98,18.28,27.52h-13.03l-11.86-18.5-11.9,18.5h-12.96Z"/><rect class="cls-1" x="346.39" y="223.69" width="53.06" height="53.06"/></svg>