<?xml version="1.0" encoding="UTF-8"?><svg id="Layer_1" xmlns="http://www.w3.org/2000/svg" viewBox="0 0 500 500"><defs><style>.cls-1,.cls-2{fill:#fff;}.cls-3{fill:#3f3f3f;}.cls-4{fill:#ffb03b;}.cls-5{fill:#dd8400;}.cls-2{stroke:#000;stroke-miterlimit:15.68;stroke-width:1.35px;}.cls-6{fill:#ff9800;}</style></defs><path class="cls-6" d="m67.31,67.31h365.37v365.37H67.31V67.31Z"/><path class="cls-5" d="m249.99,250h182.69v182.13h-182.69v-182.13Z"/><path class="cls-4" d="m67.32,67.31h182.69v182.69H67.32V67.31Z"/><g><circle class="cls-6" cx="134.99" cy="249.72" r="67.12"/><circle class="cls-6" cx="168.76" cy="168.2" r="67.12"/><circle class="cls-6" cx="250.28" cy="134.43" r="67.12"/><circle class="cls-6" cx="331.8" cy="168.2" r="67.12"/><circle class="cls-6" cx="365.56" cy="249.72" r="67.12"/><circle class="cls-6" cx="331.8" cy="331.24" r="67.12"/><circle class="cls-6" cx="250.28" cy="365.01" r="67.12"/><circle class="cls-6" cx="168.76" cy="331.24" r="67.12"/></g><path d="m298.03,134.43c0-26.36-21.39-47.75-47.75-47.75s-47.75,21.39-47.75,47.75c-18.65-18.64-48.89-18.64-67.54,0-18.64,18.65-18.64,48.89,0,67.54-26.36,0-47.75,21.39-47.75,47.75s21.39,47.75,47.75,47.75c-18.64,18.65-18.64,48.89,0,67.54,18.65,18.64,48.89,18.64,67.54,0,0,26.36,21.39,47.75,47.75,47.75s47.75-21.39,47.75-47.75c18.65,18.64,48.88,18.64,67.54,0,18.64-18.65,18.64-48.89,0-67.54,26.36,0,47.74-21.39,47.74-47.75s-21.37-47.75-47.74-47.75c18.64-18.65,18.64-48.89,0-67.54-18.65-18.64-48.89-18.64-67.54,0h0Z"/><path class="cls-1" d="m268.55,152.72v52.88l37.4-37.4c0-6.61,2.52-13.23,7.57-18.27,10.1-10.1,26.47-10.1,36.56,0,10.1,10.09,10.1,26.46,0,36.56-5.04,5.04-11.67,7.57-18.27,7.57l-37.4,37.4h52.88c4.68-4.68,11.14-7.58,18.29-7.58,14.27,0,25.84,11.58,25.84,25.85s-11.57,25.85-25.84,25.85c-7.15,0-13.61-2.9-18.29-7.58h-52.88l37.4,37.4c6.61,0,13.23,2.52,18.27,7.57,10.1,10.1,10.1,26.47,0,36.56-10.09,10.1-26.46,10.1-36.56,0-5.04-5.04-7.57-11.67-7.57-18.27l-37.4-37.4v52.88c4.68,4.68,7.58,11.14,7.58,18.29,0,14.27-11.59,25.84-25.85,25.84s-25.85-11.57-25.85-25.84c0-7.15,2.9-13.61,7.58-18.29v-52.88l-37.4,37.4c0,6.61-2.52,13.23-7.57,18.27-10.1,10.1-26.47,10.1-36.56,0-10.1-10.09-10.1-26.46,0-36.56,5.04-5.04,11.67-7.57,18.27-7.57l37.4-37.4h-52.88c-4.68,4.68-11.14,7.58-18.29,7.58-14.27,0-25.84-11.58-25.84-25.85s11.57-25.85,25.84-25.85c7.15,0,13.61,2.9,18.29,7.58h52.88l-37.4-37.39c-6.61,0-13.23-2.52-18.27-7.57-10.1-10.1-10.1-26.47,0-36.56,10.09-10.1,26.46-10.1,36.56,0,5.04,5.04,7.57,11.67,7.57,18.27l37.4,37.4v-52.88c-4.68-4.68-7.58-11.14-7.58-18.29,0-14.27,11.58-25.84,25.85-25.84s25.85,11.57,25.85,25.84c0,7.15-2.9,13.61-7.58,18.29h0Z"/><path d="m87.25,250h326.05v162.75H87.25v-162.75Z"/><path d="m87.25,341.33h326.05v71.42H87.25v-71.42Z"/><path class="cls-3" d="m121.42,265.09h260.36c10.67,0,19.38,8.71,19.38,19.38v65.37c-100.62-12.45-200.37-29.66-299.12-28.07v-37.3c0-10.67,8.71-19.38,19.38-19.38h0Z"/><path class="cls-2" d="m292.57,260.7l-30.1,145.38h-24.95l-30.12-145.38h24.95l17.64,85.15,17.63-85.15h24.95Zm42.59,60.22h42.59v42.58c0,23.52-19.07,42.59-42.58,42.59s-42.59-19.07-42.59-42.59v-60.21h-.01c0-23.51,19.07-42.57,42.59-42.57s42.59,19.07,42.59,42.57h-24.95c0-9.74-7.9-17.63-17.64-17.63s-17.63,7.89-17.63,17.63v60.21c0,9.74,7.89,17.64,17.63,17.64s17.64-7.9,17.64-17.63v-17.64h-17.64v-24.95h0Zm-200.44,12.47c-7.7-7.71-12.47-18.35-12.47-30.11,0-23.52,19.07-42.58,42.59-42.58s42.57,19.06,42.57,42.58h-24.94c0-9.74-7.9-17.64-17.64-17.64s-17.64,7.9-17.64,17.64c0,4.87,1.97,9.26,5.15,12.46h.01c3.31,3.31,7.8,5.17,12.47,5.16h0c11.76.01,22.4,4.78,30.1,12.49,7.71,7.7,12.47,18.35,12.47,30.1,0,23.52-19.07,42.59-42.58,42.59s-42.59-19.07-42.59-42.59h24.95c0,9.75,7.9,17.64,17.64,17.64s17.64-7.89,17.64-17.64c0-4.86-1.97-9.26-5.16-12.46-3.19-3.18-7.61-5.17-12.47-5.17-11.76,0-22.4-4.77-30.11-12.47h0Z"/></svg>