<?xml version="1.0" encoding="UTF-8"?><svg id="Layer_1" xmlns="http://www.w3.org/2000/svg" viewBox="0 0 500 500"><defs><style>.cls-1{fill:#1266a8;}.cls-2{fill:#92acbb;}.cls-3{fill:#fbb860;}.cls-4{fill:#eb6737;}</style></defs><path class="cls-3" d="m110.47,107.63l-.38,3.98-10.04,105.41v111.2s13.79,21.45,16.85,24.51c3.06,3.06,24.51,20.55,24.51,20.55,0,0,68.54.64,69.88,0,1.35-.64,47.31,0,47.31,0l22.21-22.09,13.79-48.73,9.19-29.07v-24.47l8.33-18.75,14.89-4.6-8.66-17.23-16.85-16.47-7.66-40.24,1.53-28.7v-11.49l-6.76-12.26-12.39-16.85s-7.66-8.43-14.55-11.49c-6.89-3.06-7.66-2.3-19.15-3.83s-21.45,1.53-34.47,0-30.64.77-39.06,0c-8.43-.77-16.85,3.06-23.74,6.89-6.89,3.83-22.98,15.32-22.98,15.32l-11.8,10.72"/><path class="cls-4" d="m413.39,318.81s0,.54-.37.92c-7.57,3.94-14.84,7.39-21.94,11.16-2.17,1.15-4.84,2.81-5.65,4.87-4.83,12.35-12.4,22.46-22.55,30.99-14.89,12.51-31.95,18.49-51.24,18.51-28.29.03-56.59,0-84.88,0h-5.3c-1.07,9.99-1.35,19.52-3.25,28.71-2.22,10.71-7.32,20.34-16.71,26.7-4.55,3.09-9.77,5.21-14.68,7.76-5.83,0-11.67,0-18.15-.39-14.45-3.23-23.3-13.94-27.64-26.94-4.03-12.06-4.67-24.46-4.26-36.98.1-3.05-.58-5.03-3.66-6.23-17.19-6.73-29.33-19.18-37.62-35.22-3.87-7.48-5.97-15.87-8.87-23.85,0-63.93,0-127.86.41-192.46,4.65-25.61,17.93-44.48,39.8-56.76,8.08-4.54,17.46-6.76,26.24-10.04,56.67,0,113.33,0,170.68.41,15.84,2.38,29.2,8.63,40.51,18.65,18.24,16.17,27.39,36.7,27.38,61.21-.02,54.04,0,108.08,0,162.12,0,13.73,8.86,20.59,21.78,16.87m-143.86-122.33c-2.88,10.77-9.11,19.31-18.21,26.67-13.64,9.23-28.44,11.74-43.96,6.23-18.33-6.5-28.41-20.32-31.88-39.2h-19.09c0,5.31,0,10.33-.18,16.35.06,7.29.12,14.58,0,22.88.06,7.65.12,15.31,0,23.97.06,8.38.12,16.76,0,26.14.06,9.1.12,18.21,0,28.32v53.45c28.31,0,56.07,1.29,83.63-.43,20.32-1.26,37.3-16.88,44.7-37.07,1.3-7.65,2.59-15.29,4.1-24.16-4.13,1.73-6.41,2.69-9,3.77-1.01-4.1-1.94-7.88-3.17-12.89-4.82,19.84-19.62,24.99-36.93,28.66,1.55-4.56,2.79-8.2,4.03-11.84-.32-.19-.63-.39-.95-.58-5.87,6.58-11.73,13.15-18.27,20.08-3.97,4.16-8.87,5.82-14.3,4.11-7.77-2.44-15.38-5.42-23.06-8.17.18-.59.36-1.17.54-1.76,1.57,0,3.15,0,5.54.13,3.18-2.38,7.01-4.24,9.38-7.25,3.4-4.31,5.73-9.46,9.14-14.68,5.66-6.84,11.31-13.68,17.61-20.82,8.04-6.09,16.08-12.17,24.94-18.27,10.88-3.75,21.76-7.49,33.26-11.45-.02.09.43-.84.27-1.65-1.02-5.27,1.77-7.8,6.19-9.81,5.73-2.59,11.21-5.73,17.23-8.85-1.84-3.06-3.48-5.78-5.41-9.13-2.62-4.2-5.24-8.4-7.78-13.38-3.49-6.27-6.98-12.53-10.25-19.8-.1-12.75-.21-25.5-.03-39.2-.2-5.04.11-10.16-.68-15.11-3.15-19.77-13.27-34.59-32.33-43.75-2-.79-3.95-1.74-6.01-2.34-15.65-4.51-31.69-3.08-48.65-3.17-7.65.05-15.3.1-23.95,0-8.8.93-17.59,1.86-27.16,2.98-1.87.8-3.74,1.6-6.37,2.54-18.39,9.25-29.51,23.78-32.85,45.09,0,24.51.02,49.02-.12,74.54.05,12.73.1,25.47,0,39.21.05,10.56.1,21.11,0,32.68-.01,8.5-.16,17.01,0,25.51.23,12.4,3.74,23.85,11.21,33.8,4.37,5.82,9.35,11.19,16.41,14.54,0-19.5,0-38.45.27-58.4-.09-9.12-.18-18.25,0-28.35-.09-10.2-.18-20.4,0-31.59-.09-10.2-.18-20.4,0-31.59.03-9.35.14-18.7.03-28.05-.03-2.74.47-4.58,4.27-4.33,1.62-.09,3.24-.17,5.85-.05,7.65-.08,15.29-.16,23.85-.01,2.25-.84,5.4-1.04,6.57-2.67,2.46-3.43,3.88-7.6,6.37-11.86,5.01-4.61,10.02-9.22,15.77-14.04,5.02-1.85,10.03-3.7,16.06-5.45,16.41-1.75,30.48,3.2,42.56,15.36,3.29,5.39,6.57,10.77,9.86,17.02,3.04,8.66,2.8,17.49.96,27.13m84.94,110.82c-.17.37-.34.75-.38,1.94.94,2.99,1.88,5.98,3.11,9.89-17.21-3.75-31.88-8.88-36.6-28.41-1.34,4.86-2.35,8.52-3.35,12.15-2.49-.53-4.16-.88-6.28-1.33.02,23.18-7.33,43.22-23.99,60.7,8.71,0,16.08.19,23.44-.04,19.6-.62,35.68-8.2,47.45-24.29,9.97-13.61,9.72-17.93-2.26-29.56-.25-.24-.6-.39-1.13-1.05m-13.91-74.12c.73,1.4,1.46,2.81,2.4,4.62-8.29,4.36-16.24,8.54-25.53,13.42,19.57,5.12,35.86,13.68,50.35,27.25.33-2.47.63-3.66.63-4.86.02-44.27.11-88.54-.03-132.82-.05-17.11-6.21-31.68-18.9-43.52-17.76-16.56-39.42-15.53-61.89-14.51.88,1.17,1.33,1.89,1.9,2.51,11.93,12.95,19.39,28.11,20.5,45.7.97,15.36.57,30.81,1.01,46.21.08,2.75.77,5.78,2.11,8.16,8.9,15.78,18.05,31.42,27.46,47.84m-135.74-71.25c-13.18,11.95-14.34,30.08-2.71,42.48,10.84,11.55,29.43,12.07,41.07,1.14,11.04-10.36,12.21-27.7,2.67-39.41-10.08-12.37-26.42-14.28-41.04-4.21m-26.18,223.33h-22.74c.55,7.7.38,14.79,1.72,21.59,1.45,7.4,3.4,15.17,10.41,19.64,8.54,5.45,21.43,2.32,27.52-8.87,5.47-10.06,5.51-21.02,5.39-32.36h-22.29Z"/><path class="cls-1" d="m340.4,232.82c-9.24-16.05-18.39-31.69-27.29-47.47-1.34-2.38-2.03-5.4-2.11-8.16-.44-15.4-.04-30.85-1.01-46.21-1.11-17.59-8.57-32.75-20.5-45.7-.57-.62-1.02-1.34-1.9-2.51,22.47-1.03,44.13-2.06,61.89,14.51,12.69,11.84,18.85,26.4,18.9,43.52.13,44.27.05,88.54.03,132.82,0,1.2-.3,2.39-.63,4.86-14.49-13.57-30.78-22.12-50.35-27.25,9.29-4.88,17.24-9.06,25.53-13.42-.94-1.81-1.67-3.21-2.57-4.98h0Zm6.75-66.62c-2.34.09-4.77-.16-7.01.35-4.84,1.1-9.34,3.75-10.1,8.7-.49,3.19,1.04,7.6,3.23,10.09,5.29,6.01,17.4,5.73,23.26.24,5.31-4.97,5-12.04-1.02-16.24-2.14-1.49-4.93-2.06-8.36-3.14Z"/><path class="cls-1" d="m354.71,307.77c.3.19.65.34.9.59,11.98,11.63,12.23,15.94,2.26,29.56-11.78,16.09-27.85,23.67-47.45,24.29-7.36.23-14.73.04-23.44.04,16.66-17.48,24.01-37.52,23.99-60.7,2.12.45,3.79.8,6.28,1.33,1-3.63,2.01-7.29,3.35-12.15,4.72,19.53,19.39,24.66,36.6,28.41-1.23-3.91-2.17-6.9-2.98-10.46.13-.57.48-.91.48-.91Z"/><path class="cls-2" d="m354.16,308.27c-.02-.22.15-.59.43-.73.12.23-.24.57-.43.73Z"/></svg>