<?xml version="1.0" encoding="UTF-8"?><svg id="Layer_1" xmlns="http://www.w3.org/2000/svg" viewBox="0 0 500 500"><defs><style>.cls-1{fill:#8bc74b;}</style></defs><g><path class="cls-1" d="m237.92,69.27c7.31-4.19,16.84-4.21,24.15,0,36.77,20.78,73.55,41.52,110.31,62.31,6.91,3.89,11.54,11.59,11.47,19.56v125c.05,8.3-5.03,16.18-12.33,19.98-36.65,20.66-73.28,41.35-109.92,62.01-7.47,4.27-17.18,3.94-24.42-.68-10.99-6.37-21.99-12.71-32.98-19.07-2.25-1.34-4.78-2.4-6.36-4.58,1.4-1.89,3.91-2.12,5.94-2.95,4.59-1.46,8.8-3.8,13.01-6.07,1.07-.73,2.37-.45,3.39.2,9.4,5.39,18.71,10.93,28.13,16.27,2.01,1.16,4.05-.38,5.77-1.34,35.96-20.33,71.97-40.57,107.92-60.9,1.33-.64,2.07-2.06,1.96-3.51.03-41.23,0-82.47.01-123.71.15-1.66-.81-3.18-2.3-3.86-36.52-20.57-73.02-41.16-109.53-61.74-1.29-.89-3-.89-4.3,0-36.51,20.58-73.01,41.2-109.52,61.76-1.49.68-2.49,2.18-2.32,3.84,0,41.23,0,82.47,0,123.71-.13,1.46.66,2.84,1.99,3.47,9.74,5.53,19.5,11.01,29.25,16.52,5.49,2.96,12.24,4.71,18.29,2.45,5.34-1.92,9.08-7.37,8.98-13.04.05-40.99-.03-81.99.04-122.98-.13-1.82,1.59-3.32,3.36-3.15,4.68-.03,9.37-.06,14.05.01,1.95-.04,3.3,1.92,3.06,3.75-.02,41.25.05,82.51-.03,123.76.01,10.99-4.5,22.96-14.67,28.34-12.53,6.49-28.01,5.11-40.39-1.11-10.71-5.35-20.94-11.66-31.46-17.39-7.31-3.79-12.37-11.7-12.32-19.99v-125c-.08-8.13,4.73-15.97,11.86-19.8,36.64-20.68,73.28-41.37,109.91-62.06Z"/><path class="cls-1" d="m269.89,155.85c15.98-1.03,33.09-.61,47.47,7.26,11.13,6.03,17.31,18.69,17.5,31.06-.31,1.67-2.06,2.59-3.65,2.47-4.64,0-9.27.06-13.91-.03-1.97.08-3.11-1.74-3.36-3.48-1.33-5.92-4.56-11.78-10.13-14.63-8.55-4.28-18.47-4.07-27.79-3.98-6.81.36-14.13.95-19.89,4.95-4.43,3.03-5.77,9.15-4.19,14.08,1.49,3.54,5.58,4.68,8.92,5.73,19.26,5.04,39.67,4.54,58.56,11.16,7.82,2.7,15.47,7.96,18.15,16.14,3.5,10.98,1.97,24.09-5.84,32.9-6.33,7.25-15.56,11.2-24.75,13.34-12.24,2.73-24.94,2.8-37.36,1.59-11.69-1.33-23.85-4.4-32.87-12.36-7.71-6.7-11.48-17.13-11.11-27.21.09-1.7,1.78-2.89,3.41-2.75,4.67-.04,9.34-.05,14.01,0,1.86-.13,3.25,1.48,3.34,3.24.86,5.64,2.98,11.56,7.9,14.9,9.49,6.12,21.4,5.7,32.26,5.87,9-.4,19.11-.52,26.45-6.47,3.88-3.39,5.02-9.07,3.98-13.96-1.13-4.12-5.45-6.05-9.15-7.3-19.01-6.01-39.65-3.83-58.48-10.63-7.64-2.7-15.03-7.81-17.97-15.66-4.1-11.11-2.22-24.86,6.41-33.37,8.41-8.47,20.55-11.73,32.1-12.9h0Z"/></g><g><path class="cls-1" d="m155.09,397.5h-18.68v12.05h20.86v9.42h-32.39v-50.77h31.34v9.42h-19.81v10.55h18.68v9.34Z"/><path class="cls-1" d="m173.47,382.13l3.62,6.1c1.05,1.88,2.03,3.77,3.01,5.5h.15c.98-1.96,1.88-3.84,2.86-5.65l3.24-5.95h12.43l-12.13,17.55,12.28,19.28h-12.96l-3.69-6.63c-1.05-1.81-1.96-3.69-2.86-5.57h-.23c-.9,1.96-1.88,3.77-2.79,5.57l-3.46,6.63h-12.58l12.5-18.76-12.2-18.08h12.81Z"/><path class="cls-1" d="m203.82,394.49c0-4.82-.15-8.96-.3-12.35h9.94l.53,5.12h.15c2.71-3.92,6.93-5.95,12.28-5.95,8.06,0,15.29,7.01,15.29,18.76,0,13.41-8.51,19.74-16.72,19.74-4.44,0-7.91-1.81-9.57-4.22h-.15v18.3h-11.45v-39.4Zm11.45,8.66c0,.9.08,1.73.23,2.41.75,3.09,3.39,5.42,6.7,5.42,4.97,0,7.91-4.14,7.91-10.39,0-5.88-2.64-10.32-7.76-10.32-3.24,0-6.1,2.41-6.85,5.8-.15.6-.23,1.36-.23,2.03v5.05Z"/><path class="cls-1" d="m248.87,394.26c0-5.42-.15-8.96-.3-12.13h9.87l.38,6.78h.3c1.88-5.35,6.4-7.61,9.94-7.61,1.05,0,1.58,0,2.41.15v10.77c-.83-.15-1.81-.3-3.09-.3-4.22,0-7.08,2.26-7.83,5.8-.15.75-.23,1.66-.23,2.56v18.68h-11.45v-24.71Z"/><path class="cls-1" d="m285.7,404.2c.38,4.75,5.05,7,10.4,7,3.92,0,7.08-.53,10.17-1.51l1.51,7.76c-3.77,1.51-8.36,2.26-13.33,2.26-12.5,0-19.66-7.23-19.66-18.76,0-9.34,5.8-19.66,18.61-19.66,11.9,0,16.42,9.27,16.42,18.38,0,1.96-.23,3.69-.38,4.52h-23.73Zm13.48-7.83c0-2.79-1.21-7.46-6.48-7.46-4.82,0-6.78,4.37-7.08,7.46h13.56Z"/><path class="cls-1" d="m316.59,408.95c2.11,1.28,6.48,2.79,9.87,2.79s4.9-1.2,4.9-3.09-1.13-2.79-5.42-4.22c-7.61-2.56-10.55-6.7-10.47-11.07,0-6.85,5.87-12.05,14.99-12.05,4.29,0,8.14.98,10.4,2.11l-2.03,7.91c-1.66-.9-4.82-2.11-7.98-2.11-2.79,0-4.37,1.13-4.37,3.01,0,1.73,1.43,2.64,5.95,4.22,7.01,2.41,9.94,5.95,10.02,11.37,0,6.85-5.42,11.9-15.97,11.9-4.82,0-9.11-1.05-11.9-2.56l2.03-8.21Z"/><path class="cls-1" d="m349.28,408.95c2.11,1.28,6.48,2.79,9.87,2.79s4.9-1.2,4.9-3.09-1.13-2.79-5.42-4.22c-7.61-2.56-10.55-6.7-10.47-11.07,0-6.85,5.87-12.05,14.99-12.05,4.29,0,8.14.98,10.4,2.11l-2.03,7.91c-1.66-.9-4.82-2.11-7.98-2.11-2.79,0-4.37,1.13-4.37,3.01,0,1.73,1.43,2.64,5.95,4.22,7.01,2.41,9.94,5.95,10.02,11.37,0,6.85-5.42,11.9-15.97,11.9-4.82,0-9.11-1.05-11.9-2.56l2.03-8.21Z"/></g></svg>