<?xml version="1.0" encoding="UTF-8"?>
<svg id="Layer_1" data-name="Layer 1" xmlns="http://www.w3.org/2000/svg" xmlns:xlink="http://www.w3.org/1999/xlink" viewBox="0 0 500 500">
  <defs>
    <style>
      .cls-1 {
        fill: #fff;
        stroke: #8dc35e;
        stroke-miterlimit: 4.25;
        stroke-width: 1.81px;
      }

      .cls-2 {
        fill: url(#radial-gradient);
      }

      .cls-3 {
        fill: rgba(215, 251, 152, .31);
      }

      .cls-4 {
        fill: #8ebc40;
      }
    </style>
    <radialGradient id="radial-gradient" cx="-669.6" cy="875.54" fx="-669.6" fy="875.54" r="48.56" gradientTransform="translate(-1803.23 1914.06) rotate(94.52) scale(2.72 -2.19)" gradientUnits="userSpaceOnUse">
      <stop offset="0" stop-color="#9cc358"/>
      <stop offset="1" stop-color="#72aa40"/>
    </radialGradient>
  </defs>
  <rect id="rect1038" class="cls-2" x="143.09" y="144.37" width="212.52" height="212.52" rx="14.23" ry="14.23" transform="translate(-67.9 94.6) rotate(-18.96)"/>
  <path id="path1040" class="cls-3" d="m317.38,123.62c-3.7-4.13-9.64-5.87-15.23-3.95l-174.07,59.79c-.58.2-1.13.44-1.67.71,12.17,49.07,45.51,97.93,91.8,134.54,19.23,15.12,40.16,27.71,61.83,37.2l-83.12,28.55c-1.39.48-2.81.73-4.2.77,1.46-.03,2.94-.27,4.39-.77l174.07-59.8c7.46-2.56,11.4-10.63,8.84-18.09l-59.79-174.07c-.64-1.86-1.62-3.51-2.86-4.89Zm-124.65,257.61c-6,.11-11.63-3.61-13.69-9.61l-59.79-174.07c-2.36-6.88.82-14.26,7.17-17.38,0-.03-.02-.06-.02-.09-6.47,3.07-9.72,10.53-7.34,17.47l59.79,174.07c2.08,6.07,7.81,9.8,13.88,9.61h0Z"/>
  <g id="g1046">
    <path id="path1042" class="cls-1" d="m160.73,361.84c-.5-2.51-.99-8.2-1.09-12.66l-.17-8.1-12.79-14.17c-14.48-16.04-16.73-21.3-12.04-28.19,2.62-3.84,2.52-4.17-2.19-7.66-6.83-5.05-7.42-8.75-2.9-18.41,5.75-12.3,11.75-17.45,25.42-21.81,13.56-4.33,17.54-7.55,15.94-12.91-2.41-8.05.09-10.77,5.16-5.6l3.82,3.89,8.17-8.01c9.45-9.26,13.13-9.94,20.96-3.83,8.29,6.47,6.72,20.17-2.21,19.26-2.43-.25-2.78-.77-1.88-2.75.61-1.35.25-3.33-.8-4.41-2.46-2.5-12.58,4.74-16.65,11.92-1.53,2.71-2.89,5.02-3.01,5.13s-4.53.48-9.8.81c-14.09.88-24.71,4.68-31.41,11.24-7.91,7.75-10.95,15.52-7.47,19.07,3.99,4.07,5.69,2.92,8.06-5.46,2.34-8.25,6.35-13.03,14.04-16.7,9.05-4.33,25.52-6.28,38.65-4.57,7.08.92,13.57.98,14.43.14s4.54-1.76,8.17-2.04c5.57-.42,7.9-1.65,14.85-7.82,7.14-6.34,9.26-9.4,15.87-22.89,9.92-20.23,18.14-29.08,29.7-31.97,4.33-1.08,21.86-8.73,38.95-16.98,34.47-16.65,55.17-25.7,52.46-22.92-.98,1-7.49,4.88-14.46,8.61-18.91,10.12-48,27.16-54.83,32.11-5.51,4-5.9,4.68-4.62,8.14.77,2.07,4.46,8.11,8.19,13.42,6.23,8.84,6.62,10,4.71,13.86-2.51,5.09-6.38,4.94-15.44-.58-3.2-1.96-6.43-2.97-7.16-2.25-3.28,3.21-10.24,17.74-13.79,28.76-2.13,6.62-4.97,14.24-6.3,16.92l-2.42,4.88,9.13-.14c9.46-.14,10.39.26,13.56,5.87l1.9,3.36-13.98,12.4c-11.5,10.2-14.77,12.43-18.41,12.57-2.44.09-4.83,1.01-5.32,2.04-1.28,2.68-5.69.21-5.98-3.34-.35-4.17,2.51-6.51,5.65-4.63,1.66,1,4.25.49,7.04-1.38,5.35-3.58,9.38-9.76,7.14-10.95-3.28-1.75-22.12,2.81-31.28,7.58-10.55,5.49-23.19,6.58-34.02,2.95-5.16-1.73-7.48-1.48-12.33,1.33-3.29,1.9-10.17,4.11-15.3,4.9-5.13.8-9.67,1.79-10.1,2.2s2.78,5.07,7.12,10.35c8.67,10.54,11.55,19.58,6.37,20.01-2.02.17-2.44,1.8-1.81,6.91,1.08,8.65-1.7,15.49-7.09,17.45-4.58,1.66-5.2,1.19-6.43-4.95h0Zm113.25-97.52c3.36-9.41,6.34-12.25,16.11-15.34,10.09-3.19,16.01-1.62,18.1,4.79l1.48,4.56-3.67-2.95c-5.54-4.46-8.9-3.27-19.16,6.79-13.92,13.65-17.16,14.19-12.86,2.14h0Z"/>
    <circle id="circle1044" class="cls-4" cx="287.26" cy="206.53" r="2"/>
  </g>
</svg>