<?xml version="1.0" encoding="UTF-8"?><svg id="Layer_1" xmlns="http://www.w3.org/2000/svg" viewBox="0 0 500 500"><defs><style>.cls-1{fill:#7e8080;}.cls-2{fill:#9dcdcf;}.cls-3{fill:#def0f3;}.cls-4{fill:#c6e4eb;}.cls-5{fill:#daeef2;}.cls-6{fill:#666e6e;}.cls-7{fill:#bce0e2;}.cls-8{fill:#ddf0f4;}.cls-9{fill:#dbeef3;}.cls-10{fill:#d9edf2;}.cls-11{fill:#fff;}.cls-12{fill:#b8dedf;}.cls-13{fill:#6e7979;}.cls-14{fill:#b3dbe5;}.cls-15{fill:#e4f2f6;}.cls-16{fill:#f3f9fa;}.cls-17{fill:#5b5c5b;}.cls-18{fill:#aad7d6;}.cls-19{fill:#d7edf0;}.cls-20{fill:#bde0e3;}.cls-21{fill:#6f706f;}.cls-22{fill:#bec4c6;}.cls-23{fill:#a4b8bd;}.cls-24{fill:#bbdfe1;}.cls-25{fill:#dee8ea;}.cls-26{fill:#a0d0dd;}.cls-27{fill:#848a8a;}.cls-28{fill:#777e7e;}.cls-29{fill:#e7f4f7;}.cls-30{fill:#1a4658;}.cls-31{fill:#bee1e8;}.cls-32{fill:#e9f5f8;}.cls-33{fill:#cee9ed;}.cls-34{fill:#e0f1f5;}.cls-35{fill:#575655;}.cls-36{fill:#d9eef2;}.cls-37{fill:#7795a1;}.cls-38{fill:#e1f1f5;}.cls-39{fill:#f6fafc;}.cls-40{fill:#d7e0e2;}.cls-41{fill:#668794;}.cls-42{fill:#82b9bf;}.cls-43{fill:#b7dedf;}.cls-44{fill:#bee1e3;}.cls-45{fill:#606161;}.cls-46{fill:#474746;}.cls-47{fill:#def0f4;}.cls-48{fill:#d4ecf1;}.cls-49{fill:#bfd2d8;}.cls-50{fill:#b1dbe4;}.cls-51{fill:#ecf6f9;}.cls-52{fill:#bbc0c2;}.cls-53{fill:#b3dcdc;}.cls-54{fill:#a0d1dd;}.cls-55{fill:#b4dcdd;}.cls-56{fill:#c1e3e6;}.cls-57{fill:#b5dcde;}.cls-58{fill:#2c5667;}.cls-59{fill:#f5fafb;}.cls-60{fill:#d8edf2;}.cls-61{fill:#e0f1f4;}.cls-62{fill:#9fd0dd;}.cls-63{fill:#dff0f4;}.cls-64{fill:#c8d2d7;}.cls-65{fill:#bfe1e9;}.cls-66{fill:#cde8ed;}.cls-67{fill:#f8fbfc;}.cls-68{fill:#545352;}.cls-69{fill:#f3f9fb;}.cls-70{fill:#d7eef0;}.cls-71{fill:#c8d3d7;}.cls-72{fill:#c5cccd;}.cls-73{fill:#c2e3e6;}.cls-74{fill:#ddeff3;}.cls-75{fill:#d5dde0;}.cls-76{fill:#e1e5e6;}.cls-77{fill:#cce8ed;}.cls-78{fill:#e9f5f7;}.cls-79{fill:#626463;}.cls-80{fill:#898d8d;}.cls-81{fill:#9fced0;}.cls-82{fill:#595958;}</style></defs><path class="cls-30" d="m357.75,420.57c8.25,1.69,16.75,2.58,23.88,7.73.17.25.26.53.28.83.04.3.17.56.39.77v1.53c-2.5,3.23-6.16,4.44-9.83,5.52-12.06,3.54-24.5,4.88-36.92,6.3-18.39,2.1-36.86,2.39-55.35,2.37-.75,0-1.54-.16-2.2.39h-6.9c-1.54-.84-3.21-.19-4.81-.4-1.28,0-2.55,0-3.83,0-1.77,0-3.54,0-5.31,0-2.72,0-5.44,0-8.16,0-2.03,0-4.06,0-6.1,0-1.77,0-3.54,0-5.31,0-1.29,0-2.58,0-3.87,0-1.85.2-3.75-.44-5.55.4h-8.44c-1.3-.76-2.73-.37-4.1-.37-12.05-.01-24.09-.22-36.1-1.06-.73-.19-1.43-.54-1.78-1.23-1.47-2.95-2.86-1.82-4.26.05-1.07.5-2.15.5-3.24.07-1.6-2.4-3.33-3.77-5.6-.65-4.52.25-8.95-.19-13.3-1.44-1.68-1.65-3.14-4.6-5.74-.98-4.84-.06-9.54-.88-14.06-2.63q-2.19-3.84-5.7-1.95c-1.66.3-2.99-.22-3.95-1.62-.44-2.35-1.59-4.37-2.95-6.29-.02-.38.11-.71.36-1,1.27-.49,2.55-.98,3.82-1.47,2.35,1.48,3.99.47,5.35-1.53,4.34-.87,8.57-2.34,13.04-2.57.81-1.22,1.96-1.76,3.41-1.71,1.82.66,1.52,2.01,1.07,3.38-.69,2.13-1.59,4.18-1.91,6.42-.75,3.06-.23,4.52,3.51,3.65,3.07-.71,6.26-1.23,9.48-1.14,1.02-.05,2.04-.06,3.05-.26,2.14-.42,3.52.3,3.8,2.57.26,2.18,1.49,3.12,3.62,3.03.62,0,1.23-.04,1.85,0,1.71.04,3.42.06,5.13-.03,1.52-.01,3.03,0,4.55,0,2.11.11,4.22.05,6.32.05,4.26.66,6.58-2.17,8.93-4.97,1.34-.53,2.72-.89,4.14-1.07,1.82-.12,3.65-.06,5.47-.08,1.53-.02,3.01.34,4.52.57,1.72.26,3.05-.11,3.31-2.14.11-1.16.11-2.33.38-3.46.75-3.15,1.29-6.35,2.22-9.46.46-1.24,1.09-2.33,2.42-2.82,3.48-.68,7.02-.22,10.52-.48,1.92,1.62,3.85,2.68,5.73-.08.54-.26,1.11-.39,1.71-.45,1.47-.09,2.95-.06,4.42-.09,1.35,0,2.69-.01,4.04-.02,6.64,0,13.29,0,19.93,0,1.41,0,2.81.05,4.22-.06,5.29.18,10.55,1.07,15.87.81,1.36,0,2.73-.04,3.97.69,2.83,3.93,2.77,8.64,3.36,13.13.56,4.23.39,4.15,4.5,3.98,4.67-.19,9.25-.61,13.04,3.57,1.94,2.14,5.33.7,8.08.37.64-.1,1.27-.13,1.92-.09,2.9.64,5.87.55,8.81.79,2.68.64,5.44.91,8.14,1.43,1.26.01,2.59,1.03,3.77-.24.83-1.72-.01-4.38,2.8-4.97.59-.14,1.18-.17,1.78-.18,2.4-.14,4.73.43,7.07.78.98.11,1.93.4,2.91.57,2.24.38,2.59-.79,2.14-2.61-.2-1.92-.46-3.83-1.23-5.62-.26-.65-.55-1.3-.84-1.94-.38-1.01-.83-2.03-.03-3.05.26-.26.57-.42.92-.5,1.25,0,2.44.21,3.48.98Z"/><path class="cls-30" d="m122.28,433.83c-1.86-.16-3.07-1.55-4.57-2.39v-3.07c.42-.43.65-1.19,1.5-.86,2.05,1.61,3.52,3.5,3.07,6.32Z"/><path class="cls-30" d="m248.85,445.38c0,.21,0,.42,0,.64h-6.13c-.24-.14-.33-.28-.25-.42.08-.15.15-.22.23-.22,2.05,0,4.1,0,6.15,0Z"/><path class="cls-30" d="m228.14,446.01c1.62-1.56,3.56-.46,5.35-.65.26.14.35.28.27.43-.08.15-.17.23-.25.23h-5.37Z"/><path class="cls-30" d="m242.7,445.37c0,.21.01.43.02.64h-5.37c-.25-.14-.33-.29-.25-.44.08-.15.16-.23.24-.23,1.79,0,3.58.02,5.37.03Z"/><path class="cls-30" d="m257.29,446.01c0-.21,0-.43.02-.64,1.79,0,3.58-.02,5.37-.03.24.15.32.3.23.45-.08.15-.16.22-.25.22h-5.37Z"/><path class="cls-30" d="m266.51,445.36c1.54.12,3.24-.86,4.58.65h-4.6c-.25-.15-.33-.3-.24-.44.09-.14.18-.21.27-.21Z"/><path class="cls-30" d="m237.33,445.34c.01.22.02.45.01.67h-3.83c0-.22,0-.44-.02-.65,1.28,0,2.56-.01,3.84-.02Z"/><path class="cls-30" d="m266.51,445.36c-.02.22-.02.43-.02.65h-3.83c0-.22,0-.45.01-.67,1.28,0,2.56.01,3.84.02Z"/><path class="cls-77" d="m291.01,54.01c.52.01,1.03.03,1.55.04.58.61.79,1.34.72,2.17-.36,1.7-.75,3.39-1.96,4.74-.33.2-.68.26-1.06.2-3.23-2.18-3.31-2.16-5.26,1.55-.91.66-2.02.77-3.03,1.19-1.04.37-2.08.81-3.21.39-5.47-2.01-9.44,1.41-13.53,3.95-1.49.92-3.17,2.16-3.63,4.21-.62,1-1.44,1.71-2.65,1.86-3.52-.56-6.02.97-7.73,3.92-.54.92-1.13,1.67-2.16,1.93-1.86.47-2.19,1.83-2.13,3.46-.2.93-.82,1.58-1.43,2.25-2.88,2.82-5.72,5.68-8.55,8.56-.67.65-1.35,1.28-2.24,1.63-3.66.7-7.57,2.64-10.16-2.04-.21-.52-.33-1.07-.39-1.62-.46-2.58.71-5.31-.75-7.77-1.67.63-2.43,2.46-4.11,3.02-1.94.31-3.23,1.26-4.66,2.8-4.58,4.92-8.17,10.28-10.64,16.57-.84,2.14-2.97,3.76-2.04,6.46-.05.94-.39,1.78-.78,2.61-.31.65-.64,1.29-.98,1.94-.53.96-1.08,1.9-2.08,2.47-2.16.63-3.12,1.94-3.56,4.3-.68,3.65-2.96,6.78-4.33,10.24-.37.93-1.32,1.95-.42,2.76.99.89,1.71-.64,2.63-.88,5.72-1.67,11.41-3.5,17.39-4.07,1.72.17,2.93.87,2.91,2.83-.14,1.35-.88,2.3-1.95,3.05-4.38-.27-5.46,4.01-7.84,6.2-3.76,3.45-6.73,7.84-9.58,12.18-1.05,1.6-1.98,3.31-1.03,5.33.11.32.18.65.21.99-.19,1.62.97,1.69,2.09,1.79.52.07,1.01.24,1.46.52.81,2.52-.67,6.34-3.05,8.4-2.26,1.96-4.79,3.87-3.92,7.5.39.87.14,1.7-.18,2.52-.12.32-.27.62-.44.92-.67,1.17-1.19,2.43-1.83,3.62-.17.31-.38.59-.61.86-.37.39-.8.7-1.28.96-1.89.66-2.5,2.36-3.26,3.96-2.11,4.46-2.87,9.2-3.28,14.07-.19,2.26-2.7,4.36-.37,6.77.07,2.44-.54,4.75-1.29,7.03-1,1.27-2.31,2.47-1.07,4.31.01.36-.08.68-.28.98-1.79,1.27-2.72,2.67-.72,4.54.22.28.39.6.52.93.58,1.77-.03,3.51-.12,5.26,0,.36-.02.72-.07,1.07-.32,1.63-.16,3.28-.22,4.92-.04.76-.18,1.5-.54,2.19-2.67,2.21-1.43,4.62-.35,7.03.68,5.89-.3,11.82.57,17.69.13.42.21.85.26,1.28.14,1.27.16,2.55.14,3.83.02,1.82-.19,3.66.39,5.45.33,1.38.33,2.79.36,4.19.03.59.05,1.17.12,1.76.35,1.32.6,2.67.7,4.03.94,4.01,1.71,8.05,2.96,11.98.25,1.35.73,2.65.8,4.04.05.9-.02,2.17-1.12,1.94-3.52-.73-1.5,1.81-1.87,2.93.93,5.57,1.5,11.2,2.93,16.68.15.58.36,1.14.5,1.72.61,4.06,1.95,7.94,3.01,11.88.33,1.28.87,2.52.72,3.89-.54,1.88-2,1.58-3.62,1.26,1.79,3.88,3.77,7.36,6.09,10.68.78,1.11,1.98,2.07,1.74,3.68-.7,1.11-2.07,1.82-1.64,3.57.66,2.64,6.3,7.87,9.13,8.25.5.29.85.69,1.03,1.24-.68,2.21-.7,3.59,2.03,4.96,2.5,1.26,2.76,5.24,5.46,6.96.62.39.93,1.41,1.58,1.6,4.97,1.42,5.71,6.12,8.1,9.69,2.6,3.87,2.11,7.6.85,11.19-.9,2.55-.69,4.62-.01,6.93-.25,3.18-1.1,6.22-2.09,9.24-.41.27-.79.23-1.13-.12-.97-1.52-.7-3.23-.77-4.88.02-1.34.11-2.68-.31-3.98-.04-2.83-1.31-4.56-4-5.82-9.46-4.44-17.61-10.75-24.84-18.2-1.03,2.01.74,4.68-1.56,6.33-1.64.06-2.2-1.49-3.39-2.31.02,2.06.89,3.93.87,5.92.03,2.01.08,4.02-.03,6.03-.35,2.89-1.63,5.38-3.55,7.49-4.19,4.62-5.75,10.07-5.62,16.18.04,1.86.43,3.86-.99,5.49-3.25.64-5.14-.2-4.64-4,.26-1.97-.62-2.51-2.42-1.56-1.17.62-2.45.29-3.69.19-1.6-1.78-3.25-2.62-5.93-2.06-2.57.53-5.57.77-7.74-1.64.73-2.31,1.39-4.64,2.21-6.92.38-1.05.71-1.87-.76-2.18.1-3.07,1.53-5.3,4.28-6.67,2.5.8,4.35-1.17,6.54-1.67,1.51-.35.9-2.01.36-3.18-.24-.74-.53-1.66-.14-2.22,1.63-2.34.78-4.21-.8-6.07-.41-.48-.6-1.11-.29-1.76.25,0,.5,0,.75-.03,3.66.4,4.99-1.57,4.95-4.91.22-1.11.7-2.03,1.76-2.55,3.7-2.05,3.75-2.65.53-6.31-.32-.69-.39-1.41-.28-2.16.07-.36.21-.69.39-1.01,3.57-2.17,1.17-4.07-.28-6.01.16-3.13.15-6.28.71-9.38,1.64-1.8,4.95-3.17,1.62-6.28-.39-1.1-.39-2.2,0-3.29,3.65-3.64,3.04-6.03-2.29-10.64-.62-1.56-.46-3.19-.51-4.81.11-1.48-.03-2.93-.49-4.36-.32-1.77-.37-3.56-.3-5.35.06-5.12.03-10.24,0-15.36-.1-1.59,0-3.18.29-4.75.71-2.1.54-4.26.48-6.42,0-3.03-.1-6.07,1-8.97.6-1.39.64-2.85.55-4.33.24-8.28,2.71-16.19,4.11-24.27.96-3.04.35-6.17.52-9.25.07-2.46.09-4.93.09-7.4,0-.8-.06-1.53-1.2-1.26-4.61.94-5.91,4.39-3.56,9.48-.02.78-.41,1.38-.99,1.86-4.64,2.35-5.28,4.23-2.8,8.31.25.74.22,1.46-.15,2.15-5.31,4.21-7.79,12.63-5.4,18.35.21,1.79-.2,3.43-1.28,4.88-1.92,1.55-3.01,3.38-2.3,5.98.28,1.03,0,2.06-.88,2.76-4.32,3.39-2.86,9-5.05,13.23-.69,1.34,1.08,2.1,1.86,3.03.38.69.4,1.4.12,2.13q-3.58,3.31-.44,7.95c.49,3.69.38,7.38.09,11.06-1.41,2.08-2.16,4.12.4,5.95.24.51.37,1.04.43,1.6.08,1.14.07,2.28-.44,3.34-2.85,2.24-1.53,4.01.65,5.68.34.72.32,1.44.04,2.17-.5.91-1.24,1.59-2.01,2.26-3.25,2.86-3.23,5.63.64,7.55,2.75,1.37,4.41,3.72,6.66,5.51,2.06,1.63,2.13,4.2,2.16,6.64.03,2.05-.1,4.14,2.2,5.22.78.65,1.27,1.44,1.1,2.5-.77,1.58-2.23,2.49-3.51,3.58-1.8.6-2.91-.32-3.81-1.72-.62-.07-1.22-.17-1.54-.81-1.06-3.36-3.4-4.84-6.86-4.65-.75-.26-1.26-.77-1.54-1.51.03-4.4-1.68-7.53-6.26-8.56-1.05-.36-1.07-1.38-1.42-2.19-1.36-1.72-1.19-4.54-3.84-5.33-1.95.16-2.79-1.6-4.16-2.43-.47-1.6.01-3.03.76-4.41,4.13-1.77,5.19-6.14,2.81-11.67-.49-1.55-.29-3.03.41-4.46.91-1.99,1.12-4.31,2.95-5.87.72-.62.59-1.57.23-2.43-1.11-1.38.38-3.24-.86-4.59-.13-.34-.14-.68-.02-1.03,1.36-1,2.78-1.94,3.31-3.69,1.29-2.61,2.05-5.2-.09-7.77.27-1.26.54-2.52.81-3.78.24-.28.53-.52.84-.72,3.72-2.15,3.93-5.65.24-7.7-2.3-1.28-1.98-3.31-2.3-5.26.57-2.31,1.88-4.31,2.81-6.46,1.3-1.57,1.62-3.24.45-5.04-.11-.35-.05-.67.19-.95.54-1.27,1.07-2.54,1.61-3.82.28-.22.6-.35.96-.36,3.39-.74,3.43-.83,1.84-4.36,0-1.04.63-1.62,1.49-2.03.63-.48,2.24-.26,1.8-1.42-.47-1.25-1.46.08-2.23.18-1.02.37-2.07.57-3.14.7-.38-.02-.72-.15-1.03-.38-.21-.32-.35-.66-.43-1.04-.1-2.77,1.9-4.36,3.49-6.19,1.31-.74,2.7-1.39,2.86-3.19.1-1.12.8-1.89,1.78-2.24,2.63-.95,2.83-2.85,2.19-5.15.27-1.43,1.05-2.32,2.56-2.43,1.53.58,3.01.69,4.11-.79,1.01-1.35.68-2.6-.55-3.68-.59-.73-1.03-1.52-.99-2.51.72-3.01,4.3-1.69,5.66-3.75,1.6-.83,3.83-.79,4.29-3.17.5-1.55.92-3.18,2.81-3.66,1.75-.44,1.26-1.88,1.37-3.05.02-1.31-.01-2.63.38-3.9,1.03-1.63,1.67-3.18-.84-4.08-.25-.26-.4-.57-.49-.91-.22-2.07,2.2-3.55,1.3-5.77-.24-1.2-1.02-2.38-.11-3.6.03-.51.05-1.02.08-1.54,2.34-2.04.27-2.82-1.09-3.81-.4-.66-.41-1.36-.19-2.08.64-2.33,3.63-3.24,3.6-5.98-.13-.89-.13-1.77.28-2.61,2.41-2.19,1.54-4-.66-5.66-.08-1.06-.04-2.12-.03-3.17.67-1.56,1.37-3.14-.82-4.14-.63-.75-1.1-1.52-.39-2.47l.08-.77c.7-.91.15-2.01.45-2.98,1.1-1.75,1.53-3.39-.73-4.61-.18-.32-.27-.66-.3-1.02.14-1.24.51-2.48-.21-3.67l.04-3.15c3.62-1.41,6.84.08,10.08,1.41,1.01,1.3.82,2.84.88,4.33-.02,1.12-.05,2.24-.87,3.14,3.92-6.48,6.15-13.49,6.64-21.05.03-.4.1-.8.18-1.19.13-.89.17-1.77.08-2.67-.83-8.27-1.5-8.76-9.83-8.95-2.71-.06-5.95,1.31-7.99-1.89-.08-1.08.28-2.03.82-2.94,1.49-1.27,1.49-2.55.01-3.83,0-.51,0-1.02,0-1.54,1.9-.95,2.68-2.12.77-3.83.26-.77.51-1.53.77-2.3,1.22-1,2.78-1.86,1.51-3.83.27-1.38.52-2.77,1.48-3.89,2.42-2,2.79-4.81,3.08-7.66.02-.49.05-.98.07-1.47,2.54-.26,1.9-2.35,2.25-3.88,1.06-3.3,2.61-6.35,4.58-9.19,1.58-.8,2.68-2.64,4.8-2.29.34.88.17,1.79.19,2.7-1.52,1.41-.63,3.17-.69,4.79-.32,1.66-.24,3.22,1.14,4.45.66.71.85,2.06,2.12,1.92,1.28-.14,1.25-1.41,1.59-2.34.73-2.01,1.61-3.98,1.59-6.19.35-1.73,1.07-3.28,2.28-4.58,3.07-2.49,4.79-6.11,7.47-8.94,2.37-2.86,4.68-5.75,5.62-9.46,1.73-2.36,3.8-4.38,6.12-6.16,3.81-1.9,7.93-3.41,9.98-7.62.76-.28,1.51-.56,2.27-.85,1.82.14,2.99-.82,3.85-2.3,1.28-.74,2.57-1.48,3.85-2.22,1.51,1.89.83,3.99.54,6.03-.15,1.07-.84,2.14.18,3.14.26.51.53,1.02.79,1.53-.61,3.33-.62,6.66.01,9.99,0,.24.02.48.02.72,1.1.72,2.14.84,3.07-.28.67-1.38.53-3.04,1.5-4.31.25-.26.51-.51.76-.77,1.4-.17,2.88,0,4.09-.97.63-2.94,3.96-4.02,4.68-6.89,1.78-2.49,4.14-4.08,7.16-4.68,1.83,1.19,3.53.28,5.25-.35.77-.22,1.58-.35,2.21-.9,1.21-1.07,2.54-2.03,3.02-3.69.28-.48.78-.64,1.22-.9,1.95,0,3.67-.79,5.38-1.59,0,0-.03.1-.03.1,1.33,1.08,2.73,1.72,4.41.75,2.01-1.24,4.59-1.28,6.33-3.05.77,0,1.54,0,2.31,0,1.32.86,2.19.01,3.07-.8l-.02-.03Z"/><path class="cls-68" d="m185.84,159.15c.18,8.06-2.82,15.11-6.79,21.98-1-.41-.67-1.11-.71-1.61-.06-.63,0-1.27.02-1.91.46-1.53.67-3.05-.13-4.55-3.28-.58-6.57-1.17-9.85-1.75-2.8-1-5.6-2.01-8.41-3.01-1.52-.32-3.06-.61-3.92-2.13-5.64-2.86-10.18-6.99-13.86-12.09-.72-1-1.46-1.99-1.51-3.3-.26-1.55-.95-2.87-2.14-3.92-1.93-3.05-2.76-6.44-3.06-10,.37-2.06,1.81-2.1,3.43-1.82,3.38,3.34,5.73,7.53,9.1,10.87.47,1.69,1.77,2.38,3.34,2.75,8.31,4.95,17.03,8.73,26.84,9.39,2.55.34,5.31-.76,7.64,1.1Z"/><path class="cls-13" d="m147.62,146.13c-4.04-2.77-6.13-7.18-9.17-10.8-1.87-1.6-2.59-3.83-3.34-6.05-.12-.53-.24-1.07.3-1.46,5.61,5.05,11.64,9.56,18.58,12.59,4.31,1.88,8.68,3.88,13.54,4.03,4,1.89,8.24.79,12.34.79,3.25,0,5.08.89,5.43,4.2.32,2.99,2.29,5.83.74,8.97-2.77.97-5.73-.28-8.51.71-9.78-1.05-18.69-4.44-26.81-9.95-1.38-.65-2.39-1.68-3.09-3.02Z"/><path class="cls-18" d="m157.6,389.25c-.27-.77-.53-1.53-.8-2.3-1.93-3.77-2.2-7.92-2.7-12.01,1.3-2.22,2.99-1.12,4.51-.43,1.68.76,3.5,1.3,4.81,2.73.71,1.53.65,2.99-.44,4.33-.01.25-.02.51-.03.76-.96,1.46.06,2.81.24,4.21.07,1.75.29,3.52-1.03,4.98-.51.75-1.02,1.5-1.52,2.26-.47.52-.98.54-1.52.13-.22-.06-.45-.11-.68-.14-1.19-1.34-1.1-2.92-.82-4.53Z"/><path class="cls-77" d="m134.59,301.8c.91,2.22,1.04,4.51,4.43,5.4,2.01.52.99,4.36.76,6.67-.2,2.06-2.17,1.69-3.66,1.74-.72-.9-.62-1.89-.34-2.9.35-1.27,0-1.95-1.44-1.9-1.45.05-3.35.76-3.88-1.28-.47-1.78.04-3.55,1.78-4.66.19-1.04-.33-2.28.8-3.08.52-.44,1.04-.47,1.55,0Z"/><path class="cls-77" d="m127.67,353.96c.58-1.52.47-3.26,1.51-4.62,2.02,2.34,2.12,9.79.17,11.65-1.09,1.04-2.1.4-3.13-.12-.21-.15-.3-.31-.26-.49.04-.19.1-.28.16-.28.52-2.05,1.04-4.09,1.56-6.14Z"/><path class="cls-77" d="m134.57,374.68c5.53.94,7.85,4.39,6.18,9.18-1.95-.97-2.98-2.72-3.91-4.57-1.62-1.11-3.21-2.24-2.27-4.61Z"/><path class="cls-77" d="m167.58,211.29c-1.44-2.47-1.9-5.43-3.84-7.65.51-.02,1.03-.04,1.54-.07,2.02-.98,3.55-.05,4.96,1.29.42.32.4,1.11,1.17,1.05.55.43.94,1.47.49,1.57-2.21.49-2.34,3.19-4.33,3.8Z"/><path class="cls-77" d="m193.61,103.09c2.14,3.63-.84,6.4-1.88,9.36-.58,1.65-2.85.53-4.23-2.41-.02-1.27.6-1.28,1.49-.77,1.83,1.49,1.81-.62,2.09-1.28.72-1.71,1.2-3.51,2.53-4.9Z"/><path class="cls-77" d="m134.57,319.44c1.79-.15,2.29.75,2.36,2.45.1,2.21-.5,4.14-1.58,5.99-1.18.83-2.23.67-3.15-.42-.22-.38-.21-.75.04-1.11,1.27-2.14.86-4.84,2.32-6.91Z"/><path class="cls-77" d="m208.97,80.11c.83,4.74-2.19,7.4-5.37,9.98-.86-.17-1.37-.69-1.55-1.54,1.73-3.28,4.33-5.85,6.92-8.44Z"/><path class="cls-77" d="m154.54,251.15c-1.13-.74-2.41-1.34-3.36-2.27-1.96-1.91.24-1.34,1.05-1.58.77-.25,1.54-.49,2.3-.74,1.67-1.02,3.44-1.41,5.36-.91.42.56.47,1.13,0,1.69-.12,1.78-1.22,2.32-2.82,2.31-1.12,0-2.38-.16-2.54,1.5Z"/><path class="cls-77" d="m202.05,88.55c.74.29,1.26.8,1.55,1.54-.8,3.12-4.24,4.53-4.97,7.79-.22,1.01-1.77.57-2.74.63,1.24-3.83,3.84-6.81,6.16-9.96Z"/><path class="cls-77" d="m225.08,66.34c.42,2.47-.44,4.13-2.94,4.9-1.46.45-2.99.52-3.56,2.71-.36,1.36-2.27,1.1-3.48.02,3.33-2.54,6.66-5.08,9.98-7.62Z"/><path class="cls-77" d="m154.52,254.18c.27-.24.55-.48.82-.71,2.55-.14,1.63,1.67,1.59,2.91-.07,1.91-1.54,2.34-3.03,2.83-1.27.42-2.24.57-2.45-1.14.49-.76.99-1.52,1.48-2.28.53-.53,1.06-1.07,1.59-1.6Z"/><path class="cls-77" d="m142.29,385.38c4.8-1.67,6.77-.33,6.86,4.65-.25-.02-.5-.03-.75-.04-2.86-.42-4.72-2.18-6.16-4.53l.05-.08Z"/><path class="cls-77" d="m235.77,70.14c-1.68-.19-1.88-1.64-1.36-2.54,1.25-2.19.37-4.43.64-6.63,1.5-.77,3.05-1.74,2.33,1.37-.6,2.58-1.07,5.2-1.6,7.8Z"/><path class="cls-77" d="m187.48,97.76c-1.45.95-2.34,3.01-4.62,2.29.64-2.57,1.89-4.78,3.83-6.7,1.3,1.15.6,2.49.83,3.64.21.18.27.36.19.53-.08.16-.16.25-.23.25Z"/><path class="cls-77" d="m175.96,114.59c2.26,3.06-.93,5.34-1.24,8.04-.07.62-1.3.33-1.83-.38.36-2.82,1.25-5.43,3.08-7.66Z"/><path class="cls-77" d="m245.01,73.97c2.04-1.54,4.08-3.08,6.12-4.62.29.78,1.05,2.18.17,2.28-3.37.41-2.96,3.83-4.76,5.41-.94-.5-2.05-.9-1.56-2.35,0-.24.01-.49.03-.73Z"/><path class="cls-77" d="m134.64,295.69c.24,0,.47-.01.71-.02.77-.6,1.54-.67,2.3,0-.72,2.2-1.33,4.45-3.07,6.14-.52,0-1.03,0-1.55,0,.53-2.04,1.07-4.07,1.6-6.11Z"/><path class="cls-68" d="m135.42,129.26c1.49,1.78,2.43,3.84,3.04,6.07-.99.5-2.35.3-2.97,1.53-.29-1.5-1.4-2.87-.79-4.53.68-.92-.2-2.21.72-3.07Z"/><path class="cls-77" d="m125.37,366.24c.02-.26.05-.51.07-.77,1.99-.42,2.71,1.24,3.79,2.31-.52.51-1.03,1.01-1.55,1.52-.78.96-1.21,2.64-3.03,1.52.24-1.53.48-3.05.72-4.58Z"/><path class="cls-77" d="m258.05,64.79c1.02-.77,2.05-1.53,3.07-2.3.51-.24,1.02-.48,1.53-.71.7.54.94,1.32,1.12,2.13.03.34-.1.63-.35.87-1.79.22-3.57,3.44-5.37.02Z"/><path class="cls-30" d="m128.45,423.91c.13,1.69-.61,2.98-2.16,3.49-1.62.53-2.39-.86-3.19-1.95,1.84-.33,3.4-1.61,5.35-1.53Z"/><path class="cls-77" d="m157.6,389.25c1.36,1.31.5,3.03.82,4.53-1.04-.23-2.08-.46-3.12-.69-.26-.27-.73-.33-.78-.8.04-2.01,1.78-2.29,3.07-3.03Z"/><path class="cls-77" d="m188.99,109.27c-.62.02-1.18.16-1.49.77-1.98-1.25-2.04-2.81-.77-4.6.5-.48,1-.45,1.49,0,.78,1.17.92,2.48.77,3.84Z"/><path class="cls-77" d="m139.19,277.98c-.27.26-.54.53-.82.79-.82.04-1.71-.12-2.26.75-.95-.09-2.83.49-1.09-1.53.64-.74,1.25-1.51,1.87-2.26,1.89-1.18,1.64.87,2.3,1.53,0,.24,0,.48,0,.72Z"/><path class="cls-77" d="m241.17,77.79c-.04,1.83.31,3.71-.76,5.39-1.36.36-1.98-.41-2.35-1.56.78-1.49,1.46-3.05,3.11-3.83Z"/><path class="cls-77" d="m244.99,74.7c.52.78,1.04,1.57,1.56,2.35-1.54.67-3.08,1.48-4.62-.02.57-1.36,1.96-1.64,3.05-2.32Z"/><path class="cls-77" d="m168.29,216.66c.2-1.12-.23-2.1-.69-3.07,1.26.12,2.87-.44,3.02,1.73.11,1.68-.76,2.19-2.24,2.11-.03-.26-.05-.51-.08-.77Z"/><path class="cls-77" d="m188.23,105.43h-1.49c-.57-1.68-2.07-3.51.78-4.61.26-.36.5-.37.74.02-.82,1.53.42,3.06-.03,4.59Z"/><path class="cls-77" d="m231.19,63.19c.16,3.17-1.01,4.13-3.85,2.3.86-1.47,2.3-1.98,3.85-2.3Z"/><path class="cls-77" d="m178.28,109.23c.67,1.33,1.35,2.77.37,4.11-.76,1.05-1.75.06-2.62-.23.71-1.32,1.06-2.84,2.25-3.88Z"/><path class="cls-77" d="m171.41,126.14c1.6.16,1.63,1.31,1.45,2.47-.29,1.86-1.83,1.2-2.96,1.37,0-1.48.96-2.57,1.51-3.83Z"/><path class="cls-77" d="m169.14,132.28c1.49-.08,2.36.43,2.24,2.11-.14,2.16-1.75,1.61-3.02,1.73.68-1.19.8-2.5.77-3.83Z"/><path class="cls-77" d="m168.37,137.65c1.49-.09,2.33.43,2.26,2.11-.07,1.59-1.07,1.73-2.27,1.72,0-1.28,0-2.56.01-3.83Z"/><path class="cls-68" d="m138.54,146.85c2.11.54,3.46,1.5,2.14,3.92-1.48-.89-2.16-2.21-2.14-3.92Z"/><path class="cls-77" d="m238.06,81.63c.78.52,1.57,1.04,2.35,1.56-1.54.98-3.02,1.68-3.82-.81.49-.25.98-.5,1.47-.75Z"/><path class="cls-77" d="m263.42,64.01c-.89-.53-.74-1.41-.77-2.23.77-.29,1.54-.58,2.31-.87,0,0-.03.1-.03.1.3.26.48.59.56.99-.09,1.29-.44,2.31-2.08,2.01Z"/><path class="cls-19" d="m131.55,336.33c-.02-.77-.04-1.54-.05-2.31,0-.51,0-1.02.01-1.53.01-.25.03-.51.05-.76,1.36,1.25.27,3.3,1.49,4.59-.5.4-1,.47-1.5.01Z"/><path class="cls-70" d="m169.06,182.91c.02-.26.04-.51.06-.77,1.28.01,1.27.65.74,1.53-.11,1.05.35,2.24-.73,3.06-.02-1.28-.05-2.55-.07-3.83Z"/><path class="cls-5" d="m170.63,193.64c0,1.28,0,2.56,0,3.84-.24.32-.48.3-.72,0,0,0-.08.01-.08.01,0-1.54,0-3.08,0-4.62,0,0,.07.02.07.02.65-.15.93.07.73.75Z"/><path class="cls-61" d="m165.26,221.99c.84.06,1.75-.09,2.31.79-1.28,1.21-2.56.76-3.84.01-.25,0-.51,0-.76-.02.55-.89,1.46-.72,2.29-.78Z"/><path class="cls-78" d="m169.07,178.32c-.25-.26-.5-.52-.74-.78,0-1.03.01-2.05.02-3.08,1.25,1.1.59,2.55.72,3.86Z"/><path class="cls-51" d="m174.46,238.9c0-.25,0-.51,0-.76,2.01-1.77.66-3.57.04-5.37h-.04c-.39-.5-.48-1.03-.22-1.61,2.96-1.21,2.22-4.5,3.08-6.6,2.28-5.53,3.17-11.63,2.2-17.76-.03-.38.06-.73.25-1.06,2.08-.93,3.37-2.46,3.91-4.72.95-3.96,3.3-7.64,2.29-11.97h0c1.86-.99,2.24-2.72,2.3-4.61h0c4.71-3.13,7.39-7.57,8.5-13.05.33-.97.95-1.66,1.94-1.97.63-.13,1.26-.02,1.89.02,1.04.06,2.14.1,2.4-1.25.22-1.16-.55-1.88-1.41-2.49-.84-.6-1.86-.79-2.8-1.16-2.91-1.15-3.39-2.57-1.61-5.24,1.83-2.74,3.73-5.43,5.59-8.15.95-.79,1.46-1.85,1.81-3,.45-.99,1.41-1.51,2.08-2.3.71-2.31,1.47-4.32,4.32-5.1,2.14-.58,1.27-3,1.48-4.69.24-1.46,1.06-2.42,2.44-2.92.76-.48,2.51-.06,2.13-1.52-.36-1.4-1.64-.3-2.56-.31-5.28-.04-10.05,2.1-15.05,3.29-3.37.8-4.26-.28-3.43-3.55.56-2.21.99-4.43,2.74-6.15,2.12-2.09,1.04-4.75,1.03-7.21.02-.63.14-1.21.77-1.53,4.22-1.48,5.71-4.5,4.93-8.8.12-.35.33-.65.61-.89,2.25-1.14,3.39-3.21,4.88-5.14,3.18-4.13,5.67-8.9,10.01-12.07.99-.72,2.05-1.64,3.47-.85.36.69.24,1.42.22,2.15-2.83,3.24-.9,5.78,1.23,8.29.22.29.36.62.44.98.02.25.01.51-.05.75-.32,1.38-1.77,3,.09,4.07,1.81,1.05,3.69.01,4.65-1.47,1.26-1.94,2.58-3.64,4.49-5,1.4-.99.43-2.92,1.08-4.29,2.51-3.11,5.32-5.93,8.44-8.44.31.1.61.22.91.35,1.03.32,1.97.26,2.77-.55.21-.27.42-.53.61-.81.59-1.13,1.22-2.19,2.5-2.72,4.14-1.71,7.35-4.8,10.85-7.44,1.05-.94,1.4-2.22,1.67-3.53.13-.33.32-.62.58-.88.48-.28,1.01-.34,1.55-.29,5,.56,8.52-2.2,11.87-5.32.14-.1.29-.2.43-.3,1.02-.25,2.05-.5,3.07-.75,1.38.24,2.93.96,3.52-1.18.1-.35.31-.62.61-.82.85-.41,1.76-.46,2.68-.42,1.23.32,2.46.77,3.64-.15.38-.07.72.01,1.03.24-1.56,5.28-3.28,10.52-3.05,16.14-.78.68-1.43,1.45-1.04,2.56.33.95,1.07.84,1.81.51,1.9-1.09,3.95-1.57,6.13-1.53,1.69-.99,3.69.27,5.37-.76.77,0,1.53,0,2.3,0,1.68,1.03,3.68-.23,5.37.76.83.13,1.75-.31,2.57.49-2.86,4.18-7.07,7.66-7.17,13.32-.85,1.78-.17,3.66-.39,5.48-.06.64-.4,1.2-.55,1.81-.14.59-.45,1.41.41,1.58.69.14.94-.7,1.29-1.2.26-.25.51-.51.77-.76,4.64,1.15,7.45-2.33,10.86-4.29.95-.69,1.36-1.82,2.19-2.61,4.97-1.98,10.18-1.51,15.34-1.54.76.9,1.53,1.3,2.3,0,.84.02,1.75-.14,2.3.76.93,1.11,1.97,2.19,1.54,3.85,0,.25,0,.51,0,.76-.76.26-1.32.62-.76,1.54-.13,1.21-.54,2.29-1.53,3.07-.59.57-1.13,1.17-1.68,1.78-.76,2.29-1.99,4.5-1.1,7.04-.21.96-.92,2,.46,2.69-.62,2.78-1.37,5.55-.76,8.43,3.39,1.65.62,4.08.77,6.15-2.05,5.11-4.09,10.22-6.14,15.33-.41.38-.85.7-1.39.86-2.62.49-5.81-.54-7.4,2.75-1.29.57-2.66.44-4,.5-4.34-.99-5.85,1.76-6.84,5.18-4.15,3.05-4.19,9.77-.08,13.43,2.49,4.31,2.96,9.48,5.79,13.56.31-2.24-1.19-5.55,2.24-6.36,2.87-.68,6.03-3.43,9,0,.14,5.81-.33,11.63.28,17.42-1.33,2.33-3.04,4.63,1.13,6.09,1.24.43.22,1.53-.28,2.18-2.63,3.47-2.53,7.66-3.14,11.66-.3,1.98,1.89,2.99,2,4.84.18,6.48-.37,12.97.29,19.44.54.6,1.24,1.1,1.36,1.99.05.39.03.77-.03,1.16-.47,1.84-.3,3.66.27,5.46.22.98.3,1.97.31,2.97,0,1.67,0,3.34.02,5.02-.07,2.05.14,4.11-.26,6.14-.78,1.89-2.22,3.83.38,5.49.37.68.5,1.42.56,2.18.09,1.71-.12,3.43.37,5.11.16.73.19,1.46,0,2.19-.96,1.59-1.12,3.05.65,4.23.73,1.07,1.15,2.22.84,3.54-1.28,1.75-.62,3.14.81,4.4.72,1.52,1.25,3.06.73,4.77-1.12,1.54-1.28,2.97.54,4.14.35.65.38,1.33.18,2.02-.81,1.35-1.49,2.69.35,3.8.24.27.43.58.56.91.36,1.26.34,2.51-.1,3.75-1.77,1.91-.41,3.25.85,4.61.24.57.36,1.15.39,1.77.04,5.84.14,11.68-.04,17.51-.04.4-.15.8-.3,1.17-2.3,1.63-1.74,3.6-.63,5.64.22,3.51-.24,6.9-1.72,10.12-2.26,2.06-3.49,4.36-1.86,7.42,1.21,2.29-.25,4.19-1.06,6.15-1.38,3.35-1.81,6.45,1.83,8.72.51.87.56,1.79.23,2.73q-3.3,3.46,1.61,6.29c1.87,5.5,2.87,11.2,3.92,16.89.2,1.35,1.08,2.7.08,4.07h-.01q-2.55,3.86,2.65,7.82c2.43,3.02,5.67,5.25,8.09,8.28h0c1.77,1.06,3.3,2.37,4.34,4.18.76,1.31,1.21,2.59-.49,3.58l.06-.03c-.87.77-2.35-.04-3.08,1.2.38,1.7,1.89,1.4,3.04,1.72.87.23.68.99.81,1.59-1.7,2.52-.81,4.48,1.32,6.17.89,1.01,1.4,2.35.71,3.4-.63.96-2.1.46-3.18.38-.94-.07-1.85-.54-2.77-.84-1.5-2.11-2.8-4.16-6.08-2.32-1.49.83-1.66-1.37-2.25-2.37-.85-3.15-1.29-6.45-3.35-9.17-.04,4.41,1.43,8.7.75,13.13-.52,1.81.17,3.71-.45,5.51-1.4,1.94-2.63-.33-3.95-.17-2.03-4.77-5.35-2.48-8.42-1.53-3.1.13-6.22.59-9.2-.76.47-2.26,0-4.16-2.04-5.48-.56-1.58-.72-3.2-.57-4.86.1-.23.24-.43.43-.59.82-.68,2.32-.83,2.2-2.26-.15-1.76-1.94-1.19-2.92-1.79-1.02-.83-1.04-1.89-.69-3.02.98-1.42,2.23-2.72,1.09-4.71-1.1-1.92-2.77-1.22-4.33-1.16-1.49-.11-2.73-.87-4.02-1.51-1.74-.98-2.12-2.13-.44-3.53.68-.57,1.45-1.08,1.93-1.85,1.29-2.09.85-3.14-1.77-2.79-1.67.03-3.3.8-4.99.21-1.01-.79-1.42-1.85-1.41-3.1.27-1.66,1.31-2.74,2.71-3.53,2.53.28,4.07-.13,2.1-3.01-.19-1.01.19-1.78,1.02-2.34,2.32.05,2.24-1.04,1.23-2.59,1.53-5.95,3.88-11.64,5.31-17.62.46-.82,1.34-1.06,2.09-1.51,1.21-.73,1.8-1.74,1.24-3.14-.37-.92-1.14-1.36-2.11-1.15-1.51.32-2.5,1.13-2.18,2.87.07.37.19.72.27,1.09-1.75,4.18-5.54,6.37-8.84,9.04-.91.55-1.76,1.18-2.64,1.77-1.87.94-3.25,2.94-5.7,2.64-3.45-1.87-4.2.01-4.16,3-3.05,2.98-6.87,4.52-10.84,5.76-1.37-.31-2.68-.46-3.37,1.2-3.12,2.1-6.81,2.34-10.31,3.22-.38.13-.77.21-1.16.28-2.22.32-4.5-.02-6.67.75-2.82.4-5.64.42-8.46,0-2.06-.7-4.19-.53-6.31-.5-5.84-.49-11.58-1.49-17.18-3.24-13.8-5.35-25.92-13.08-35.22-24.82-.73-1.15-1.54-2.25-2.39-3.32-.36-.58-.6-1.2-.52-1.91-3.76-4.68-6.69-9.83-9.22-15.31,1.73-.79,3.17,1.91,4.64-.04.94-3.31-.1-6.42-.95-9.55-.56-.99-.76-2.07-.81-3.18.31-2.25-.96-3.4-2.85-4.14-1.52-5.79-2.11-11.75-3.06-17.64.76-.83,1.77-1.19,2.81-1.48,3.41-1.39,3.44-1.48,1.74-5.59-.33-.42-.62-.86-.88-1.33-1.37-3.61-2.14-7.37-2.74-11.17-.02-.35,0-.71.07-1.06.22-.96.52-1.91.19-2.91-.15-.27-.29-.54-.47-.79-.7-.71-1.21-1.48-.68-2.52.1-.31.22-.61.33-.91.75-2.16-1.32-2.71-2.24-3.91-.11-1.06-.05-2.11-.04-3.17.12-.7.51-1.25.97-1.75.56-.73,1.02-1.47.08-2.26-.53-.28-1.04-.59-1.45-1.04,0-.26-.02-.51-.03-.77-.82-5.28-.15-10.59-.35-15.88-.05-1.39.09-2.79-.27-4.15.03-2.03,2.27-2.89,2.53-4.79.38-1.35-.82-1.93-1.38-2.83-.09-.34-.13-.68-.12-1.03.17-1.44-.38-2.93.37-4.31Z"/><path class="cls-51" d="m365.42,380.05c0,.26,0,.51,0,.77-.4.73-.33,1.85-1.56,1.89-.67-.08-1.1-.52-1.48-1.03-.73-.98-1.64-1.69-2.86-.98-1.75,1.02-.2,2.14.04,3.22-.38,2.26-1.77,3.56-3.94,4.1-3.86-1.5-4.28-1.28-5.63,2.98-2.78,1.52-5.59,2.88-8.79,1.11-1.11-3.41-.62-6.88-.35-10.34,1.94-2.54,5-3.19,7.69-4.43,2.46-1.14,4.48-2.46,4.04-5.62.04-.37.15-.72.31-1.06.46-.64,1.09-.98,1.85-1.11,1.1-.11,2.57-.07,2.05-1.75-.45-1.44-1.74-.96-2.84-.64-2.01.58-2.01,2.68-3.07,3.98-.33.19-.68.31-1.05.37-2.49-.4-4.9-1.17-7.48,0-2.35,1.06-3.01-.27-2.55-2.44.59-2.75,1.65-5.47,2.81-7.87,2.01-4.14,2.91-8.61,4.67-12.8,1.42-3.38,1.1-7.41,2.26-11.03.31-.97-.57-1.86-1.32-2.62-4-4.05-3.98-5.9-1.94-10.92,2.3-5.67,3.35-11.78,4.61-17.77.28-1.33-.32-3.25-1.51-3.09-3.4.45-4.09-2.28-5.7-4-.6-.64-1.43-1.08-1.85-1.92-.26-.59-.4-1.21-.45-1.85-.3-4.04.47-8.14-.64-12.14-.52-9.55-.46-19.09-.06-28.64.57-1.68.53-3.51,1.24-5.15.9-1,1.47-.4,2,.41h0c2.11,1.05,3.6,2.71,4.63,4.8.24.45.36.97.74,1.34.5,1.04,1.27,1.8,2.3,2.3,2.93,1.33,5.43,3.33,7.98,5.23,2.98,2.22,2.9,3.97-.49,5.03-2.99.94-2.91,2.44-2.17,4.86,1.59,5.25,3.09,10.53,4.43,15.86.87,3.44,1.58,6.89,1.75,10.44,0,.51,0,1.02.01,1.53,2.19,2.74,3.22,6.06,4.59,9.21.2,2.29,2.08,2.58,3.73,3.11,1.79.58,2.79,1.37.88,3.02-.24.29-.61.63-.58.95.44,4.77-3.09,9.2-1.07,14.14.6,1.47.51,3.22.11,4.85,0,.26,0,.51,0,.77,1.47,1.62.56,3.57.76,5.37,0,.51,0,1.02,0,1.53,2.05,2.1.17,4.64.76,6.91,0,1.02,0,2.04,0,3.07,1.93,3.63,1.16,7.42.62,11.18-.12.82-.8,1.26-1.67,1.27-3.29.14-1.25,2.74-1.88,4.12-.84,3.38-.64,7.19-3.97,9.51Z"/><path class="cls-77" d="m341.65,253.48c0,9.97,0,19.94,0,29.91,1.06,4.04-.36,8.24.75,12.28,0,.51.01,1.02.02,1.53,1.14,1.59,1.07,3.41,1.03,5.22.5,1.08-1.28,2.85,1.04,3.36,1.59-.64,3.07-2.71,4.79-1.43,1.69,1.25.49,3.33.1,5-1.59,6.78-3.83,13.39-5.1,20.26-.42,2.28.07,3.85,1.8,5.39,2.94,2.61,2.86,3.46-.1,5.98-1.17.99-2.35,1.96-3.31,3.15-1.05,1.23-.87,2.73-.87,4.17,0,.51-.04-.15.08.35.09.39.2.33.13-.14.82-1.25,1.89-2.51,3.35-1.47,1.3.92.24,2.31-.24,3.44-.3.7-.73,1.33-1.23,1.9-.73.66-1.26,1.42-1.1,2.49-.07.68-.42,1.23-.84,1.74-.87.79-.58,1.85-.66,2.83-1.44,4.97-2.89,9.94-3.9,15.02-2.89.96-2.36-2.41-3.94-3.11-.52-.64-.88-1.3-.24-2.07,0-1.02,0-2.05,0-3.07-1.95-3.34-1.15-6.92-.8-10.41.12-1.25.52-2.48.41-3.75-.02-1.55,1.02-3.02.32-4.62-.14-1.26-.06-2.45.84-3.46.76-3.54,1.65-7.07,1.55-10.74.24-1.54-.66-3.26.76-4.6,0-.25.02-.51.02-.76.64-6.39.64-12.79,0-19.18,0-.51-.02-1.02-.02-1.53-.9-1.1-1.07-2.3-.51-3.6.15-1.62.46-3.26-.23-4.84h-.01c-.95-1.13-1.39-2.37-.78-3.83,0-.77,0-1.54.01-2.3-.94-1.14-1.39-2.38-.78-3.83l-.76-5.37c-1-1.13-1.26-2.4-.77-3.83-.25-1.28-.51-2.56-.76-3.84-1.08-1.12-.95-2.47-.75-3.84,0-.77,0-1.53-.01-2.3-.98-1.69.26-3.69-.75-5.38,0-.77-.02-1.53-.03-2.3-1.12-1.38-1.14-2.87-.48-4.43.26-2.09.06-4.19.12-6.28-.32-2.04.65-4.16-.38-6.16,0-1.02-.02-2.05-.03-3.07-.55-1.79-.59-3.58.02-5.36v-.03c.51-.43,1.02-.43,1.52.03,1.49,2.09,3.29,3.87,5.36,5.38,2.73,1.29,4.78,3.24,5.93,6.08-.5,1.77.27,3.67-.54,5.41Z"/><path class="cls-68" d="m327.8,171.31c-1.71.29-3.41.6-5.13.86-4.8.72-5.82,2.16-4.47,6.79.29.99.55,1.83.1,3.15-4.28-5.01-5.74-10.99-7.48-16.85-1.21-1.94-1.95-3.94-.88-6.2.32-.31.69-.54,1.11-.69,2.33-.51,4.7-.2,7.06-.29,1.38,0,2.77.1,4.11-.35,11.36-2.28,21.41-6.99,29.38-15.67,2.68-2.93,4.63-6.35,6.86-9.58.81-1.16,1.18-2.99,3.27-2.54.23.57.24,1.12-.1,1.66-.2,3.94-.62,7.84-2.49,11.42-.64.67-.67,1.48-.57,2.33-5.16,14.18-16.02,21.62-29.98,25.41-.21.26-.48.44-.81.55Z"/><path class="cls-13" d="m361.55,130.02c-2.27,1.62-3.09,4.28-4.5,6.48-7.72,12.08-19.12,18.53-32.67,21.8-.61.15-1.27.06-1.91.08-1.26.69-2.62.21-3.93.35-2.41-.02-4.82.05-7.23-.04-1.83-1.06-1.09-3.04-1.64-4.56-.2-1.14.21-2.03,1.16-2.68.04-.25.08-.49.11-.74.69-5.5.81-5.6,6.96-5.27,1.65.4,3.3.52,4.93-.08.21-.28.48-.48.8-.62.99-.33,2.04-.27,3.05-.45.68-.13,1.33-.34,2.01-.46,1.02-.42,2.04.52,3.06,0,6.34-.78,11.82-3.81,17.13-7.02,4.14-2.5,7.92-5.59,11.86-8.42,1.45-.05,1.34.68.81,1.62Z"/><path class="cls-51" d="m318.63,95.46c-2.25,1.59-4.53,3.15-6.76,4.78-1.96,1.42-3.28-.06-4.75-.94,2.96-3.13,6.78-4.75,10.74-6.13.77.59.83,1.43.77,2.3Z"/><path class="cls-51" d="m343.94,398.45c1.06.1,2.85-.2,1.02,1.63-1.34,1.35-2.64,2.7-3.32,4.51-.9-.64-1.8-1.28-2.69-1.93-3.78-2.76-3.69-4.23.39-6.51-.23,4.31,2.31,3.06,4.61,2.3Z"/><path class="cls-51" d="m337.04,126.92c-.43-.98-1.26-2.03-.3-3.02,1.33-1.36-.07-2.13-.47-3.13,1.98-.81,4.02-1.36,6.68-1.53-2.03,2.92-3.57,5.59-5.91,7.68Z"/><path class="cls-16" d="m328.6,210.52c0,.26,0,.51,0,.77,0,7.42,0,14.83,0,22.25.45.51.48,1.02,0,1.53-1.58-2.05-.66-4.41-.73-6.61-.15-4.95-.05-9.91-.05-14.86-.61-1.24-1.3-2.5.76-3.07Z"/><path class="cls-16" d="m327.8,171.31c.11-.41.32-.68.81-.55,0,5.84,0,11.68,0,17.52,1.04,1.25,1.22,2.7.98,4.24-.42.61-1.04.85-1.61.4-.85-.66-.74-1.52-.13-2.35-.01-6.42-.02-12.85-.03-19.27Z"/><path class="cls-51" d="m336.27,110.03c-.79-.92-2.2-1.74-1.05-3.17,1.27-1.57.47-3.78,1.82-5.27,1.05.75,1.05,2.03,1.53,3.07-.15,1.89-.5,3.73-1.53,5.37-.26.27-.51.27-.77,0Z"/><path class="cls-77" d="m292.56,56.34v-2.28c1.54.22,3.25-.65,4.6.74-.76,1.03-1.52,2.05-2.28,3.08-1.44.48-1.82-.62-2.32-1.54Z"/><path class="cls-51" d="m306.36,100.05c.62,1.09.85,2.04-.67,2.64-.82.32-1.52.28-1.93-.45-.86-1.54-.57-2.84,1.07-3.71.53.37.26,1.15.77,1.53.25,0,.51,0,.76,0Z"/><path class="cls-77" d="m292.56,56.34c.77.51,1.54,1.03,2.32,1.54-.52,1.01-1.05,2.02-1.57,3.03-.25.02-.49.03-.74.03-.52.44-1.03.43-1.54-.01.51-1.53,1.02-3.06,1.53-4.59Z"/><path class="cls-51" d="m291.03,80.11c-.42.8-.94,1.63-1.97,1.19-1.07-.45-1.09-1.52-1.08-2.55.01-1.6,1.09-1.71,2.28-1.7.12,1.06-.36,2.26.77,3.06Z"/><path class="cls-51" d="m338.57,104.66c-1.4-.58-1.6-1.75-1.53-3.07.77-.25,1.54-.51,2.31-.76.07,1.34-.04,2.65-.78,3.83Z"/><path class="cls-51" d="m318.63,95.46c-.9-.55-.74-1.46-.77-2.3.77-.26,1.53-.51,2.3-.77.07,1.31-.14,2.49-1.53,3.07Z"/><path class="cls-39" d="m305.6,100.05c-.63-.32-.76-.9-.77-1.53.34-2.04-.77-4.25.77-6.14,0,2.56,0,5.11,0,7.67Z"/><path class="cls-51" d="m337.81,90.86c.54,1.11.49,2.07-.95,2.16-1.55.1-1.26-1.21-1.35-2.17.77,0,1.54,0,2.3,0Z"/><path class="cls-51" d="m331.75,143.83c-.86,1.21-2.06.6-3.15.6-.89-1.13.08-1.61.77-2.18h1.53c.02.67.2,1.25.85,1.58Z"/><path class="cls-51" d="m340.88,97.76c-1.49-.15-1.99-1.25-1.29-2.24.65-.91,1.27.65,2.05.7-.01.63-.15,1.2-.76,1.54Z"/><path class="cls-51" d="m336.27,110.03c.26,0,.51,0,.77,0,0,.77,0,1.53,0,2.3-.65.22-1.38.76-1.88-.13-.67-1.2.26-1.69,1.12-2.17Z"/><path class="cls-69" d="m302.53,77.82c-1.62,1.47-3.59.47-5.37.76,1.62-1.47,3.59-.47,5.37-.76Z"/><path class="cls-69" d="m310.2,78.58c-1.78-.29-3.75.71-5.37-.76,1.79.29,3.75-.71,5.37.76Z"/><path class="cls-68" d="m358.59,145.35c-1.28-1.13-1.1-1.91.57-2.33.05.84.55,1.78-.57,2.33Z"/><path class="cls-51" d="m167.58,438.22c0-2.66-.09-5.32,0-7.98.2-5.06,1.62-9.7,5.12-13.5,2.01-2.18,3.55-4.57,4.06-7.54.63-2.3.61-4.6,0-6.91-.41-2.41-.83-4.83-1.35-7.89,2.3,1.5,3.16,3.34,4.41,4.82,2-.28.95-1.84,1.13-2.83.29-1.59-.38-3.27.4-4.82,5.13,4.33,9.63,9.42,15.36,13.01,3.55,2.22,7.15,4.43,10.94,6.16,2.9,1.31,4.11,3.08,3.62,6.14.87,1.16-.18,2.69.75,3.85,0,1.78.01,3.57.02,5.35.84,1.18-.06,2.63.62,3.83.5,2.37-.61,3.31-2.85,3.06-1.82-.21-3.63-.57-5.45-.87-1.94-.59-3.92-.12-5.88-.28-2.16-.25-1.8-2.1-2.12-3.46-.61-2.61-1.05-5.28-3.15-7.19,1.35,1.37,1.22,3.19,1.4,4.92,0,1.9-.06,3.8.15,5.7,0,.41-.12.76-.39,1.07-.24.26-.64.49-.7.78-.87,4.35-4.06,4.81-7.65,4.62-2.35-.47-4.7-.48-7.05,0-1.48.02-2.96.04-4.44.06-1.85-.56-3.7-.56-5.54,0-.48-.03-.95-.06-1.43-.09Z"/><path class="cls-77" d="m301.77,402.3c1.76-.43,3.5-1.02,5.35-.77,1.61,3.53-1.9,4.89-3.05,7.28.86.74,2.11.52,3.05,1.13,1.28.52,2.56,1.04,3.84,1.56,2.67,1.18,3.91,3.25,3.83,6.14.12,1.06-.35,2.26.75,3.08,1.33,1.52,1.16,3.05.04,4.59,1.02,1.68.68,3.56.77,5.37,1.25,1.75,1.35,3.5,0,5.24-2.82,1.77-5.93.56-8.9.83-.53.05-1.02-.2-1.02-.83-.03-4.24-3.69-3.22-5.83-3.55-2.5-.38-5.22-.68-7.84.45-1.42.61-3.32.25-3.22-1.96.27-5.59-1.45-10.85-2.37-16.25-2.85-2.89-2.85-6.92-4.21-10.41-.06-.37-.06-.75-.02-1.12,4.57-8.69,11.05-15.96,17.4-23.33,1.02-.69,1.6-1.74,2.18-2.78,3.45-2.4,6.5-5.23,9.23-8.43.41-1.1,1.16-2.21,2.29-1.24,1.06.92-.04,1.94-.75,2.76-.48,6.52-3.28,12.36-5.38,18.41.05,1.13-.55,1.84-1.51,2.31-.27.76-.54,1.53-.8,2.29,0,1.59-.9,2.51-2.28,3.08-.77,1.02-1.54,2.05-2.31,3.07.94.85-3.66,3.09.77,3.07Z"/><path class="cls-11" d="m283.33,403.1c.01.24.02.49.02.74-.25,2.26-.29,4.48.5,6.68.47,1.31.63,2.74-.5,3.92-5.41.69-10.74-.43-16.11-.76-1.5-.55-3.05-.15-4.57-.27-6.48,0-12.95,0-19.43,0-1.32,0-2.65,0-3.97,0-1.66.13-3.36-.29-5,.27-.51.08-1.02.17-1.53.25-1.53,1.04-3.07,1.09-4.6,0-3.78,1.24-7.65.49-11.48.5-1.81-2.32.24-4.3.63-6.41.34-1.88,1.38-3.51,2.19-5.22,2.1-3.77,2.66-8.44,6.46-11.23,5.84,1.04,11.56,2.8,17.54,3.05,1.95,1.06,4.19-.25,6.14.76,3.07,0,6.13,0,9.2,0,1.1-.73,2.1-.32,3.07.3,1.69,1.07,2.73-.09,3.84-1.06h0c2.91-.67,5.95.69,8.95-1.42,1.36-.96,2.93,1.79,3.59,3.58.8,2.19,1.68,4.23,4.17,4.98.5.31.84.73.91,1.34Z"/><path class="cls-77" d="m220.41,402.98c-1.58,3.71-3.44,7.32-3.74,11.45-.56.81-1.12,1.62-1.68,2.43-2.19-1.8-2.35-3.8-1.41-6.51,1.15-3.3,3.22-6.82.07-10.33-.8-.89-1.25-2.12-1.73-3.3-.95-2.3-1.59-4.44-4.76-5.82-3.1-1.35-6.61-4.21-7.4-8.48-.15-.83-.47-1.27-1.32-1.59-4.31-1.61-4.29-1.65-1.73-5.35.54-.24,1-.05,1.36.34,7.07,7.46,15.08,14.08,20.47,23.04.79,1.31,1.7,2.53,1.87,4.11Z"/><path class="cls-77" d="m143.15,429.14c3.14.65,6.2,1.54,9.5.29,2.92-1.1,3.61,1.25,4.18,3.41-3.81.55-7.62,1.05-11.41,1.68-2.41.4-4.24.59-2.55-2.78.37-.73.2-1.73.28-2.61Z"/><path class="cls-66" d="m339.42,432.33c-.92-4.96-.35-10.1-1.84-15.08,4.04,2.96,5.22,7.24,5.62,11.89.45,1.23.77,2.46,0,3.69-.49.02-.98.03-1.48.04-.68-.56-1.62,0-2.3-.55Z"/><path class="cls-66" d="m194.39,432.85c0-.21,0-.42,0-.63-1-1.96.28-4.19-.75-6.15.36-2.04-1.06-3.84-.97-6.09,3.07.5,3.1,3.11,3.98,5.02.95,2.06.25,4.53,1.61,6.5.23.16.3.3.21.42-.09.12-.17.18-.26.18-1.32.04-2.38,1.39-3.84.75Z"/><path class="cls-11" d="m283.36,414.44c.18-1.79-.09-3.54-.87-5.12-1.03-2.1-.58-3.84.86-5.49,2.06,3.32,2.38,7.25,3.82,10.78-1.27-.06-2.54-.12-3.82-.18Z"/><path class="cls-51" d="m343.19,432.84c0-1.23,0-2.46,0-3.69.98-.24-.07,2.22,1.91,1.19,3.71-1.92,4.84-1.11,5.73,3.28-2.55-.26-5.1-.51-7.65-.77Z"/><path class="cls-51" d="m327.09,436.68c.6-.44,1.19-.9,1.81-1.32,3.94-2.65,5.66-1.91,6.61,2.85-2.9.02-5.73-.4-8.42-1.53Z"/><path class="cls-51" d="m356.08,430.67c-4.45-1.78-4.77-3.3-1.32-6.17,1.27,1.88,1.77,3.92,1.32,6.17Z"/><path class="cls-51" d="m353.95,422.91c-1.4,1.54-2.65.85-3.82-.29-.67-.65-1.04-1.47-.49-2.35,1.3-2.08,2.89-.27,4.35-.27-1.09.96.05,1.95-.04,2.92Z"/><path class="cls-64" d="m242.71,413.05c6.89.01,13.78.02,20.67.03.26.11.35.23.28.37-.07.15-.15.22-.23.22-6.91,0-13.81,0-20.72.01-.25-.14-.33-.28-.25-.42.08-.14.17-.21.25-.21Z"/><path class="cls-30" d="m131.49,436.9c-1.87-.24-3.69-.62-5.37-1.53.78-1.3,1.58-2.79,3.41-2.11,1.55.58,2.16,1.97,1.95,3.64Z"/><path class="cls-51" d="m316.35,435.92c0-1.75,0-3.5,0-5.24,3.75,1.39,3.84,1.73,1.53,5.25h-1.54Z"/><path class="cls-30" d="m150.69,440.52c-1.68.6-3-.95-4.6-.77,0-1.46.22-3.01,2.09-2.77,1.84.23,2.59,1.7,2.51,3.54Z"/><path class="cls-30" d="m169.86,442.82c-1.68.6-3-.95-4.6-.77,0-1.46.22-3.01,2.09-2.77,1.84.23,2.59,1.7,2.51,3.54Z"/><path class="cls-30" d="m178.3,443.59c-1.53-.26-3.07-.51-4.6-.77,0-1.46.22-3.01,2.09-2.77,1.84.23,2.59,1.7,2.51,3.54Z"/><path class="cls-30" d="m228.14,413.92h4.6c-.29,1.63-1.15,2.87-2.88,2.78-1.61-.08-1.73-1.48-1.72-2.78Z"/><path class="cls-41" d="m339.42,432.33c.84-.11,1.72-.39,2.3.55-1.27.07-1.58.84-1.63,1.99-.05,1.18.45,2.5-.63,3.51-.01-2.02-.03-4.03-.04-6.05Z"/><path class="cls-37" d="m178.99,438.25c2.35-1.1,4.7-1.07,7.05,0-2.35,0-4.7,0-7.05,0Z"/><path class="cls-49" d="m198.22,432.1c.02-.2.04-.4.05-.6,2.03.2,4.18-.72,6.1.59-2.05,0-4.1,0-6.16.01Z"/><path class="cls-58" d="m169.01,438.3c1.85-1.18,3.7-1.18,5.54,0-1.85,0-3.7,0-5.54,0Z"/><path class="cls-76" d="m234.28,413.68c1.41-1.17,3.07-.45,4.61-.63.25.15.32.3.23.44-.09.13-.17.2-.26.2-1.53,0-3.06,0-4.59,0Z"/><path class="cls-36" d="m212.68,429.89c-1.08-1.14-.48-2.54-.62-3.83.28.01.56.02.84.04-.07,1.27-.14,2.53-.21,3.8Z"/><path class="cls-71" d="m238.86,413.69c.01-.21.02-.43.03-.64,1.27,0,2.55,0,3.82,0,0,.21,0,.43,0,.64-1.28,0-2.57,0-3.85,0Z"/><path class="cls-76" d="m263.44,413.68c-.01-.2-.03-.4-.05-.59,1.31.06,2.71-.49,3.87.59-1.27,0-2.54,0-3.81,0Z"/><path class="cls-77" d="m285.66,54.84c-.7,3.44-4.26,2.25-6.13,3.8-.44-.37-.58-.87-.54-1.42.1-.34.28-.65.53-.9,1.9-1.1,4.06-1.14,6.14-1.47Z"/><path class="cls-77" d="m279.52,57.1v1.53c-2.13,1.32-3.85,1.39-4.61-1.49.51-.25,1.03-.5,1.54-.75.77,1.31,2.08.33,3.07.71Z"/><path class="cls-77" d="m291.03,54.05c-.09,1.09-.47,1.99-1.68,2.17-1,.15-1.28-.55-1.39-1.36.94-.59,1.94-.94,3.07-.8Z"/><path class="cls-77" d="m279.52,57.1c-1.15.32-2.91,3.24-3.07-.71,1.02-.03,2.04-.05,3.06-.08,0,.26,0,.53.01.79Z"/><path class="cls-18" d="m162.95,340.93c.01,1.79.03,3.58.04,5.36,2.45,1.73,1.96,4.52,2.51,6.94-.21,2.48-1.06,4.92-.49,7.45-.04.4-.2.75-.47,1.05-2.29.03-2.44-1.9-2.97-3.38-1.14-3.24-2.55-6.35-4.32-9.33,1.27,5.95,3.26,11.74,3.67,17.85-.21,2.18.67,4.9-2.69,5.55-3.22-.06-5.94-1.5-8.56-3.18-.83-.61-1.6-1.28-1.97-2.29-.42-2.52-1.69-4.96-.87-7.63,0-.77.02-1.54.02-2.3-.94-1.07-1.07-2.35-.96-3.69.49-1.82,1.08-3.64.21-5.52,0-.51-.02-1.02-.03-1.53-1.22-1.49-1.12-3.09-.4-4.74-.16-4.65.58-9.33-.45-13.96-.33-1.59-.29-3.16.29-4.69,1.1-1.21,1.25-2.58.64-4.07-.9-4.4-.71-9.59,1.83-12.43,3.02-3.38,2.88-6.6,3.19-10.23.06-.72.61-1.38,1.01-2.03.51-1.54,1.03-3.07,1.54-4.61-.64-.77-.61-1.68-.33-2.52,1.28-3.98,2.02-8.1,3.27-12.08.47-1.49,1.31-2.72,2.42-3.8.01-.77.03-1.53.04-2.3.52-2.99.92-6.03,3.06-8.44.25-.51.51-1.02.76-1.53.1-3.78,1.5-7.06,3.84-9.97.84-.31.75-1.67,2.28-1.68v10.12c-1.08,3.27.3,6.71-.74,9.98-1.12,6.3-2.14,12.62-3.43,18.89-.39,1.9-.3,3.76-.42,5.64-.93,1.15.13,2.68-.75,3.84-.81,3.02-.85,6.1-.79,9.2-1.03,1.95.24,4.19-.75,6.15,0,1.53-.02,3.07-.03,4.6-.63,5.37-.63,10.74,0,16.11.01,1.79.02,3.58.03,5.36.86,1.16-.17,2.69.74,3.85Z"/><path class="cls-18" d="m220.41,402.98c-6.35-10.5-15.4-18.67-23.7-27.49-.27-.27-.53-.54-.8-.81-2.54-1.61-4.02-4.02-5-6.78.04-.37.19-.69.44-.97,4,4.41,8.24,8.56,12.88,12.3,6.57,5.29,14.19,8.72,21.71,12.34-1.84,3.8-3.69,7.61-5.53,11.41Z"/><path class="cls-42" d="m159.9,366.22c-.56-6.66-2.95-12.93-4.45-19.64,1.99.06,2.54,1.35,3.14,2.54,1.52,3.04,3.08,6.05,3.98,9.36.32,1.17.42,2.57,1.83,3.16,1.36,1.52.87,2.75-.59,3.83-.02,3.6-.12,7.19-.74,10.74.19.29.14.53-.13.73-3.12.45-5.09-3.19-8.33-2.35-2.26-1.43-4.86-2.49-5.82-5.34.17-.57.41-1.04,1.14-.74,2.44,1.3,4.89,2.59,7.66,3.09,1.52.72,2.75.74,2.68-1.41-.04-1.33.43-2.72-.36-3.98Z"/><path class="cls-51" d="m199.77,117.7c2.16,2.38,2.14,5.18.08,7.2-2.19,2.14-2.09,4.96-3.35,7.32-.84,1.59-.04,2.1,1.56,1.74,1.6-.36,3.71-.17,4.73-1.13,3.81-3.61,9.14-.52,13.14-3.37,1.16-.83,2.78.79,2.82,2.26.07,2.53-2.07,1.98-3.65,2.1-1.79-.25-3.58-.7-5.38,0-6.04.55-11.67,2.97-17.63,3.87-1.45.01-1.34-1.09-1.05-1.85,2.07-5.42,3.75-11.03,7.19-15.82.51-.77,1.02-1.54,1.53-2.3Z"/><path class="cls-51" d="m207.44,146.85c-.77.51-1.53,1.02-2.3,1.53-.59.98-.71,2.2-1.53,3.07-2,2.9-3.96,5.84-6.02,8.7-1.36,1.9-.99,3.02,1.27,3.55.85.2,1.79.23,2.53.63,1.82.99,3.84,2.18,2.8,4.68-1.13,2.71-3.28,1.6-5.19.85-.13-1.98-1.42-3.04-3.06-3.81-.51-.01-1.03-.02-1.54-.03-.62-.91-3.46.41-2.3-2.29,0-.25.02-.51.02-.76,3.21-8.05,8.52-14.63,14.55-20.7.44-.44.92-.1,1.13.47-.14,1.37.37,2.79-.36,4.11Z"/><path class="cls-77" d="m149.11,369.34c1.41,2.2,4.49,2.65,5.5,5.26.66,4.13,2.33,8.08,2.19,12.35-2.05.12-3.11-.77-3.05-2.91.04-1.4.16-2.82-.04-4.19-.31-2.19-1.26-3.77-2.97-5.59-2.26-2.41-5.35-3.39-7.41-5.79-2.65-3.08-2.45-4.95.89-7.11.94-.6,1.18-2.07,2.6-2.02.96,2.46,1.41,5.03,1.56,7.66-.9,1.13.69,1.5.72,2.34Z"/><path class="cls-77" d="m201.31,113.89c-.54-2.5-1.84-4.79,1.67-6.79,1.36-.78,1.63-4.03,2.75-6.12,2.08-3.88,4.8-7.08,7.59-10.42,1.89-2.27,3.15-4.25,6.36-3.54.4.83-.03,1.49-.51,2.06-4.31,5.12-8.23,10.52-11.68,16.27-.39.65-1.08,1.05-1.59,1.61h0c-1.03,2.64-1.36,5.74-4.59,6.92Z"/><path class="cls-77" d="m207.44,142.26c-5.99,6.25-10.48,13.61-15.32,20.71-2.98-1.76-1.13-4.12-.07-5.46,2.9-3.64,5.28-7.67,8.37-11.22,1.69-1.95,5.16-3.03,5.31-6.82.07-1.77,3.07-.8,4.74-1.05.37,2.37-1.61,2.9-3.04,3.85Z"/><path class="cls-51" d="m205.9,106.96c3.35-7.51,8.68-13.64,13.78-19.94,1.01-1.56,2.28-2.86,3.86-3.85,2.13,1.53,1.05,3.51.76,5.38-2.54,1.54-6.09,1.97-6.48,5.89-.02.22-.27.42-.44.61-2.7,3.03-5.77,5.72-7.42,9.64-.6,1.42-2.12,2.57-4.07,2.27Z"/><path class="cls-77" d="m152.2,294.14c-.48,3.11-.58,6.18.63,9.2.37.92.38,2.36-1.35,1.49-2.22-1.11-2.68.34-3.03,1.9-.88,3.93-1.95,7.84-1.61,11.93-.28.24-.29.73-.76.78-2.62-.03-3.71-1.78-2.58-3.71,1.63-2.76,1.61-5.79,2.41-8.66.49-1.78.83-3.44,2.7-4.26,1.39-.61,1.23-1.59.84-2.84-.85-2.7.04-4.73,2.74-5.83Z"/><path class="cls-77" d="m179.85,205.92c0,.26-.01.51-.02.77.33,3.12-.09,6.02-2.32,8.44-2.48-1.5-3.17-3.22-.59-5.27.37-.29.86-.31.74-1.03-1.08-6.3,1.87-11.68,4.06-17.21.56-1.41,1.92-1.95,3.47-1.81.91,1.06.5,2.22.04,3.22-1.94,4.24-2.63,8.99-5.38,12.89Z"/><path class="cls-51" d="m177.52,215.12c.77-2.81,1.55-5.62,2.32-8.44,1,.5,1.56,1.21,1.38,2.43-.74,5-1.42,10.01-2.18,15-.32,2.11-2.88,3.41-1.99,6.13.25.76-1.54.97-2.57.98-.65-1.45-.19-2.69.75-3.84,0-.26,0-.51,0-.77-.96-1.52-.15-2.68.76-3.83.16-2.63.68-5.18,1.54-7.67Z"/><path class="cls-77" d="m198.24,120.01c-2.05,5.12-4.09,10.24-6.14,15.36-.31.78-1.06,1.54,0,2.31-.71,1-1.24,2.51-2.87,1.49-1.53-.95-1.32-2.64-.46-3.67,1.72-2.06,1.71-4.81,2.89-6.78,1.26-2.1,1.93-4.1,2.42-6.38.46-2.16,2.23-2.53,4.16-2.34Z"/><path class="cls-77" d="m159.1,271.12c-1.79,6.14-3.57,12.27-5.36,18.41-1.45-.16-1.83-1.09-1.82-2.4.04-4.22,1.1-8.25,2.32-12.22.7-2.27,2.54-3.41,4.86-3.78Z"/><path class="cls-51" d="m236.57,93.91c1.35,2.85,1.24,5.16-2.26,6.26-1.14.35-1.52,1.24-1.58,2.33-.08,1.55-1.29,2.05-2.42,2.62-1.71.86-3.62,1.98-5.25.38-1.66-1.65-.62-3.48.54-5.1.2-.28.17-.73.24-1.1,1.95-.23,1.08,2.07,2.49,2.6,2.32-1.95,3.59-5.18,6.68-6.43.52-.52,1.04-1.03,1.55-1.55Z"/><path class="cls-77" d="m195.94,166.05c4.31.69,4.54.98,3.06,3.81-.73.29-1.24.8-1.53,1.53-2.63,3.72-4.14,8.32-8.42,10.75-1.92-.29-1.79-1.63-1.21-2.83,1.09-2.28,2.26-4.66,4.48-5.97,2.9-1.71,2.83-4.66,3.62-7.28Z"/><path class="cls-51" d="m179.85,205.92c1.03-5.62,3.93-10.62,5.34-16.11.26-.25.51-.51.77-.76,1.5,1.94,2.02,3.73.59,6.2-1.29,2.24-1.82,4.96-2.43,7.52-.57,2.39-1.81,3.51-4.27,3.15Z"/><path class="cls-77" d="m191.33,367.77c1.52,2.3,3.05,4.6,4.57,6.9-2.58.76-4.45.84-5.37-2.64-.48-1.82-3.27-2.39-4.33-4.74-1.35-3-.78-4.15,2.06-4.89.6.32.77.86.78,1.49.86,1.24,1.8,2.43,2.29,3.88Z"/><path class="cls-77" d="m235.02,95.46c-1.66,2.04-3.25,4.14-5,6.1-.68.76-1.28,2.18-2.6,1.69-1.13-.42-.65-1.76-.87-2.7-.11-.45-.46-.85-.7-1.27,0,0,0,0,0,0-1.15-1.66-2.1-3.35-.75-5.37,2.79,3.82,6.59,1.14,9.92,1.53Z"/><path class="cls-51" d="m264.95,70.9c.21,1.57-.21,2.89-1.53,3.85-2.98,1.59-5.7,3.58-8.27,5.72-1.48,1.24-2.98,1.66-4.74,1.72-.36-.08-.68-.26-.94-.53-.23-1.59,1.28-2.03,1.99-3,2.37-1.4,4.28-3.49,6.85-4.6.17-.03.34-.05.51-.08.76-.52,1.53-1.03,2.29-1.55.92-1.39,1.79-2.92,3.83-1.54Z"/><path class="cls-51" d="m189.05,182.14c3.05-3.39,4.72-7.86,8.42-10.74,0,2.72.66,5.66-2.93,6.97-.56.2-.82,1.53-1.01,2.38-.64,2.86-2.41,4.02-5.26,3.7.26-.77.52-1.53.78-2.3Z"/><path class="cls-77" d="m131.55,336.33c.5,0,1,0,1.5-.01,1.09.93,1.13,2.51.21,2.93-2.52,1.16-2.13,3.75-3.31,5.52-1.69-1.23-3.38-2.46-5.07-3.7.47-1.47,2.18-1.31,2.81-2.42,1.61-.24,2.69-1.35,3.85-2.33Z"/><path class="cls-77" d="m140.72,270.35c2.52-3.57,5.42-6.83,8.46-9.96,1.65,2.44,1.65,4.39-1.56,5.46-1.2.4-2.1.82-2.02,2.6.08,1.83-1.34,2.87-3.34,2.67-.86.44-1.62.68-1.54-.77Z"/><path class="cls-77" d="m166.8,248.88c-.76,3.52-2.58,6.64-3.84,9.97-2.31-2.49-1.92-7.84.7-9.87,1.05-.81,2.07-.78,3.14-.1Z"/><path class="cls-77" d="m264.95,70.9c-1.6-.3-2.62.85-3.83,1.54-.96-2.96,1.99-3.62,3.31-4.73,3.54-2.99,7.77-4.9,12.54-5.21,1.04-.07,1.68.4,1.77,1.49,0,0,.01.04.01.04-.81.85-1.72,1.49-2.95,1.51-4.67-.95-7.49,2.49-10.85,4.62,0,.25,0,.49,0,.74Z"/><path class="cls-77" d="m149.12,413.77c.27-.5.54-1.01.8-1.51,2.05-1.26,3.6-3.34,6.12-3.84,1.92.29,1.67,1.57,1.23,2.85-.29.85-1.08,2.15-1.64,1.85-2.43-1.31-4.04,4.19-6.52.65Z"/><path class="cls-77" d="m164.5,353.19c-.51-2.3-1.01-4.6-1.52-6.9,4.33-.07,4.1,3.82,5.15,6.32.93,2.19-1.34,2.85-2.86,3.65-.86-.87.09-2.2-.78-3.07Z"/><path class="cls-77" d="m162.2,260.38c-.99,2.82-.84,6.06-3.06,8.44-2.09-.52-2.45-1.91-1.96-3.78.69-2.62,1.71-4.87,5.02-4.66Z"/><path class="cls-51" d="m201.31,113.89c1.53-2.31,3.06-4.62,4.59-6.93,1.62,6.09.02,8.85-5.37,9.21.26-.76.52-1.52.77-2.28Z"/><path class="cls-51" d="m177.53,291.83c1.02,4.09,2.04,8.18,3.07,12.27-.76.66-1.52.61-2.28,0-1.02-4.09-2.04-8.18-3.06-12.27.76-.61,1.52-.67,2.27,0Z"/><path class="cls-77" d="m251.91,79.33c-1.02.52-1.79,1.29-2.29,2.32-.51,1.45-1.26,2.58-3.07,2.27-1.05-2.24-1.51-4.28,1.94-4.56,1.23-.1,1.53-.75,1.98-1.8,1.49-3.47,4.94-4.84,8.36-3.58,0,0,0,0,0,0-2.78,1.16-5.61,2.27-6.91,5.34Z"/><path class="cls-51" d="m178.31,304.1h2.28c.26.26.51.51.77.77.74,2.81,1.48,5.61-2.3,6.9-.95.52-1.94.89-3.04.77,0-.37.03-.75-.03-1.12-.45-2.85.63-3.57,3.17-2.04.29-2.03-.62-3.6-.85-5.28Z"/><path class="cls-51" d="m182.9,334.02c.11,1.06-.36,2.26.77,3.07.71,2.17.48,4.22-.77,6.14-1.57-3.95-3.05-7.93-3.1-12.27,3.1-1.08,2.23,1.88,3.1,3.06Z"/><path class="cls-51" d="m207.44,142.26c1.01-1.28,2.02-2.57,3.04-3.85.52-.76,1.05-1.51,1.57-2.27.24-.38.49-.39.75-.03,1.42,3.28,1.18,5.67-3.07,6.2-2.86.35-.51,3.53-2.29,4.54,0-1.53,0-3.06,0-4.59Z"/><path class="cls-77" d="m162.15,391.53c.02-1.78.04-3.56.05-5.34.51-.39.22-1.17.76-1.54,1.51.79,3.48,1.3,2.95,3.64-.43,1.93-1.32,3.55-3.77,3.24Z"/><path class="cls-51" d="m225.1,93.92c.25,1.79.5,3.58.75,5.37-3-.73-3.16-3.46-3.76-5.7-.41-1.5.49-2.62,2.22-2.74.54.37.25,1.15.76,1.54,0,.51.02,1.02.03,1.53Z"/><path class="cls-77" d="m146.1,322.52c-.01,1.53-.02,3.06-.04,4.6-.5.39-.21,1.16-.75,1.54-2.23-.26-2.98-1.93-2.87-3.73.12-1.98,1.67-2.96,3.63-3.18.22.16.3.33.23.51-.07.18-.13.27-.2.27Z"/><path class="cls-77" d="m163.73,222.79c1.28,0,2.56,0,3.84-.01.5,0,.99,0,1.49,0,1.96,2.5-1.41,3.51-1.53,5.43-1.27-1.8-2.54-3.6-3.81-5.41Z"/><path class="cls-77" d="m159.89,245.78c.51-.76,1.03-1.52,1.54-2.28.5-.26,1-.52,1.51-.78,1.61-.59,2.19-.13,1.56,1.55.19,3.61-2.42,3.02-4.6,3.07,0-.52,0-1.04,0-1.56Z"/><path class="cls-77" d="m139.94,285.67c.16-1.86,1.41-3.14,2.38-4.58,2.16.73,2.14,2.35,1.33,3.93-.84,1.64-2.2,2.04-3.71.64Z"/><path class="cls-48" d="m173.72,250.4c-.01,7.16-.02,14.32-.03,21.48-1.61-3.11-.51-6.44-.71-9.66-.2-3.16-.04-6.34-.04-9.51-.62-.87-.78-1.69.23-2.4.18.03.37.06.55.09Z"/><path class="cls-77" d="m137.65,295.67c-.77,0-1.54,0-2.3,0,.52-1.9.78-3.9,2.28-5.37,2.88,1.78,1.94,3.58.02,5.38Z"/><path class="cls-77" d="m169.91,197.48c.24,0,.48,0,.72,0,1.53-.04,2.86.25,3.03,2.12.16,1.7-.17,3.1-2.26,3.25-.47-.05-.47-.54-.74-.78,0-1.57.08-3.16-.75-4.6Z"/><path class="cls-77" d="m146.85,353.2c0,1.28,0,2.55,0,3.83-2,.11-3.06-.69-3.09-2.83-.02-1.69.44-2.71,2.32-2.53.54.37.25,1.15.76,1.54Z"/><path class="cls-77" d="m164.49,244.27c-.02-1.02-.56-1.51-1.56-1.55,1.47-2.46,4.08-3.61,6.16-5.36.06,2.01.33,4-2.78,4.01-1.56,0-.61,2.28-1.82,2.89Z"/><path class="cls-77" d="m140.72,270.35c.33.62.9.76,1.54.77-.51,2.3-3.4,3.41-3.07,6.14-.8-.47-1.11-1.66-2.3-1.53.83-2.11,2.44-3.66,3.83-5.37Z"/><path class="cls-77" d="m162.93,376.95c.03-.25.07-.49.13-.73,1.32.29,2.85.51,2.87,2.25.03,1.87-1.15,2.86-2.97,3.11-.01-1.54-.03-3.09-.04-4.63Z"/><path class="cls-51" d="m182.9,343.23c.04-2.07,1.15-4.01.77-6.14.55,3.32,2.92,6.64.02,9.96-.26-1.27-.52-2.55-.79-3.82Z"/><path class="cls-51" d="m176.76,246.57c-.41,1.76-.73,3.59-3.05,3.83,0,0-.03.01-.03.01-1.17-1.28-.93-2.56,0-3.84,0-.76.02-1.53.02-2.29.25-.35.5-.37.75-.01h0c.95.59,1.71,1.36,2.3,2.3Z"/><path class="cls-77" d="m163.81,365.47c.6-1.21.8-2.49.59-3.83,0,0,.12,0,.12,0,.48-.4.2-1.17.73-1.54,1.21.61,2.68,1.1,2.18,2.9-.49,1.78-1.79,2.57-3.63,2.47Z"/><path class="cls-77" d="m175.23,227.4c.1,1.35-.04,2.65-.75,3.84,0,.51-.02,1.02-.03,1.54-1.28-.62-2.67-1.17-2.17-3.05.4-1.51,1.18-2.54,2.95-2.32Z"/><path class="cls-53" d="m162.18,331.72c-1.22-5.37-1.22-10.74,0-16.11,0,5.37,0,10.74,0,16.11Z"/><path class="cls-51" d="m246.55,83.92c1.02-.76,2.05-1.51,3.07-2.27,0,0,0,0,0,0,.79,1.28.49,2.55-.01,3.82-1.41.98-2.88,1.66-4.6.77,0-.26,0-.52,0-.78.51-.52,1.02-1.03,1.54-1.55Z"/><path class="cls-77" d="m173.68,246.57c0,1.28,0,2.56,0,3.84-.9.55-.73,1.46-.76,2.29-2.42-2.81-2.21-4.55.75-6.14Z"/><path class="cls-56" d="m145.32,328.65c.02-.63.14-1.2.75-1.54,0,4.86,0,9.73,0,14.59-.25.25-.5.25-.74-.01,0-4.35,0-8.69,0-13.04Z"/><path class="cls-77" d="m145.32,341.69c.25,0,.5,0,.74.01,0,1.53,0,3.06,0,4.59-3.35-1.73-3.49-2.61-.75-4.6Z"/><path class="cls-77" d="m143.75,279.54c.02-.25.03-.5.05-.75.59-.94-.47-1.07-.78-1.57.6-1.11,1.42-1.82,2.74-1.19.74.35,1.14,1.03.96,1.87-.36,1.63-1.66,1.65-2.96,1.64Z"/><path class="cls-77" d="m169.86,183.67c-.02-.62-.14-1.19-.74-1.53,0-1.02,0-2.05,0-3.07,1.46-.19,2.46.48,2.74,1.86.31,1.51-.97,2.09-2,2.75Z"/><path class="cls-77" d="m212.81,136.12c-.25,0-.5.01-.76.03.15-1.71-.6-2.51-2.33-2.34,1.34-1.29,3.21-.77,4.79-1.35,1.24-.46.73.73.59,1.36-1.03.5-1.8,1.27-2.29,2.31Z"/><path class="cls-77" d="m264.96,61.71c0-.23,0-.47-.02-.7,1.28-.53,2.57-1.06,3.85-1.58.78,2.74-1.93,3.13-3.07,4.58-.82-.58,0-1.71-.77-2.3Z"/><path class="cls-77" d="m169.07,232.77c-1.18-1.02-.57-2.72-1.48-3.84,1.13.17,2.69-.5,2.97,1.38.18,1.18.1,2.31-1.49,2.46Z"/><path class="cls-51" d="m188.27,184.44c1.17,2.5,1.4,4.53-2.3,4.6.32-1.76,1.03-3.32,2.3-4.6Z"/><path class="cls-51" d="m174.49,232.77c.82,1.8,4.74,3.61-.04,5.37.01-1.79.03-3.58.04-5.37Z"/><path class="cls-51" d="m177.53,291.83h-2.27c.05-1.34-.07-2.65-.77-3.84,1.02-.78,2.03-.53,3.05,0,.57,1.28.57,2.56,0,3.84Z"/><path class="cls-51" d="m176,276.49c-.51.26-1.02.51-1.53.77-.46-.05-.48-.54-.76-.77,0-1.28,0-2.55,0-3.83h2.28c.57,1.28.57,2.56,0,3.84Z"/><path class="cls-51" d="m174.49,286.45c-.01-1.53-.02-3.06-.03-4.6.17-.11.35-.21.52-.32,2.64.51,2.44,2.24,1.79,4.16-.73.35-1.27,1.24-2.28.76Z"/><path class="cls-77" d="m131.56,330.95c.69-1.19.8-2.49.78-3.82.94.53,1.92.87,3.02.75-.76,1.65-1.44,3.4-3.8,3.07Z"/><path class="cls-10" d="m225.07,92.4c-.61-.34-.74-.91-.76-1.54,0-.77,0-1.53,0-2.3-.28-1.79.71-3.76-.76-5.38,1.85-1.15,1.48.51,1.5,1.29.08,2.64.03,5.29.03,7.93Z"/><path class="cls-77" d="m170.63,193.64c-.24-.25-.49-.5-.73-.75,0-1.03,0-2.05,0-3.08,1,.04,2.09-.04,2.22,1.37.11,1.16.13,2.32-1.48,2.47Z"/><path class="cls-77" d="m285.66,61.72c0,.25,0,.49,0,.74-.26.28-.51.27-.76,0,.04-1.64-.27-3.5,2.13-3.77,1.69-.19,3.08.17,3.24,2.25-.4.42-.91.37-1.42.29-1.22-.83-2.27-.62-3.18.5Z"/><path class="cls-55" d="m168.34,267.3c.4-3.32-.9-6.76.74-9.98-.39,3.32.9,6.76-.74,9.98Z"/><path class="cls-9" d="m181.37,391.56c0,2.26.03,4.52-.03,6.78-.02.95-.2,1.97-1.5.88,1.7-2.37.19-5.12.91-7.61.02-.08.18-.17.27-.17.12,0,.23.08.35.12Z"/><path class="cls-51" d="m284.89,62.46c.25.01.51.01.76,0-.74,2.91-2.03,3.11-3.83.78.8-1.12,2.01-.64,3.07-.78Z"/><path class="cls-7" d="m165.26,360.1c-.02.62-.15,1.19-.73,1.54,0-2.82-.02-5.63-.03-8.45,1.11.81.65,2.01.78,3.07,0,1.28,0,2.56-.01,3.84Z"/><path class="cls-6" d="m177.53,159.09c2.72-1.57,5.68-.36,8.51-.71-.06.26-.13.51-.19.77-2.77-.02-5.54-.04-8.31-.06Z"/><path class="cls-77" d="m175.98,222.79c-.25,1.28-.51,2.55-.76,3.83-2.36-1.79-2.09-3.07.76-3.83Z"/><path class="cls-63" d="m176.78,402.29c1.2,2.3,1.21,4.61,0,6.91,0-2.3,0-4.61,0-6.91Z"/><path class="cls-51" d="m182.9,334.02c-1.12-.93-.85-3.27-3.1-3.06-.24-.26-.48-.52-.72-.78,2.91-.35,4.17.94,3.82,3.84Z"/><path class="cls-51" d="m174.49,286.45c.76-.25,1.52-.51,2.28-.76-.86,1.14.3,1.6.77,2.3h-3.05c0-.51,0-1.03,0-1.54Z"/><path class="cls-20" d="m162.21,311.01c.3-2.04-.76-4.25.75-6.15-.31,2.04.75,4.25-.75,6.15Z"/><path class="cls-47" d="m173.71,276.48c.25.26.5.51.76.77,0,1.28,0,2.56,0,3.84.26.17.35.34.26.51-.09.17-.17.26-.26.26,0,0-.02,0-.02,0-1.45-1.62-.48-3.58-.75-5.37Z"/><path class="cls-78" d="m143.02,277.23c.95.18,1.96.33.78,1.57-1.07-1.3-2.56-.57-3.85-.79.82-1.09,2.02-.64,3.08-.78Z"/><path class="cls-77" d="m264.96,61.71c.9.55.74,1.46.77,2.3-.55.91-1.46.74-2.3.77v-.77c1.02-.43,1.53-1.19,1.53-2.3Z"/><path class="cls-74" d="m174.46,244.27c-.25,0-.5,0-.75.01.27-1.79-.71-3.76.75-5.38,0,1.79,0,3.58,0,5.37Z"/><path class="cls-7" d="m146.85,353.2c-.61-.34-.74-.91-.76-1.54,0-1.28,0-2.56.01-3.84,1.44,1.63.48,3.59.75,5.38Z"/><path class="cls-23" d="m178.23,173.06c1.45,1.48,1.08,3,.13,4.55-.04-1.52-.09-3.03-.13-4.55Z"/><path class="cls-3" d="m170.66,202.07c.25.26.49.52.74.78,0,1.02.01,2.05.02,3.07-.26.5-.52.56-.78,0,0-1.28.02-2.57.02-3.85Z"/><path class="cls-38" d="m192.1,163.73c-.14,1.68,1.76,1.3,2.3,2.29-1.27-.26-3.89.84-2.3-2.29Z"/><path class="cls-12" d="m146.1,322.52c0-.26-.02-.51-.03-.77,0-.77,0-1.53.01-2.3.25-.26.5-.52.76-.78-.16,1.3.51,2.76-.74,3.85Z"/><path class="cls-24" d="m162.95,340.93c-1.25-1.09-.58-2.55-.74-3.85,1.25,1.09.58,2.55.74,3.85Z"/><path class="cls-43" d="m162.97,384.65c-.02.63-.16,1.2-.76,1.54.16-1.3-.51-2.76.74-3.85,0,.77.01,1.54.02,2.3Z"/><path class="cls-47" d="m288.73,60.94c.51,0,1.02,0,1.53,0,.26,0,.51,0,.77,0,.51,0,1.02,0,1.54.01-1.08,1.27-2.55.58-3.85.75-.19-.17-.25-.34-.18-.5.07-.17.13-.25.19-.25Z"/><path class="cls-60" d="m212.03,420.71c-1.26-1.09-.58-2.55-.75-3.85,1.26,1.09.58,2.55.75,3.85Z"/><path class="cls-73" d="m163.74,295.67c.16-1.3-.51-2.76.75-3.84-.17,1.3.51,2.76-.75,3.84Z"/><path class="cls-68" d="m147.62,146.13c1.35.68,2.34,1.72,3.09,3.02-2.18.17-3.25-.8-3.09-3.02Z"/><path class="cls-50" d="m276.51,293.37c-.02.76-.04,1.52-.06,2.28-.65,2.23-.32,4.96-3.07,6.14-.51.51-1.02,1.01-1.54,1.52-.96.96-1.99.66-3.02.14-.3-.19-.58-.4-.87-.62-1.58-1.27-3.75-1.88-4.54-4.04-.53-.52-1.06-1.05-1.59-1.57-1.99-1.17-3.73-1.1-5.36.75-.99,1.13-2.22,2.06-3.81,2.27-.25.26-.51.51-.76.77-.81,1.47-1.73,2.86-3.07,3.92-.25.23-.48.46-.7.71-.27.28-.55.56-.82.83-2.54.06-3.41-2.08-4.78-3.58-.18-.3-.37-.6-.58-.88-2.1-1.94-3.46-4.44-5.24-6.62-2.43-2.37-4.65,1.23-7.02.24-1.62-2.1-3.39-4.13-3.9-6.87-.42-.37-.97-.57-1.28-1.07-.6-1.39-1.56-3.03-.18-4.2,1.57-1.34,2.88.3,3.86,1.29,2.38,2.42,4.62,2.4,7.34.49,1.57-1.1,3.42-2.39,5.62-1.18.25.03.5.06.75.08.26.23.47.49.65.79.4,1.12.64,2.3,1.07,3.41.19.48.37.97.55,1.46,1.7,4.15,1.91,4.24,5.52,1.83,3.7-2.47,7.43-4.78,12.16-4.3.92.3,1.52.99,2.12,1.68.51.57,1.01,1.15,1.55,1.69,4.04,4.09,5.08,4.09,9.29.02.63-.61,1.23-1.58,2.19-1.15,1.13.51.96,1.65.68,2.69-.25.53-.8.72-1.2,1.08Z"/><path class="cls-18" d="m283.33,403.1c-.27-.27-.53-.54-.8-.81-2.4-2.97-4-6.35-5.15-9.97-.16-1.59,1.18-1.77,2.16-2.29,3.81-1.3,7.37-3.12,10.73-5.33,1.26-1.44,2.61-2.74,4.6-3.07,2.14-.39,3.47-2.2,5.35-3.04.62.3,1.19.62.77,1.47-6.19,7.45-12.18,15.06-17.67,23.05Z"/><path class="cls-77" d="m340.87,392.29c-.76.02-1.52.05-2.28.07-1.29-5.89-2.58-11.78-3.87-17.68-1.27-1.08-1.86-2.29-.77-3.84,2.47.12.93,3.47,3.09,3.83,4.21-1.75,8.76-2.35,13.05-3.83.25,0,.5,0,.75-.02.43-.55.79-1.19,1.65-1.11.53.19.95.44.65,1.12h.01c-1.43,3.13-4.3,4.58-7.1,6.09-1.33.72-2.91,1.03-3.87,2.36-1.67,2.3-.66,4.93-.93,7.39-.2,1.86.41,3.78-.38,5.61Z"/><path class="cls-51" d="m329.37,192.11c.54-1.51,2.15-1.94,3.07-3.07,1.35.06,2.55-1.37,4.21-.3-3.71,6.87-7.8,13.64-8.04,21.78-1.12.81-.65,2.01-.76,3.07-2.44-1.06-3.44-2.57-2.49-5.4.75-2.23.69-4.73,1.17-7.07.39-1.86,1.07-3.65,3.46-4.77-1.97-.67-4.26-.02-4.42-2.54-.11-1.7.2-3.07,2.27-3.23.24.78-.54,2.59,1.53,1.53Z"/><path class="cls-62" d="m228.16,202.83c1.01.52,2.03,1.05,3.04,1.57,1.6.83,2.51,1.95,1.53,3.82-1.52.83-3.04-.36-4.56-.02-3.91.08-7.54.93-10.59,3.59-.7.61-1.56,1.7-2.61.74-.87-.79-.6-1.86.07-2.78.63-3.58,2.89-5.71,6.18-6.92,2.31-.56,4.62-.55,6.94,0Z"/><path class="cls-51" d="m241.16,284.09c-1.9-.11-3.64.73-4.9,1.83-3.77,3.27-6.68,1.95-9.5-1.21-.33-.37-.75-.68-1.18-.94-.18-.11-.47-.05-.78-.07-1.08,1.51.73,2.83.31,4.28-3.1,1.08-2.23-1.87-3.1-3.06-1.16-1.71-1.46-3.82.09-5.02,1.39-1.08,3.21-.08,4.86.83,1.53.84,1.66,2.42,2.71,3.42,2.48,1.24,4.34-.01,6.13-1.53,1.72-.89,3.19-.22,4.6.77.25.23.5.47.75.7Z"/><path class="cls-62" d="m228.22,193.67c-1.05.8-2.08-.43-3.12-.03-4.39-.6-7.7,1.73-11.03,4.04-1.29-.66-1.21-1.93-1.37-3.09.04-1.33.66-2.37,1.62-3.24,2.16-2.82,5.25-3.15,8.46-3.17,3.82-.12,5.47,1.55,5.44,5.49Z"/><path class="cls-51" d="m215.05,209.75c.09.85.18,1.7.29,2.73,3.8-3.37,7.47-6.47,12.84-4.29-1.08,1.24-2.09,2.33-3.99,2.56-1.8.22-3.69.7-4.8,2.64-.46.8-1.61,1.19-2.44,1.78-1.27.91-2.65,1.04-3.94.26-1.31-.8-.99-2.25-.92-3.5.1-1.85,1.4-2.23,2.96-2.18Z"/><path class="cls-51" d="m277.16,292.58c-.08-.83.38-1.75-.35-2.5-5.85,6.5-7.88,6.41-13.4-.55,2.11-1.2,3.47-.17,4.61,1.53,1.28.63,2.56.63,3.83,0,1.28-1.53,2.56-3.07,3.83-4.6,1.28-1.14,2.56-1.12,3.83,0,.72,1.33.39,2.77.32,4.13-.08,1.55-.72,2.77-2.68,1.99Z"/><path class="cls-51" d="m333.21,350.9c0,5.11-.02,10.23-.03,15.34-2.87-.67-4.26-2.84-3.56-5.74.35-1.47.65-3.07,1.47-4.28,1.38-2.04,1.42-3.63.15-5.86-1.4-2.46-.07-4.9,2.7-6.37,0,1.28.01,2.55.02,3.83-.49.96.33,2.25-.76,3.07Z"/><path class="cls-11" d="m277.92,392.32c1.58,3.3,3.73,6.35,4.62,9.97-2.74.41-3.71-1.46-4.56-3.52-.57-1.37-.61-3-1.83-4.06-.51-.44-1.29-1.63-1.72-.9-2.61,4.46-5.84.42-8.7.8,3.58-1.02,7.16-2.05,10.74-3.07.88-.48,1.09.29,1.46.77Z"/><path class="cls-51" d="m261.89,287.94c-4.44.13-8.19,2.01-11.76,4.51-4.8,3.36-5.59,2.96-6.67-2.92,1.31-1.2,2.28-.34,3.24.54.92.86,1.86,1.34,2.92.22.62-1.31,1.85-1.8,3.07-2.3.26-.26.51-.51.77-.77,1.35-1.05,3.62.63,4.6-1.53,1.28-.57,2.56-.57,3.83,0,.53.75.7,1.5,0,2.25Z"/><path class="cls-26" d="m281.1,210.49c4.7.89,6.09,2.58,5.8,7.22-1.35-1.79-3.3-2.43-5.06-3.38-1.8-.61-3.6-.57-5.4-.02-.86-.17-2.43.55-2.4-.69.04-1.67,1.27-2.92,3.15-3.14,1.3-.53,2.61-.52,3.91,0Z"/><path class="cls-51" d="m262.61,252.81c.92,2.03,3.35,1.62,4.71,2.94-2.84,1.36-4.88,1.07-7.09-1.74-2.26-2.88-3.63-5.95-4.71-9.31-.56-1.74-.23-2.94,1.63-3.48,0,.26,0,.53,0,.79-.21,1.18.2,2.16.99,3.01.78,1.54,1.56,3.08,2.33,4.61,1.08.82,1.72,1.92,2.13,3.18Z"/><path class="cls-51" d="m310.83,151.45c-.07.79-.93,1.41-.49,2.31.33,1.81.42,3.61-.03,5.41-.7,2.1,1.27,3.98.53,6.08-1.19,0-2.57-.09-2.72-1.47-.34-3.11-1.43-6.16-.96-9.34.31-2.08,1.59-3.05,3.67-3Z"/><path class="cls-54" d="m281.01,199.76c1.98-2.52,4.7-1.99,6.86-.92,2.88,1.42,3.95,4.13,2.6,8.1-1.54-3.4-3.84-5.24-7.1-5.68-.53-.9-2.55.54-2.36-1.5Z"/><path class="cls-51" d="m277.96,270.27c.63,3.35-2.87,1.7-3.81,3.15-1.28.57-2.56.57-3.83,0-.26-.48-.51-.95-.77-1.43-.38-1.36-.99-.2-1.49-.14l-.07.04c-2.12.4-4.5,1.36-4.82-2.2.58-.82,1.46-.84,2.33-.87.84-.02,1.68-.01,2.51-.01,2.21.04,4.45-.17,6.63.42.79.08,1.58.14,2.34.37.38.13.71.34.98.65Z"/><path class="cls-51" d="m313.29,370.07c.18-.83.36-1.66.6-2.78-.89.52-1.51.89-2.13,1.25-2.39-1.38-1.66-2.83.01-4.14,1.66-1.3,3.62-1.86,5.01.12,1.05,1.5,1.07,3.4-.6,4.78-.82.68-1.84.82-2.89.76Z"/><path class="cls-51" d="m228.22,193.67c-.9-2.73-2.37-4.9-5.44-5.49,1.55-2.63,2.98-3.07,4.67-1.1,1.2,1.39,3.14,2.13,3.63,4.17.59,2.44-.15,3.1-2.86,2.42Z"/><path class="cls-51" d="m307.12,409.94h-5.26c2.08-3.05,5.21-4.83,5.26-8.41,1.06-.63,2.02-.84,2.98.28.87,1.02.25,1.96-.06,2.81-.53,1.46-1.73,2.42-3.1,3.12-1.77.9-.2,1.49.18,2.2Z"/><path class="cls-51" d="m214.31,197.41c2.19-3.95,6.29-5.38,10.79-3.77-2.69.77-4.73,2.64-6.89,4.25-1.8,1.34-3.5,1.65-5.4.37.34-.57,1.12-.36,1.51-.84Z"/><path class="cls-51" d="m275.7,64.78c1.02-.25,2.04-.5,3.06-.75.39,3.52-2.97,3.41-4.76,4.49-2.17,1.3-4.47,3.75-7.52,1.6,1.93-3.76,5.71-4.32,9.22-5.34Z"/><path class="cls-51" d="m186.73,229.82c5.96-1.64,6.08-2.24,6.77,5.25-2.97-.83-5.02-2.85-6.77-5.25Z"/><path class="cls-51" d="m314.79,417.63c-1.12-2.14-2.18-4.32-3.83-6.14,2.58-1.41,4.49-1.06,5.58,1.94.74,2.02,1.02,3.71-1.76,4.19Z"/><path class="cls-51" d="m252.67,300.24c1.68-1.53,3.3-3.13,5.05-4.56,2.12-1.72,3.15-.08,4.12,1.54-1.89.93-4.35.59-5.5,3.24-.45,1.04-2.48,1.01-3.67-.22Z"/><path class="cls-51" d="m237.36,294.89c1.76,2.31,3.51,4.61,5.27,6.92-1.25.6-2.5.56-3.75,0-.77-1.02-1.53-2.05-2.3-3.07-.27-1.39-1.29-2.93.78-3.85Z"/><path class="cls-77" d="m275.7,64.78c-2.84,2.18-6.74,2.53-9.22,5.34-.51.01-1.02.02-1.52.04.24-1.81.87-3.22,3.07-3.12.69.03,1.19-.34,1.58-.9,1.61-2.33,3.77-2.21,6.09-1.36Z"/><path class="cls-51" d="m333.95,370.85c.26,1.28.51,2.56.77,3.84-2.33,1.27-3.73.03-4.29-2-.55-2.02.39-3.43,2.76-3.38.04.62.15,1.21.76,1.54Z"/><path class="cls-51" d="m249.62,85.49c0-1.27,0-2.55.01-3.82,3.2.69,5.12-1.63,7.32-3.19,2.05-1.45,3.86-3.27,6.47-3.73-3.52,2.93-6.89,6.14-11.3,7.68-1.68.58-1.39,2.29-2.5,3.06Z"/><path class="cls-51" d="m255.78,268.81c-.41.27-.86.51-1.24.82-1.42,1.19-2.53.58-3.5-.61-.86-1.06-.86-2.26.36-2.84,1.29-.6,2.94-1.23,3.58,1.02-.28.81,1.43.62.8,1.6Z"/><path class="cls-51" d="m242.73,302.54c1.53,1.31,3.06,2.62,4.58,3.94-1.59,4.23-3.09,1.85-4.6-.07-.57-1.29-.59-2.58.01-3.87Z"/><path class="cls-51" d="m237.36,294.89c-1.3,1.07-.59,2.55-.78,3.85-.94-2.41-1.97-4.33-4.92-1.9-1.01.83-1.85.1-1.97-1.2,2.53-.49,4.77-4.05,7.67-.74Z"/><path class="cls-51" d="m294.88,381.62c-1.18,1.55-2.74,2.54-4.6,3.07.09-1.39-1.86-3.03.55-4.14,1.67-.76,3.1-.8,4.05,1.07Z"/><path class="cls-51" d="m315.59,425.3c-.01-1.53-.03-3.06-.04-4.59,1.97-1.2,3.37-.22,3.63,1.58.36,2.44-1.36,3.23-3.59,3.01Z"/><path class="cls-51" d="m232.74,208.21c-.51-1.27-1.02-2.54-1.53-3.82.18-1.6,1.25-1.72,2.44-1.34,1.11.35,1.44,1.33,1.37,2.39-.1,1.44-.08,3.03-2.28,2.76Z"/><path class="cls-51" d="m249.62,290.3c-.35,1.97-1.47,1.76-2.59.78-1.06-.92-2.07-1.75-3.57-1.54-.22-.26-.45-.52-.67-.78,1.77-1.69.37-2.74-.79-3.83-.03-.25-.06-.5-.09-.75,2.06-.11,3.85,0,3.91,2.83.05,2.35,1.53,3.35,3.8,3.29Z"/><path class="cls-9" d="m336.28,308.7c1.63,4.12.53,8.41.69,12.62.08,2.16.85,4.52-.69,6.57,0-6.39,0-12.79,0-19.18Z"/><path class="cls-51" d="m273.38,301.78c1.02-2.05,2.05-4.09,3.07-6.14.25,1.21.82,2.46.69,3.63-.23,2.09-.9,4.1-3.76,2.51Z"/><path class="cls-51" d="m214.32,191.34c-.26,1.02-.52,2.04-.78,3.06-.69.63,0,1.71-.75,2.31-1.74-.64-2.71-1.75-2.16-3.71.56-1.99,2.24-1.6,3.69-1.66Z"/><path class="cls-11" d="m265.72,394.62c-.95,2.78-2.17,4.53-4.8,1.35-.54-.66-1.36-.55-2.1-.58,2.16-1.53,4.61-.43,6.9-.77Z"/><path class="cls-51" d="m218.17,257.44c1.02,0,2.05,0,3.07.01.44.37,1.18.07,1.53.66-.19,1.48-.92,2.87-2.44,2.7-1.64-.19-2.26-1.71-2.16-3.37Z"/><path class="cls-51" d="m241.18,254.38c.78-.77,1.56-1.55,2.34-2.32.34-.55.56-1.27,1.46-.96,0,.99-.01,1.97.02,2.96.04,1.21-.73,1.84-1.7,2.13-1.51.45-1.92-.6-2.12-1.81Z"/><path class="cls-51" d="m303.31,396.16c.76-1.03,1.52-2.05,2.28-3.08,1.04.88,3.02,1.37,1.59,3.33-1.35,1.86-2.6.12-3.87-.26Z"/><path class="cls-51" d="m261.89,287.94v-2.25c2.37,1.42,4.82,2.74,6.13,5.37-1.36-1.03-2.79-1.86-4.61-1.53-.51-.53-1.02-1.06-1.52-1.59Z"/><path class="cls-51" d="m330.13,257.32c0,1.53,0,3.06,0,4.59-2.95-1.03-3.08-1.82-.75-4.6.26-.38.51-.36.75,0Z"/><path class="cls-51" d="m263.42,298.79c1.55,1.25,3.11,2.51,4.66,3.76-.27.36-.54.35-.83.02-2.99.48-4.34-.71-3.83-3.78Z"/><path class="cls-51" d="m329.37,142.25c-.26.73-.51,1.46-.77,2.18-.51.25-1.02.51-1.53.76-1.29-1.29-2.59-1.21-3.88,0l.06.25c-.36.21-.63.14-.79-.25-.14-2.33,1.14-3.22,3.24-2.87,1.26.21,2.44.19,3.66-.06Z"/><path class="cls-51" d="m309.56,249.64c.26-1.28.51-2.56.77-3.84,1.65-.11,2.32.66,2.14,2.29-.22,1.97-1.74,1.41-2.91,1.54Z"/><path class="cls-51" d="m281.06,269.59c-.73-.26-1.45-.51-2.18-.77-.74-.32-.9-.94-.89-1.66.34-1.96,1.9-1.24,3.07-1.41.57,1.28.57,2.56,0,3.84Z"/><path class="cls-51" d="m336.26,328.65c-.23,1.54.63,3.26-.76,4.6-2.28-2.86-2.16-3.6.76-4.6Z"/><path class="cls-17" d="m265.7,269.45c-.76.09-1.52.17-2.28.26-.25.27-.51.27-.77,0-1.22-.12-2.5-.12-3.32-1.54h6.36c.47.42.47.84,0,1.27Z"/><path class="cls-51" d="m179.06,311.78c2.42-1.75,2.52-4.27,2.3-6.9,2.21,5.21,1.93,6.03-2.3,6.9Z"/><path class="cls-51" d="m301.77,402.3c-1.15,1.23-2.55.7-4.03.62,1.14-1.29,2.2-2.49,3.26-3.69.26,1.02.51,2.05.77,3.07Z"/><path class="cls-67" d="m233.51,223.44c-2.18.06-4.2-.51-6.1-1.54,1.12-1.09,2.53-.47,3.8-.64,1.25.22,3.04-.13,2.3,2.18Z"/><path class="cls-51" d="m306.39,390.79c.5-.77,1.01-1.54,1.51-2.31,1.5.22,2.47,1.39,1.8,2.52-.75,1.27-2.21.27-3.32-.21Z"/><path class="cls-21" d="m265.7,269.45v-1.27c3.08,0,6.16,0,9.24-.01.2.43.09.77-.32,1.01-2.18.35-4.41-.42-6.57.27-.78,0-1.56,0-2.34,0Z"/><path class="cls-51" d="m336.26,303.35c0,1.28,0,2.55,0,3.83-1-.04-2.1.05-2.24-1.36-.11-1.17-.13-2.32,1.49-2.47.26-.38.51-.36.75.01Z"/><path class="cls-51" d="m228.14,257.17c.51.09,1.01.18,1.52.27-1.25,2.16-2.58,3.78-4.58.66.18-.33.44-.55.81-.65l-.08-.24c.77-.53,1.55-.56,2.34-.05Z"/><path class="cls-51" d="m333.95,288.76c.76,1.18.87,2.48.78,3.83-.99-.04-2.1.06-2.24-1.35-.11-1.15-.16-2.32,1.46-2.48Z"/><path class="cls-51" d="m276.47,257.44c.51-.09,1.01-.18,1.52-.27.44-.31.93-.4,1.46-.29.67.23,1.15.71,1.61,1.22-2.01,3.12-3.33,1.5-4.58-.66Z"/><path class="cls-51" d="m334.72,294.9c.76,1.18.87,2.49.78,3.84-.99-.04-2.1.06-2.24-1.35-.11-1.15-.16-2.32,1.46-2.49Z"/><path class="cls-51" d="m235.05,256.67c1.08-1.06,2.48-.87,3.8-.98-.02.98.17,2.13-1.23,2.31-1.11.15-2.33.29-2.57-1.33Z"/><path class="cls-51" d="m297.93,256.67c1.13-.99,2.44-1.09,3.83-.77-.03.98,0,2.02-1.36,2.13-1.1.08-2.26.2-2.47-1.36Z"/><path class="cls-51" d="m248.15,304.87c.9-1.63,2.23-2.84,3.75-3.87,0,1.03,0,2.07.01,3.1-1.01,1.48-2.33,1.39-3.77.77Z"/><path class="cls-51" d="m330.91,271.88c1.25,1.08.6,2.54.75,3.84-2.87-.77-3.12-2.05-.75-3.84Z"/><path class="cls-51" d="m277.16,292.58c3.97-.81,1.78-4,2.36-6.12,1.78,4.9,1.08,6.51-3.02,6.9.22-.26.44-.52.65-.78Z"/><path class="cls-51" d="m268.79,302.63c.97.46,1.95.85,3.05.68.19,1.71-.56,2.51-2.29,2.34-1.13-.78-1.57-1.74-.77-3.01Z"/><path class="cls-51" d="m281.1,222.12c-1.41,1.31-3.07.53-4.64.55,1.28-2.46,2.95-1.59,4.64-.55Z"/><path class="cls-51" d="m332.42,279.56c.76,1.18.88,2.48.77,3.83-2.84-.75-3.12-2.03-.77-3.83Z"/><path class="cls-51" d="m277.92,392.32c-.49-.26-.97-.51-1.46-.77-.45-3.5,1.31-2.52,3.09-1.52-.51.79-1.68,1.11-1.63,2.29Z"/><path class="cls-77" d="m288.73,60.94c0,.25,0,.5-.01.75-1.02,0-2.04.01-3.05.02.07-1.11.46-2.02,1.69-2.19,1.02-.14,1.27.59,1.37,1.41Z"/><path class="cls-51" d="m233.51,223.44c.08-1.62-1.8-1.17-2.3-2.18,2.66-1.72,3.12.46,3.83,2.17-.51,0-1.03,0-1.54,0Z"/><path class="cls-51" d="m242.73,302.54c0,1.29,0,2.58-.01,3.87-.8-1.94-1.19-4.2-3.83-4.6h3.75c.05.24.08.49.09.73Z"/><path class="cls-35" d="m277.99,267.16c.83.27.72,1.04.89,1.66-.31.48-.61.97-.92,1.45-.25-.02-.5-.03-.75-.05-1.04-.48-1.56-1.14-.79-2.25.26-.79,1.01-.62,1.57-.81Z"/><path class="cls-51" d="m235.81,282.63c-1.5,2.7-3.62,2.92-6.13,1.53,2.33.62,4.11-.96,6.13-1.53Z"/><path class="cls-25" d="m212.03,221.14c-2.55,0-5.1,0-7.65,0,2.55-1.04,5.1-1.04,7.65,0Z"/><path class="cls-34" d="m330.13,257.32c-.25,0-.5,0-.75,0,0-2.3,0-4.61,0-6.91.26-.34.51-.33.76.02,0,2.3,0,4.6-.01,6.91Z"/><path class="cls-25" d="m300.99,221.13c-2.29,0-4.59,0-6.88,0,2.29-.99,4.59-1,6.88,0Z"/><path class="cls-51" d="m174.48,281.86c0-.26,0-.51,0-.77,3.38.74,3.59,1.15,2.29,4.6-.02-1.72.26-3.62-2.29-3.83Z"/><path class="cls-51" d="m222.01,284.93c1.12.93.85,3.27,3.1,3.06.23.26.46.52.68.78-2.91.35-4.12-.98-3.78-3.84Z"/><path class="cls-31" d="m228.16,202.83c-2.31,0-4.62,0-6.94,0,2.31-1.17,4.62-1.22,6.94,0Z"/><path class="cls-40" d="m281.06,258.1c-.52-.23-1.03-.45-1.55-.68.43-.59.97-.51,1.53-.24,1.54.08,3.08.16,4.62.25-1.39,1.19-3.07.43-4.6.67Z"/><path class="cls-77" d="m330.14,250.41c-.25,0-.5,0-.76-.02,0-1.78,0-3.57,0-5.35,2.26,1.51.05,3.64.75,5.37Z"/><path class="cls-59" d="m249.62,395.38c-2.04-.33-4.25.77-6.14-.76,2.04.33,4.25-.77,6.14.76Z"/><path class="cls-51" d="m258.05,285.69c-.4,3.92-3.3.31-4.6,1.53,1.24-1.39,3.29-.35,4.6-1.53Z"/><path class="cls-51" d="m279.52,286.46c-1.28-.36-2.56-.36-3.83,0,1.28-2.06,2.56-2.06,3.83,0Z"/><path class="cls-51" d="m240.41,283.39c-1.53-.25-2.98-1.04-4.6-.77,1.79-1.27,3.35-1.21,4.6.77Z"/><path class="cls-44" d="m191.33,367.77c-1.01-1.15-2.16-2.21-2.29-3.88,1.16.71,2.19,1.52,2.31,3.04,0,.28,0,.56-.01.85Z"/><path class="cls-52" d="m255.78,268.81c.47-.9-2.37-.15-.8-1.6.68.16,1.65-.15,1.94.67.32.91-.59.81-1.14.94Z"/><path class="cls-51" d="m245.02,86.25c1.62.27,3.07-.51,4.6-.77-1.25,1.98-2.81,2.04-4.6.77Z"/><path class="cls-28" d="m322.47,145.19c.26.08.52.17.79.25-1.79.97-3.57.99-5.36,0,1.52-.09,3.05-.17,4.57-.26Z"/><path class="cls-22" d="m268.06,271.86c.38-.3.72-.67,1.14-.89.68-.37,1.64-1.26,2.04-.04.23.7-.98.89-1.69,1.06-.5-.04-1-.09-1.49-.13Z"/><path class="cls-74" d="m329.38,236.61c0,1.79-.01,3.57-.02,5.36-1.17-1.79-1.22-3.58.02-5.36Z"/><path class="cls-4" d="m276.44,214.32c1.8-1.14,3.61-1.16,5.4.02-1.8,0-3.6-.01-5.4-.02Z"/><path class="cls-57" d="m301,380.05c-.26-.49-.51-.98-.77-1.47.77-.53,1.53-1.07,2.3-1.6.1,1.33-.15,2.48-1.53,3.07Z"/><path class="cls-36" d="m330.15,264.21c1.45,1.62.47,3.59.75,5.38-1.46-1.62-.48-3.59-.75-5.38Z"/><path class="cls-51" d="m252.68,288c-1.02.77-2.04,1.53-3.07,2.3.11-1.99,1.41-2.37,3.07-2.3Z"/><path class="cls-33" d="m212.78,196.71c.05-.84-.1-1.74.76-2.31.2,1.02-.38,2.24.78,3.01-.27.69-.86.82-1.51.84,0-.51-.02-1.03-.02-1.54Z"/><path class="cls-51" d="m268.79,302.63c-.12,1.1.26,2.07.77,3.01-1.98-.11-1.45-2.11-2.3-3.07.28,0,.55-.02.83-.02.24,0,.47.03.71.08Z"/><path class="cls-9" d="m336.26,303.35c-.25,0-.5,0-.75-.01,0-1.53,0-3.07,0-4.6,1.37,1.36.52,3.07.75,4.61Z"/><path class="cls-51" d="m248.15,304.87c1.33.09,2.6-.05,3.77-.77-.48,2.44-2.44,1.21-3.78,1.53,0-.26.01-.51.02-.77Z"/><path class="cls-75" d="m225.89,257.45c-.27.22-.54.43-.81.65-.77,0-1.53.01-2.3.02-.51-.22-1.02-.44-1.53-.66,1.55,0,3.09,0,4.64,0Z"/><path class="cls-79" d="m276.42,267.97c.26.75.53,1.5.79,2.25-.75,0-1.49,0-2.24.01-.33-.47-.13-.95-.04-1.44,0-.21,0-.42,0-.62.5-.07.99-.14,1.49-.2Z"/><path class="cls-51" d="m271.86,291.06c-1.28,1.12-2.56,1.12-3.83,0h3.83Z"/><path class="cls-14" d="m281.1,210.49c-1.3,0-2.61,0-3.91,0,1.3-1.07,2.61-1.13,3.91,0Z"/><path class="cls-51" d="m261.89,285.69h-3.83c1.28-1.12,2.56-1.12,3.83,0Z"/><path class="cls-51" d="m203.6,151.46c.12-1.22.54-2.29,1.53-3.07.07,1.31-.14,2.49-1.53,3.07Z"/><path class="cls-51" d="m177.53,291.83v-3.84c1.12,1.28,1.12,2.56,0,3.84Z"/><path class="cls-65" d="m281.01,199.76c.79.5,1.58,1,2.36,1.5-.91-.3-2.9,1.1-2.36-1.5Z"/><path class="cls-51" d="m176,276.49v-3.84c1.14,1.28,1.14,2.56,0,3.84Z"/><path class="cls-51" d="m281.06,269.59v-3.84c1.14,1.28,1.14,2.56,0,3.84Z"/><path class="cls-51" d="m176.76,246.57c-1.03-.5-1.8-1.26-2.3-2.3,1.47.07,2.23.83,2.3,2.3Z"/><path class="cls-51" d="m270.32,273.42h3.83c-1.28,1.14-2.56,1.14-3.83,0Z"/><path class="cls-51" d="m350.09,370.85c-3.88,2.89-8.33,3.81-13.05,3.83-.37-5.76,2-10.87,3.84-16.11,0-.85.03-1.69.77-2.3.26-.51.51-1.02.77-1.53,0-.85.03-1.69.77-2.3.66-1.64,1.9-3.07,2.1-4.99-1.93-.25-2.35,1.6-3.64,1.92-.59-1.79-.57-3.59,0-5.38,1.11-1.75,2.64-3.03,4.37-4.16,1.7-1.11,2.4-2.38.01-3.62-3.29-1.72-3.47-4.26-2.5-7.62,2.06-7.17,3.73-14.45,5.53-21.69.17-.69.11-1.44.16-2.26-2.26.16-3.43,2.03-5.25,2.56-2.48-.5-.26-2.86-1.52-3.84,0-2.04,0-4.09,0-6.13,2.48.62,4.07,2.02,3.91,4.91,1.61-.55,2.99-1.8,4.31-.09,1.02,1.32,1.89,2.54,1.36,4.49-1.54,5.64-2.53,11.45-4.4,16.96-.84,2.47-2.59,4.44-1.43,7.35.46,1.14.81,2.04,1.94,2.59,3.08,1.51,3.36,3.92,1.96,6.72-.92,1.84-1.94,3.58-.86,5.75.25.5.28,1.54-.04,1.85-3.54,3.27-2.68,8.3-5.02,12.22-1.85,3.09-2.88,7.1-4.03,11.44,3.55-1.79,6.76-2.39,9.98-.55Z"/><path class="cls-51" d="m341.65,377.75c4.4-1.36,8.08-3.91,11.5-6.9,1.52,3.08.3,5.43-2.53,6.46-3.02,1.1-5.41,3.84-8.97,3.5-.57-1.02-.57-2.04,0-3.07Z"/><path class="cls-51" d="m352.37,370.07c-.51.25-1.02.5-1.53.76-.39-3.01,1.26-4.34,3.93-5.06,1.33-.36,2.19.02,3.01.94.77.88.86,1.76.14,2.74-.91,1.26-1.97,1.46-3.25.62-.76-.79-1.53-.26-2.3,0Z"/><path class="cls-51" d="m363.89,382.35c-.73,1.33-.75,4.84-3.11.89-.62-1.05-1.12.1-1.5.64-1-.68-2.36-1.15-1.61-2.84.44-.99,1.08-1.68,2.23-1.73,1.29-.06,2.52-.03,3.11,1.46.22.56.59,1.06.89,1.58Z"/><path class="cls-51" d="m355.44,387.71c-1.67,1.04-3.15,2.53-5.36,2.31-2.02-2.59.78-2.87,1.92-3.79,1.92-1.57,2.56.34,3.44,1.48Z"/><path class="cls-48" d="m341.65,377.75c0,1.02,0,2.04,0,3.07,0,3.83-.01,7.66-.02,11.49,0,0-.38,0-.38,0,0,0-.38-.02-.38-.02,0-3.67-.03-7.33.03-11,.02-1.21-.43-2.57.76-3.54Z"/><path class="cls-8" d="m342.4,295.67c-1.59-4.01-.37-8.2-.75-12.28,1.59,4.01.36,8.2.75,12.28Z"/><path class="cls-38" d="m341.63,247.36c.65.3.77.87.8,1.5-.28,1.54.6,3.27-.77,4.62,0-2.04-.02-4.08-.03-6.12Z"/><path class="cls-39" d="m370.02,365.46c-1.62,1.17.08,3.44-1.53,4.61.01-1.37-.06-2.75.07-4.11.09-.99.66-1.28,1.47-.5Z"/><path class="cls-9" d="m352.37,370.07c.48-.38.94-.8,1.45-1.13.38-.24,1.12-.6,1.2-.51.48.61-.24,1.08-.35,1.65-.51.25-1.02.51-1.53.76-.25-.26-.51-.51-.76-.77Z"/><path class="cls-29" d="m341.63,343.98c0,1.79,0,3.59,0,5.38-1.32-1.79-1.11-3.59,0-5.38Z"/><path class="cls-77" d="m333.21,350.9c.09-1.06-.35-2.26.76-3.07.41,1.19,1.76,2.61-.76,3.07Z"/><path class="cls-15" d="m342.42,303.34c1.44.91.06,2.94,1.52,3.84-.8.78-1.36.52-1.47-.48-.12-1.11-.05-2.24-.06-3.36Z"/><path class="cls-77" d="m341.64,356.27c-.02.85.13,1.75-.77,2.3-1.26-1.27-.87-1.99.77-2.3Z"/><path class="cls-77" d="m343.18,352.43c-.02.85.12,1.75-.77,2.3-1.26-1.28-.87-2,.77-2.3Z"/><path class="cls-6" d="m310.99,158.37c2.55,0,5.1,0,7.66,0,.24.17.32.34.24.5-.09.16-.17.24-.26.24-2.57-.01-5.14-.03-7.71-.04-.2-.18-.26-.34-.17-.49.08-.14.16-.21.24-.21Z"/><path class="cls-27" d="m310.99,158.37c-.02.24-.04.47-.07.7-.2.04-.4.07-.6.1,0-1.8.02-3.61.03-5.41,1.18,1.4.38,3.08.65,4.6Z"/><path class="cls-45" d="m318.63,159.11c0-.25.01-.49.02-.74,1.28,0,2.55,0,3.83,0-1.09,1.24-2.55.58-3.85.74Z"/><path class="cls-51" d="m323.19,145.2c.2-1.22.73-2.17,2.13-2.06,1.18.09,1.64.97,1.74,2.06-1.29,0-2.58,0-3.88,0Z"/><path class="cls-36" d="m193.65,426.07c1.51,1.89.43,4.11.75,6.15-1.51-1.89-.44-4.1-.75-6.15Z"/><path class="cls-81" d="m159.9,366.22c1.3,1.24.77,2.85.7,4.28-.12,2.41-1.46,2.22-3.02,1.12,4.16-.34,1.55-3.59,2.32-5.39Z"/><path class="cls-2" d="m149.11,369.34c-.64-.55-1.32-1.06-1.92-1.65-.29-.29-.99-.71-.43-1.09.31-.21,1.07.24,1.62.4.51.51,1.03,1.02,1.54,1.53-.27.27-.54.54-.81.82Z"/><path class="cls-77" d="m251.91,79.33c-.04-3.29,2.51-5.27,6.91-5.34-1.95,2.25-4.5,3.7-6.91,5.34Z"/><path class="cls-51" d="m215.11,252.84c-3.45-.61-6.91-1.15-10.34-1.84-2.48-.5-4.27-1.96-5.13-4.42-.51-4.68-.91-9.38-1.58-14.04-.43-3.01.71-5.09,3.89-5.04,4.18.07,8.21-1.02,12.35-.98,2.07-.42,4.14-.42,6.2,0,.49.08.99.16,1.48.23-.21,3.37-.51,6.74-.75,10.1-1.54,7.3,3.05,13.03,10.68,13.28.75.42,1.18,1.01.96,1.92-.9.95-1.9,1.48-3.2.78-1.27-.09-2.55-.18-3.82-.27-2.82-.4-5.64-.42-8.47.01-.76.09-1.52.17-2.28.26Z"/><path class="cls-11" d="m220.45,237.42c.3-3.59-.85-7.38,1.54-10.67,5.88,1.05,12,.67,17.64,3.08,1.6,1.9.95,4.18,1.06,6.33-.06,1.28-.32,2.52-.76,3.72-1.6,3.68-3.67,6.87-8.06,7.61-1.22.12-2.44.1-3.67.07-5.19-1.23-8.15-5.11-7.76-10.14Z"/><path class="cls-51" d="m276.46,252.58c-.52.09-1.03.17-1.55.26-1.17.37-2.05-.41-3.03-.77-4.9-.48-7.54-3.61-9.19-7.88-.56-3.81-1.86-7.51-1.69-11.43-.95-2.49,1.25-2.38,2.51-3.04.48-.05.97-.11,1.45-.16,1.42-.92,3.05-.49,4.57-.72,1.84,2.35,1.01,5.02.91,7.6-1.39,4.04-.08,7.35,2.58,10.44,1.23,1.43,3.04,2.29,3.89,4.08.11.61,0,1.16-.45,1.62Z"/><path class="cls-51" d="m239.66,236.62c0-2.26-.01-4.53-.02-6.79,4.33.4,4.76,1.16,4.69,5.28-.05,3.33-1.06,6.41-1.87,9.5-1.06,4.03-3.68,6.94-8.19,7.46-.57.28-1.1.35-1.52-.26-.26-.46-.51-.93-.77-1.39,3.23-2.72,6.05-5.74,7.36-9.88.35-1.29,1.25-2.53.32-3.93Z"/><path class="cls-72" d="m217.39,252.58c2.82-1.03,5.64-1.02,8.47-.01-2.82,0-5.64,0-8.47.01Z"/><path class="cls-80" d="m220.51,226.52c-2.07,0-4.14,0-6.2,0,2.07-1.01,4.14-1.04,6.2,0Z"/><path class="cls-51" d="m258.15,245.01c-1.36-.67-2.25-1.49-.99-3.01.8.85.97,1.91.99,3.01Z"/><path class="cls-51" d="m242,284.93c1.31,0,2.67.07,2.87,1.72.17,1.41-.81,1.98-2.09,2.11-.13-1.3-1.12-2.43-.79-3.83Z"/><path class="cls-51" d="m276.46,252.58c0-.47,0-.94,0-1.42.72-.82,1.75-.92,2.72-1.12,5.25-1.1,7.53-4.93,8.87-9.63.63-1.46.32-2.9-.1-4.35.25-3.25-1.67-6.34-.73-9.64,1.28-.23,2.56-.33,3.83.09,4.04-.11,7.94,1.17,12.02.97,2.02-.1,4.92.56,4.66,3.14-.65,6.46-.55,13.14-3.68,19.15-4.45,1.71-9.14,2.34-13.81,3.07-.76-.09-1.53-.18-2.29-.26-2.57-.43-5.13-.43-7.7,0-1.27,0-2.55,0-3.82,0Z"/><path class="cls-11" d="m287.18,226.75c1.61,3.12,1.74,6.47,1.56,9.87.79,1.16.14,2.25-.18,3.35-1.29,3.78-3.29,6.83-7.63,7.51-1.21.11-2.43.1-3.65.07-5.18-1.24-8.15-5.12-7.74-10.14,0-2.85,0-5.71-.01-8.56,5.11-.78,10.22-1.55,15.34-2.33.81-.28,1.62-.53,2.32.23Z"/><path class="cls-80" d="m287.18,226.75c-.77-.08-1.55-.16-2.32-.23,2.07-1.02,4.13-1.02,6.2,0-1.29.08-2.59.16-3.88.23Z"/><path class="cls-1" d="m274.94,268.79c.87.46.1.95.04,1.44-2.31-.26-4.63-.52-6.94-.78,2.2-1.32,4.62-.3,6.9-.66Z"/><path class="cls-66" d="m239.66,240.44c-.83,4.66-2.8,8.44-7.68,9.99-2.92,1.6-5.56.62-7.49-1.51-2.88-3.18-6.23-6.44-4.03-11.5.84,4.5,2.88,7.99,7.68,9.19,1.29.58,2.58.59,3.87,0,3.83-.76,5.6-3.6,6.91-6.89.68-.19,1.05-.06.75.74Z"/><path class="cls-46" d="m228.49,227.98c.79,4.16,1.04,5.17,6.18,2.66.75,4.74-.44,8.23-3.33,8.92-1.98.48-3.68-.35-4.75-2.23-1.58-2.79-.92-6.7,1.9-9.35Z"/><path class="cls-61" d="m239.66,240.44c-.25-.25-.5-.49-.75-.74.25-1.03.5-2.06.75-3.08,1.11,1.27,1.1,2.55,0,3.82Z"/><path class="cls-32" d="m231.99,246.59c-1.29,1.11-2.58,1.1-3.87,0,1.29,0,2.58,0,3.87,0Z"/><path class="cls-66" d="m269.53,237.41c.84,4.5,2.87,8,7.67,9.19,1.29.58,2.58.59,3.87,0,3.83-.76,5.6-3.6,6.91-6.89.68-.19,1.05-.06.75.74-1.26,7.2-5.18,10.63-12.28,10.73-3.42-2.43-6.39-5.22-7.39-9.52-.33-1.44-.81-2.95.46-4.24Z"/><path class="cls-61" d="m288.74,240.44c-.25-.25-.5-.49-.75-.74.25-1.03.5-2.06.75-3.08,1.13,1.27,1.12,2.55,0,3.82Z"/><path class="cls-46" d="m277.51,239.69c-2.28-.36-3.42-1.72-4.29-3.97-.94-2.45-.69-4.4.86-6.24,1.09-1.29,1.91-.08,2.29.75.94,2.06,2.07,2.38,3.74.83.86-.8,1.14-.57,1.87.48,1.51,2.18.18,3.98-.55,5.6-.58,1.29-1.76,2.94-3.92,2.55Z"/><path class="cls-32" d="m281.07,246.59c-1.29,1.11-2.58,1.1-3.87,0,1.29,0,2.58,0,3.87,0Z"/><path class="cls-82" d="m300.52,257.03c-9.29,1.17-18.16,1.39-27.07-.65-5.81-1.33-9.3-4.53-10.78-10.17-.8-3.06-1.42-6.19-2.6-9.1-.5-1.24-2.22-2.74-3.39-2.74-1.18,0-2.96,1.48-3.43,2.71-1.41,3.67-2.21,7.57-3.43,11.32-1.22,3.75-3.73,6.12-7.65,7.26-12.97,3.77-25.81,2.57-38.63-.61-3.51-.87-5.15-3.6-5.75-6.87-.97-5.31-1.69-10.66-2.52-16-.2-1.27-.4-2.53-.65-4.12-3.01.48-5.69.91-8.65,1.38-.35-1.74-.68-3.35-1.22-6.05,6.79-.93,13.2-2.21,19.67-2.61,16.03-.99,31.75,2.08,47.59,3.9,6.13.7,12.55-.43,18.76-1.28,15.44-2.11,30.87-3.99,46.47-1.91,3.62.48,7.18,1.44,11.14,2.25-.31,2.06-.56,3.7-.86,5.66-2.84-.43-5.53-.84-8.77-1.33-.63,4.3-1.16,8.55-1.88,12.78q-2.32,13.6-16.32,16.19m-57.75-28.32c-.26-.1-.52-.1-1.39-.21-5.87-.74-11.74-1.49-18.33-2.41-6.31.3-12.61.6-18.92.92-3.05.16-4.63,1.63-4.16,4.84.68,4.69,1.37,9.37,2,14.07.38,2.85,1.84,4.64,4.75,4.92,7.44.73,14.9,2.12,22.32,1.9,15.27-.46,16.24-1.7,18.81-16.87.9-5.3.67-5.62-4.73-6.92,0,0-.02,0-.34-.23m49.17-2.65c-6.1.74-12.21,1.49-18.96,2.24-1.79.42-3.81.46-5.31,1.37-1.19.72-2.57,2.56-2.45,3.76.42,4.04,1.26,8.06,2.34,11.99.83,3.03,2.7,5.45,6.09,6.11,11.29,2.18,22.55,2.18,33.66-.93,1.45-.41,3.27-2.12,3.57-3.52,1.13-5.26,1.75-10.64,2.48-15.98.34-2.47-1.12-3.8-3.38-3.96-5.77-.41-11.55-.62-18.04-1.07Z"/></svg>