<?xml version="1.0" encoding="UTF-8"?><svg id="Layer_1" xmlns="http://www.w3.org/2000/svg" viewBox="0 0 500 500"><defs><style>.cls-1{fill:#894181;}</style></defs><path class="cls-1" d="m126.75,318.29c-8.6-.18-15.33-1.03-20.17-2.55-4.85-1.52-8.25-4.07-10.22-7.64-1.97-3.58-2.95-8.51-2.95-14.81v-22.75c0-4.53-.53-7.85-1.6-9.98-1.07-2.13-3.68-3.42-7.84-3.87v-13.38c4.17-.5,6.78-1.8,7.84-3.91,1.06-2.11,1.6-5.42,1.6-9.95v-22.75c0-6.34.98-11.28,2.95-14.84,1.97-3.56,5.38-6.09,10.22-7.61,4.84-1.52,11.57-2.37,20.17-2.55v18.14c-2.45.18-4.63.58-6.56,1.19-1.92.61-2.89,2.12-2.89,4.52v25.47c0,4.35-.69,7.8-2.07,10.36-1.38,2.56-3.2,4.48-5.47,5.77-2.27,1.29-4.69,2.23-7.27,2.82,2.58.59,5,1.53,7.27,2.82,2.26,1.29,4.09,3.22,5.47,5.77,1.38,2.56,2.07,6.03,2.07,10.43v25.47c0,2.4.96,3.9,2.89,4.51,1.93.61,4.11,1.01,6.56,1.19v18.14Z"/><path class="cls-1" d="m135.41,305.52v-119.53h24.72v119.53h-24.72Z"/><path class="cls-1" d="m199.82,306.61c-7.24,0-13.02-1.36-17.32-4.07s-7.38-6.63-9.24-11.75c-1.86-5.12-2.79-11.27-2.79-18.47v-40.96c0-9.46,2.72-16.63,8.15-21.5,5.43-4.87,12.9-7.3,22.41-7.3,19.56,0,29.34,9.6,29.34,28.8v7.4c0,8.97-.09,14.99-.27,18.07h-35.32v19.7c0,1.81.11,3.59.34,5.33.23,1.74.73,3.18,1.53,4.31.79,1.13,2.07,1.7,3.84,1.7,2.53,0,4.12-1.09,4.75-3.29.63-2.19.95-5.06.95-8.59v-9.78h24.18v5.77c0,7.61-.94,13.98-2.82,19.12-1.88,5.14-5.05,9.01-9.51,11.62-4.46,2.6-10.54,3.9-18.24,3.9Zm-5.16-61.87h11.54v-13.72c0-3.67-.45-6.3-1.36-7.91s-2.27-2.41-4.07-2.41c-1.95,0-3.45.77-4.52,2.31-1.07,1.54-1.6,4.21-1.6,8.02v13.72Z"/><path class="cls-1" d="m268.52,306.61c-20.1,0-30.15-10.19-30.15-30.56v-8.08h24.45v11.95c0,2.31.45,4.12,1.36,5.43.91,1.31,2.35,1.97,4.35,1.97,3.53,0,5.3-2.65,5.3-7.94,0-4.44-.93-7.75-2.79-9.95-1.86-2.19-4.12-4.31-6.79-6.35l-12.97-9.98c-4.07-3.17-7.18-6.52-9.31-10.05-2.13-3.53-3.19-8.44-3.19-14.74,0-5.84,1.39-10.66,4.18-14.47,2.79-3.8,6.47-6.63,11.07-8.49s9.56-2.79,14.91-2.79c19.74,0,29.61,9.85,29.61,29.54v1.9h-25.13v-3.87c0-2.04-.35-4.01-1.05-5.91-.7-1.9-2.07-2.85-4.11-2.85-3.44,0-5.16,1.81-5.16,5.43s1.45,6.54,4.35,8.63l15.08,11c4.71,3.4,8.66,7.43,11.85,12.09,3.19,4.66,4.79,10.87,4.79,18.61,0,9.6-2.73,16.91-8.18,21.94-5.46,5.03-12.94,7.54-22.45,7.54Z"/><path class="cls-1" d="m335.93,306.61c-20.1,0-30.15-10.19-30.15-30.56v-8.08h24.45v11.95c0,2.31.45,4.12,1.36,5.43.91,1.31,2.35,1.97,4.35,1.97,3.53,0,5.3-2.65,5.3-7.94,0-4.44-.93-7.75-2.79-9.95-1.86-2.19-4.12-4.31-6.79-6.35l-12.97-9.98c-4.07-3.17-7.18-6.52-9.31-10.05-2.13-3.53-3.19-8.44-3.19-14.74,0-5.84,1.39-10.66,4.18-14.47,2.79-3.8,6.47-6.63,11.07-8.49,4.6-1.86,9.56-2.79,14.91-2.79,19.74,0,29.61,9.85,29.61,29.54v1.9h-25.13v-3.87c0-2.04-.35-4.01-1.05-5.91-.7-1.9-2.07-2.85-4.11-2.85-3.44,0-5.16,1.81-5.16,5.43s1.45,6.54,4.35,8.63l15.08,11c4.71,3.4,8.66,7.43,11.85,12.09,3.19,4.66,4.79,10.87,4.79,18.61,0,9.6-2.73,16.91-8.18,21.94-5.46,5.03-12.94,7.54-22.45,7.54Z"/><path class="cls-1" d="m373.25,318.29v-18.14c2.45-.18,4.63-.58,6.55-1.19,1.93-.61,2.89-2.12,2.89-4.51v-25.47c0-4.39.69-7.87,2.07-10.43,1.38-2.56,3.2-4.48,5.47-5.77,2.26-1.29,4.69-2.23,7.27-2.82-2.58-.59-5-1.53-7.27-2.82-2.26-1.29-4.09-3.2-5.47-5.74-1.38-2.53-2.07-6-2.07-10.39v-25.47c0-2.4-.96-3.91-2.89-4.52-1.92-.61-4.11-1.01-6.55-1.19v-18.14c8.6.18,15.33,1.03,20.17,2.55,4.84,1.52,8.25,4.05,10.22,7.61,1.97,3.56,2.95,8.5,2.95,14.84v22.75c0,4.53.54,7.84,1.63,9.95,1.09,2.1,3.69,3.41,7.81,3.91v13.38c-4.12.45-6.72,1.74-7.81,3.87-1.09,2.13-1.63,5.46-1.63,9.98v22.75c0,6.3-.99,11.23-2.95,14.81-1.97,3.58-5.38,6.12-10.22,7.64-4.84,1.52-11.57,2.36-20.17,2.55Z"/></svg>