<?xml version="1.0" encoding="UTF-8"?><svg id="Layer_1" xmlns="http://www.w3.org/2000/svg" viewBox="0 0 500 500"><defs><style>.cls-1{fill:#0073b9;}</style></defs><path class="cls-1" d="m174.89,260.64h-50.76v32.75h56.69v25.58h-88.01v-137.94h85.14v25.58h-53.83v28.65h50.76v25.38Z"/><path class="cls-1" d="m203.13,286.84c8.39,4.3,21.29,8.6,34.59,8.6,14.33,0,21.9-5.94,21.9-14.94s-6.55-13.51-23.13-19.44c-22.92-7.98-37.86-20.67-37.86-40.73,0-23.54,19.65-41.55,52.19-41.55,15.55,0,27.02,3.27,35.2,6.96l-6.96,25.17c-5.53-2.66-15.35-6.55-28.86-6.55s-20.06,6.14-20.06,13.3c0,8.8,7.78,12.69,25.58,19.44,24.36,9,35.82,21.69,35.82,41.14,0,23.13-17.81,42.78-55.67,42.78-15.76,0-31.31-4.09-39.09-8.39l6.34-25.79Z"/><path class="cls-1" d="m392.65,208.04c-3.48-.2-7.16,0-12.08.41-27.63,2.25-39.91,16.37-43.39,31.93h.61c6.55-6.75,15.76-10.64,28.24-10.64,22.31,0,41.14,15.76,41.14,43.39s-20.26,48.1-49.12,48.1c-35.41,0-52.8-26.4-52.8-58.13,0-24.97,9.21-45.85,23.54-59.15,13.3-12.08,30.5-18.62,51.37-19.65,5.73-.41,9.41-.41,12.48-.2v23.95Zm-16.99,66.72c0-12.28-6.55-22.92-19.85-22.92-8.39,0-15.35,5.12-18.42,11.87-.82,1.64-1.23,4.09-1.23,7.78.61,14.12,7.37,26.81,21.49,26.81,11.05,0,18.01-10.03,18.01-23.54Z"/></svg>