<?xml version="1.0" encoding="UTF-8"?><svg id="Layer_1" xmlns="http://www.w3.org/2000/svg" xmlns:xlink="http://www.w3.org/1999/xlink" viewBox="0 0 500 500"><defs><style>.cls-1{fill:url(#linear-gradient-2);}.cls-2{fill:url(#linear-gradient-6);}.cls-3{fill:url(#linear-gradient-5);}.cls-4{fill:url(#linear-gradient-3);}.cls-5{fill:url(#linear-gradient);}.cls-6{fill:url(#linear-gradient-4);}</style><linearGradient id="linear-gradient" x1="-1793.56" y1="44031.47" x2="-469.23" y2="42618.63" gradientTransform="translate(441.43 5343.3) scale(.12 -.12)" gradientUnits="userSpaceOnUse"><stop offset="0" stop-color="#f89f3c"/><stop offset="1" stop-color="#f6964e"/></linearGradient><linearGradient id="linear-gradient-2" x1="-2917.74" y1="43430.57" x2="-1671.81" y2="42215.42" gradientTransform="translate(441.95 5349.4) scale(.12 -.12)" xlink:href="#linear-gradient"/><linearGradient id="linear-gradient-3" x1="-2299.46" y1="43611.34" x2="-1186.34" y2="42335.15" gradientTransform="translate(441.01 5338.45) scale(.12 -.12)" xlink:href="#linear-gradient"/><linearGradient id="linear-gradient-4" x1="-2361.79" y1="45081.15" x2="-826.92" y2="43055.09" gradientTransform="translate(440.17 5329.05) scale(.12 -.12)" gradientUnits="userSpaceOnUse"><stop offset="0" stop-color="#f16d58"/><stop offset="1" stop-color="#f89f3c"/></linearGradient><linearGradient id="linear-gradient-5" x1="-1778.04" y1="42304.76" x2="-262.75" y2="41309.09" gradientTransform="translate(444.21 5376.91) scale(.11 -.12)" gradientUnits="userSpaceOnUse"><stop offset="0" stop-color="#b74e51"/><stop offset="1" stop-color="#f58d48"/></linearGradient><linearGradient id="linear-gradient-6" x1="-1314.56" y1="56465.16" x2="-1260.24" y2="55090.54" gradientTransform="translate(419.55 5159.64) scale(.16 -.09)" xlink:href="#linear-gradient"/></defs><g id="g4600"><path id="path34" class="cls-5" d="m381.42,306.06c.12-1.15.2-2.31.27-3.47.08-1.38-83-80.2-83-80.2h-1.99s84.21,88.82,84.71,83.68h0Z"/><path id="path36" class="cls-1" d="m204.17,278.71c-.11.24-.22.48-.33.73-.12.25-.24.51-.36.76-2.65,5.52,37.07,44.35,40.27,39.64.15-.21.29-.43.44-.64.16-.25.32-.48.48-.73,2.55-3.88-39.36-42.27-40.5-39.75Z"/><path id="path38" class="cls-4" d="m260.3,333.32c-.11.25-.91,1.6-1.64,2.31-.12.25,38.78,38.83,38.78,38.83h3.5s-36.52-39.51-40.64-41.14Z"/><path id="path40" class="cls-6" d="m381.74,301.88c-1.82,40.33-35.18,72.58-75.95,72.58h-5.51l-40.71-40.1c3.35-4.72,6.46-9.62,9.23-14.72h36.99c11.7,0,21.22-9.51,21.22-21.22s-9.52-21.22-21.22-21.22h-21.89c1.67-8.82,2.58-17.91,2.58-27.21s-.93-18.66-2.66-27.62h13.6l84.08,82.84c.1-1.11.18-2.22.24-3.34ZM140.29,125.13h-22.12v54.82h22.12c38.63,0,70.06,31.42,70.06,70.05,0,10.51-2.34,20.48-6.51,29.44l40.35,39.76c13.25-19.82,20.99-43.62,20.99-69.2,0-68.85-56.02-124.87-124.89-124.87Z"/><path id="path42" class="cls-3" d="m305.79,125.13h-89.56c21.87,13.35,39.99,32.29,52.33,54.82h37.23c11.7,0,21.22,9.51,21.22,21.22s-9.52,21.21-21.22,21.21h-8.37l84.08,82.84c.2-2.25.32-4.51.32-6.8,0-18.48-6.63-35.43-17.64-48.63,11.01-13.19,17.64-30.15,17.64-48.62,0-41.93-34.1-76.04-76.03-76.04Z"/><path id="path44" class="cls-2" d="m300.28,374.46h-83.4c16.79-10.37,31.3-24.06,42.7-40.1l40.71,40.1Zm-56.1-55.27l-40.34-39.76c-11.15,23.95-35.43,40.61-63.55,40.61h-22.12v54.82h22.12c43.28,0,81.48-22.14,103.89-55.67Z"/></g></svg>