<?xml version="1.0" encoding="UTF-8"?><svg id="Layer_1" xmlns="http://www.w3.org/2000/svg" viewBox="0 0 500 500"><defs><style>.cls-1{fill:#9fb603;}.cls-2{fill:#1266a8;}</style></defs><g><path class="cls-1" d="m225.25,309.04h24.75v-9.17h-26.63c-2.49-13.85-3.87-29.08-4.09-45.28h30.72v-9.19h-30.72c.2-14.82,1.39-28.88,3.5-41.82h27.22v-9.19h-25.52c6.66-31.87,17.53-46.19,25.52-46.19v-9.17c-61.19,0-110.97,49.79-110.97,110.97s49.78,110.97,110.97,110.97v-9.17c-7.56,0-18.04-13.25-24.75-42.76Zm5.78-157.45c-6.63,9.62-12.15,24.49-15.83,42.8h-27.49c10.13-21.16,25.62-36.39,43.32-42.8Zm-20.92,103c.22,16.07,1.57,31.28,4,45.28h-28.93c-5.71-13.82-8.98-29.41-9.49-45.28h34.42Zm-34.42-9.19c.47-14.7,3.21-28.75,8.13-41.82h29.72c-2.07,13.06-3.22,27.11-3.43,41.82h-34.42Zm23.65-83.64c-8.72,8.84-16.07,19.9-21.65,32.63h-12.92c8.78-13.4,20.73-24.63,34.57-32.63Zm-39.9,41.81h14.66c-4.59,13.17-7.13,27.21-7.59,41.82h-18.17c.66-14.72,4.38-28.77,11.1-41.82Zm-11.1,51.01h18.17c.49,15.76,3.53,31.31,8.83,45.28h-14.02c-7.8-13.81-12.26-29.4-12.98-45.28Zm18.8,54.45h12.11c5.36,11.3,12.21,21.21,20.17,29.26-12.71-7.28-23.68-17.2-32.28-29.26Zm22.31,0h26.46c3.69,16.93,8.85,30.35,15.09,39.34-16.63-6.05-31.46-20.04-41.55-39.34Z"/><path class="cls-1" d="m250,139.03h0v9.17h0c7.98,0,18.86,14.32,25.51,46.19h-25.51v9.19h27.22c2.11,12.9,3.29,26.96,3.5,41.82h-30.72v9.19h30.72c-.22,16.2-1.6,31.42-4.08,45.28h-26.64v9.17h24.76c-6.72,29.51-17.2,42.76-24.76,42.76h0v9.17h0c61.19,0,110.97-49.78,110.97-110.97s-49.78-110.97-110.97-110.97Zm101.66,106.38h-18.17c-.44-14.59-2.99-28.64-7.58-41.82h14.65c6.72,13.05,10.44,27.1,11.1,41.82Zm-16.43-51.01h-12.92c-5.57-12.72-12.93-23.79-21.65-32.63,13.84,8,25.79,19.22,34.57,32.63Zm-45.34,51.01c-.2-14.71-1.35-28.75-3.43-41.82h29.72c4.92,13.07,7.65,27.12,8.13,41.82h-34.42Zm34.42,9.19c-.52,15.88-3.78,31.46-9.49,45.28h-28.93c2.43-13.99,3.78-29.2,4-45.28h34.42Zm-55.34-103c17.7,6.41,33.18,21.65,43.32,42.8h-27.49c-3.68-18.31-9.21-33.19-15.84-42.8Zm.03,196.79c6.24-9,11.4-22.41,15.09-39.34h26.45c-10.09,19.3-24.91,33.29-41.54,39.34Zm31.58-10.08c7.97-8.05,14.81-17.96,20.17-29.26h12.11c-8.6,12.05-19.57,21.97-32.28,29.26Zm38.12-38.43h-14.03c5.3-13.96,8.34-29.52,8.82-45.28h18.17c-.71,15.87-5.18,31.46-12.97,45.28Z"/></g><g><path class="cls-2" d="m411.14,211.82h-23.08l-2.18-6.59c-2.21-6.71-4.96-13.32-8.16-19.62l-3.14-6.21,16.35-16.34c2.44-2.43,3.77-5.67,3.77-9.12s-1.34-6.67-3.77-9.1l-35.76-35.77c-2.44-2.44-5.67-3.78-9.12-3.78s-6.68,1.34-9.11,3.77l-16.33,16.35-6.21-3.14c-6.37-3.22-12.97-5.96-19.61-8.16l-6.6-2.17v-23.09c0-7.1-5.78-12.87-12.88-12.87h-25.3v57.61c64.18,0,116.4,52.23,116.4,116.4s-52.22,116.4-116.4,116.4v57.62h25.3c7.1,0,12.88-5.77,12.88-12.87v-23.08l6.59-2.17c6.73-2.22,13.33-4.96,19.61-8.16l6.21-3.14,16.36,16.35c2.42,2.44,5.66,3.78,9.11,3.78s6.67-1.34,9.11-3.78l35.76-35.76c5.02-5.03,5.02-13.21,0-18.23l-16.35-16.35,3.14-6.21c3.2-6.31,5.95-12.91,8.16-19.62l2.18-6.59h23.08c7.1,0,12.88-5.78,12.88-12.89v-50.59c0-7.1-5.78-12.88-12.88-12.88Z"/><path class="cls-2" d="m133.6,250c0-64.18,52.22-116.4,116.4-116.4v-57.61h-25.3c-7.1,0-12.88,5.77-12.88,12.87v23.09l-6.6,2.17c-6.64,2.19-13.25,4.93-19.61,8.16l-6.2,3.14-16.35-16.34c-2.44-2.44-5.67-3.78-9.11-3.78s-6.69,1.34-9.11,3.78l-35.78,35.77c-5.02,5.02-5.02,13.2,0,18.22l16.33,16.34-3.14,6.2c-3.21,6.35-5.95,12.95-8.15,19.62l-2.17,6.6h-23.08c-7.1,0-12.88,5.78-12.88,12.88v50.59c0,7.1,5.78,12.89,12.88,12.89h23.08l2.17,6.59c2.2,6.67,4.94,13.27,8.15,19.63l3.14,6.21-16.33,16.33c-5.02,5.03-5.02,13.21,0,18.24l35.76,35.76c2.44,2.44,5.67,3.77,9.12,3.77s6.68-1.34,9.11-3.77l16.35-16.35,6.21,3.14c6.3,3.19,12.91,5.95,19.61,8.16l6.59,2.17v23.08c0,7.1,5.78,12.87,12.88,12.87h25.3v-57.62c-64.18,0-116.4-52.22-116.4-116.4Z"/></g></svg>