<?xml version="1.0" encoding="UTF-8"?><svg id="Layer_1" xmlns="http://www.w3.org/2000/svg" xmlns:xlink="http://www.w3.org/1999/xlink" viewBox="0 0 500 500"><defs><style>.cls-1{fill:url(#linear-gradient-2);}.cls-2{fill:#e22285;}.cls-3{fill:url(#radial-gradient);}.cls-4{fill:url(#linear-gradient);}</style><linearGradient id="linear-gradient" x1="460.77" y1="-3622.49" x2="480.97" y2="-3601" gradientTransform="translate(-4045.48 -32345.81) scale(9.04 -9.04)" gradientUnits="userSpaceOnUse"><stop offset="0" stop-color="#df1d83"/><stop offset=".4" stop-color="#de1d84"/><stop offset=".77" stop-color="#922c86"/><stop offset="1" stop-color="#5d2f87"/></linearGradient><radialGradient id="radial-gradient" cx="483.98" cy="-3675.41" fx="483.98" fy="-3675.41" r="19.74" gradientTransform="translate(-3987.81 -27637.51) rotate(.14) scale(9.04 -7.56)" gradientUnits="userSpaceOnUse"><stop offset="0" stop-color="#df1d83"/><stop offset=".14" stop-color="#dd1e84"/><stop offset=".28" stop-color="#d52084"/><stop offset=".43" stop-color="#c82385"/><stop offset=".59" stop-color="#b62785"/><stop offset=".74" stop-color="#9c2b86"/><stop offset=".89" stop-color="#7c2e87"/><stop offset="1" stop-color="#5d2f87"/></radialGradient><linearGradient id="linear-gradient-2" x1="465.6" y1="-3592.4" x2="474.38" y2="-3592.4" gradientTransform="translate(-4045.48 -32345.81) scale(9.04 -9.04)" gradientUnits="userSpaceOnUse"><stop offset="0" stop-color="#df1d83"/><stop offset=".24" stop-color="#d91e84"/><stop offset=".66" stop-color="#c62084"/><stop offset="1" stop-color="#b42283"/></linearGradient></defs><path class="cls-2" d="m85.36,299.23c-7.63-23.77-9.83-48.87-5.43-74.7,1.91-10.71,4.84-20.99,8.07-31.41,0,0,20.25-66.48,88.79-96.86,0,0,23.63-12.47,59.14-13.35,0,0-4.84-4.7-7.92-6.75-16.73-11.15-41.68-14.82-56.79.88-4.55,4.7-8.36,9.83-12.62,14.53-4.84,5.28-10.71,9.69-17.46,12.18-5.87,2.2-11.74,1.76-17.76,2.79-6.16,1.03-12.47,3.23-17.46,7.19-5.43,4.4-7.63,10.27-8.22,17.02-.59,5.28-.44,10.71-.73,16-.73,15.56-5.72,19.96-16.88,28.62-4.7,3.52-8.66,8.22-11.59,13.21-8.81,15.56,5.28,31.7,6.02,47.4.15,3.23-.15,6.46-1.32,9.54-1.17,3.38-3.52,5.58-5.43,8.36-2.64,3.67-4.4,8.07-3.67,12.62.73,4.55,3.08,8.81,5.28,12.77,4.26,7.04,9.54,13.35,15.12,19.37.29,0,.59.29.88.59"/><path class="cls-4" d="m365.36,355.59c33.75-14.68,48.14-40.06,48.14-40.06,31.55-43,20.84-88.35,20.84-88.35-20.11,43.73-38.45,55.77-38.45,55.77,49.46-75.28.29-120.78.29-120.78,20.11,42.85-6.6,95.1-6.6,95.1-22.45,47.25-54.3,64.13-54.3,64.13,35.51,6.6,61.64-17.32,61.64-17.32-50.92,55.03-106.1,52.39-106.1,52.39,23.19,25.98,57.97,23.77,57.97,23.77-45.49,10.71-88.2-4.4-123.27-33.61-6.6-5.43-12.91-11.3-18.78-17.61,0,0-5.28-5.58-6.31-7.04l-.15-.15c-.73,27.15,27.59,52.39,27.59,52.39-35.51-14.68-51.8-46.52-51.8-46.52,0,0-23.92-40.8-6.6-87.32,17.32-46.52,69.71-56.5,69.71-56.5,43.29,20.99,79.98,27.59,79.98,27.59,77.34,12.91,72.94-24.95,72.94-24.95.73-32.58-48.43-67.21-48.43-67.21-87.61-65.01-166.86-23.04-166.86-23.04-68.53,30.38-88.79,96.86-88.79,96.86-3.23,10.42-6.16,20.69-8.07,31.41-7.48,43.59,3.82,84.82,28.32,121.51,38.16,56.94,100.09,76.61,100.09,76.61,91.72,31.11,154.39-14.68,154.39-14.68,57.67-39.62,69.27-85.41,69.27-85.41-46.52,36.4-66.63,33.02-66.63,33.02h0Zm-71.62-214.11c4.4,0,7.92,3.52,7.92,7.92s-3.52,7.92-7.92,7.92-7.92-3.52-7.92-7.92,3.52-7.92,7.92-7.92Z"/><path class="cls-3" d="m391.93,186.38c.73-32.58-48.43-67.21-48.43-67.21-87.61-64.87-166.86-22.89-166.86-22.89-68.53,30.38-88.79,96.86-88.79,96.86-3.96,11.3-7.48,28.62-7.48,28.62-4.26,21.72-2.35,41.82-2.35,41.82,1.76,19.22,6.02,32.14,6.02,32.14,4.4,13.79,6.46,18.05,6.46,18.05-.15-.44-.88-3.67-.88-3.67,0,0-6.16-29.64-.44-58.11,0,0,4.99-29.64,25.24-52.54,0,0,32.87-46.81,94.07-28.47,0,0,13.21,4.7,17.76,7.04,4.55,2.2,12.47,5.58,12.47,5.58,43.29,20.99,79.98,27.59,79.98,27.59,77.63,13.06,73.23-24.8,73.23-24.8Zm-98.18-28.91c-4.4,0-7.92-3.52-7.92-7.92s3.52-7.92,7.92-7.92,7.92,3.52,7.92,7.92-3.52,7.92-7.92,7.92Z"/><path class="cls-1" d="m243.56,127.39l-50.04-15.56c-.29,0-1.76-.73-4.4,0,0,0-29.5,7.48-24.36,23.63,0,0,3.08,10.13,11.45,19.96l55.03-2.64,12.33-25.39Z"/></svg>