<?xml version="1.0" encoding="UTF-8"?><svg id="Layer_1" xmlns="http://www.w3.org/2000/svg" viewBox="0 0 500 500"><defs><style>.cls-1{fill:#ff6c2c;}</style></defs><path class="cls-1" d="m150.29,182.15h75.54l-11.7,44.79c-1.79,6.24-5.13,11.26-10.03,15.04-4.9,3.79-10.59,5.68-17.05,5.68h-35.1c-8.02,0-15.1,2.34-21.22,7.02-6.13,4.68-10.42,11.03-12.87,19.05-1.56,6.02-1.73,11.7-.5,17.05,1.22,5.35,3.39,10.09,6.52,14.2,3.12,4.13,7.13,7.41,12.04,9.86,4.9,2.46,10.25,3.67,16.04,3.67h21.39c4.01,0,7.3,1.62,9.86,4.85,2.56,3.23,3.29,6.85,2.17,10.86l-13.37,49.47h-23.4c-16.04,0-30.81-3.51-44.29-10.53-13.48-7.02-24.68-16.32-33.59-27.91-8.91-11.58-14.99-24.78-18.22-39.6-3.23-14.82-2.84-30.03,1.17-45.63l1.34-5.01c2.82-10.55,7.4-20.55,13.53-29.58,6.13-9.02,13.37-16.71,21.73-23.06,8.36-6.35,17.66-11.31,27.91-14.87,10.25-3.56,20.94-5.35,32.09-5.35Z"/><path class="cls-1" d="m188.39,383.69l65.84-246.67c1.78-6.24,5.12-11.25,10.03-15.04,4.9-3.79,10.58-5.68,17.05-5.68h69.86c16.04,0,30.8,3.51,44.29,10.53,13.48,7.02,24.68,16.33,33.59,27.91,8.91,11.59,15.04,24.79,18.38,39.61,3.34,14.82,2.89,30.03-1.34,45.62l-1.33,5.01c-2.9,10.69-7.35,20.56-13.37,29.58-6.02,9.02-13.2,16.77-21.56,23.23-8.36,6.46-17.66,11.48-27.91,15.04-10.25,3.57-20.95,5.35-32.09,5.35h-60.5l12.03-45.12c1.78-6.02,5.12-10.91,10.03-14.71,4.9-3.78,10.58-5.68,17.05-5.68h19.39c8.02,0,15.21-2.45,21.55-7.35,6.35-4.9,10.53-11.25,12.54-19.05,1.56-5.57,1.72-11.03.5-16.38-1.23-5.35-3.4-10.08-6.52-14.21-3.12-4.12-7.13-7.46-12.03-10.03-4.9-2.56-10.25-3.84-16.04-3.84h-37.44l-48.8,181.49c-1.79,6.02-5.13,10.92-10.03,14.71-4.9,3.79-10.48,5.68-16.71,5.68h-46.45Z"/></svg>