<?xml version="1.0" encoding="UTF-8"?><svg id="Layer_1" xmlns="http://www.w3.org/2000/svg" viewBox="0 0 500 500"><defs><style>.cls-1{fill:#017aca;}</style></defs><path class="cls-1" d="m303.92,73.85s.18,0,.31.12c1.6,1.09,3.37,1.78,4.48,3.05,21.98,24.98,43.86,50.05,65.86,75.02,2.31,2.62,3.28,5.34,3.26,8.75-.09,12.33-.04,24.66-.04,36.99v2.09c2.88,0,5.56-.03,8.25,0,9.07.14,16.41,5.51,19.03,13.9.33,1.04.63,2.1.94,3.14,0,.38,0,.77-.12,1.39-.16.53-.24.83-.24,1.12,0,34.14,0,68.27.01,102.41,0,.5.22.99.34,1.49,0,.62,0,1.23-.13,2.05-.9,3.76-2.28,7.03-4.71,9.79-3.98,4.51-9.01,6.78-15.01,6.85-2.78.03-5.56,0-8.42,0v2.22c0,22.15,0,44.3,0,66.45,0,1.08-.01,2.16-.1,3.23-.45,5.52-5.1,10.74-10.48,11.84-.36.07-.69.25-1.04.37-77.54,0-155.08,0-232.82-.13-7.81-2.61-11.09-7.15-11.09-15.19,0-22.2,0-44.41,0-66.61,0-.69,0-1.37,0-2.18-3.18,0-6.11.06-9.03-.01-8.75-.2-16.32-6.29-18.51-14.8-.15-.6-.45-1.15-.68-1.73,0-.5,0-1,.12-1.75.16-.54.24-.83.24-1.12,0-34.13,0-68.27-.02-102.4,0-.5-.22-1-.34-1.5,0-.62,0-1.23.13-2.05,2.48-10.73,9.91-16.69,20.73-16.73,2.38,0,4.77,0,7.36,0,0-.86,0-1.56,0-2.26,0-35.99,0-71.99,0-107.98,0-1.02.01-2.04.09-3.05.45-5.85,4.36-10.6,10.02-12.21.54-.15,1.05-.39,1.57-.59,0,0,.18,0,.35.13,1.3.16,2.43.22,3.56.22,54.77,0,109.53,0,164.3-.01.61,0,1.22-.22,1.82-.34m60.03,121.68v-30.33h-2.24c-19.23,0-38.46,0-57.69,0-5.42,0-8.01-2.61-8.01-8.04,0-22.47,0-44.93,0-67.4v-2.01h-159.87v112h227.82v-4.23m-199.34,213.05h199.27v-66.43h-227.76v66.43h28.49m177.81-117.49c-.9-16.55-1.81-33.1-2.72-49.84-5.51,0-10.89-.02-16.26.05-.38,0-.97.62-1.11,1.06-3.06,10.05-6.1,20.11-9.08,30.18-.81,2.75-1.45,5.55-2.1,8.11-3.53-13.1-7.08-26.27-10.59-39.29h-17.64c-1.22,19.18-2.43,38.28-3.65,57.43h12.08c.69-14.99,1.37-29.86,2.03-44.43,3.76,14.41,7.58,29.05,11.4,43.65,3.31,0,6.24-.04,9.17.02.99.02,1.3-.38,1.57-1.26,3.67-12.11,7.4-24.21,11.09-36.32.7-2.3,1.27-4.65,1.98-7.26.51,15.45,1.01,30.56,1.5,45.63h12.79c-.15-2.53-.29-4.97-.45-7.74m-167.32-18.26v25.97h13.13v-23.92h21.41v23.91h12.93v-57.39h-12.98v21.87h-21.5v-21.92h-13c0,10.42,0,20.76,0,31.46m-50.73,15.65c-1.95,3.41-3.9,6.81-5.97,10.44,4.91,0,9.56.03,14.21-.05.4,0,.95-.61,1.16-1.06,2.55-5.53,5.05-11.08,7.56-16.63.43-.95.8-1.92,1.27-3.07,3.33,6.67,6.52,13.08,9.75,19.47.26.52.8,1.27,1.22,1.27,4.75.09,9.5.06,14.5.06-.45-.77-.74-1.27-1.04-1.77-5.09-8.79-10.16-17.59-15.29-26.35-.6-1.02-.61-1.72-.01-2.74,4.86-8.3,9.65-16.64,14.46-24.97.29-.5.55-1.01.94-1.75-4.89,0-9.53-.03-14.17.05-.39,0-.92.63-1.13,1.09-2.14,4.6-4.24,9.22-6.3,13.85-.72,1.61-1.32,3.28-2.05,5.12-2.45-5.21-5.09-10.05-7.01-15.17-1.52-4.03-3.71-5.63-8.02-5.02-3.01.42-6.12.08-9.4.08.44.79.72,1.31,1.01,1.82,4.75,8.43,9.48,16.87,14.28,25.27.59,1.04.56,1.73-.03,2.73-3.31,5.67-6.54,11.4-9.93,17.33m133.87-20.69v-15.68h15.68v-10.72h-44.21v10.81h15.45v46.59h13.09v-31.01m94.61,17.26v13.79h35.92v-10.9h-22.86v-46.58h-13.07v43.69Z"/></svg>