<?xml version="1.0" encoding="UTF-8"?><svg id="Layer_1" xmlns="http://www.w3.org/2000/svg" xmlns:xlink="http://www.w3.org/1999/xlink" viewBox="0 0 500 500"><defs><style>.cls-1{fill:url(#linear-gradient-2);}.cls-2{fill:url(#linear-gradient-3);}.cls-3{fill:url(#linear-gradient);}</style><linearGradient id="linear-gradient" x1="53.66" y1="213.47" x2="324.22" y2="213.47" gradientUnits="userSpaceOnUse"><stop offset="0" stop-color="#f60"/><stop offset="1" stop-color="#f60"/></linearGradient><linearGradient id="linear-gradient-2" x1="152.27" y1="353.58" x2="446.34" y2="353.58" xlink:href="#linear-gradient"/><linearGradient id="linear-gradient-3" x1="310.27" y1="238.98" x2="398.94" y2="238.98" xlink:href="#linear-gradient"/></defs><path class="cls-3" d="m53.66,102.03c56.13,0,111.22-.01,166.3.07,1.48,0,3.38.56,4.38,1.55,26.99,26.86,53.9,53.81,80.8,80.76.8.8,1.44,1.76,2.57,3.16-5.71,5.38-11.33,10.67-18.05,17.01,5.71,5.27,10.76,9.77,15.64,14.45,5.4,5.17,10.74,10.41,15.9,15.82,1.38,1.44,2.85,3.58,2.87,5.4.2,21.44.13,42.88.13,65.76-22.92-22.85-45.02-44.89-67.34-67.15-5.93,6.3-11.45,12.17-17.54,18.64,21.96,21.61,44.42,43.71,66.88,65.81-.22.41-.44.83-.67,1.24-1.37.11-2.74.32-4.11.32-19.47.02-38.95.11-58.42-.11-2.34-.03-5.23-1.16-6.89-2.77-10.46-10.2-20.65-20.69-31.44-31.6-5.68,6.31-10.96,12.18-17.01,18.92-6.54-6.87-11.86-12.65-17.39-18.23-10.24-10.34-20.61-20.55-30.91-30.83-11.67-11.65-23.4-23.25-34.9-35.07-1.41-1.45-2.19-4.1-2.23-6.21-.2-12.47,0-24.94-.17-37.41-.05-3.61.92-4.98,4.76-4.91,12.98.21,25.96.07,38.94.1,1.29,0,2.59.21,4.5.38,0,7.62-.07,15.05.05,22.48.03,1.73.16,4.01,1.22,5.09,11.5,11.73,23.19,23.28,35.63,35.68,7.1-7.36,13.93-14.56,20.9-21.62,9.34-9.47,18.71-18.93,28.26-28.19,2.71-2.62,2.64-4.51.13-6.99-9.89-9.78-19.61-19.74-29.68-29.33-1.79-1.71-4.93-2.83-7.45-2.84-30.62-.19-61.25-.19-91.87-.04-3.67.02-6.12-1.16-8.64-3.74-14.07-14.37-28.35-28.55-42.55-42.81-.68-.68-1.32-1.4-2.61-2.78Z"/><path class="cls-1" d="m152.27,344c12.26-12.31,23.2-23.29,34.68-34.81,4.73,4.64,9.45,9.19,14.08,13.82,8,7.99,15.75,16.25,24.05,23.92,2.11,1.95,5.91,2.91,8.94,2.92,52.26.17,104.53.2,156.79.01,5.74-.02,9.78,1.48,13.85,5.76,12.83,13.49,26.22,26.44,39.4,39.61.57.57,1.1,1.19,2.27,2.47h-5.95c-74.4,0-148.81-.2-223.21.27-8.67.06-13.61-3.81-18.79-9.15-5.48-5.65-11.11-11.15-16.67-16.72-5.35-5.36-10.59-10.82-16.05-16.06-4.24-4.07-8.75-7.88-13.39-12.03Z"/><path class="cls-2" d="m344.65,153.52c12.84,12.95,25.95,26.16,39.05,39.37,4.22,4.25,8.6,8.35,12.57,12.82,1.38,1.56,2.49,4,2.49,6.05.15,35.91.07,71.82.17,107.74.01,3.67-1.17,4.97-4.87,4.93-12.81-.16-25.63-.18-38.45,0-4.04.06-4.98-1.46-4.96-5.28.15-27.1-.3-54.21.32-81.3.18-7.74-2.72-12.6-7.87-17.49-10.7-10.16-21.07-20.68-31.54-31.07-.57-.57-.92-1.35-1.3-1.93,11.3-11.13,22.51-22.16,34.38-33.85Z"/></svg>