<?xml version="1.0" encoding="UTF-8"?><svg id="Layer_1" xmlns="http://www.w3.org/2000/svg" viewBox="0 0 500 500"><defs><style>.cls-1{fill:#fff;}.cls-2{fill:#dc0031;}.cls-3{fill:#c2002f;}</style></defs><path class="cls-3" d="m286.4,265.38c0,5.15-1.89,9.02-5.71,11.51-3.77,2.5-9.32,3.77-16.66,3.77h-14.06v-30.51h14.06c7.34,0,12.89,1.22,16.66,3.72,3.82,2.55,5.71,6.37,5.71,11.51Z"/><path class="cls-3" d="m279.11,206.09c0,4.84-1.83,8.51-5.4,10.95s-8.97,3.67-16.1,3.67h-7.64v-29.04h7.64c7.13,0,12.53,1.17,16.1,3.57,3.57,2.34,5.4,5.96,5.4,10.85Z"/><path class="cls-3" d="m395.67,140.78l-20.84,194.19-124.86,75.44v-99.03h17.52c20.17,0,35.56-3.62,46.1-10.85,10.54-7.23,15.79-17.37,15.79-30.41,0-8.76-2.19-16.15-6.57-22.26-4.33-6.06-10.49-10.75-18.34-13.96-.97-.41-1.99-.66-2.96-1.02,6.01-3.21,10.9-7.29,14.42-12.33,4.13-5.81,6.16-12.53,6.16-20.27,0-11.77-4.89-21.24-14.62-28.48-9.78-7.23-24.5-10.9-44.32-10.9h-13.19v-71.32l145.69,51.2Z"/><rect class="cls-2" x="228.37" y="250.15" width="21.6" height="30.51"/><rect class="cls-2" x="228.37" y="191.67" width="21.6" height="29.04"/><polygon class="cls-2" points="186.25 160.9 186.25 311.39 249.98 311.39 249.98 410.42 125.12 334.97 104.33 140.78 249.98 89.58 249.98 160.9 186.25 160.9"/><path class="cls-1" d="m322.82,247.86c-4.33-6.06-10.49-10.75-18.34-13.96-.97-.41-1.99-.66-2.96-1.02,6.01-3.21,10.9-7.29,14.42-12.33,4.13-5.81,6.16-12.53,6.16-20.27,0-11.77-4.89-21.24-14.62-28.48-9.78-7.23-24.5-10.9-44.32-10.9h-76.92v150.48h81.25c20.17,0,35.56-3.62,46.1-10.85,10.54-7.23,15.79-17.37,15.79-30.41,0-8.76-2.19-16.15-6.57-22.26Zm-94.45-56.19h29.24c7.13,0,12.53,1.17,16.1,3.57,3.57,2.34,5.4,5.96,5.4,10.85s-1.83,8.51-5.4,10.95-8.97,3.67-16.1,3.67h-29.24v-29.04Zm52.32,85.23c-3.77,2.5-9.32,3.77-16.66,3.77h-35.66v-30.51h35.66c7.34,0,12.89,1.22,16.66,3.72,3.82,2.55,5.71,6.37,5.71,11.51s-1.89,9.02-5.71,11.51Z"/></svg>