<?xml version="1.0" encoding="UTF-8"?><svg id="Layer_1" xmlns="http://www.w3.org/2000/svg" viewBox="0 0 500 500"><defs><style>.cls-1{fill:#00b935;}</style></defs><g id="e6c6b53d3c8160b22dad35a0f7102781"><path class="cls-1" d="m173.85,147.74c-2.86-51.36,20.17-84.64,55.01-103.68,10.97,6.09,35.39-3.07,34.92,14.79-.42,16.77-27.49,11.39-35.98,1.05-30.64,16.26-45.47,43.83-45.47,81.45,0,28.45,11.77,54.76,21.14,78.3,4.16,10.38,7.4,22.44,14.79,34.92,7.56,12.69,31.23,30.34,11.64,35.98h-7.4c-10.3-19.84-19.16-42.87-28.58-66.66-9.25-23.41-18.53-48.21-20.09-76.15Zm161.22,271.16c-15.76,18.62-45.98,36.56-75.1,37.03-24.96.38-60.77-14.96-76.15-28.58-19.33-17.02-37.78-51.36-40.22-79.35-1.81-20.72,1.89-40.22,15.89-52.91,11.52-10.46,28.79-12.99,44-19.88,3.11,6.98,6.26,13.74,9.62,20.22,1.81,3.49,5.42,5.72,9.37,5.72h7.4c.97,0,1.98-.13,2.9-.42,9.71-2.77,13.28-8.36,14.54-12.52,2.65-8.66-2.19-16.6-8.28-24.25,12.23-4.29,20-12.36,30.39-15.38,12.94-3.82,31.73.46,41.27,5.3,49.3,24.88,61.74,120.87,24.38,165.04Zm-31.73-159.75c-9.41-10.25-40.6-9.46-39.13,9.54,9.41-.67,22.69-.38,33.87-4.24-4.29-1.98,4.24-1.43,5.25-5.3Z"/></g></svg>