<?xml version="1.0" encoding="UTF-8"?><svg id="Layer_1" xmlns="http://www.w3.org/2000/svg" viewBox="0 0 500 500"><defs><style>.cls-1{fill:#1da0f1;}.cls-2{fill:#563d7c;}</style></defs><g><path class="cls-2" d="m315.7,290.74c-4.62-3.5-10.73-5.25-18.32-5.25h-38.21v43.79h37.54c3.43,0,6.7-.34,9.83-1,3.13-.67,5.88-1.79,8.27-3.35,2.38-1.56,4.28-3.69,5.7-6.37,1.42-2.68,2.12-6.11,2.12-10.28,0-8.19-2.31-14.04-6.93-17.54Z"/><path class="cls-2" d="m310.11,257.11c4.02-2.98,6.03-7.82,6.03-14.52,0-3.72-.67-6.78-2.01-9.16-1.34-2.38-3.13-4.24-5.36-5.59-2.23-1.34-4.8-2.27-7.71-2.79-2.9-.52-5.92-.78-9.05-.78h-32.84v37.31h0s35.53,0,35.53,0c6.26,0,11.4-1.49,15.42-4.47Z"/><path class="cls-2" d="m379.42,145.03h-195.54c-18.77,0-33.98,15.21-33.98,33.97v195.54h0c0,18.77,15.21,33.98,33.97,33.98h195.54c18.77,0,33.98-15.21,33.98-33.97v-195.54c0-18.77-15.21-33.98-33.97-33.98Zm-26.41,186.15c-3.13,5.88-7.34,10.69-12.62,14.41-5.29,3.72-11.32,6.48-18.1,8.27-6.78,1.79-13.74,2.68-20.89,2.68h-77.31v-159.53h75.07c7.6,0,14.52.67,20.78,2.01,6.26,1.34,11.62,3.54,16.09,6.59,4.47,3.05,7.93,7.11,10.39,12.18,2.46,5.06,3.69,11.32,3.69,18.77,0,8.04-1.82,14.75-5.47,20.11-3.65,5.36-9.05,9.76-16.2,13.18,9.83,2.83,17.17,7.78,22.01,14.86,4.84,7.08,7.26,15.6,7.26,25.58,0,8.04-1.56,15.01-4.69,20.89Z"/></g><path class="cls-1" d="m118.16,234.75c61.86,0,95.69-51.27,95.69-95.72,0-1.46-.03-2.91-.1-4.35,6.58-4.76,12.26-10.66,16.78-17.42-6.03,2.68-12.51,4.48-19.31,5.3,6.94-4.16,12.27-10.75,14.79-18.61-6.6,3.92-13.82,6.68-21.35,8.17-6.14-6.54-14.87-10.63-24.55-10.63-18.57,0-33.63,15.07-33.63,33.64,0,2.64.3,5.21.87,7.67-27.95-1.41-52.73-14.79-69.32-35.15-2.99,5.13-4.56,10.97-4.55,16.91,0,11.67,5.94,21.98,14.97,28-5.34-.16-10.56-1.61-15.23-4.21,0,.14,0,.28,0,.43,0,16.29,11.59,29.9,26.98,32.98-2.89.79-5.87,1.19-8.87,1.18-2.16,0-4.27-.21-6.32-.61,4.28,13.37,16.7,23.09,31.42,23.37-11.51,9.02-26.01,14.4-41.77,14.4-2.68,0-5.36-.15-8.02-.47,14.88,9.54,32.56,15.11,51.55,15.11"/></svg>