<?xml version="1.0" encoding="UTF-8"?><svg id="Layer_1" xmlns="http://www.w3.org/2000/svg" viewBox="0 0 500 500"><defs><style>.cls-1{fill:#b90000;}.cls-2{fill:#54d2bc;}</style></defs><g><path class="cls-1" d="m113.34,214.4l5.88,7.49.65.83.84,1.07c4.21-22.53,13.74-43.19,27.25-60.65-4.49,8.66-6.44,17.74-5.68,26.79-9.19,10.65-16.23,22.48-20.6,35.09l2.76,3.53c4.37-11.3,10.77-22.09,18.87-32.01,2.93,12.77,11.21,25.2,24.97,35.89-5.8,11.26-10.48,22.81-13.87,34.3l7.72,9.85c3.17-12.9,7.79-25.99,13.71-38.84,15.31,9.85,34.02,16.49,53.93,19.88-2.78,18.25-4.83,36.43-5.92,53.48-1.51-.25-2.99-.57-4.48-.86,1.47.57,2.95,1.14,4.42,1.7,4.06,1.53,8.14,3,12.22,4.41,4.79,1.65,9.59,3.24,14.39,4.73,19.78.92,39.83-.68,58.77-4.94.39,6.41.57,12.64.55,18.62,0,.1,0,.19,0,.28,4.06.64,8.06,1.18,12.03,1.65.05-1.66.1-3.32.11-5.05.01-5.98-.22-12.2-.7-18.59,12.41-3.62,24.19-8.44,34.88-14.47,9.01-5.06,16.74-10.69,23.15-16.72.95,6.14,1.44,12.23,1.42,18.21-.04,9.53-1.32,18.3-3.75,26.17-4.67,4.37-10.04,8.52-16.08,12.4,1.19-.03,2.42,0,3.58-.06.8-.03,1.55-.11,2.36-.15,2.94-2.25,5.74-4.55,8.3-6.93-.91,2.28-1.91,4.46-2.99,6.57.04,0,.08-.01.11-.01.81-.07,1.57-.18,2.35-.25,3.55-.36,7-.81,10.3-1.38,17.11-24.53,27.19-54.31,27.19-86.43,0-83.5-67.94-151.43-151.44-151.43-28.38,0-54.94,7.86-77.67,21.5l2.86.23-22.5,13.8c-24.33,20.46-42.14,48.43-49.86,80.31Zm41.49-59.5c3.22-3.57,6.6-6.99,10.17-10.22,8.96-5.89,19.42-10.09,31.05-12.34-5.76,7.1-8.35,15-7.68,22.83-16.03,7.82-30.09,17.92-41.43,29.67-.85-10.18,1.84-20.39,7.89-29.94Zm17.1,70.78c-13.22-10.27-21.18-22.21-23.98-34.47,11.23-12.39,25.18-23.27,41.05-31.99,1.8,7.82,6.88,15.42,15.29,21.96-12.51,13.55-23.49,28.69-32.35,44.51Zm59.07,24.2c-19.12-3.25-37.11-9.63-51.83-19.09,8.15-16.31,18.23-32.08,29.72-46.36,9.37,6.02,20.82,10.08,32.99,12.16-4.2,16.96-7.9,35.09-10.87,53.3Zm17.22-52.41c12.41,1.38,25.32.74,37.34-1.96,5.45,16.72,10.22,34.63,14.06,52.68-18.9,4.25-39.16,5.26-58.67,3.09,1.99-18.35,4.46-36.64,7.27-53.81Zm-12.08,115.37c.75-17.1,2.12-35.37,4-53.76,20.3,2.26,41.39,1.22,61.05-3.21,3.57,18.09,6.15,36.17,7.5,53.16-23.37,5.25-48.43,6.49-72.55,3.8Zm55.53-118.9c6.33-1.85,12.32-4.31,17.78-7.37,4.59-2.59,8.53-5.46,11.79-8.52,13.34,12.86,25.01,27.41,34.42,42.72-5.14,4.83-11.32,9.33-18.53,13.38-8.56,4.82-17.98,8.68-27.92,11.58-4.77-17.81-10.72-35.41-17.53-51.79Zm75.15-38.34c3.55,5.68,5.9,11.57,7.01,17.52-11.2-10.59-25.13-19.23-41.01-25.41-1.49-7.82-6.23-15.49-14.3-22.13,6.47.65,12.54,2.12,18.12,4.33,11.21,7.13,21.37,15.78,30.18,25.69Zm7.76,23.87c.55,12.31-3.99,24.64-13.53,35.69-9.93-14.76-22.28-28.6-36.37-40.68,6.06-7.03,8.96-14.89,8.61-22.72,15.99,7.06,30.01,16.49,41.29,27.71Zm-19.52,112.19c-10.59,5.97-22.23,10.73-34.52,14.33-1.68-16.9-4.92-34.81-9.37-52.68,10.35-3.01,20.15-7.03,29.06-12.05,7.51-4.22,13.94-8.91,19.29-13.93,8.76,15.56,15.12,31.78,18.46,47.79-6.37,5.96-14,11.53-22.92,16.54Zm10.07-70.17c9.92-11.49,14.65-24.34,14.08-37.14,8.47,9.46,15.04,20.04,19.38,31.39,1.15,4.59,2.06,9.26,2.73,14-.77,13.32-6.37,26.5-16.69,38.44-3.51-15.81-10.23-31.65-19.49-46.7Zm22.05,93.15c-1.18,1.59-2.38,3.17-3.73,4.72,2.58-8.01,3.95-16.83,3.97-26.39.02-5.98-.49-12.04-1.5-18.11,9.47-10.95,14.92-22.94,16.45-35.12.25,3.39.41,6.79.41,10.24,0,23.28-5.67,45.24-15.61,64.66Zm5.3-117.7c-3.81-6.87-8.52-13.31-14.04-19.21-.89-4.75-2.58-9.47-4.97-14.09,7.75,10.12,14.17,21.31,19.01,33.3Zm-126.5-62.13c.14.1.26.19.38.28,16.75-7.14,32.56-10.31,46.67-9.88,7.32,6,11.62,12.94,12.94,20.02-17.6-5.85-37.34-8.75-58.25-8.03.03.12.04.25.05.38,21.04.45,40.91,4.46,58.63,11.31.32,7.08-2.29,14.21-7.8,20.56-15.6-12.41-33.12-22.65-51.65-29.69-.1.12-.2.23-.33.33,17.54,8.09,34.11,19.31,48.89,32.58-2.98,2.78-6.52,5.37-10.68,7.72-4.93,2.78-10.36,4.99-16.08,6.66-7.54-17.17-15.99-32.74-24.95-45.44-.19.07-.4.11-.58.15,7.18,13.16,13.96,29.17,20.01,46.72-10.88,2.44-22.56,3.02-33.79,1.77,3.1-18.03,6.56-34.59,10.22-48.3-.21-.03-.4-.05-.62-.09-5.48,13.46-10.68,29.77-15.34,47.58-11.01-1.87-21.37-5.56-29.86-11,12.75-14.84,26.98-27.81,42.04-37.75-.04-.04-.11-.08-.17-.12-.08-.05-.17-.12-.26-.19-16.41,8.99-31.91,21.06-45.78,35.12-7.61-5.91-12.19-12.8-13.82-19.87,17.6-8.67,37.31-14.72,58.14-17.35-.02-.13-.05-.26-.07-.38-21.02,1.44-40.9,6.39-58.64,14.06-.6-7.08,1.75-14.22,6.97-20.65,15.87-2.09,33.63-.77,52.42,4.41.09-.12.18-.23.31-.35-17.85-6.23-34.72-8.52-49.78-7.32,3.14-3.12,6.99-6.01,11.59-8.59,4.5-2.54,9.38-4.6,14.57-6.22,7.98,2.81,16.91,9.59,26.37,20.58.18-.06.39-.11.58-.17-7.69-11.47-14.98-18.71-21.49-21.92,10.81-2.62,22.47-3.38,33.74-2.31-2.62,3.84-5.55,11.78-8.68,23.98.2.03.41.06.61.09,4.97-11.98,9.68-19.7,13.85-23.35,12.03,1.84,23.35,5.83,32.4,11.89,1.71-.06,3.39-.05,5.04.03-10.01-6.7-22.51-11.11-35.81-13.15.06-.03.1-.03.15-.06,18.02,2.23,35.02,7.8,50.32,16.15-17.16-5.18-38.78-2.35-62.45,9.79Zm-15.78-26.65c-5.4.48-10.75,1.27-15.91,2.53-.35-.12-.71-.2-1.07-.3,5.55-1.07,11.21-1.81,16.97-2.23Zm-24.18,3.84c.74.1,1.47.2,2.21.37-5.71,1.79-11.13,4.07-16.08,6.86-5.08,2.87-9.36,6.07-12.82,9.51-8.82,1.28-16.94,3.85-24.19,7.57,14.95-11.26,32.19-19.64,50.88-24.31Z"/><path class="cls-1" d="m308.12,384.03c4.16-3.94,7.52-10.18,9.86-18.68-3.46-.5-6.97-1.11-10.48-1.71-3.21-.55-6.43-1.13-9.67-1.76-20.13,3.44-41.23,4.03-61.65,1.76-.36-5.33-.57-11.35-.64-18.06-4.2-1.39-8.4-2.85-12.59-4.34.08,7.74.42,14.67,1.03,20.69-23.44-3.98-45.5-11.82-63.55-23.41-2.01-7.57-3.08-16.11-3.06-25.59-1.43-.73-2.86-1.5-4.28-2.25l-4.77-.45c.26,7.99,1.34,15.38,3.25,22.03-7.26-5.65-13.22-11.71-17.9-18.03-.96-1.86-1.87-3.76-2.74-5.68l-1.12-.11-1.05-.1-8.28-.79c22.7,55.04,76.91,93.88,140.05,93.88,35.39,0,67.95-12.23,93.77-32.65-4.67-.2-9.39-.5-14.2-.92-9.85,6.67-20.57,12.11-31.97,16.17Zm-.77-19.41c-1.98,10.74-5.14,18.28-9.19,22.44-18.4,4.14-38.13,5.1-57.11,2.99-2.01-3.84-3.56-11.13-4.49-21.72,23.52,2.61,48,1.4,70.79-3.72Zm-82.81,2.03c1.44,10.66,3.77,18.06,6.81,22.06-4-.68-7.95-1.54-11.84-2.5-17.95-5.42-34.44-14.3-48.64-25.86-3.65-4.74-6.66-10.31-8.88-16.75,17.77,11.42,39.47,19.13,62.55,23.05Zm-85.53-42.75c4.01,4.69,8.72,9.24,14.24,13.53,1.77,4.8,4.05,9.1,6.66,13.03-7.97-7.97-14.99-16.89-20.9-26.56Z"/></g><g><path class="cls-2" d="m447.45,267.62l5-8.94,6.67-11.95-45.5-29.08s0,0,0,.01c5.18,11.19,8.8,24.19,11.31,36.43,0,.03,0,.05,0,.08,0,.01.01.02.02.03,4.76,23.25,5.56,43.72,5.56,43.72l8.45-15.12c7.1,25.89-3.9,46.78-31.76,57.15-3.86,1.46-8.09,2.71-12.53,3.76-5.85,1.4-11.91,2.52-18.1,3.43-3.57.53-7.2.97-10.89,1.35-.18.02-.37.05-.57.06-.79.08-1.57.16-2.37.23-4.48.39-9.06.61-13.69.74-3.05.09-6.12.15-9.23.13-6.17-.04-12.48-.33-18.88-.83-3.83-.3-7.71-.7-11.63-1.16-23.33-2.79-48.03-8.68-73.71-18.05-4.11-1.51-8.26-3.12-12.44-4.81-7.1-2.87-14.24-5.94-21.46-9.36l-16.62.77c12.31,6.12,25.02,11.58,37.89,16.48,4.17,1.58,8.35,3.11,12.55,4.57,24.39,8.46,49.17,14.7,73.08,18.55,3.73.6,7.47,1.2,11.15,1.68,2.98.39,5.9.68,8.85.99,7.41.8,14.69,1.38,21.8,1.69,4.6.18,9.13.28,13.57.26,17.31-.06,33.39-1.7,47.51-5.04,4.96-1.18,9.63-2.6,13.93-4.21,40.72-15.17,46.52-47.21,22.05-83.56Z"/><path class="cls-2" d="m124.98,298.85l2,.19,6.38.62,15.06,1.46,7.41.71h.01l2.04.2,13.44,1.29-2.32-2.96-3.88-4.95-5.48-7-8.14-10.37-1.24-1.59-28.77-36.69-.46-.6-2.1-2.66-.29-.38-.27-.35-3.47-4.42-2.73,18.16-1.58,10.55h0c-.42-.33-.78-.66-1.19-.99-2.48-2-4.91-4-7.2-6-51.18-44.69-57.49-88.92-9.37-106.85,3.87-1.45,8.09-2.71,12.54-3.77,10.51-2.48,22.34-3.79,35.06-4.06,4.11-3.04,9.93-7.14,16.63-11.25-25.56-2.02-48.98-.98-68.48,3.64-4.98,1.18-9.68,2.57-13.98,4.18-58.11,21.69-45.07,77.7,25.58,131.59,2.73,2.08,5.59,4.17,8.5,6.25h0s-1.52,10.12-1.52,10.12l-2.11,14,11.92,1.15,8,.77h.03Z"/></g></svg>