<?xml version="1.0" encoding="UTF-8"?><svg id="Layer_1" xmlns="http://www.w3.org/2000/svg" viewBox="0 0 500 500"><defs><style>.cls-1{fill:#f5ce54;}.cls-2{fill:#a4271e;}</style></defs><path class="cls-2" d="m200.28,81.23c-51.24,6.35-82.92,21.41-86.69,41.47-.69,3.25-.69,21.41-.36,40.43.7,28.45,1.2,35.65,3.78,40.25,2.74,5.32,2.74,6.17,0,13.36-2.58,6.68-2.75,11.85-1.9,39.57.7,17.49,2.08,34.44,3.28,37.53,1.51,4.29,1.51,6.67,0,10.12-2.58,5.47-2.77,53.8-.36,68.34,1.01,6.86,3.25,12.19,6.5,16.29,15.27,19.01,55.69,30.32,115.12,32.2,73.84,2.41,130.2-11.47,143.57-35.32,3.59-6.14,3.76-8.9,3.76-40.24,0-26.54-.51-34.95-2.74-40.25-2.22-5.64-2.22-7.52-.51-10.79,1.55-2.91,2.07-12.83,1.74-36.49-.36-33.93-.86-38.9-4.63-44.37-1.89-2.75-1.72-4.1.33-8.4,2.22-4.1,2.75-11.65,2.57-41.62-.16-21.25-1.03-38.89-2.22-42.14-4.63-14.21-25.19-27.24-53.1-33.93-34.28-8.05-89.78-10.6-128.13-6h0Z"/><path class="cls-1" d="m148.88,323.82c14.74,10.78,87.89,17.99,137.4,13.7,27.23-2.41,50.7-6.86,62.01-11.82,7.55-3.42,7.88-3.95,7.88-10.45,0-4.81.68-7.04,2.39-7.04,5.83,0,6.68,4.63,6.36,36.16-.19,17.12-.86,32.04-1.2,33.23-1.38,3.42-15.95,10.62-28.12,13.73-20.71,5.47-40.1,7.87-71.09,8.9-57.23,1.89-111.03-6.84-125.57-20.38-3.61-3.59-3.79-4.77-3.79-34.61s.19-31,3.96-34.95l3.76-4.11.86,7.36c.68,5.15,2.05,8.05,5.13,10.29h.01,0Z"/><path class="cls-1" d="m143.75,225.82c0,7.01,3.42,9.92,16.78,13.86,48.31,14.57,157.27,12.69,188.46-3.25,6.34-3.25,7.18-4.28,7.18-9.58,0-6.51,1.71-7.54,5.8-3.25,3.28,3.25,3.12.34,2.75,35.81l-.16,29.12-4.97,4.63c-10.61,9.76-47.45,17.46-92.51,19.53-55.85,2.57-119.77-8.38-129.52-22.26-1.9-2.75-2.41-10.12-2.41-33.41,0-25.36.34-30.32,2.89-33.06,3.98-4.45,5.69-3.76,5.69,1.88h.01s0-.01,0-.01Z"/><path class="cls-1" d="m208.16,97.34c-.51.86,9.08,1.03,21.94.51,19.03-.7,69.19,2.22,67.49,3.93-.34.34-8.07,1.38-17.3,2.41-9.44,1.03-18.52,2.75-20.56,3.76-3.43,1.88-3.43,2.05-.53,4.28,2.94,2.07,2.75,2.24-1.71,3.26-14.05,2.91-23.14,6.51-26.37,10.62-8.22,10.45-1.03,20.9,16.62,24.66,13.36,2.75,66.13,1.03,80.68-2.57,16.11-4.1,24.33-8.74,24.33-13.87,0-7.01-10.32-12.17-35.12-17.31-13.21-2.57-4.79-3.09,11.63-.51,16.29,2.57,29.49,7.54,33.75,13.03,3.09,4.1,3.41,6.84,3.41,36.65,0,36.83.34,35.98-16.42,43.69-24.33,11.49-63.92,15.77-132.62,14.55-13-.34-14.04-.5-10.45-2.57,3.59-2.05,2.41-2.41-11.97-3.26-20.04-1.18-37.53-6.16-45.74-12.66-9.95-7.9-16.29-22.11-17.12-38.89-.86-15.94,2.21-34.27,5.47-33.07,1.18.5,3.76-2.41,6.17-6.67,6.84-13.03,21.75-21.94,46.27-28.11,14.56-3.59,19.5-4.11,18.15-1.88Z"/></svg>