<?xml version="1.0" encoding="UTF-8"?><svg id="Layer_1" xmlns="http://www.w3.org/2000/svg" xmlns:xlink="http://www.w3.org/1999/xlink" viewBox="0 0 500 500"><defs><style>.cls-1{fill:url(#linear-gradient-2);}.cls-2{fill:url(#linear-gradient-3);}.cls-3{fill:url(#linear-gradient);}.cls-4{fill:url(#linear-gradient-4);}.cls-5{fill:#34a753;}</style><linearGradient id="linear-gradient" x1="482.51" y1="529.29" x2="482.69" y2="529.27" gradientTransform="translate(-112219.49 169341.25) scale(233.29 -319.44)" gradientUnits="userSpaceOnUse"><stop offset="0" stop-color="#89c343"/><stop offset="1" stop-color="#75b743"/></linearGradient><linearGradient id="linear-gradient-2" x1="479.98" y1="529.09" x2="480.18" y2="529.06" gradientTransform="translate(-86360.57 147760.78) scale(180.65 -278.78)" gradientUnits="userSpaceOnUse"><stop offset="0" stop-color="#75b743"/><stop offset="1" stop-color="#4b9644"/></linearGradient><linearGradient id="linear-gradient-3" x1="485.45" y1="529.62" x2="485.26" y2="529.58" gradientTransform="translate(-178104.27 300945.54) scale(367.79 -567.79)" gradientUnits="userSpaceOnUse"><stop offset="0" stop-color="#c0da74"/><stop offset="1" stop-color="#abd159"/></linearGradient><linearGradient id="linear-gradient-4" x1="481.83" y1="529.51" x2="481.57" y2="529.47" gradientTransform="translate(-111305.49 270650.09) scale(231.91 -510.69)" gradientUnits="userSpaceOnUse"><stop offset="0" stop-color="#abd159"/><stop offset="1" stop-color="#89c343"/></linearGradient></defs><path class="cls-5" d="m324.22,266.57c-1.62,1.05-3.32,1.62-4.94,1.62-1.21,0-2.19-.49-3-1.46-.73-.97-1.13-2.19-1.13-3.73,0-2.27.57-5.26,1.7-9.07l3.24-11.01,7.61-.57,1.62-7.53-6.88.4,5.1-17.01-13.12,2.67-4.62,15.31-4.7.16-1.54,7.69,3.73-.16-2.11,7.45c-.97,3.32-1.7,6.24-2.11,8.83-3.89,3.97-6.8,6.48-8.75,7.61s-4.05,1.7-6.15,1.7c-5.51,0-8.91-3.16-10.2-9.56,14.33-4.21,21.54-9.72,21.54-16.44,0-2.51-.89-4.62-2.75-6.15-1.86-1.54-4.29-2.35-7.29-2.35-5.83,0-11.18,2.83-15.95,8.42-4.37,5.1-6.72,10.69-7.13,16.93-3.97,3.89-6.96,6.48-8.91,7.69-2.02,1.3-3.89,1.94-5.67,1.94s-3.16-.81-4.13-2.51c-1.05-1.7-1.54-3.89-1.54-6.72,0-1.3.16-3.64.4-6.96,6.56-7.05,11.34-13.77,14.42-20,3.08-6.24,4.62-12.71,4.62-19.36,0-2.35-.32-4.21-.89-5.59-.57-1.38-1.38-2.11-2.35-2.11-.16,0-.49.08-.89.16l-12.47,4.37c-4.21,8.1-7.86,16.93-10.85,26.56-2.67,8.67-4.13,16.28-4.37,22.68-5.18,6.24-9.96,9.31-14.33,9.31-3.16,0-5.59-1.7-7.21-5.1l4.13-20.49c6.72-6.24,11.26-11.42,13.69-15.63,2.43-4.21,3.64-8.67,3.64-13.2,0-2.67-.4-4.78-1.21-6.4s-1.78-2.43-3-2.43c-.16,0-1.38.32-3.64.89-2.27.57-4.45,1.21-6.48,1.78-2.02.65-3.24,1.3-3.81,2.02-.49.73-1.78,3.4-3.81,8.18s-3.56,9.07-4.62,13.04c-1.13,3.89-2.59,10.29-4.29,19.03l-8.18,8.5v-.08c-2.75,2.75-4.94,4.86-6.48,6.15-1.54,1.38-2.92,2.02-4.21,2.02-2.02,0-3-1.38-3-4.21,0-2.67,1.13-7.61,3.32-14.82l4.29-14.33h-2.75l-10.04,5.51c-1.62-3.73-4.45-5.67-8.58-5.67-3.24,0-6.96,1.38-11.18,4.13-4.21,2.75-7.69,6.32-10.37,10.77-2.11,3.48-3.4,7.05-3.81,10.77-3.73,3.73-6.56,6.24-8.5,7.37-1.94,1.13-4.05,1.7-6.15,1.7-5.51,0-8.91-3.16-10.2-9.56,14.33-4.21,21.54-9.72,21.54-16.44,0-2.51-.89-4.62-2.75-6.15-1.86-1.54-4.29-2.35-7.29-2.35-5.83,0-11.18,2.83-15.95,8.42-4.37,5.1-6.72,10.77-7.13,17.01-4.78,5.26-9.8,7.94-15.06,7.94-2.75,0-5.99-.73-9.8-2.19-3.81-1.46-6.72-2.43-8.75-3-2.02-.49-4.45-.65-7.21-.49,4.29-4.45,7.13-8.99,8.75-13.61,1.54-4.62,2.67-9.88,3.32-15.87.65-5.99,1.3-10.29,1.86-12.96s1.62-4.94,3.08-6.88c1.46-1.94,3.56-2.92,6.24-2.92,2.19,0,3.97.81,5.26,2.43s1.94,3.81,1.94,6.64c0,3.64-.81,6.8-2.51,9.48-1.7,2.67-3.64,3.97-5.83,3.97-1.38,0-2.43-.49-3.32-1.54-.4,1.38-.57,2.51-.57,3.56,0,1.94.57,3.48,1.78,4.62s2.75,1.7,4.86,1.7c3.97,0,7.45-1.94,10.45-5.75,3-3.89,4.54-8.34,4.54-13.44,0-4.45-1.46-8.1-4.37-10.93-2.92-2.83-6.56-4.29-11.09-4.29-6.56,0-12.63,3.24-18.22,9.8-5.59,6.48-8.67,15.55-9.23,27.05-.32,5.59-.73,9.56-1.21,11.99s-1.7,4.94-3.56,7.45c-4.45.73-7.86,2.02-10.29,3.89s-3.64,4.05-3.64,6.56c0,1.21.4,2.19,1.21,3s1.86,1.21,3.08,1.21c3.56,0,7.53-2.43,11.99-7.21,2.35.65,5.1,1.7,8.26,3.16,3.08,1.46,5.75,2.43,7.94,3.08,2.19.57,4.45.89,6.8.89,8.1,0,15.95-3.89,23.73-11.74.57,3,1.78,5.59,3.81,7.61,2.75,2.83,6.32,4.29,10.77,4.29,3.97,0,7.61-.97,10.93-2.92,3.16-1.86,6.72-4.78,10.69-8.58.32,2.83,1.3,5.34,2.83,7.45,2.02,2.67,4.45,4.05,7.29,4.05s5.75-1.13,8.58-3.32c2.75-2.19,5.75-5.67,9.07-10.37-.32,9.07,2.11,13.69,7.29,13.69,2.02,0,4.21-.73,6.48-2.27,2.27-1.54,5.99-4.7,11.18-9.72l3.32-3.64c.89,2.51,1.54,4.05,1.94,4.7-2.59,14.25-4.37,25.83-5.43,34.82,4.78-.97,8.83-1.62,12.23-2.11,1.05-8.34,2.27-16.03,3.64-23.24,2.19.97,3.89,1.38,5.1,1.38,2.59,0,5.59-1.05,8.91-3.08,3.24-2.02,6.48-4.86,9.8-8.5.4,3,1.38,5.51,3,7.53,2.11,2.67,4.94,4.05,8.42,4.05,3,0,6.24-.97,9.56-2.92,3.32-1.94,7.21-4.94,11.66-9.07.57,3.08,1.78,5.59,3.81,7.69,2.75,2.83,6.32,4.29,10.77,4.29,3.97,0,7.61-.97,10.93-2.92,3.16-1.86,6.72-4.78,10.69-8.58.16,3.24,1.05,5.91,2.59,7.94,1.78,2.35,4.05,3.56,6.8,3.56s5.59-.97,8.58-2.92c3-1.94,6.56-4.94,10.69-9.07v-5.67c-3.48,3.24-5.91,5.51-7.53,6.56h0Zm-69.57-45.43c2.27-5.99,4.05-8.99,5.26-8.99.57,0,.97.4,1.38,1.13.32.73.57,1.7.57,2.92,0,4.13-1.3,9.07-3.89,14.74-2.59,5.75-5.91,10.85-10.12,15.47,2.19-10.85,4.45-19.27,6.8-25.27h0Zm-31.67-3.89c1.46-3.73,2.92-5.67,4.37-5.67.73,0,1.38.4,1.86,1.3s.73,2.02.73,3.4c0,3.24-1.05,6.8-3.24,10.61-2.19,3.81-5.18,7.45-8.99,10.77,2.02-9.88,3.81-16.68,5.26-20.41h0Zm-97.34,21.54c2.27,0,3.4,1.54,3.4,4.7,0,6.32-4.21,10.69-12.55,13.04,0-5.26.97-9.56,2.92-12.8,1.94-3.24,4.05-4.94,6.24-4.94h0Zm42.27,21.14c-2.92,5.59-5.99,8.34-9.23,8.34-1.38,0-2.43-.57-3.32-1.62s-1.3-2.51-1.3-4.29c0-4.7,1.46-9.8,4.37-15.31,2.92-5.59,5.99-8.34,9.31-8.34,1.38,0,2.43.49,3.32,1.54.81,1.05,1.21,2.43,1.21,4.29-.08,4.7-1.54,9.8-4.37,15.39Zm118.72-21.14c2.27,0,3.4,1.54,3.4,4.7,0,6.32-4.21,10.69-12.55,13.04,0-5.26.97-9.56,2.92-12.8,2.02-3.32,4.13-4.94,6.24-4.94h0Z"/><path class="cls-3" d="m348.27,239.03c1.05,1.21,21.06,7.86,27.94,15.95,6.96,8.1,9.96,15.31,8.99,22.27-.97,6.96-5.26,6.8-7.05,9.39-1.86,2.51-4.45,5.67-9.31,5.34-6.48-.4-13.12-3.64-17.9-14.82-4.78-11.18-4.45-21.7-4.05-27.53.32-5.91,1.38-10.61,1.38-10.61h0Z"/><path class="cls-1" d="m348.84,240.89l29.96,44.7-1.38,1.54-28.59-46.24h0Z"/><path class="cls-5" d="m234.09,303.01l.24-1.94c8.02-4.29,17.9-5.91,26-10.04,2.43,1.05,3.48-.49,6.07-.32.97.81-1.21,1.94,1.38,1.78,5.75.73,11.42-.32,17.09-.81,5.99-.49,11.9.08,17.82-.32,1.86-.08,4.78-2.67,7.05-1.38,1.05,1.86-3.4,2.02-2.19,4.13,11.74,2.75,41.14,14.42,46.16,1.7.08.81-.89,2.27.49,2.11,9.88-4.45,26.72-14.01,29.72-16.52,3.24-2.75,7.61-2.67,11.82-3.64,7.69-1.78,15.87-3.56,22.51-7.45,4.13,2.83,12.71,4.29,17.25,3.24,4.78-1.05,12.23-8.99,16.2-11.82,1.54-1.13,3.89-3.24,5.51-2.02-1.13.81.16,3.08-1.21,2.67-.73-1.38-2.19.24-3.24-.08-3.97,3.32-8.18,6.4-12.23,9.56-1.94,1.13,1.86,2.35-.4,2.75-10.53,2.11-26.64-3.16-33.28,4.13-10.53,3.64-20.49,4.54-30.86,10.12-5.99,3.24-13.28,9.07-19.52,12.15-1.05.49-2.59.73-3.81,1.46-1.54.89-1.86,2.11-3.16,2.35-3.16.65-9.72-.97-13.93-1.54-13.77-2.02-28.51-7.61-41.55-8.34-5.18-.24-11.26.57-17.09.81-12.39.57-20.08.89-30.05,4.21-3.89,1.38-10.2,5.02-12.8,3.08h0Z"/><path class="cls-2" d="m425.37,195.06c-1.38,2.27-33.12,18.63-42.6,33.93-9.56,15.39-12.23,27.45-8.75,38.79,3.48,11.34,10.04,10.85,13.77,14.58s8.83,8.26,17.01,6.48c10.69-2.43,20.98-9.56,26.08-29.48,5.1-19.92,1.78-37.41-.4-47.05-2.19-9.64-5.1-17.25-5.1-17.25Z"/><path class="cls-4" d="m424.81,198.46l-38.47,82.44,2.27,2.27,36.2-84.71Z"/></svg>