<?xml version="1.0" encoding="UTF-8"?><svg id="Layer_1" xmlns="http://www.w3.org/2000/svg" viewBox="0 0 500 500"><defs><style>.cls-1{fill:#9cb985;}.cls-2{fill:#fcfcfb;}</style></defs><path class="cls-1" d="m39.34,365.81c-16.28-30.05-18.02-60.45-5.96-92.64,10.35-19.97,23.25-35.91,44.68-43.01,39.24-13,72.18,8.49,75.8,51.67-4.67,27.85-19.87,43.09-45.8,47.15-9.1,1.42-11.37,7.28-9.14,14.42,1.77,5.69,5.08,11.97,9.63,15.53,16.95,13.23,35.77,10.54,53.64,2.45,16.78-7.59,29.22-19.5,29.97-39.92.7-19.1-9.01-33.56-20.01-47.6-8.68-12.88-17.63-25.6-25.98-38.69-12.21-19.13-17.35-39.9-12.81-63.59,11.64-44.12,41.74-67.57,82.86-79.68,34.37-10.13,68.22-9.56,101.46,4.16,24.43,10.09,40.72,27.78,48.23,54.39,2.29,27.76-4.83,51.11-27.91,69.61-24.19,14.08-47.76,16.13-72.4,5.75-.21-.13-1.07.21-1.07.21,0,0,.21.97.43,1.83,7.12,14.71,17.01,27.91,20.15,42.56,3.95,18.43,2.38,38.04,3.08,57.14-.12,0,.11-.01.92-.31,40.46-26.27,73.07-59.55,101.44-97.23,14.17-17.66,28.27-35.37,42.54-52.95,10.8-13.31,21.67-14.69,33.39-4.56,8.94,7.73,10.47,16.82,4.23,26.89-3.09,4.98-6.6,9.71-10.26,15.3-20.36,25.59-40.39,50.41-60.74,76-20.97,19.89-41.6,39.02-62.81,58.76-22.07,13.69-43.58,26.78-65.76,40.37-37.89,16.56-77.27,25.27-117.27,25.26-43.79,0-85.33-10.63-114.51-49.26m232.19-5.49c75.99-39.03,123.67-106.8,174.02-171.8,1.55-1.99.52-5.98.7-9.03-5.99,2.78-8.63,5.99-11.25,9.22-20.98,25.88-41.11,52.51-63.11,77.49-36.27,41.17-77.42,76.44-128.89,97.79-4.79,1.99-9.98,3.01-14.99,4.48.56-3.41,2.05-4.76,3.56-6.08,36.46-31.78,43.4-75.94,17.76-116.99-10.71-17.15-22.67-33.52-33.86-50.38-10.01-15.1-12.69-31.99-10.8-49.67,2.44-22.84,22.01-38.99,44.77-37.33,21.11,1.53,34.1,16.83,31.92,41.83-1.62,18.58-7.03,36.82-10.84,55.66,33.45,14.95,71.22-10.24,69.95-48.55-.81-24.51-14.39-39.9-35.87-48.96-30.86-13.01-62.48-12.17-94.18-3.29-52.71,14.76-95.74,69.67-46.26,132.42,11.19,14.19,21.5,29.34,30.21,45.14,18.26,33.13,7.05,69.69-26.43,87.31-9.53,5.01-20.33,8.64-30.96,10.33-39.99,6.36-71.04-22.26-63.96-58,3.14-15.87,5-17.35,21.02-16.77,18.84.68,30.51-8.36,33.16-25.69,2.88-18.85-6.78-33.94-24.6-38.43-23-5.79-45.11,5.33-57.31,28.83-26,50.1-1.12,102.53,56.53,115.47,58.66,13.17,114.76,3.13,169.69-25m-7.45-169.84c2.26-12.32,5.27-24.56,6.53-36.97,1.01-9.89-.07-19.97-13.64-21.34-14-1.42-23.31,4.85-26.26,17.83-4.62,20.34,8.19,51.78,25.33,63.38,2.37-6.89,4.81-13.97,8.04-22.9Z"/><path class="cls-2" d="m270.68,360.71c-54.07,27.75-110.17,37.78-168.84,24.61-57.65-12.94-82.53-65.37-56.53-115.47,12.19-23.5,34.31-34.62,57.31-28.83,17.82,4.49,27.48,19.58,24.6,38.43-2.65,17.33-14.32,26.37-33.16,25.69-16.02-.58-17.88.9-21.02,16.77-7.08,35.74,23.97,64.36,63.96,58,10.63-1.69,21.43-5.32,30.96-10.33,33.48-17.62,44.69-54.19,26.43-87.31-8.71-15.81-19.03-30.96-30.21-45.14-49.48-62.75-6.45-117.66,46.26-132.42,31.7-8.88,63.32-9.72,94.18,3.29,21.48,9.05,35.05,24.45,35.87,48.96,1.27,38.32-36.5,63.5-69.95,48.55,3.81-18.84,9.23-37.09,10.84-55.66,2.18-25-10.81-40.3-31.92-41.83-22.76-1.65-42.33,14.5-44.77,37.33-1.89,17.68.78,34.57,10.8,49.67,11.18,16.86,23.14,33.23,33.86,50.38,25.64,41.06,18.7,85.21-17.76,116.99-1.51,1.32-3,2.67-3.56,6.08,5.01-1.47,10.2-2.5,14.99-4.48,51.46-21.35,92.62-56.62,128.89-97.79,22-24.98,42.13-51.61,63.11-77.49,2.62-3.23,5.25-6.44,11.25-9.22-.18,3.06.85,7.04-.7,9.03-50.35,65-98.03,132.77-174.87,172.19Z"/></svg>