<?xml version="1.0" encoding="UTF-8"?><svg id="Layer_1" xmlns="http://www.w3.org/2000/svg" viewBox="0 0 500 500"><defs><style>.cls-1{fill:#6b0001;}.cls-2{fill:#fff;}.cls-3{fill:#f60;}.cls-4{fill:#1cd306;}.cls-5{fill:#0089cc;}.cls-6{fill:#0f7504;}.cls-7{fill:#009939;}.cls-8{fill:#0c5e87;}.cls-9{fill:#fc0007;}.cls-10{fill:#fc0;}.cls-11{fill:#bf0000;}</style></defs><circle class="cls-3" cx="190.62" cy="340.91" r="78.71"/><circle class="cls-10" cx="346.14" cy="230.82" r="78.71"/><circle class="cls-5" cx="153.86" cy="229.03" r="78.71"/><circle class="cls-7" cx="311.17" cy="340.91" r="78.71" transform="translate(-149.92 319.88) rotate(-45)"/><circle class="cls-11" cx="250" cy="159.09" r="78.71"/><path class="cls-9" d="m267.53,230.82c0,1.7.19,3.3.28,4.9,34.88-8.01,60.89-39.21,60.89-76.54,0-1.7-.19-3.3-.28-4.9-34.88,8.01-60.89,39.21-60.89,76.54Z"/><path class="cls-4" d="m277.9,269.75c13.57,23.66,39.02,39.68,68.24,39.68,11.97,0,23.19-2.73,33.27-7.45-13.57-23.66-39.02-39.68-68.24-39.68-11.88,0-23.19,2.64-33.27,7.45Z"/><path class="cls-6" d="m232.56,340.91c0,19.23,6.88,36.76,18.38,50.43,11.41-13.67,18.38-31.29,18.38-50.43s-6.88-36.76-18.38-50.43c-11.5,13.67-18.38,31.2-18.38,50.43Z"/><path class="cls-8" d="m122.75,301.23c9.52,4.15,20.08,6.41,31.11,6.41,28.94,0,54.2-15.74,67.87-39.02-9.52-4.15-20.08-6.41-31.11-6.41-29.03.09-54.2,15.74-67.87,39.02Z"/><path class="cls-1" d="m171.67,152.49c-.19,2.17-.38,4.43-.38,6.6,0,37.33,26.02,68.43,60.89,76.54.19-2.17.38-4.43.38-6.6,0-37.33-26.02-68.43-60.89-76.54Z"/><path class="cls-2" d="m179.02,331.2h-12.35c-10.84,0-19.7-8.77-19.7-19.61v-111.41c0-10.84,8.86-19.61,19.7-19.61h154.3c10.84,0,19.7,8.86,19.7,19.61v111.32c0,10.84-8.86,19.61-19.7,19.61h-52.6l-105.48,51.65,16.12-51.56Z"/></svg>