<?xml version="1.0" encoding="UTF-8"?><svg id="Layer_1" xmlns="http://www.w3.org/2000/svg" viewBox="0 0 500 500"><defs><style>.cls-1{fill:#1266a8;}</style></defs><path class="cls-1" d="m237.45,58.46c-.82.07-3.45.34-5.81.52-54.43,4.91-105.42,34.28-137.71,79.42-17.98,25.1-29.48,53.57-33.83,83.73-1.54,10.53-1.72,13.64-1.72,27.91s.19,17.38,1.72,27.91c10.41,71.96,61.62,132.42,131.08,154.83,12.44,4.01,25.55,6.74,40.46,8.39,5.81.64,30.91.64,36.71,0,25.74-2.85,47.54-9.22,69.04-20.19,3.3-1.69,3.93-2.14,3.48-2.51-.3-.22-14.35-19.07-31.21-41.84l-30.64-41.39-38.4-56.83c-21.13-31.24-38.51-56.79-38.66-56.79-.15-.04-.3,25.21-.37,56.04-.11,53.98-.15,56.15-.82,57.43-.97,1.84-1.72,2.58-3.3,3.41-1.2.6-2.25.71-7.9.71h-6.48l-1.72-1.09c-1.12-.71-1.95-1.65-2.51-2.73l-.79-1.69.07-75.11.11-75.15,1.16-1.46c.6-.79,1.87-1.8,2.77-2.29,1.54-.75,2.14-.82,8.62-.82,7.64,0,8.92.3,10.9,2.47.56.6,21.35,31.92,46.23,69.64,24.87,37.72,58.89,89.23,75.6,114.52l30.34,45.96,1.54-1.01c13.6-8.84,27.98-21.43,39.37-34.54,24.24-27.83,39.86-61.77,45.1-97.96,1.54-10.53,1.72-13.64,1.72-27.91s-.19-17.38-1.72-27.91c-10.41-71.96-61.62-132.42-131.08-154.83-12.25-3.97-25.29-6.71-39.9-8.35-3.6-.37-28.36-.79-31.47-.49h0Zm78.44,115.9c1.8.9,3.26,2.62,3.78,4.42.3.97.37,21.8.3,68.74l-.11,67.35-11.88-18.21-11.91-18.21v-48.96c0-31.65.15-49.45.37-50.31.6-2.1,1.91-3.75,3.71-4.72,1.54-.79,2.1-.86,7.98-.86,5.54,0,6.52.07,7.75.75h0Z"/></svg>