<?xml version="1.0" encoding="UTF-8"?><svg id="Layer_1" xmlns="http://www.w3.org/2000/svg" viewBox="0 0 500 500"><defs><style>.cls-1{fill:#2ba877;}</style></defs><path class="cls-1" d="m237.31,88.85h52.77v241.87c-27.03,5.11-46.93,7.12-68.46,7.12-64.45-.07-98.01-28.86-98.01-84.17s35.59-87.87,90.74-87.87c8.56,0,15.08.67,22.96,2.69v-79.66h0Zm1.85,123.25c-6.18-2.02-11.27-2.69-17.79-2.69-26.69,0-42.11,16.28-42.11,44.81s14.74,43.12,41.77,43.12c5.84,0,10.59-.33,18.13-1.34v-83.9h0Z"/><path class="cls-1" d="m376.38,172.31v121.1c0,41.71-3.12,61.76-12.29,79.05-8.56,16.62-19.83,27.11-43.13,38.68l-48.97-23.08c23.3-10.83,34.57-20.39,41.77-34.99,7.54-14.93,9.92-32.22,9.92-77.7v-103.07h52.71Zm-58.02-83.46h52.77v53.62h-52.77v-53.62Z"/></svg>