<?xml version="1.0" encoding="UTF-8"?><svg id="Layer_1" xmlns="http://www.w3.org/2000/svg" viewBox="0 0 500 500"><defs><style>.cls-1{fill:#4f90cc;}.cls-2{fill:#7abf43;}</style></defs><path class="cls-1" d="m154.18,273.89c-1.51,2.03-3.27,3.98-5.28,5.83-7.57,6.71-16.25,10.06-26.01,10.06-9.62,0-17.73-3.31-24.35-9.91l-.63,10.19h-16.57l2.57-43.61c.29-4.8-4.2-8.68-8.9-8.68s-9.49,3.89-9.79,8.68l-2.57,43.61h-17.42l2.57-43.61c.29-4.8-4.71-8.9-9.41-8.9s-8.98,4.11-9.28,8.9l-2.57,43.61H9.85l4.17-66.52h12.77c3.42-1.77,7.8-2.77,11.8-2.77,7.42,0,14.94,3.44,19,8.85,4.72-5.4,11-8.85,18.42-8.85,9.42,0,18.35,5.55,22.41,13.61,1.04-1.19,2.15-2.33,3.32-3.41,7.57-6.71,16.21-10.06,25.9-10.06,9.77,0,17.98,3.36,24.63,10.07,1.75,1.85,3.23,3.79,4.46,5.82,1.51-2.04,3.27-3.98,5.28-5.84,7.57-6.71,16.21-10.06,25.9-10.06,9.77,0,17.98,3.36,24.63,10.07,6.48,6.86,9.4,15.01,8.75,24.43-.65,9.35-4.68,17.45-12.11,24.31-7.57,6.71-16.25,10.06-26.01,10.06-9.69,0-17.86-3.36-24.51-10.07-1.75-1.85-3.23-3.79-4.46-5.81h0Zm-14.17-31.94c-3.58-3.7-8.06-5.54-13.45-5.55-5.39,0-10.17,1.85-14.33,5.54-4.09,3.77-6.31,8.25-6.67,13.46-.36,5.2,1.25,9.69,4.82,13.46,3.65,3.7,8.18,5.54,13.57,5.55,5.39,0,10.13-1.84,14.22-5.54,4.17-3.77,6.43-8.26,6.79-13.46.36-5.2-1.29-9.69-4.93-13.46h0Zm60.26,0c-3.58-3.7-8.06-5.54-13.45-5.55-5.39,0-10.17,1.85-14.33,5.54-4.09,3.77-6.31,8.25-6.67,13.46-.36,5.2,1.25,9.69,4.82,13.46,3.65,3.7,8.18,5.54,13.57,5.55,5.39,0,10.13-1.84,14.22-5.54,4.17-3.77,6.43-8.26,6.79-13.46.36-5.2-1.29-9.69-4.93-13.46h0Z"/><path class="cls-2" d="m334.58,273.85c-1.52,2.05-3.29,4.01-5.31,5.87-7.57,6.71-16.25,10.06-26.01,10.06-9.69,0-17.86-3.36-24.51-10.07-6.48-6.86-9.4-14.97-8.76-24.32.51-7.32,3.05-13.87,7.65-19.64h-26.74l-1.87,27.31c-.56,8.15,1.57,10.83,8.06,10.83,3.17,0,6.05,0,6.05,0l-.88,15.35s-6.32-.03-11.71-.03c-6.21,0-11.32-2-14.26-5.45-3.32-3.87-4.56-9.94-3.96-18.78l1.18-29.24h-8.83l1.04-15.08h82.74s-.02.24-.02.24c9.58.1,17.65,3.45,24.2,10.07,1.76,1.86,3.25,3.82,4.49,5.87,1.52-2.05,3.29-4.01,5.31-5.88,7.57-6.71,16.21-10.06,25.9-10.06,9.77,0,17.98,3.36,24.63,10.07,6.48,6.86,9.4,15.01,8.75,24.43-.64,9.35-4.68,17.45-12.11,24.31-7.57,6.71-16.25,10.06-26.01,10.06-9.69,0-17.86-3.36-24.51-10.07-1.76-1.86-3.25-3.81-4.49-5.86h0Zm-14.2-31.9c-3.58-3.7-8.06-5.54-13.45-5.55-5.39,0-10.17,1.85-14.33,5.54-4.09,3.77-6.31,8.25-6.67,13.46s1.25,9.69,4.82,13.46c3.65,3.7,8.18,5.54,13.57,5.55,5.39,0,10.13-1.84,14.22-5.54,4.17-3.77,6.43-8.26,6.79-13.46.36-5.2-1.29-9.69-4.93-13.46h0Zm60.32,0c-3.58-3.7-8.06-5.54-13.45-5.55-5.39,0-10.17,1.85-14.33,5.54-4.09,3.77-6.31,8.25-6.67,13.46-.36,5.2,1.25,9.69,4.82,13.46,3.65,3.7,8.18,5.54,13.57,5.55,5.39,0,10.13-1.84,14.22-5.54,4.17-3.77,6.43-8.26,6.79-13.46.36-5.2-1.29-9.69-4.94-13.46h0Z"/><path class="cls-1" d="m444.82,217.94c-.28-9.47-15.78-18.83-15.78-18.83l-2.71.65,5.08,14.94s-.14,4.05-4.18,5.22c-4.04,1.17-6.87-1.85-6.87-1.85l-3.96-15-2.81,1.16s-7.71,20.75-6.68,23.34c1.47,6.7,5.78,12.57,6.26,22.68.49,10.11-6.56,33.55-7.24,39.63-.68,6.07,4.66,10.9,9.93,11.04,5.27.14,10.39-4.34,10.55-9.22.16-4.88-.37-28.42.88-38.8,1.26-10.39,17.8-25.46,17.51-34.92h0Zm-28.43,78.06c-2.83.16-5.25-2.01-5.41-4.83,0,0,0,0,0,0-.16-2.83,2-5.25,4.83-5.41,2.83-.16,5.25,2.01,5.4,4.83.16,2.83-2,5.25-4.83,5.41,0,0,0,0,0,0Z"/><path class="cls-2" d="m451.05,276.66s-4.14,4.73-9.52,11.27c11.05,7.85,26.34,9.57,36.09-1.15,2.84-3.12,8.57-11.19,2.47-22.82-6.1-11.63-22.33-17.22-17.04-24.63,4.01-5.62,14.14-.55,18.11,3.42,1.6-1.45,6.67-6.36,9-9.12-10.76-13.45-33.82-14.82-41.77-.77-13.14,23.24,24.58,33.71,17.37,44.62-4.77,7.22-14.71-.82-14.71-.82h0Z"/></svg>