<?xml version="1.0" encoding="UTF-8"?><svg id="Layer_1" xmlns="http://www.w3.org/2000/svg" viewBox="0 0 500 500"><defs><style>.cls-1{fill:#f8ad41;}.cls-2{fill:#4f90cc;}.cls-3{fill:#ed4035;}.cls-4{fill:#7abf43;}</style></defs><path class="cls-1" d="m422.74,123.21c0-25.21-20.44-45.64-45.64-45.64-23.02,0-42.05,17.04-45.18,39.19l-.46-.24c-37.33-16.84-68.77,12.98-68.77,12.98l-83.17,83.58,32.86,31.65,66.94-65.77c31.26-31.26,48.28-10.1,48.28-10.1,23.53,19.88.81,43.41.81,43.41l33.68,32.46c27.5-29.7,29.09-55.62,20.73-76.24,22.51-2.82,39.92-22.01,39.92-45.27"/><path class="cls-3" d="m383.24,333.13c.16-.29.24-.46.24-.46,16.84-37.33-12.98-68.77-12.98-68.77l-83.58-83.17-31.65,32.87,65.77,66.94c31.26,31.26,10.1,48.28,10.1,48.28-19.88,23.53-43.41.81-43.41.81l-32.46,33.67c29.7,27.5,55.62,29.09,76.24,20.73,2.82,22.51,22.01,39.92,45.28,39.92,25.21,0,45.64-20.44,45.64-45.64,0-23.02-17.04-42.05-39.19-45.18"/><path class="cls-2" d="m287.63,255.27l-66.94,65.77c-31.26,31.26-48.28,10.11-48.28,10.11-23.53-19.88-.81-43.41-.81-43.41l-33.67-32.46c-27.5,29.7-29.1,55.62-20.74,76.24-22.51,2.82-39.92,22.01-39.92,45.28,0,25.21,20.44,45.64,45.65,45.64,23.02,0,42.05-17.04,45.18-39.19.29.16.46.24.46.24,37.33,16.84,68.77-12.98,68.77-12.98l83.17-83.58-32.86-31.65"/><path class="cls-4" d="m178.96,219.47c-31.26-31.26-10.11-48.28-10.11-48.28,19.88-23.53,43.41-.81,43.41-.81l32.46-33.67c-29.7-27.5-55.62-29.09-76.24-20.74-2.82-22.51-22-39.92-45.28-39.92-25.2,0-45.64,20.44-45.64,45.64,0,23.02,17.04,42.05,39.19,45.18-.16.29-.24.46-.24.46-16.84,37.33,12.98,68.77,12.98,68.77l83.58,83.17,31.65-32.86-65.77-66.94"/></svg>