<?xml version="1.0" encoding="UTF-8"?><svg id="Layer_1" xmlns="http://www.w3.org/2000/svg" viewBox="0 0 500 500"><defs><style>.cls-1{fill:#e32e16;}.cls-2{fill:#5a6eac;}</style></defs><path class="cls-1" d="m87.6,347.7v-214.42c0-8.41,6.82-15.23,15.22-15.23h16.49v-3.81h-16.49c-10.49,0-19.03,8.54-19.03,19.03v218.22c0-2.1,1.7-3.81,3.81-3.81Z"/><path class="cls-1" d="m397.17,114.25h-16.49v3.81h16.49c8.41,0,15.22,6.81,15.22,15.23v214.42c2.1,0,3.81,1.71,3.81,3.81v-218.22c0-10.49-8.54-19.03-19.03-19.03Z"/><path class="cls-1" d="m397.17,121.86c6.3,0,11.42,5.12,11.42,11.42v214.42h3.81v-214.42c0-8.41-6.81-15.23-15.22-15.23h-5.08v3.81h5.08Z"/><rect class="cls-1" x="87.6" y="336.29" width="3.81" height="11.41"/><rect class="cls-1" x="380.68" y="118.06" width="11.42" height="3.81"/><path class="cls-1" d="m91.41,133.28c0-6.29,5.12-11.42,11.42-11.42h16.49v-3.81h-16.49c-8.41,0-15.22,6.81-15.22,15.23v203h3.81v-203Z"/><polygon class="cls-1" points="178.95 397.18 178.95 385.76 175.14 385.76 175.14 408.6 178.95 408.6 178.95 397.18"/><rect class="cls-1" x="321.05" y="385.76" width="3.81" height="22.84"/><rect class="cls-1" x="178.95" y="397.18" width="3.81" height="11.42"/><rect class="cls-1" x="317.24" y="385.76" width="3.81" height="22.84"/><rect class="cls-1" x="178.95" y="385.76" width="3.81" height="11.42"/><path class="cls-1" d="m412.4,355.31v11.42c0,8.41-6.81,15.23-15.22,15.23h-72.32v3.81h72.32c10.49,0,19.03-8.54,19.03-19.03v-15.23c0,2.1-1.71,3.81-3.81,3.81Z"/><path class="cls-1" d="m102.83,381.96c-8.41,0-15.22-6.81-15.22-15.23v-11.42c-2.1,0-3.81-1.71-3.81-3.81v15.23c0,10.49,8.54,19.03,19.03,19.03h72.32v-3.81h-72.32Z"/><path class="cls-1" d="m412.4,347.7v3.81h0v3.81c2.1,0,3.81-1.71,3.81-3.81s-1.71-3.81-3.81-3.81Z"/><path class="cls-1" d="m87.6,355.31v-3.8h0v-3.81c-2.1,0-3.81,1.71-3.81,3.81s1.7,3.81,3.81,3.81Z"/><polygon class="cls-1" points="91.41 347.7 87.6 347.7 87.6 351.51 392.1 351.51 412.4 351.51 412.4 347.7 408.59 347.7 91.41 347.7"/><rect class="cls-1" x="321.05" y="381.96" width="3.81" height="3.81"/><rect class="cls-1" x="175.14" y="381.96" width="3.81" height="3.81"/><polygon class="cls-1" points="305.82 385.76 317.24 385.76 321.05 385.76 321.05 381.96 305.82 381.96 305.82 385.76"/><polygon class="cls-1" points="305.82 385.76 305.82 381.96 178.95 381.96 178.95 385.76 182.76 385.76 305.82 385.76"/><path class="cls-1" d="m178.95,378.15h-76.12c-6.3,0-11.42-5.12-11.42-11.42h-3.81c0,8.41,6.82,15.23,15.22,15.23h72.32c0-2.1,1.7-3.81,3.81-3.81Z"/><path class="cls-1" d="m408.59,366.73c0,6.29-5.12,11.42-11.42,11.42h-76.12c2.1,0,3.81,1.71,3.81,3.81h72.32c8.41,0,15.22-6.81,15.22-15.23v-11.42h-3.81v11.42Z"/><polygon class="cls-1" points="392.1 355.31 408.59 355.31 412.4 355.31 412.4 351.51 392.1 351.51 392.1 355.31"/><rect class="cls-1" x="392.1" y="351.51" width="20.3" height="0"/><path class="cls-1" d="m321.05,378.15h-142.1c-2.1,0-3.81,1.71-3.81,3.81h149.71c0-2.1-1.71-3.81-3.81-3.81Z"/><rect class="cls-1" x="87.6" y="355.31" width="3.81" height="11.42"/><polygon class="cls-1" points="392.1 355.31 392.1 351.51 87.6 351.51 87.6 355.31 91.41 355.31 392.1 355.31"/><rect class="cls-1" x="87.6" y="351.51" width="304.5" height="0"/><path class="cls-1" d="m175.14,412.41v-3.81h-46.95c-2.1,0-3.81,1.71-3.81,3.81s1.7,3.81,3.81,3.81h50.75c-2.1,0-3.81-1.7-3.81-3.81Z"/><path class="cls-1" d="m321.05,416.21h50.75c2.1,0,3.81-1.7,3.81-3.81s-1.71-3.81-3.81-3.81h-46.95v3.81c0,2.1-1.71,3.81-3.81,3.81Z"/><path class="cls-1" d="m321.05,412.41h-142.1v-3.81h-3.81v3.81c0,2.1,1.7,3.81,3.81,3.81h142.1c2.1,0,3.81-1.7,3.81-3.81v-3.81h-3.81v3.81Z"/><polygon class="cls-1" points="182.76 408.6 178.95 408.6 178.95 412.41 321.05 412.41 321.05 408.6 317.24 408.6 182.76 408.6"/><path class="cls-1" d="m250,371.81c2.8,0,5.07-2.27,5.07-5.07,0,0,0,0,0,0h-10.15s0,0,0,0c0,2.8,2.27,5.07,5.08,5.07Z"/><path class="cls-1" d="m250,361.66c-2.8,0-5.07,2.27-5.07,5.07h10.15c0-2.8-2.27-5.07-5.07-5.07Z"/><path class="cls-2" d="m371.8,180.22h-40.6c-4.9,0-8.88,3.98-8.88,8.88v76.12c0,4.9,3.98,8.88,8.88,8.88h40.6c4.9,0,8.88-3.98,8.88-8.88v-76.12c0-4.9-3.98-8.88-8.88-8.88Zm5.07,85.01c0,2.8-2.27,5.07-5.07,5.07h-40.6c-2.8,0-5.07-2.27-5.07-5.07v-76.12c0-2.81,2.27-5.08,5.07-5.08h40.6c2.8,0,5.07,2.27,5.07,5.08v76.12Z"/><path class="cls-2" d="m371.8,184.03h-10.15v3.8h10.15c.7,0,1.27.57,1.27,1.27v76.12c0,.7-.57,1.27-1.27,1.27h-40.6c-.7,0-1.27-.57-1.27-1.27v-5.08h-3.81v5.08c0,2.8,2.27,5.07,5.07,5.07h40.6c2.8,0,5.07-2.27,5.07-5.07v-76.12c0-2.81-2.27-5.08-5.07-5.08Z"/><path class="cls-2" d="m329.93,189.1c0-.7.57-1.27,1.27-1.27h30.45v-3.8h-30.45c-2.8,0-5.07,2.27-5.07,5.08v71.04h3.81v-71.05Z"/><path class="cls-2" d="m219.54,274.11h76.12c4.9,0,8.88-3.98,8.88-8.88v-76.12c0-4.9-3.98-8.88-8.88-8.88h-76.12c-4.9,0-8.88,3.98-8.88,8.88v76.12c0,4.9,3.98,8.88,8.88,8.88Zm-5.08-13.96v-71.04c0-2.81,2.27-5.08,5.08-5.08h76.12c2.8,0,5.08,2.27,5.08,5.08v76.12c0,2.8-2.27,5.07-5.08,5.07h-76.12c-2.8,0-5.08-2.27-5.08-5.07v-5.08Z"/><path class="cls-2" d="m219.54,270.3h76.12c2.8,0,5.08-2.27,5.08-5.07v-76.12c0-2.81-2.27-5.08-5.08-5.08h-10.15v3.8h10.15c.7,0,1.27.57,1.27,1.27v76.12c0,.7-.57,1.27-1.27,1.27h-76.12c-.7,0-1.27-.57-1.27-1.27v-5.08h-3.81v5.08c0,2.8,2.27,5.07,5.08,5.07Z"/><path class="cls-2" d="m218.27,189.1c0-.7.57-1.27,1.27-1.27h65.97v-3.8h-65.97c-2.8,0-5.08,2.27-5.08,5.08v71.04h3.81v-71.05Z"/><path class="cls-2" d="m371.8,291.87h-152.26c-4.9,0-8.88,3.98-8.88,8.88v15.23c0,4.9,3.98,8.88,8.88,8.88h152.26c4.9,0,8.88-3.98,8.88-8.88v-15.23c0-4.9-3.98-8.88-8.88-8.88Zm5.07,24.11c0,2.81-2.27,5.08-5.07,5.08h-152.26c-2.8,0-5.08-2.27-5.08-5.08v-15.23c0-2.8,2.27-5.07,5.08-5.07h152.26c2.8,0,5.07,2.27,5.07,5.07v15.23Z"/><path class="cls-2" d="m371.8,295.68h-10.15v3.81h10.15c.7,0,1.27.57,1.27,1.27v15.23c0,.7-.57,1.27-1.27,1.27h-152.26c-.7,0-1.27-.57-1.27-1.27v-5.07h-3.81v5.07c0,2.81,2.27,5.08,5.08,5.08h152.26c2.8,0,5.07-2.27,5.07-5.08v-15.23c0-2.8-2.27-5.07-5.07-5.07Z"/><path class="cls-2" d="m218.27,300.75c0-.7.57-1.27,1.27-1.27h142.11v-3.81h-142.11c-2.8,0-5.08,2.27-5.08,5.07v10.15h3.81v-10.15Z"/><path class="cls-2" d="m123.13,92.67c0-2.81,2.27-5.08,5.08-5.08h243.6c2.8,0,5.07,2.27,5.07,5.08v21.58h3.81v-21.58c0-4.9-3.98-8.88-8.88-8.88h-243.6c-4.9,0-8.88,3.98-8.88,8.88v21.58h3.81v-21.58Z"/><path class="cls-2" d="m371.8,158.65h-243.6c-2.8,0-5.08-2.28-5.08-5.08v-31.71h-3.81v31.7c0,4.9,3.98,8.88,8.88,8.88h243.6c4.9,0,8.88-3.98,8.88-8.88v-31.7h-3.81v31.71c0,2.8-2.27,5.08-5.07,5.08Z"/><rect class="cls-1" x="376.87" y="114.25" width="3.81" height="3.81"/><rect class="cls-2" x="119.32" y="114.25" width="3.81" height="3.81"/><rect class="cls-2" x="119.32" y="118.06" width="3.81" height="3.81"/><rect class="cls-1" x="376.87" y="118.06" width="3.81" height="3.81"/><path class="cls-2" d="m371.8,91.4c.7,0,1.27.57,1.27,1.27v21.58h3.81v-21.58c0-2.81-2.27-5.08-5.07-5.08h-10.15v3.8h10.15Z"/><path class="cls-2" d="m373.07,153.57c0,.7-.57,1.27-1.27,1.27h-243.6c-.7,0-1.27-.57-1.27-1.27v-5.08h-3.81v5.08c0,2.8,2.27,5.08,5.08,5.08h243.6c2.8,0,5.07-2.28,5.07-5.08v-31.71h-3.81v31.7Z"/><rect class="cls-2" x="373.07" y="114.25" width="3.81" height="3.81"/><rect class="cls-2" x="373.07" y="118.06" width="3.81" height="3.81"/><path class="cls-2" d="m126.93,92.67c0-.7.57-1.27,1.27-1.27h233.45v-3.8h-233.45c-2.8,0-5.08,2.27-5.08,5.08v21.58h3.81v-21.58Z"/><rect class="cls-2" x="123.13" y="121.86" width="3.81" height="26.63"/><rect class="cls-2" x="123.13" y="114.25" width="3.81" height="3.81"/><rect class="cls-2" x="123.13" y="118.06" width="3.81" height="3.81"/><path class="cls-2" d="m184.02,180.22h-55.82c-4.9,0-8.88,3.98-8.88,8.88v126.87c0,4.9,3.98,8.88,8.88,8.88h55.82c4.9,0,8.88-3.98,8.88-8.88v-126.87c0-4.9-3.98-8.88-8.88-8.88Zm5.07,135.76c0,2.81-2.27,5.08-5.07,5.08h-55.82c-2.8,0-5.07-2.27-5.07-5.08v-126.87c0-2.81,2.27-5.08,5.07-5.08h55.82c2.8,0,5.07,2.27,5.07,5.08v126.87Z"/><path class="cls-2" d="m184.02,184.03h-10.15v3.8h10.15c.7,0,1.27.57,1.27,1.27v126.87c0,.7-.57,1.27-1.27,1.27h-55.82c-.7,0-1.27-.57-1.27-1.27v-5.07h-3.8v-121.79c0-2.81,2.27-5.08,5.08-5.08h0c-2.8,0-5.07,2.27-5.07,5.08v126.87c0,2.81,2.27,5.08,5.07,5.08h55.82c2.8,0,5.07-2.27,5.07-5.08v-126.87c0-2.81-2.27-5.08-5.07-5.08Z"/><path class="cls-2" d="m123.13,189.11v121.79h3.8v-121.8c0-.7.57-1.27,1.27-1.27h45.67v-3.8h-45.66c-2.8,0-5.08,2.27-5.08,5.08Z"/><path class="cls-2" d="m192.67,114.25c.14-.4.24-.83.24-1.28,0-2.1-1.7-3.81-3.81-3.81h-6.34v5.08h9.91Z"/><path class="cls-2" d="m175.15,109.17h-6.34c-2.1,0-3.81,1.7-3.81,3.81,0,.45.09.88.24,1.28h9.91v-5.08Z"/><path class="cls-2" d="m165.24,114.25c.53,1.47,1.92,2.53,3.57,2.53h6.34v-2.53h-9.91Z"/><path class="cls-2" d="m182.76,116.78h6.34c1.65,0,3.04-1.06,3.57-2.53h-9.91v2.53Z"/><path class="cls-2" d="m182.76,102.82c0-2.1-1.7-3.81-3.81-3.81s-3.81,1.7-3.81,3.81v6.34h7.61v-6.34Z"/><path class="cls-2" d="m175.15,123.12c0,2.1,1.71,3.81,3.81,3.81s3.81-1.71,3.81-3.81v-1.26h-7.61v1.26Z"/><rect class="cls-2" x="175.15" y="116.78" width="7.61" height="1.28"/><rect class="cls-2" x="175.15" y="118.06" width="7.61" height="3.81"/><rect class="cls-2" x="175.15" y="109.17" width="7.61" height="5.08"/><rect class="cls-2" x="175.15" y="114.25" width="7.61" height="2.53"/><path class="cls-2" d="m255.08,132c2.1,0,3.81-1.71,3.81-3.81s-1.7-3.81-3.81-3.81h-6.34v7.61h6.34Z"/><path class="cls-2" d="m234.78,124.39c-2.1,0-3.81,1.71-3.81,3.81s1.71,3.81,3.81,3.81h6.34v-7.61h-6.34Z"/><path class="cls-2" d="m244.93,114.24s-.06,0-.1,0h.19s-.06,0-.1,0Z"/><rect class="cls-2" x="241.13" y="121.86" width="7.61" height="2.53"/><path class="cls-2" d="m241.13,138.35c0,2.1,1.71,3.81,3.81,3.81s3.81-1.71,3.81-3.81v-6.34h-7.61v6.34Z"/><path class="cls-2" d="m241.13,118.05h0s7.61,0,7.61,0h0c0-2.08-1.65-3.75-3.71-3.81h-.19c-2.06.05-3.71,1.73-3.71,3.8Z"/><rect class="cls-2" x="241.13" y="118.06" width="7.61" height="3.81"/><rect class="cls-2" x="241.13" y="124.39" width="7.61" height="7.61"/><path class="cls-2" d="m260.16,218.29h6.34v-7.61h-6.34c-2.1,0-3.81,1.71-3.81,3.81s1.7,3.81,3.81,3.81Z"/><path class="cls-2" d="m280.46,218.29c2.1,0,3.81-1.7,3.81-3.81s-1.7-3.81-3.81-3.81h-6.34v7.61h6.34Z"/><path class="cls-2" d="m274.12,204.33c0-2.1-1.7-3.81-3.81-3.81s-3.81,1.71-3.81,3.81v6.34h7.61v-6.34Z"/><path class="cls-2" d="m266.51,224.63c0,2.1,1.7,3.81,3.81,3.81s3.81-1.7,3.81-3.81v-6.34h-7.61v6.34Z"/><rect class="cls-2" x="266.51" y="210.68" width="7.61" height="7.61"/><path class="cls-2" d="m143.43,274.12h6.34v-7.61h-6.34c-2.1,0-3.81,1.7-3.81,3.81s1.7,3.81,3.81,3.81Z"/><path class="cls-2" d="m163.73,274.12c2.1,0,3.81-1.7,3.81-3.81s-1.71-3.81-3.81-3.81h-6.34v7.61h6.34Z"/><path class="cls-2" d="m149.77,280.46c0,2.1,1.7,3.81,3.81,3.81s3.81-1.7,3.81-3.81v-6.34h-7.61v6.34Z"/><path class="cls-2" d="m157.38,260.16c0-2.1-1.71-3.81-3.81-3.81s-3.81,1.7-3.81,3.81v6.34h7.61v-6.34Z"/><rect class="cls-2" x="149.77" y="266.51" width="7.61" height="7.61"/></svg>