<?xml version="1.0" encoding="UTF-8"?><svg id="Layer_1" xmlns="http://www.w3.org/2000/svg" xmlns:xlink="http://www.w3.org/1999/xlink" viewBox="0 0 500 500"><defs><style>.cls-1{fill:url(#linear-gradient-2);}.cls-2{fill:#1266a8;}.cls-2,.cls-3{fill-rule:evenodd;}.cls-3{fill:#34a753;}.cls-4{mask:url(#mask-1);}.cls-5{mask:url(#mask);}.cls-6{fill:url(#linear-gradient);}</style><linearGradient id="linear-gradient" x1="-388.92" y1="321.72" x2="-528.44" y2="285.84" gradientTransform="translate(886.48 -55.42)" gradientUnits="userSpaceOnUse"><stop offset="0" stop-color="#fff"/><stop offset="1" stop-color="#000"/></linearGradient><mask id="mask" x="362.17" y="210.21" width="83.63" height="64.06" maskUnits="userSpaceOnUse"><rect class="cls-6" x="362.17" y="210.21" width="83.63" height="64.06"/></mask><linearGradient id="linear-gradient-2" x1="-704.67" y1="325.69" x2="-412.41" y2="288.43" gradientTransform="translate(883.35 -55.42)" xlink:href="#linear-gradient"/><mask id="mask-1" x="344.3" y="211.25" width="100.43" height="63.02" maskUnits="userSpaceOnUse"><rect class="cls-1" x="344.3" y="211.25" width="100.43" height="63.02"/></mask></defs><path class="cls-2" d="m129.24,247.22c2.9-.3,5.62-.8,8.14-1.41l-1.35-1.05c-9.43-7.39-18.69-15.67-27.76-24.72l-.21-.21c-21.55,5.5-48.73,20.18-50.84,40.42-.62,5.98,1.06,4.11,4.09,1.75,8.39-6.54,17.93-11.79,24.78-13.33,18.01-4.06,26.56.25,43.15-1.45"/><path class="cls-2" d="m289.54,269.54c-9.52,35.03-53.92,49.9-76.79,42.61-10.82-3.45-12.51-9.03-4.22-15.66,5.03-4.02,11.02-8.75,16.71-13.64,20.81,1.31,42.25-2.74,64.29-13.32"/><path class="cls-2" d="m232.02,282.09c47.81,4.76,93.54-15.37,126.02-17.06,10.68-.56,23.63,9.58,37.46,10.54,19.8,1.37,43.27-5.44,47.62,6.86,14.13-59.82-29.4-77.27-82.24-71.02h0c-11.86,16.25-39.4,38.08-44.63,41.76-29.08,20.48-57.18,29.26-84.22,28.92h0Z"/><path class="cls-2" d="m344.3,229.81c46.96,81.94-50.71,122.72-87.06,111.12-12.13-3.87-14.03-10.12-4.73-17.55,21.38-17.08,58.36-45.64,33.03-51.96h-.02c9.87-4.41,19.85-10.1,29.96-17.22,3.47-2.44,16.79-12.89,28.82-24.4"/><path class="cls-3" d="m110.5,212.68c-.62.59-1.19,1.13-1.7,1.62-3.26,3.18-2.13,4.15-.54,5.74,61.4,61.15,130.97,87.85,207.26,34.12,6.36-4.47,45.7-35.77,49.74-51.26.37-1.42.51-2.41.38-3.2-.42-.46-1-.91-1.79-1.43l-7.18-4.78c-3.73-2.48-3.17-2.35-7.91-1.08-1.97.53-3.84.86-3.84.86-58.32,86.14-132.22,85.35-194.37,47.69-10.99-6.66-21.61-14.47-31.71-23.15-1.98-1.7-3.94-3.44-5.87-5.2l-1.33,1.23c-.55-.55-.96-.96-1.15-1.13m123.98-55.21c-66.66,6.77-109.84,41.95-123.82,55.06l1.57-1.45c2.47,2.25,4.98,4.46,7.52,6.61.45.38.9.76,1.35,1.14,3.76,3.13,7.58,6.15,11.47,9.02,6.17,4.56,12.49,8.78,18.94,12.61,50.73,30.09,109.07,35.48,160.3-10.76,6.32-5.7,12.52-12.19,18.6-19.51,4.68-5.64,9.28-11.78,13.78-18.43-51.21-40.5-109.7-34.28-109.7-34.28Z"/><path class="cls-2" d="m173.28,268.47c-12.7-6.2-25.12-14.21-37.25-23.71-8.22,15.44-28.05,13.86-46.94,18.84-14.13,3.73-37.39,19.23-34.68,35.67,2.43,14.75,34.25,12.36,48.46,9.64,43.85-8.38,48.65-45.9,70.41-40.44"/><path class="cls-2" d="m402.23,248.68c15.04.33,40.57,6.42,42.5,25.59.13-.83.25-1.64.35-2.45l.1-.88c.06-.5.12-1,.17-1.5l.1-1.11.1-1.2.09-1.34.05-.82c.03-.54.05-1.08.06-1.61v-.47c.02-.6.03-1.19.03-1.77v-.26c-.04-5.37-.69-10.27-1.9-14.73l-.12-.44c-.1-.34-.2-.68-.3-1.01-.1-.34-.21-.68-.32-1.01l-.16-.48c-9.6-27.89-42.67-36.15-80.83-31.91,17.06.83,9.44,36.76,40.06,37.42"/><g class="cls-5"><path class="cls-2" d="m369.55,214.93c30.58-.18,55.48,9.37,63.6,32.95l.16.48.32,1.01.3,1.01.12.44c.67,2.48,1.17,5.09,1.48,7.84,4.97,3.81,8.52,8.91,9.2,15.6l.35-2.45c.04-.29.08-.59.1-.88l.17-1.5.1-1.11.1-1.2.09-1.34.05-.82.06-1.61v-.47c.03-.6.04-1.19.03-1.77v-.26c-.04-5.37-.69-10.27-1.9-14.73l-.12-.44-.3-1.01-.32-1.01-.16-.48c-9.59-27.89-42.67-36.16-80.83-31.91,3.18.16,5.5,1.53,7.38,3.67"/></g><g class="cls-4"><path class="cls-2" d="m368.77,230.32c6.12,10.65,12.8,23.97,31.18,22.59,15-1.13,41,2.47,44.77,21.36-.68-6.69-4.22-11.79-9.2-15.6-9.28-7.11-23.51-9.77-33.3-9.98-19.48-.42-23.48-15.11-28.21-25.96-1.32-3.03-2.69-5.75-4.47-7.79-1.87-2.14-4.2-3.51-7.38-3.67-.43.05-.86.1-1.3.15-4,5.72-10.1,12.22-16.58,18.41,7.33,12.79,11.13,24.57,12.2,35.31.51-.04,1.03-.07,1.54-.09,6.01-.31,12.74,2.76,19.94,5.68,0,0-23.86-21.34-13.14-39.16,1.04-1.73,3.05-2.78,3.94-1.23"/></g></svg>