<?xml version="1.0" encoding="UTF-8"?><svg id="Layer_1" xmlns="http://www.w3.org/2000/svg" viewBox="0 0 500 500"><defs><style>.cls-1{fill:#fff;}.cls-2{fill:#cbb363;}.cls-3{fill:#e5d173;}.cls-4{fill:#ded16f;}.cls-5{fill:#b7271a;}.cls-6{fill:#c72334;}</style></defs><path class="cls-6" d="m270.29,93.52l26.86-18.55,14.2,29.32,29.24-10.97,6.85,30.43,31.71-1.97-2.21,32.17,30.55,4.18-10.57,30.2,28.69,14.75-18.58,24.16,25.09,22.42-24.62,20.09,18.35,26.71-28.34,14.75,11.73,31.82-34.61,2.32,8.6,32.75-35.77-1.74-6.51,31.01-28.92-11.03-15.1,28.46-25.67-18.23-20.79,24.39-21.6-24.16-25.44,18.12-15.33-28.34-29.5,10.92-3.02-32.64-35.08,3.83,2.32-34.5-33.33-.35,13.59-32.29-28.8-15.1,16.84-26.25-23.23-20.09,23.35-21.26-16.96-24.85,28.34-16.14-10.22-28.11,30.55-6.85-1.97-31.36,31.94,2.32,6.39-31.59,29.5,11.85,14.28-29.27,25.79,17.89,21.14-23.69,20.29,24.47"/><path class="cls-5" d="m371.07,299.49c0,28.72-52.91,52-118.17,52s-118.17-23.28-118.17-52,52.9-52,118.17-52,118.17,23.28,118.17,52"/><path class="cls-2" d="m246.82,156.79l38.42,67.4-2.15,54.78,58.9,24.89,19.47-115.5-114.63-31.57"/><path class="cls-4" d="m361.45,188.36l5.58-15.77s-10.66,69.12-12.13,78.36c-1.47,9.24-11.56,51.89-11.56,51.89l-1.37,1.02,5.57-33.48-71.22-24.79,2.94-8.3,70.07,22.59,4.31-24.9-88.98-28.47.11-9.67,90.13,27.52,6.55-36.01"/><path class="cls-3" d="m133.44,180.46l13.84,99.6s.17,28.52,37.53,48.04c37.36,19.52,95.92,11.11,95.92,11.11l4.51-115.02c-11.29,1.69-23.32,2.6-35.81,2.6-58.56,0-107.09-20.08-115.99-46.34"/><path class="cls-1" d="m282.07,303.36c-54.69,4.21-102.33-5.24-137.51-42.76l1.85,13.67c28.85,31.97,76.83,41.79,135.23,39.61l.42-10.52m1.6-39.13c-54.69,4.21-108.62.09-143.8-37.44l1.67,12.14c28.85,31.97,83.14,38,141.54,35.81l.59-10.52m83.22-92.47c0,5.79-1.91,11.36-5.44,16.6l-114.63-31.57,38.42,67.4c-11.29,1.69-23.32,2.6-35.81,2.6-64.87,0-117.46-24.64-117.46-55.03s52.59-55.03,117.46-55.03,117.46,24.64,117.46,55.03"/></svg>