<?xml version="1.0" encoding="UTF-8"?>
<svg id="Layer_1" data-name="Layer 1" xmlns="http://www.w3.org/2000/svg" xmlns:xlink="http://www.w3.org/1999/xlink" viewBox="0 0 500 500">
  <defs>
    <style>
      .cls-1 {
        fill: url(#linear-gradient-75);
      }

      .cls-2 {
        fill: url(#linear-gradient-66);
      }

      .cls-2, .cls-3, .cls-4, .cls-5, .cls-6, .cls-7, .cls-8, .cls-9, .cls-10, .cls-11, .cls-12, .cls-13, .cls-14, .cls-15, .cls-16, .cls-17, .cls-18, .cls-19, .cls-20, .cls-21, .cls-22, .cls-23, .cls-24, .cls-25, .cls-26, .cls-27, .cls-28, .cls-29, .cls-30, .cls-31, .cls-32, .cls-33, .cls-34, .cls-35, .cls-36, .cls-37, .cls-38, .cls-39, .cls-40, .cls-41, .cls-42, .cls-43, .cls-44, .cls-45, .cls-46, .cls-47, .cls-48, .cls-49, .cls-50, .cls-51, .cls-52, .cls-53, .cls-54, .cls-55, .cls-56, .cls-57, .cls-58, .cls-59, .cls-60, .cls-61, .cls-62, .cls-63, .cls-64, .cls-65, .cls-66, .cls-67, .cls-68, .cls-69, .cls-70 {
        stroke: #231f20;
        stroke-miterlimit: 39.05;
      }

      .cls-3 {
        fill: url(#linear-gradient-29);
      }

      .cls-4 {
        fill: url(#linear-gradient-65);
      }

      .cls-5 {
        fill: url(#linear-gradient-28);
      }

      .cls-71 {
        fill: #5b1b89;
      }

      .cls-6 {
        fill: url(#linear-gradient-8);
      }

      .cls-7 {
        fill: url(#linear-gradient-38);
      }

      .cls-8 {
        fill: url(#linear-gradient-67);
      }

      .cls-9 {
        fill: url(#linear-gradient-6);
      }

      .cls-10 {
        fill: url(#linear-gradient-16);
      }

      .cls-11 {
        fill: url(#linear-gradient-5);
      }

      .cls-12 {
        fill: url(#linear-gradient-51);
      }

      .cls-13 {
        fill: url(#linear-gradient-11);
      }

      .cls-14 {
        fill: url(#linear-gradient-39);
      }

      .cls-15 {
        fill: url(#linear-gradient-30);
      }

      .cls-16 {
        fill: url(#linear-gradient-32);
      }

      .cls-72 {
        fill: url(#linear-gradient-78);
      }

      .cls-17 {
        fill: url(#linear-gradient-62);
      }

      .cls-18 {
        fill: url(#linear-gradient-34);
      }

      .cls-19 {
        fill: url(#linear-gradient-17);
      }

      .cls-20 {
        fill: url(#linear-gradient-47);
      }

      .cls-21 {
        fill: url(#linear-gradient-27);
      }

      .cls-22 {
        fill: url(#linear-gradient-57);
      }

      .cls-23 {
        fill: url(#linear-gradient-63);
      }

      .cls-24 {
        fill: url(#linear-gradient-21);
      }

      .cls-25 {
        fill: url(#linear-gradient-64);
      }

      .cls-26 {
        fill: url(#linear-gradient);
      }

      .cls-27 {
        fill: url(#linear-gradient-14);
      }

      .cls-28 {
        fill: url(#linear-gradient-23);
      }

      .cls-29 {
        fill: url(#linear-gradient-44);
      }

      .cls-30 {
        fill: url(#linear-gradient-40);
      }

      .cls-31 {
        fill: url(#linear-gradient-36);
      }

      .cls-32 {
        fill: url(#linear-gradient-53);
      }

      .cls-33 {
        fill: url(#linear-gradient-31);
      }

      .cls-34 {
        fill: url(#linear-gradient-55);
      }

      .cls-35 {
        fill: url(#linear-gradient-2);
      }

      .cls-36 {
        fill: url(#linear-gradient-54);
      }

      .cls-37 {
        fill: url(#linear-gradient-43);
      }

      .cls-38 {
        fill: url(#linear-gradient-26);
      }

      .cls-39 {
        fill: url(#linear-gradient-19);
      }

      .cls-73 {
        fill: url(#linear-gradient-76);
      }

      .cls-40 {
        fill: url(#linear-gradient-46);
      }

      .cls-41 {
        fill: url(#linear-gradient-20);
      }

      .cls-42 {
        fill: url(#linear-gradient-25);
      }

      .cls-43 {
        fill: url(#linear-gradient-9);
      }

      .cls-74 {
        fill: url(#linear-gradient-72);
      }

      .cls-44 {
        fill: url(#linear-gradient-69);
      }

      .cls-45 {
        fill: url(#linear-gradient-42);
      }

      .cls-46 {
        fill: url(#linear-gradient-13);
      }

      .cls-47 {
        fill: url(#linear-gradient-35);
      }

      .cls-48 {
        fill: url(#linear-gradient-52);
      }

      .cls-49 {
        fill: url(#linear-gradient-7);
      }

      .cls-50 {
        fill: url(#linear-gradient-12);
      }

      .cls-51 {
        fill: url(#linear-gradient-59);
      }

      .cls-52 {
        fill: url(#linear-gradient-56);
      }

      .cls-53 {
        fill: url(#linear-gradient-18);
      }

      .cls-75 {
        fill: url(#linear-gradient-70);
      }

      .cls-54 {
        fill: url(#linear-gradient-50);
      }

      .cls-76 {
        fill: url(#linear-gradient-79);
      }

      .cls-55 {
        fill: url(#linear-gradient-4);
      }

      .cls-56 {
        fill: url(#linear-gradient-61);
      }

      .cls-77 {
        fill: url(#linear-gradient-73);
      }

      .cls-57 {
        fill: url(#linear-gradient-49);
      }

      .cls-58 {
        fill: url(#linear-gradient-10);
      }

      .cls-59 {
        fill: url(#linear-gradient-41);
      }

      .cls-78 {
        fill: url(#linear-gradient-74);
      }

      .cls-60 {
        fill: url(#linear-gradient-3);
      }

      .cls-61 {
        fill: url(#linear-gradient-24);
      }

      .cls-62 {
        fill: url(#linear-gradient-37);
      }

      .cls-63 {
        fill: url(#linear-gradient-48);
      }

      .cls-64 {
        fill: url(#linear-gradient-15);
      }

      .cls-65 {
        fill: url(#linear-gradient-33);
      }

      .cls-66 {
        fill: url(#linear-gradient-22);
      }

      .cls-67 {
        fill: url(#linear-gradient-45);
      }

      .cls-79 {
        fill: url(#linear-gradient-71);
      }

      .cls-80 {
        fill: url(#linear-gradient-77);
      }

      .cls-68 {
        fill: url(#linear-gradient-60);
      }

      .cls-69 {
        fill: url(#linear-gradient-68);
      }

      .cls-70 {
        fill: url(#linear-gradient-58);
      }
    </style>
    <linearGradient id="linear-gradient" x1="773.92" y1="2332.22" x2="773.93" y2="2331.98" gradientTransform="translate(307829.55 363269.98) rotate(166.83) scale(280.2 181.59)" gradientUnits="userSpaceOnUse">
      <stop offset="0" stop-color="#6a3894"/>
      <stop offset=".11" stop-color="#8a2f83"/>
      <stop offset=".27" stop-color="#b4256c"/>
      <stop offset=".41" stop-color="#d31c5d"/>
      <stop offset=".53" stop-color="#e51e54"/>
      <stop offset=".62" stop-color="#ec1e4f"/>
      <stop offset="1" stop-color="#f8e47f"/>
    </linearGradient>
    <linearGradient id="linear-gradient-2" x1="773.52" y1="2333.17" x2="773.52" y2="2332.95" gradientTransform="translate(294814.62 331414.75) rotate(166.83) scale(273.37 166.95)" xlink:href="#linear-gradient"/>
    <linearGradient id="linear-gradient-3" x1="771.25" y1="2334.05" x2="771.26" y2="2333.8" gradientTransform="translate(247977.61 319110.96) rotate(166.83) scale(218.69 157.19)" xlink:href="#linear-gradient"/>
    <linearGradient id="linear-gradient-4" x1="769.46" y1="2334.35" x2="769.46" y2="2334.12" gradientTransform="translate(224307.03 315346.84) rotate(166.83) scale(190.38 153.28)" xlink:href="#linear-gradient"/>
    <linearGradient id="linear-gradient-5" x1="771.13" y1="2334.8" x2="771.14" y2="2334.55" gradientTransform="translate(250394.14 299939.83) rotate(166.83) scale(227.48 149.38)" xlink:href="#linear-gradient"/>
    <linearGradient id="linear-gradient-6" x1="770.66" y1="2337.87" x2="770.66" y2="2337.57" gradientTransform="translate(231427.69 239220.22) rotate(166.83) scale(221.62 122.04)" xlink:href="#linear-gradient"/>
    <linearGradient id="linear-gradient-7" x1="770.15" y1="2338.23" x2="770.15" y2="2337.97" gradientTransform="translate(226611.78 235698.37) rotate(166.83) scale(216.74 120.09)" xlink:href="#linear-gradient"/>
    <linearGradient id="linear-gradient-8" x1="770.57" y1="2337.7" x2="770.58" y2="2337.4" gradientTransform="translate(239009.7 242111.51) rotate(166.83) scale(230.41 123.99)" xlink:href="#linear-gradient"/>
    <linearGradient id="linear-gradient-9" x1="769.59" y1="2339.54" x2="769.59" y2="2339.39" gradientTransform="translate(221609.41 218262.12) rotate(166.83) scale(215.77 112.28)" gradientUnits="userSpaceOnUse">
      <stop offset="0" stop-color="#f8e47f"/>
      <stop offset=".11" stop-color="#f7db7c"/>
      <stop offset=".35" stop-color="#f3c87b"/>
      <stop offset=".52" stop-color="#f2c179"/>
      <stop offset=".71" stop-color="#f6d17b"/>
      <stop offset="1" stop-color="#f8e47f"/>
    </linearGradient>
    <linearGradient id="linear-gradient-10" x1="768.22" y1="2341.25" x2="768.2" y2="2340.9" gradientTransform="translate(202055.69 201896.49) rotate(166.83) scale(196.24 103.49)" xlink:href="#linear-gradient-9"/>
    <linearGradient id="linear-gradient-11" x1="766.46" y1="2344.03" x2="766.46" y2="2343.85" gradientTransform="translate(180427.81 176708.03) rotate(166.83) scale(176.71 90.8)" xlink:href="#linear-gradient-9"/>
    <linearGradient id="linear-gradient-12" x1="764.11" y1="2351.34" x2="764.08" y2="2350.81" gradientTransform="translate(152671.95 132009.57) rotate(166.83) scale(155.23 69.32)" xlink:href="#linear-gradient-9"/>
    <linearGradient id="linear-gradient-13" x1="757.94" y1="2359.45" x2="757.94" y2="2359.14" gradientTransform="translate(115169.97 105881.33) rotate(166.83) scale(116.18 54.67)" xlink:href="#linear-gradient-9"/>
    <linearGradient id="linear-gradient-14" x1="752.37" y1="2367.9" x2="752.37" y2="2367.53" gradientTransform="translate(93637.96 87651.13) rotate(166.83) scale(94.7 44.91)" xlink:href="#linear-gradient-9"/>
    <linearGradient id="linear-gradient-15" x1="737.68" y1="2414.52" x2="737.68" y2="2414.03" gradientTransform="translate(57963.53 42477.28) rotate(166.83) scale(63.46 22.46)" xlink:href="#linear-gradient-9"/>
    <linearGradient id="linear-gradient-16" x1="737.65" y1="2410.4" x2="737.65" y2="2409.68" gradientTransform="translate(58473.95 44668.18) rotate(166.83) scale(63.46 23.43)" xlink:href="#linear-gradient-9"/>
    <linearGradient id="linear-gradient-17" x1="774.21" y1="2333.07" x2="774.26" y2="2333.4" gradientTransform="translate(306139.9 295993.74) rotate(166.83) scale(297.78 153.28)" xlink:href="#linear-gradient"/>
    <linearGradient id="linear-gradient-18" x1="772.1" y1="2333.82" x2="772.22" y2="2334.1" gradientTransform="translate(256169.81 293739.25) rotate(166.83) scale(236.27 147.42)" xlink:href="#linear-gradient"/>
    <linearGradient id="linear-gradient-19" x1="770.64" y1="2333.92" x2="770.72" y2="2334.28" gradientTransform="translate(234505.67 291836.77) rotate(166.83) scale(209.91 144.49)" xlink:href="#linear-gradient"/>
    <linearGradient id="linear-gradient-20" x1="771.72" y1="2334.59" x2="771.84" y2="2334.88" gradientTransform="translate(254137.87 275619.62) rotate(166.83) scale(239.2 139.61)" xlink:href="#linear-gradient"/>
    <linearGradient id="linear-gradient-21" x1="771.44" y1="2338.81" x2="771.5" y2="2339.29" gradientTransform="translate(236301.56 203036.56) rotate(166.83) scale(238.22 107.39)" xlink:href="#linear-gradient"/>
    <linearGradient id="linear-gradient-22" x1="771.1" y1="2340.26" x2="771.22" y2="2340.67" gradientTransform="translate(231865.49 187797.66) rotate(166.83) scale(237.24 100.56)" xlink:href="#linear-gradient"/>
    <linearGradient id="linear-gradient-23" x1="771.27" y1="2339.42" x2="771.34" y2="2339.91" gradientTransform="translate(241288.86 194908.84) rotate(166.83) scale(247.01 104.47)" xlink:href="#linear-gradient"/>
    <linearGradient id="linear-gradient-24" x1="769" y1="2344.41" x2="769" y2="2344.21" gradientTransform="translate(201878.32 157619.89) rotate(166.83) scale(208.93 84.94)" xlink:href="#linear-gradient-9"/>
    <linearGradient id="linear-gradient-25" x1="770.43" y1="2342.4" x2="770.41" y2="2342.01" gradientTransform="translate(223883.2 171073.83) rotate(166.83) scale(232.36 92.75)" xlink:href="#linear-gradient-9"/>
    <linearGradient id="linear-gradient-26" x1="767.41" y1="2346.76" x2="767.38" y2="2346.29" gradientTransform="translate(182612.11 145853.51) rotate(166.83) scale(188.43 78.11)" xlink:href="#linear-gradient-9"/>
    <linearGradient id="linear-gradient-27" x1="759.42" y1="2371.24" x2="759.38" y2="2370.34" gradientTransform="translate(113871.85 73555.4) rotate(166.83) scale(123.99 41.01)" xlink:href="#linear-gradient-9"/>
    <linearGradient id="linear-gradient-28" x1="754.05" y1="2381.59" x2="754.06" y2="2381.09" gradientTransform="translate(92406.11 62302.69) rotate(166.83) scale(100.56 34.17)" xlink:href="#linear-gradient-9"/>
    <linearGradient id="linear-gradient-29" x1="765.01" y1="2354.55" x2="765.02" y2="2354.27" gradientTransform="translate(154695.13 110522.71) rotate(166.83) scale(164.02 60.53)" xlink:href="#linear-gradient-9"/>
    <linearGradient id="linear-gradient-30" x1="762.18" y1="2332.3" x2="761.97" y2="2332.08" gradientTransform="translate(129997.97 358082.09) rotate(166.83) scale(58.58 162.07)" gradientUnits="userSpaceOnUse">
      <stop offset="0" stop-color="#7f3996"/>
      <stop offset=".07" stop-color="#9c2f82"/>
      <stop offset=".16" stop-color="#b92770"/>
      <stop offset=".25" stop-color="#d02162"/>
      <stop offset=".36" stop-color="#df1e57"/>
      <stop offset=".47" stop-color="#e91f52"/>
      <stop offset=".62" stop-color="#ec1e4f"/>
      <stop offset="1" stop-color="#f8e47f"/>
    </linearGradient>
    <linearGradient id="linear-gradient-31" x1="764.64" y1="2330.4" x2="764.46" y2="2330.22" gradientTransform="translate(155680.63 431206.67) rotate(166.83) scale(69.32 195.26)" xlink:href="#linear-gradient-30"/>
    <linearGradient id="linear-gradient-32" x1="767.01" y1="2329.84" x2="766.86" y2="2329.67" gradientTransform="translate(173998.39 459516.8) rotate(166.83) scale(83.96 208.93)" xlink:href="#linear-gradient-30"/>
    <linearGradient id="linear-gradient-33" x1="769.5" y1="2329.42" x2="769.38" y2="2329.26" gradientTransform="translate(196482.71 482198.3) rotate(166.83) scale(105.44 220.65)" xlink:href="#linear-gradient-30"/>
    <linearGradient id="linear-gradient-34" x1="765.33" y1="2329.52" x2="765.23" y2="2329.32" gradientTransform="translate(177861.83 486573.79) rotate(166.83) scale(81.03 220.65)" gradientUnits="userSpaceOnUse">
      <stop offset="0" stop-color="#7f3996"/>
      <stop offset=".1" stop-color="#873a93"/>
      <stop offset=".25" stop-color="#9e3b90"/>
      <stop offset=".43" stop-color="#c23b89"/>
      <stop offset=".62" stop-color="#ec3e81"/>
      <stop offset="1" stop-color="#f8e47f"/>
    </linearGradient>
    <linearGradient id="linear-gradient-35" x1="768.61" y1="2329.21" x2="768.57" y2="2329.08" gradientTransform="translate(200512.95 499906.23) rotate(166.83) scale(105.44 228.46)" xlink:href="#linear-gradient-30"/>
    <linearGradient id="linear-gradient-36" x1="771.84" y1="2328.76" x2="771.81" y2="2328.64" gradientTransform="translate(238663.4 525900.79) rotate(166.83) scale(145.47 243.1)" xlink:href="#linear-gradient-30"/>
    <linearGradient id="linear-gradient-37" x1="771.38" y1="2329.06" x2="771.33" y2="2328.79" gradientTransform="translate(233510.42 510833.27) rotate(166.83) scale(143.52 236.27)" xlink:href="#linear-gradient-30"/>
    <linearGradient id="linear-gradient-38" x1="769.99" y1="2329.64" x2="769.96" y2="2329.51" gradientTransform="translate(217294.74 482071.15) rotate(166.83) scale(131.8 222.6)" xlink:href="#linear-gradient-30"/>
    <linearGradient id="linear-gradient-39" x1="770.58" y1="2329.83" x2="770.54" y2="2329.55" gradientTransform="translate(224602.85 473395.62) rotate(166.83) scale(143.52 219.67)" xlink:href="#linear-gradient-30"/>
    <linearGradient id="linear-gradient-40" x1="770.96" y1="2330.1" x2="770.95" y2="2329.95" gradientTransform="translate(229395.68 460651.89) rotate(166.83) scale(153.28 214.79)" xlink:href="#linear-gradient-30"/>
    <linearGradient id="linear-gradient-41" x1="771.69" y1="2330.09" x2="771.68" y2="2329.89" gradientTransform="translate(242483.64 459930.54) rotate(166.83) scale(169.88 215.77)" xlink:href="#linear-gradient-30"/>
    <linearGradient id="linear-gradient-42" x1="770.6" y1="2330.87" x2="770.59" y2="2330.66" gradientTransform="translate(224511.69 426915.13) rotate(166.83) scale(157.19 200.14)" xlink:href="#linear-gradient-30"/>
    <linearGradient id="linear-gradient-43" x1="771.67" y1="2331.07" x2="771.64" y2="2330.76" gradientTransform="translate(239255.85 416492.32) rotate(166.83) scale(178.67 197.22)" xlink:href="#linear-gradient-30"/>
    <linearGradient id="linear-gradient-44" x1="772.85" y1="2331.12" x2="772.82" y2="2330.81" gradientTransform="translate(262957.95 410958.21) rotate(166.83) scale(209.91 197.22)" xlink:href="#linear-gradient-30"/>
    <linearGradient id="linear-gradient-45" x1="772.43" y1="2331.5" x2="772.41" y2="2331.35" gradientTransform="translate(255579.97 396405.14) rotate(166.83) scale(205.03 190.38)" xlink:href="#linear-gradient-30"/>
    <linearGradient id="linear-gradient-46" x1="773.81" y1="2331.51" x2="773.78" y2="2331.18" gradientTransform="translate(289462.01 390809.99) rotate(166.83) scale(248.96 191.36)" xlink:href="#linear-gradient-30"/>
    <linearGradient id="linear-gradient-47" x1="773.47" y1="2331.61" x2="773.45" y2="2331.46" gradientTransform="translate(284662.31 387287.8) rotate(166.83) scale(244.08 189.41)" xlink:href="#linear-gradient-30"/>
    <linearGradient id="linear-gradient-48" x1="773.96" y1="2331.31" x2="773.94" y2="2331" gradientTransform="translate(306038.52 398583.7) rotate(166.83) scale(267.51 196.24)" xlink:href="#linear-gradient-30"/>
    <linearGradient id="linear-gradient-49" x1="773.74" y1="2332.07" x2="773.72" y2="2331.91" gradientTransform="translate(298006.28 367889.93) rotate(166.83) scale(266.53 182.57)" xlink:href="#linear-gradient-30"/>
    <linearGradient id="linear-gradient-50" x1="766.54" y1="2330.92" x2="766.74" y2="2331.24" gradientTransform="translate(148295.51 362900.88) rotate(166.83) scale(80.06 165.97)" xlink:href="#linear-gradient"/>
    <linearGradient id="linear-gradient-51" x1="770.64" y1="2330.01" x2="770.8" y2="2330.29" gradientTransform="translate(181775.09 392295.58) rotate(166.83) scale(113.25 181.59)" xlink:href="#linear-gradient"/>
    <linearGradient id="linear-gradient-52" x1="772.98" y1="2329.27" x2="773.08" y2="2329.53" gradientTransform="translate(217253.72 423561.89) rotate(166.83) scale(148.4 198.19)" xlink:href="#linear-gradient"/>
    <linearGradient id="linear-gradient-53" x1="773.74" y1="2329.32" x2="773.85" y2="2329.58" gradientTransform="translate(233539.79 419767.18) rotate(166.83) scale(169.88 198.19)" xlink:href="#linear-gradient"/>
    <linearGradient id="linear-gradient-54" x1="773.79" y1="2329.36" x2="773.87" y2="2329.62" gradientTransform="translate(239203.06 420787.26) rotate(166.83) scale(176.71 199.17)" xlink:href="#linear-gradient"/>
    <linearGradient id="linear-gradient-55" x1="774.68" y1="2329.06" x2="774.77" y2="2329.3" gradientTransform="translate(267046.14 432899.11) rotate(166.83) scale(207.96 206.98)" xlink:href="#linear-gradient"/>
    <linearGradient id="linear-gradient-56" x1="774.65" y1="2328.88" x2="774.73" y2="2329.12" gradientTransform="translate(275062.93 447332.93) rotate(166.83) scale(213.81)" xlink:href="#linear-gradient"/>
    <linearGradient id="linear-gradient-57" x1="773.91" y1="2329.18" x2="773.99" y2="2329.42" gradientTransform="translate(262236.13 436390.89) rotate(166.83) scale(201.12 207.96)" xlink:href="#linear-gradient"/>
    <linearGradient id="linear-gradient-58" x1="774.11" y1="2329.65" x2="774.19" y2="2329.9" gradientTransform="translate(266673.32 412104.3) rotate(166.83) scale(213.81 198.19)" xlink:href="#linear-gradient"/>
    <linearGradient id="linear-gradient-59" x1="773.66" y1="2330.12" x2="773.73" y2="2330.39" gradientTransform="translate(257292.26 395701.44) rotate(166.83) scale(206.98 190.38)" xlink:href="#linear-gradient"/>
    <linearGradient id="linear-gradient-60" x1="773.88" y1="2330.19" x2="773.97" y2="2330.45" gradientTransform="translate(266380.77 391262.62) rotate(166.83) scale(219.67 189.41)" xlink:href="#linear-gradient"/>
    <linearGradient id="linear-gradient-61" x1="773.1" y1="2330.38" x2="773.18" y2="2330.65" gradientTransform="translate(253411.34 389657.06) rotate(166.83) scale(204.05 187.45)" xlink:href="#linear-gradient"/>
    <linearGradient id="linear-gradient-62" x1="773.64" y1="2330.9" x2="773.72" y2="2331.18" gradientTransform="translate(263579.89 366355.66) rotate(166.83) scale(223.58 178.67)" xlink:href="#linear-gradient"/>
    <linearGradient id="linear-gradient-63" x1="774.16" y1="2331.28" x2="774.23" y2="2331.58" gradientTransform="translate(278761.29 351180.8) rotate(166.83) scale(247.01 173.78)" xlink:href="#linear-gradient"/>
    <linearGradient id="linear-gradient-64" x1="773.37" y1="2331.73" x2="773.45" y2="2332.03" gradientTransform="translate(260986.76 339067.38) rotate(166.83) scale(228.46 166.95)" xlink:href="#linear-gradient"/>
    <linearGradient id="linear-gradient-65" x1="774.38" y1="2331.43" x2="774.44" y2="2331.73" gradientTransform="translate(294476.63 345199.54) rotate(166.83) scale(268.49 172.81)" xlink:href="#linear-gradient"/>
    <linearGradient id="linear-gradient-66" x1="774.28" y1="2331.79" x2="774.34" y2="2332.1" gradientTransform="translate(293332.78 333845.04) rotate(166.83) scale(270.44 167.93)" xlink:href="#linear-gradient"/>
    <linearGradient id="linear-gradient-67" x1="774.72" y1="2331.4" x2="774.78" y2="2331.7" gradientTransform="translate(315684.63 342577.11) rotate(166.83) scale(295.82 173.78)" xlink:href="#linear-gradient"/>
    <linearGradient id="linear-gradient-68" x1="774.46" y1="2332.5" x2="774.59" y2="2332.77" gradientTransform="translate(305433.27 312420.87) rotate(166.83) scale(291.92 160.12)" xlink:href="#linear-gradient"/>
    <linearGradient id="linear-gradient-69" x1="774.5" y1="2332.59" x2="774.62" y2="2332.86" gradientTransform="translate(312284.19 308501.36) rotate(166.83) scale(301.68 159.14)" xlink:href="#linear-gradient"/>
    <linearGradient id="linear-gradient-70" x1="756.54" y1="2328.85" x2="755.96" y2="2328.46" gradientTransform="translate(142066.91 459705.88) rotate(166.83) scale(43.93 206)" gradientUnits="userSpaceOnUse">
      <stop offset="0" stop-color="#d4e5ee"/>
      <stop offset=".07" stop-color="#cddfe8"/>
      <stop offset=".19" stop-color="#b4cbd7"/>
      <stop offset=".33" stop-color="#90abbb"/>
      <stop offset=".49" stop-color="#5f8096"/>
      <stop offset=".55" stop-color="#486d86"/>
      <stop offset=".59" stop-color="#5d7e95"/>
      <stop offset=".69" stop-color="#88a3b5"/>
      <stop offset=".77" stop-color="#aac1ce"/>
      <stop offset=".86" stop-color="#c1d5e0"/>
      <stop offset=".93" stop-color="#d0e1ea"/>
      <stop offset="1" stop-color="#d4e5ee"/>
    </linearGradient>
    <linearGradient id="linear-gradient-71" x1="774.97" y1="2340.52" x2="774.81" y2="2339.68" gradientTransform="translate(169299.25 190611.33) rotate(166.83) scale(156.21 95.68)" xlink:href="#linear-gradient-70"/>
    <linearGradient id="linear-gradient-72" x1="770.51" y1="2339.31" x2="770.25" y2="2338.46" gradientTransform="translate(124123.22 198718.89) rotate(166.83) scale(97.63 94.7)" xlink:href="#linear-gradient-70"/>
    <linearGradient id="linear-gradient-73" x1="748.79" y1="2330.91" x2="748.05" y2="2330.43" gradientTransform="translate(114488.61 375445.92) rotate(166.83) scale(34.17 167.93)" xlink:href="#linear-gradient-70"/>
    <linearGradient id="linear-gradient-74" x1="769.15" y1="2330.59" x2="768.86" y2="2330.12" gradientTransform="translate(156719.58 374853.94) rotate(166.83) scale(86.89 171.83)" xlink:href="#linear-gradient-70"/>
    <linearGradient id="linear-gradient-75" x1="760.73" y1="2330.69" x2="760.26" y2="2330.22" gradientTransform="translate(130896.96 378580.19) rotate(166.83) scale(53.7 170.86)" xlink:href="#linear-gradient-70"/>
    <linearGradient id="linear-gradient-76" x1="774.28" y1="2408.06" x2="774.11" y2="2404.3" gradientTransform="translate(119653.09 25360.24) rotate(166.83) scale(142.54 21.48)" xlink:href="#linear-gradient-70"/>
    <linearGradient id="linear-gradient-77" x1="775.98" y1="2339.95" x2="775.85" y2="2339.13" gradientTransform="translate(190921.83 192533.75) rotate(166.83) scale(182.57 98.61)" xlink:href="#linear-gradient-70"/>
    <linearGradient id="linear-gradient-78" x1="773.89" y1="2334.04" x2="773.71" y2="2333.48" gradientTransform="translate(179715.66 302214.64) rotate(166.83) scale(136.68 143.52)" xlink:href="#linear-gradient-70"/>
    <linearGradient id="linear-gradient-79" x1="767.92" y1="2333.15" x2="767.6" y2="2332.62" gradientTransform="translate(141522.92 336755.27) rotate(166.83) scale(79.08 154.26)" xlink:href="#linear-gradient-70"/>
  </defs>
  <path class="cls-71" d="m256.62,270.11c103.78-47.71,138.41-68.52,221.09-134.32-3.63,10.78-22.71,25.96-29.97,34.81-12.31,11.02-32.16,24.6-43.61,31.65-44.25,27.23-90.94,54.23-140.34,74.73-61.38,25.28-203.08,66.18-240.62,80.52,33.65-17.4,191.34-68,233.46-87.38Z"/>
  <path class="cls-26" d="m164.56,342.47l3.5-2.01,2.85-2.25,2.66-2.21,2.24-2.31,2.05-2.27,1.82-2.41,1.63-2.37,1.59-2.55,1.4-2.51,1.35-2.7,1.54-2.74,1.54-2.74,1.5-2.93,1.69-2.98,2.11-2.88,2.21-3.3,1.65-.58,1.84-.63,2.03-.67,1.84-.63,2.03-.67,1.84-.63,1.84-.63,1.51-.35-1.75,1.01-1.91,2.03-1.96,2.64-2.16,3.48-2.07,3.86-2.36,4.32-2.55,4.37-2.74,4.41-2.74,4.41-3.02,4.08-3.25,3.94-3.47,3-3.74,2.66-3.82,1.49-4.18.78-4.49-.54h0Z"/>
  <path class="cls-35" d="m150.88,345.08l2.07-.48,2.31-1.14,2.23-1.51,1.91-2.03,2.05-2.27,2.15-2.69,1.73-2.79,1.87-3.02,1.69-2.98,1.64-3.16,1.45-3.12,1.5-2.93.98-2.61,1.17-2.65.69-2.15.59-1.73,1.27-.5,2.63-.62,1.27-.5,1.32-.31,1.27-.5,1.27-.5,1.09-.45,1.13-.26,1.27-.5,1.09-.45,1.27-.5,1.13-.26,1.09-.45,2.26-.53-2.25,3.11-2.16,3.48-1.97,3.44-2.12,3.67-1.93,3.63-1.93,3.63-2.16,3.48-2.39,3.34-2.21,3.3-2.9,2.86-2.76,2.63-3.41,2.39-3.69,2.05-4.05,1.35-4.56.87-4.88.35h0Z"/>
  <path class="cls-60" d="m141.89,347.38l1.72-1.99,1.49-2.13,1.53-1.95,1.49-2.13,1.3-2.09,1.25-2.28,1.25-2.28,1.07-2.23,1.21-2.47,1.11-2.05,1.21-2.47,1.07-2.23,1.25-2.28,1.25-2.28,1.07-2.23,1.49-2.13,3.95-.92,1.84-.63,1.65-.58,1.65-.58,1.84-.63,1.65-.58,1.88-.44-1.95,5.22-2.04,4.85-1.94,4.42-2.03,4.05-1.97,3.44-1.83,3.21-2.11,2.88-2.05,2.27-2.24,2.31-1.95,1.85-2.23,1.51-2.5,1.18-2.36.95-2.4.76-2.72.24-2.87.47h0Z"/>
  <path class="cls-55" d="m132.16,349.06l1.72-1.99,1.72-1.99,1.49-2.13,1.34-1.9,1.49-2.13,1.11-2.05,1.11-2.05,1.11-2.05,1.11-2.05.88-2.19.92-2,.92-2,.92-2,.88-2.19,1.11-2.05.92-2,11.4-3.86-1.3,2.09-1.59,2.55-1.5,2.93-1.45,3.12-1.79,3.4-1.6,3.35-1.79,3.4-1.79,3.4-2.02,3.25-1.96,2.64-1.96,2.64-2.09,2.08-2.23,1.51-2.21.72-2.53.2-2.33-.64h0Z"/>
  <path class="cls-11" d="m113.66,350.61l1.84-.63,1.61-.77,1.89-1.24,1.71-1.19,1.89-1.24,1.95-1.85,1.76-1.8,1.91-2.03,1.86-2.22,1.77-2.6,1.77-2.6,1.73-2.79,1.45-3.12,1.41-3.31,1.41-3.31,1.84-.63,2.45-.57.9-.41.9-.41,1.13-.26,1.46-.54,2.03-.67-1.55,3.54-1.65,3.96-1.51,3.73-1.7,3.77-1.93,3.63-1.74,3.58-2.06,3.06-2.06,3.06-2.19,2.5-2.47,2.17-2.56,1.79-2.88,1.27-3.01.7h-3.38s-3.55-.76-3.55-.76l-3.87-1.28,1.46-.54Z"/>
  <path class="cls-9" d="m101.86,352.78l2.37-1.75,2.33-1.93,2.28-2.12,2.09-2.08,2.01-2.45,1.67-2.18,1.82-2.41,1.67-2.18,1.44-2.32,1.34-1.9,1.15-1.86.82-1.58.87-1.39.72-1.16.43-.7.14-.23.52-.32,1.13-.26,1.65-.58,1.84-.63,2.45-.57,2.17-.9,2.4-.76,2.07-.48-1.22,3.26-1.45,3.12-1.45,3.12-1.69,2.98-1.73,2.79-1.96,2.64-2.01,2.45-2.24,2.31-2.28,2.12-2.33,1.93-2.79,1.65-2.88,1.27-3.07,1.31-3.16.94-3.43.6-3.71.27h0Z"/>
  <path class="cls-49" d="m88.67,356.66l.81-.78,1.33-1.11,1.76-1.8,1.91-2.03,1.86-2.22,2.24-2.31,2.15-2.69,2.19-2.5,2.01-2.45,2.01-2.45,1.86-2.22,1.49-2.13,1.24-1.48.91-1.21.24-.65-.04-.19,1.09-.45,1.46-.54,1.65-.58,1.84-.63,3.58-.84,1.65-.58,1.32-.31-1.35,2.7-1.59,2.55-1.73,2.79-1.73,2.79-1.92,2.83-1.96,2.64-2.19,2.5-2.19,2.5-2.38,2.54-2.51,1.98-2.51,1.98-2.79,1.65-2.88,1.27-2.97.89-2.87.47-2.96.1h0Z"/>
  <path class="cls-6" d="m73.61,360.18l1.81-1.61,1.57-1.76,1.62-1.57,1.81-1.61,1.57-1.76,1.57-1.76,1.57-1.76,1.53-1.95,1.57-1.76,1.76-1.8,1.57-1.76,1.57-1.76,1.57-1.76,1.76-1.8,1.62-1.57,1.76-1.8,1.88-.44,1.65-.58,1.69-.4,1.84-.63,1.46-.54,1.65-.58,1.51-.35,1.46-.54-.43.7-1.1,1.25-1.49,2.13-1.96,2.64-2.29,2.92-2.77,3.43-2.77,3.43-3.15,3.52-3.19,3.33-3.28,2.95-3.14,2.72-3.27,2.15-3.02,1.5-2.82.66-2.43-.22-2.28-1.25h0Z"/>
  <path class="cls-43" d="m62.74,362.92l1.94-1.05,2.08-1.28,2.23-1.51,2.14-1.89,2.05-2.27,2.09-2.08,2.05-2.27,1.86-2.22,2.01-2.45,1.53-1.95,1.49-2.13,1.34-1.9,1.05-1.44.72-1.16.43-.7.29-.46.19-.04.9-.41,1.27-.5,1.69-.4,1.84-.63,3.95-.92,1.65-.58-3.67,3.84-3.34,3.56-3,3.28-2.86,3.05-2.53,2.77-2.34,2.73-2.05,2.27-2.09,2.08-1.95,1.85-1.81,1.61-1.71,1.19-1.75,1.01-1.79.82-1.93.25-1.97.06-2.01-.12h0Z"/>
  <path class="cls-58" d="m54.53,363.46l1.61-.77,1.56-.96,1.52-1.15,1.47-1.34,1.29-1.29,1.43-1.53,1.24-1.48,1.24-1.48,1.39-1.71,1.2-1.67,1.01-1.63,1.15-1.86,1.2-1.67.87-1.39,1.2-1.67,1.05-1.44,1.65-.58,1.84-.63,1.51-.35,1.65-.58,1.46-.54,1.65-.58,1.69-.4,1.65-.58-.39.88-.91,1.21-1.2,1.67-1.49,2.13-1.59,2.55-2.01,2.45-2.15,2.69-2.15,2.69-2.38,2.54-2.8,2.44-2.47,2.17-2.94,1.88-2.65,1.41-2.97.89-2.72.24-2.71-.56h0Z"/>
  <path class="cls-13" d="m44.04,362.73l1.84-.63,1.84-.63,1.61-.77,1.79-.82,1.37-.92,1.52-1.15,1.33-1.11,1.29-1.29,1.29-1.29.87-1.39.91-1.21.87-1.39.63-1.54.68-1.35.44-1.49.07-1.41,1.84-.63,1.84-.63,1.69-.4,1.65-.58,1.46-.54,1.46-.54,1.09-.45,1.32-.31-1.67,2.18-1.44,2.32-1.63,2.37-1.63,2.37-1.63,2.37-1.67,2.18-1.63,2.37-1.95,1.85-1.76,1.8-2.04,1.47-1.89,1.24-2.17.9-2.26.53-2.2-.08-2.48-.41-2.61-.98h0Z"/>
  <path class="cls-50" d="m34.98,363.07l1.42-.73,1.61-.77,1.23-.68,1.23-.68,1.19-.87,1.19-.87,1-.83,1-.83.81-.78.76-.97.95-1.02.58-.93.72-1.16.53-1.12.68-1.35.49-1.31,1.88-.44,1.65-.58,1.46-.54,1.51-.35,1.27-.5,1.46-.54,1.32-.31,1.27-.5-.31,2.06-.5,2.1-.92,2-1.15,1.86-1.39,1.71-1.57,1.76-1.85,1.43-1.99,1.66-2.13,1.09-2.27,1.33-2.21.72-2.21.72-2.26.53-2.16.11-2.2-.08-2.06-.31h0Z"/>
  <path class="cls-46" d="m30.11,362.62l2.31-1.14,2.37-1.75,2.28-2.12,2.33-1.93,1.72-1.99,1.43-1.53.72-1.16-.09-.38,1.51-.35.9-.41.94-.22,1.09-.45.9-.41.94-.22.9-.41-.4,1.68-.82,1.58-1.01,1.63-1.24,1.48-1.24,1.48-1.47,1.34-1.66,1.38-1.52,1.15-1.56.96-1.75,1.01-1.46.54-1.46.54-1.32.31-1.36.12-1.03-.16-.93-.58h0Z"/>
  <path class="cls-27" d="m26.4,360.31l.85-.6,1.19-.87,1.37-.92,1.33-1.11,1.37-.92,1.14-1.06.81-.78.66-.55,8.25-2.92.04.19-.48.51-.76.97-.95,1.02-1.05,1.44-1.47,1.34-1.43,1.53-1.47,1.34-1.47,1.34-1.52,1.15-1.61.77-1.23.68-1.41-.07-.84-.2-.78-.81-.54-1.46h0Z"/>
  <path class="cls-64" d="m35.13,353.5l-1.37.92-1.62,1.57-1.85,1.43-1.81,1.61-1.75,1.01-1.51.35-1.39-.87-.67-2.03,1.46-.54,1.42-.73,1.51-.35,1.27-.5,1.32-.31,1.46-.54,1.65-.58,1.88-.44h0Z"/>
  <path class="cls-10" d="m33.08,352.39l-2.06-.31-2.39-.04-2.35.15-2.03.67-1.42.73-.54,1.91.72,2.21,1.42-.73,1.42-.73,1.27-.5,1.23-.68,1.46-.54,1.42-.73,1.46-.54,1.79-.82-1.41-.07Z"/>
  <path class="cls-19" d="m138.11,281.17l2.55-.99,2.68-.43,2.96-.1,2.9.51,3.18.85,3.22,1.03,3.08,1.27,3.35,1.6,2.98,1.69,3.21,1.83,2.83,1.92,2.64,1.96,2.6,1.77,1.99,1.72,1.95,1.53,1.48,1.24,1.27-.5,1.27-.5,1.27-.5,1.32-.31,1.27-.5,1.27-.5,1.27-.5,1.13-.26,1.09-.45,1.32-.31,1.27-.5,1.13-.26,1.04-.64,1.13-.26,1.27-.5,1.09-.45-3.73-1.51-3.63-1.93-3.82-1.89-3.63-1.93-3.67-2.12-3.86-2.07-3.82-1.89-3.96-1.65-3.87-1.28-3.83-1.09-3.88-.48-4.13.17-4.23.59-4.24,1.39-4.21,2.37-4.5,2.84h0Z"/>
  <path class="cls-53" d="m130.27,284.99l2.71.56,2.33.64,2.52.6,2.42,1.02,2.47,1.21,2.09,1.3,2.42,1.02,2.32,1.44,2.28,1.25,2.13,1.49,2.32,1.44,2.32,1.44,2.13,1.49,2.51,1.4,2.09,1.3,2.47,1.21,2.17-.9,1.84-.63,1.42-.73,1.46-.54,1.65-.58,1.51-.35,1.79-.82,1.88-.44-4.63-3.68-4.36-3.35-4.04-2.83-3.95-2.45-3.63-1.93-3.4-1.79-3.08-1.27-3.18-.85-2.94-.7-2.62-.18-2.77.05-2.68.43-2.59.8-2.31,1.14-2.5,1.18-2.6,1.6h0Z"/>
  <path class="cls-39" d="m121.8,289.55l2.48.41,2.71.56,2.38.83,2.38.83,2.42,1.02,2.23,1.07,2.09,1.3,2.05,1.11,1.9,1.34,2.13,1.49,1.9,1.34,1.95,1.53,2.09,1.3,1.71,1.39,1.95,1.53,1.9,1.34,11.74-4.14-2.47-1.21-2.55-1.59-2.79-1.73-3.02-1.87-3.3-2.21-3.44-1.97-3.44-1.97-3.4-1.79-3.4-1.79-3.26-1.22-3.18-.85-2.9-.51-2.77.05-2.4.76-2.04,1.47-1.67,2.18h0Z"/>
  <path class="cls-41" d="m105.54,301.49l3.58-.84,1.93-.25,1.93-.25,2.01.12,2.35-.15,2.06.31,2.29.46,2.48.41,2.38.83,2.47,1.21,2.84,1.12,2.55,1.59,3.02,1.87,2.69,2.15,2.96,2.48,1.98-.86,1.65-.58,1.27-.5,1.23-.68,1.27-.5,1.51-.35,1.65-.58,2.03-.67-3.34-2.39-3.38-2.58-3.38-2.58-3.34-2.39-3.3-2.21-3.44-1.97-3.35-1.6-3.31-1.41-3.13-.66-3.28-.42-3.14.14-2.97.89-2.79,1.65-2.85,2.25-2.67,3.01-2.45,3.95h0Z"/>
  <path class="cls-24" d="m93.4,307.31l3.19.05,3.23.24,3.09.47,2.94.7,2.94.7,2.8.93,2.42,1.02,2.38.83,2.28,1.25,2,.92,1.81.97,1.39.87,1.16.72.93.58.7.43.23.14.56-.13,1.46-.54,1.84-.63,2.36-.95,2.59-.8,2.55-.99,2.55-.99,2.17-.9-2.92-2.29-3.06-2.06-2.83-1.92-3.12-1.45-2.93-1.5-3.22-1.03-2.99-.89-3.13-.66-3.04-.28-3.14.14-3.14.14-3.2.75-3.16.94-3.26,1.36-3.17,1.73-3.27,2.15h0Z"/>
  <path class="cls-66" d="m77.7,313.17l1.41.07,2.01.12,2.25.27,2.71.56,2.94.7,3.18.85,3.18.85,3.18.85,2.99.89,2.99.89,2.8.93,2.15.69,1.96.73,1.31.49.51.48.04.19,3.01-.7,1.65-.58,2.17-.9,2.03-.67,1.84-.63,1.65-.58,1.46-.54-2.55-1.59-2.74-1.54-3.12-1.45-2.89-1.31-3.26-1.22-3.26-1.22-3.36-.8-3.36-.8-3.46-.38-3.28-.42-3.33.18-3.29.37-3.01.7-3.11,1.13-2.79,1.65-2.56,1.79h0Z"/>
  <path class="cls-28" d="m63.02,319.98l2.25.27,2.29.46,2.25.27,2.29.46,2.1.5,2.29.46,2.33.64,2.1.5,2.33.64,2.33.64,2.15.69,2.29.46,2.15.69,2.33.64,2.29.46,2.29.46,1.84-.63,1.98-.86,2.03-.67,2.03-.67,1.84-.63,1.84-.63,1.84-.63,1.42-.73-.84-.2-1.54-.63-2.38-.83-3.22-1.03-3.68-1.32-4.29-1.38-4.25-1.19-4.63-1.1-4.58-.91-4.54-.73-4.22-.2-3.75.08-3.2.75-2.92,1.08-1.91,2.03-.93,2.8h0Z"/>
  <path class="cls-61" d="m44.68,329.83l1.65-.58,1.69-.4,1.97-.06,2.01.12,1.83.17,2.1.5,2.1.5,1.91.54,1.96.73,2.19.88,1.96.73,1.96.73,1.96.73,2,.92,1.73.59,1.73.59,1.65-.58,1.65-.58,1.46-.54,1.46-.54,1.32-.31,1.42-.73,1.65-.58,1.65-.58-.7-.43-1.49-.44-2-.92-2.42-1.02-2.61-.98-3.08-1.27-3.36-.8-3.22-1.03-3.55-.76-3.46-.38-3.42-.19-3.33.18-3.2.75-2.74,1.04-2.41,1.56-2.01,2.45h0Z"/>
  <path class="cls-42" d="m51.08,324.96l2.63-.62,2.68-.43,2.96-.1,2.86.32,3.09.47,2.9.51,2.99.89,2.8.93,2.57.79,2.42,1.02,2.38.83,1.96.73,1.54.63,1.16.72.88.39.23.14.42.1,1.09-.45,1.27-.5,1.65-.58,1.98-.86,1.84-.63,1.84-.63,1.84-.63-5.23-1.16-4.81-1.06-4.44-1.15-4.02-1.05-3.78-.9-3.41-.99-2.94-.7-2.9-.51-2.67-.37-2.43-.22-2.35.15-1.93.25-1.84.63-1.75,1.01-1.89,1.24-1.57,1.76h0Z"/>
  <path class="cls-38" d="m37.11,337.36l2.03-.67,1.84-.63,1.69-.4,1.93-.25,1.93-.25,1.55-.16,1.83.17,1.64.21,1.64.21,1.49.44,1.49.44,1.39.87,1.16.72,1.25,1.1,1.02.95,1.11,1.33,1.84-.63,1.65-.58,1.98-.86,1.84-.63,1.65-.58,1.61-.77,1.51-.35,1.09-.45-2.61-.98-2.65-1.17-2.61-.98-2.84-1.12-2.8-.93-2.8-.93-2.52-.6-2.76-.74-2.43-.22h-2.58s-2.3.35-2.3.35l-2.21.72-1.94,1.05-1.81,1.61-1.67,2.18-1.59,2.55h0Z"/>
  <path class="cls-21" d="m25.27,347.87l2.78-.85,2.91-.28,3.04.28,2.62.18,2.48.41,2.1.5,1.12.53.61.06.75-.18.9-.41,1.13-.26,1.04-.64,1.27-.5,1.09-.45.9-.41-1.25-1.1-1.58-.82-1.77-.78-1.91-.54-1.87-.36-2.01-.12-2.01-.12-1.97.06-5.46,1.28-1.61.77-1.23.68-.95,1.02-.76.97-.34,1.07h0Z"/>
  <path class="cls-5" d="m23.7,353l1.23-.68,1.32-.31,1.78-.02,1.55-.16,1.64.21,1.41.07,1.22.11h.8s8.49-3.56,8.49-3.56l-.19.04-.7-.43-1.22-.11-1.45-.26-1.68-.4-1.83-.17-2.06-.31-2.01-.12-2.2-.08-1.74.21-1.74.21-1.23.68-1.19.87-.58.93-.07,1.41.44,1.88h0Z"/>
  <path class="cls-3" d="m29.32,343.94l1.23-.68,4.33-1.01,1.36-.12,1.36-.12,1.59.02,1.41.07,1.45.26,1.26.3,1.45.26,1.12.53,1.31.49.93.58.93.58,1.02.95,1.79-.82,1.65-.58,1.65-.58,1.46-.54,1.46-.54,1.46-.54,1.27-.5,1.27-.5-1.38-1.66-1.53-1.43-2.05-1.11-2.05-1.11-2.29-.46-2.29-.46-2.43-.22-2.35.15-2.53.2-2.45.57-2.17.9-2.36.95-2.08,1.28-1.85,1.43-1.62,1.57-1.34,1.9h0Z"/>
  <path class="cls-15" d="m407.38,200.09l-.52.32-.52.32-.33.28-.52.32-.33.28-.52.32-.38.09-.48.51.68,1.23.96,1.56.77,1.61.77,1.61.82,1.79.86,1.98.67,2.03.67,2.03.67,2.03.67,2.03.48,2.07.25,1.93.3,2.11.02,1.78.02,1.78-.17,1.83,3.12-1.92,2.28-2.12,1.44-2.32.79-2.57v-2.58s-.62-2.63-.62-2.63l-.8-2.59-1.18-2.5-1.56-2.41-1.56-2.41-1.7-2.18-1.61-1.81-1.34-1.47-1.11-1.33-.74-.62-.28-.33h0Z"/>
  <path class="cls-33" d="m403.97,202.48l-.71.36-.9.41-1.04.64-.85.6-1.04.64-1.23.68-1.23.68-1.19.87,1.28,2.08,1.09,2.13.9,2.17.95,2.36.72,2.21.76,2.4.53,2.26.38,2.49.34,2.3.15,2.35.11,2.16.15,2.35.06,1.97-.08,2.2-.36,1.87-.17,1.83,2.26-.53,1.27-.5,1.37-.92,1.33-1.11,1.05-1.44,1.2-1.67.92-2,.41-2.48.32-2.86-.14-3.14-.69-3.81-.97-4.14-1.67-4.57-2.41-5.19-2.92-5.67h0Z"/>
  <path class="cls-16" d="m395.79,207.37l-.71.36-1.04.64-.85.6-1.23.68-1.19.87-1.23.68-1.23.68-1.04.64,1.14,2.31,1.14,2.31.9,2.17.76,2.4.72,2.21,1.1,4.71.2,2.53.15,2.35.15,2.35-.22,2.43-.04,2.39-.46,2.29-.41,2.48-.83,2.38-.69,2.15,3.42.19,2.59-.8,2.27-1.33,1.67-2.18,1.17-2.65.89-2.99.19-3.42-.04-3.56-.27-3.71-.5-3.85-.88-3.76-1.07-3.72-.98-3.34-1.08-2.92-1.41-2.65-1.05-1.94h0Z"/>
  <path class="cls-65" d="m378.55,259.25l1.14-1.06.87-1.39.73-1.96.5-2.1.18-2.62-.05-2.77-.24-2.72-.14-3.14-.33-3.1-.56-3.24-.52-3.06-.52-3.06-.66-2.82-.47-2.87-1.15-4.89,1.23-.68,1.19-.87,1.42-.73,1.23-.68,1.19-.87,1.27-.5,1-.83,1.23-.68,1.73,3.17,1.4,3.44,1.26,3.68.88,3.76.69,3.81.27,3.71-.06,3.98-.34,3.65-.57,3.51-.85,3.18-1.31,2.89-1.77,2.6-1.91,2.03-2.18,1.7-2.92,1.08-2.87.47h0Z"/>
  <path class="cls-18" d="m377.15,218.48l.69,3.81.88,3.76.65,3.62.79,3.39.65,3.62.75,3.2.37,3.29.18,3.33.05,2.77-.32,2.86-.56,2.71-1.02,2.42-1.49,2.13-1.86,2.22-2.41,1.56-3.02,1.5,1.2-1.67.92-2,.41-2.48.41-2.48v-2.58s-.06-2.77-.06-2.77l-.47-2.87-.28-2.91-.66-2.82-.52-3.06-1.98-8.47-.43-2.68-.34-2.3-.34-2.3.85-.6,1.04-.64,1.04-.64.85-.6,1.09-.45.9-.41,1.04-.64,1-.83h0Z"/>
  <path class="cls-47" d="m361.45,267.62l1.75-4.38,1.38-4.29.81-4.16.34-3.65.34-3.65-.23-3.52-.52-3.06-.47-2.87-.76-2.4-.72-2.21-.63-1.84-.73-1.42-.5-1.27-.36-.71-.28-.33,1.27-.5,1.04-.64.9-.41,1.04-.64,1.04-.64.85-.6,1.09-.45,1.04-.64.52,3.06.6,3.43,2.51,10.73.69,3.81.46,3.66.46,3.66.04,3.56-.42,3.28-.85,3.18-1.5,2.93-2.01,2.45-2.7,2.02-3.54,1.82-4.28,1.2,2.32-4.51Z"/>
  <path class="cls-31" d="m347.32,277.67l1.69-2.98,1.45-3.12,1.03-3.22.99-3.41.61-3.32.61-3.32.19-3.42.19-3.42-.33-3.1-.14-3.14-.28-2.91-.43-2.68-.34-2.3-.67-2.03-.4-1.69,9.56-5.81,1.95,4.11,1.35,4.05.82,4.37.64,4.42.03,4.36-.35,4.45-.77,4.35-1,4.2-1.47,3.92-1.55,3.54-2.06,3.06-2.34,2.73-2.43,2.35-2.6,1.6-2.97.89-3.14.14,2.15-2.69Z"/>
  <path class="cls-62" d="m351.65,233.38l1.18,5.88.76,5.78.25,5.3-.03,4.97-.3,4.64-.81,4.16-.86,3.97-1.37,3.5-1.64,3.16-1.54,2.74-1.86,2.22-2.09,2.08-2.04,1.47-2.13,1.09-2.26.53-2.3.34,1.49-2.13,1.07-2.23,1.07-2.23.56-2.71.41-2.48.32-2.86-.05-2.77-.1-2.96-.1-2.96-.47-2.87-.33-3.1-.47-2.87-.47-2.87-.47-2.87-.43-2.68-.43-2.68,1.42-.73,1.98-.86,2.08-1.28,2.08-1.28,2.31-1.14,2.04-1.47,1.98-.86,1.56-.96h0Z"/>
  <path class="cls-7" d="m320.78,290.63l1.59-2.55,1.59-2.55,1.17-2.65.98-2.61.6-2.52.6-2.52.37-2.67.18-2.62v-2.58s-.06-2.77-.06-2.77l-.24-2.72-.24-2.72-.28-2.91-.28-2.91-.47-2.87-.33-3.1,1.61-.77,1.42-.73,1.04-.64,1.23-.68,1.04-.64,1.23-.68,1.23-.68,1.46-.54.28,2.91.56,3.24.6,3.43.69,3.81.46,3.66.69,3.81.36,4.08-.15,3.61-.29,3.84-.61,3.32-1.41,3.31-1.92,2.83-2.38,2.54-3.31,1.97-4.05,1.35-4.94.96h0Z"/>
  <path class="cls-14" d="m307.98,296.21l1.1-1.25,1.24-1.48,1.05-1.44.92-2,.78-1.77.88-2.19.83-2.38.41-2.48.56-2.71.51-2.9.19-3.42.24-3.23-.08-3.75-.13-3.94-.17-4.13-.45-4.46,1.42-.73,1.42-.73,1.09-.45,1.04-.64,1.27-.5,1.04-.64,1.23-.68,1.42-.73.43,2.68.37,3.29.37,3.29.27,3.71.5,3.85-.1,3.8-.06,3.98-.52,3.7-.71,3.74-.95,3.6-1.6,3.35-1.92,2.83-2.57,2.59-3.12,1.92-3.82,1.49-4.37.82h0Z"/>
  <path class="cls-30" d="m295.96,300.81l1.39-1.71,1.49-2.13,1.25-2.28,1.12-2.84,1.17-2.65.89-2.99.89-2.99.8-3.36.47-3.09.47-3.09.47-3.09.09-3,.14-2.81-.2-2.53-.15-2.35-.3-2.11,1.23-.68,1.23-.68,1.27-.5,1.23-.68,1.23-.68,1.23-.68,1.27-.5,1.23-.68.24,2.72.14,3.14.42,3.48-.15,3.61.08,3.75-.1,3.8-.48,3.88-.71,3.74-.9,3.78-1.37,3.5-1.64,3.16-2.11,2.88-2.57,2.59-2.94,1.88-3.63,1.45-4.18.78h0Z"/>
  <path class="cls-59" d="m282.79,306.47l2.13-1.09,1.76-1.8,1.49-2.13,1.21-2.47,1.17-2.65.85-3.18.85-3.18.61-3.32.38-3.46.38-3.46.24-3.23.24-3.23.09-3,.18-2.62.04-2.39.12-2.01,1.27-.5,1.42-.73,1.27-.5,1.37-.92,1.65-.58,1.37-.92,1.42-.73,1.65-.58.26,1.13.02,1.78.05,2.77-.05,3.19-.1,3.8-.44,4.07-.77,4.35-.73,4.54-1.38,4.29-1.38,4.29-1.89,3.82-2.54,3.57-2.67,3.01-3.27,2.15-3.82,1.49-4.46.45h0Z"/>
  <path class="cls-45" d="m272.68,308.24l2.09-2.08,2.05-2.27,1.67-2.18,1.59-2.55,1.25-2.28,1.17-2.65,1.17-2.65.74-2.76.79-2.57.37-2.67.51-2.9.14-2.81.18-2.62-.05-2.77-.05-2.77-.2-2.53.9-.41.9-.41.9-.41,1.04-.64.9-.41,1.09-.45,1.13-.26,1.23-.68-.08,2.2-.14,2.81.14,3.14-.15,3.61-.34,3.65-.06,3.98-.67,3.93-.71,3.74-1.09,3.83-1.37,3.5-1.64,3.16-2.15,2.69-2.66,2.21-3.02,1.5-3.39.79-4.17-.02h0Z"/>
  <path class="cls-37" d="m260.56,313.26l3.09-2.91,2.48-2.96,2.11-2.88,1.77-2.6,1.4-2.51,1.17-2.65.79-2.57.6-2.52.41-2.48.41-2.48.22-2.43.04-2.39v-2.58s.22-2.43.22-2.43l-.2-2.53.22-2.43,1.23-.68,1.46-.54,1.27-.5,1.23-.68,1.46-.54,1.42-.73,1.27-.5,1.46-.54.17,4.13-.02,4.17-.25,4.03-.44,4.07-.71,3.74-1.13,3.64-1.18,3.45-1.45,3.12-1.87,3.02-1.92,2.83-2.38,2.54-2.28,2.12-2.75,1.83-2.84,1.46-3.11,1.13-3.39.79h0Z"/>
  <path class="cls-29" d="m243.35,319.47l2.7-2.02,2.7-2.02,2.43-2.35,2.24-2.31,1.96-2.64,1.77-2.6,1.73-2.79,1.54-2.74,1.12-2.84,1.08-3.03.89-2.99.7-2.94.51-2.9.14-2.81.09-3-.24-2.72,1.42-.73,1.27-.5,1.42-.73,1.27-.5,1.27-.5,1.27-.5,1.23-.68,1.09-.45.36,4.08-.02,4.17-.25,4.03-.62,4.12-.9,3.78-1.09,3.83-1.55,3.54-1.79,3.4-2.02,3.25-2.34,2.73-2.76,2.63-3.04,2.3-3.5,2.01-3.63,1.45-4.1,1.16-4.37.82h0Z"/>
  <path class="cls-67" d="m233.78,322.7l3.37-2.57,2.62-2.4,2.57-2.59,2.05-2.27,1.82-2.41,1.44-2.32,1.25-2.28,1.21-2.47.83-2.38.79-2.57.79-2.57.7-2.94.51-2.9.66-3.13.66-3.13.76-3.55,1.46-.54,1.23-.68,1.09-.45.94-.22,1.09-.45.9-.41,1.13-.26,1.09-.45.32,3.9-.29,3.84-.52,3.7-.71,3.74-1.13,3.64-1.32,3.68-1.79,3.4-1.83,3.21-2.25,3.11-2.34,2.73-2.8,2.44-2.8,2.44-3.08,2.11-3.4,1.59-3.26,1.36-3.72,1.07h0Z"/>
  <path class="cls-40" d="m216.54,327.93l3.08-2.11,2.7-2.02,2.62-2.4,2.47-2.17,2.38-2.54,2.19-2.5,1.96-2.64,1.96-2.64,1.73-2.79,1.54-2.74,1.31-2.89,1.27-3.08,1.08-3.03.99-3.41.61-3.32.61-3.32,1.09-.45,1.27-.5,1.46-.54,1.61-.77,1.65-.58,1.65-.58,1.27-.5.9-.41-.71,3.74-.67,3.93-.9,3.78-1.09,3.83-1.09,3.83-1.32,3.68-1.74,3.58-1.97,3.44-2.21,3.3-2.67,3.01-2.9,2.86-3.56,2.62-3.88,2.1-4.34,1.81-4.85,1.33-5.5,1.09h0Z"/>
  <path class="cls-20" d="m206.55,331.86l2.01-2.45,1.92-2.83,1.92-2.83,1.92-2.83,1.69-2.98,1.87-3.02,1.69-2.98,1.69-2.98,1.5-2.93,1.69-2.98,1.73-2.79,1.54-2.74,1.63-2.37,1.59-2.55,1.53-1.95,1.72-1.99.48-.51,1.09-.45,1.23-.68,1.51-.35,1.65-.58,1.65-.58,1.65-.58,1.65-.58-.77,4.35-1.19,4.25-1.42,4.1-1.65,3.96-2.03,4.05-2.31,3.72-2.54,3.57-2.58,3.38-2.86,3.05-3.09,2.91-2.99,2.49-3.04,2.3-3.12,1.92-3.02,1.5-3.07,1.31-2.82.66h0Z"/>
  <path class="cls-63" d="m190.55,335.6l1.94-1.05,1.99-1.66,1.95-1.85,1.91-2.03,1.86-2.22,1.82-2.41,1.92-2.83,1.87-3.02,1.87-3.02,1.83-3.21,2.02-3.25,1.83-3.21,2.02-3.25,2.02-3.25,2.25-3.11,2.06-3.06,1.42-.73,1.46-.54,1.79-.82,1.65-.58,1.61-.77,1.69-.4,1.23-.68,1.32-.31-2.87,3.85-2.78,4.22-2.55,4.37-2.55,4.37-2.51,4.56-2.7,4.6-2.41,4.14-2.41,4.14-2.49,3.76-2.58,3.38-2.53,2.77-2.66,2.21-3.02,1.5-2.82.66-3.19-.05-3.26-1.22h0Z"/>
  <path class="cls-57" d="m178.48,340.01l3.47-3,3-3.28,2.82-3.24,2.54-3.57,2.39-3.34,2.16-3.48,1.79-3.4,2.02-3.25,1.45-3.12,1.69-2.98,1.54-2.74,1.59-2.55,1.49-2.13,1.62-1.57,1.66-1.38,1.79-.82.56-.13,1.09-.45,1.32-.31,1.65-.58,1.65-.58,1.46-.54,1.27-.5,1.13-.26-2.39,3.34-2.39,3.34-2.12,3.67-2.12,3.67-1.89,3.82-1.97,3.44-2.12,3.67-2.16,3.48-2.21,3.3-2.44,3.15-2.67,3.01-2.99,2.49-3.41,2.39-3.73,1.87-4.01,1.53-4.52,1.06h0Z"/>
  <path class="cls-54" d="m401.26,192.59l-.52.32-.52.32-.52.32-.33.28-.33.28-.52.32-.33.28-.56.13-.77-1.61-.82-1.79-.86-1.98-.9-2.17-1.09-2.13-1.09-2.13-1.09-2.13-1.28-2.08-1.28-2.08-1.28-2.08-1.19-1.71-1.24-1.89-1.34-1.47-1.34-1.47-1.44-1.05-1.16-.72,3.17-1.73,2.87-.47,2.62.18,2.23,1.07,2.18,1.67,1.75,2.37,1.41,2.65,1.46,2.84.94,3.16.89,2.97.89,2.97.43,2.68.34,2.3.44,1.88.12,1.36.09.38h0Z"/>
  <path class="cls-12" d="m397.71,195.21l-.71.36-.33.28-.33.28-.56.13-.33.28-.66.55-.94.22-1.27.5-1.18-2.5-1.14-2.31-1.33-2.27-1.14-2.31-1.28-2.08-1.47-2.04-1.43-1.85-1.43-1.85-1.43-1.85-1.57-1.62-1.57-1.62-1.71-1.39-1.71-1.39-1.67-1.2-1.9-1.34-2.05-1.11.81-.78.76-.97,1-.83,1.23-.68,1.09-.45,1.55-.16,1.41.07,1.73.59,1.67,1.2,1.95,1.53,2.35,2.43,2.3,3.04,2.52,3.98,2.69,4.73,2.92,5.67,3.18,6.8h0Z"/>
  <path class="cls-48" d="m392.73,198.56l-.71.36-.85.6-1.19.87-1.19.87-1.23.68-1.37.92-1.23.68-1.04.64-1.04-2.74-1.23-2.69-1.18-2.5-1.33-2.27-1.33-2.27-1.66-1.99-1.47-2.04-1.66-1.99-1.76-1.57-1.8-1.76-1.76-1.57-2.09-1.3-2.09-1.3-2.09-1.3-2.28-1.25-2.19-.88,1.83-3.21,2.14-1.89,2.36-.95,2.72-.24,2.52.6,2.89,1.31,2.64,1.96,2.73,2.34,2.82,2.72,2.49,2.99,2.53,3.18,2.15,3.27,1.97,3.31,1.69,2.98,1.27,2.88.99,2.55h0Z"/>
  <path class="cls-32" d="m343.08,179.8l2.2.08,2.1.5,2,.92,2.09,1.3,2.13,1.49,2.03,1.91,1.85,1.95,1.89,2.14,1.93,2.33,1.79,2.56,1.98,2.51,1.6,2.6,1.79,2.56,1.56,2.41,1.6,2.6,1.51,2.23,1.46-.54,1.23-.68,1.23-.68,1.37-.92,1.23-.68,1.19-.87,1.27-.5,1.23-.68-1.35-4.05-1.87-3.73-2.05-3.69-2.15-3.27-2.53-3.18-2.67-2.95-2.96-2.48-2.69-2.15-3.02-1.87-2.89-1.31-2.99-.89-3-.09-2.72.24-2.74,1.04-2.41,1.56-2.24,2.31h0Z"/>
  <path class="cls-36" d="m331.78,185.82l4.3.58,4.06,1.23,3.5,1.37,3.44,1.97,2.92,2.29,2.77,2.53,2.35,2.43,2.02,2.7,2.02,2.7,1.41,2.65,1.56,2.41.9,2.17.86,1.98.68,1.23.26,1.13.28.33,1.09-.45,1.23-.68,1.04-.64,1.04-.64.85-.6,1.04-.64,1.09-.45,1.09-.45-2.07-2.89-2.11-3.08-2.15-3.27-1.97-3.31-2.15-3.27-2.34-3.22-2.3-3.04-2.21-2.66-2.54-2.38-2.6-1.77-2.7-1.35-2.9-.51-3.14.14-3.39.79-3.31,1.97-3.93,2.71h0Z"/>
  <path class="cls-34" d="m316.92,191.88l3.28.42,3.18.85,3.26,1.22,2.93,1.5,2.79,1.73,2.83,1.92,2.69,2.15,2.5,2.19,2.35,2.43,2.12,2.28,1.98,2.51,1.93,2.33,1.7,2.18,1.33,2.27,1.43,1.85,1.01,1.75,10.63-5.47-1.71-4.76-2-4.3-2.52-3.98-2.85-3.7-3.33-3.19-3.28-3-3.53-2.35-3.67-2.12-3.68-1.32-3.64-1.13-3.7-.52-3.33.18-3.06.52-3.11,1.13-2.51,1.98-2.01,2.45h0Z"/>
  <path class="cls-52" d="m354.5,221.8l-3.71-5.68-3.81-5.26-3.78-4.28-3.65-3.71-3.7-3.1-3.57-2.54-3.44-1.97-3.31-1.41-3.22-1.03-3.09-.47-2.81-.14-2.68.43-2.59.8-2.08,1.28-1.85,1.43-1.76,1.8,2.48.41,2.52.6,2.61.98,2.13,1.49,2.37,1.63,2.45,2.01,2.03,1.91,2.12,2.28,2.21,2.66,1.83,2.75,1.75,2.37,2.02,2.7,1.83,2.75,1.79,2.56,1.98,2.51,2.12,2.28-.33.28,1.75-1.01,1.75-1.01,1.94-1.05,2.08-1.28,2.08-1.28,1.94-1.05,1.98-.86,1.61-.77h0Z"/>
  <path class="cls-22" d="m292.8,205.86l2.94.7,2.99.89,2.61.98,2.65,1.17,2.51,1.4,2.18,1.67,2.18,1.67,2.22,1.86,1.85,1.95,2.12,2.28,2.08,2.09,1.75,2.37,1.98,2.51,1.98,2.51,2.02,2.7,2.21,2.66,1.61-.77,1.27-.5,1.23-.68,1.23-.68,1.09-.45,1.23-.68,1.27-.5,1.42-.73-1.98-2.51-2.11-3.08-2.34-3.22-2.39-3.41-2.39-3.41-2.62-3.56-2.72-3.14-2.67-2.95-2.96-2.48-3.06-2.06-3.26-1.22-3.32-.61-3.52.23-3.68,1.26-3.64,2.24-3.94,3.5h0Z"/>
  <path class="cls-70" d="m279.99,213.03l2.35-.15,2.16-.11,2.25.27,1.91.54,2.15.69,2.23,1.07,2.09,1.3,2.09,1.3,2.27,2.05,2.27,2.05,2.31,2.24,2.4,2.62,2.72,3.14,2.72,3.14,3.04,3.66,2.9,3.89,1.61-.77,1.65-.58,1.27-.5,1.23-.68,1.09-.45,1.23-.68,1.42-.73,1.42-.73-1.75-2.37-2.07-2.89-2.25-2.85-2.76-3.32-2.53-3.18-3.1-3.05-3.05-2.86-3.2-2.63-3.3-2.21-3.4-1.79-3.5-1.37-3.51-.57-3.52.23-3.68,1.26-3.54,1.82-3.61,3.23h0Z"/>
  <path class="cls-51" d="m270.53,218.42l2.39.04,2.52.6,2.61.98,2.84,1.12,2.7,1.35,2.93,1.5,2.83,1.92,2.64,1.96,2.69,2.15,2.5,2.19,2.5,2.19,2.12,2.28,2.12,2.28,1.7,2.18,1.7,2.18,1.05,1.94,1.46-.54,1.23-.68,1.09-.45,1.09-.45,1.04-.64,1.27-.5,1.09-.45,1.23-.68-1.79-2.56-2.02-2.7-2.25-2.85-2.49-2.99-2.49-2.99-3.05-2.86-2.86-2.9-2.96-2.48-3.3-2.21-3.35-1.6-3.45-1.18-3.32-.61-3.56.04-3.58.84-3.36,1.78-3.51,2.81h0Z"/>
  <path class="cls-68" d="m258.85,224.53l2.4-.76,2.72-.24,2.52.6,2.8.93,2.7,1.35,2.98,1.69,2.64,1.96,2.73,2.34,2.77,2.53,2.54,2.38,2.35,2.43,2.4,2.62,2.12,2.28,1.93,2.33,1.66,1.99,1.38,1.66,1.27-.5,1.42-.73,1.27-.5,1.46-.54,1.23-.68,1.42-.73,1.23-.68,1.65-.58-.64-1.04-1.01-1.75-1.93-2.33-2.17-2.47-2.67-2.95-3.1-3.05-3.28-3-3.66-2.92-3.95-2.45-3.9-2.26-4.19-1.8-3.97-.86-4.03-.25-3.95.92-3.73,1.87-3.42,3.18h0Z"/>
  <path class="cls-56" d="m250.61,230.03l3.19.05,3,.09,2.94.7,2.94.7,2.84,1.12,2.65,1.17,2.55,1.59,2.6,1.77,2.41,1.82,2.27,2.05,2.03,1.91,2.12,2.28,1.93,2.33,1.93,2.33,1.79,2.56,1.56,2.41,1.09-.45.71-.36.85-.6.9-.41.85-.6.85-.6,1.04-.64,1.27-.5-1.61-1.81-1.75-2.37-2.25-2.85-2.44-2.8-2.91-3.09-2.86-2.9-3.05-2.86-3.2-2.63-3.34-2.39-3.21-1.83-3.45-1.18-3.32-.61-3.52.23-3.16.94-3.27,2.15-3,3.28h0Z"/>
  <path class="cls-17" d="m239.75,235.35l4.17.02,4.07.44,3.32.61,3.36.8,2.89,1.31,2.7,1.35,2.55,1.59,2.37,1.63,2.03,1.91,1.85,1.95,1.89,2.14,1.66,1.99,1.56,2.41,1.7,2.18,1.51,2.23,1.51,2.23,1.46-.54,1.23-.68,1.42-.73,1.23-.68,1.42-.73,1.23-.68,1.46-.54,1.42-.73-2.66-3.74-3.04-3.66-2.76-3.32-3.1-3.05-3.2-2.63-3.11-2.25-3.25-2.02-3.35-1.6-3.41-.99-3.22-1.03-3.23-.24-3.33.18-3.1.33-3.3,1.17-3.02,1.5-2.94,1.88h0Z"/>
  <path class="cls-23" d="m224.44,242.9l3.48-.42,3.48-.42,3.42.19,3.23.24,3.13.66,3.22,1.03,2.99.89,2.74,1.54,2.74,1.54,2.41,1.82,2.45,2.01,2.27,2.05,2.17,2.47,1.98,2.51,1.6,2.6,1.69,2.98,1.42-.73,1.46-.54,1.46-.54,1.46-.54,1.46-.54,1.46-.54,1.23-.68,1.27-.5-2.47-3.79-2.81-3.51-2.62-3.56-3.1-3.05-3.24-2.82-3.11-2.25-3.44-1.97-3.58-1.74-3.41-.99-3.74-.71-3.8-.1-3.71.27-3.76.88-3.82,1.49-3.88,2.1-3.74,2.66h0Z"/>
  <path class="cls-25" d="m216.76,245.69l4.17.02,3.8.1,3.46.38,3.09.47,2.8.93,2.42,1.02,2.47,1.21,2.13,1.49,2.13,1.49,1.85,1.95,2.03,1.91,2.08,2.09,2.12,2.28,2.17,2.47,2.4,2.62,2.63,2.76,1.46-.54,1.23-.68.9-.41,1.09-.45,1.09-.45,1.09-.45,1.09-.45,1.27-.5-2.05-3.69-2.39-3.41-2.53-3.18-2.67-2.95-3.11-2.25-2.88-2.11-3.4-1.79-3.31-1.41-3.45-1.18-3.51-.57-3.65-.34-3.61-.15-3.66.46-3.62.65-3.68,1.26-3.44,1.4h0Z"/>
  <path class="cls-4" d="m199.78,252.05l3.8.1,3.61.15,3.46.38,3.46.38,3.36.8,3.36.8,3.18.85,3.26,1.22,3.08,1.27,2.93,1.5,2.79,1.73,2.88,2.11,2.69,2.15,2.73,2.34,2.4,2.62,2.44,2.8.94-.22,1.09-.45,1.23-.68,1.46-.54,1.23-.68,1.27-.5,1.27-.5.71-.36-2.53-3.18-2.49-2.99-2.91-3.09-2.82-2.72-3.01-2.67-3.15-2.44-3.3-2.21-3.4-1.79-3.68-1.32-3.78-.9-4.07-.44-4.17-.02-4.42.64-4.66,1.29-5.09,1.99-5.15,2.59h0Z"/>
  <path class="cls-2" d="m189.69,255.6l3.18.85,3.6.95,3.26,1.22,3.5,1.37,3.35,1.6,3.35,1.6,3.16,1.64,3.35,1.6,3.16,1.64,3.16,1.64,2.98,1.69,2.93,1.5,2.89,1.31,2.7,1.35,2.61.98,2.38.83,1.51-.35,1.04-.64,1.23-.68,1.46-.54,1.42-.73,1.46-.54,1.46-.54-3.04-3.66-3.14-3.24-3.66-2.92-3.76-2.49-3.9-2.26-4-1.84-4.15-1.61-4.25-1.19-3.97-.86-4.12-.62-4.03-.25-3.75.08-3.71.27-3.62.65-3.16.94-2.88,1.27h0Z"/>
  <path class="cls-8" d="m179.27,262.8l3.14-.14,3.23.24,3.09.47,3.18.85,3.03,1.08,2.89,1.31,3.08,1.27,3.16,1.64,2.98,1.69,2.98,1.69,3.21,1.83,3.16,1.64,3.4,1.79,3.54,1.55,3.31,1.41,1.55-.16,3.58-.84,1.65-.58,1.84-.63,1.69-.4,1.46-.54,1.09-.45-4.57-1.71-4.66-2.09-4.7-2.27-4.75-2.46-4.56-2.51-4.75-2.46-4.51-2.32-4.47-2.13-4.34-1.57-3.92-1.47-3.97-.86-3.42-.19-3.24.56-2.84,1.46-2.66,2.21-2.16,3.48,3.29-.37Z"/>
  <path class="cls-69" d="m165.37,267.04l4.68.49,4.35.77,4.1,1.42,4.29,1.38,3.77,1.7,3.77,1.7,3.63,1.93,3.21,1.83,3.21,1.83,3.21,1.83,2.74,1.54,2.65,1.17,2.57.79,2.33.64,2.01.12,2.07-.48.52-.32,1.13-.26,1.42-.73,1.46-.54,1.69-.4,1.61-.77,1.27-.5,1.13-.26-3.96-1.65-3.92-1.47-3.86-2.07-3.82-1.89-3.72-2.31-3.86-2.07-3.82-1.89-3.82-1.89-3.73-1.51-3.87-1.28-3.97-.86-3.88-.48-3.94.13-4.18.78-4.24,1.39-4.25,2.19h0Z"/>
  <path class="cls-44" d="m152.52,274.02l3.98.06,3.8.1,3.28.42,3.13.66,2.99.89,2.8.93,2.65,1.17,2.47,1.21,2.51,1.4,2.7,1.35,2.55,1.59,2.74,1.54,2.79,1.73,3.12,1.45,3.16,1.64,3.73,1.51,1.69-.4,2.21-.72,1.98-.86,2.21-.72,1.98-.86,2.21-.72,1.61-.77,1.84-.63-2.16.11-2.71-.56-3.26-1.22-3.4-1.79-4.05-2.03-4.28-2.17-4.56-2.51-4.51-2.32-4.85-2.04-4.76-1.67-4.9-1.43-4.49-.54-4.55.07-4.14.97-4.11,1.95-3.42,3.18h0Z"/>
  <g>
    <path class="cls-75" d="m407.56,166.9l-.11,1.22.12,1.36-.07,1.41.31,1.32.12,1.36.7,3.01.16,1.55.88,3.76.12,1.36.4,1.69v.8s-.07.61-.07.61l.41-2.48.6-2.52.37-2.67.6-2.52.32-2.86.37-2.67.32-2.86v-2.58s-.06-2.77-.06-2.77l-.24-2.72-.62-2.63-.8-2.59-1.18-2.5-1.51-2.23-1.89-2.14-2.41-1.82.64,1.04.68,1.23.5,1.27.5,1.27.97,4.14.12,1.36.16,1.55.12,1.36.12,1.36-.07,1.41-.07,1.41-.11,1.22-.26,1.45-.16,1.03h0Z"/>
    <path class="cls-79" d="m451.53,204.65l-2.03.67-1.93.25-2.11.3-2.06-.31-2.06-.31-2.1-.5-2.33-.64-2.19-.88-2.23-1.07-2.23-1.07-2.23-1.07-2.28-1.25-2.09-1.3-2.28-1.25-2.13-1.49-2.09-1.3,2.15.69,2.33.64,2.1.5,1.96.73,2.1.5,2,.92,2.15.69,1.96.73,2.15.69,1.96.73,2.15.69,2.15.69,2.15.69,2.38.83,2.38.83,2.33.64h0Z"/>
    <path class="cls-74" d="m424.89,164.63l-2.21.72-2.13,1.09-1.56.96-1.71,1.19-1.29,1.29-1.05,1.44-1.24,1.48-.63,1.54-.78,1.77-.44,1.49-.4,1.68-.4,1.68-.21,1.64-.21,1.64-.21,1.64-.07,1.41.63-1.54.63-1.54.63-1.54.87-1.39.63-1.54.87-1.39.82-1.58.87-1.39.87-1.39,1.05-1.44.87-1.39,1.1-1.25,1.05-1.44,1.29-1.29,1.1-1.25,1.29-1.29h0Z"/>
    <path class="cls-77" d="m405.62,155.24l-1.2,1.67-.82,1.58-.78,1.77-.36,1.87-.36,1.87-.08,2.2.25,1.93.15,2.35.53,2.26.34,2.3.72,2.21.53,2.26.76,2.4.95,2.36.72,2.21.95,2.36-.11-2.16-.06-1.97-.11-2.16-.06-1.97-.11-2.16-.25-1.93-.25-1.93-.11-2.16-.25-1.93-.11-2.16-.25-1.93-.3-2.11-.11-2.16.08-2.2-.34-2.3.04-2.39h0Z"/>
    <path class="cls-78" d="m416.97,151.99l.05,2.77-.27,2.25-.27,2.25-.54,1.91-.78,1.77-.78,1.77-.82,1.58-.78,1.77-.78,1.77-.73,1.96-.5,2.1-.27,2.25v2.58s.1,2.96.1,2.96l.6,3.43.87-1.39.92-2,1.15-1.86,1.21-2.47,1.44-2.32,1.35-2.7,1.35-2.7.98-2.61.93-2.8.56-2.71.37-2.67-.15-2.35-.53-2.26-1.09-2.13-1.8-1.76-2.32-1.44.52,3.06Z"/>
    <path class="cls-1" d="m410.53,187.25l-.03-.99.26-1.45.26-1.45.36-1.87.4-1.68.36-1.87.12-2.01.12-2.01-.3-2.11-.76-2.4-.9-2.17-1.51-2.23-1.93-2.33-2.35-2.43-3.34-2.39-3.9-2.26,1.24,1.89,1.19,1.71,1.24,1.89,1.01,1.75.82,1.79,1.05,1.94.86,1.98.86,1.98.63,1.84.67,2.03.67,2.03.67,2.03.53,2.26.72,2.21,1.01,4.33h0Z"/>
    <path class="cls-73" d="m444.52,187.43l-1.57,1.76-1.62,1.57-1.71,1.19-1.75,1.01-1.79.82-5.46,1.28-1.74.21-1.83-.17-1.78.02-1.83-.17-1.64-.21-1.64-.21-1.64-.21-1.49-.44,1.55-.16,1.97-.06,1.55-.16,1.88-.44,1.74-.21,1.74-.21,1.69-.4,1.74-.21,3.39-.79,1.65-.58,1.88-.44,1.61-.77,1.65-.58,1.79-.82,1.65-.58h0Z"/>
    <path class="cls-80" d="m436.43,198.66l-2.48-.41-2.76-.74-2.76-.74-2.84-1.12-2.76-.74-2.19-.88-1.91-.54-1.22-.11,2.39.04,2.53-.2,2.77-.05,2.96-.1,2.77-.05,3,.09,2.86.32,2.81.14,2.71.56,2.71.56,2.61.98,2.23,1.07,2.32,1.44,1.76,1.57,1.66,1.99,1.56,2.41-1.16-.72-.97-.76-1.12-.53-1.16-.72-1.31-.49-1.31-.49-1.31-.49-1.49-.44-1.45-.26-1.26-.3-1.41-.07-1.45-.26-1.41-.07-1.41-.07-1.17.08-1.36.12h0Z"/>
    <path class="cls-72" d="m445.9,217.09l-1.98-2.51-2.03-1.91-1.99-1.72-1.86-1.15-1.81-.97-1.96-.73-1.96-.73-1.73-.59-1.96-.73-1.91-.54-2-.92-1.81-.97-1.95-1.53-2.18-1.67-2.12-2.28-2.25-2.85,1.49.44,2.15.69,2.48.41,2.57.79,2.76.74,2.99.89,2.99.89,2.7,1.35,2.84,1.12,2.51,1.4,2.18,1.67,1.8,1.76,1.47,2.04.76,2.4.38,2.49-.56,2.71h0Z"/>
    <path class="cls-76" d="m413.06,197.18l1.35.68,1.49.44,1.49.44,1.73.59,1.91.54,1.81.97,1.81.97,1.67,1.2,1.76,1.57,1.47,2.04,1.14,2.31,1.04,2.74.75,3.2.32,3.9-.16,4.4-.86-1.98-1.05-1.94-1.01-1.75-1.01-1.75-1.01-1.75-1.15-1.52-1.19-1.71-1.38-1.66-1.38-1.66-1.34-1.47-1.38-1.66-1.34-1.47-1.57-1.62-1.53-1.43-1.76-1.57-1.57-1.62.93.58Z"/>
  </g>
</svg>