<?xml version="1.0" encoding="UTF-8"?>
<svg id="Layer_1" data-name="Layer 1" xmlns="http://www.w3.org/2000/svg" viewBox="0 0 500 500">
  <defs>
    <style>
      .cls-1 {
        fill: #f7a80d;
      }
    </style>
  </defs>
  <path class="cls-1" d="m171.06,291.02l-34.73,14.92,32.16,13.75,37.29-13.75-34.73-14.92h0Zm-52.21,18.65l-1.16,67.13,50.81,22.38v-69.69l-49.64-19.81h0Zm104.42,0l-45.92,17.48v65.73l45.92-18.65v-64.56h0Zm54.78-208.84l-34.97,14.92,32.4,13.75,37.29-13.75-34.73-14.92h0Zm-48.48,19.82v67.13l43.35,12.59,1.4-61.07-44.75-18.65h0Zm96.96,3.73l-41.02,17.48v65.96l41.02-18.65v-64.8h0Zm-212.69,70.93l-34.73,14.92,32.16,13.75,37.29-13.75-34.73-14.92h0Zm-52.21,18.65l-1.16,67.13,50.81,22.38v-69.69l-49.64-19.81Zm104.42,0l-45.91,17.48v65.72l45.91-18.65v-64.56Zm59.67-21.12l-34.73,14.92,32.16,13.75,37.29-13.75-34.73-14.92h0Zm-52.21,18.65l-1.16,67.13,50.81,22.38v-69.69l-49.64-19.82Zm104.42,0l-45.91,17.48v65.72l45.91-18.65v-64.56h0Zm109.39-110.65l-34.73,14.92,32.16,13.75,37.29-13.75-34.73-14.92h0Zm-52.21,18.65l-1.16,67.13,50.81,22.38v-69.69l-49.64-19.82Zm104.42,0l-45.91,17.48v65.72l45.91-18.65v-64.56Z"/>
</svg>