<?xml version="1.0" encoding="UTF-8"?><svg id="Layer_1" xmlns="http://www.w3.org/2000/svg" viewBox="0 0 500 500"><defs><style>.cls-1{fill:#004975;}.cls-2{fill:#fff;}.cls-3{fill:#00598d;}.cls-4{fill:#92c4e3;}.cls-5{fill:#0073b9;}.cls-6{fill:none;}</style></defs><path class="cls-3" d="m323.82,143.56c-17.32-10.79-33.6-15.02-49.97-25.77-10.1-6.88-24.16-23.16-35.91-37.21-2.26,22.55-9.14,31.69-16.98,38.22-16.63,13.06-27.07,16.98-41.44,24.81-12.1,6.18-77.69,45.35-77.69,129.58s70.86,146.25,149.51,146.25,146.9-57.11,146.9-143.64-63.98-125.7-74.43-132.23h0Z"/><path class="cls-2" d="m297.27,346.26c5.22,0,10.79.35,14.71,2.96,3.92,2.61,6.18,8.49,7.49,11.75,1.31,3.26,0,5.22-2.61,6.53-2.26,1.31-2.61.65-4.87-3.57s-4.27-8.49-15.67-8.49-15.02,3.92-20.54,8.49-7.49,6.18-9.49,3.57c-2-2.61-1.31-5.22,2.26-8.49,3.57-3.26,9.49-8.49,15.02-10.79,5.53-2.31,8.49-1.96,13.71-1.96Zm-54.15,37.21c6.53,5.22,16.32,9.49,37.21,9.49s35.56-5.92,42.09-10.79c2.96-2.26,4.27-.35,4.57.96.3,1.31.96,3.26-1.31,5.57-1.65,1.65-16.63,12.1-34.3,13.71s-41.44,2.61-55.8-10.45c-2.26-2.26-1.65-5.57,0-6.88,1.65-1.31,2.96-2.26,4.87-2.26s1.65,0,2.66.65h0Z"/><path class="cls-5" d="m163.12,358.66c24.81-.35,29.38-4.57,51.27-14.36,118.17-52.88,140.07-101.2,144.29-112.3,4.22-11.1,10.45-29.08,3.92-48.97-1.26-3.83-2.18-6.92-2.83-9.4-15.71-17.54-31.3-27.16-36-30.08-16.98-10.79-33.65-15.02-49.97-25.77-10.1-6.53-24.16-23.16-35.91-37.21-2.26,22.55-8.79,31.99-16.98,38.22-16.63,13.06-27.07,16.98-41.44,24.81-12.1,6.49-77.74,45.31-77.74,129.53,0,26.9,7.23,51.53,19.63,72.6l3.22-.13c6.83,6.18,17.63,13.41,38.52,13.06Z"/><path class="cls-1" d="m323.73,143.56c-16.98-10.79-33.6-15.02-49.97-25.77-10.1-6.53-24.16-23.16-35.91-37.21-2.26,22.55-8.79,31.99-16.98,38.22-16.63,13.06-27.07,16.98-41.44,24.81-12.06,6.49-77.69,45.31-77.69,129.53,0,26.9,7.23,51.53,19.63,72.6,26.42,44.92,76.34,73.65,129.88,73.65,78.69,0,146.9-57.11,146.9-143.64,0-47.49-19.28-80.74-38.43-102.11-15.71-17.58-31.3-27.16-36-30.08h0Zm39.7,38.17c21.41,26.81,32.3,58.41,32.3,94.02,0,20.63-3.92,40.13-11.66,57.98-7.36,16.89-17.93,31.86-31.47,44.53-26.77,24.98-62.72,38.74-101.28,38.74-19.06,0-37.78-3.66-55.63-10.84-17.54-7.05-33.3-17.15-46.92-30.03-28.77-27.16-44.57-63.72-44.57-102.98,0-34.95,11.36-66.03,33.73-92.36,17.11-20.11,35.56-31.25,42.66-35.08,3.48-1.87,6.7-3.57,9.84-5.18,9.84-5.05,19.15-9.84,31.95-19.85,6.83-5.18,14.1-13.41,17.19-34.25,10.79,12.84,23.29,27.25,32.86,33.43,8.49,5.61,17.19,9.53,25.59,13.32,7.97,3.57,16.19,7.31,24.33,12.49l.3.17c23.9,14.84,36.61,30.73,40.78,35.91h0Z"/><path class="cls-4" d="m239.51,87.06c4.57,13.41,3.92,20.24,3.92,23.16s-1.65,10.79-6.88,14.71c-2.26,1.65-2.96,2.96-2.96,3.26,0,1.31,2.96,2.26,2.96,5.22,0,3.57-1.65,10.79-18.93,28.07-17.28,17.28-42.13,32.64-61.37,42.13-19.24,9.49-28.38,8.79-30.99,4.22-2.61-4.57.96-14.71,13.06-28.07,12.1-13.36,50.27-32.64,50.27-32.64l47.66-33.3,2.61-12.71"/><path class="cls-2" d="m239.51,86.71c-2.96,21.55-9.49,28.07-18.28,34.91-14.71,11.1-29.08,17.93-32.3,19.59-8.49,4.27-39.17,21.24-55.19,45.7-4.87,7.49,0,10.45.96,11.1s12.1,1.96,35.91-12.4,34.3-22.81,47.7-36.82c7.18-7.49,8.18-11.75,8.18-13.71,0-2.26-1.65-3.26-4.27-3.92-1.31-.35-1.65-.96,0-1.96s8.44-4.27,10.1-5.57c1.65-1.31,9.49-6.53,9.79-15.02.3-8.49-.3-14.36-2.61-21.89Zm-73.43,237.35c.35-25.46,24.16-49.27,54.19-49.62,38.22-.35,64.64,37.87,83.92,37.52,16.32-.35,47.66-32.3,63.03-32.3,16.32,0,20.89,16.98,20.89,27.07s-3.26,28.38-11.1,39.83c-7.83,11.45-12.71,15.67-21.85,15.02-11.75-.96-35.26-37.52-50.27-38.22-18.93-.65-60.07,39.52-92.36,39.52-19.59,0-25.46-2.96-31.99-7.18-9.92-6.83-14.8-17.28-14.45-31.64h0Z"/><path class="cls-6" d="m362.56,183.04c6.53,19.93.35,37.87-3.92,48.97-4.27,11.1-26.12,59.41-144.29,112.3-21.85,9.79-26.46,14.02-51.27,14.36-20.89.35-31.69-6.88-38.52-13.06l-3.22.13c26.42,44.92,76.34,73.65,129.88,73.65,78.69,0,146.9-57.11,146.9-143.64,0-47.49-19.28-80.74-38.43-102.11.7,2.48,1.65,5.57,2.87,9.4Z"/></svg>