<?xml version="1.0" encoding="UTF-8"?><svg id="Layer_1" xmlns="http://www.w3.org/2000/svg" viewBox="0 0 500 500"><defs><style>.cls-1{fill:#34a753;}.cls-1,.cls-2{fill-rule:evenodd;}.cls-2{fill:#e32e16;}</style></defs><path class="cls-2" d="m78.88,94.1h31.9v211.73h126.17v26.1H78.87V94.1h0Zm245.09,62.36c21.75-2.9,44.96,1.45,62.36,15.95,18.85,13.05,29.01,36.25,30.45,58.01,2.9,26.1,0,52.21-14.5,73.96-13.05,17.4-33.35,29-56.56,30.45-21.75,2.9-46.41-1.45-65.26-15.95-17.4-14.5-26.1-36.25-29.01-58.01-2.9-23.2,0-49.31,14.5-69.61,11.6-20.3,34.81-33.36,58.01-34.81h0Zm4.35,24.65c14.5-1.45,30.45,2.9,42.06,13.05,10.15,11.6,15.95,26.1,17.4,40.6,1.45,15.95,0,33.36-7.25,47.86-7.25,14.5-20.3,24.65-36.25,27.55-14.5,2.9-30.45-1.45-40.61-10.15-11.6-8.7-18.85-21.75-21.75-34.81-2.9-18.85-1.45-37.71,5.8-55.11,7.25-15.95,23.2-27.55,40.6-29.01h0Z"/><path class="cls-1" d="m78.88,369.64h342.25v36.26H78.88v-36.26Z"/></svg>