<?xml version="1.0" encoding="UTF-8"?>
<svg id="Layer_1" data-name="Layer 1" xmlns="http://www.w3.org/2000/svg" viewBox="0 0 500 500">
  <defs>
    <style>
      .cls-1 {
        fill: #fff;
      }

      .cls-2 {
        fill: #30426b;
      }

      .cls-3 {
        fill: #78758c;
      }

      .cls-4 {
        fill: #b52e31;
      }

      .cls-5 {
        fill: #e23237;
      }

      .cls-6 {
        fill: #a3edba;
      }

      .cls-7 {
        fill: #6699a1;
      }

      .cls-8 {
        fill: #8087e8;
      }
    </style>
  </defs>
  <g>
    <path class="cls-2" d="m219.75,247.97l9.27,51.37,4.26-.09,57.81-25.07,2.55-2.18-3.03-2.55-68.03-22.9-2.84,1.42Z"/>
    <g>
      <path class="cls-3" d="m219.75,247.97l-1.7-2.93-57.05-18.64-1.61,1.89-2.46.57-50.71,118.45.66,3.6,122.14-51.56,1.04-2.08-8.52-47.31-1.8-1.99h0Z"/>
      <path class="cls-6" d="m106.88,350.9l52.51-122.62-107.86-35.2,55.35,157.81Z"/>
      <path class="cls-8" d="m199.41,135l-40.02,93.29,60.36,19.68.28-.76-20.25-111.36-.38-.85Z"/>
      <path class="cls-7" d="m229.02,299.34l11.83,65.66,52.79-93-64.62,27.34h0Zm-29.61-164.34l20.34,112.97,73.89,24.03-94.23-137Z"/>
    </g>
  </g>
  <g>
    <path class="cls-5" d="m296.93,196.28l74.76-26.64,76.78,26.16-12.43,98.92-64.35,35.64-63.34-35.16-11.42-98.92Z"/>
    <path class="cls-4" d="m448.47,195.81l-76.78-26.16v160.72l64.35-35.58,12.43-98.97h0Z"/>
    <path class="cls-1" d="m371.81,188.41l-46.59,103.65,17.4-.3,9.35-23.38h41.79l10.24,23.68,16.63.3-48.84-103.95h0Zm.12,33.21l15.75,32.91h-29.6l13.85-32.91h0Z"/>
  </g>
</svg>