<?xml version="1.0" encoding="UTF-8"?><svg id="Layer_1" xmlns="http://www.w3.org/2000/svg" viewBox="0 0 500 500"><defs><style>.cls-1{fill:#ffcd56;}.cls-2{fill:#fd6183;isolation:isolate;opacity:.8;}.cls-3{fill:#36a1ea;}</style></defs><path class="cls-3" d="m397.64,251.26c-50.6.99-40.06,33.02-75.71,41.12-36.22,8.23-41.94-88.47-78.15-88.47s-44.24,93.93-89.59,158.41l-1.29,1.83,97.23,56.13,147.52-85.16v-83.85Z"/><path class="cls-1" d="m397.64,248.34c-16.94-21.74-28.43-46.73-53.14-46.73-43.74,0-32.23,71.35-80.57,71.35s-53.43-76.75-108.19-4.6c-17.45,22.99-31.5,48.62-42.53,72.88l136.91,79.04,147.52-85.16v-86.77Z"/><path class="cls-2" d="m102.59,277.9c16.6-45.96,23.76-83.19,55.45-83.19,48.34,0,59.85,135.8,101.29,121.99,41.43-13.81,36.83-87.47,101.29-87.47,12.27,0,24.8,7.52,37.03,19.67v86.21l-147.52,85.16-147.53-85.16v-57.21h0Z"/><path class="cls-1" d="m250,430.96l-156.73-90.48v-180.96l156.73-90.48,156.73,90.48v180.96l-156.73,90.48Zm-138.32-101.11l138.32,79.85,138.32-79.85v-159.7l-138.32-79.85-138.32,79.85v159.7Z"/></svg>