<?xml version="1.0" encoding="UTF-8"?><svg id="Layer_1" xmlns="http://www.w3.org/2000/svg" viewBox="0 0 500 500"><defs><style>.cls-1{fill:#894181;}</style></defs><polyline class="cls-1" points="234.78 216.22 265.22 216.22 272.78 205.82 272.78 124.28 227.22 124.28 227.22 205.82 234.78 216.22"/><polyline class="cls-1" points="215.16 252.6 224.57 223.65 217 213.24 139.45 188.04 125.38 231.37 202.94 256.57 215.16 252.6"/><polyline class="cls-1" points="243.69 282.5 219.06 264.6 206.83 268.58 158.9 334.55 195.75 361.33 243.68 295.35 243.68 282.5"/><polyline class="cls-1" points="280.94 264.6 256.31 282.49 256.32 295.36 304.24 361.33 341.1 334.55 293.16 268.58 280.94 264.6"/><polyline class="cls-1" points="275.43 223.64 284.84 252.59 297.07 256.56 374.62 231.37 360.55 188.04 282.99 213.24 275.43 223.64"/><path class="cls-1" d="m250.01,53.5c-108.35,0-196.5,88.13-196.5,196.47s88.15,196.53,196.5,196.53,196.48-88.16,196.48-196.53c0-108.34-88.14-196.47-196.48-196.47h0Zm0,39.78c86.52,0,156.69,70.14,156.69,156.69s-70.17,156.74-156.69,156.74-156.72-70.17-156.72-156.74S163.45,93.28,250.01,93.28"/><path class="cls-1" d="m369.02,293.64l-58.95-19.16,3.9-12.01,58.95,19.16-3.9,12.01m-75.18-94.65l-10.22-7.42,36.43-50.15,10.22,7.42-36.43,50.15m-87.03-.46l-36.43-50.15,10.22-7.42,36.43,50.15-10.22,7.42m-76.06,94.35l-3.9-12.01,58.95-19.15,3.9,12.01-58.95,19.15m112.56,82.35h12.62v-61.99h-12.62v61.99Z"/></svg>