<?xml version="1.0" encoding="UTF-8"?><svg id="Layer_1" xmlns="http://www.w3.org/2000/svg" viewBox="0 0 500 500"><defs><style>.cls-1{stroke:#d27a05;}.cls-1,.cls-2,.cls-3,.cls-4{fill:none;stroke-miterlimit:10;}.cls-1,.cls-2,.cls-4{stroke-width:4.38px;}.cls-2{stroke:#4f90cc;}.cls-3{stroke:#ed4035;stroke-width:6.57px;}.cls-4{stroke:#7abf43;}</style></defs><g><rect class="cls-3" x="255.18" y="186.59" width="179.39" height="14.95"/><rect class="cls-3" x="270.32" y="96.48" width="149.1" height="90.11"/><rect class="cls-3" x="280.59" y="106.75" width="128.57" height="79.84"/><rect class="cls-3" x="336.38" y="83.55" width="16.97" height="12.93"/><rect class="cls-3" x="336.38" y="201.54" width="16.97" height="38.61"/><g><polygon class="cls-3" points="306.67 242.33 294.95 242.33 316.32 201.54 328.03 201.54 306.67 242.33"/><polygon class="cls-3" points="383.07 242.33 394.79 242.33 373.43 201.54 361.71 201.54 383.07 242.33"/></g><g><path class="cls-3" d="m302.74,122.94c0,2.34-1.9,4.24-4.24,4.24s-4.24-1.9-4.24-4.24,1.9-4.24,4.24-4.24,4.24,1.9,4.24,4.24Z"/><path class="cls-3" d="m395.48,122.94c0,2.34-1.9,4.24-4.24,4.24s-4.24-1.9-4.24-4.24,1.9-4.24,4.24-4.24,4.24,1.9,4.24,4.24Z"/></g><g><path class="cls-3" d="m316.76,142.41v21.13c0,3.88-3.15,7.03-7.03,7.03s-7.03-3.15-7.03-7.03v-23.84"/><path class="cls-3" d="m344.87,164.78v3.85c0,3.88-3.15,7.03-7.03,7.03s-7.03-3.15-7.03-7.03v-38.65c0-3.88-3.15-7.03-7.03-7.03s-7.03,3.15-7.03,7.03v6.11"/><line class="cls-3" x1="387.04" y1="159.95" x2="387.04" y2="173.78"/><path class="cls-3" d="m344.87,151.39v-10.84c0-3.88,3.15-7.03,7.03-7.03s7.03,3.14,7.03,7.03v18.99c0,3.88,3.15,7.03,7.03,7.03s7.03-3.15,7.03-7.03v-10.43c0-3.88,3.15-7.03,7.03-7.03s7.03,3.15,7.03,7.03"/></g><line class="cls-3" x1="344.87" y1="170.57" x2="344.87" y2="158.63"/></g><g><path class="cls-1" d="m242.81,405.62c0-6.62-5.36-11.98-11.98-11.98H77.42c-6.62,0-11.98,5.36-11.98,11.98v7.22h177.37v-7.22Z"/><rect class="cls-1" x="77.9" y="302.44" width="152.45" height="91.2"/><path class="cls-1" d="m200.2,393.64c0,4.42-3.58,8-8,8h-76.16c-4.42,0-8-3.58-8-8h92.16Z"/><polyline class="cls-1" points="94.07 335.27 94.07 384.3 84.91 384.3 84.91 334.65"/><line class="cls-1" x1="116.83" y1="312.49" x2="230.35" y2="312.49"/><line class="cls-1" x1="204.6" y1="312.49" x2="204.6" y2="393.64"/><line class="cls-1" x1="204.6" y1="325.82" x2="230.35" y2="325.82"/><line class="cls-1" x1="204.6" y1="335.43" x2="230.35" y2="335.43"/><line class="cls-1" x1="204.6" y1="365.09" x2="230.35" y2="365.09"/><polyline class="cls-1" points="102.98 332.59 102.98 384.3 197.45 384.3 197.45 319.32 115.11 319.32"/><g><path class="cls-1" d="m150.22,349.52c0,6.42-5.21,11.63-11.63,11.63s-11.64-5.21-11.64-11.63"/><path class="cls-1" d="m150.22,349.52c0-6.43,5.21-11.63,11.63-11.63s11.64,5.21,11.64,11.63"/></g><polyline class="cls-1" points="148.65 355.33 153.12 367.74 144.19 367.74 148.65 355.33"/><rect class="cls-1" x="146.94" y="367.74" width="3.67" height="6.73"/></g><g><g><path class="cls-2" d="m298.91,354.64c0-34.04,27.6-61.63,61.64-61.63s61.63,27.59,61.63,61.63"/><line class="cls-2" x1="422.18" y1="293.01" x2="298.91" y2="293.01"/><path class="cls-2" d="m302.74,292.35c0,1.75-1.42,3.16-3.16,3.16s-3.16-1.42-3.16-3.16,1.42-3.16,3.16-3.16,3.16,1.42,3.16,3.16Z"/><path class="cls-2" d="m425.35,292.35c0,1.75-1.42,3.16-3.16,3.16s-3.16-1.42-3.16-3.16,1.42-3.16,3.16-3.16,3.16,1.42,3.16,3.16Z"/><rect class="cls-2" x="356.73" y="289.19" width="7.64" height="7.64"/><rect class="cls-2" x="295.09" y="350.82" width="7.64" height="7.64"/><rect class="cls-2" x="418.37" y="350.82" width="7.64" height="7.64"/></g><path class="cls-2" d="m350.49,402.51c-.37-9.74-2.46-26.16-27.86-34.66,25.41-9.38,37.92-44.02,37.92-60.24h0"/><path class="cls-2" d="m370.61,402.51c.37-9.74,2.46-26.16,27.86-34.66-25.4-9.38-37.92-44.02-37.92-60.24h0"/><path class="cls-2" d="m361.19,396.06h-1.27c-5.11,0-9.63,4.12-10.1,9.2l-1.78,19.02h25.04l-1.78-19.02c-.48-5.08-5-9.2-10.1-9.2Z"/><line class="cls-2" x1="360.55" y1="307.6" x2="360.55" y2="371.34"/><path class="cls-2" d="m363.71,371.34c0,1.75-1.42,3.16-3.16,3.16s-3.16-1.42-3.16-3.16,1.42-3.16,3.16-3.16,3.16,1.42,3.16,3.16Z"/></g><g><rect class="cls-4" x="89.39" y="151.44" width="97.38" height="86.73"/><path class="cls-4" d="m194.39,144.57c0,3.8-3.08,6.88-6.88,6.88h-98.86c-3.8,0-6.88-3.08-6.88-6.88,0-3.8,3.08-6.88,6.88-6.88h98.86c3.8,0,6.88,3.08,6.88,6.88Z"/><path class="cls-4" d="m194.39,245.06c0,3.8-3.08,6.88-6.88,6.88h-98.86c-3.8,0-6.88-3.08-6.88-6.88,0-3.8,3.08-6.88,6.88-6.88h98.86c3.8,0,6.88,3.08,6.88,6.88Z"/><line class="cls-4" x1="89.39" y1="214.47" x2="122.61" y2="238.18"/><line class="cls-4" x1="89.39" y1="182.92" x2="167.46" y2="238.18"/><line class="cls-4" x1="89.39" y1="151.44" x2="186.77" y2="220.57"/><line class="cls-4" x1="89.39" y1="205.17" x2="127.54" y2="151.44"/><line class="cls-4" x1="96.92" y1="238.18" x2="158.49" y2="151.44"/><line class="cls-4" x1="127.88" y1="238.18" x2="186.77" y2="155.22"/><line class="cls-4" x1="158.84" y1="238.18" x2="186.77" y2="198.83"/><line class="cls-4" x1="134.42" y1="151.44" x2="186.77" y2="188.97"/><g><rect class="cls-4" x="100.31" y="75.72" width="32.08" height="61.96"/><rect class="cls-4" x="91.23" y="75.72" width="9.08" height="41.14"/><line class="cls-4" x1="100.31" y1="124.04" x2="132.39" y2="124.04"/></g><polygon class="cls-4" points="180.28 137.69 148.2 137.69 148.2 108.07 164.24 75.72 164.24 75.72 180.28 108.07 180.28 137.69"/><line class="cls-4" x1="148.2" y1="137.69" x2="148.2" y2="108.07"/><path class="cls-4" d="m150.31,103.82c.9-.68,2.02-1.09,3.23-1.09,2.95,0,5.34,2.39,5.34,5.34v24.38"/><line class="cls-4" x1="169.58" y1="112.87" x2="169.58" y2="137.69"/><path class="cls-4" d="m158.9,108.07c0-2.95,2.39-5.34,5.34-5.34s5.34,2.39,5.34,5.34"/><path class="cls-4" d="m169.6,108.07c0-2.95,2.39-5.34,5.34-5.34,1.22,0,2.34.41,3.24,1.09"/><line class="cls-4" x1="180.28" y1="108.07" x2="180.28" y2="137.69"/><line class="cls-4" x1="157.89" y1="88.52" x2="170.59" y2="88.52"/></g></svg>