<?xml version="1.0" encoding="UTF-8"?><svg id="Layer_1" xmlns="http://www.w3.org/2000/svg" viewBox="0 0 500 500"><defs><style>.cls-1{stroke:#e4d0ad;stroke-width:1.36px;}.cls-1,.cls-2{fill:#fff7ee;}.cls-1,.cls-3{stroke-linecap:round;stroke-linejoin:round;}.cls-4,.cls-5,.cls-6{fill:#fff;}.cls-7{fill:#f28088;}.cls-8,.cls-9,.cls-10,.cls-5,.cls-11,.cls-12,.cls-13,.cls-14,.cls-15,.cls-16,.cls-6,.cls-17,.cls-18{isolation:isolate;}.cls-8,.cls-9,.cls-11,.cls-16{opacity:.5;}.cls-8,.cls-13,.cls-18{fill:#c6883e;}.cls-9{stroke:#333;stroke-width:1.82px;}.cls-9,.cls-19{fill:none;}.cls-20{fill:#e4bea0;}.cls-21{stroke:#f28088;}.cls-21,.cls-11,.cls-15,.cls-17,.cls-22{fill:#f7b0aa;}.cls-21,.cls-3{stroke-width:.91px;}.cls-23{fill:#fdf5e3;}.cls-10,.cls-5{opacity:.3;}.cls-10,.cls-24{fill:#333;}.cls-25{fill:#ffcf84;}.cls-12{opacity:.1;}.cls-12,.cls-26{fill:#cfdcdb;}.cls-13{opacity:.15;}.cls-14{fill:#f5e7cf;}.cls-14,.cls-15,.cls-6,.cls-18{opacity:.25;}.cls-27{fill:gray;}.cls-16{fill:#d6c9b1;}.cls-28{fill:#885c2f;}.cls-29,.cls-3{fill:#b98349;}.cls-30{fill:#e14c32;}.cls-17{opacity:.4;}.cls-31{fill:#e4d0ad;}.cls-32{fill:#e9dbbd;}.cls-33{fill:#1a1a1a;}.cls-3{stroke:#885c2f;}.cls-34{fill:#010101;}</style></defs><path class="cls-4" d="m145.34,348.06l.95-2.23.12-.32c.76-1.81,1.49-3.63,2.19-5.46.94-2.42,1.77-4.86,2.71-7.23.51-1.38,1.01-2.76,1.52-4.12,1.2-3.27,2.85-7.64,4.84-11.85,1.18-2.46,2.16-4.3,3.17-5.99,1.01-1.7,2.33-3.68,3.54-5.43l1.1-1.49,1.54-.97c.23-.15.46-.3.71-.42.71-.4,1.44-.74,2.19-1.04,1.08-.44,2.35-.88,3.85-1.34,2.1-.62,4.42-1.2,7.3-1.77,4.1-.9,8.65-1.77,14.31-2.62,8.47-1.34,17.5-2.53,28.45-3.73,19.29-2.09,38.48-3.54,57.03-4.53,9.81-.46,17.33-.67,24.37-.67h4.44c5,.02,9.99.34,14.94.97,1.57.22,3.11.58,4.62,1.08.46.16.85.34,1.1.44l1.45.65,1.15,1.08c.48.44.96.88,1.41,1.36,1.83,1.83,3.55,3.78,5.15,5.82,6.07,7.92,11.19,16.52,15.24,25.64,3.92,8.32,6.83,17.08,8.66,26.1l2.19,11.51h-27.2l-1.63-7.67c-1.77-8.35-24.26-30.33-35.45-34.66-1.13-.42-5.96-1.77-20.67-1.77-30.33,0-73.36,5.39-79.57,6.68-7.25,3.38-18.5,17.82-24.88,32.04l-2.62,5.85"/><path class="cls-29" d="m331.8,304.38c-1.37-1.75-2.84-3.42-4.4-5l-1.11-1.06-.28-.11c-.9-.29-1.82-.5-2.76-.62-4.52-.57-9.07-.86-13.63-.87-9.34-.12-18.76.18-28.17.62-18.83.92-37.68,2.44-56.44,4.49-9.37,1.03-18.73,2.19-27.99,3.66-4.61.73-9.23,1.52-13.74,2.51-2.25.48-4.47,1.01-6.58,1.64-.99.29-1.97.62-2.94,1.01-.39.15-.77.33-1.13.53l-.18.11c-1.1,1.49-2.13,3.03-3.09,4.61-.97,1.59-1.87,3.4-2.72,5.18-1.68,3.54-3.13,7.29-4.53,11.07-1.4,3.78-2.76,7.62-4.26,11.44-.73,1.91-1.49,3.24-2.28,5.15-.37.9-.76,2.12-1.15,2.12h12.71c6.88-15.91,19.79-32.32,30.63-36.74,2.99-1.22,51.03-6.91,82.79-6.91,11.78,0,19.93.42,24.24,2.1,13.01,5.02,38.9,29.18,41.57,41.55h7.37c-1.59-8.14-4.25-16.03-7.92-23.46-3.73-8.21-8.43-15.94-14-23.02h0Z"/><path class="cls-4" d="m326.18,298.23l-.02-.02-.02-.02.06.06-.02-.02Z"/><path class="cls-29" d="m326.18,298.23l-.02-.02-.02-.02.06.06-.02-.02Z"/><path class="cls-4" d="m345.45,361.48l-1.52-7.85c-1.54-7.49-3.97-14.78-7.23-21.7-3.39-7.64-7.67-14.86-12.75-21.5-.94-1.17-1.77-2.19-2.72-3.15-3.95-.44-7.91-.67-11.88-.67h-4.03c-6.72,0-13.95.19-23.41.64-18.16.9-36.94,2.39-55.82,4.44-10.61,1.18-19.36,2.32-27.53,3.54-5.3.83-9.46,1.59-13.17,2.4-1.97.42-3.92.9-5.85,1.45l-.62.19c-.35.57-.71,1.11-1.06,1.77-.67,1.15-1.4,2.49-2.3,4.37-1.61,3.4-2.99,7.07-4.14,10.19-.51,1.38-1.01,2.71-1.49,4.05-.9,2.48-1.77,5.02-2.85,7.6-.76,1.94-1.56,3.96-2.39,5.91l-.11.28c-.35.85-.72,1.49-1.1,2.35l-2.58,5.69h-17.43l-2.49-1.01h-.27c-4.02-1.91-6.36-6.19-5.78-10.61v-.44l.32-1.34.42-1.63c.3-1.1.61-2.2.94-3.29.64-2.21,1.31-4.31,2.02-6.37,1.33-3.94,2.94-8.05,4.9-12.5,1.96-4.46,4.09-8.61,6.19-12.38,1.16-2.09,2.4-4.14,3.71-6.14,1.43-2.19,2.83-4.19,4.37-6.14.97-1.24,2.1-2.34,3.38-3.27.72-.52,1.47-1,2.25-1.43,1.03-.56,2.09-1.05,3.18-1.49,1.54-.62,3.11-1.15,4.7-1.61,3.01-.88,5.82-1.5,7.96-1.96,4.35-.9,8.84-1.77,14.8-2.6,8.61-1.31,17.68-2.44,28.88-3.54,19.45-2,38.9-3.41,57.57-4.21,8.97-.37,15.91-.53,22.4-.53h6.88c5.42.03,10.84.4,16.21,1.13h.18c1.96.3,3.89.77,5.76,1.41h.12c.86.31,1.7.68,2.51,1.11.61.34,1.2.71,1.77,1.11l.72.53.57.46.58.53c.57.53,1.13,1.06,1.66,1.61,2.03,2.07,3.94,4.26,5.73,6.54,6.41,8.45,11.79,17.64,16.04,27.35,2.15,4.79,4.03,9.7,5.64,14.69,1.58,4.79,2.8,9.7,3.64,14.68l1.86,11.26-27.34.04h0Z"/><path class="cls-4" d="m154.87,361.48l6.68-13.88c5.55-11.83,18.88-33.33,33.6-39.36h.28c4.97-1.86,54.82-7.6,85.14-7.6,17.06,0,23.43,1.77,26.74,2.99,15.38,5.92,42.08,31.01,45.69,45.89l2.97,12.02-201.1-.05h0Z"/><path class="cls-4" d="m335.57,361.48l-1.77-7.34c-1.77-6.99-22.72-28.01-33.6-32.2-1.01-.39-5.3-1.59-19.61-1.59-29.32,0-71.56,5.2-78.47,6.54-5.69,2.83-15.91,14.73-22.65,29.11l-2.72,5.48h-24.91l6.28-13.74c7.34-16.37,21.71-36.51,35.89-42.31,5.46-2.25,55.97-7.89,86.54-7.89,13.33,0,22.17,1.04,27.81,3.22,15.33,5.92,44.12,31.83,47.74,49.02l2.46,11.71h-22.99Z"/><path class="cls-4" d="m346.95,361.48l-2.85-2.42c-10.77-10.01-13.72-30.59-10.36-39.13,1.85-5.62,7.79-8.79,13.49-7.2,1.89-.12,6.44-3.8,7.78-6.01,2.15-4.01,6.4-6.44,10.95-6.26,7.34,0,19.2,5.82,23.09,11.32,2.18,2.93,2.77,6.75,1.59,10.2-.11.28-.28.87-.57,1.66-4.03,12.11-9.23,26.67-13.49,33.44l-2.85,4.4h-26.79,0Z"/><path class="cls-4" d="m346.05,361.48l9.23-14.85c3.59-5.72,6.8-11.67,9.62-17.81-5.22,3.64-12.55,6.08-23.38,6.56l-.3-.21-.19,1.01c-6.71-.1-12.07-5.62-11.97-12.33.04-2.94,1.15-5.77,3.12-7.95,2.12-2.35,5.08-3.75,8.24-3.89,10.61-.48,11.99-2.99,13.99-6.77,2.71-5.07,8.56-8.01,16.07-8.01,1.9,0,3.79.19,5.64.6,9.01,1.66,15.63,9.38,15.91,18.53.42,9.44-4.7,22.99-15.24,40.53l-2.88,4.6h-27.87,0Z"/><path class="cls-4" d="m385.38,332.55c-12.08,0-25.21-7.87-31.95-15.63-6.14-7.07-6.74-13.3-6.17-17.29.85-5.93,6.1-10.21,12.08-9.87,1.29.02,2.58.14,3.85.35,1.18-5.3,4.01-16.5,15.45-16.5.52-.03,1.04-.03,1.56,0,5.34.46,9.85,4.16,11.35,9.3,1.93-1.02,4.09-1.56,6.28-1.56,3.62.02,7.07,1.56,9.51,4.24,4.04,4.28,5.01,10.62,2.42,15.91,2.75,1.7,4.76,4.37,5.64,7.48,1.24,4.25.4,8.84-2.26,12.38-5.3,7.23-17.28,10.77-26.89,11.09l-.87.09Zm-12.02-245.73c-10.93,6.84-22.86,22.55-37.4,44.03-2.29,3.39-6.15,5.38-10.24,5.3-5.39,0-12.17-3.24-20.09-9.62-12.57-10.11-12.84-15.91-12.94-17.98-.3-6.05,4.28-11.24,10.33-11.67,12.08-1.13,22.09-8.36,31.83-15.35,9.74-6.98,18.71-13.49,29.42-13.49,2.14,0,4.28.27,6.35.81"/><path class="cls-2" d="m304,106.73c29.21-2.72,46.29-33,64.1-28.29-11.88,7.43-23.77,22.35-40.33,46.86-3.91,5.75-31.72-17.82-23.76-18.57h0Z"/><path class="cls-4" d="m114.61,92.7c7.28-6.74,17.15-10.15,29.3-10.15,10.47,0,22.83,2.56,36.74,7.62,4.02,1.18,8.2,1.7,12.38,1.54h5.41c3.54,0,10.8,0,13.81,6.77,1.96,4.62,1.33,9.92-1.66,13.95-4.83,7.57-17.86,15.63-30.33,15.63h-.6c-6.7,0-13.01-3.54-20.33-7.69-9.12-5.09-19.45-10.86-31.6-10.86-1.7,0-3.39.11-5.07.34m216.93,55.35c-5.41,0-15.45-2.25-22.01-17.4-2.99-7.06-4.62-14.63-4.79-22.3,0-10.61,5.53-13.33,8.84-14.15,2.39-2.42,6.86-8.47,10.24-13.03,13.7-18.44,23.5-30.56,34.9-30.56,1.89,0,3.76.35,5.52,1.04,15.42,6.17,22.81,19.1,20.28,35.47-1.77,12.09-9.35,26.52-20.6,39.5-5.3,6.1-18.85,20.42-30.82,21.33l-1.56.09h0Z"/><path class="cls-4" d="m163.32,170.51c-1.29.11-2.6.11-3.89,0-19.1-3.11-42.93-22.32-51.93-42.16-6.15-13.56-3.39-22.79,0-28.2,4.94-8.44,14.06-13.56,23.84-13.39,12.16,0,24.42,6.7,35.22,12.61,4.1,2.18,10.13,5.54,12.68,6.15.94-.28,1.91-.42,2.88-.44,3.97.08,7.59,2.28,9.49,5.76,4.95,8.61,1.96,31.7-5.82,45.2-5.41,9.5-13.44,14.46-22.47,14.46h0Z"/><path class="cls-4" d="m229.77,336.72c-44.79,0-89.03-21.75-103.74-37.63-15.37-16.59-20.97-35.26-16.67-55.75,3.54-16.83,12.93-31.93,21.22-45.32,5.71-9.19,11.1-17.88,12.52-24.12,18.2-80.37,63.85-90.66,101.57-90.66,2.4,0,4.93,0,7.71.12,80.35,2.42,88.41,41.24,93.17,64.44.64,3.75,1.59,7.45,2.83,11.05,26.97,66.26,31.4,105.95,14.89,132.78-16.23,26.36-51.86,39.2-122.93,44.93-3.54.27-7.07.16-10.61.16h.05,0Z"/><path class="cls-19" d="m152.71,176.11c-6.28,27.73-61.06,71.61-19.45,116.51,14.15,15.28,61.22,37.95,106.27,34.32,122.01-9.83,150.16-40.26,99.66-164.36-8.2-20.18.99-66.66-87.12-69.3-36.97-1.11-81.46,3.96-99.36,82.82h0Z"/><path class="cls-4" d="m228.11,337.38c-45.6,0-87.86-22.7-102.08-38.03-15.37-16.59-20.97-35.37-16.67-55.88,3.54-16.83,12.93-31.99,21.22-45.37,5.71-9.21,11.1-17.91,12.52-24.15,18.2-80.37,63.85-90.68,101.57-90.68,2.4,0,4.93,0,7.71.12,80.35,2.4,88.41,41.22,93.17,64.42.64,3.75,1.59,7.45,2.83,11.05,26.52,65.21,30.91,104.5,14.61,131.38-18.69,30.82-62.51,40.9-122.52,46.56-4,.39-8.17.58-12.34.58h0Z"/><path class="cls-4" d="m344.25,281.31c.57-1.42,1.16-2.82,1.77-4.23,6.17-14.68,10.61-27.48,3.36-35.59-8.63-9.57-45.3-26.77-77.66-42.1-62.17-29.32-100.56-48.24-106.09-67.19-1.45-4.67-.8-9.73,1.77-13.88,10.61-16.82,40.67-34.91,81.64-34.91h1.24c38.57.34,66.68,11.46,83.55,33.03,14.25,18.23,17.49,39.48,19.84,54.99.81,5.3,1.77,11.88,2.85,13.69,29.25,50.27,15.91,87.33,5.3,104.95l-17.56-8.75h0Z"/><path class="cls-19" d="m175.86,123.65c-16.07,25.48,156.45,84.08,180.86,111.2,13.37,14.85,2.32,36.3-3.29,50.16,5.2-8.66,24.58-43.39-5.31-94.88-9.6-16.5,5.3-95.87-97.77-96.78-39.7-.35-66.26,17.26-74.5,30.29h0Z"/><path class="cls-4" d="m313.71,223.56c-15.08,0-40.24-3.75-48.98-12.1-6.84-6.54-9.48-17.35-12.01-27.9-1.1-5.06-2.61-10.01-4.53-14.82h-.14c-.64,1.77-1.36,3.54-1.96,5.3-4.08,11.39-9.65,26.97-21.52,35.36-5.11,3.66-23.36,7.07-37.54,7.07s-24.88-3.08-32.01-9.11c-10.27-8.68-18.11-24.63-23.27-47.37l-.71-.46c-3.01-1.64-5.5-4.09-7.2-7.07-2.69-5.39-1.59-14.98,1.2-19.96,1.9-3.63,5.49-6.05,9.57-6.45h1.25c2.22.08,4.43.34,6.61.78,2.48.49,5,.8,7.53.9.45.03.9.03,1.34,0,13.09-2,26.31-3.07,39.56-3.2,29.41,0,44.84,6.03,50.64,8.29l1.17.44c2.63.65,5.32.99,8.03,1.01,1.18,0,2.37-.08,3.54-.25,12.44-1.95,25.02-2.96,37.61-3.04,31.03,0,47.49,7.07,54.53,10.11l1.56.65h.6c2.42-.16,4.83-.54,7.18-1.13,1.86-.41,3.63-.78,5.3-.97.46-.06.93-.09,1.4-.09,4.82.09,9.19,2.86,11.32,7.2,2.83,5.18,4.74,16.13.76,22.39-2.65,4.17-7.07,6.15-10.61,7.75l-1.5.69c-1.18,2.03-3.31,6.24-5.07,9.73-5.18,10.24-11.03,21.82-16.43,28.06-4.7,5.5-13.62,8.19-27.23,8.19h0Z"/><path class="cls-5" d="m307.7,221.04c-11.95,0-28.73-1.77-40.83-10.31-6.93-4.86-10.04-14.8-14.36-30.57-1.19-4.72-2.63-9.38-4.31-13.95-.76,1.77-1.63,4.17-2.35,6.1-4.49,12.02-10.61,28.5-21.78,35.36-5.75,3.54-23.78,6.81-37.82,6.81-15.03,0-25.87-3.36-32.2-9.97-15.91-16.69-19.13-32.64-21.01-42.15-.27-1.36-.6-3.08-.9-4.24-9.37-4.92-9.99-12.25-9.8-15.31.25-5.62,4.86-10.07,10.49-10.13,2.87.11,5.62,1.15,7.83,2.97l.55.37.8.25c5.71,1.29,10.03,5.97,10.87,11.76,1.7,7.22,3.89,14.31,6.58,21.22,6.19,15.91,10.5,18.66,10.87,18.87,5.71,1.83,11.68,2.72,17.68,2.62,8.11.01,16.18-1.18,23.94-3.54,2.21-3.54,6.7-12.38,9.81-18.53,9.46-18.69,11.07-21.52,14.99-23.57,2.57-1.26,5.41-1.87,8.28-1.77,4.75.05,9.46.87,13.95,2.44,6.9,2.92,10.61,11.94,18.46,35.05,1.41,4.16,3.27,9.57,4.39,12.38,5.94,2.86,19.45,4.84,33.76,4.84,4.03,0,6.97-.16,8.84-.34,1.34-2.78,3.25-6.83,4.9-10.31,11.44-24.28,13.16-27.04,16.14-29.32,5.47-3.73,11.85-5.89,18.46-6.26,5.28-.29,9.97,3.35,11,8.54,1.59,8.72-6.84,11.94-9.6,13-.67.25-1.77.67-2.51,1.01-1.03,1.77-2.94,5.61-4.54,8.84-12.18,23.89-16.29,30.41-20.9,33.17-5.48,3.18-19.24,4.69-29.67,4.69h0Z"/><path class="cls-5" d="m150.57,150.42c-4.15-.19-8.24-1.06-12.11-2.56-1.87-.62-3.34-1.2-4.35-1.59-2.19-.85-7.92-3.08-7.92-9.92v-10.04h9.71c1,.02,2,.19,2.95.51,2.07.3,8.84.81,11.09.97l1.31.11c1.77,0,7.28-.74,9.65-1.1,1.66-.29,3.34-.46,5.02-.5h8.56l1.33,8.42c.72,4.96-2.35,9.68-7.18,11.03l-2.21.76c-4.77,2.01-9.81,3.34-14.96,3.94l-.88-.04h0Zm197.03,14.36c-4.22-.28-8.25-1.84-11.56-4.47-4.3-3.01-8.28-5.91-8.28-11.16v-9.88h10.38c1.48,0,2.94.29,4.31.85,1.11.48,5.3,1.77,7.07,2.19.6-.09,1.91-.6,4.28-1.1,1.01-.36,2.05-.6,3.11-.73h8.42l1.36,8.63c.81,4.86-2.03,9.59-6.7,11.16-.35.14-1.25.67-1.77.97-2.75,1.59-5.74,2.74-8.84,3.41-.59.09-1.19.13-1.79.12h0Z"/><path class="cls-4" d="m278.26,350.87h35.36v31.83h-35.36v-31.83Z"/><path class="cls-29" d="m331.8,304.38c-1.37-1.75-2.84-3.42-4.4-5l-1.11-1.06-.28-.11c-.9-.29-1.82-.5-2.76-.62-4.52-.57-9.07-.86-13.63-.87-9.34-.12-18.76.18-28.17.62-18.83.92-37.68,2.44-56.44,4.49-9.37,1.03-18.73,2.19-27.99,3.66-4.61.73-9.23,1.52-13.74,2.51-2.25.48-4.47,1.01-6.58,1.64-.99.29-1.97.62-2.94,1.01-.39.15-.77.33-1.13.53l-.18.11c-1.1,1.49-2.13,3.03-3.09,4.61-.97,1.59-1.87,3.4-2.72,5.18-1.68,3.54-3.13,7.29-4.53,11.07-1.4,3.78-2.76,7.62-4.26,11.44-.73,1.91-1.49,3.24-2.28,5.15-.37.9-.76,2.12-1.15,2.12h12.71c6.88-15.91,19.79-32.32,30.63-36.74,2.99-1.22,51.03-6.91,82.79-6.91,11.78,0,19.93.42,24.24,2.1,13.01,5.02,38.9,29.18,41.57,41.55h7.37c-1.59-8.14-4.25-16.03-7.92-23.46-3.73-8.21-8.43-15.94-14-23.02h0Zm-5.62-6.15l-.02-.02-.02-.02.06.06-.02-.02Z"/><path class="cls-28" d="m352.63,324.91c-3.92-8.99-8.89-17.49-14.8-25.32-1.54-1.99-3.2-3.89-4.97-5.69l-1.4-1.34-.27-.25-.19-.16-.28-.21c-.26-.18-.52-.34-.8-.5-.43-.21-.86-.4-1.31-.57-1.35-.46-2.74-.79-4.16-.99-4.88-.66-9.79-1.01-14.71-1.04-9.62-.19-19.15,0-28.68.44-19.02.81-38.02,2.2-56.96,4.16-9.48.99-18.94,2.1-28.42,3.54-4.74.72-9.46,1.52-14.15,2.51-2.39.51-4.77,1.06-7.23,1.77-1.27.37-2.53.79-3.77,1.27-.71.29-1.41.62-2.09.99-.42.23-.83.48-1.22.76-.57.42-1.08.91-1.52,1.47-1.37,1.7-2.64,3.47-3.82,5.3-1.2,1.77-2.35,3.71-3.39,5.61-2.26,3.94-4.03,7.78-5.8,11.65-1.77,3.87-3.25,7.76-4.6,11.72-.67,1.97-1.29,3.96-1.87,5.96-.3,1-.58,2-.85,3.01l-.41,1.5-.18.76c0,.12.25-.25.87.11l.16-.5h8.65c.39,0,.78-1.22,1.15-2.12.8-1.91,1.56-3.54,2.28-5.43,1.5-3.82,2.85-7.52,4.26-11.3,1.42-3.78,2.85-7.44,4.53-11,.85-1.77,1.77-3.54,2.72-5.15.96-1.61,1.98-3.09,3.09-4.6l.18-.09c.37-.2.74-.38,1.13-.53.96-.39,1.94-.73,2.93-1.01,2.1-.64,4.33-1.17,6.58-1.64,4.51-.99,9.12-1.77,13.74-2.51,9.27-1.47,18.62-2.63,27.99-3.66,18.76-2.05,37.61-3.54,56.44-4.49,9.41-.44,18.83-.74,28.17-.62,4.56,0,9.11.29,13.63.87.94.12,1.86.33,2.76.62l.28.11,1.11,1.06c1.56,1.58,3.03,3.25,4.4,5,5.57,7.07,10.28,14.79,14,22.99,3.65,7.45,6.29,15.35,7.85,23.5h7.43c-.74-3.54-1.89-8.52-3.29-12.89-1.49-4.45-3.24-8.82-5.23-13.07h0Z"/><path class="cls-2" d="m303.72,312.23c-3.98-1.54-11.78-2.02-23.18-2.02-31.95,0-79.09,5.61-81.68,6.58-9.69,4.01-21.75,19.93-28.47,34.07h172.9c-2.65-10.61-26.7-33.6-39.57-38.64h0Z"/><path class="cls-31" d="m304.78,309.46c-4.31-1.77-12.47-2.25-24.24-2.25-31.83,0-79.8,5.53-82.79,6.76-10.84,4.44-23.82,20.99-30.63,36.9h3.27c6.67-14.15,18.73-29.97,28.42-33.93,2.58-.97,49.72-6.72,81.68-6.72,11.4,0,19.2.34,23.18,1.87,12.87,4.97,36.92,28.17,39.63,38.78h3.01c-2.62-12.38-28.5-36.39-41.52-41.41h0Z"/><path class="cls-29" d="m363.82,311.26c-1.77,3.63-11.21,12.75-19.15,10.49-4.16-1.18-3.39,20.28,6.17,29.12h17.36c4.77-7.07,12.25-30.34,13.1-32.75.99-2.81-15.68-10.49-17.49-6.86h0Z"/><path class="cls-28" d="m382.21,316.21c-.21-4.79-3.2-7.9-8.21-9.04-4.03-.9-9.44,0-10.79,2.53-2.65,5.02-5.96,11.33-22.3,12.04-1.1.07-1.94,1-1.89,2.1.05,1.09.96,1.94,2.05,1.91,17.06-.74,22.01-7.27,25.57-13.95,2.57-1.02,5.44-1.02,8.01,0,2.09.53,3.55,2.42,3.54,4.58.42,9.28-9.23,25.64-14.54,34.48h4.77c5.91-10.61,14.15-25.11,13.77-34.66h0Z"/><path class="cls-13" d="m348.63,352.51c10.61-2.48,19.96-13.03,20.79-28.29.16-2.81-5.61-8.24-5.61-9.73s17.82.32,18.64,4.46c.81,4.14-11.05,29.37-15.01,33.49-3.96,4.12-24.98,1.52-18.81.07h0Z"/><path class="cls-21" d="m357.05,301.04c-1.33,9.16,16.69,22,28.88,21.54,10.24-.34,21.62-5.11,19.96-10.72-1.66-5.61-11.55.99-12.38-2.97-.83-3.96,11.56-11.23,6.61-16.52-4.58-4.86-9.9,7.76-15.35,5.94-5.45-1.82,1.06-14.15-5.61-14.85-7.92-.81-4.95,16.83-10.89,17.17-4.3.3-10.8-2.62-11.23.41h0Z"/><path class="cls-11" d="m362.11,300.99c1.96,1.45,8.84,3.43,10.04.87,1.2-2.56,2.14-7.55,1.33-8.29-.55,2.35-1.31,6.83-3.93,7.82-2,.78-6.06-.16-7.44-.39h0Zm19.33-9.9c-.35,1.64-1.61,9.37,2.32,10.45,3.54.94,5.98-1.17,8.65-5.57-1.43,1.4-5.15,4.6-8.12,3.34-2.97-1.26-3.08-4.26-2.85-8.22h0Z"/><path class="cls-15" d="m364.02,311.97c20.3-9.9,24.44,6.22,23.45,9.53-7.92,1.4-22.21-6.9-23.45-9.53Z"/><path class="cls-11" d="m393.6,305.58c-3.54,3.91-1.77,7.07.46,7.41,2.92.55,6.47-2.32,6.01-2.35-.8,0-6.28,1.87-7.34-.87-.8-2.07.46-3.25.87-4.19Z"/><path class="cls-13" d="m162.01,331.56c65.09,37.38,194.51-.55,187.61-12.87-9.07-16.16-12.7-26.52-32.62-25.45-19.93,1.08-147.52,11.14-152.72,15.1-5.2,3.96-10.79,18.32-2.26,23.22h0Z"/><path class="cls-1" d="m304,106.73c29.21-2.72,46.29-33,64.1-28.29-11.88,7.43-23.77,22.35-40.33,46.86-3.91,5.75-31.72-17.82-23.76-18.57h0Z"/><path class="cls-3" d="m121.32,100.04c13.21-12.2,36.8-7.44,55.95-.5,10.89,3.96,25,.74,25.99,2.97,2.33,5.3-11.76,15.91-23.39,15.72-11.64-.19-30.82-21.91-58.55-18.19Z"/><path class="cls-21" d="m324.05,121.09c6.68,1.98,32.16-48.02,44.54-43.07,39.38,15.76-11.88,76.03-28.29,77.24-16.41,1.2-20.09-35.29-16.25-34.16h0Zm-142.33-5.94c-10.89,4.7-49.51-35.65-65.85-9.65-10.75,17.12,21.79,51.74,45.06,55.45,23.27,3.71,26.54-48.27,20.79-45.8Z"/><path class="cls-22" d="m354.41,87.67c-2.16,6.84-19.72,24.6-17.24,39.86.9,5.61,6.91,22.35,9.48,21.7,2.56-.65,9-4.62,8.42-3.71-3.74,3.29-7.81,6.19-12.13,8.66-3.04-1.64-16.43-32.45-14.52-34.16,5.69-5.11,23.52-32.01,25.99-32.34h0Zm-237.95,18.81c11.88-7.27,33.6-4.21,46.29,8.17,4.49,4.4,5.76,19.45-4.39,29.62-4.01,4.07,23.92-14.43,24.01-19.73.09-5.3-1.77-6.88-5.94-8.42-15.33-5.73-31.46-18.71-45.46-18.42-6.08.07-11.64,3.43-14.52,8.79h0Z"/><path class="cls-15" d="m359.19,83.86c27.11,14.98-16.57,37.63-13.37,65.85-5.68-.62-19.68-27.92-16.2-30.33,4.83-3.38,25.02-36.81,29.56-35.52Z"/><path class="cls-31" d="m155.7,176.86l-.14.53c0,.35-.21.88-.48,1.77-.67,2.19-1.5,4.33-2.48,6.4-3.7,7.37-7.83,14.5-12.38,21.38-2.79,4.39-5.76,9.34-8.74,14.85-3.19,5.83-5.82,11.94-7.85,18.27-2.26,6.99-3.03,14.39-2.26,21.7,1.04,8.03,4.14,15.65,9,22.12,1.26,1.77,2.6,3.41,4.07,5.06,1.42,1.64,2.96,3.17,4.6,4.58,3.51,2.92,7.25,5.55,11.19,7.85,8.42,5.03,17.3,9.23,26.52,12.55,9.75,3.58,19.82,6.26,30.06,7.99,10.62,1.87,21.43,2.46,32.2,1.77,22.28-1.77,45.44-4,67.95-9.99,11.19-3.01,22.31-6.88,32.18-13.14,4.95-3.14,9.35-7.07,13.03-11.64.92-1.15,1.77-2.39,2.76-3.54,1.03-1.1,1.89-2.35,2.53-3.71,1.27-2.72,2.31-5.54,3.09-8.43,3.02-11.67,2.46-23.87.51-35.56-2.12-11.64-5.15-23.09-9.05-34.25-3.75-11.14-8.12-21.98-12.38-32.66-1.11-2.71-2.23-5.2-3.32-8.06-.54-1.42-1-2.87-1.38-4.35-.41-1.45-.74-2.88-1.06-4.3-1.29-5.66-2.25-11.14-3.85-16.32-1.48-5.09-3.68-9.94-6.52-14.41-2.82-4.32-6.36-8.14-10.45-11.28-8.28-6.05-17.72-10.34-27.73-12.59-9.63-2.3-19.45-3.72-29.33-4.24-9.26-.74-18.56-.69-27.81.14-8.47.8-16.76,2.93-24.56,6.31-13.28,5.85-24.22,15.98-31.07,28.77-2.65,5.02-4.91,10.24-6.75,15.61-1.63,4.88-2.92,9.27-3.91,13.14-.5,1.93-.94,3.71-1.26,5.3-.5,1.46-1.09,2.88-1.77,4.26-.97,1.9-1.8,3.87-2.48,5.89-.46,1.36-.62,2.09-.62,2.09l-.07.14h0Zm-5.89-1.42c.64-2.91,1-5.87,1.08-8.84.14-1.62.38-3.22.73-4.81.32-.85.68-1.68,1.1-2.49l1.1-2.83c1.76-4.46,3.76-8.82,5.98-13.07,6-11.46,13.84-21.85,23.22-30.77,5.77-5.41,12.41-9.82,19.63-13.05,8-3.53,16.48-5.85,25.16-6.88,9.39-1.11,18.85-1.46,28.29-1.04,10.14.22,20.24,1.33,30.18,3.32,10.22,2.25,20.83,5.78,30.06,12.57,4.66,3.42,8.71,7.6,11.97,12.38,3.21,4.91,5.67,10.28,7.3,15.91,1.59,5.59,2.89,11.25,3.89,16.97.3,1.38.58,2.74.94,4.07.3,1.31.69,2.6,1.17,3.85,1.01,2.69,2.03,5.37,3.06,8.04,4.11,10.88,7.79,22.08,11.02,33.6,3.31,11.51,5.68,23.26,7.07,35.15.7,5.98.94,12.01.71,18.04-.19,5.99-1.13,11.93-2.81,17.68-.82,2.89-1.89,5.71-3.2,8.42-.32.67-.6,1.36-.9,2.07-.3.71-.46,1.45-.76,2.16-.26.72-.58,1.42-.95,2.09l-1.2,1.95c-3.4,5.12-7.62,9.65-12.48,13.4-2.42,1.88-4.95,3.63-7.57,5.22-2.65,1.54-5.3,2.97-8.12,4.26-5.49,2.53-11.17,4.64-16.98,6.33-11.4,3.21-23,5.65-34.73,7.3-11.53,1.77-22.99,2.94-34.25,3.85-11.31.85-22.67.3-33.84-1.63-10.64-1.81-21.09-4.6-31.23-8.33-9.63-3.49-18.91-7.89-27.71-13.14-4.26-2.54-8.3-5.43-12.08-8.63-1.9-1.63-3.67-3.41-5.3-5.3-1.57-1.79-3.05-3.66-4.44-5.61-5.45-7.4-8.89-16.09-9.99-25.22-.76-8.21.23-16.48,2.88-24.28,2.24-6.66,5.08-13.1,8.51-19.24,3.09-5.64,6.22-10.61,8.98-15.1,4.37-6.7,8.34-13.66,11.88-20.83.84-1.81,1.56-3.68,2.14-5.59.16-.49.29-.98.39-1.49l.14-.53-.02.03h0Z"/><path class="cls-2" d="m152.71,176.11c-6.28,27.73-61.06,71.61-19.45,116.51,14.15,15.28,60.12,38.67,106.27,34.32,119.87-11.32,150.16-40.26,99.66-164.36-8.2-20.18.99-66.66-87.12-69.3-36.97-1.11-81.46,3.96-99.36,82.82h0Z"/><path class="cls-20" d="m176.55,123.72l-.25.41c-.24.38-.46.77-.65,1.17-.78,1.5-1.41,3.07-1.89,4.68-1.76,6.44-2.36,13.14-1.77,19.79.72,10.46,3.25,20.71,7.5,30.29,5.39,12.47,13.69,23.47,24.21,32.08,5.99,4.89,12.64,8.91,19.75,11.94,7.65,3.2,15.68,5.41,23.89,6.56,8.75,1.2,17.6,1.47,26.4.8,2.25-.14,4.53-.39,6.79-.64h.81l.83-.14c.51-.11,1.01-.19,1.57-.34,1.08-.27,2.19-.58,3.31-.9,4.47-1.27,9.04-2.67,13.74-3.73,9.37-2.1,19.45-3.17,29.28-1.01,4.93,1.1,9.63,3.03,13.92,5.71,1.07.62,2.11,1.29,3.11,2.02l1.5,1.18,1.41,1.26c.97.83,1.77,1.77,2.72,2.69.45.45.88.92,1.29,1.41.43.51.82,1.05,1.18,1.61,2.61,4.55,3.89,9.74,3.7,14.98-.04,5.14-.63,10.25-1.77,15.26-.55,2.5-1.17,4.99-1.86,7.46l-.99,3.66-.51,1.77-.19.85v.11c-.37-.27.87.71-.88-1.4-2.48,0-1.26.42-1.61.3v-.11c2.55-4.24,4.69-8.72,6.38-13.37,3.32-9.32,4.75-19.21,4.19-29.09-.6-9.78-2.73-19.4-6.33-28.5-1.72-4.54-3.71-8.97-5.98-13.26-1.12-2.15-2.3-4.27-3.54-6.35-.73-1.2-1.36-2.46-1.87-3.77-.48-1.28-.89-2.59-1.2-3.93-1.18-5.11-1.77-9.92-2.53-14.69-.76-4.78-1.45-9.41-2.44-13.95-1.77-8.83-4.9-17.34-9.27-25.21-4.17-7.39-9.84-13.82-16.66-18.87-6.63-4.78-13.98-8.46-21.78-10.89-7.38-2.33-14.98-3.93-22.67-4.77-7.14-.81-14.32-1.17-21.5-1.08-6.46.05-12.91.54-19.31,1.47-10.39,1.37-20.48,4.47-29.85,9.16-5.96,3.03-11.34,7.07-15.91,11.94-1.19,1.29-2.31,2.63-3.36,4.03l-1.01,1.49.09-.05h0Zm-2.97-1.77l1.08-1.61c1.1-1.54,2.28-3.01,3.54-4.42,4.8-5.25,10.47-9.63,16.76-12.94,9.67-5.09,20.11-8.56,30.91-10.27,6.6-1.12,13.27-1.78,19.96-1.96,7.39-.25,14.79-.03,22.16.65,8.09.7,16.08,2.21,23.87,4.49,8.49,2.46,16.51,6.31,23.75,11.39,7.67,5.49,14.11,12.53,18.89,20.67,4.77,8.48,8.16,17.67,10.06,27.21,1.04,4.77,1.77,9.6,2.53,14.41.76,4.81,1.24,9.67,2.25,14.15.23,1.06.53,2.1.88,3.13.39.99.86,1.94,1.4,2.85,1.22,2.19,2.42,4.42,3.54,6.7,2.26,4.59,4.23,9.31,5.91,14.15,3.47,9.79,5.34,20.07,5.53,30.45.18,10.46-1.75,20.86-5.68,30.56-1.98,4.83-4.43,9.45-7.32,13.79-.07.1-.14.2-.21.3-.46,0,.67.55-1.94.57-1.87-2.23-.57-1.45-.94-1.86v-.35c.08-.34.17-.68.28-1.01l.6-1.77,1.13-3.54c.74-2.39,1.41-4.8,2-7.23,1.21-4.82,1.91-9.75,2.09-14.71.3-4.85-.75-9.69-3.04-13.97-.31-.49-.64-.97-.99-1.43-.38-.47-.79-.93-1.22-1.36-.85-.87-1.73-1.73-2.62-2.56l-1.36-1.22-1.43-1.11c-.94-.78-1.98-1.42-2.97-2.1-4.08-2.59-8.62-4.39-13.37-5.31-9.46-1.86-19.13-.46-28.17,1.93-4.56,1.15-9,2.63-13.49,4.05-1.11.35-2.25.71-3.41,1.03-.57.16-1.2.3-1.77.44l-.87.16h-.92c-2.33.28-4.63.58-6.95.76-9.06.85-18.19.73-27.23-.35-8.63-1.05-17.08-3.27-25.11-6.6-7.52-3.11-14.55-7.28-20.88-12.38-10.97-9.17-19.57-20.84-25.09-34.02-4.32-10.05-6.87-20.77-7.53-31.69-.51-7.1.25-14.24,2.23-21.08.58-1.83,1.33-3.61,2.23-5.3.32-.64.57-.95.73-1.24l.25-.41-.02-.02h0Z"/><path class="cls-28" d="m180.21,125.82l-.48.96-.12.23v.44c.08.72.3,1.43.64,2.07,1.17,2.01,2.63,3.84,4.33,5.43,3.92,3.66,8.16,6.97,12.66,9.88,9.21,6.03,19.13,11.53,28.93,16.83,19.86,10.5,40.26,20.18,60.6,30.06,10.17,4.93,20.33,9.9,30.43,15.07,5.06,2.6,10.08,5.31,15.05,8.01,4.97,2.7,9.92,5.64,14.73,8.84,2.4,1.61,4.77,3.29,7.07,5.15,1.13.95,2.26,1.94,3.34,3.01l.81.85.39.42.11.11.16.21.16.21,1.27,1.77.64.85c.21.32.42.71.62,1.04l1.2,2.16c.33.72.63,1.45.88,2.19.31.72.55,1.46.74,2.21.41,1.49.7,3.02.85,4.56,0,.76.19,1.52.19,2.28v2.28c-.32,5.89-1.56,11.7-3.68,17.21-1.93,5.45-4.33,10.61-6.51,15.77l-3.54-1.77c3.46-5.95,6.06-12.35,7.75-19.03,1.67-6.66,2.43-13.51,2.28-20.37-.09-1.77,0-3.41-.21-5.13l-.55-5.11c-.18-1.77-.6-3.38-.88-5.06-.28-1.69-.65-3.37-1.11-5.02l-1.36-4.97c-.39-1.77-1.13-3.25-1.66-4.88l-1.77-4.86-2.14-4.7c-.74-1.56-1.36-3.16-2.19-4.68l-2.49-4.54-1.25-2.26-.64-1.27-.41-.78-.3-.6c-.19-.42-.39-.74-.58-1.24l-.58-1.56-.27-.78-.19-.69-.37-1.38c-1.77-7.3-2.48-14.15-3.82-21.06-1.19-6.75-2.97-13.39-5.3-19.84-2.31-6.31-5.5-12.26-9.46-17.68-3.95-5.33-8.77-9.97-14.25-13.7-5.54-3.76-11.57-6.73-17.93-8.84-1.58-.58-3.19-1.08-4.83-1.49-1.64-.42-3.25-.9-4.92-1.29-3.34-.62-6.63-1.4-10.04-1.77-1.77-.21-3.38-.5-5.07-.65l-5.13-.37-2.56-.19h-2.58l-5.11-.09h-5.13c-1.77,0-3.54,0-5.18.21l-4.97.42-5.02.69c-6.67,1.04-13.22,2.71-19.57,4.99-6.31,2.18-12.33,5.1-17.95,8.7l-2.07,1.36-2,1.54c-1.34.96-2.53,2.05-3.75,3.1-2.31,2.1-4.36,4.46-6.12,7.04l.23-.48h0Zm-8.45-4.83c4.42-6.38,10.1-11.79,16.67-15.91,6.25-4.1,12.96-7.44,20-9.95,6.98-2.44,14.18-4.22,21.5-5.3l5.48-.69,5.59-.41c1.91-.18,3.54-.14,5.41-.18h5.46l5.45.23,2.71.12,2.72.27,5.43.51c1.77.21,3.54.53,5.41.8,3.54.46,7.2,1.38,10.79,2.12,1.77.46,3.54,1.01,5.31,1.5,1.77.5,3.54,1.11,5.3,1.77,7.05,2.47,13.72,5.91,19.82,10.22,6.16,4.38,11.54,9.76,15.91,15.91,4.27,6.09,7.67,12.75,10.1,19.79,2.39,6.9,4.16,14,5.3,21.22,1.24,7.07,1.89,14.15,3.31,20.72l.28,1.17.16.58.16.48.28.96c.11.34.35.78.53,1.17l.28.6s-.18-.34,0-.12v.14l.16.3.64,1.2,1.24,2.4,2.51,4.81c.83,1.59,1.47,3.31,2.19,4.95l2.14,4.99,1.77,5.15c.53,1.77,1.25,3.39,1.64,5.18l1.31,5.3c.45,1.75.79,3.52,1.03,5.3.27,1.77.65,3.54.8,5.3l.42,5.45c.19,1.77,0,3.64,0,5.46-.06,7.29-1.08,14.53-3.02,21.55-1.98,7-4.92,13.69-8.75,19.88-.54.95-1.75,1.28-2.7.74-.87-.5-1.23-1.58-.83-2.5,2.09-5.3,4.31-10.45,6.01-15.7,1.83-5.11,2.85-10.48,3.01-15.91.18-5.12-1.39-10.14-4.44-14.25l-1.33-1.64-.16-.21c-.12-.14.12.14,0,.11l-.09-.09-.34-.34-.67-.67c-.96-.91-1.96-1.76-3.01-2.56-2.14-1.64-4.44-3.16-6.76-4.65-9.57-5.8-19.43-11.11-29.53-15.91-10.11-4.93-20.33-9.67-30.59-14.41-20.53-9.37-41.16-18.57-61.46-28.88-10.15-5.15-20.23-10.47-30.06-16.69-2.44-1.57-4.86-3.2-7.23-4.95-2.44-1.76-4.77-3.68-6.97-5.75-2.48-2.23-4.59-4.83-6.28-7.71-.99-1.84-1.59-3.87-1.77-5.96-.06-.59-.06-1.18,0-1.77-.02-.31-.02-.61,0-.92,0-.35.16-.73.27-1.08.11-.35.21-.73.34-1.06l.18-.48.12-.23.48-.96.37-.5h0Z"/><path class="cls-29" d="m175.04,122.76c-16.37,25.3,3.22,122.77,106.18,109.63,10.91-1.38,47.12-20.69,71.53,6.44,13.37,14.85-4.67,52.59,0,44.81,5.2-8.66,25.25-42.08-4.7-93.57-9.67-16.43,6.24-96.05-96.93-96.95-39.64-.41-65.18,12.87-76.07,29.65h0Z"/><path class="cls-13" d="m172.16,128.92c29.71-19.13,119.48-17.82,148.18,28.06,19.1,30.48-15.91,105.6-28.7,115.18-12.78,9.58-30.8,17.88-77.89,6.6-39.82-9.58,20.3-46.73-26.67-52.15-42.9-4.95-47.12-76.88-14.92-97.7h0Z"/><path class="cls-18" d="m255.27,202.85c0,2.28-4.35,4.12-9.73,4.12s-9.74-1.77-9.74-4.12,4.31-4.05,9.71-4.05,9.76,1.77,9.76,4.05h0Z"/><path class="cls-7" d="m238.15,190.63c2.23-1.49,14.15-.99,15.6.5,1.45,1.48,4.83,7.8.99,10.4-1.31.9-1.41-2.83-4.33-2.23-3.54.74-1.77,5.41-4.46,5.3-4.33-.12-.16-5.02-3.96-5.69-2.85-.5-3.54,2.19-4.7,1.98-4.21-.72-2.25-8.17.87-10.26Z"/><path class="cls-7" d="m244.66,190.74c2.87-.18,5.75.2,8.49,1.1,1.56,1.83,2.43,4.14,2.46,6.54-.05.84-.44,1.62-1.1,2.16l-.23-.28c-.63-1.18-1.83-1.93-3.16-2-.27-.03-.54-.03-.81,0-1.86.53-3.2,2.17-3.34,4.1-.35,1.36-.48,1.66-.88,1.66-1.22,0-1.25-.51-1.22-2,.04-1.49,0-3.54-2.6-4.03-.28-.07-.56-.12-.85-.14-1.29.03-2.5.6-3.36,1.56l-.5.46c-.81-.12-1.43-.78-1.5-1.59-.28-2.61.75-5.19,2.74-6.9,1.89-.62,3.88-.87,5.87-.73v.09h0Zm0-1.08c-2.18-.16-4.37.14-6.42.88-3.11,2.09-5.07,9.53-.87,10.27h.14c1.04,0,1.77-2.05,3.89-2.05.21,0,.44-.25.67-.19,3.8.65-.37,5.43,3.96,5.43,2.67,0,.83-4.33,4.39-5.06.21-.03.41-.03.62,0,2.05,0,2.44,2.49,3.32,2.49.13.04.26.04.39,0,3.84-2.6.5-8.84-.99-10.38-.87-.87-5.3-1.38-9.18-1.38l.07-.02h0Z"/><path class="cls-14" d="m337.51,229.8c4.39,28.63-31.35,64.68-79.46,72.06-48.11,7.37-83.73-35.72-88.13-64.35-4.4-28.63,25.23-17.7,73.28-25.09,48.04-7.39,89.88-11.25,94.32,17.38h0Z"/><path class="cls-16" d="m211.95,273.28c.88,1.2,2.05,2.15,3.41,2.76,1.33.64,2.72,1.15,4.16,1.5,2.9.72,5.86,1.18,8.84,1.4,5.88.46,11.79.49,17.68.11,5.92-.35,11.81-.99,17.68-1.87,2.92-.46,5.83-.96,8.72-1.61,2.86-.57,5.67-1.43,8.36-2.55.57-.27,1.29-.76,1.26-.94l.55-2.14c.42-1.43.92-2.9,1.41-4.31,1.04-2.79,2.16-5.55,3.31-8.31,2.3-5.5,4.81-10.89,7.39-16.27,1.27-2.69,2.62-5.3,3.96-8.03,1.34-2.72,2.74-5.3,4.14-7.94,1.41-2.66,2.9-5.28,4.47-7.85.81-1.29,1.59-2.58,2.49-3.89l1.41-1.93c.57-.67,1.2-1.34,1.77-2l2.87,5.09c-5.45,1.77-10.89,3.54-16.39,5.06-2.74.8-5.52,1.49-8.28,2.21-2.76.73-5.55,1.34-8.33,2.02-2.78.67-5.57,1.2-8.36,1.77-2.79.57-5.62,1.06-8.42,1.59-2.79.53-5.64.9-8.47,1.38-2.83.48-5.66.8-8.49,1.13-2.83.34-5.68.69-8.54.9-2.87.21-5.69.55-8.56.64l-8.56.35h-8.61c-2.86,0-5.75-.27-8.61-.41l-4.3-.27-4.3-.51-4.24-.57-2.14-.26-2.14-.58-8.51-1.77,1.59-5.53,3.59,1.91.88.53.83.6,1.66,1.2c.55.38,1.08.78,1.59,1.22l1.47,1.36,1.45,1.36c.46.5.85,1.03,1.27,1.52.87.97,1.67,2.01,2.4,3.09.74,1.05,1.42,2.13,2.05,3.25.57,1.17,1.25,2.25,1.77,3.41.51,1.17,1.06,2.32,1.54,3.54l1.31,3.54,1.17,3.54c.72,2.4,1.4,4.82,2.02,7.25.62,2.43,1.29,4.85,2,7.25.39,1.2.71,2.4,1.18,3.54.43,1.21.95,2.39,1.57,3.52h0Zm0,0c-.65-1.08-1.2-2.21-1.66-3.38-.51-1.15-.85-2.37-1.25-3.54l-2.18-7.2c-.75-2.38-1.55-4.73-2.4-7.07l-1.36-3.54-1.59-3.36c-.58-1.11-1.2-2.18-1.77-3.25-.57-1.08-1.36-2.07-2.05-3.08-.7-.99-1.47-1.94-2.3-2.83-.77-.93-1.63-1.78-2.56-2.55-.46-.39-.88-.81-1.34-1.18l-1.63-.96-1.47-.97c-.5-.31-1.03-.57-1.57-.8l-1.59-.73-.67-.35-.85-.25-3.34-.88c-1.54-.42-2.47-1.99-2.09-3.54.38-1.35,1.67-2.23,3.06-2.1l.64.11,8.15,1.54,2.03.35,2.07.25,4.14.51,4.14.5,4.15.25c2.79.12,5.55.44,8.35.39h8.38l8.36-.35c2.79,0,5.59-.42,8.38-.62,2.79-.19,5.57-.53,8.35-.88,2.78-.35,5.55-.64,8.33-1.11,2.78-.48,5.55-.8,8.29-1.34,2.74-.55,5.53-.99,8.28-1.56,2.74-.57,5.5-1.15,8.22-1.77,2.72-.62,5.46-1.25,8.19-1.98,2.72-.73,5.45-1.38,8.13-2.16,5.4-1.5,10.75-3.15,16.06-4.95,1.54-.54,3.22.27,3.76,1.81.37,1.05.12,2.21-.65,3.02l-.25.27-1.29,1.17-1.36,1.56c-.9,1.04-1.77,2.21-2.65,3.34-1.77,2.35-3.34,4.79-4.95,7.25-1.61,2.46-3.15,4.97-4.65,7.51-1.5,2.55-3.01,5.07-4.44,7.66-2.88,5.16-5.64,10.4-8.21,15.72-1.28,2.64-2.46,5.33-3.54,8.06-.54,1.35-1.05,2.72-1.52,4.1l-.64,2.12c-.18.52-.53.95-1.01,1.22-.34.23-.7.42-1.08.58-2.83,1.06-5.75,1.83-8.73,2.32-2.93.55-5.88,1.01-8.84,1.4-5.87.75-11.77,1.24-17.68,1.47-5.93.29-11.88.19-17.81-.28-2.98-.24-5.94-.74-8.84-1.49-1.44-.37-2.84-.88-4.17-1.54-1.41-.61-2.62-1.59-3.52-2.83l.05-.05h0Z"/><path class="cls-16" d="m211.93,273.3c.89,1.19,2.06,2.14,3.41,2.76,1.33.65,2.73,1.15,4.17,1.5,2.9.72,5.86,1.19,8.84,1.41,5.88.44,11.79.48,17.68.12,5.92-.32,11.82-.91,17.68-1.77,2.92-.42,5.85-.9,8.73-1.52,2.89-.56,5.71-1.4,8.43-2.51.6-.3,1.36-.71,1.47-1.13l.57-2.16c.42-1.41.94-2.85,1.43-4.24,1.06-2.79,2.18-5.55,3.38-8.28,2.39-5.45,4.97-10.79,7.64-16.11,1.31-2.67,2.67-5.3,4.05-7.94,1.38-2.64,2.8-5.25,4.28-7.83,1.45-2.53,3.01-5.16,4.61-7.69.83-1.25,1.63-2.53,2.53-3.75l1.4-1.77c.54-.63,1.14-1.22,1.77-1.77l1.43,2.55c-5.39,1.77-10.82,3.54-16.3,5.02-2.72.8-5.5,1.49-8.24,2.21-2.74.72-5.52,1.33-8.29,2-2.78.67-5.55,1.2-8.33,1.77-2.78.57-5.59,1.04-8.38,1.57-2.79.53-5.61.9-8.42,1.36-2.81.46-5.62.8-8.45,1.15-2.83.35-5.64.69-8.49.88-2.85.19-5.68.55-8.52.64l-8.58.28h-8.56c-2.85,0-5.69-.27-8.54-.41l-4.28-.27-4.26-.53-4.26-.51-2.12-.27-2.1-.74-8.42-2.02.81-2.53,3.54,1.86.88.5.81.57,1.64,1.1c.53.37,1.11.67,1.61,1.1l1.45,1.29,1.47,1.27c.44.46.85.97,1.27,1.45.92.92,1.77,1.9,2.53,2.95.77,1.01,1.47,2.07,2.12,3.16.6,1.13,1.29,2.19,1.77,3.32.48,1.13,1.1,2.28,1.59,3.54l1.38,3.54,1.22,3.54c.75,2.4,1.45,4.81,2.1,7.23.65,2.42,1.33,4.85,2.05,7.23.39,1.18.71,2.4,1.2,3.54.43,1.15.96,2.26,1.57,3.32h0Zm0,0c-.64-1.08-1.19-2.21-1.64-3.38-.49-1.15-.83-2.37-1.24-3.54l-2.14-7.21c-.7-2.38-1.47-4.74-2.3-7.07l-1.31-3.54-1.52-3.41c-.55-1.13-1.17-2.21-1.77-3.32-.6-1.11-1.31-2.1-1.96-3.15-.7-1.02-1.45-2.01-2.25-2.95-.73-.97-1.54-1.88-2.42-2.72-.44-.42-.87-.87-1.33-1.25l-1.57-1.11-1.47-1.08c-.5-.33-1.03-.64-1.57-.9l-1.61-.85-.8-.42-.85-.28-3.41-1.15c-.78-.26-1.19-1.1-.94-1.87.26-.63.95-.96,1.61-.78l.12.25,8.24,1.4,2.07.28,2.09.19,4.17.49,4.17.5,4.21.25c2.79.12,5.59.44,8.42.39l8.51.05,8.43-.35c2.81,0,5.61-.42,8.42-.62,2.81-.19,5.61-.53,8.4-.88,2.79-.35,5.59-.65,8.36-1.13s5.59-.8,8.35-1.34c2.76-.55,5.55-.99,8.31-1.57,2.76-.58,5.52-1.15,8.26-1.77,2.75-.62,5.49-1.28,8.22-1.98,2.74-.71,5.46-1.4,8.17-2.19,5.43-1.49,10.8-3.16,16.13-4.97.77-.27,1.62.14,1.89.92,0,0,0,0,0,0,.18.53.05,1.11-.34,1.52l-.12.11-1.43,1.38-1.38,1.64c-.9,1.11-1.77,2.32-2.62,3.54-1.66,2.4-3.25,4.88-4.81,7.39-1.55,2.51-3.06,5.05-4.53,7.62-1.47,2.56-2.94,5.15-4.33,7.74-2.79,5.3-5.48,10.5-7.97,15.91-1.19,2.7-2.37,5.41-3.54,8.12-.53,1.38-1.04,2.74-1.5,4.14l-.62,2.14c-.14.44-.45.81-.87,1.03-.32.22-.67.41-1.03.57-2.8,1.07-5.69,1.87-8.65,2.37-2.92.57-5.85,1.06-8.84,1.45-5.87.81-11.77,1.35-17.68,1.61-5.93.32-11.87.23-17.79-.25-2.98-.24-5.94-.74-8.84-1.49-1.44-.37-2.84-.88-4.17-1.54-1.37-.64-2.55-1.64-3.41-2.88l.02-.02h0Z"/><path class="cls-24" d="m211.91,273.31c7.67,11.88,69.74,3.7,70.73-.99,2.72-12.13,25-54.71,32.18-60.65-12.87,4.46-79.46,25.75-133.66,12.87,24.6,7.85,24.79,39.54,30.75,48.77h0Z"/><path class="cls-24" d="m306.69,217.44c-9.32,14.06-23.62,41.48-26.67,53.44-3.68,2.02-22.99,5.61-41.96,5.61-15.14,0-22.14-2.46-23.62-4.77-1.77-3.56-3.1-7.32-3.96-11.19-2.56-9.16-6.07-21.61-14.62-30.33,7.77.96,15.59,1.43,23.41,1.41,35.72,0,70.55-9.04,87.44-14.15l-.02-.02h0Zm8.22-5.75c-9.96,3.54-52.02,16.96-95.64,16.96-12.79.11-25.55-1.26-38.02-4.08,24.51,7.83,24.7,39.52,30.66,48.75,2.94,4.53,13.79,6.14,26.13,6.14,20.03,0,44.01-4.23,44.67-7.07,2.72-12.13,25-54.71,32.18-60.65l.02-.04h0Z"/><path class="cls-27" d="m208.22,262.92c4.12,3.54,18.14-12.22,16.66-18.32-3.8-15.51-20.95-13.37-27.23-14.36-6.28-.99-18.41-6.35-13.37-4.77,14.54,4.46,42.24,2.48,45.55,3.54,4.17,1.24,7.07,18.14,2.97,21.94-4.1,3.8-18.62,25.9-20.79,22.12-2.18-3.78-2.71-7.83-3.78-10.15h0Zm65.67-18.32c3.32,3.24,12.04,7.07,17.49,5.11-.98,3.06-2.31,6-3.96,8.75-37.63-3.31-27.39-29.71-24.6-32.18,2.79-2.48,37.63-7.43,44.4-8.84-10.24,2.25-44.88,15.95-33.33,27.16Z"/><path class="cls-22" d="m237.59,279.54c-12.8,0-21.22-1.77-24.44-5.3-.25-.3-.3-2.09,1.17-5.43,3.54-8.17,14.59-22.3,33.6-23.45,1.27,0,2.55-.12,3.78-.12,22.37,0,35.84,11.35,35.88,13.39l-1.1,2.63c-1.2,2.9-3.04,7.28-4.67,12.17-1.59,1.59-24.12,6.12-44.22,6.12h0Z"/><path class="cls-7" d="m251.73,244.77v1.43c19.45,0,33.33,9.6,34.78,12.38-.25.62-.58,1.38-.95,2.28-1.18,2.83-2.97,7.07-4.56,11.81-3.16,1.77-24.08,5.87-43.5,5.87-12.15,0-20.49-1.77-23.57-4.85-.14-1.04.88-5.16,4.6-10.47,3.32-4.74,12.87-15.91,29.41-16.89,1.24,0,2.53-.12,3.77-.12v-1.98l.04.53h0Zm-.04-.53c-1.26,0-2.55,0-3.85.12-26.17,1.56-38.27,27.5-35.51,30.47,3.82,4.19,13.85,5.64,25.16,5.64,20.18,0,44.49-4.63,45.21-6.79,2.23-6.68,4.79-12.38,5.78-14.85.99-2.48-14.15-14.64-36.83-14.64l.04.05h0Z"/><path class="cls-22" d="m212.83,273.38c-1.77,8.12,47.6-31.42,74.27-12.38,5.3-7.39-24.1-19.77-41.27-16.9-14.48,2.44-29.37,11.72-33,29.28h0Z"/><path class="cls-23" d="m222.8,230.98c2.4,4.46,7.18,26.17,9.16,26.74,1.98.57,14.15,3.96,15.91,3.22,1.77-.74,1.61-4.95,3.54-3.71,1.49.99,2.23,2.97,3.71,2.23,2.65-1.33,10.61-6.19,11.88-8.42,1.27-2.23.99-14.61,0-24.51-5.34,2.23-35.29,5.45-44.21,4.46h0Z"/><path class="cls-25" d="m266,227.87c.94,10.17.95,20.97,0,22.69-.96,1.72-8.22,6.38-11.46,8.01-.06.01-.13.01-.19,0-.23,0-.67-.48-1.04-.88-.45-.5-.94-.95-1.49-1.34-.34-.24-.75-.37-1.17-.39-1.27,0-1.77,1.29-2.23,2.33-.27.64-.62,1.52-.99,1.77-.13.02-.26.02-.39,0-4.51-.62-8.97-1.59-13.33-2.9l-1.36-.35c-.94-1.06-2.92-8.03-4.37-13.16-1.31-4.56-2.55-8.84-3.54-11.55h2.76c11.37,0,32.24-2.37,38.9-4.3l-.11.07h0Zm.97-1.41c-4.53,1.94-27.9,4.65-39.71,4.65-1.45.01-2.9-.05-4.35-.19,2.3,4.53,7.07,26.24,9.05,26.81,1.98.57,11.88,3.32,15.08,3.32.26.01.52-.02.76-.11,1.52-.65,1.61-3.94,2.85-3.94.22.01.44.09.62.23,1.26.83,1.98,2.39,3.08,2.39.22,0,.44-.06.64-.16,2.65-1.33,10.61-6.19,11.88-8.42,1.27-2.23.99-14.61,0-24.51l.11-.07h0Z"/><path class="cls-32" d="m226.27,241.38c-.81-8.01,36.3-10.61,40.93-9.99,0-1.89-.34-3.2-.25-5.3-6.12,3.08-39.45,6.31-44.06,4.99,1.38,3.35,2.51,6.79,3.38,10.31h0Z"/><path class="cls-25" d="m244.8,235.33c.51,1.06.98,2.15,1.38,3.25.78,1.98,1.77,4.65,2.56,7.32.8,2.67,1.77,5.3,2.32,7.37l1.01,3.32-2.56.74-.78-3.54c-.46-2.05-1.08-4.77-1.77-7.5-.69-2.72-1.38-5.41-1.98-7.41-.6-2-1.1-3.27-1.1-3.27l.92-.3Z"/><path class="cls-17" d="m119.11,109.04c19.72,5.02,16.5,39.1,28.29,41.75,11.79,2.65,27.14-28.03,28.63-34.78-22.72-9.65-33.24-21.06-49.51-17.68-5.37,1.03-12.93,9.28-7.41,10.71h0Z"/><path class="cls-8" d="m173.72,208.63c24.76,1.98,45.21,2.97,52.48-4.63,7.27-7.6,9.9-41.25,21.94-40.42,10.1.69,13.53,44.56,20.12,45.87,6.6,1.31,53.05,14.04,64.52,2.16,11.48-11.88,16.83-19.31,14.15-26.52-2.69-7.21-70.45-30.48-84.27-31.74-13.83-1.26-107.58,10.4-109.95,16.34s-4.84,5.09-4.4,11.44c.87,11.83.65,25.53,25.41,27.51h0Z"/><path class="cls-24" d="m243.1,158.71c1.77,0,8.84-.5,10.4.74,8.98,7.07,8.59,35.74,18.07,44.79,8.36,7.99,53.97,13.86,61.89,4.7,7.92-9.16,19.54-36.87,22.26-38.9,2.72-2.03,8.66-3.54,10.4-6.19,1.73-2.65.25-14.85-3.96-14.36-4.21.49-12.13,3.22-17.08,1.77-4.95-1.45-28.95-16.59-89.35-7.43-5.21.66-10.51.32-15.6-.99-3.96-.99-26.74-14.15-87.37-5.45-6.07.87-14.36-1.77-17.33-1.49s-3.94,9.67-2.72,12.15c1.22,2.48,7.43,4.46,8.17,7.43s6.19,32.16,20.55,44.29c15.12,12.78,53.98,3.94,57.41,1.49,15.6-11.14,19.06-42.56,24.26-42.56h0Z"/><path class="cls-33" d="m190.92,137.44c26.98,0,40.78,5.39,45.97,7.41.8.35,1.62.65,2.46.9,3.71.93,7.51,1.41,11.33,1.43,1.81,0,3.62-.12,5.41-.39,11.83-1.83,23.78-2.77,35.75-2.81,28.38,0,43.15,6.35,49.51,9.07,1.27.55,2.19.94,2.94,1.17,1.4.4,2.86.59,4.31.57,3.34-.13,6.65-.61,9.88-1.43,1.38-.28,2.69-.57,3.71-.72,1.38,1.5,2.21,8.19,1.49,9.76-1.5,1.24-3.21,2.2-5.06,2.81-1.63.66-3.19,1.48-4.65,2.46-1.59,1.15-3.29,4.33-8.12,13.88-4.6,9.09-10.31,20.41-14.66,25.43-1.52,1.77-6.91,3.54-17.51,3.54-15.72,0-35.58-4.23-40.09-8.52-4.1-3.93-6.29-12.98-8.4-21.71-2.35-9.76-4.65-18.97-9.96-23.15-1.34-1.06-3.54-1.49-7.67-1.49h-4.56c-4.17,0-6.03,5.18-9.11,13.79-3.41,9.92-8.22,23.31-16.76,29.37-1.89,1.15-15.91,4.74-30.06,4.74-10.82,0-19.03-2.09-23.71-6.05-5.68-4.79-13.63-15.91-19.29-41.5-.12-.58-.21-1.01-.28-1.25-.69-2.76-3.34-4.49-5.69-6.01-.97-.57-1.87-1.24-2.69-2-.43-2.65-.14-5.36.85-7.85,1.38.13,2.75.32,4.1.58,3.2.62,6.45.98,9.71,1.08,1.03.04,2.07.01,3.09-.09,12.49-1.88,25.1-2.89,37.73-3.01h0Zm0-2.97c-12.79.08-25.56,1.06-38.21,2.95-.9.12-1.81.18-2.72.18-5.3,0-11.37-1.77-14.15-1.77h-.44c-2.97.25-3.96,9.65-2.72,12.13,1.24,2.48,7.43,4.46,8.17,7.43.74,2.97,6.19,32.16,20.55,44.29,6.03,5.09,15.81,6.75,25.62,6.75,14.84,0,29.74-3.78,31.83-5.3,15.6-11.14,19.06-42.56,24.26-42.56.8,0,2.63-.11,4.56-.11,2.4,0,4.97.16,5.83.85,8.98,7.07,8.59,35.74,18.07,44.79,5.3,5.11,25.92,9.35,42.14,9.35,9.14,0,16.89-1.34,19.75-4.65,7.92-9.16,19.54-36.87,22.26-38.9s8.66-3.54,10.4-6.19c1.73-2.65.32-14.38-3.71-14.38h-.25c-3.32.39-8.95,2.18-13.62,2.18-1.19.02-2.38-.13-3.54-.44-3.8-1.15-18.92-10.36-53.22-10.36-12.1.07-24.17,1.05-36.12,2.94-1.65.24-3.31.36-4.97.35-3.58-.02-7.14-.47-10.61-1.34-2.94-.44-16.64-8.19-49.16-8.19h0Z"/><path class="cls-9" d="m157.72,155.74c-1.38,1.77-2.23,28.2,8.84,35.37,7.3,4.72,38.37,3.71,44.56.25,9.83-5.45,19.4-30.56,16.64-34.13-4.46-5.94-36.62-13.86-60.9-7.67-3.52,1.25-6.67,3.38-9.14,6.19h0Z"/><path class="cls-4" d="m157.72,155.74c-1.38,1.77-2.23,28.2,8.84,35.37,7.3,4.72,38.37,3.71,44.56.25,9.83-5.45,19.4-30.56,16.64-34.13-4.46-5.94-36.62-13.86-60.9-7.67-3.52,1.25-6.67,3.38-9.14,6.19h0Z"/><path class="cls-9" d="m339.99,167.31c1.13,1.93-1.45,28.29-13.42,33.95-7.85,3.71-38.53-1.29-44.21-5.53-8.98-6.68-15.15-32.82-12.02-36.02,5.18-5.3,38.12-9,61.36.28,3.35,1.69,6.2,4.21,8.29,7.32h0Z"/><path class="cls-4" d="m339.99,167.31c1.13,1.93-1.45,28.29-13.42,33.95-7.85,3.71-38.53-1.29-44.21-5.53-8.98-6.68-15.15-32.82-12.02-36.02,5.18-5.3,38.12-9,61.36.28,3.35,1.69,6.2,4.21,8.29,7.32h0Z"/><path class="cls-34" d="m193.04,171.78c-.81,5.75-3.73,10.1-6.51,9.69-2.78-.41-4.35-5.3-3.54-11.12.81-5.82,3.73-10.1,6.51-9.69,2.78.41,4.35,5.38,3.54,11.12h0Zm118.81,6.68c.62,5.78-1.17,10.61-3.94,10.98-2.78.37-5.53-4.16-6.14-9.94s1.17-10.7,3.96-10.98c2.79-.28,5.53,4.16,6.12,9.94h0Z"/><path class="cls-10" d="m135.81,144.36c3.38,2.25,6.56.87,7.3,5.3.74,4.44,11.02,43.3,23.89,47.74,21.08,7.34,47.6.16,51.14-2.14s20.42-39.96,23.27-41.45c2.85-1.49,11.81.16,13.74.99,5.82,2.48,16.48,43.34,19.45,45.41,13,9.16,54.59,8.42,56.58,5.94,2-2.48,17.68-38.19,20.41-40.33,4.08-3.09,13.49-5.2,13.74-3.84.25,1.36-7.55,2.6-9.9,5.57-2.35,2.97-18.05,37.13-22.99,40.09-4.93,2.95-41.39,7.87-59.78-5.07-8.84-6.19-12.25-43.43-19.19-45.41-3.6-1.19-7.47-1.31-11.14-.37-4.33,2.85-10.4,34.39-23.39,42.44-5.15,3.2-45.62,10.98-57.66-1.61-22.53-23.5-15.72-44.54-22.99-47.64-5.02-2.12-6.06-4.7-5.94-6.56.12-1.86,1.61-.3,3.47.94h0Zm.37-7.92c-2.35-.87,10.15,4.33,14.76,4.01,4.61-.32,12.38-3.54,14.85-4.33,2.48-.8-11.64,1.77-15.1,1.61-3.47-.16-13.16-.81-14.52-1.29Zm96.78,6.93c4.33,1.98,6.31,6.81,10.61,7.3,4.3.49,9.28,1.24,11.64-.12,3.17-1.87,6.5-3.47,9.94-4.79,1.77-.37-13,1.98-18.44,1.49-5.78-.57-12.13-3.63-13.74-3.87h0Zm105.83,5.82c-1.77-.74,6.54,6.06,9.02,5.69,2.48-.37,7.07-3.2,8.84-3.84,1.49-.5-5.94,1.49-8.17,1.11-3.3-.75-6.54-1.75-9.69-2.97Z"/><path class="cls-10" d="m153.01,151.91c11.02-10.89,37.24-7.18,42.01-6.19-31.49,2.28-32.06,4.63-37.56,10.2-1.54,10.46-.49,21.13,3.06,31.09-5.41-3.11-11.19-31.46-7.52-35.1h0Zm192.97,11.71c-9.48-12.24-35.97-12.01-40.83-11.65,30.93,6.4,31.16,8.84,35.89,15.05.16,10.56-2.27,21-7.07,30.41,5.73-2.37,15.19-29.71,12.01-33.81h0Z"/><path class="cls-26" d="m158.02,173.94c1.1-12.93,2.23-23.22,27.67-24.01,20.37-.64,36.62,4.14,39.03,9.04,1.5,3.08.32,16.83-9.88,29.39,6.61-5.89,17.05-28.89,12.5-31.83-16.59-10.61-49.51-10.89-61.76-6.49-3.15,1.37-5.96,3.42-8.22,5.99-.32,3.24-.37,16.11.67,17.91h0Z"/><path class="cls-26" d="m158.79,174.8c3.87,24.99,49.67,17.4,52.39,16.41-.18,1.4-24.01,8.01-44.06.34-8.06-3.09-8.79-19.61-8.33-16.74h0Zm179.07,10.31c.49-12.96.64-23.31-24.51-27.23-20.14-3.13-36.87-.37-39.84,4.17-1.87,2.88-2.39,16.67,6.21,30.4-5.85-6.65-13.39-30.77-8.51-33.1,17.68-8.52,50.52-4.74,62.08,1.13,2.96,1.74,5.5,4.12,7.43,6.97-.09,3.22-1.59,16-2.86,17.67h0Z"/><path class="cls-26" d="m337,185.87c-6.91,24.33-51.42,11.19-54,9.87,0,1.41,22.85,10.89,43.68,5.73,8.38-2.07,11.12-18.39,10.33-15.6h0Z"/><circle class="cls-6" cx="190.9" cy="164.54" r="1.62"/><circle class="cls-6" cx="308.72" cy="171.48" r="1.62"/><path class="cls-12" d="m136.55,142.75c3.54,4.08,5.75,4.47,10.61,3.84,46.45-6.14,72.06-5.82,84.68,6.06,2.74,2.58,1.24-7.55-3.96-8.84-39.1-10.34-67.44-1.06-73.4-.32-5.96.74-10.38-.62-17.93-.74Zm128.21,5.94c-1.04,1.08-.6,11.83,4.46,7.8,14.61-11.64,45.18-8.84,66.47-1.77-3.54-6.68-28.29-11.39-42.33-11.14-6.58.14-25.71,2.18-28.59,5.11h0Z"/><ellipse class="cls-26" cx="347.93" cy="158.11" rx="5.2" ry="1.62"/><path class="cls-26" d="m152.07,144.3c0,.42-2.44.39-5.3,0-2.86-.39-5.06-1.22-4.99-1.66s2.44-.41,5.3,0c2.86.41,5.06,1.22,4.99,1.66Z"/><path class="cls-4" d="m440.81,383.37c-.9-9.09-7.55-13.16-13.74-13.16-2.05,0-4.08.4-5.98,1.17l-1.22.53-1.03.76c-1.93,1.42-4.04,2.58-6.28,3.43-.11-2.08-.04-4.16.21-6.22v-.34c1.68-16-1.66-25.34-9.96-27.76-1.4-.41-2.84-.61-4.3-.6-4.49.2-8.81,1.79-12.38,4.53-2.91-3.3-7.19-5.08-11.58-4.81-7.59,0-13.69,3.54-15.91,9.25-.21.55-.51,1.45-.88,2.6-3.9-8.59-12.6-13.98-22.03-13.65-6.61,0-13.1,1.83-18.73,5.3l-.46.34c-7.46,5.26-13.53,12.25-17.68,20.37-2.29-7.85-7.48-14.53-14.52-18.69l-.14-.09-.62-.37c7.83-13.93,14.76-32.41,10.61-49.99-4.42-18.76-15.45-21.57-21.63-21.57-2.67.03-5.32.5-7.83,1.41h-.34c-11.64,4.58-16.76,11.46-17.88,13.1-9.33,15.01-15.14,31.93-16.97,49.51-.34,3.2-.7,6.4-1.06,9.6-2.35-3.12-5.69-5.34-9.48-6.31-1.46-.44-2.97-.67-4.49-.67-6.42,0-11.69,3.94-14.46,6.56-2.4-3.55-6.33-5.75-10.61-5.94h-1.04c-6.04.11-11.84,2.39-16.34,6.42-2.62-4.57-7.52-7.35-12.78-7.25h-2.19c-7.62,0-13.62,3.54-16.06,9.57-.22.58-.43,1.17-.62,1.77-5.98-7.43-13.6-10.91-23.82-10.91h-1.03c-6.37.12-22.26,2.79-32.04,24.76-1.47,3.27-2.65,6.66-3.54,10.13-1.76-.8-3.67-1.22-5.61-1.22-4.3.02-8.32,2.13-10.79,5.66-1.52,2.23-6.31,10.06-3.96,17.68,1.28,4.09,4.38,7.35,8.4,8.84,3.66,1.43,8.28,2.83,11.78,3.84,2.82,6.28,7.22,11.73,12.77,15.81,5.29,3.78,11.68,5.7,18.18,5.46,8.72-.3,17.3-2.3,25.25-5.89l.48-.21.12-.09c2.49,2.57,5.74,4.29,9.27,4.9,1.45.27,2.91.4,4.39.41,6.6,0,11.23-3.27,15.47-9.58,3.86,5.7,10.4,8.99,17.28,8.7.41,0,.83.21,1.27.21,3.93,0,8.84-1.45,12.98-8.05,3.48,6.15,10.09,9.85,17.15,9.6,4.66-.11,9.24-1.22,13.42-3.27l.21-.11c2.23-1.18,4.05-2.19,5.53-3.06,6.66,3.62,14.1,5.54,21.68,5.59,1.57,0,3.14-.08,4.7-.25h.83c19.45-3.82,32.08-8.49,39.63-12.01,6.58,7.31,15.76,11.76,25.57,12.38,1.36.11,2.72.16,4.07.16,8.23.02,16.34-2,23.59-5.89,2,2.16,4.45,3.86,7.18,4.97,1.76.73,3.65,1.11,5.55,1.11,12.1,0,17.68-14.36,19.29-19.26l2.93-7.8c2.66,2.94,6.08,5.09,9.88,6.21,2.34.67,4.76,1,7.2.99,13.26,0,26.08-9.41,28.1-10.96,5.27-4.24,7.94-10.94,7.02-17.65h0Z"/><g><circle class="cls-4" cx="387.29" cy="414.65" r="10.25"/><path class="cls-30" d="m387.31,408.63c3.31,0,6,2.69,6,6,0,0,0,.02,0,.03,0,3.33-2.7,6.02-6.02,6.02-3.33,0-6.02-2.7-6.02-6.02,0-3.33,2.7-6.02,6.02-6.02,0,0,.02,0,.03,0h0Zm0,.99c-2.78,0-5.03,2.25-5.03,5.03s2.25,5.03,5.03,5.03h0c2.77-.01,5.02-2.26,5.03-5.03,0-2.78-2.25-5.03-5.03-5.03h0Zm.18,1.72c.49-.03.99.03,1.46.18.3.12.56.33.73.6.18.3.27.64.26.99.02.42-.13.84-.42,1.15-.33.33-.76.55-1.23.6.25.14.48.31.68.52.27.3.51.62.73.97l.78,1.23h-1.51l-.94-1.38c-.31-.47-.65-.78-.65-.91-.11-.11-.24-.2-.39-.26-.21-.04-.42-.04-.63,0h-.26v2.61h-1.23v-6.29h2.61Zm.52,1.07h-1.9v1.59h.91c.39.01.77-.02,1.15-.1.15-.04.28-.13.37-.26.08-.14.13-.3.13-.47,0-.19-.05-.37-.16-.52-.13-.13-.31-.22-.5-.23Z"/></g><path class="cls-30" d="m430.96,384.36c-.6-6.08-6.08-3.82-6.08-3.82,0,0-8.84,6.83-16.57,6.07-7.73-.76-5.3-18.11-5.3-18.11,0,0,1.77-15.91-2.88-17.22-4.65-1.31-10.2,4.16-10.2,4.16-4.48,5.22-7.98,11.21-10.33,17.68l-.92.3s1.06-17.33-.16-21.22c-.9-1.96-9.27-1.77-10.61,1.68-1.34,3.45-8.04,27.83-8.51,38.02,0,0-13.09,11.1-24.49,12.93-11.4,1.82-14.15-5.3-14.15-5.3,0,0,31.03-8.66,30.06-33.46-.97-24.79-25.02-15.63-27.73-13.58-2.71,2.05-16.62,10.42-20.71,33.79-.14.8-.39,4.26-.39,4.26,0,0-12.01,8.06-18.71,10.2,0,0,18.71-31.48-4.1-45.78-10.49-6.38-18.62,6.7-18.62,6.7,0,0,30.87-34.36,24.03-63.41-3.27-13.83-10.17-15.31-16.51-13.09-9.64,3.82-13.3,9.44-13.3,9.44-8.49,13.64-13.76,29.03-15.44,45-2.88,26.91-7.07,59.47-7.07,59.47,0,0-5.92,5.76-11.39,6.08-5.46.32-3.04-16.29-3.04-16.29,0,0,4.24-25.23,3.94-29.49-.3-4.26-.6-6.54-5.62-8.06-5.02-1.52-10.56,4.86-10.56,4.86,0,0-14.45,21.91-15.67,25.25l-.76,1.36-.76-.9s10.19-29.81.46-30.25c-9.73-.44-16.13,10.61-16.13,10.61,0,0-11.1,18.55-11.56,20.67l-.76-.92s4.65-21.55,3.66-26.88c-.28-2.68-2.69-4.62-5.37-4.34-.19.02-.38.05-.57.1,0,0-6.38-.76-8.05,3.34-1.66,4.1-7.76,31.31-8.52,40,0,0-15.91,11.39-26.52,11.55-10.61.16-9.43-6.65-9.43-6.65,0,0,38.46-13.17,27.97-39.18-4.72-6.68-10.19-8.84-17.95-8.63-7.76.21-17.47,4.88-23.69,18.87-2.72,5.58-4.32,11.64-4.69,17.84,0,0-6.65,1.36-10.31-1.68-3.66-3.04-5.48,0-5.48,0,0,0-6.24,8.93,0,11.35,5.2,1.85,10.52,3.35,15.91,4.51,1.72,6.55,5.64,12.31,11.09,16.32,11.4,8.66,33.3-1.25,33.3-1.25l8.97-5.3s.3,8.12,6.84,9.32c6.54,1.2,9.28-.09,20.69-27.76,6.68-14.15,7.07-13.4,7.07-13.4l.76-.18s-5.18,27.05-3.2,34.36c1.98,7.3,10.61,6.54,10.61,6.54,0,0,4.72,1.26,8.52-12.11,2.99-9.55,6.77-18.84,11.28-27.78h.9s-3.18,27.32,1.77,36.14c4.95,8.82,17.43,2.76,17.43,2.76,3.52-1.75,6.92-3.73,10.19-5.91,7.2,5.51,16.21,8.1,25.23,7.25,33.01-6.49,44.74-15.3,44.74-15.3,4.24,9.12,13.16,15.16,23.2,15.72,11.49,1.12,22.87-2.96,31.03-11.12,0,0-.16,8.21,6.84,11.1,7,2.9,11.71-12.63,11.71-12.63l11.71-31.56h1.06s.62,20.26,12.17,23.61c11.55,3.34,26.52-8.19,26.52-8.19,0,0,3.75-2.37,3.13-8.45h0Zm-327.13,2.99c.46-18.09,12.38-25.99,16.43-22.03,4.05,3.96,2.58,12.47-5.16,17.79-7.74,5.32-11.23,4.24-11.23,4.24h-.04Zm154.39-70.08s10.8-28.13,13.39-14.45c2.58,13.69-22.67,54.44-22.67,54.44.32-9.14,9.28-40,9.28-40h0Zm12.96,78.3c-7.07,18.71-24.49,11.1-24.49,11.1,0,0-1.96-6.7,3.66-25.41,5.62-18.71,18.85-11.39,18.85-11.39,0,0,9.05,6.98,1.98,25.69Zm47.9-8.22s-1.68-5.92,4.56-17.33c6.24-11.41,11.1-5.16,11.1-5.16,0,0,5.3,5.78-.76,14.45-3.31,5.02-8.93,8.05-14.94,8.05h.04Z"/></svg>