<?xml version="1.0" encoding="UTF-8"?><svg id="Layer_1" xmlns="http://www.w3.org/2000/svg" viewBox="0 0 500 500"><defs><style>.cls-1{fill:#ed4035;}</style></defs><path class="cls-1" d="m102.19,323.22l26.75,23.37s.02,0,.02,0c-6.59-6.64-12.18-14.26-16.52-22.64-3.23.44-6.67.31-10.25-.73Z"/><path class="cls-1" d="m104.61,302.71c-.69-2.96-1.24-5.98-1.63-9.04l-.79,6.85s.83,1.02,2.42,2.19Z"/><path class="cls-1" d="m339.69,207.65h-9.42v-17.63H114.92l-11.94,103.65c.39,3.06.94,6.08,1.63,9.04,3.98,2.93,12.88,6.78,26.4-2.19,0,0,9.95,5.37,4.58,9.56,0,0-9.67,12.04-23.14,13.87,4.34,8.38,9.93,16,16.52,22.64.24-.01,17.57-.81,44.25-18.59,0,0,18.51-4.18,8.36,8.96,0,0-2.5,6.6-34.48,23.89,1.71,1.02,3.44,2,5.21,2.91h65.6l-62.46,2.93s-2.3-.16-3.14,2.93v5.91c0,6.7,5.49,12.19,12.19,12.19h103.53c6.7,0,12.19-5.49,12.19-12.19v-11.77c17.05-8.79,31.07-22.81,39.92-39.86h19.56c31.96,0,58.12-26.16,58.12-58.12s-26.16-58.12-58.12-58.12Zm-187.58,50.31c-11.65,0-21.1-9.45-21.1-21.1s9.45-21.1,21.1-21.1,21.1,9.45,21.1,21.1-9.45,21.1-21.1,21.1Zm187.58,47.68h-12.5c2.04-7.59,3.09-15.48,3.09-23.7v-56.03h9.42c21.87,0,39.86,17.94,39.86,39.86s-18,39.86-39.86,39.86Z"/><g><path class="cls-1" d="m287.94,112.29h0c7.36,0,13.33,5.97,13.33,13.33v53.08h-26.66v-53.08c0-7.36,5.97-13.33,13.33-13.33Z"/><path class="cls-1" d="m254.46,112.29h0c7.36,0,13.33,5.97,13.33,13.33v53.08h-26.66v-53.08c0-7.36,5.97-13.33,13.33-13.33Z"/><path class="cls-1" d="m220.99,112.29h0c7.36,0,13.33,5.97,13.33,13.33v53.08h-26.66v-53.08c0-7.36,5.97-13.33,13.33-13.33Z"/><path class="cls-1" d="m187.51,112.29h0c7.36,0,13.33,5.97,13.33,13.33v53.08h-26.66v-53.08c0-7.36,5.97-13.33,13.33-13.33Z"/><path class="cls-1" d="m154.04,112.29h0c7.36,0,13.33,5.97,13.33,13.33v53.08h-26.66v-53.08c0-7.36,5.97-13.33,13.33-13.33Z"/></g></svg>