<?xml version="1.0" encoding="UTF-8"?><svg id="Layer_1" xmlns="http://www.w3.org/2000/svg" viewBox="0 0 500 500"><defs><style>.cls-1{fill:#0e96c0;}.cls-2{fill:#34a753;}</style></defs><g><path class="cls-2" d="m375.18,78.01v2.93c-.14.37-.36.73-.39,1.11-1.17,12.73-2.33,25.47-3.48,38.2-1.7,18.82-3.36,37.64-5.07,56.45-2.04,22.38-4.12,44.76-6.16,67.15-1.87,20.52-3.7,41.04-5.51,61.56-.13,1.52-.62,2.2-2.25,2.52-28.5,5.63-56.98,11.33-85.46,17.06-5.15,1.04-10.27,2.25-15.41,3.38h-2.93c-.43-.18-.84-.43-1.29-.52-33.19-6.66-66.39-13.33-99.59-19.92-1.65-.33-2.1-1.04-2.24-2.54-1.29-14.6-2.63-29.2-3.95-43.81-1.7-18.82-3.37-37.64-5.08-56.46-1.71-18.82-3.46-37.63-5.18-56.45-1.77-19.3-3.52-38.61-5.27-57.92-.38-4.18-.72-8.36-1.1-12.75h250.36Zm-22.88,21.07h-204.66c5.8,63.76,11.58,127.32,17.37,190.95,1.08.25,2.02.49,2.96.67,24.1,4.82,48.19,9.67,72.31,14.4,4.02.79,8.33,2,12.2,1.3,19.22-3.45,38.34-7.47,57.49-11.3,8.29-1.65,16.57-3.32,24.98-5.01,5.78-63.7,11.55-127.26,17.34-191.02Z"/><path class="cls-2" d="m281.44,192.85h41.37c-.55,6.24-1.07,12.22-1.61,18.2-1.4,15.41-2.81,30.82-4.21,46.23-.41,4.54-.88,9.08-1.23,13.63-.1,1.38-.64,1.93-2,2.2-17.01,3.36-34,6.77-51,10.17-.63.12-1.27.16-2.15.27v-21.1c4.84-.98,9.82-2,14.81-3,6.38-1.28,12.78-2.52,19.14-3.9.7-.15,1.68-1.08,1.74-1.73,1.26-12.89,2.4-25.79,3.55-38.69.04-.4-.03-.8-.06-1.48h-39.22v-93.74h68.85c-.61,6.86-1.21,13.63-1.83,20.62h-46.15v52.32Z"/><path class="cls-2" d="m239.4,283.64c-4.13-.8-8.1-1.54-12.06-2.33-13.65-2.72-27.29-5.44-40.92-8.25-.79-.16-1.96-1.07-2.03-1.73-1.23-12.15-2.32-24.31-3.46-36.66h20.95c.55,6.13,1.17,12.19,1.61,18.27.12,1.73.57,2.57,2.43,2.86,4.17.66,8.3,1.59,12.7,2.46V119.88h20.79v163.76Z"/></g><g><path class="cls-1" d="m140.78,411.96v-67.9h20.83c3.47,0,6.1.79,7.87,2.37,1.78,1.58,2.96,3.79,3.57,6.64.6,2.84.91,6.18.91,10.01s-.47,6.66-1.41,8.87c-.94,2.21-2.71,3.74-5.3,4.59,2.13.44,3.63,1.5,4.5,3.18.86,1.69,1.29,3.87,1.29,6.54v25.7h-13.39v-26.58c0-1.98-.41-3.21-1.22-3.68-.81-.48-2.12-.71-3.92-.71v30.98h-13.73Zm13.81-42.75h3.28c1.88,0,2.82-2.04,2.82-6.13,0-2.65-.21-4.39-.62-5.21-.41-.82-1.18-1.23-2.31-1.23h-3.16v12.58Z"/><path class="cls-1" d="m194.4,412.58c-4.12,0-7.4-.77-9.84-2.31-2.44-1.54-4.19-3.77-5.25-6.67s-1.58-6.4-1.58-10.49v-23.26c0-5.38,1.54-9.45,4.63-12.21,3.09-2.76,7.33-4.15,12.73-4.15,11.11,0,16.67,5.45,16.67,16.36v4.21c0,5.09-.05,8.51-.15,10.26h-20.06v11.19c0,1.03.06,2.04.19,3.03.13.99.42,1.81.87,2.45.45.64,1.18.96,2.18.96,1.44,0,2.34-.62,2.7-1.87.36-1.25.54-2.87.54-4.88v-5.56h13.73v3.28c0,4.32-.53,7.94-1.6,10.86-1.07,2.92-2.87,5.12-5.4,6.6-2.53,1.48-5.99,2.22-10.36,2.22Zm-2.93-35.15h6.56v-7.79c0-2.08-.26-3.58-.77-4.5-.51-.91-1.29-1.37-2.31-1.37-1.11,0-1.96.44-2.57,1.31-.61.88-.91,2.39-.91,4.55v7.79Z"/><path class="cls-1" d="m232.37,421.99c-2.68,0-4.97-.13-6.89-.41-1.92-.27-3.63-.75-5.15-1.45-1.52-.7-3.04-1.67-4.55-2.93l4.67-7.99c3.37,2.01,6.74,3.01,10.11,3.01,2.21,0,3.86-.71,4.94-2.12,1.08-1.42,1.62-3.25,1.62-5.52v-5.67c-1.11,3.96-4.05,5.94-8.83,5.94-2.75,0-4.98-.66-6.67-1.97-1.7-1.31-2.93-3.09-3.7-5.32-.77-2.24-1.16-4.73-1.16-7.49v-20.79c0-3.11.33-5.86,1-8.24s1.84-4.24,3.51-5.58c1.67-1.34,4.01-2.01,7.02-2.01,2.55,0,4.53.64,5.96,1.93s2.38,3.02,2.87,5.21v-6.52h14.08v49.62c0,6.56-1.51,11.25-4.53,14.06s-7.79,4.22-14.29,4.22Zm1.5-27.55c2.16,0,3.24-1.96,3.24-5.87v-19.68c0-1.05-.3-2.13-.91-3.24-.6-1.11-1.43-1.66-2.49-1.66-1.34,0-2.17.5-2.51,1.49s-.5,2.13-.5,3.41v19.68c0,1.39.17,2.71.52,3.97.35,1.26,1.23,1.89,2.64,1.89Z"/><path class="cls-1" d="m256.83,411.96v-67.9h27.16v13.12h-13.35v13.23h12.81v12.77h-12.81v15.55h14.24v13.23h-28.05Z"/><path class="cls-1" d="m286.65,411.96l10.61-31.1-9.65-26.81h14.08l4.98,14.04,4.9-14.04h10.26l-9.95,28.63,10.42,29.28h-13.85l-5.86-16.28-5.48,16.28h-10.46Z"/><path class="cls-1" d="m325.39,421.61v-67.52h14.04v6.17c.85-2.13,2.03-3.8,3.53-5,1.5-1.2,3.66-1.79,6.46-1.79,3.78,0,6.45,1.38,8.01,4.13,1.56,2.75,2.33,6.35,2.33,10.8v28.47c0,2.96-.42,5.63-1.25,8.01-.84,2.38-2.15,4.26-3.94,5.63-1.79,1.38-4.12,2.06-7,2.06-3.75,0-6.47-2.26-8.14-6.79v15.82h-14.04Zm17.32-19.79c1.44,0,2.31-.72,2.6-2.16s.44-3.21.44-5.32v-22.61c0-2.13-.15-3.92-.44-5.34-.3-1.43-1.16-2.14-2.6-2.14s-2.41.73-2.76,2.18c-.35,1.45-.52,3.22-.52,5.3v22.61c0,2.08.17,3.85.52,5.3.35,1.45,1.27,2.18,2.76,2.18Z"/></g></svg>