<?xml version="1.0" encoding="UTF-8"?><svg id="Layer_1" xmlns="http://www.w3.org/2000/svg" viewBox="0 0 500 500"><defs><style>.cls-1{fill:#00ac00;}.cls-2{fill:#f65641;}</style></defs><path class="cls-1" d="m301.72,219.63l.03.47.96-.09c-.03-.29.09-.76.29-1.34l-.09-.85c-.41.03-.82.64-1.2,1.81h0Zm-9.23-22.2l-.09-.85-1.37.12.09.85,1.37-.12Zm-26.79,50.16c-.06-.79-2.51-3.86-7.36-9.26-.09-.99,1.58-2.48,5-4.44l9.76-8.5c2.19-2.78,3.48-7.27,3.86-13.53l-.12-1.43c-.38-4.32-3.51-7.8-9.44-10.46-3.51-2.37-9.82-3.68-18.93-3.92-7.54.64-17.38,3.33-29.51,8.09-3.33,2.4-7.13,4.79-11.39,7.19l.06.73c.26-.03.67-.18,1.14-.5.5-.06.79.18.82.64l.73-.38.35-.03.03.32c.03.38-2.6,2.45-7.92,6.16l.41.76-.35.03-.88-.32c.03.26-.35.44-1.08.5l.03.32.85,1.05c-.26.03-.67-.09-1.23-.29-1.23.12-2.43.76-3.62,1.99l.5-2.16c1.78-7.68,3.01-14.49,3.65-20.39l-.09-.38c-1.23-.79-2.42-1.9-3.53-3.3.03-.91.03-1.43,0-1.55l-.09-.32-.35.09c-3.86,5.78-11.28,15.66-22.29,29.62-8.39,9.93-12.71,15.45-12.97,16.56-3.42,3.54-5.05,5.67-4.88,6.4-.91.58-1.29,1.17-1.14,1.81-.26.06-.44-.03-.5-.29-1.46,2.37-3.62,3.89-6.52,4.56l-3.04.7c-.41.09-.61.38-.58.88l.09.38,1.14-.26.09.32-2.57.99-4.56,1.05-2.4.15c-.35.35,1.9-.03,1.02.18l-2.98.7c-1.81.41-2.8.26-2.98-.47l-.35.09c.06.32.09.55.03.76l-.18-.73-2.4.55c-.17-1.11-3.42-5.14-9.7-12.1-.12-1.34,2.1-3.3,6.63-5.84l12.8-11.25c2.86-3.68,4.56-9.58,5.11-17.7l-.18-1.9c-.5-5.73-4.64-10.34-12.45-13.91-4.62-3.13-12.91-4.79-24.89-5.05-9.93.85-22.9,4.38-38.86,10.55-4.38,3.18-9.38,6.34-14.99,9.47l.09.99c.38-.03.88-.23,1.49-.58.64-.06.99.23,1.05.82l.99-.56.5-.03.03.47c.03.47-3.45,3.18-10.49,8.15l.56.88-.5.03-1.08-.38c.03.29-.47.5-1.49.58l.06.53,1.17,1.29c-.38.03-.91-.09-1.58-.32-2.28.2-4.5,1.84-6.69,4.94l.56.88c1.9-1.75,3.01-2.63,3.33-2.66l.12,1.43c-.32.03-.82.23-1.49.58l1.2,1.81c2.26-2.44,4.82-4.59,7.62-6.4,1.37.35,2.1.79,2.13,1.26l1.05-.09c7.54-5.58,14.99-9.61,22.38-12.1l.09.99c-1.37,2.05-2.31,3.1-2.81,3.16.06.7.29,1.31.73,1.84.12,1.26-3.24,9.73-10.05,25.39-15.46,36.4-28.43,63.34-38.97,80.75.03.35.23.82.61,1.4,2.6-.61,4.24-1.26,4.94-1.87l.55-.06.09.99.96-.09.99-.55c.03.29.35.44,1.02.38l.09.99c.09.96-.47,2.42-1.64,4.44-1.05,1.2-2.19,3.71-3.39,7.54l.03.47.96-.09c4.21-4.7,7.39-9.32,9.58-13.82,12.27-3.59,21.62-7.13,28.11-10.6,6.51-.56,11.48-2.28,14.87-5.11l-.06-.53-2.45.73-.56.06-.06-.53c4.79-.73,8.09-1.78,9.93-3.24,9.32-7.19,16.36-12.27,21.12-15.28,9.79-7.19,16.16-14.2,19.05-21.01.53-.12,1.05-.23,1.64-.38,1.37-.06,2.13-.09,2.34-.15-.06-.26.06-.41.32-.47,2.19-.23,1.14.15,2.54-.18l3.68-.85.61-.15-.29.18c.41.06.85.03,1.34-.09l.26,1.08-16.74,26.61-3.71,4.65-1.81,6.08.35-.09,1.81-.76-.58,2.37.18.7.5.61c-.23.06-.32.2-.26.47l.09.38.76-.18c1.11-.96,1.58-1.84,1.4-2.63,1.2.2,1.99.29,2.4.18l.09.38c-.73.18-1.11.76-1.17,1.75l.09.38.41-.09c6.08-6.63,20.98-29.33,32.93-44.73-.38-1.66,5.84-3.97,18.7-6.95l.41-.09c.47,2.02-.53,6.89-2.98,14.64-1.58,4.67-2.34,7.24-2.22,7.65-2.05,6.22-3.01,9.58-2.89,10.11l-4.56,14.93c-2.95,7.66-5.2,15.69-6.78,24.16.26-.06.67-.03,1.26.12l.64-.56c.06.26.23.35.5.29l-.26-1.08,1.99-.06c.58-.15,1.08-.88,1.49-2.22-.09-2.02.32-3.1,1.23-3.33,1.23-4.79,1.99-7.19,2.25-7.27,1.14-4.76,1.99-7.48,2.54-8.15,1.72-6.19,2.98-9.38,3.8-9.58l.18.76-1.26,3.24c-2.19,9.73-4.41,17.41-6.66,23.05l.64,2.8.41-.09c5.43-11.69,13.26-34.83,23.46-69.42.29-3.04,1.75-5.41,4.35-7.07l-.58-.61-.09-.32c1.17-.26,1.99-.73,2.45-1.37-.06-.26-1.08-.64-3.07-1.17l5.08-21.79c1.11-.99,1.75-1.52,1.96-1.52l.09,1.11c-.26.03-.67.18-1.14.5l.96,1.37c1.75-1.9,3.65-3.54,5.73-4.91,1.05.29,1.58.64,1.64.99l.76-.06c5.78-4.24,11.45-7.27,17.03-9.12l.06.73c-1.02,1.55-1.72,2.34-2.1,2.37.06.53.2.99.47,1.4.09.96-2.43,7.39-7.57,19.31-11.74,27.61-21.59,48.03-29.6,61.29.03.26.2.61.53,1.08,1.96-.47,3.21-.96,3.71-1.43l.35-.03.06.73.82-.06.73-.38c.03.2.29.29.79.26l.06.79c.06.7-.35,1.81-1.26,3.33-.85.91-1.72,2.81-2.66,5.7l.03.38.76-.06c3.18-3.56,5.61-7.07,7.27-10.52,9.32-2.75,16.42-5.41,21.33-8.03,5-.44,8.76-1.72,11.34-3.89l-.03-.38-1.9.56-.41.03-.03-.38c3.62-.53,6.16-1.34,7.54-2.42,7.07-5.43,12.42-9.32,16.04-11.6,11.28-8.21,16.54-16.1,15.89-23.66h0Zm-1.93.5l.26,2.95c-.35.73-.73,1.11-1.08,1.14l-.44-5.03c.82.29,1.23.58,1.26.93h0Zm-221.22-23.78l-.5.03-.09-.91,2.02-.18.03.47c-.32.03-.82.2-1.46.58h0Zm-9.85,98.48c-1.17-.53-2.22-.73-3.13-.64l-.12-1.43c-.06-.55.26-.93.96-1.08.64-.06,1.02.41,1.08,1.34,1.69-2.07,2.63-3.13,2.8-3.16l1.08.44c-.35,2.92-1.26,4.41-2.69,4.53Zm105.2-110.05c-.5.06-1.49-1.49-2.92-4.56l-.09-.91c.93-.09,1.9,1.43,2.92,4.56l.09.91Zm-1.4-10.9l-.41.96-14.29-5.96c9.52.32,14.43,1.99,14.7,5Zm-60.33,51.8l-2.02.18-.09-.91,2.02-.18.09.91Zm-1.64-31.11l.5-.03.12,1.43c-.47.03-1.08.73-1.84,2.07l-.09-.99c.91-1.08,1.37-1.9,1.31-2.48h0Zm-4.24,9.99l.18,1.9-.5.03-.18-1.9.5-.03Zm-2.22,3.56l.96-.09c-.09,1.58-.53,2.43-1.31,2.48l-.5.03c.61-1.05.91-1.87.85-2.42Zm-1.67,4.97l.56-.06.03.47-.91,1.52-.96.09-.03-.47c.96-.09,1.4-.58,1.31-1.55h0Zm-1.64,4.47l-.29,2.4-.5.03-.2-2.37.99-.06Zm-16.39,46.6c-.64,3.27-1.34,4.94-2.07,5l-.03-.47c-.18-1.61.53-3.13,2.1-4.53h0Zm-3.01,6.51l.03.47c.06.64-.23,1.02-.88,1.05l-.03-.47c-.06-.55.23-.91.88-1.05Zm-.88,13.53l1.52-.15.06.53c-.38.03-.88.23-1.49.58l-.96.09c-.06-.5.26-.88.88-1.05h0Zm43.24-13.35c-8.53,4.21-13.56,7.07-15.05,8.56-9.23,3.21-13.82,5.2-13.73,5.99-8.21,3.24-13.61,5.64-16.21,7.13-.61.06-1.49-.18-2.66-.7-.15-1.66.61-3.01,2.22-4.09,1.43-.12,2.8.09,4.12.64,1.52-.79,4.18-1.66,7.95-2.6l-.09-.99-3.04.26c.38-.53,3.3-1.9,8.79-4.12l1.52-.15.03.47c-2.6.23-4.03.99-4.35,2.37.06.61.41.88,1.05.82,1.96-1.23,2.92-1.96,2.89-2.16,3.71-.7,13.96-6.08,30.76-16.1l.09.91c.03.44-1.4,1.66-4.29,3.77Zm-25.77,8.47c2.45-.2,4.56-1.2,6.31-2.92.7-.06,1.08.2,1.11.82-1.2.12-3.51,1.11-6.87,3.04l-.5.03-.06-.96h0Zm41.57-31.93l-12.88,10.23c-9.58,6.28-14.72,9.44-15.48,9.5-15.25,8.38-24.75,12.74-28.43,13.06l-.56.06c.47-1.72,7.25-15.6,20.39-41.72,5.78-.5,14.9-3.18,27.32-8.09l3.04-.26c6.28-.55,10.98.67,14.08,3.59l.18,1.9c-2.31,6.69-4.88,10.61-7.65,11.74h0Zm-25.18-14.17l2.07-.18.03.47-2.07.18-.03-.47Zm29.13-4.94l1.52-.15c1.4.67,2.13,1.26,2.19,1.78l.03.47c-1.34.12-2.6-.58-3.74-2.1Zm4.12-23.46c-1.34,1.61-5.03,4.35-11.04,8.21-1.99.18-9.38,3.04-22.17,8.65-.64-.29-1.34-.41-2.05-.35l-.09-.91c-.15-1.84.67-4.15,2.48-6.95.99-5.26,2.07-8.27,3.27-9l10.66-23.99c-.12-1.49,2.16-2.63,6.84-3.42l1.52-.15.12,1.37c4.59-.7,7.45-1.11,8.56-1.2,8.47-.73,12.88.99,13.23,5.11l.96-.09-.2-2.42,1.05-.09c2.48,1.37,3.83,3.04,4,5,.12,1.34-.61,3.01-2.16,5-.64.06-1.02-.41-1.08-1.34l-1.05.09-.23,2.92c-4.29,6.43-7.42,9.73-9.35,9.9-1.75,2.42-2.83,3.62-3.27,3.65h0Zm6.54,16.8c-.88-.58-1.58-.85-2.1-.82l-.12-1.43.96-.09,2.13,1.26c.09.67-.2,1.02-.88,1.08h0Zm6.78,8.03c.93.38,1.49.79,1.61,1.17l-.47.12.03.03c-.09,0-.2.03-.29.06l-.7.55-.17-1.93h0Zm.64,4.03l-.09-.38,1.23-.29.09.38-1.23.29h0Zm2.95,3.3c1.26-.2,1.87-.29,4.21-.82l.09.38-4.44,1.02c.06-.2.12-.41.15-.58h0Zm4.32,1.84c-1.87.18-1.46-.06-4.44.61l-.09-.38,3.74-1.2,1.78-.41.18.7c-.82.18-.23.18-1.17.67Zm3.94-.93c-.44.12-.79-.09-.99-.58l1.14-.26c.5-.12.82.09.93.58l-1.08.26h0Zm10.69-11.51l-.09-.38,1.84-.44.18.7-1.93.12Zm11.42,70.06c.12-.53.15-.91.09-1.17l.41-.09c.5-.12.79.06.91.53l.09.38-1.49.35h0Zm8.01-67.05l-.82-.15c-1.31.53-2.42.91-3.33,1.11l-.76.18c-.44.12-.79-.06-.96-.53l5.35-1.23,1.75-.82.58.67c-.85.18-1.46.44-1.81.76h0Zm4.12-1.31l-.09-.38c.26-.06.61-.26.99-.64l3.8-.88.09.38c-2.02.5-3.62.99-4.79,1.52Zm.58-7.68c-.26.06-.61.29-1.05.64-.06-.26-.58-.26-1.58-.03-.18-.73,2.63-1.75,8.44-3.1l.82-.18.18.7c-4.09,1.2-6.37,1.87-6.81,1.96h0Zm10.23-11.04c-.41,4.64-2.05,7.27-4.94,7.95l-.09-.38-2.57.99-1.14.26c-.58.15-1.11.12-1.58-.03l-.23-1.02c-.09-.38,3.62-5.52,11.16-15.4l.88.15c.32,1.34-.17,3.83-1.49,7.48h0Zm18.08-15.48l-.35.03-.06-.73,1.52-.15.03.38c-.26.06-.64.2-1.14.47Zm-7.45,74.82c-.88-.41-1.66-.58-2.34-.53l-.09-1.11c-.03-.38.2-.64.7-.79.5-.06.79.29.85,1.05,1.26-1.61,1.96-2.42,2.1-2.42l.79.32c-.29,2.22-.96,3.39-2.02,3.48Zm79.87-83.56c-.38.03-1.11-1.14-2.25-3.51l-.06-.73c.73-.06,1.49,1.08,2.25,3.42l.06.82h0Zm-1.05-8.36l-.35.76-10.81-4.53c7.22.23,10.96,1.49,11.16,3.77Zm-45.84,39.35l-1.52.15-.06-.73,1.52-.15.06.73Zm-1.26-23.64l.41-.03.09,1.11c-.38.03-.85.56-1.4,1.58l-.06-.73c.67-.85.99-1.49.96-1.93h0Zm-3.18,7.6l.12,1.43-.41.03-.12-1.43.41-.03Zm-1.72,2.72l.76-.06c-.09,1.23-.41,1.87-.96,1.93l-.41.03c.44-.82.64-1.46.61-1.9h0Zm-1.23,3.74l.35-.03.03.38-.67,1.17-.76.06-.03-.38c.79-.06,1.14-.47,1.08-1.2h0Zm-1.23,3.39l-.26,1.87-.35.03-.15-1.84.76-.06h0Zm-12.48,35.44c-.5,2.45-1.02,3.71-1.58,3.77l-.03-.32c-.09-1.23.44-2.4,1.61-3.45h0Zm-2.31,4.94l.03.32c.06.53-.18.82-.7.85l-.03-.38c-.03-.38.2-.64.7-.79h0Zm-.64,10.28l1.17-.09.03.38c-.26.03-.67.18-1.14.44l-.76.06c-.03-.41.2-.67.7-.79h0Zm32.81-10.14c-6.43,3.18-10.25,5.35-11.45,6.46-7.01,2.45-10.49,3.97-10.43,4.59-6.22,2.48-10.31,4.27-12.24,5.41-.47.03-1.14-.15-2.02-.55-.12-1.26.47-2.28,1.7-3.04,1.11-.09,2.16.06,3.13.47,1.17-.58,3.18-1.23,6.05-1.96l-.06-.73-2.37.2c.29-.41,2.54-1.46,6.72-3.16l1.17-.09.03.32c-1.99.18-3.1.76-3.33,1.81.03.47.32.7.82.64,1.46-.96,2.16-1.52,2.16-1.69,2.81-.5,10.58-4.59,23.34-12.24l.06.73c0,.29-1.08,1.23-3.27,2.83h0Zm-19.57,6.43c1.9-.18,3.51-.91,4.85-2.19.5-.03.79.18.82.64-.88.09-2.6.82-5.2,2.22l-.41.03-.06-.7h0Zm31.61-24.28l-9.73,7.83c-7.27,4.76-11.22,7.16-11.83,7.22-11.57,6.37-18.76,9.67-21.59,9.9l-.41.03c.35-1.31,5.52-11.86,15.51-31.67,4.35-.38,11.25-2.45,20.71-6.19l2.37-.2c4.76-.41,8.33.53,10.66,2.78l.12,1.43c-1.78,5.03-3.71,7.98-5.81,8.88h0Zm-19.11-10.75l1.52-.15.03.38-1.52.15-.03-.38Zm22.12-3.77l1.17-.09c1.08.53,1.64.99,1.66,1.37l.03.32c-1.02.09-1.99-.44-2.86-1.61Zm3.07-17.79c-1.02,1.23-3.8,3.33-8.33,6.25-1.52.15-7.13,2.31-16.83,6.51-.47-.18-.99-.23-1.55-.2l-.06-.73c-.12-1.4.5-3.16,1.84-5.29.76-4.03,1.61-6.28,2.48-6.81l8.15-18.23c-.09-1.08,1.64-1.96,5.14-2.63l1.17-.09.09,1.11c3.45-.55,5.61-.88,6.49-.96,6.43-.56,9.79.73,10.05,3.89l.76-.06-.15-1.75.76-.06c1.87,1.02,2.86,2.25,2.98,3.71.09,1.05-.44,2.34-1.55,3.83-.5.06-.79-.29-.85-1.05l-.76.06-.23,2.19c-3.24,4.94-5.61,7.48-7.1,7.6-1.31,1.78-2.13,2.69-2.51,2.72h0Zm3.42,12.15l-.09-1.11.76-.06,1.64.99c.03.47-.2.73-.7.79-.7-.44-1.23-.64-1.61-.61h0Zm-136,70.96l-.76.18-.64.55c.12.47.41.64.91.53.5-.12.7-.41.58-.88l-.09-.38h0Zm-2.89-5.76l.09.38c.5-.12.7-.41.58-.88l-.09-.38c-.47.12-.67.41-.58.88h0Zm20.68-38.86l.56-.35c-.12,0-.2-.03-.29-.06-.2.06-.29.2-.26.41Zm-.12-10.08l.88-.2-.18-.76-.88.2.18.76Zm206.47,29.51l-1.99-.23-.35.76.03.38,11.83-.99-.06-.73-9.47.82Zm10.81-.91l.06.73h.12l-.06-.73h-.12Zm49.64-6.49l.06.73,1.29.23-.06-.73-1.29-.23Zm-1.81.15c-8.88,1.99-9.99,1.64-11.86,1.78l.06.73.82-.06.44-.03-.12-.09.96-.38c8.79-.96,9.82-.61,9.73-1.61l-.03-.35Zm-53.32-12.91l-.79-.26c-.64,1.72-.96,2.75-.93,3.04l.03.32c.61-.03,1.17-1.08,1.7-3.1Zm-10.69-5.76l-.03-.38-.41.03-.73.47.41.7c.55-.06.82-.32.76-.82h0Zm23.23,24.01l-.06-.73-.23.03.06.73.23-.03h0Zm48.21-10.87l.55-.06c.32-.03.47-.29.44-.76l-.32-.7c-2.02.18-2.95.26-4.59,1.17l-.03-.38-2.43.23c-.06-.73-.26-1.11-.58-1.08l-1.26.12c-1.46.12-2.16.06-2.89.61-.03-.26-.12-.38-.26-.38l-1.4.12-.82.47c-.03-.26-.12-.38-.26-.38l-.5.44-.03-.38-1.96-.15-.47.03.06.73.99.26.93-.06c.32.2.67.26,1.08.23l.82-.41.03.32c-4.59,1.14-4.56.93-7.71,1.46-.35-.23-.61-.35-.79-.32l-.06.06c-.35-.03-.55-.26-.58-.64l1.64-.2c.12,0,.2.12,1.11.29,1.31-.64,1.37-.91,2.07-.96l-.06-.73c-4.5.88-2.69.29-8.33.79l-.26.03-.06-.73c7.25-.88,4.82-.38,7.3-1.08.03.26.12.38.26.38.27-.27.62-.45.99-.5l.5-.03c2.54-.2,3.39.29,8.41-1.11l.03.32.82-.41.76-.06c-.06-.73,1.05-.85,1.43-.88l-.06-.79c-8.82,1.78-11.13,1.29-13.59,1.99l-.03-.32c-2.31.41-2.4.23-2.98.26-.18.03-.44.18-.73.47-.03-.26-.12-.38-.29-.38-.09,0-.12.03-.15.03l-7.48,1.23c-.03-.2-.12-.32-.29-.29-3.89.82-2.83.96-8.03,1.43-.23.03-.55.15-.96.41-.03-.2-.15-.32-.41-.29l-3.18.26-2.13.53c-.03-.2-.15-.32-.41-.29-1.2.32-2.25.53-3.1.58h-.06c-.53.06.26-.15-.15-.32l-.64.38c-.93.09-.44-.06-3.65-.03-5.64.7-5.03.79-5.64.82l-2.1-.15c.03.2-.09.35-.32.35-2.4-.32-3.62-.7-3.65-1.14.32-2.28.88-3.45,1.66-3.51l.41-.03-.35.76.41-.03c.76-.41,1.11-.79,1.08-1.14l-.06-.79-.76.06-.06-.73c-.06-.55.03-1.05.23-1.46l1.72-2.78.06.73.82-.06-.06-.73-.47-.67c.61-.53,1.08-.82,1.46-.85l-.03-.38-1.11.09-.09-1.11c2.22-4.62,3.27-7.3,3.21-8.06l.79.32c.5-.03.73-.32.7-.85l-.76.06-.03-.32c-.05-.53.05-1.07.29-1.55,1.2-1.26,1.75-2.51,1.64-3.83.23-.03.35.09.38.35,1.02-.58,1.81-2.13,2.4-4.7,1.81-3.27,4.38-9.82,7.74-19.6,6.43-17.3,6.16-19.14,7.07-23.23l-.76.06c.06.53-.06,1.02-.29,1.49-.53-.2-.93-.32-1.23-.29l-.03-.32c-.12-1.49.5-3.27,1.9-5.38l.35-.03.64,2.51.76-.06c-.03-.18.18-1.17.58-3.01-.03-.38-.32-.61-.91-.64l-.73.47c-.06-.53-.03-1.9.06-4.09l-.38.03c-.64-.64-.96-1.17-.99-1.61l-4.18.41c-.03-.29-.17-.73-.47-1.29-.03-.38.91-.76,2.83-1.14l.85.32.79-.47c.03.26.18.38.47.35l.79-.47c.03.26.18.38.47.35l.38-.03-.06-.85c-.58.06-2.13.06-4.59-.03l-.79.53-.03-.47c-19.6,1.61-30.73,2.51-33.39,2.78-.35.03-1.72,0-4.15-.06.03.32-.26.5-.85.56l-.85-.38-2.86.73c-.67.06-1.81.03-3.39-.15-.44.35-.96.56-1.61.61-.35.03,4.18-.23,8.39-.53-.44.35-1.11.55-2.05.64-.64.06-1.2-.03-1.66-.29-.64.29-2.72.76-6.19,1.46l-.85-.32-13.67,2.1c-.53-.26-1.14-.35-1.84-.29-.73.06-1.96.32-3.65.79l-6.6,2.75.5.82c.32-.03.79-.2,1.34-.53l2.34.2-.29,2.19c-2.16.96-3.42,2.4-3.77,4.21-3.24,1.43-4.85,2.45-4.85,3.07l.03.38.5-.03.88-.47,1.02,1.23.15,1.69c.06.53-5.4,12.01-16.33,34.45-9.47,21.62-14.43,33.45-14.9,35.58-3.24.91-5.11,2.22-5.67,3.97.06.55,1.02.93,2.89,1.08l.09.85-.85,1.4.15,1.7c.09.88,2.45,1.55,7.1,2.02-.03-.29.12-.47.44-.5.09,1.05-.2,3.1-.88,6.14l.5-.03c1.93-2.63,2.83-4.44,2.75-5.43l.41-.03c.47-.03.96.5,1.55,1.64-.58.23-2.63,4.88-6.14,13.96l.5.82.5-.03c4.29-10.87,6.98-16.89,8.09-18.03,5.64-.5,15.4-1.49,29.24-2.98l.88-.53c.03.29.2.44.53.41l.91-.09.88-.53c.03.29.2.44.53.41l10.49-.91c2.78-.23,4.09-1.08,3.97-2.51-.03-.38,1.61-.82,4.91-1.29.32-.03.79.06,1.43.26-.03-.26,1.64-.53,4.97-.82.09-1.75.64-2.69,1.64-2.78l-.09-.85c-.93.09-1.99.32-3.21.73-2.19-.12-3.59-.29-4.18-.5-.58.32-1.02.5-1.34.53l-7.3.23-.88.47c-.03-.26-.2-.38-.53-.35l-.41.03-.93.47c-.03-.26-.79-.47-2.31-.67l-.93.55-1.81.15-.03-.47c9.41-1.02,14.05-2.31,13.94-3.83.61-.06.93.23.99.85l2.75-.7-.09-.85-22.53.61c.03.29-.12.47-.44.5l-2.75-.23c-.7.06-1.28.26-1.75.61l-1.02-.38c-2.83.23-4.94.58-6.34,1.02-1.93-.15-4.06-.12-6.43.09l-5.05.44-2.34-.26c-.12-1.49,2.78-8.82,8.74-21.97,1.72-4.44,3.3-7.22,4.82-8.27.32-.03.79.09,1.43.35l3.59-1.23,1.84.29c3.1-.26,6.69-1.14,10.81-2.66,1.02-.09,1.78-.03,2.34.2l2.75-.64,8.18-.7c3.48-.29,7.25-1.05,11.34-2.31l-.09-.85c-1.52.15-2.31-.12-2.37-.73-.09-1.14-1.2-1.61-3.33-1.43l-.09-.85,2.25-.64,5.9-.5-.09-.85c-.23.03-1.43,0-3.65-.09l-.09-.91,2.28-.2c.61-.06.88-.35.82-.93-3.07.09-4.62-.06-4.64-.47-21.39,1.05-32.11,1.26-32.17.58-.32.03-.76.23-1.34.58l-.55-.88c5.67-12.04,9-18.11,9.96-18.2.03.47-.2,1.23-.7,2.25l.03.38.91-.09c2.25-5.38,4.15-8.15,5.73-8.27,6.72-.58-.93-1.02,13.44-3.27.58.26.99.38,1.28.35,5.64-1.14,13.5-2.34,23.58-3.56l-.06-.85-5.38.5-.06-.85c.64-.06,1.17-.26,1.61-.61l.03.47c.29-.03.7-.23,1.23-.58.93-.09,1.64,0,2.13.26,1.87-.5,3.39-.79,4.5-.91l3.36-.32c.82-.53,1.2-.99,1.17-1.43l-.03-.38c-.85.09-1.81.03-2.95-.18-.03-.47.2-.79.76-.93l6.25-.58,2.86-.73c.03.32.18.44.41.44.29-.03.7-.23,1.23-.58.15.03.32.03.47.06-.38.79-.82,1.93-1.26,3.42l-.82.06c-.06-.56-.2-1.05-.47-1.49l-.41.03c-7.6,21.15-10.98,31-18,47.24-1.29,4.15-2.37,6.46-3.3,6.95.03.47.32.7.82.64.18,2.05-.29,4.06-1.43,6.05-3.24,9.35-5.41,14.46-6.52,15.4l.73,4.41c.03.47-.2.73-.7.79l-.76.06c-.12-1.23-.56-1.81-1.34-1.72l-.41.03c-.99,1.55-1.75,3.33-2.25,5.41l.76-.06c1.02-.67,1.49-1.46,1.4-2.37l1.52-.15.88.32c-.7,1.11-1.02,1.99-.96,2.66l.41.7-.99,2.34.03.38c.88-.09,1.84.2,2.86.82.7-.06,1.46-.38,2.31-.93.88-.09,4.15-.12,9.79-.12l2.83-.96c3.45-.03,4,.06,6.98-.2l1.23-.12.64-.44.03.38c3.13-.26,3.33-.06,5.78.23l.03.38-1.72.15.06.73c.53-.06.99-.2,1.37-.53.44-.03.7.2.73.73-.7.06-1.49.23-2.37.53l-.76-.26c-1.2.32-.93.41-1.75.47l-1.2-.23c.03.2-.09.35-.29.35.03.47.29.7.73.67l1.23-.12,6.4-.56,2.42-.53c.03.2.12.32.32.29l1.17-.44,2.19-.18c1.69-.15,1.66-.26,5.35-.85-.03-.23.06-.32.23-.35l.03.32c5.99-1.02,6.37-1.08,7.33-1.4l.09.18c1.49-.35.64-.26,1.05-.55.03.26.12.38.26.38l1.05-.09-.06-.79-2.13-.03-.03-.06c-.09.03-.15.03-.23.06h-.29v.06c-1.43.29-1.46.09-2.4.18l-5.35.29-.03-.38,2.98-.41,1.08-.09.61-.44.03.38c4.21-.35,5.7.7,25.15-3.45,1.05-.09.96-.96,1.64-2.78-.36.02-.71-.06-1.02-.23-1.61.61-2.45.32-5.55.82-.26.03-.47-.2-.56-.67l-.03-.32,2.98.09c.56-.06,1.64-.15,3.24-1.05,0,.26-.61.41-.26.38h0Zm-143.86,2.31l-1.37.12c-.06-.55.67-2.66,2.19-6.25l.91-.09c.03.85-.53,2.92-1.72,6.22Zm1.67-6.66l-.03-.38c-.03-.47.26-.79.91-.93l.03.38c.03.56-.26.88-.91.93Zm18.26,14.11l.03.38-2.28.2-.03-.38,2.28-.2Zm-2.75-.23c.03.47-.67.99-2.19,1.52l-2.81-.2-.91.09-.09-.85,5.99-.55Zm18.46-84.99l-1.37.12-.03-.47c-.03-.47.23-.79.82-.93l.5-.03.93.38c.03.56-.23.88-.85.93Zm20.89-4.09l.44-.03.06.85-1.26.12c-.03-.47.2-.79.76-.93h0Zm-5.26,1.84l-2.07-.23-.03-.38c2.72-.23,3.62-.53,5.29-.99.03.32.32.44.85.38l.06.85-.82.09c-.64.06-1.2-.03-1.67-.29-.5.32-1.02.53-1.61.58Zm2.6,7.57l-.03-.38,3.36-.32.03.38-3.36.32Zm3.59-2.92l-.03-.47,1.64-.15.03.47-1.64.15Zm.38-5.73l-.44.03.38-.91,3.74-.35.03.47c-.96.09-2.22.35-3.71.76Zm1.9,8.06l-.06-.85,1.64-.15c.55-.06.85.2.88.79l-2.45.2h0Zm9.9-13.5l-2.1.58-.38.03c-.99.09-2.28.06-3.8-.09,2.72-.18,5.32-.38,6.28-.53h0Zm-2.25,9.35l.03.38-2.89.26-.03-.38,2.89-.26Zm4.73,2.25c-.03-.35-.58-.58-1.72-.7l-2.89.82-2.22.09c-.5-.35-.76-.58-.79-.76l2.57.15,5.78-.93,2.95.12.03.47c-1.46.15-2.69.41-3.71.76h0Zm29.77-7.68c.35.03.58.03.67.03,1.02-.99,2.16-1.78,3.48-2.34-1.05,4.62-2.69,8.03-4.94,10.25l-1.64-.99c1.37-3.48,2.19-5.78,2.43-6.95Zm-5.03,8.62l.41-.03c-.55,1.05-1.05,1.61-1.46,1.64l-.09-1.11c.26,0,.64-.18,1.14-.5h0Zm-3.24,7.74c.79-3.16,1.55-4.94,2.25-5.4l.03.38c-.41,2.92-1.05,4.47-1.9,4.59l.15,1.84c-.7.99-1.02,1.75-.99,2.34l-.41.03-.23-2.54c.47-.06.85-.47,1.11-1.23Zm-1.26,4.21c.03.44-.26,1.46-.85,3.04l-.41.03-.09-1.11c.56-1.29,1.02-1.93,1.34-1.96h0,0Zm-23.58,68.42l-.03-.32.76-.06.09,1.11c-.41.03-.7-.2-.82-.73h0Zm33.69.88c-.03-.26-.15-.38-.41-.35l-1.9.18-.03-.38h.18l4.5-.38.03.38c-1.31.06-2.1.26-2.37.56Zm-2.25-.93c.18.09.09.18,0,.23-.09-.03-.2-.12,0-.23Zm.23-5.26l-2.51.2-.03-.38,2.28-.2,1.99-.5c.03.23.15.32.41.29,2.37-.41,2.13-.53,3.27-.61.38-.03.61.2.64.67l-6.05.53h0Zm8.79-.76c-1.4-.15-1.49-.26-2.48-.18l-.03-.32,2.25-.2.03.32c-.23.03.61.09.23.38Zm.18-.41l-.03-.32,1.23-.12.03.32-1.23.12Zm2.72-.23l-.03-.32c.2-.03.5-.18.88-.47.61-.06.93.35.99.82l-1.84-.03h0Zm3.48-.44l-.03-.38,1.49-.12.03.38-1.49.12Zm2.07-.18c-.03-.44.15-.7.53-.76l.5.64c-.03-.2.06-.32.23-.35l.38.7-1.64-.23h0Zm28.75-3.39l.03-.03v-.03s-.03.03-.03.06h0Zm.53-.38c.23-.15.35-.29-.2-.38-.26.29.29.38-.29.41l.03.26c.06-.06.2-.15.32-.23l-.32.26v.03l-.61.79,1.23-.44h.15l-.06-.73-.23.03Zm2.13,1.67l-.23.03.06.73,1.72-.15c-.03-.47-1.17-.61-1.55-.61Z"/><g><path class="cls-2" d="m394.64,255.51c-2.39,0-4.61-.24-6.65-.71-2.04-.47-3.88-1.18-5.52-2.12l5.85-10.66c1.7,1.19,3.74,1.79,6.13,1.79,2.01,0,3.6-.6,4.77-1.79,1.16-1.2,2-3.08,2.5-5.66l10.19-50.67h14.72l-10.1,50.29c-2.58,13.02-9.88,19.53-21.89,19.53Zm27.08-76.9c-2.58,0-4.66-.74-6.23-2.22-1.57-1.48-2.36-3.29-2.36-5.43,0-2.52.9-4.61,2.69-6.27,1.79-1.67,4.14-2.5,7.03-2.5,2.58,0,4.67.71,6.28,2.12,1.6,1.42,2.41,3.16,2.41,5.24,0,2.71-.9,4.89-2.69,6.56-1.79,1.67-4.17,2.5-7.12,2.5Z"/><path class="cls-2" d="m448.62,237.21c-4.47,0-8.67-.5-12.6-1.51-3.93-1.01-6.97-2.26-9.11-3.77l5.66-10.66c2.2,1.45,4.89,2.61,8.07,3.49,3.18.88,6.37,1.32,9.58,1.32,3.46,0,5.98-.44,7.55-1.32,1.57-.88,2.36-2.08,2.36-3.59,0-1.19-.66-2.09-1.98-2.69-1.32-.6-2.99-1.09-5-1.46-2.01-.38-4.17-.82-6.46-1.32-2.3-.5-4.47-1.21-6.51-2.12-2.05-.91-3.71-2.23-5-3.96-1.29-1.73-1.93-4.01-1.93-6.84,0-3.84,1.09-7.08,3.26-9.72,2.17-2.64,5.19-4.65,9.06-6.04,3.87-1.38,8.26-2.08,13.16-2.08,3.52,0,6.95.38,10.29,1.13,3.33.76,6.16,1.79,8.49,3.11l-5.28,10.76c-2.39-1.51-4.89-2.53-7.5-3.07-2.61-.53-5.11-.8-7.5-.8-3.46,0-5.96.49-7.5,1.46-1.54.98-2.31,2.16-2.31,3.54,0,1.2.64,2.12,1.93,2.78,1.29.66,2.94,1.2,4.95,1.6,2.01.41,4.18.85,6.51,1.32,2.33.47,4.5,1.16,6.51,2.08,2.01.91,3.66,2.2,4.95,3.87,1.29,1.67,1.93,3.92,1.93,6.75,0,3.84-1.12,7.09-3.35,9.77-2.23,2.67-5.27,4.67-9.11,5.99-3.84,1.32-8.21,1.98-13.12,1.98Z"/></g></svg>