<?xml version="1.0" encoding="UTF-8"?><svg id="Layer_1" xmlns="http://www.w3.org/2000/svg" viewBox="0 0 500 500"><defs><style>.cls-1{fill:#fff;}.cls-2{fill:#faa819;}.cls-3{fill:#e68624;}.cls-4{fill:#c8c8c8;}.cls-5{fill:#fcc068;}.cls-6{fill:#463014;}</style></defs><path class="cls-2" d="m127.64,152.65s6.49,25.03,7.41,33.37c.93,8.34-16.68,26.88-16.68,36.15s3.7,25.95,24.1,34.3c20.39,8.34,23.17,29.66,23.17,42.64s-7.41,38-7.41,38c0,0-4.63,62.1,20.39,73.22,25.02,11.12,19.46,11.12,25.02,11.12s46.34,16.69,70.44,10.2c24.1-6.49,30.58-13.9,30.58-13.9,0,0,24.1,1.85,31.52-19.47,7.42-21.32,12.05-65.81,9.27-86.2-2.78-20.39-6.49-47.27,10.19-56.54,16.69-9.27,34.3-20.39,31.52-29.66-2.78-9.27-17.61-22.25-17.61-22.25,0,0-3.71-23.17-.93-28.73,2.78-5.56,19.46-19.47,10.19-29.66-9.26-10.19-25.95-10.19-25.95-10.19l-21.32,1.85s-36.15-32.44-83.42-30.59c-47.27,1.85-76.93,30.59-76.93,30.59,0,0-15.76-5.56-29.66,0-13.9,5.56-16.68,0-13.9,15.76Z"/><path class="cls-3" d="m212.33,290.65s-18.36,28.07-31.82,47.98c-2.08,3.08,13.46,3.29,13.46,3.29l18.36-51.28h0Zm8.74-58.19s-5.53,13.8-8.56,21.12c-3.29,7.96-15.83,11.91-15.83,11.91,0,0,6.5-6.82,6.5-24.1,0-7.25,9.36-10.13,9.36-10.13l8.54,1.19h0Z"/><path class="cls-3" d="m215.48,240.27s-11.34,13.49-32.38,5.94c-21.05-7.55-23.21-34.55-23.21-42.1s39.94,7.56,45.34,10.8c5.4,3.24,15.65,16.19,10.25,25.37h0Zm-79.51-144.19s19.43-3.78,32.38,6.48c12.96,10.26,16.73,18.35,16.73,18.35l-21.83,17.31s-10.55-4.89-13.79-18.93c-3.24-14.03-1.08-20.51-13.49-23.21h0Z"/><path class="cls-3" d="m209.81,201.29c-8.37-11.88-22.15-17.06-33.16-17.91-18.77-1.47-27.68,5.17-27.68,5.17,0,0,30.74,1.3,39.6,12.94,16.49,21.66,40.56,23.42,44.41,18.66-4.45.22-9.34-1.98-14.58-6.94-3.27-3.1-5.93-8.15-8.58-11.92Zm-51.89,41.99s-34.11-11.73-27.62-23.6c6.48-11.88,1.32-18.35,1.32-18.35,0,0-19.04,14.22-14.19,29.33,2.98,9.28,7.99,15.99,35.46,28.87,13.18,24.48,2.72,68.54,3.35,68.75,1.04.35,18.5-8.63,17.31-49.85-.36-12.66-1.38-29.94-15.63-35.15h0Zm44.69-126.08c-14.3,7.27-33.89,17.38-33.89,17.38l7.71,3.86c-.74,1.19-1.09,1.9-1.09,1.9l7.91,3.6s19.32,14,31.16,23c-3.95-12.16-15.53-31.25-15.53-31.25,0,0-3.28-8.77,3.73-18.49h0Zm47.51,296.16c-43.96,0-58.85-22.32-58.85-22.32l6.87,16.73c2.6,7.24,30.3,29.76,51.91,29.76"/><path class="cls-3" d="m196.09,375.97s4.04,24.72,20.24,24.72c13.76,0,17.82-20.88,17.82-25.19l-38.05.48h0Zm-26.95-37.28c1.44-3.96,6.48-19.97,8.09-34.55,1.94-17.45,1.23-42.98,1.23-42.98,0,0-4.32,16.73-8.1,19.44-3.78,2.7-10.8,21.05-10.8,21.05,0,0-3.76,27.32-5.55,36.5,4.95.99,9.12-1.93,15.12.54h0Zm-39.11-108.29s9.17-3.24,11.88-23.21c2.7-19.97-3.24-37.25-3.24-37.25,0,0,.54,27.53-2.7,32.93-3.24,5.4-5.94,7.02-9.72,14.03-3.78,7.02,1.62,11.33,3.78,13.49h0Z"/><path class="cls-5" d="m140.99,100.8l-1.87-1.19c-5.52.19,1.87,1.19,1.87,1.19Z"/><path class="cls-2" d="m210.08,111.28s-8.63-1.44-12.95-7.91c-4.32-6.48-16.55-19.43-36.06-19.58-19.5-.15-38.79,5.18-38.79,5.18l16.84,10.64c1.78-.06,4.9-.03,10.05.14,21.14.7,24.39,21.61,24.39,21.61l74.49-10.26"/><path class="cls-1" d="m217.28,226.75s-10.08,10.08-25.55,6.84c-15.48-3.24-24.83-10.08-25.55-21.95-.72-11.88,3.24-16.55,3.24-16.55,0,0,17.27,5.4,25.55,12.6,8.28,7.2,14.39,18.71,22.31,19.07h0Z"/><path class="cls-4" d="m205.08,223.15s-8.74,3.99-18.51.74c-12.79-4.27-13.64-17.56-13.64-17.56,0,0-7.85,23.02,14.15,27.45,17.64,3.55,28.07-6.67,28.07-6.67l-10.08-3.96h0Z"/><path class="cls-6" d="m211.29,106.4c-.94-19.74,15.24-35.47,20.85-36.14.31,3.35-.31,16.4,5.29,20.41,1.63-10.66,7.15-22.41,28.95-30.11-4.67,12.38-.62,22.75,1.3,27.56,14.88-13.51,24.91-11.28,24.91-11.28,0,0-10.34,17.84-6.3,29.55-29.88-2.34-74.86,3.17-75.01,0h0Zm-63.34,30.07c-7.13-5.91-1.82-11.4-2.38-18.12-.31-3.58-.59-6.95-1.77-8.81-6.56-10.36-22.04-13.5-22.19-13.53l-7.26-1.42,4.81-5.62c.62-.73,20.37-19.57,50.92-9.7,21.37,6.89,37.2,30.27,37.79,31.21l-10.72,5.04c-.13-.2-12.64-22.17-30.97-28.08-14.82-4.78-28.48-.23-34.34,2.75,6.22,2.48,14.35,7.01,19.25,14.74,2.31,3.65,2.7,8.25,3.08,12.71.5,5.9.96,11.47,5.3,15.07l-11.53,3.77Zm-19.04,86.33s8.98-11.14,11.64-32.81c1.04-8.54-.81-25.37-3.78-31.85.54,15.92-3.51,31.85-3.51,31.85,0,0-2.73,29.57-4.35,32.81h0Z"/><path class="cls-6" d="m176.27,125.22s-2.88-12.6-10.86-18.94c-11.25-8.95-24.99-4.19-25.12-4.15l-1.99-6.16c.66-.22,16.37-5.16,30.84,5.01,14.56,10.23,16.31,19.51,16.46,20.53l-9.32,3.72h0Zm-19.15,89.59s-4.71-6.75-3.86-14.16c.42-3.66,2.12-7.42,5.15-8.76,5.63-2.47,8.13,3.91,8.13,3.91,0,0-7.93,1.96-9.41,19.01h0Z"/><path class="cls-6" d="m208.86,225.1c.2.37.3.57.3.57,0,0-14.7,11.03-29.76-.16-8.06-6-7.3-20.83-4.83-27.12,6.42,1.46,11.87,4.08,16.42,7.14-5.75-5.14-10.79-8.92-10.78-9l-6.54-1.85-12.71-4.36c-.16.97-4.8,22.7,8.59,37.51,5.93,6.57,33.74,21.27,46.95-3.87l-7.63,1.14h0Z"/><path class="cls-6" d="m207.48,226.71c8.27,12.59,29.15,5.4,28.79-7.92,0,0-13.95,7.7-26.27-6.48-7.2-8.27-30.25-31.09-61.52-23.51,21.59,4.75,50.18,24.48,59,37.9h0Z"/><path class="cls-6" d="m145.56,262.26c1.99,1.15,9.01,8.42,9.01,19.29,0,5.45-.54,32.84-3.24,49.58,4.06,2.64,6.89,3.2,10.93,5.89,2.02-19.38,3.47-47.47,2.8-58.81-.77-12.93-7.7-21.6-14.11-25.3-2.01-1.16-4.11-2.29-6.22-3.44-10.99-5.94-22.36-12.09-22.36-22.58,0-8.21,3.19-10.78,6.57-13.5l.36-.29c2.24-1.81,4.78-3.87,6.28-7.24,4.1-9.22,4.77-32.71,0-38.67-2.38-2.97-8.75-12.96-6.92-19.68.7-2.56,2.31-4.46,4.94-5.81,2.78-1.42,6.54-2.15,11.16-2.15,9.08,0,19.15,2.76,24.35,4.41,18.57,5.89,40.98,22.86,47.4,27.92.18.14.29.22.31.24l4.11,2.86-2.57-4.3c-.16-.27-16.44-27.04-45.55-36.85-5.66-1.91-16.79-5.11-27.72-5.11-6.51,0-12.03,1.14-16.41,3.38-5.33,2.73-8.94,7.08-10.44,12.58-3.68,13.48,8.3,28.49,8.7,28.97,1.4,2.49,1.99,20.59-1.24,27.83-.44,1-1.66,1.98-3.2,3.23-.48.39-1.02.8-1.59,1.23-4.55,3.43-11.43,8.62-11.43,20.58,0,16.36,16.58,25.23,29.91,32.37,2.19,1.18,4.27,2.29,6.16,3.38Z"/><path class="cls-6" d="m147.96,136.47c-7.13-5.91-1.82-11.4-2.38-18.12-.31-3.58-.59-6.95-1.77-8.81-6.56-10.36-22.04-13.5-22.19-13.53l-7.26-1.42,4.81-5.62c.62-.73,20.37-19.57,50.92-9.7,21.37,6.89,37.2,30.27,37.79,31.21l-10.72,5.04c-.13-.2-12.64-22.17-30.97-28.08-14.82-4.78-28.48-.23-34.34,2.75,6.22,2.48,14.35,7.01,19.25,14.74,2.31,3.65,2.7,8.25,3.08,12.71.5,5.9.96,11.47,5.3,15.07l-11.53,3.77Z"/><path class="cls-6" d="m147.72,137.68l-.46-.38c-5.29-4.39-4.35-8.71-3.44-12.89.41-1.93.85-3.92.67-5.97-.29-3.44-.57-6.69-1.6-8.32-6.25-9.86-21.34-13.02-21.49-13.05l-9.07-1.78,6.01-7.03c.11-.13,12.79-12.93,34.26-12.93,5.85,0,11.85.97,17.82,2.9,22.31,7.19,38.22,31.43,38.37,31.67l.64,1.03-12.68,5.96-.51-.81c-1.37-2.33-13.39-22.15-30.39-27.63-4.18-1.35-8.58-2.03-13.07-2.03-8.15,0-14.75,2.22-18.27,3.71,5.87,2.65,13,7.1,17.51,14.21,2.45,3.87,2.85,8.61,3.24,13.18.48,5.69.93,11.03,4.92,14.35l1.51,1.25-13.96,4.58h0Z"/><path class="cls-6" d="m176.27,125.22s-2.88-12.6-10.86-18.94c-11.25-8.95-24.99-4.19-25.12-4.15l-1.99-6.16c.66-.22,16.37-5.16,30.84,5.01,14.56,10.23,16.31,19.51,16.46,20.53l-9.32,3.72h0Z"/><path class="cls-6" d="m175.5,126.69l-.28-1.24c-.03-.12-2.85-12.26-10.48-18.33-4.35-3.46-9.59-5.22-15.58-5.22-4.67,0-8.14,1.12-8.52,1.25l-1.03.34-2.68-8.22,1.03-.33c.46-.15,4.63-1.45,10.52-1.45,7.78,0,15.13,2.28,21.27,6.6,14.93,10.49,16.75,20.19,16.9,21.26l.13.85-11.29,4.5h0Zm-26.33-26.94c6.39,0,12.25,1.97,16.92,5.68,6.77,5.4,9.96,14.92,10.92,18.33l7.34-2.93c-.66-2.59-3.59-10.37-15.83-18.98-5.86-4.12-12.59-6.2-20.03-6.2-4.08,0-7.25.65-8.82,1.04l1.32,4.09c1.54-.41,4.49-1.05,8.17-1.05Zm66.49,295c-3.19,0-6.44-1.16-8.7-3.11-1.73-1.49-7.57-6.85-10.14-13.43-.96-2.46-.75-4.42.65-5.84.96-.97,2.96-2.13,7.01-2.13h2.88c3.43,0,9.21,0,14.16,0h4.74c3.08,0,5.29.67,6.56,1.97,1.63,1.68,1.11,3.81.65,4.93-.79,1.97-4.08,8.36-9.64,14.31-1.99,2.13-4.89,3.31-8.16,3.31h0Zm3.34-167.3l-11.52-.74s2.94,5.19,4.85,11.9c2.15,7.59-1.97,18.69-1.97,18.69,0,0,15.35-17.38,8.63-29.85Zm-14.38,197.71c-40.99-3.15-55.41-41.88-55.41-49.95h10.7s-5.35,0-5.35,0h5.35c.05,3.49,10.95,36.62,45.52,39.28l-.82,10.67h0Z"/><path class="cls-1" d="m193.1,355.77c-.64-3.7-.71-7.21.07-10.66-3.11-2.34-8.7-3.21-12.9-4.57-3.43-2.17-20.98,2.22-33.71-13.18-15.95-19.29-12.6-30.81-12.6-30.81-4.09,4.54-8.05,2.81-14.29,24-6.24,21.19,2.93,35.97,20.03,50.8,8.08,7.01,19.5,9.89,29.32,11-3.29-3.3,5.62-3.63,11.76-5.93-.49-4.96.33-9.77,4.03-13.65,2.23-2.34,5.1-3.73,8.07-4.85.17-.38.31-.74.46-1.11-.1-.34-.19-.69-.26-1.03Z"/><path class="cls-4" d="m180.71,376.28c-.36-1.04-.62-2.1-.89-3.17-.28-1.17-1.7-4.47.04-.7-.45-.97-.74-1.96-.96-2.96-27.69-.04-51.78-19.05-47.12-59.02-3.62-4.81-8.7,9.7-8.7,9.7,0,0-13.86,40.25,21.94,55.85,11.93,5.2,22.47,8.93,24.96,7.43,5.18,1.05,9.86-2.56,11.61-4.93-.33-.73-.63-1.46-.88-2.2h0Z"/><path class="cls-6" d="m192.61,349.98c.04-3.37.73-6.64,2.36-9.9.11-.22.25-.44.37-.66-10.66-.09-22.93-1.11-33.38-5.29-11.49-4.59-25.85-20.31-28.32-38.78,0,0-21.63,16.69-15.28,52.42,5.97,33.55,34.04,44.48,66.06,46.33.02-.22-3.6-7.69-2.46-12.27-18.18,1.32-38.51-5.7-48.32-21.85-8.99-14.78-6.46-40.01-2.77-43.71,9.01,28.42,41.42,34.2,61.74,33.7Z"/><path class="cls-6" d="m195.96,329.63c-5.76,16.91-17.53,30.59-17.53,30.59,0,0,16.19-.74,17.08-3.6.66-2.11,14.62-34.78,19.97-73.05-5.04,8.28-19.03,44.61-19.53,46.06h0Z"/><path class="cls-3" d="m287.67,290.65s18.35,28.07,31.82,47.98c2.08,3.08-13.47,3.29-13.47,3.29l-18.35-51.28h0Zm-8.74-58.19s5.53,13.8,8.56,21.12c3.29,7.96,15.83,11.91,15.83,11.91,0,0-6.5-6.82-6.5-24.1,0-7.25-9.36-10.13-9.36-10.13l-8.54,1.19h0Z"/><path class="cls-3" d="m284.52,240.27s11.34,13.49,32.39,5.94c21.05-7.56,23.21-34.55,23.21-42.1s-39.94,7.56-45.34,10.8c-5.4,3.24-15.65,16.19-10.26,25.37h0Zm79.51-144.19s-19.43-3.78-32.39,6.48c-12.95,10.26-16.73,18.35-16.73,18.35l21.84,17.31s10.55-4.89,13.79-18.93c3.24-14.03,1.08-20.51,13.49-23.21h0Z"/><path class="cls-3" d="m290.19,201.29c8.37-11.88,22.15-17.06,33.16-17.91,18.77-1.47,27.68,5.17,27.68,5.17,0,0-30.74,1.3-39.6,12.94-16.5,21.66-40.55,23.42-44.4,18.66,4.45.22,9.35-1.98,14.58-6.94,3.27-3.1,5.93-8.15,8.58-11.92Zm51.89,41.99s34.1-11.73,27.63-23.6c-6.48-11.88-1.33-18.35-1.33-18.35,0,0,19.05,14.22,14.19,29.33-2.98,9.28-7.99,15.99-35.46,28.87-13.18,24.48-2.72,68.54-3.34,68.75-1.04.35-18.5-8.63-17.31-49.85.36-12.66,1.38-29.94,15.62-35.15Zm-44.69-126.08c14.3,7.27,33.89,17.38,33.89,17.38l-7.71,3.86c.74,1.19,1.09,1.9,1.09,1.9l-7.91,3.6s-19.32,14-31.16,23c3.94-12.15,15.53-31.25,15.53-31.25,0,0,3.29-8.77-3.73-18.49Zm-47.51,296.16c43.95,0,58.84-22.32,58.84-22.32l-6.87,16.73c-2.6,7.24-30.3,29.76-51.91,29.76"/><path class="cls-3" d="m303.91,375.97s-4.05,24.72-20.24,24.72c-13.76,0-17.81-20.88-17.81-25.19l38.05.48Zm26.95-37.28c-1.44-3.96-6.48-19.97-8.1-34.55-1.94-17.45-1.23-42.98-1.23-42.98,0,0,4.32,16.73,8.09,19.44,3.78,2.7,10.8,21.05,10.8,21.05,0,0,3.76,27.32,5.55,36.5-4.95.99-9.11-1.93-15.11.54h0Zm39.11-108.29s-9.18-3.24-11.88-23.21c-2.7-19.97,3.24-37.25,3.24-37.25,0,0-.54,27.53,2.7,32.93,3.24,5.4,5.94,7.02,9.72,14.03,3.78,7.02-1.62,11.33-3.78,13.49Z"/><path class="cls-5" d="m359.01,100.8l1.88-1.19c5.52.19-1.88,1.19-1.88,1.19Z"/><path class="cls-2" d="m289.92,111.28s8.64-1.44,12.95-7.91c4.32-6.48,16.56-19.43,36.06-19.58,19.5-.15,38.79,5.18,38.79,5.18l-16.84,10.64c-1.78-.06-4.9-.03-10.05.14-21.13.7-24.39,21.61-24.39,21.61l-74.49-10.26"/><path class="cls-1" d="m282.72,226.75s10.08,10.08,25.55,6.84c15.48-3.24,24.83-10.08,25.55-21.95.72-11.88-3.24-16.55-3.24-16.55,0,0-17.28,5.4-25.55,12.6-8.28,7.2-14.39,18.71-22.31,19.07Z"/><path class="cls-4" d="m294.92,223.15s8.74,3.99,18.51.74c12.79-4.27,13.64-17.56,13.64-17.56,0,0,7.84,23.02-14.15,27.45-17.64,3.55-28.07-6.67-28.07-6.67l10.08-3.96h0Z"/><path class="cls-6" d="m352.05,136.47c7.13-5.91,1.82-11.4,2.38-18.12.3-3.58.58-6.95,1.76-8.81,6.56-10.36,22.04-13.5,22.19-13.53l7.27-1.42-4.81-5.62c-.62-.73-20.37-19.57-50.93-9.7-21.37,6.89-37.19,30.27-37.78,31.21l10.71,5.04c.13-.2,12.64-22.17,30.98-28.08,14.82-4.78,28.48-.23,34.33,2.75-6.22,2.48-14.35,7.01-19.25,14.74-2.31,3.65-2.7,8.25-3.07,12.71-.5,5.9-.97,11.47-5.31,15.07l11.53,3.77h0Zm19.04,86.33s-8.98-11.14-11.64-32.81c-1.04-8.54.81-25.37,3.78-31.85-.54,15.92,3.51,31.85,3.51,31.85,0,0,2.73,29.57,4.35,32.81Z"/><path class="cls-6" d="m323.73,125.22s2.88-12.6,10.86-18.94c11.25-8.95,24.99-4.19,25.12-4.15l2-6.16c-.67-.22-16.37-5.16-30.85,5.01-14.56,10.23-16.3,19.51-16.46,20.53l9.32,3.72Zm19.15,89.59s4.71-6.75,3.86-14.16c-.42-3.66-2.12-7.42-5.15-8.76-5.63-2.47-8.13,3.91-8.13,3.91,0,0,7.93,1.96,9.42,19.01h0Z"/><path class="cls-6" d="m291.14,225.1c-.2.37-.3.57-.3.57,0,0,14.69,11.03,29.75-.16,8.07-6,7.31-20.83,4.83-27.12-6.42,1.46-11.87,4.08-16.42,7.14,5.76-5.14,10.79-8.92,10.78-9l6.55-1.85,12.71-4.36c.16.97,4.8,22.7-8.59,37.51-5.93,6.57-33.74,21.27-46.94-3.87l7.64,1.14h0Z"/><path class="cls-6" d="m292.52,226.71c-8.27,12.59-29.15,5.4-28.79-7.92,0,0,13.95,7.7,26.27-6.48,7.19-8.27,30.26-31.09,61.52-23.51-21.59,4.75-50.18,24.48-59.01,37.9h0Z"/><path class="cls-6" d="m354.45,262.26c-1.99,1.15-9.02,8.42-9.02,19.29,0,5.45.54,32.84,3.24,49.58-4.06,2.64-6.89,3.2-10.93,5.89-2.02-19.38-3.48-47.47-2.8-58.81.77-12.93,7.69-21.6,14.11-25.3,2.01-1.16,4.11-2.29,6.23-3.44,10.99-5.94,22.36-12.09,22.36-22.58,0-8.21-3.19-10.78-6.57-13.5l-.36-.29c-2.24-1.81-4.78-3.87-6.28-7.24-4.1-9.22-4.77-32.71,0-38.67,2.38-2.97,8.76-12.96,6.92-19.68-.7-2.56-2.32-4.46-4.94-5.81-2.78-1.42-6.53-2.15-11.16-2.15-9.08,0-19.15,2.76-24.35,4.41-18.57,5.89-40.98,22.86-47.4,27.92-.18.14-.29.22-.31.24l-4.11,2.86,2.57-4.3c.16-.27,16.44-27.04,45.55-36.85,5.66-1.91,16.79-5.11,27.72-5.11,6.51,0,12.03,1.14,16.41,3.38,5.33,2.73,8.94,7.08,10.44,12.58,3.68,13.48-8.3,28.49-8.71,28.97-1.39,2.49-1.99,20.59,1.23,27.83.44,1,1.66,1.98,3.2,3.23.48.39,1.02.8,1.59,1.23,4.55,3.43,11.43,8.62,11.43,20.58,0,16.36-16.58,25.23-29.91,32.37-2.19,1.18-4.28,2.29-6.16,3.38h0Z"/><path class="cls-6" d="m334.66,134.55c-2.64-4.47-9.38-13.09-24.93-20.67-17.35-8.46-37.43-12.75-59.69-12.76h0s-.09,0-.09,0h0c-22.26.01-42.35,4.31-59.69,12.76-15.55,7.58-22.29,16.21-24.93,20.67l-1.13,1.5,13.31,2.96.42-.53.22-.49c.21-.88,1.99-5.63,16.83-12.87,15.87-7.74,34.38-11.66,55-11.67,20.63,0,39.13,3.93,55,11.67,14.84,7.24,16.63,11.99,16.84,12.87l.22.49.42.53,13.32-2.96-1.13-1.5h0Z"/><path class="cls-6" d="m352.05,136.47c7.13-5.91,1.82-11.4,2.38-18.12.3-3.58.58-6.95,1.76-8.81,6.56-10.36,22.04-13.5,22.19-13.53l7.27-1.42-4.81-5.62c-.62-.73-20.37-19.57-50.93-9.7-21.37,6.89-37.19,30.27-37.78,31.21l10.71,5.04c.13-.2,12.64-22.17,30.98-28.08,14.82-4.78,28.48-.23,34.33,2.75-6.22,2.48-14.35,7.01-19.25,14.74-2.31,3.65-2.7,8.25-3.07,12.71-.5,5.9-.97,11.47-5.31,15.07l11.53,3.77h0Z"/><path class="cls-6" d="m338.33,133.11l1.5-1.25c3.99-3.31,4.44-8.66,4.92-14.35.39-4.57.79-9.31,3.24-13.18,4.5-7.11,11.63-11.56,17.51-14.21-3.52-1.49-10.12-3.71-18.27-3.71-4.5,0-8.89.68-13.07,2.03-17.01,5.48-29.03,25.31-30.39,27.63l-.51.81-12.68-5.96.65-1.03c.15-.24,16.06-24.48,38.37-31.67,5.97-1.93,11.96-2.9,17.82-2.9,21.47,0,34.15,12.8,34.26,12.93l6.01,7.03-9.07,1.78c-.15.03-15.25,3.19-21.5,13.05-1.04,1.64-1.31,4.88-1.6,8.32-.17,2.05.26,4.04.68,5.97.91,4.18,1.84,8.51-3.44,12.89l-.46.38-13.95-4.58h0Z"/><path class="cls-6" d="m323.73,125.22s2.88-12.6,10.86-18.94c11.25-8.95,24.99-4.19,25.12-4.15l2-6.16c-.67-.22-16.37-5.16-30.85,5.01-14.56,10.23-16.3,19.51-16.46,20.53l9.32,3.72Z"/><path class="cls-6" d="m313.21,122.2l.13-.85c.16-1.07,1.98-10.77,16.9-21.26,6.14-4.31,13.49-6.6,21.27-6.6,5.9,0,10.07,1.3,10.53,1.45l1.02.33-2.67,8.22-1.03-.34c-.39-.13-3.86-1.25-8.52-1.25-5.98,0-11.22,1.76-15.57,5.22-7.63,6.07-10.45,18.21-10.48,18.33l-.28,1.23-11.29-4.5h0Zm45.79-21.4l1.33-4.09c-1.57-.4-4.74-1.04-8.82-1.04-7.44,0-14.18,2.09-20.03,6.2-12.25,8.61-15.17,16.39-15.84,18.98l7.35,2.93c.96-3.42,4.14-12.94,10.92-18.33,4.68-3.72,10.53-5.68,16.92-5.68,3.68,0,6.64.63,8.17,1.05h0Zm-82.82,290.65c-5.56-5.95-8.85-12.34-9.65-14.31-.46-1.12-.97-3.25.66-4.93,1.27-1.3,3.47-1.96,6.56-1.96h4.74c4.94,0,10.72,0,14.16,0h2.88c4.05,0,6.04,1.16,7,2.13,1.4,1.41,1.61,3.38.65,5.84-2.57,6.57-8.42,11.94-10.14,13.43-2.26,1.95-5.51,3.11-8.7,3.11s-6.17-1.18-8.16-3.31h0Zm4.81-163.99l11.51-.74s-2.94,5.19-4.85,11.9c-2.15,7.59,1.97,18.69,1.97,18.69,0,0-15.36-17.38-8.63-29.85Z"/><path class="cls-3" d="m250,186.34c-7.34,0-16.91-.2-24.09-5.36,0,0,9.4,16.48,24.08,16.48v-2.09s.02,2.09.02,2.09c14.68,0,24.08-16.48,24.08-16.48-7.18,5.16-16.76,5.36-24.09,5.36Z"/><path class="cls-6" d="m270.21,186.26c-7.36,4.46-13.94,6-20.21,6.14-6.27-.14-12.85-1.68-20.21-6.14,0,0,10.72,13.08,20.15,13.18h0s.03,0,.05,0c.02,0,.03,0,.05,0h0c9.43-.11,20.16-13.19,20.16-13.19Zm25.17,238.9l-.82-10.67c34.57-2.66,45.46-35.79,45.52-39.28h10.7c0,8.07-14.42,46.8-55.4,49.95Z"/><path class="cls-1" d="m306.9,355.77c.64-3.7.71-7.21-.07-10.66,3.12-2.34,8.7-3.21,12.9-4.57,3.43-2.17,20.98,2.22,33.71-13.18,15.95-19.29,12.59-30.81,12.59-30.81,4.09,4.54,8.05,2.81,14.29,24,6.24,21.19-2.93,35.97-20.03,50.8-8.08,7.01-19.5,9.89-29.32,11,3.29-3.3-5.62-3.63-11.76-5.93.49-4.96-.33-9.77-4.03-13.65-2.22-2.34-5.1-3.73-8.07-4.85-.17-.38-.31-.74-.46-1.11.1-.34.19-.68.25-1.03h0Z"/><path class="cls-4" d="m319.28,376.28c.36-1.04.62-2.1.89-3.17.29-1.17,1.7-4.47-.04-.7.45-.97.74-1.96.96-2.96,27.69-.04,51.78-19.05,47.12-59.02,3.62-4.81,8.7,9.7,8.7,9.7,0,0,13.86,40.25-21.94,55.85-11.93,5.2-22.47,8.93-24.96,7.43-5.19,1.05-9.86-2.56-11.61-4.93.33-.73.63-1.46.88-2.2h0Z"/><path class="cls-6" d="m307.39,349.98c-.04-3.37-.73-6.64-2.36-9.9-.12-.22-.25-.44-.37-.66,10.65-.09,22.93-1.11,33.38-5.29,11.48-4.59,25.85-20.31,28.32-38.78,0,0,21.63,16.69,15.28,52.42-5.97,33.55-34.04,44.48-66.06,46.33-.02-.22,3.6-7.69,2.46-12.27,18.17,1.32,38.5-5.7,48.32-21.85,8.98-14.78,6.46-40.01,2.77-43.71-9,28.42-41.42,34.2-61.74,33.7h0Z"/><path class="cls-6" d="m320.32,358.39c-3.82-4.14-10.86-9.06-27.07-9.06l-43.19-.03h-.11c-12.45,0-43.2.03-43.2.03-16.21,0-23.24,4.93-27.07,9.06-5.57,6.02-6.45,14.39-2.59,24.85,10.25,27.85,24.65,56.15,72.86,56.19h0s.03,0,.05,0c.02,0,.03,0,.05,0h0c48.2-.05,62.61-28.34,72.86-56.19,3.86-10.46,2.98-18.83-2.59-24.85h0Zm-7.51,22.9c-4.88,13.99-18,47.84-62.81,47.9-44.82-.06-57.93-33.91-62.82-47.9-2.7-7.76-2.5-13.5.63-17.07,2.14-2.44,7.05-5.35,18.23-5.35h11.69c8.62-.01,19.45-.02,32.27-.03,12.82,0,23.65.01,32.27.02h11.68c11.19,0,16.1,2.91,18.24,5.35,3.12,3.57,3.33,9.31.63,17.07h0Z"/><path class="cls-6" d="m304.04,329.63c5.76,16.91,17.53,30.59,17.53,30.59,0,0-16.19-.74-17.08-3.6-.66-2.11-14.61-34.78-19.97-73.05,5.03,8.28,19.03,44.61,19.52,46.06h0Z"/></svg>