<?xml version="1.0" encoding="UTF-8"?>
<svg id="Layer_1" data-name="Layer 1" xmlns="http://www.w3.org/2000/svg" viewBox="0 0 500 500">
  <defs>
    <style>
      .cls-1 {
        fill: #fff;
      }

      .cls-2 {
        fill: #27a8e0;
      }

      .cls-3 {
        fill: #f7ec28;
      }
    </style>
  </defs>
  <path class="cls-2" d="m133.11,75.22h291.66v276.64c-1.36.06-2.72.17-4.08.17-21.51.01-43.02,0-64.54,0h-4.36v72.74h-218.51v-160.16h-58.06v-101.79h247.59v116.25h14.29v-131.13h-203.82c0-1.63,0-2.86,0-4.1,0-14.23.02-28.46,0-42.68-.02-8.65-.11-17.29-.17-25.94Zm-12.37,107.3c-5.5,20.78-10.98,41.45-16.52,62.36h13.02c1.01-4.35,2.02-8.63,3.07-13.14,5.01,0,9.89-.08,14.76.09.74.03,1.85,1.13,2.08,1.94.85,2.94,1.3,6,2.13,8.95.24.87,1.22,2.12,1.92,2.16,3.7.22,7.41.1,11.58.1-1.86-7-3.57-13.44-5.27-19.89-3.47-13.18-6.93-26.37-10.43-39.54-.38-1.41-.32-3.17-2.76-3.07-4.42.18-8.86.05-13.58.05Zm78.41,17.31c.73-7.95-2.23-14.18-8.35-16.41-3.65-1.33-7.75-1.96-11.65-1.94-7.33.04-14.06,2.32-16.75,9.91-3.46,9.75-1.88,20.75,10.21,25.3,4.23,1.59,8.41,3.46,12.36,5.65,3.23,1.79,4.19,6.49,2.71,10.36-1.07,2.82-4.98,4.67-8.6,4.08-4.06-.66-6-2.86-6.34-7.21-.1-1.31-.18-2.63-.26-3.92h-12.19c-1.42,9.62,2.96,17.12,11.23,19.25,5.85,1.51,11.74,1.41,17.55-.25,7.39-2.12,11.44-6.94,12.23-14.29,1-9.24-1.55-14.68-8.96-18.49-3.83-1.97-7.89-3.5-11.78-5.38-1.82-.88-3.68-1.88-5.13-3.24-2.23-2.07-2.61-6.41-1.13-9.26,1.45-2.79,3.96-3.52,6.9-3.38,2.87.14,5.2,1.59,5.32,4.33.22,5.15,3.24,5.27,7.03,4.9,1.79-.18,3.61-.03,5.59-.03Zm26.46,20.1c3.54,0,6.5.18,9.44-.03,9.17-.65,15.34-5.49,16.59-13.82.6-4.04.29-8.46-.7-12.44-1.57-6.3-6.13-10.22-12.67-10.67-7.59-.52-15.22-.34-22.83-.42-.75,0-1.49.21-2.16.3v61.93h12.34v-24.84Zm-48.6,44.84c0,4.48-.08,8.55.08,12.62.03.64,1.1,1.76,1.73,1.78,4.15.16,8.31.08,12.53.08v-14.48h-14.34Zm101.84,14.33v-14.28h-14.1v14.28h14.1Zm-116.59-.04v-14.23h-14.11v14.23h14.11Zm44.03-.02h14.25v-14.16h-14.25v14.16Zm29.23,0h14.12v-14.18h-14.12v14.18Zm72.41-14.22h-14.14v14.24h14.14v-14.24Z"/>
  <path class="cls-1" d="m120.75,182.53c4.72,0,9.16.13,13.58-.05,2.45-.1,2.39,1.66,2.76,3.07,3.51,13.17,6.96,26.36,10.43,39.54,1.7,6.45,3.42,12.9,5.27,19.89-4.17,0-7.88.12-11.58-.1-.7-.04-1.68-1.29-1.92-2.16-.83-2.95-1.28-6-2.13-8.95-.23-.81-1.34-1.92-2.08-1.94-4.87-.17-9.76-.09-14.76-.09-1.05,4.51-2.05,8.8-3.07,13.14h-13.02c5.54-20.91,11.01-41.58,16.52-62.36Zm13.85,38.73c-1.95-8.96-3.85-17.69-5.74-26.42-.26.03-.51.06-.77.1-1.86,8.72-3.73,17.44-5.62,26.33h12.14Z"/>
  <path class="cls-1" d="m199.16,199.84c-1.99,0-3.81-.15-5.59.03-3.79.38-6.81.25-7.03-4.9-.12-2.74-2.45-4.19-5.32-4.33-2.93-.14-5.44.59-6.9,3.38-1.48,2.85-1.1,7.18,1.13,9.26,1.46,1.36,3.32,2.36,5.13,3.24,3.89,1.88,7.94,3.41,11.78,5.38,7.41,3.81,9.95,9.25,8.96,18.49-.79,7.34-4.84,12.17-12.23,14.29-5.8,1.66-11.7,1.76-17.55.25-8.27-2.13-12.65-9.64-11.23-19.25h12.19c.09,1.29.16,2.61.26,3.92.34,4.35,2.28,6.55,6.34,7.21,3.62.59,7.53-1.26,8.6-4.08,1.47-3.87.51-8.57-2.71-10.36-3.95-2.2-8.13-4.06-12.36-5.65-12.09-4.55-13.67-15.55-10.21-25.3,2.69-7.59,9.42-9.87,16.75-9.91,3.89-.02,8,.62,11.65,1.94,6.12,2.22,9.08,8.45,8.35,16.41Z"/>
  <path class="cls-1" d="m225.61,219.94v24.84h-12.34v-61.93c.66-.1,1.41-.31,2.16-.3,7.61.09,15.25-.1,22.83.42,6.54.45,11.1,4.38,12.67,10.67.99,3.98,1.31,8.4.7,12.44-1.25,8.34-7.42,13.17-16.59,13.82-2.93.21-5.9.03-9.44.03Zm.19-9.19c4.65.07,9.2.87,12.33-3.36,2.04-2.76,1.99-9.51-.07-12.36-3.18-4.4-7.81-2.86-12.25-3.1v18.82Z"/>
  <path class="cls-3" d="m177.02,264.78h14.34v14.48c-4.21,0-8.37.08-12.53-.08-.63-.02-1.7-1.14-1.73-1.78-.16-4.06-.08-8.14-.08-12.62Z"/>
  <path class="cls-3" d="m278.85,279.11h-14.1v-14.28h14.1v14.28Z"/>
  <path class="cls-3" d="m162.26,279.07h-14.11v-14.23h14.11v14.23Z"/>
  <path class="cls-3" d="m206.29,279.06v-14.16h14.25v14.16h-14.25Z"/>
  <path class="cls-3" d="m235.52,279.07v-14.18h14.12v14.18h-14.12Z"/>
  <path class="cls-3" d="m307.93,264.84v14.24h-14.14v-14.24h14.14Z"/>
  <path class="cls-2" d="m366.83,366.9h56.47c-18.8,18.8-37.71,37.7-56.47,56.45v-56.45Z"/>
  <path class="cls-2" d="m134.6,221.26h-12.14c1.9-8.89,3.76-17.61,5.62-26.33.26-.03.51-.06.77-.1,1.9,8.73,3.8,17.46,5.74,26.42Z"/>
  <path class="cls-2" d="m225.8,210.75v-18.82c4.44.24,9.07-1.3,12.25,3.1,2.06,2.85,2.12,9.6.07,12.36-3.13,4.23-7.67,3.43-12.33,3.36Z"/>
</svg>