<?xml version="1.0" encoding="UTF-8"?><svg id="Layer_1" xmlns="http://www.w3.org/2000/svg" viewBox="0 0 500 500"><defs><style>.cls-1{fill:#cd252b;}.cls-2{fill:#cd242b;}.cls-3{fill:#cc2329;}.cls-4{fill:#cc2027;}.cls-5{fill:#cd262c;}.cls-6{fill:#cc2128;}.cls-7{fill:#cd272e;}.cls-8{fill:#cd262d;}</style></defs><path class="cls-4" d="m103.83,280.82c8.03-37.03,22.97-70.74,45.98-100.63,18.98-24.65,41.98-44.67,70.29-58.15,10.17-4.84,20.8-8.36,32.01-9.7,9.14-1.09,18.31-1.15,27.51-.25,37.85,3.7,70.43,20.09,100.68,41.9,8.54,6.16,16.41,13.26,24.58,19.93.74.6,1.49,1.18,2.49,1.96-2.02,1.59-3.61,2.84-5.16,4.05-6.22-4.11-12.25-8.32-18.5-12.19-15.23-9.43-31.35-16.87-48.89-20.96-9.44-2.2-19.03-3.58-28.71-3.03-25.91,1.47-48.67,10.6-67.15,29.15-12.76,12.8-20.51,28.51-25.06,45.86-2.45,9.34-3.75,18.84-4.43,28.49-.73,10.26-.22,20.45.65,30.65.36,4.15,1.2,8.27,1.85,12.57h-109.74c.52-3.25,1.02-6.35,1.58-9.65Z"/><path class="cls-6" d="m92.71,349.33v-30.62h2.6c13.43,0,26.87,0,40.3,0,12.87,0,24.29,9.81,26.26,22.56,1.02,6.55.72,13.02-1.57,19.26-3.05,8.32-9.04,13.39-18.23,15.37,8.67,8.74,17.13,17.27,25.88,26.1-.95.1-1.52.2-2.1.21-9.78.01-19.55.05-29.33-.06-1.1-.01-2.44-.65-3.23-1.45-5.85-5.91-11.6-11.94-17.8-18.37v19.73h-22.78v-52.73m25.07-9.62h-2.18v18.9c5.13,0,10.05-.17,14.95.06,3.43.16,5.33-1.52,6.61-4.33,1.41-3.1,1.45-6.31.4-9.5-1.26-3.83-3.15-5.12-7.17-5.12-4.05,0-8.09,0-12.61,0Z"/><path class="cls-6" d="m209.6,387.5h-13.39v14.58h-22.99c-.05-.75-.13-1.44-.13-2.14,0-19.39-.05-38.78.01-58.16.04-10.29,6.36-19.13,15.46-21.67,2.19-.61,4.53-.85,6.81-.88,7.31-.11,14.62-.1,21.93-.02,6.1.06,11.5,2.12,16.05,6.24,3.98,3.61,6.12,8.28,6.16,13.51.17,20.97.07,41.94.07,63.09h-22.22v-14.54h-7.75m-3.57-48.41c-1.82.08-3.67,0-5.46.29-2.23.35-4.37,1.4-4.44,3.92-.18,6.72-.06,13.45-.06,20.28h21.16c0-6.4.01-12.65,0-18.91,0-3.21-1.55-5.02-4.79-5.38-1.96-.22-3.96-.14-6.42-.19Z"/><path class="cls-6" d="m402.06,358.24c3.36,4.1,4.9,8.69,4.84,13.79-.05,4.21.24,8.5-.49,12.6-1.76,9.89-9.83,17.11-20.17,17.47-13.02.45-26.07.11-39.29.11v-21.44h38.5v-10.18c-3.96,0-7.83.09-11.7-.03-3.8-.12-7.7.04-11.36-.77-10.12-2.23-16.76-10.65-16.75-20.96,0-4.66-.03-9.46,1.04-13.94,2-8.4,10.52-15.3,19.11-15.52,12.48-.32,24.96-.11,37.45-.12.14,0,.27.12.53.23v21.09h-37.5v9.72c1.19,0,2.43,0,3.67,0,5.01,0,10.02-.07,15.03.02,6.78.12,12.5,2.66,17.11,7.94Z"/><path class="cls-6" d="m290.24,402.22h-6.76v-82.84h23.65v61.18h31.71v21.66h-48.61Z"/><path class="cls-4" d="m253.54,402.22c-1.25,0-2.27,0-3.44,0v-82.82h23.51v82.82h-20.07Z"/><path class="cls-3" d="m103.16,219.11c4.25,1.55,8.31,3.05,12.54,4.61-2.34,5.6-4.62,11.05-6.99,16.72-5.29-1.93-10.53-3.84-16.08-5.86,2.31-5.56,4.58-10.99,6.94-16.67,1.22.41,2.31.78,3.59,1.19Z"/><path class="cls-3" d="m233.58,286.01c-4.86-1.74-9.57-3.39-14.26-5.12-.66-.24-1.63-.81-1.69-1.32-.7-5.47-1.25-10.95-1.9-16.94,5.23,1.88,9.84,3.5,14.41,5.22.45.17.91.86,1.01,1.38,1.08,5.44,2.09,10.89,3.09,16.35.02.13-.32.33-.66.43Z"/><path class="cls-2" d="m153.51,166.33c-1.84,2.19-3.57,4.26-5.48,6.54-3.53-3.02-7.05-6.02-10.79-9.22,3.7-3.35,7.26-6.58,11-9.97,2.72,2.38,5.98,5.22,9.32,8.15-1.41,1.57-2.67,2.97-4.05,4.5Z"/><path class="cls-2" d="m229.69,233.9c-.1.88-.18,1.56-.32,2.71-3.82-3.01-7.36-5.75-10.81-8.59-.33-.27-.34-1.19-.21-1.73,1.16-4.6,2.39-9.17,3.7-14.15,3.38,2.67,6.5,5.05,9.51,7.57.43.36.5,1.42.39,2.09-.69,3.97-1.48,7.93-2.26,12.09Z"/><path class="cls-2" d="m249.9,178.29c1.1,1.66,2.09,3.19,3.14,4.79-2.72,3.25-5.44,6.48-8.3,9.9-2.25-3.37-4.42-6.63-6.72-10.08,2.84-3.08,5.63-6.1,8.64-9.36,1.14,1.68,2.15,3.14,3.25,4.75Z"/><path class="cls-2" d="m193.46,118.33c.09-.75.07-1.66.46-1.89,3.12-1.85,6.31-3.57,9.65-5.42,2.12,3.24,4.14,6.33,6.3,9.62-3.55,2.06-7.01,4.06-10.73,6.22-1.86-2.78-3.73-5.58-5.68-8.53Z"/><path class="cls-5" d="m321.27,106.94c2.86,1.02,5.54,1.98,8.2,2.97,1.16.43,1.68,1.08,1.48,2.51-.32,2.41-.28,4.86-.41,7.64-4.68-1.73-9.08-3.35-13.63-5.03.2-3.04.4-6.01.62-9.19,1.3.39,2.43.72,3.74,1.1Z"/><path class="cls-1" d="m273.63,156.64c3.78-1.41,7.4-2.75,11.22-4.17,1.09,3.25,2.09,6.21,3.11,9.26-4.08,1.66-8,3.25-12.17,4.94-1.02-3.01-2.05-5.96-2.99-8.94-.08-.25.42-.67.82-1.08Z"/><path class="cls-7" d="m330.83,154.38c-.11,1.86-.19,3.51-.29,5.27-4.64-.56-9.13-1.09-13.83-1.65.16-2.83.32-5.63.5-8.88,4.45.62,8.68,1.09,12.85,1.85,1.98.37.4,2.14.77,3.41Z"/><path class="cls-8" d="m267.05,104.84c.62,1.49-.29,1.43-1.11,1.43-3.95,0-7.9,0-12.18,0-.7-2.19-1.55-4.86-2.51-7.87,4.33-.27,8.34-.57,12.35-.72.47-.02,1.22.64,1.42,1.14.75,1.91,1.32,3.89,2.03,6.02Z"/></svg>