<?xml version="1.0" encoding="UTF-8"?><svg id="Layer_1" xmlns="http://www.w3.org/2000/svg" viewBox="0 0 500 500"><defs><style>.cls-1{fill:#d27a05;}</style></defs><polygon class="cls-1" points="108.1 302.68 117.39 318.6 145.92 302.68 197.66 388.26 254.05 183.93 375.46 186.58 375.46 158.05 229.51 158.05 189.7 296.04 166.48 261.55 108.1 302.68"/><path class="cls-1" d="m250.19,436.28h-.19c-8.06,0-16.17-.52-24.1-1.55l1.22-9.45c7.53.97,15.23,1.47,22.88,1.47l.19,9.53Zm24.3-1.59l-1.25-9.45c7.64-1,15.27-2.52,22.67-4.51l2.47,9.21c-7.8,2.09-15.83,3.69-23.88,4.75Zm-72.49-4.65c-7.84-2.08-15.61-4.71-23.1-7.81l3.64-8.8c7.11,2.94,14.47,5.43,21.9,7.4l-2.45,9.21Zm119.43-7.95l-3.65-8.8c7.08-2.94,14.04-6.38,20.69-10.24l4.78,8.24c-7.01,4.07-14.35,7.69-21.82,10.79Zm-164.39-10.63c-7.01-4.04-13.82-8.6-20.26-13.52l5.8-7.56c6.11,4.68,12.58,9,19.22,12.83l-4.76,8.25Zm206.42-13.72l-5.81-7.55c6.07-4.67,11.92-9.8,17.36-15.25l6.74,6.74c-5.73,5.74-11.89,11.14-18.3,16.06Zm-245-15.84c-5.74-5.73-11.15-11.88-16.08-18.28l7.55-5.82c4.67,6.07,9.81,11.91,15.26,17.34l-6.73,6.75Zm279.36-18.53l-7.56-5.81c4.7-6.12,9.02-12.58,12.86-19.21l8.25,4.77c-4.04,6.98-8.6,13.79-13.55,20.24Zm-309.02-19.95c-4.07-7-7.7-14.33-10.82-21.81l8.79-3.66c2.96,7.08,6.41,14.05,10.27,20.68l-8.24,4.79Zm333.34-22.14l-8.8-3.64c2.94-7.11,5.44-14.47,7.42-21.9l9.21,2.46c-2.09,7.83-4.72,15.6-7.83,23.09Zm-352.02-22.72c-2.11-7.82-3.71-15.86-4.78-23.88l9.45-1.25c1,7.61,2.53,15.24,4.52,22.65l-9.2,2.48Zm364.58-24.26l-9.45-1.23c.99-7.61,1.49-15.37,1.49-23.07v-.75h9.53v.75c0,8.11-.53,16.28-1.57,24.29Zm-370.98-23.92v-.38c0-8.01.51-16.05,1.52-23.91l9.45,1.21c-.96,7.47-1.44,15.1-1.44,22.71l-9.53.38Zm361.44-24.16c-1.03-7.62-2.57-15.24-4.58-22.64l9.2-2.5c2.12,7.81,3.75,15.84,4.82,23.87l-9.44,1.27Zm-346.04-21.58l-9.21-2.45c2.08-7.84,4.69-15.61,7.78-23.1l8.81,3.63c-2.93,7.1-5.41,14.47-7.38,21.91Zm333.95-22.91c-2.96-7.06-6.43-14.01-10.31-20.66l8.23-4.8c4.09,7,7.74,14.33,10.87,21.78l-8.79,3.68Zm-316.38-19.75l-8.26-4.75c4.03-7,8.57-13.82,13.5-20.27l7.57,5.79c-4.68,6.12-8.99,12.59-12.81,19.23Zm293.15-20.06c-4.69-6.06-9.84-11.89-15.31-17.32l6.72-6.76c5.76,5.72,11.18,11.86,16.12,18.24l-7.53,5.84Zm-265.13-16.59l-6.75-6.72c5.7-5.73,11.85-11.15,18.25-16.11l5.83,7.54c-6.08,4.7-11.91,9.85-17.33,15.29Zm232.4-15.92c-6.11-4.66-12.58-8.96-19.24-12.79l4.74-8.26c7.03,4.03,13.85,8.57,20.29,13.48l-5.79,7.57Zm-195.91-12.27l-4.79-8.23c6.99-4.07,14.32-7.72,21.79-10.85l3.68,8.79c-7.09,2.97-14.05,6.43-20.68,10.29Zm155.91-10.69c-7.12-2.92-14.49-5.4-21.91-7.35l2.43-9.22c7.83,2.07,15.6,4.67,23.11,7.76l-3.62,8.81Zm-113.38-7.07l-2.49-9.2c7.8-2.11,15.83-3.72,23.88-4.8l1.26,9.44c-7.63,1.03-15.26,2.55-22.65,4.55Zm68.78-4.69c-7.42-.94-15.01-1.42-22.52-1.42h-.56v-9.53h.56c7.92,0,15.9.5,23.72,1.5l-1.2,9.45Z"/><g><path class="cls-1" d="m260.5,293.72l7.04,10.62c1.85,2.76,3.38,5.31,5.01,8.07h.31c1.64-2.96,3.27-5.51,4.91-8.17l6.94-10.52h9.7l-16.85,23.9,17.36,25.53h-10.21l-7.25-11.13c-1.95-2.86-3.58-5.61-5.31-8.57h-.2c-1.64,2.96-3.38,5.61-5.21,8.57l-7.14,11.13h-9.91l17.57-25.22-16.75-24.21h10Z"/><path class="cls-1" d="m329.35,241.64l4.49,6.77c1.18,1.76,2.15,3.39,3.19,5.14h.2c1.04-1.89,2.08-3.52,3.13-5.21l4.43-6.71h6.18l-10.74,15.24,11.07,16.28h-6.51l-4.62-7.1c-1.24-1.82-2.28-3.58-3.39-5.47h-.13c-1.04,1.89-2.15,3.58-3.32,5.47l-4.55,7.1h-6.32l11.2-16.08-10.68-15.43h6.38Z"/><path class="cls-1" d="m151.06,207.14l4.49,6.77c1.18,1.76,2.15,3.39,3.19,5.14h.2c1.04-1.89,2.08-3.52,3.13-5.21l4.43-6.71h6.18l-10.74,15.24,11.07,16.28h-6.51l-4.62-7.1c-1.24-1.82-2.28-3.58-3.39-5.47h-.13c-1.04,1.89-2.15,3.58-3.32,5.47l-4.55,7.1h-6.32l11.2-16.08-10.68-15.43h6.38Z"/></g></svg>