<?xml version="1.0" encoding="UTF-8"?><svg id="Layer_1" xmlns="http://www.w3.org/2000/svg" viewBox="0 0 500 500"><defs><style>.cls-1{fill:#34a753;}</style></defs><path class="cls-1" d="m210.27,155.05c3.53.25,7.05.51,10.58.75,27.65,1.88,54.38,7.72,79.82,18.88,13.73,6.02,26.57,13.54,38.01,23.3.57.49,1.13,1,2.12,1.87-.82-.26-1.14-.3-1.41-.45-17.28-9.67-35.94-15.35-55.3-18.99-23.56-4.42-47.34-5.61-71.23-4.07-24.93,1.6-49.23,6.34-72.44,15.87-8.38,3.44-16.4,7.57-23.97,12.56-.9.59-1.3,1.15-1.03,2.3,4.78,20.39,9.52,40.79,14.28,61.19.08.34.2.66.66,1.02.43-1.47.89-2.93,1.3-4.41,5.47-19.63,10.96-39.25,16.38-58.89.4-1.46.95-2.04,2.55-1.97,3.28.15,6.58.15,9.87,0,1.68-.08,2.25.57,2.67,2.08,5.66,20.43,11.38,40.83,17.09,61.25.19.66.39,1.32,1,2.03,5.03-21.71,10.06-43.42,15.12-65.21h15.07c-.53,2.03-1.03,4.01-1.56,5.98-7.09,25.99-14.19,51.97-21.24,77.96-.41,1.52-1.07,1.97-2.59,1.9-3.03-.13-6.08-.16-9.11,0-1.77.1-2.5-.46-2.97-2.18-5.78-20.98-11.65-41.94-17.49-62.9-.17-.6-.36-1.2-.96-1.89-6.3,22.27-12.59,44.54-18.89,66.84h-13.45c-6.54-24.8-13.07-49.55-19.6-74.34-.26.08-.49.08-.6.19-7.74,7.58-13.63,16.25-15.7,27.1-2.19,11.52.78,21.91,7.21,31.45,6.67,9.9,15.7,17.25,25.79,23.38,18.1,11,37.91,17.43,58.53,21.62,20.68,4.2,41.59,5.61,62.65,4.91,26.56-.87,52.64-4.62,77.61-14.09,6.95-2.63,13.54-6.18,20.3-9.31.27-.13.53-.27,1.02-.11-1.41,1.18-2.8,2.38-4.23,3.53-16.75,13.41-35.79,22.45-56.1,28.99-17.88,5.75-36.22,9.22-54.93,10.76-33.42,2.75-66.31-.11-98.53-9.57-18.17-5.34-35.4-12.79-51.05-23.58-12.16-8.38-22.88-18.25-30.1-31.31-12.97-23.45-10.32-45.86,5.31-67.06,9.43-12.8,21.87-22.18,35.57-29.96,19.19-10.89,39.87-17.73,61.43-22.08,14.09-2.85,28.33-4.53,42.71-5.03.94-.03,1.87-.22,2.81-.33,5.7,0,11.39,0,17.09,0Z"/><path class="cls-1" d="m394.7,236.09c-5.25,0-10.36.04-15.47-.07-.47-.01-1.13-1-1.34-1.65-1.96-6.05-5.93-9.86-12.21-11.16-9.85-2.04-18.63,2.12-22.6,11.33-4.38,10.15-4.53,20.59.14,30.69,5.01,10.84,18.74,14.87,29.14,8.86,5.51-3.18,7.44-8.42,8.15-14.61h-17.39v-12.84c.53-.02,1.14-.08,1.74-.08,9.81,0,19.62.01,29.42-.03,1.25,0,1.8.27,1.8,1.66-.04,13.21-.03,26.42-.03,39.62,0,.37-.08.74-.16,1.39-3.34,0-6.67.03-9.99-.05-.33,0-.83-.67-.93-1.1-.56-2.45-1.03-4.93-1.61-7.77-.66.72-1.11,1.19-1.54,1.69-5.03,5.76-11.45,8.58-19.01,8.9-20.4.87-36.35-12.33-39.4-32.53-1.65-10.93-.47-21.43,4.86-31.24,7.57-13.93,21.64-19.72,36.05-18.74,6.29.43,12.16,2.24,17.43,5.78,7.34,4.93,11.61,11.8,12.93,20.51.06.37,0,.75,0,1.44Z"/><path class="cls-1" d="m273.33,285.24v4.6h-10.31v-77.74h10.91v26c.48-.32.7-.41.84-.57,8.38-9.62,26.54-8.56,34.43,3.98,3.51,5.58,4.82,11.74,4.82,18.24,0,6.46-1.15,12.69-4.04,18.52-6.31,12.72-18.74,14.74-27.51,12.48-3.53-.91-6.35-2.97-8.7-5.75-.15.08-.29.16-.44.24Zm29.59-24.61c-.63-3.52-.99-7.12-1.95-10.55-1.15-4.1-3.83-7.03-8.09-8.3-8.36-2.49-15.07.99-17.7,9.28-1.73,5.45-2,11.07-1.35,16.68.28,2.44,1.12,4.97,2.31,7.13,2.7,4.91,7.12,7.15,12.74,6.92,5.39-.21,8.91-3.09,11.15-7.8,2-4.21,2.41-8.72,2.89-13.35Z"/><path class="cls-1" d="m407.14,210.36h17.24v64.16h38.51c0,2.81,0,5.43,0,8.06,0,1.77.08,3.55-.06,5.3-.03.44-.72.88-1.19,1.22-.21.15-.61.03-.93.03-17.15,0-34.3,0-51.44,0-.68,0-1.35-.06-2.12-.09v-78.67Z"/><path class="cls-1" d="m256.27,265.07h-41.02c-1.56,6.51,3.36,14.38,9.99,16.12,8.84,2.32,17.38-1.93,19.01-10.28h10.8c-.09.74-.11,1.4-.26,2.04-2.62,11.02-11.61,18.07-23.61,18.53-15.76.6-26.34-8.78-27.77-24.52-.57-6.25-.08-12.38,1.97-18.31,4.41-12.78,14.69-18.2,26.87-17.46,11.66.71,19.15,7.37,21.91,19.33,1.07,4.63,1.39,9.44,2.11,14.57Zm-12.1-9.12c-.2-9.85-6.63-15.72-16.02-14.83-7.07.68-13.93,8.52-12.9,14.83h28.92Z"/></svg>