<?xml version="1.0" encoding="UTF-8"?><svg id="Layer_1" xmlns="http://www.w3.org/2000/svg" viewBox="0 0 500 500"><defs><style>.cls-1{fill:#376660;}.cls-1,.cls-2{fill-rule:evenodd;}.cls-2{fill:#52988f;}</style></defs><path class="cls-1" d="m250,441.44c105.73,0,191.44-85.71,191.44-191.44S355.73,58.56,250,58.56,58.56,144.27,58.56,250s85.71,191.44,191.44,191.44Zm0-28.72c-89.87,0-162.73-72.85-162.73-162.73S160.13,87.27,250,87.27s162.73,72.85,162.73,162.73-72.85,162.73-162.73,162.73Z"/><path class="cls-2" d="m250,403.15c84.59,0,153.15-68.57,153.15-153.15s-68.57-153.15-153.15-153.15c-84.59,0-153.15,68.57-153.15,153.15s68.57,153.15,153.15,153.15Zm0-296.74c-5.29,0-9.57,4.31-9.57,9.64v124.37h-67.03c-5.27,0-9.54,4.26-9.54,9.53,0,.02,0,.03,0,.05,0,5.29,4.36,9.57,9.53,9.57h86.19V116c.02-5.28-4.25-9.57-9.52-9.58-.02,0-.03,0-.05,0Z"/></svg>