<?xml version="1.0" encoding="UTF-8"?><svg id="Layer_1" xmlns="http://www.w3.org/2000/svg" viewBox="0 0 500 500"><defs><style>.cls-1{fill:#00c34f;}.cls-2{fill:#de2b26;}.cls-3{fill:none;}</style></defs><path class="cls-3" d="m285.69,292.16c11.98-10.15,19.61-25.27,19.61-42.16,0-30.48-24.79-55.27-55.27-55.27s-55.27,24.79-55.27,55.27c0,16.87,7.62,31.97,19.57,42.12l35.67-61.78,35.69,61.82Z"/><path class="cls-1" d="m400.69,291.53l-33.32-26.06c.63-5.05,1.11-10.11,1.11-15.48s-.47-10.42-1.11-15.48l33.32-26.06c3-2.37,3.79-6.63,1.9-10.11l-31.58-54.64c-1.89-3.47-6.16-4.74-9.63-3.47l-39.32,15.79c-8.21-6.32-17.06-11.53-26.69-15.48l-6-41.85c-.47-3.79-3.79-6.63-7.74-6.63h-63.17c-3.95,0-7.26,2.84-7.74,6.63l-6,41.85c-9.63,3.95-18.48,9.32-26.69,15.48l-39.32-15.79c-3.63-1.42-7.74,0-9.63,3.47l-31.58,54.64c-2.05,3.47-1.11,7.74,1.9,10.11l33.32,26.06c-.63,5.05-1.11,10.26-1.11,15.48s.47,10.42,1.11,15.48l-33.32,26.06c-3,2.37-3.79,6.63-1.9,10.11l31.58,54.64c1.9,3.47,6.16,4.74,9.63,3.47l39.32-15.79c1.47,1.13,2.99,2.19,4.5,3.25l31.81-55.09c-11.95-10.15-19.57-25.25-19.57-42.12,0-30.48,24.79-55.27,55.27-55.27s55.27,24.79,55.27,55.27c0,16.89-7.64,32.02-19.61,42.16l31.78,55.05c1.54-1.06,3.08-2.13,4.57-3.25l39.32,15.79c3.63,1.42,7.74,0,9.63-3.47l31.58-54.64c1.89-3.47,1.11-7.74-1.9-10.11Z"/><polygon class="cls-2" points="340.9 407.92 159.09 407.92 196.25 343.55 221.58 299.67 250 250.48 278.41 299.71 303.74 343.55 340.9 407.92"/></svg>