<?xml version="1.0" encoding="UTF-8"?><svg id="Layer_1" xmlns="http://www.w3.org/2000/svg" viewBox="0 0 500 500"><defs><style>.cls-1{fill:#f5a1ac;}.cls-2{fill:#ea7077;}</style></defs><path class="cls-2" d="m129.77,142.71c1.72-2.75,3.96-5.4,7.17-6.69,1.32-.22,2.64-.11,3.96-.11h64.94c-1.89,1.51-3.73,3.08-4.99,5.13-3.33,5.13-5.57,10.85-7.63,16.57-5.85,17.27-9.93,35.03-13.88,52.78-1.78,8.04-3.49,16.1-5.1,24.18-4.93,26.34-10.04,52.62-16.41,78.68-3.04,12.04-6.14,24.07-10.84,35.67-2.18,4.8-4.3,9.93-8.49,13.49-.98.81-1.95,1.83-3.33,1.67h-57.36c-3.9-.11-7.74.22-11.65-.16,2.58-1.89,4.88-4.16,6.37-6.85,4.3-7.72,7-16.08,9.58-24.39,4.02-13.38,7.23-26.93,10.27-40.47,1.89-8.9,4.13-17.76,5.51-26.71,1.55-9.98,3.9-19.86,5.79-29.79,2.98-14.63,6.14-29.25,9.64-43.77,2.81-11.33,5.68-22.61,9.52-33.68,1.89-5.34,3.96-10.63,6.94-15.54h0Z"/><path class="cls-1" d="m205.84,135.91c1.66,0,3.32-.05,4.99,0,3.67,1.83,6.77,4.75,8.49,8.36,2.29,4.1,4.19,8.42,5.91,12.85,5.74,16.68,9.64,33.84,13.54,50.94,3.33,15.34,6.49,30.73,9.46,46.14.23.81-.06,1.94,1.09,2.16-4.13,20.29-8.2,40.64-13.37,60.77-2.81,10.85-5.8,21.64-10.04,32.11-2.3,5.23-4.65,10.95-9.52,14.68-3.1.65-5.34-1.57-7.23-3.56-3.27-3.94-5.28-8.58-7.23-13.22-6.48-16.62-10.44-33.94-14.45-51.21-3.04-13.44-5.74-26.98-8.55-40.47-1.26-6.86-2.98-13.6-3.96-20.45-.17-.11-.58-.32-.75-.43,1.62-8.08,3.32-16.14,5.1-24.18,3.96-17.76,8.03-35.51,13.88-52.78,2.06-5.72,4.3-11.44,7.63-16.57,1.26-2.05,3.1-3.62,4.99-5.13h0Z"/><path class="cls-2" d="m277.59,145.25c2.07-3.72,4.59-7.88,9.07-9.28,22.77-.11,45.55-.05,68.32-.05-2.12,2-4.36,3.99-5.8,6.53-4.42,7.45-7,15.71-9.64,23.85-6.77,22.45-11.53,45.39-16.06,68.32-4.19,22.61-8.66,45.22-13.77,67.73-2.64,11.33-5.39,22.61-8.89,33.78-2.24,6.91-4.59,13.87-8.26,20.29-1.78,2.91-3.85,6.1-7.23,7.61-21.74.16-43.54,0-65.28.05-1.21,0-2.47,0-3.67-.16,4.88-3.72,7.23-9.44,9.52-14.68,4.24-10.47,7.23-21.26,10.04-32.11,5.16-20.13,9.23-40.47,13.37-60.77,4.99-26.17,10.21-52.35,16.86-78.2,3.1-11.17,6.08-22.5,11.41-32.92h0Z"/><path class="cls-1" d="m354.97,135.91c1.83,0,3.73-.05,5.56,0,2.98,1.46,5.11,3.94,7,6.47,3.1,4.64,5.05,9.88,7.06,15,4.76,13.76,8.32,27.9,11.59,42.04,4.36,19.05,8.15,38.21,11.87,57.37.92,4.59,1.84,9.23,2.41,13.87l.86.81c-2.06,2.7-2.87,5.94-4.01,9.01-3.61,10.96-5.97,22.29-7.97,33.57-1.55,8.85-3.67,17.65-6.6,26.17-2.18,6.31-4.82,12.57-9.18,17.86-2.07,2.54-4.88,4.48-7.97,5.77-4.76.49-7.57-3.83-9.87-7.01-4.76-7.83-7.34-16.57-10.1-25.1-9.06-31.57-14.97-63.9-21.34-96.01-.02-.24-.11-.47-.25-.66-.14-.2-.33-.36-.56-.47,4.53-22.94,9.29-45.87,16.06-68.32,2.64-8.15,5.22-16.41,9.64-23.85,1.43-2.54,3.67-4.53,5.79-6.53h0ZM12.46,258.69c1.49-.11,2.98-.32,4.53-.32h62.53c2.64.32,5.39.11,7.92,1.19,3.7,1.43,6.92,3.76,9.35,6.75.29-.16.8-.59,1.09-.81-1.38,8.96-3.61,17.81-5.51,26.71-3.04,13.55-6.25,27.09-10.27,40.48-2.58,8.31-5.28,16.68-9.58,24.39-1.49,2.7-3.79,4.96-6.37,6.85-.98.16-1.72-.49-2.52-.97-2.7-1.62-4.24-4.43-5.91-6.96-7.86-16.84-8.72-35.46-13.6-53.05-2.47-8.8-5.51-17.54-9.98-25.63-2.75-4.86-6.14-9.5-10.55-13.22-3.27-2.48-7.06-4.48-11.13-5.4h0Z"/><path class="cls-2" d="m406.37,264.3c3.61-3.83,9.01-6.26,14.46-6.04h47.04c6.54.11,13.14-.22,19.68.16-1.95,1.24-4.3,1.73-6.37,2.75-7.17,3.08-13.31,8.2-17.21,14.62-6.25,10.25-8.43,22.02-10.27,33.57-1.84,11.33-1.78,23.04-5.68,34.05-2.64,7.72-6.65,15.49-13.6,20.56-21.57.22-43.14.05-64.65.11-1.43,0-2.81.05-4.19-.22,3.1-1.29,5.91-3.24,7.97-5.77,4.36-5.29,7-11.55,9.18-17.86,2.93-8.53,5.05-17.32,6.6-26.17,2.01-11.28,4.36-22.61,7.97-33.57,1.15-3.08,1.95-6.31,4.01-9.01,1.72-2.38,2.87-5.13,5.05-7.18h0Z"/></svg>