<?xml version="1.0" encoding="UTF-8"?><svg id="Layer_1" xmlns="http://www.w3.org/2000/svg" viewBox="0 0 500 500"><defs><style>.cls-1{fill:#2dcfec;}</style></defs><path class="cls-1" d="m204.5,154.48c-43.79-7.98-78.41.37-92.21,24.27-10.3,17.83-7.36,41.48,7.13,66.76,1.23,2.15,3.98,2.9,6.13,1.67,0,0,0,0,0,0,2.15-1.23,2.9-3.98,1.66-6.13-13.06-22.77-15.6-43.18-7.15-57.8,11.46-19.85,42.34-27.3,82.82-19.93,2.43.48,4.8-1.1,5.28-3.54.12-.61.11-1.23-.02-1.83-.4-1.79-1.84-3.16-3.65-3.46h0Zm-62.31,121.75c17.7,19.46,40.71,37.71,66.94,52.86,63.52,36.67,131.14,46.48,164.47,23.75,2.02-1.43,2.5-4.24,1.07-6.26-1.4-1.97-4.1-2.48-6.12-1.16-29.83,20.34-94.06,11.03-154.92-24.11-25.45-14.7-47.73-32.37-64.79-51.12-1.21-1.38-3.14-1.88-4.87-1.26-2.34.83-3.56,3.4-2.73,5.74.21.58.53,1.12.96,1.57h0Z"/><path class="cls-1" d="m362.98,270.77c28.67-33.87,38.68-67.94,24.92-91.79-10.13-17.55-31.55-26.81-60.02-27.18-2.48-.03-4.52,1.95-4.55,4.43-.03,1.82,1.05,3.47,2.72,4.19.54.23,1.12.36,1.71.37,25.6.33,44.06,8.32,52.36,22.69,11.44,19.81,2.51,50.19-23.99,81.5-1.64,1.86-1.46,4.69.4,6.33.02.02.05.04.07.06,1.9,1.6,4.74,1.36,6.34-.54.02-.02.03-.04.05-.06h0Zm-73.69-114.79c-25.93,5.56-53.52,16.42-80.02,31.71-65.58,37.86-108.35,93.68-102.41,134.16.31,2.46,2.55,4.21,5.01,3.9,2.46-.31,4.21-2.55,3.9-5.01,0-.07-.02-.13-.03-.2-5.27-35.94,35.27-88.86,98.01-125.08,25.71-14.84,52.43-25.35,77.41-30.71,2.41-.6,3.87-3.05,3.26-5.45-.57-2.29-2.82-3.74-5.14-3.33h0Z"/><path class="cls-1" d="m183.06,349.91c15,41.86,39.52,67.63,67.1,67.63,20.11,0,38.72-13.71,53.23-37.85.66-1.02.87-2.27.6-3.45-.56-2.41-2.97-3.92-5.39-3.36-.63.15-1.23.43-1.74.83-.48.37-.87.83-1.17,1.35-13.04,21.69-29.06,33.5-45.54,33.5-22.91,0-44.78-22.99-58.64-61.68-.38-1.14-1.21-2.09-2.3-2.62-.54-.26-1.12-.41-1.72-.44-2.48-.13-4.6,1.77-4.73,4.25,0,.03,0,.06,0,.08-.02.6.08,1.19.29,1.75h0Zm136.94-8.19c7.76-24.79,11.93-53.41,11.93-83.22,0-74.39-26.03-138.52-63.12-154.98-2.29-.96-4.92.11-5.88,2.4-.94,2.22.05,4.79,2.24,5.81,33.08,14.69,57.79,75.55,57.79,146.78,0,28.92-4.04,56.63-11.52,80.54-.39,1.15-.3,2.4.25,3.48,1.12,2.21,3.83,3.09,6.04,1.97,1.11-.57,1.94-1.57,2.28-2.77Zm84.57-4.4c.08-11.87-9.48-21.55-21.35-21.63-11.87-.08-21.55,9.48-21.63,21.35,0,.09,0,.18,0,.27.08,11.87,9.76,21.43,21.63,21.35,11.76-.08,21.28-9.59,21.35-21.35Zm-8.98,0c0,6.91-5.6,12.51-12.51,12.51-6.91,0-12.51-5.6-12.51-12.51,0-6.91,5.6-12.51,12.51-12.51,6.91,0,12.51,5.6,12.51,12.51Zm-278.65,21.49c11.87,0,21.49-9.62,21.49-21.49h0c0-11.87-9.62-21.5-21.49-21.5h0c-11.87,0-21.49,9.62-21.49,21.49,0,0,0,0,0,0,0,11.87,9.62,21.49,21.49,21.49h0Zm0-8.98c-6.91,0-12.52-5.59-12.52-12.5s5.59-12.52,12.5-12.52h.02c6.91,0,12.51,5.61,12.5,12.52,0,6.9-5.6,12.5-12.5,12.5Z"/><path class="cls-1" d="m250.15,125.44c8.69,0,16.53-5.24,19.85-13.27,4.54-10.97-.67-23.54-11.64-28.08-2.61-1.08-5.4-1.63-8.22-1.63-11.87,0-21.49,9.62-21.49,21.49,0,5.7,2.26,11.17,6.3,15.2,4.03,4.03,9.5,6.29,15.2,6.29h0Zm0-8.98c-5.06,0-9.62-3.05-11.56-7.72-1.27-3.06-1.27-6.51,0-9.57,1.27-3.07,3.7-5.5,6.77-6.77,6.38-2.64,13.7.39,16.35,6.77,2.64,6.38-.39,13.7-6.77,16.35-1.52.63-3.14.95-4.79.95h0Zm3.28,157.24c-4.03.87-8.24.1-11.71-2.13-7.22-4.65-9.3-14.28-4.65-21.5,2.24-3.47,5.76-5.91,9.79-6.78,8.33-1.66,16.46,3.66,18.25,11.97,1.79,8.3-3.41,16.51-11.69,18.43h0Z"/></svg>