<?xml version="1.0" encoding="UTF-8"?>
<svg id="Layer_1" data-name="Layer 1" xmlns="http://www.w3.org/2000/svg" viewBox="0 0 500 500">
  <defs>
    <style>
      .cls-1 {
        fill: #fff;
      }

      .cls-2 {
        fill: #ff003c;
      }

      .cls-3 {
        fill: #ffc800;
      }

      .cls-4 {
        fill: #b52e31;
      }

      .cls-5 {
        fill: #00ff64;
      }

      .cls-6 {
        fill: #00d2ff;
      }

      .cls-7 {
        fill: #e23237;
      }
    </style>
  </defs>
  <path class="cls-6" d="m249.74,222.69c1.63,1.96,2.28,2.89,3.07,3.68,49.03,49.05,98.01,98.13,147.18,147.04,4.6,4.58,5.84,9.36,4.07,15.14-2.01,6.54-6.58,10.51-13.28,11.91-1.52.32-3.12.36-4.68.36-90.86.02-181.72.02-272.58,0-8.93,0-15.41-4.5-17.61-12.25-1.52-5.34-.91-10.02,3.46-14.38,49.3-49.09,98.46-98.32,147.63-147.54.94-.94,1.54-2.2,2.74-3.95Z"/>
  <path class="cls-3" d="m250.41,207.06c-14.52-14.53-28.76-28.77-43.22-43.24,6.62-13.24,13.42-26.83,20.22-40.42,2.4-4.8,4.78-9.62,7.23-14.4,3.18-6.18,8.16-9.74,15.23-9.83,7.21-.08,12.42,3.36,15.62,9.71,8.97,17.78,17.87,35.59,26.7,53.44.41.82.3,2.52-.28,3.11-13.78,13.94-27.66,27.78-41.51,41.62Z"/>
  <path class="cls-2" d="m263.3,219.14c12.36-12.36,25.17-25.17,38.24-38.24,25.61,51.24,51.26,102.56,76.43,152.9-37.76-37.76-76.2-76.2-114.66-114.66Z"/>
  <path class="cls-5" d="m198.49,181.19c12.97,12.98,25.76,25.79,38.25,38.28-37.96,37.96-76.34,76.34-114.88,114.89,25.6-51.16,51.17-102.27,76.64-153.17Z"/>
  <g>
    <path class="cls-7" d="m190.36,291.41l59.12-21.06,60.71,20.69-9.83,78.21-50.88,28.18-50.08-27.8-9.03-78.21Z"/>
    <path class="cls-4" d="m310.19,291.04l-60.71-20.69v127.08l50.88-28.13,9.83-78.26h0Z"/>
    <path class="cls-1" d="m249.57,285.19l-36.84,81.96,13.76-.23,7.4-18.49h33.05l8.1,18.72,13.15.23-38.62-82.19h0Zm.09,26.26l12.45,26.02h-23.4l10.95-26.02h0Z"/>
  </g>
</svg>