<?xml version="1.0" encoding="UTF-8"?><svg id="Layer_1" xmlns="http://www.w3.org/2000/svg" viewBox="0 0 500 500"><defs><style>.cls-1{fill:#fff;}.cls-2{fill:#dbdbdb;}.cls-3{fill:#fda014;}.cls-4{fill:#fdf3d7;}.cls-5{fill:#adadad;}.cls-6{fill:#fdc63a;}.cls-7{fill:#34a753;}</style></defs><rect class="cls-7" x="67.36" y="113.02" width="307.55" height="197.6"/><polygon class="cls-5" points="284.24 373.63 167.54 373.63 199.27 331.18 252.52 331.18 284.24 373.63"/><path class="cls-2" d="m352.36,351.75H89.92c-12.46,0-22.55-9.21-22.55-20.57v-20.56h307.55v20.56c0,11.36-10.1,20.57-22.55,20.57Z"/><rect class="cls-7" x="163.25" y="373.63" width="125.28" height="13.35"/><g><rect class="cls-6" x="76.38" y="122.04" width="149.51" height="179.56"/><rect class="cls-3" x="225.89" y="122.04" width="140" height="179.56"/></g><rect class="cls-4" x="86.07" y="135.3" width="129.93" height="52.33"/><rect class="cls-4" x="235.95" y="135.3" width="118.37" height="52.33"/><rect class="cls-4" x="86.07" y="199.15" width="268.25" height="19.72"/><rect class="cls-4" x="86.07" y="228.74" width="268.25" height="19.72"/><rect class="cls-4" x="86.07" y="258.32" width="268.25" height="19.72"/><g><path class="cls-7" d="m416.51,163.38h-44.07v223.6h44.07c8.91,0,16.12-7.22,16.12-16.12v-191.35c0-8.91-7.22-16.12-16.12-16.12Z"/><path class="cls-7" d="m328.36,163.38c-8.91,0-16.12,7.22-16.12,16.12v191.35c0,8.9,7.22,16.12,16.12,16.12h44.08v-223.6h-44.08Z"/></g><rect class="cls-1" x="347.96" y="172.32" width="48.96" height="4.02"/><path class="cls-1" d="m372.44,380.73c-7.33,0-13.3-5.96-13.3-13.3s5.97-13.29,13.3-13.29,13.29,5.97,13.29,13.29-5.96,13.3-13.29,13.3Zm0-23.7c-5.74,0-10.41,4.66-10.41,10.4s4.67,10.41,10.41,10.41,10.4-4.67,10.4-10.41-4.66-10.4-10.4-10.4Z"/><g><rect class="cls-6" x="318.08" y="187.63" width="54.95" height="158.45"/><rect class="cls-3" x="373.03" y="187.63" width="53.76" height="158.45"/></g><rect class="cls-4" x="327.25" y="197.21" width="89.59" height="28.19"/><rect class="cls-4" x="327.25" y="230.13" width="89.59" height="28.19"/><rect class="cls-4" x="327.25" y="263.05" width="89.59" height="28.19"/><rect class="cls-4" x="327.25" y="295.97" width="89.59" height="28.19"/></svg>