<?xml version="1.0" encoding="UTF-8"?><svg id="Layer_1" xmlns="http://www.w3.org/2000/svg" viewBox="0 0 500 500"><defs><style>.cls-1{fill:#34a753;}</style></defs><path class="cls-1" d="m205.83,334.88l-58.07-44.18s-4.42-19.85,16.41-14.66l49.86,28.55h102.25l36.71,39c22.47-24.71,36.17-57.55,36.17-93.58,0-76.85-62.3-139.16-139.16-139.16s-139.16,62.3-139.16,139.16,62.3,139.16,139.16,139.16c16.27,0,31.87-2.82,46.38-7.95l-16.7-46.33h-73.85Zm101.08-143.79c-2.57,0-3.86,1.75-3.86,5.25v4.82h-18.66c-.03-.28-.05-.65-.05-1.1v-1.53c0-8,1.89-13.68,5.66-17.02,3.77-3.34,9.75-5.01,17.93-5.01,4.29,0,8.13.76,11.53,2.28,3.4,1.52,6.09,3.76,8.07,6.73,1.99,2.97,2.98,6.63,2.98,10.99v61.28h-19.09v-9.54c-.93,3.36-2.47,5.93-4.61,7.72-2.15,1.79-4.59,2.68-7.34,2.68-4.47,0-7.87-1.04-10.21-3.11-2.34-2.07-3.94-4.91-4.8-8.52-.86-3.61-1.28-7.7-1.28-12.28,0-4.89.48-8.91,1.44-12.04.97-3.13,2.62-5.69,4.96-7.69,2.34-2,5.57-3.7,9.68-5.09l11.9-4.08v-8.25c0-4.33-1.41-6.49-4.24-6.49Zm-78.35,10.35c0-7.58,2.13-13.62,6.38-18.15,4.25-4.52,10.13-6.78,17.64-6.78s13.44,2.26,17.69,6.78c4.25,4.52,6.38,10.57,6.38,18.15v32.28c0,16.62-8.02,24.93-24.07,24.93s-24.02-8.31-24.02-24.93v-32.28Zm-51.97-38.01h18.66v37.8l8.79-37.8h18.98l-10.56,43.21,12.76,51.14h-19.57l-10.29-45.68v45.68h-18.76v-94.36Z"/><path class="cls-1" d="m252.57,243.84c1.61,0,2.76-.58,3.46-1.74.7-1.16,1.04-2.64,1.04-4.42v-39.3c0-4.68-1.5-7.02-4.5-7.02s-4.5,2.34-4.5,7.02v39.3c0,1.79.35,3.26,1.04,4.42.7,1.16,1.85,1.74,3.46,1.74Z"/><path class="cls-1" d="m302.72,226.26v10.35c0,4.75,1.43,7.13,4.29,7.13,1.57,0,2.64-.66,3.22-1.98.57-1.32.86-2.75.86-4.29v-22.41c-2.65,1.07-4.7,2.42-6.17,4.05-1.46,1.63-2.2,4.01-2.2,7.16Z"/><path class="cls-1" d="m296.38,381.21l2.86,7.95,67.53-30.93-13.79-14.65c-15.31,16.84-34.71,29.89-56.61,37.63Z"/></svg>