<?xml version="1.0" encoding="UTF-8"?><svg id="Layer_1" xmlns="http://www.w3.org/2000/svg" viewBox="0 0 500 500"><defs><style>.cls-1{fill:#1da0f1;}</style></defs><path class="cls-1" d="m285.19,264.43c-4.77-3.62-11.08-5.43-18.94-5.43h-39.48v45.26h38.79c3.54,0,6.93-.35,10.16-1.04,3.23-.69,6.08-1.85,8.54-3.46,2.46-1.62,4.43-3.81,5.89-6.58,1.46-2.77,2.19-6.31,2.19-10.62,0-8.47-2.39-14.51-7.16-18.13Z"/><path class="cls-1" d="m279.41,229.68c4.16-3.08,6.24-8.08,6.24-15.01,0-3.85-.69-7-2.08-9.47-1.39-2.46-3.23-4.39-5.54-5.77-2.31-1.39-4.97-2.35-7.97-2.89-3-.54-6.12-.81-9.35-.81h-33.94v38.56h36.71c6.47,0,11.78-1.54,15.93-4.62Z"/><path class="cls-1" d="m351.04,113.85h-202.08c-19.39,0-35.11,15.72-35.11,35.11v202.08h0c0,19.39,15.72,35.11,35.11,35.11h202.08c19.39,0,35.11-15.72,35.11-35.11v-202.08c0-19.39-15.72-35.11-35.11-35.11Zm-27.29,192.38c-3.23,6.08-7.58,11.05-13.05,14.89-5.47,3.85-11.7,6.7-18.7,8.54-7,1.85-14.2,2.77-21.59,2.77h-79.89v-131.86c-6.33,3.74-13.96,6.01-22.84,6.01h0c-8.87,0-17.11-2.6-24.06-7.05,1.24.15,2.49.22,3.74.22,7.36,0,14.12-2.51,19.5-6.72-6.87-.13-12.66-4.67-14.66-10.91.96.18,1.94.28,2.95.28,1.4,0,2.79-.18,4.14-.55-7.18-1.44-12.59-7.79-12.59-15.39,0-.07,0-.13,0-.2,2.18,1.21,4.62,1.89,7.11,1.96-4.21-2.81-6.99-7.62-6.99-13.07,0-2.77.73-5.5,2.13-7.89,7.74,9.5,19.31,15.75,32.36,16.41-.27-1.15-.41-2.35-.41-3.58,0-8.67,7.03-15.7,15.7-15.7,4.52,0,8.59,1.91,11.46,4.96,3.52-.69,6.89-1.98,9.97-3.81-1.17,3.67-3.66,6.74-6.9,8.68,3.17-.38,6.2-1.22,9.01-2.47-2.11,3.15-4.76,5.91-7.83,8.13.03.67.04,1.35.04,2.03,0,1.87-.13,3.76-.39,5.66h56.15c7.85,0,15.01.69,21.47,2.08,6.47,1.38,12.01,3.66,16.63,6.81,4.62,3.16,8.2,7.35,10.74,12.58,2.54,5.23,3.81,11.7,3.81,19.4,0,8.31-1.89,15.24-5.66,20.78-3.77,5.54-9.35,10.08-16.74,13.62,10.16,2.93,17.74,8.04,22.75,15.36,5,7.31,7.5,16.12,7.5,26.44,0,8.31-1.62,15.51-4.85,21.59Zm38.35-138.62h-6.11v7.87h-11.34v-7.87h-21.74v-7.58l18.45-25.68h12.04l-16.77,24.03h8.37v-6.99h10.99v6.99h6.11v9.22Z"/></svg>