<?xml version="1.0" encoding="UTF-8"?><svg id="Layer_1" xmlns="http://www.w3.org/2000/svg" viewBox="0 0 500 500"><defs><style>.cls-1{fill:#eb6737;}</style></defs><path class="cls-1" d="m257.23,293.18c-.85-1.06-2-1.6-3.44-1.6-1.75,0-3.11.57-4.07,1.72-.87,1.04-1.29,2.53-1.38,4.35h10.37c-.14-1.92-.63-3.41-1.49-4.48Z"/><path class="cls-1" d="m313.08,291.81c-1.62,0-2.87.5-3.76,1.5-.88.99-1.33,2.41-1.33,4.24v3.9c0,1.83.44,3.25,1.33,4.26.89,1.02,2.14,1.52,3.76,1.52s2.87-.5,3.76-1.52c.88-1.01,1.33-2.43,1.33-4.26v-3.9c0-1.83-.44-3.25-1.33-4.24-.88-1-2.14-1.5-3.76-1.5Z"/><path class="cls-1" d="m184.16,301.89c-.6.53-.9,1.36-.9,2.46,0,1.19.4,2.08,1.19,2.65.79.58,2,.86,3.62.86,1.77,0,3.09-.19,3.96-.57.87-.38,1.31-.96,1.31-1.77v-4.45h-6.47c-1.21,0-2.12.27-2.71.81Z"/><path class="cls-1" d="m250,73.7c-97.37,0-176.3,78.93-176.3,176.3s78.93,176.3,176.3,176.3,176.3-78.93,176.3-176.3-78.93-176.3-176.3-176.3Zm-9.13,95.66l21.9,71.54,21.9-71.54h13.93l-29.75,91.25h-12.17l-29.75-91.25h13.93Zm-85.42,113.35h-16.13v10.3h13.64v4.4h-13.64v13.88h-4.63v-32.99h20.76v4.4Zm17.72,10.62c-.41-.5-.92-.88-1.54-1.14-.62-.26-1.34-.38-2.16-.38-1.46,0-2.6.41-3.41,1.21-.81.81-1.21,1.93-1.21,3.37v14.9h-4.63v-23.55h4.63v3.39c.65-1.04,1.41-1.93,2.33-2.56,1.15-.78,2.42-1.17,3.82-1.17,1.07,0,2.04.16,2.91.47.87.31,1.63.77,2.28,1.37l-3.02,4.08Zm24.57,17.97h-4.4v-1.96c-.32.39-.62.79-1.03,1.07-.6.41-1.29.71-2.08.92-.79.2-1.67.31-2.65.31-2.9,0-5.07-.6-6.51-1.81-1.44-1.2-2.16-3.03-2.16-5.48s.66-4.08,1.97-5.24c1.32-1.16,3.3-1.75,5.97-1.75h6.49v-1c0-1.54-.41-2.74-1.24-3.59-.82-.86-1.99-1.28-3.5-1.28-.94,0-1.86.15-2.76.43-.9.29-1.7.69-2.39,1.2l-3.38-2.31c.89-1.08,2.07-1.91,3.53-2.51s3.08-.9,4.87-.9c1.95,0,3.62.35,5.01,1.03,1.39.69,2.45,1.69,3.18,3,.73,1.31,1.09,2.89,1.09,4.73v15.13Zm-20.81-63.36h-8.91l-21.84-48.99v61.66h-12.49v-91.25h11.98l26.8,60.24,26.79-60.24h11.99v91.25h-12.49v-62.88l-21.84,50.21Zm60.61,63.36h-4.63v-14.27c0-1.66-.43-2.95-1.29-3.85-.86-.91-2.07-1.36-3.63-1.36-1.44,0-2.55.44-3.34,1.31-.79.88-1.18,2.12-1.18,3.72l-.02-.1c0,.09.02.17.02.26v14.29h-4.63v-14.27c0-1.66-.41-2.95-1.22-3.85-.82-.91-1.97-1.36-3.47-1.36s-2.68.4-3.5,1.2c-.83.8-1.24,1.93-1.24,3.38v14.9h-4.63v-23.55h4.63v3.39c.66-1.05,1.42-1.95,2.37-2.57,1.17-.77,2.47-1.16,3.89-1.16,1.65,0,3.06.38,4.22,1.13,1.17.75,2.05,1.84,2.66,3.28.04.1.06.23.1.33.73-1.47,1.66-2.63,2.83-3.45,1.22-.85,2.56-1.28,4.03-1.28,1.69,0,3.14.38,4.34,1.13,1.2.75,2.12,1.84,2.74,3.28.63,1.43.94,3.17.94,5.19v14.29Zm25.59-9.91h-14.81c.04,1.84.53,3.29,1.51,4.29,1.03,1.04,2.49,1.56,4.38,1.56.93,0,1.87-.19,2.79-.56.92-.38,1.75-.91,2.47-1.59l3.04,3.04c-1.17,1.12-2.47,1.98-3.92,2.59-1.46.61-2.91.92-4.38.92-2.18,0-4.04-.41-5.58-1.22-1.54-.82-2.72-2.02-3.53-3.6-.81-1.58-1.21-3.49-1.21-5.73v-2.65c0-2.33.39-4.32,1.17-5.97.78-1.65,1.91-2.91,3.39-3.77,1.48-.86,3.26-1.29,5.35-1.29,1.97,0,3.64.5,5.04,1.48,1.39.98,2.45,2.4,3.19,4.26.73,1.86,1.1,4.09,1.1,6.7v1.54Zm29.13,9.91h-3.49l-5.74-16.26-5.74,16.26h-3.5l-7.26-23.55h4.83l4.17,16.81,5.88-16.81h3.22l5.88,16.81,4.17-16.81h4.83l-7.26,23.55Zm30.54-9.85c0,2.15-.38,3.98-1.14,5.5s-1.87,2.68-3.32,3.48c-1.45.8-3.2,1.2-5.24,1.2s-3.79-.4-5.24-1.2-2.56-1.97-3.32-3.5c-.76-1.54-1.14-3.38-1.14-5.55v-3.83c0-2.13.38-3.96,1.14-5.48.76-1.52,1.87-2.68,3.32-3.47,1.45-.79,3.2-1.19,5.24-1.19s3.79.4,5.24,1.19,2.56,1.95,3.32,3.47,1.14,3.35,1.14,5.48v3.9Zm19.53-8.12c-.41-.5-.92-.88-1.54-1.14-.62-.26-1.34-.38-2.16-.38-1.46,0-2.6.41-3.41,1.21-.81.81-1.21,1.93-1.21,3.37v14.9h-4.63v-23.55h4.63v3.39c.65-1.04,1.41-1.93,2.33-2.56,1.15-.78,2.42-1.17,3.82-1.17,1.07,0,2.04.16,2.91.47.87.31,1.63.77,2.28,1.37l-3.02,4.08Zm22.55,17.97l-6.9-11.41-4.15,4.67v6.74h-4.63v-32.99h4.63v20.87l9.48-11.44h5.45l-7.89,8.88,9.04,14.67h-5.04Zm-40.79-72.46c1.54,3.26,3.72,5.78,6.53,7.56,2.8,1.78,6.06,2.66,9.79,2.66,2.72,0,5.32-.56,7.81-1.69,2.49-1.13,4.66-2.8,6.53-5.02,1.86-2.22,3.19-4.85,3.98-7.91h13.12c-1.05,5.4-3.06,10.15-6.03,14.25-2.97,4.1-6.65,7.27-11.05,9.51-4.39,2.24-9.18,3.36-14.37,3.36-6.32,0-11.87-1.4-16.66-4.21-4.79-2.8-8.5-6.78-11.14-11.92-2.64-5.15-3.95-11.11-3.95-17.89v-25.04c0-6.78,1.31-12.74,3.95-17.89,2.64-5.14,6.35-9.13,11.14-11.95,4.79-2.82,10.35-4.23,16.66-4.23,5.23,0,10.04,1.12,14.43,3.35,4.39,2.24,8.06,5.41,11.01,9.51,2.95,4.1,4.95,8.85,6,14.25h-13.12c-.79-2.85-2.12-5.39-3.98-7.63-1.87-2.24-4.05-3.96-6.56-5.18-2.51-1.21-5.1-1.82-7.78-1.82-3.73,0-6.99.9-9.79,2.7-2.8,1.8-4.98,4.32-6.53,7.56-1.55,3.24-2.32,7.02-2.32,11.33v25.04c0,4.27.77,8.03,2.32,11.3Z"/></svg>