<?xml version="1.0" encoding="UTF-8"?><svg id="Layer_1" xmlns="http://www.w3.org/2000/svg" viewBox="0 0 500 500"><defs><style>.cls-1{fill:#1266a8;}</style></defs><path class="cls-1" d="m415.44,321.64h0s0,0,0,0h0Zm-82.73-143.28h0s0,0,0,0h0Zm41.37-71.64h0s-82.73,0-82.73,0h0l.47.82,40.88,70.82h0s0,0,0,0h0s0,0,0,0l41.36,71.64-41.36,71.63-120.99-209.56-3.09-5.35h-82.73s0,0,0,0l-39.62,68.64-1.73,3,18.87,32.68-18.1-31.35-.77-1.33-41.37,71.64,71.29,123.48,11.43,19.8h0s0,0,0,0h82.72l-41.36-71.64h0l-20.52-35.53-20.85-36.11,41.36-71.63,124.08,214.91h82.73l41.36-71.64h0,0s0,0,0,0h0s0,0,0,0l41.37-71.64-82.73-143.27Z"/></svg>