<?xml version="1.0" encoding="UTF-8"?><svg id="Layer_1" xmlns="http://www.w3.org/2000/svg" viewBox="0 0 500 500"><defs><style>.cls-1{fill:#0073b9;}.cls-2{fill:#34a753;}</style></defs><path class="cls-1" d="m166.96,356.48v16.82h19.04v7.81c-3.81,3.26-8.7,4.89-14.48,4.89-6.15,0-11.22-2-15.48-6.07-4.15-4.15-6.15-9.19-6.15-15.37s2.04-11.26,6.26-15.37c4.26-4.15,9.3-6.18,15.41-6.18s11.11,1.7,15.15,5.19c3.63-3.89,9.04-8.59,12.04-12.07-7.52-6.89-16.67-10.33-27.19-10.33-11.33,0-20.7,3.63-28.59,11.07-7.93,7.48-11.74,16.56-11.74,27.7s3.85,20.22,11.78,27.7c7.81,7.3,17.44,10.96,28.59,10.96,12.78,0,24.7-5.74,31.85-15.3l.26-.37v-31.11h-36.74v.04h0Zm117.67-29.56l-12.63,41.11-12.04-41.11h-14.59l-12,41.11-12.63-41.11h-18.59l22.74,75.19h15.52l12.22-40.04,12.22,40.04h15.52l22.74-75.19h-18.48Zm23.7,0l-5.22,17.26h22.3v57.93h21.11v-57.93h22.26v-17.26h-60.45,0Z"/><g><path class="cls-2" d="m281.66,96.78h-63.32c-9.85,0-17.84,7.99-17.84,17.84v13.11h17.84v-13.11h63.32v13.11h17.84v-13.11c0-9.85-7.99-17.84-17.84-17.84Z"/><path class="cls-2" d="m257.91,238.53v3.72c0,4.37-3.54,7.91-7.91,7.91s-7.91-3.54-7.91-7.91v-3.72h-71.23c-3.68,0-7.23-.6-10.55-1.68v35.98c0,5.83,4.72,10.55,10.55,10.55h158.3c5.83,0,10.55-4.72,10.55-10.55v-35.98c-3.33,1.08-6.87,1.68-10.55,1.68h-71.23Zm81.79-97.62h-179.41c-5.83,0-10.55,4.72-10.55,10.55v52.77c0,11.66,9.45,21.11,21.11,21.11h71.23v-6.2c0-4.37,3.54-7.91,7.91-7.91s7.91,3.54,7.91,7.91v6.2h71.23c11.66,0,21.11-9.45,21.11-21.11v-52.77c0-5.83-4.72-10.55-10.55-10.55Z"/></g></svg>