<?xml version="1.0" encoding="UTF-8"?><svg id="Layer_1" xmlns="http://www.w3.org/2000/svg" viewBox="0 0 500 500"><defs><style>.cls-1{fill:#1266a8;}.cls-2{fill:#cc2027;}</style></defs><path class="cls-2" d="m373.29,222.33c-3.22-14.43-8.91-27.93-16.6-40.04l19.87-25.23c-.18-.25-.37-.49-.55-.73-1.1-.09-2.19-.22-3.27-.41l-43.27,43.27c9.38,14.67,14.82,32.11,14.82,50.82,0,52.16-42.29,94.45-94.45,94.45s-94.45-42.29-94.45-94.45,42.29-94.45,94.45-94.45c18.96,0,36.62,5.59,51.41,15.21l43.16-43.16c-.2-1.13-.34-2.27-.42-3.4-.4-.3-.8-.61-1.21-.91l-25.23,19.87c-12.11-7.69-25.61-13.38-40.04-16.6l-3.8-31.95c-7.79-1.19-15.76-1.81-23.88-1.81s-16.09.62-23.88,1.81l-3.8,31.95c-14.43,3.22-27.93,8.91-40.04,16.6l-25.23-19.87c-12.9,9.48-24.3,20.88-33.78,33.78l19.87,25.23c-7.69,12.11-13.38,25.61-16.6,40.04l-31.95,3.8c-1.19,7.79-1.81,15.76-1.81,23.88s.62,16.09,1.81,23.88l31.95,3.8c3.22,14.43,8.91,27.93,16.6,40.04l-19.87,25.23c9.48,12.9,20.88,24.3,33.78,33.78l25.23-19.87c12.11,7.69,25.61,13.38,40.04,16.6l3.8,31.95c7.79,1.19,15.76,1.81,23.88,1.81s16.09-.62,23.88-1.81l3.8-31.95c14.43-3.22,27.93-8.91,40.04-16.6l25.23,19.87c12.9-9.48,24.3-20.88,33.78-33.78l-19.87-25.23c7.69-12.11,13.38-25.61,16.6-40.04l31.95-3.8c1.19-7.79,1.81-15.76,1.81-23.88s-.62-16.09-1.81-23.88l-31.95-3.8Z"/><g><rect class="cls-1" x="223.01" y="219.26" width="6.3" height="109.82" transform="translate(-127.62 240.22) rotate(-45)"/><path class="cls-1" d="m171.13,251.54h0c19.4,31.65,46.01,58.26,77.66,77.66h0s9.53-9.53,9.53-9.53l-77.66-77.66-9.53,9.53Z"/><path class="cls-1" d="m272.78,208.13l19.41,19.41,78.56-78.56c9.7,2.83,20.6.42,28.25-7.23,7.65-7.65,10.06-18.55,7.23-28.25l-14.9,14.9c-1.57,1.57-4.11,1.57-5.68,0l-13.74-13.74c-1.57-1.57-1.57-4.11,0-5.68l14.9-14.9c-9.7-2.83-20.6-.42-28.25,7.23-7.65,7.65-10.06,18.55-7.23,28.25l-78.56,78.56Z"/><path class="cls-1" d="m331.2,246.78l-11.8-11.8-2.45,2.45c-6.03,6.03-15.8,6.03-21.82,0l-32.23-32.23c-6.03-6.03-6.03-15.8,0-21.82l2.45-2.45-11.8-11.8-59.54,59.54,77.66,77.66,59.54-59.54Zm-80.2,16.01l-13.46-13.46,4.93-18.39,18.39-4.93,13.46,13.46-4.93,18.39-18.39,4.93Z"/></g></svg>