<?xml version="1.0" encoding="UTF-8"?><svg id="Layer_1" xmlns="http://www.w3.org/2000/svg" viewBox="0 0 500 500"><defs><style>.cls-1{fill:#d2dce2;}.cls-2{fill:#f6a483;}.cls-3{fill:#d5a2a6;}.cls-4{fill:#ac556c;}.cls-5{fill:#ba0202;}.cls-6{fill:#fff;}.cls-7{fill:#f05c22;}.cls-8{fill:#cb4e1e;}.cls-9{fill:#f59e7f;}.cls-10{fill:#fbeae4;}.cls-11{fill:#c68897;}.cls-12{fill:#b90000;}.cls-13{fill:#465662;}.cls-14{fill:#9d0000;}.cls-15{fill:#fdf9f9;}.cls-16{fill:#416b82;}.cls-17{fill:#45535f;}.cls-18{fill:#be7888;}.cls-19{fill:#c8143d;}.cls-20{fill:#f69c7b;}.cls-21{fill:#f48c65;}.cls-22{fill:#fbe2d8;}.cls-23{fill:#fbf2ee;}.cls-24{fill:#f49264;}.cls-25{fill:#fbdace;}.cls-26{fill:#810024;}.cls-27{fill:#cd97a4;}.cls-28{fill:#d5a9b5;}.cls-29{fill:#f37e50;}.cls-30{fill:#f9d3c5;}.cls-31{fill:#f19269;}.cls-32{fill:#f16c37;}.cls-33{fill:#1b4761;}.cls-34{fill:#ecf0f2;}.cls-35{fill:#860525;}.cls-36{fill:#c9143d;}.cls-37{fill:#f59470;}.cls-38{fill:#73001e;}.cls-39{fill:#f9c4b0;}.cls-40{fill:#f27645;}.cls-41{fill:#f9c9b2;}.cls-42{fill:#f8b49a;}.cls-43{fill:#f29574;}.cls-44{fill:#facdbc;}.cls-45{fill:#b4677b;}.cls-46{fill:#e9a49e;}.cls-47{fill:#faefef;}.cls-48{fill:#f4845a;}.cls-49{fill:#fbefed;}.cls-50{fill:#ec1948;}.cls-51{fill:#d7c3c2;}.cls-52{fill:#f7ab8e;}.cls-53{fill:#f8bba4;}.cls-54{fill:#f5a487;}.cls-55{fill:#f26f3c;}.cls-56{fill:#d2a2ae;}.cls-57{fill:#023a5a;}.cls-58{fill:#1c4963;}.cls-59{fill:#f6b4c1;}.cls-60{fill:#f7b99d;}.cls-61{fill:#f3d9d0;}.cls-62{fill:#8c0f28;}.cls-63{fill:#fcf8f8;}.cls-64{fill:#74041f;}.cls-65{fill:#f7ac90;}</style></defs><g><path class="cls-13" d="m286.44,80.7c1.11.53,1.81,1.27,2.65,1.55,9.34,3.07,16.54,8.38,19.6,18.48,1.7,4.03,3.27,7.83,5.05,12.11,2.09,5.03,3.98,9.58,5.72,14.37-1.01,3.39-1.31,7.01-5.65,7.05,1.03-2.22,1.93-4.21,2.83-6.45-.3-1.3-.46-2.41-.9-3.39-2.4-5.34-4.86-10.66-7.32-16.22-.26-.63-.51-1.01-.74-1.4,0,0,.01.03-.01-.2-.26-.58-.5-.94-.73-1.3,0,0,0,.03.01-.23-.26-.84-.51-1.42-.76-2.01,0,0,0,.02-.02-.21-.26-.58-.5-.93-.73-1.29,0,0,0,.01-.02-.21-.26-.57-.5-.93-.73-1.28,0,0,0,0-.02-.21-.25-.57-.5-.93-.73-1.28,0,0,0,0-.02-.21-.26-.58-.5-.93-.73-1.28,0,0,0,.01-.02-.21-.25-.59-.49-.96-.85-1.54-3.97-4.95-9.04-7.72-15.02-9.58-4.83-1.14-9.44-2-13.97.14,0-.01.03,0-.3-.01-3.16.51-5.99,1.02-8.94,1.53-.12,0-.35-.04-.65-.04-1.43.26-2.55.52-3.88.78-.48-.01-.75-.02-1.35-.03-1.85.46-3.38.93-5.21,1.45-4.73.87-9.16,1.68-13.89,2.48-2.47.25-4.64.51-7.09.78-.63.12-.98.24-1.45.31-.32-.06-.48.02-.93.16-1.62.22-2.91.45-4.31.63-.3-.07-.44,0-.88.13-14.63,2.07-28.92,4.29-43.26,6.18-6.44.85-10.24,4.33-12.38,10.44-.49,2.35-1.27,4.48-1.18,6.58.14,3.65.49,7.37,1.34,10.91,1.32,5.5,1.33,11.85,8.02,14.53.79.31,1.47,1.69,1.62,2.66.48,3.17.83,6.38.95,9.58.15,3.85,1.79,5.65,5.74,5.05,0,.15,0,.44-.3.52-2.86-.35-6.63,2.86-7.62-2.68-.34-3.98-.49-7.67-1.14-11.26-.22-1.21-1.72-2.19-2.63-3.28-1.4-2.34-2.88-4.64-4.18-7.03-.76-1.39-1.23-2.93-1.98-4.64-2.02-5.53-3.91-10.74-3.13-16.62.95-7.24,4.51-12.94,10.31-16.8,2.76-1.84,6.77-1.93,10.26-2.5,14.18-2.32,28.36-4.55,42.56-6.74,15.18-2.33,30.37-4.57,45.55-6.88.41-.06.76-.51,1.12-1.09,3.98-.31,7.97-.31,12.32-.31Z"/><path class="cls-14" d="m406.08,139.71c.13,0,.26,0,.62.27,4.22,11.77,8.29,23.23,12.16,34.76,1.93,5.74,4.91,11.59,4.93,17.4.03,10.21-1.82,20.43-2.92,30.64-1.13,10.46-2.33,20.9-3.46,31.36-1.11,10.21-2.19,20.43-3.25,30.64-1.2,11.57-2.36,23.14-3.54,34.71-18.52,7.16-37.04,14.3-55.55,21.5-36.67,14.25-73.34,28.52-110,42.8-25.44,9.91-50.87,19.87-76.31,29.79-5.2,2.02-10.44,3.93-15.96,5.7-.3-.47-.3-.74-.28-1.37.02-2.02.02-3.68.24-5.24.64.42,1.07.72,1.39.94,0-5.16,0-10.11.26-14.98,2.68,2.15,5.06,1.07,7.54.1,18.06-7.02,36.12-14.03,54.21-20.97,29.1-11.17,58.24-22.26,87.34-33.43,29.91-11.48,59.79-23.07,89.72-34.49,2.77-1.06,4.38-2.56,4.67-5.5.77-7.88,1.53-15.77,2.37-23.65.86-8.12,1.91-16.22,2.7-24.35.63-6.51,1.01-13.05,1.49-19.61,0-.03.04-.06.27-.27.92-7.47,1.6-14.74,2.55-22.13,2.77-.86,5.34-1.43,7.73-2.44.97-.41,1.54-1.79,2.34-2.98.2-.92.35-1.58.55-2.46-3.35.65-6.4,1.25-9.44,1.51.18-2.3.42-4.25.53-6.22.22-3.79,1.41-7.9.36-11.31-3.76-12.16-8.22-24.12-12.64-36.06-.54-1.46-2.25-2.88-3.75-3.5-4.2-1.74-8.57-3.06-12.65-4.72,8.75-2.27,17.28-4.37,25.81-6.46Z"/><path class="cls-8" d="m152.54,412.57c0,1.66,0,3.33-.21,5.26-.33.22-.46.18-.59.13-.05-.22-.15-.41-.54-.87-.96-1.17-1.7-2.03-2.43-2.89-.04-.21-.15-.39-.53-.85-.97-1.17-1.71-2.04-2.44-2.9-.04-.21-.14-.39-.53-.84-.97-1.18-1.71-2.04-2.45-2.91-.04-.2-.14-.38-.52-.83-.97-1.18-1.71-2.06-2.46-2.93-.04-.2-.14-.37-.52-.81-.97-1.18-1.72-2.07-2.46-2.95-.04-.19-.13-.36-.5-.79-.98-1.14-1.73-1.98-2.49-2.82,0,0-.01.06-.05-.2-1-1.35-1.97-2.44-2.93-3.53,0,0,0,.06-.05-.2-1-1.35-1.97-2.44-2.93-3.53,0,0,0,.07-.04-.2-1.01-1.35-1.97-2.44-2.94-3.53,0,0,0,.06-.04-.21-1.01-1.35-1.98-2.44-2.94-3.53,0,0,0,.06-.04-.21-1.01-1.35-1.98-2.44-2.95-3.52,0,0,.02.05-.03-.23-9.65-12.48-19.27-24.66-28.79-36.92-.99-1.28-1.73-3.03-1.91-4.63-.92-8.38-1.61-16.79-2.38-25.19-1.44-15.69-2.86-31.38-4.31-47.07-1.14-12.35-2.42-24.69-3.4-37.06-.84-10.57-2.72-21.05.33-31.75,2.93-10.24,4.68-20.81,6.96-31.24.28.02.57.04,1.2.27,1.33,1.21,2.31,2.22,3.09,3.39-.39.82-.58,1.47-1.01,2.3-1.4,5.44-2.55,10.71-3.86,16.22-.85,3.18-1.55,6.1-2.37,9.26-.48,1.87-.84,3.49-1.33,5.3-.41,1.38-.69,2.57-1.03,4.08-1.69,3.24.6,5.27,1.56,7.93.42,1.77.55,3.47,1.43,4.59,2.85,3.67,5.96,7.14,8.96,11.03.71,8.23,1.5,16.11,2.16,23.99.83,9.87,1.5,19.75,2.36,29.61,1.41,16.02,2.89,32.04,4.46,48.05.13,1.36.82,2.84,1.68,3.92,11.45,14.49,22.95,28.94,34.51,43.34,4.49,5.59,9.16,11.04,13.84,16.81.23.79.37,1.31.42,2.16.29,6.04.67,11.75,1.06,17.47Z"/><path class="cls-36" d="m89.91,166.32c-.98-1.01-1.96-2.01-3.08-3.21,15.71-3.72,31.57-7.23,47.42-10.78,12.94-2.9,25.87-5.84,39.09-8.89,1.2.96,2.69,1.94,2.91,3.15.65,3.59.8,7.28.82,11.3-14.39,3.43-28.45,6.44-42.5,9.55-8.59,1.9-17.14,3.96-25.89,5.92-.41-.13-.64-.18-1.05-.4-5.49-3.76-11.11-6.57-17.72-6.65Z"/><path class="cls-19" d="m405.88,139.54c-8.33,2.27-16.86,4.37-25.88,6.64-1.04.19-1.58.2-2.32.03-16.29-5.59-32.37-11.01-48.48-16.37-3.16-1.05-6.39-1.91-9.59-2.85-1.89-4.55-3.77-9.1-5.72-13.9,4.3-1.72,8.43-1.62,12.95-.07,26.22,8.95,52.55,17.61,79.04,26.53Z"/><path class="cls-64" d="m85.11,162.83c-1.97,10.42-3.73,21-6.66,31.24-3.06,10.69-1.17,21.18-.33,31.75.98,12.37,2.26,24.71,3.4,37.06,1.44,15.69,2.87,31.38,4.31,47.07.77,8.4,1.47,16.81,2.38,25.19.18,1.61.91,3.35,1.91,4.63,9.52,12.26,19.14,24.44,28.79,36.89-1.79-1.46-3.89-2.97-5.45-4.91-8.48-10.51-16.92-21.05-25.13-31.77-1.54-2.01-2.52-4.8-2.82-7.34-1.04-8.97-1.64-17.99-2.46-26.98-.91-9.85-1.91-19.69-2.81-29.54-.84-9.24-1.57-18.49-2.41-27.73-.89-9.85-1.67-19.72-2.85-29.54-1.1-9.22-.7-18.23,1.55-27.26,2.13-8.54,3.78-17.2,5.82-25.76.27-1.13,1.62-2,2.77-3Z"/><path class="cls-38" d="m410.9,319.42c.9-11.49,2.06-23.06,3.26-34.63,1.06-10.22,2.14-20.43,3.25-30.64,1.13-10.46,2.33-20.9,3.46-31.36,1.1-10.21,2.96-20.43,2.92-30.64-.02-5.81-3.01-11.66-4.93-17.4-3.88-11.53-7.94-22.99-11.97-34.77.77.69,1.94,1.54,2.34,2.66,5.05,13.89,9.86,27.88,15.03,41.72,2.5,6.69.85,13.26.28,19.86-.72,8.26-1.76,16.48-2.67,24.72-1.16,10.45-2.36,20.9-3.48,31.35-1.11,10.33-2.12,20.68-3.25,31.01-.98,8.98-2.04,17.95-3.11,26.92-.05.4-.56.75-1.13,1.2Z"/><path class="cls-64" d="m118.93,377.19c.98.81,1.95,1.89,2.97,3.22-.96-.82-1.97-1.88-2.97-3.22Z"/><path class="cls-64" d="m121.91,380.92c.98.81,1.94,1.9,2.97,3.22-.96-.82-1.97-1.88-2.97-3.22Z"/><path class="cls-64" d="m124.9,384.65c.97.81,1.94,1.9,2.96,3.23-.95-.82-1.96-1.89-2.96-3.23Z"/><path class="cls-64" d="m130.86,392.12c.97.81,1.93,1.9,2.96,3.23-.95-.83-1.96-1.89-2.96-3.23Z"/><path class="cls-64" d="m127.88,388.39c.97.81,1.94,1.9,2.96,3.23-.95-.83-1.96-1.89-2.96-3.23Z"/><path class="cls-64" d="m142.8,406.98c.74.58,1.48,1.45,2.32,2.54-.71-.6-1.52-1.43-2.32-2.54Z"/><path class="cls-64" d="m139.82,403.23c.75.58,1.49,1.46,2.33,2.56-.71-.61-1.53-1.44-2.33-2.56Z"/><path class="cls-64" d="m136.84,399.48c.75.59,1.49,1.47,2.34,2.58-.71-.61-1.53-1.45-2.34-2.58Z"/><path class="cls-64" d="m133.85,395.86c.76.56,1.51,1.4,2.37,2.47-.72-.58-1.55-1.38-2.37-2.47Z"/><path class="cls-64" d="m145.78,410.73c.74.58,1.48,1.44,2.31,2.53-.71-.6-1.51-1.42-2.31-2.53Z"/><path class="cls-64" d="m148.76,414.48c.73.58,1.47,1.44,2.29,2.52-.71-.59-1.5-1.42-2.29-2.52Z"/><path class="cls-64" d="m151.76,418.19c.1-.18.23-.13.55,0,.19.36.19.63.21,1.11-.23-.16-.48-.52-.76-1.11Z"/><path class="cls-50" d="m319.48,127.22c3.34.71,6.56,1.56,9.73,2.61,16.1,5.37,32.19,10.78,48.21,16.48-9.57,2.47-19.06,4.65-28.72,6.56-1.74-.16-3.36-.26-4.88.08-6.05,1.38-12.03,3.03-18.09,4.36-63.65,13.97-127.32,27.9-190.98,41.84-4.74,1.04-7.65-1.73-7.13-6.45.13-1.22-.37-2.96-1.23-3.75-5.75-5.29-11.67-10.39-17.53-15.55,8.57-1.99,17.12-4.05,25.71-5.95,14.04-3.11,28.11-6.12,42.49-9.22,1.31,5.16,5.08,1.95,8.17,2.32.9-.25,1.28-.45,1.63-.64-.03,0,0,.06.28.07,3.03-2.05,5.79-4.11,8.85-6.17.93-.05,1.56-.05,2.16-.18,26.63-5.79,53.25-11.63,79.89-17.37,8.1-1.75,16.26-3.22,24.48-4.59.81.79,1.54,1.34,2.51,2.05,2.78.49,5.33.82,8.04,1.14.38-.06.55-.18.65-.38-.01-.01-.01.03-.01.03,4.46-.28,4.76-3.9,5.77-7.29Z"/><path class="cls-57" d="m312.9,134.88c-2.55-.33-5.1-.67-7.89-1.48-.27-1.1-.27-1.72-.32-2.34-.66-8.52-.68-8.44-8.71-11.21-1.33-.46-2.72-1.75-3.36-3.02-1.86-3.64-3.44-7.43-4.95-11.23-1.21-3.04-3.5-4.46-6.54-4.7-2.09-.17-4.26-.21-6.31.17-27.64,5.12-55.25,10.35-82.89,15.46-3.36.62-4.77,2.35-4.39,5.61.17,1.46.5,2.93.94,4.33,1.93,6.16,3.96,12.28,5.88,18.44,1.55,5.01-.98,10.73-5.42,12.41.03-2.19.5-4.29-.14-5.97-4.11-10.79-8.36-21.54-12.81-32.2-1.35-3.24-.81-6.04,1.89-7.46,3.97-2.09,8.3-4.02,12.69-4.71,32.45-5.14,64.96-9.94,97.43-14.93,3.62-.56,6.93-.19,8.98,2.95,3.52,5.37,6.95,10.85,9.86,16.56,2.19,4.29,3.44,9.04,5.25,13.54.78,1.94,1.64,4.16,4.57,2.96-.91,1.99-1.81,3.97-2.84,6.2-.12.23-.12.2-.27.2-.38.05-.55.19-.65.41Z"/><path class="cls-16" d="m316.65,127.82c-2.92,1.46-3.78-.76-4.56-2.7-1.8-4.49-3.06-9.25-5.25-13.54-2.91-5.71-6.34-11.19-9.86-16.56-2.06-3.14-5.36-3.51-8.98-2.95-32.48,4.98-64.98,9.78-97.43,14.93-4.38.7-8.71,2.63-12.69,4.71-2.7,1.42-3.24,4.22-1.89,7.46,4.45,10.66,8.7,21.41,12.81,32.2.64,1.68.17,3.78-.05,6.08-.81,1.1-1.35,1.81-1.9,2.52,0,0-.02-.05-.26-.09-.59-.03-.94-.02-1.29,0-3.95.75-5.59-1.05-5.74-4.9-.12-3.2-.48-6.41-.95-9.58-.15-.97-.83-2.35-1.62-2.66-6.69-2.68-6.7-9.03-8.02-14.53-.85-3.54-1.2-7.26-1.34-10.91-.08-2.1.69-4.23,1.45-6.53,4.05-5.56,9.8-6.62,15.64-7.69,16.11-2.96,32.2-6.03,48.59-9.04,2.24-.63,4.17-1.28,6.11-1.93,4.43-.81,8.86-1.63,13.89-2.46,2.15-.51,3.69-.99,5.23-1.47.27,0,.55.01,1.24.2,1.6-.2,2.79-.57,3.97-.95,0,0,.23.03.6.22,3.25-.44,6.14-1.07,9.02-1.7,0,0-.03-.01.32,0,4.84.03,9.34.04,13.84.06,5.76,1.66,10.83,4.43,14.81,9.61.38.8.61,1.17.85,1.53,0,0,0-.01.01.21.25.58.49.93.73,1.28,0,0,0,0,.01.21.25.58.49.93.73,1.28,0,0,0-.01.02.21.25.58.49.93.73,1.28,0,0,0-.01.02.21.25.58.49.93.73,1.29,0,0,.01-.02,0,.23.24.84.5,1.42.76,2.01,0,0,0-.02.02.19.26.58.49.94.73,1.3,0,0,0-.02.02.2.26.62.49,1.01.73,1.41,2.44,5.32,4.91,10.64,7.3,15.98.44.98.6,2.09.9,3.39Z"/><path class="cls-34" d="m233.02,94.01c-16.1,3.03-32.18,6.1-48.29,9.06-5.84,1.07-11.59,2.13-15.53,7.47,1.77-5.93,5.57-9.41,12.01-10.26,14.34-1.89,28.63-4.11,43.37-6.15.6.05.75,0,.88-.1,1.29-.23,2.58-.47,4.32-.66.64.04.79-.02.93-.13.35-.12.7-.24,1.42-.22.54.43.72.71.9,1Z"/><path class="cls-33" d="m273.06,85.92c-2.56.64-5.45,1.27-8.58,1.72,2.59-.7,5.42-1.21,8.58-1.72Z"/><path class="cls-33" d="m287.32,85.8c-4.28.19-8.77.17-13.62.15,4.18-2.16,8.79-1.29,13.62-.15Z"/><path class="cls-1" d="m233.32,94.03c-.47-.31-.65-.59-.92-1.02,2.08-.41,4.26-.67,6.73-.92-1.64.67-3.58,1.31-5.81,1.94Z"/><path class="cls-33" d="m258.23,88.16c-1.22.49-2.76.97-4.6,1.42,1.23-.5,2.75-.96,4.6-1.42Z"/><path class="cls-33" d="m263.46,87.41c-.88.38-2.06.76-3.46.96.91-.44,2.03-.7,3.46-.96Z"/><path class="cls-58" d="m306.95,105.1c-.26-.33-.52-.92-.77-1.76.26.33.52.92.77,1.76Z"/><path class="cls-58" d="m308.42,108.21c-.21-.16-.45-.55-.72-1.17.21.16.45.55.72,1.17Z"/><path class="cls-17" d="m185.3,160.01c.35-.16.71-.17,1.32-.14-.12.23-.5.43-1.1.6-.22-.02-.22-.32-.22-.46Z"/><path class="cls-58" d="m307.67,106.62c-.21-.14-.45-.5-.71-1.08.21.14.45.5.71,1.08Z"/><path class="cls-58" d="m306.17,102.89c-.22-.13-.46-.49-.72-1.06.22.13.46.49.72,1.06Z"/><path class="cls-58" d="m305.43,101.39c-.22-.13-.47-.48-.72-1.06.23.13.46.48.72,1.06Z"/><path class="cls-58" d="m304.68,99.89c-.23-.13-.47-.48-.72-1.06.23.13.47.48.72,1.06Z"/><path class="cls-58" d="m303.94,98.4c-.23-.13-.47-.49-.72-1.06.23.13.47.48.72,1.06Z"/><path class="cls-58" d="m303.19,96.91c-.22-.14-.46-.51-.71-1.1.22.14.46.51.71,1.1Z"/><path class="cls-1" d="m230.58,93.17c-.01.17-.17.22-.48.2,0-.18.16-.25.48-.2Z"/><path class="cls-1" d="m225.34,93.96c-.02.16-.16.2-.44.17,0-.17.15-.23.44-.17Z"/><path class="cls-12" d="m348.86,153.14c9.5-2.18,18.99-4.35,28.75-6.64.81-.12,1.35-.14,2.17-.15,4.58,1.48,8.95,2.8,13.15,4.55,1.5.63,3.21,2.05,3.75,3.5,4.42,11.95,8.88,23.9,12.64,36.06,1.05,3.41-.14,7.52-.36,11.31-.11,1.97-.35,3.92-.77,6.34-1.28.87-2.29,1.37-3.35,1.67-10.16,2.87-20.33,5.69-30.48,8.56-50.28,14.24-100.55,28.51-150.83,42.75-22.7,6.43-45.4,12.85-68.13,19.19-1.81.51-3.81.37-5.77.19-1.68-20.91-5.62-40.89-15.01-59.47-1.87-3.7-4.33-7.11-6.54-10.83-.02-.18-.32-.39-.41-.6-.49-.79-.9-1.37-1.38-2.12-.25-.32-.43-.48-.71-.94-.26-.45-.44-.57-.33-.8,72.8-16.86,145.32-33.6,217.82-50.4,1.99-.46,3.87-1.44,5.8-2.17Z"/><path class="cls-5" d="m406.98,214.47c-.69,7.27-1.37,14.54-2.32,21.71-.18-1.06-.09-2.02,0-2.97-15.16,4.38-30.14,8.7-45.32,13.08v8.52c5.38-1.97,10.58-3.87,16.51-6.04-1.55,21.12-3.04,41.48-4.55,62.12,4.71-1.65,9.25-3.25,13.63-4.78.34-6.87.59-13.44,1.02-20.01.8-12.28,1.78-24.55,2.52-36.84.19-3.14,1.05-4.95,4.56-5.34,3.66-.41,7.24-1.49,10.87-2.29.19-1.68.36-3.26.54-4.84-.49,6.53-.86,13.07-1.49,19.58-.79,8.13-1.84,16.23-2.7,24.35-.84,7.88-1.6,15.76-2.37,23.65-.29,2.94-1.9,4.44-4.67,5.5-29.93,11.43-59.81,23.01-89.72,34.49-29.1,11.17-58.23,22.26-87.34,33.43-18.09,6.94-36.15,13.95-54.21,20.97-2.48.97-4.86,2.05-7.6-.38-.39-.91-.47-1.48-.49-2.38-1.23-35.64-2.52-70.94-3.59-106.43,1.15-.52,2.07-.88,3.02-1.16,33.5-9.79,67.01-19.57,100.52-29.35,25.05-7.31,50.1-14.63,75.15-21.92,26.01-7.57,52.02-15.11,78.03-22.66m-52.46,33.18c-.94.33-1.87.9-2.82.93-3.16.12-4.15,1.91-4.94,4.76-4.1,14.71-8.47,29.35-12.76,44.01-.83,2.85-1.74,5.67-2.9,9.46-4.66-16.88-9.03-32.72-13.39-48.55-2.25.71-4.34,1.74-6.51,1.96-2.54.26-3.51,1.4-4.22,3.72-3.68,11.99-7.51,23.93-11.34,35.88-2.19,6.82-4.46,13.61-6.7,20.41-.24-.01-.48-.03-.72-.04-4.01-16.63-8.02-33.26-12.02-49.87-5.92,1.72-11.68,3.39-17.4,5.05,6.58,22.75,13.12,45.36,19.69,68.08,2.71-.94,5.38-1.61,7.79-2.8,1.34-.66,2.82-1.99,3.27-3.35,5.71-16.94,11.24-33.95,16.83-50.93.37-1.12.87-2.2,1.3-3.3.26,0,.52,0,.78,0,4.39,15.08,8.79,30.15,13.2,45.27,1.84-.67,3.66-1.56,5.58-1.96,2.89-.6,4.19-2.17,5.05-5.01,4.25-14.02,8.76-27.96,13.19-41.93,3.33-10.52,6.68-21.03,10.32-31.64-.24-.11-.48-.22-1.27-.16m-150.1,122.02c15.3-2.41,28.69-9.41,41.69-17.34.62-.38,1.26-1.32,1.26-2,.08-9.63.06-19.25.06-28.65-4.93,1.59-10.32,3.34-15.42,4.99,0,4.4-.06,8.73.01,13.06.25,15.12-.82,16.55-15.61,20.49-.96.25-1.94.42-2.92.58-9.86,1.67-17.46-2.67-20.73-12.16-1-2.9-1.52-6.03-1.81-9.1-1.79-18.69,8.66-38.25,24.73-45.77,9.17-4.29,18.4-5.51,26.65,2.39.3.28.89.26,1.8.49,1.13-4.37,2.22-8.59,3.35-12.95-1.37-.33-2.32-.59-3.28-.79-11.34-2.25-22.07.3-32.36,4.68-23.27,9.91-38.78,26.12-41.01,52.51-1.66,19.53,10.06,31.35,29.61,30.05,1.11-.07,2.22-.26,3.99-.48Z"/><path class="cls-63" d="m404.43,236.75c-.17,1.61-.34,3.19-.53,4.87-3.63.79-7.22,1.88-10.87,2.29-3.51.39-4.37,2.2-4.56,5.34-.74,12.29-1.72,24.56-2.52,36.84-.43,6.57-.67,13.14-1.02,20.01-4.38,1.54-8.92,3.13-13.63,4.78,1.51-20.63,3-41,4.55-62.12-5.92,2.17-11.12,4.07-16.51,6.04v-8.52c15.18-4.38,30.15-8.7,45.32-13.08-.08.95-.17,1.91-.22,3.18.03.31-.01.34,0,.37Z"/><path class="cls-35" d="m149.67,280.82c1.91-.16,3.9-.03,5.72-.54,22.73-6.34,45.43-12.76,68.13-19.19,50.28-14.24,100.55-28.51,150.83-42.75,10.16-2.88,20.33-5.69,30.48-8.56,1.07-.3,2.07-.81,3.35-1.34,3.29-.72,6.34-1.31,9.69-1.96-.19.88-.34,1.54-.83,2.43-.94.33-1.56.4-2.15.57-68.87,19.94-137.74,39.91-206.61,59.84-20.05,5.8-40.12,11.51-60.23,17.11-.05-.15-.16-.44-.14-.75.27-1.85.52-3.39.88-4.83.37.05.63.01.89-.03Z"/><path class="cls-31" d="m148.1,286.58c20.06-5.75,40.14-11.46,60.18-17.26,68.87-19.93,137.74-39.89,206.61-59.84.59-.17,1.21-.24,2.09-.32-.47.97-1.03,2.35-2,2.76-2.39,1.01-4.96,1.58-7.73,2.44-26.28,7.66-52.29,15.2-78.3,22.77-25.06,7.29-50.1,14.61-75.15,21.92-33.51,9.78-67.01,19.56-100.52,29.35-.95.28-1.87.65-3.28,1.11-1-.27-1.52-.67-2.05-1.07,0,.02-.02.02.02-.29.07-.73.1-1.15.13-1.57Z"/><path class="cls-51" d="m153.79,396.32c.08.57.15,1.13.29,1.98.06,5.22.06,10.17.06,15.33-.32-.23-.75-.53-1.39-.94-.59-5.83-.97-11.55-1.1-17.5.89.22,1.51.68,2.14,1.13Z"/><path class="cls-7" d="m150.97,392.68c-4.59-5.51-9.26-10.96-13.75-16.55-11.56-14.4-23.05-28.85-34.51-43.34-.86-1.09-1.55-2.56-1.68-3.92-1.56-16.01-3.05-32.03-4.46-48.05-.87-9.86-1.53-19.75-2.36-29.61-.67-7.89-1.45-15.77-1.95-23.85,3.77,3.5,7.3,7.2,10.98,11.11,2.28,3.3,4.43,6.39,6.62,9.74,2.48,4.66,4.93,9.06,7.4,13.72,1.1,2.45,2.18,4.64,3.32,7.08,1.15,2.36,2.24,4.47,3.37,6.86,1.3,3.05,2.57,5.83,3.88,8.88,1.06,2.81,2.08,5.35,3.18,8.14,1,2.58,1.92,4.9,2.87,7.49,1,2.83,1.96,5.39,2.96,8.22.99,2.84,1.95,5.41,2.93,8.26.27,1.57.52,2.86.89,4.41.93,2.93,2.06,5.55,2.5,8.28.54,3.36,2.21,4.63,5.51,4.52.19,3.06.36,5.79.46,8.51.62,16.7,1.24,33.41,1.85,50.11Z"/><path class="cls-49" d="m151.06,392.93c-.71-16.96-1.32-33.67-1.94-50.37-.1-2.72-.26-5.44-.41-8.85-.28-5.44-.54-10.19-.76-15.24-.25-2.09-.55-3.88-.8-6,.06-2.85.08-5.37.16-8.21-.28-3.09-.61-5.85-.9-8.92.55-2.51,1.05-4.71,1.55-6.91.53.41,1.05.82,1.83,1.27,1.54,35.35,2.82,70.65,4.06,106.28-.68-.12-1.3-.58-2.1-1.12-.31-.62-.45-1.14-.68-1.93Z"/><path class="cls-22" d="m81.27,199.39c.36-1.62.72-3.25,1.54-5.12,2.91-.4,5.37-.53,7.83-.68,2.66-.16,5.65.37,7.9-.69,3.61-1.69,6.67-4.52,10.06-6.71,1.58-1.02,3.38-1.69,5.07-2.52,0,.01,0,0,.08.15.25.35.44.5.65.61-.01.01.01-.01.1.14.24.35.43.49.65.6,0,0,.01-.01.15.16.54.3.95.44,1.34.58,0,.01.02,0,.11.16.24.35.43.49.65.59,0,0,.01-.01.15.16.54.3.94.44,1.35.58,0,0,.02,0,0,.25-.02.6-.03.94-.25,1.4-7.5,8.31-16.08,14.1-27.44,14.52-.46-3.53-2.4-4.6-5.5-4.23-1.46.17-2.97.04-4.45.05Z"/><path class="cls-10" d="m113.69,183.66c-1.7.83-3.5,1.5-5.08,2.53-3.39,2.2-6.46,5.02-10.06,6.71-2.25,1.05-5.24.52-7.9.69-2.46.15-4.92.28-7.71.44.36-2.91,1.07-5.83,2.15-8.77,5.34,2.43,16.46-1.73,19.18-7.57,3.32,2.03,6.38,4,9.44,5.97Z"/><path class="cls-23" d="m103.99,177.63c-2.46,5.89-13.58,10.06-18.77,7.37.93-5.51,2.08-10.77,3.74-16.13,4.08,1.92,7.65,3.94,11.39,6.13,1.33.99,2.48,1.81,3.64,2.63Z"/><path class="cls-61" d="m81.14,199.57c1.62-.19,3.12-.06,4.58-.24,3.1-.37,5.03.7,5.3,4.41-.27,2.83-.39,5.19-.56,7.79-.55,1.1-1.04,1.95-1.73,2.7-.58-.7-.96-1.31-1.39-2.13-.25-.4-.45-.58-.85-.92-2.24-2.72-4.28-5.29-6.33-7.85.28-1.19.56-2.39.97-3.77Z"/><path class="cls-24" d="m103.11,238.24c-3.54-3.7-7.08-7.4-10.83-11.24-3.22-3.69-6.34-7.15-9.19-10.83-.87-1.13-1.01-2.82-1.25-4.47,3.02,2.89,5.75,6.04,8.64,9.04.79.82,2.06,1.19,3.08,1.76-.02,0-.03-.05-.23.21.3.82.8,1.4,1.51,2.1,2.37,2.89,4.54,5.66,6.71,8.48,0,.06.08.17.08.43.27.67.54,1.08.81,1.47,0-.01-.03,0,0,.27.23,1.1.45,1.94.67,2.78Z"/><path class="cls-3" d="m100.18,174.84c-3.57-2.02-7.14-4.04-10.98-6.15-.08-.73.11-1.38.5-2.2,6.82-.09,12.43,2.72,17.64,6.55-2.47.77-4.81,1.29-7.16,1.8Z"/><path class="cls-62" d="m93.59,222.51c-1.05-.57-2.31-.94-3.1-1.76-2.89-3-5.62-6.16-8.59-9.38-1.19-2.45-3.48-4.48-1.79-7.72,2.1,2.26,4.14,4.82,6.42,7.75.44.55.65.74.86.92.38.61.77,1.21,1.32,1.93.17.1.17.16.22.42,1.59,2.78,3.12,5.31,4.66,7.84Z"/><path class="cls-59" d="m100.35,175c2.17-.68,4.52-1.19,7.15-1.77.53-.05.77,0,1.18.14,6.04,5.19,11.97,10.29,17.71,15.58.86.79,1.36,2.54,1.23,3.75-.52,4.72,2.38,7.49,7.13,6.45,63.66-13.94,127.33-27.87,190.98-41.84,6.06-1.33,12.04-2.98,18.09-4.36,1.52-.35,3.14-.24,4.88-.08-1.77,1-3.64,1.97-5.64,2.43-72.5,16.79-145.01,33.54-217.96,50.26-1.11-1.33-1.79-2.62-2.41-4.21.4-2.09.72-3.88,1.07-5.67,1.07-5.34.4-6.5-4.83-8.31,0,0-.02,0-.15-.18-.54-.31-.95-.44-1.37-.56,0,0-.02.02-.08-.16-.22-.38-.42-.52-.67-.58,0,0-.02,0-.14-.19-.53-.32-.94-.45-1.35-.57,0,0-.02.02-.08-.15-.22-.38-.42-.51-.66-.58,0,0-.02.02-.09-.15-.23-.37-.43-.52-.67-.6,0,0,0,.02,0,0-3.05-1.98-6.11-3.95-9.43-5.98-1.41-.88-2.57-1.7-3.89-2.69Z"/><path class="cls-36" d="m302.43,131.44c-8.13,1.6-16.29,3.08-24.39,4.82-26.64,5.74-53.26,11.58-79.89,17.37-.6.13-1.23.12-2.12-.11,1.99-5.13.81-9.86-.35-14.68,31.84-7.03,63.36-13.97,95.07-20.72,1.41,1.08,2.57,2.59,3.89,2.74,5.36.61,7.79,3.46,7.67,8.73-.01.61.08,1.23.13,1.84Z"/><path class="cls-17" d="m195.37,138.94c1.48,4.73,2.65,9.47.35,14.59-2.8,2.35-5.55,4.41-8.58,6.46.26-.72.81-1.43,1.54-2.25,4.71-2.08,7.24-7.8,5.69-12.81-1.91-6.16-3.95-12.28-5.88-18.44-.44-1.41-.77-2.87-.94-4.33-.39-3.26,1.03-4.99,4.39-5.61,27.64-5.11,55.25-10.34,82.89-15.46,2.05-.38,4.22-.33,6.31-.17,3.04.24,5.33,1.66,6.54,4.7,1.51,3.8,3.1,7.59,4.95,11.23.65,1.27,2.03,2.56,3.36,3.02,8.03,2.77,8.06,2.69,8.71,11.21.05.62.05,1.24.08,2.18-.72-.23-1.46-.79-2.27-1.57-.13-.85-.22-1.46-.21-2.08.12-5.27-2.3-8.12-7.67-8.73-1.32-.15-2.48-1.66-3.93-3-2.2-4.27-4.18-8.09-6.17-12.18-1.31-3.46-4.26-3.51-6.79-3.15-6.92.98-13.79,2.35-20.66,3.63-19.9,3.71-39.78,7.47-59.68,11.18-7.59,1.41-7.59,1.37-5.99,9.18,1.31,4.32,2.63,8.37,3.95,12.41Z"/><path class="cls-13" d="m313.06,134.86c-.06-.2.1-.33.5-.38.05.2-.12.32-.5.38Z"/><path class="cls-30" d="m122.63,201.66c.68,1.29,1.36,2.58,2.18,4.01.32.27.5.39.47.84-1.49.71-3.06.75-4.01,1.53-7.66,6.38-16.72,9.48-26.49,11.35-2.11-1.74-4.01-3.36-5.9-4.97,0,0,0-.06.02-.07.52-.86,1.01-1.71,1.89-2.81,10.74-.31,19.4-4.59,27.27-10.94,1.08-.87,2.5-1.33,3.76-1.7.27,1.1.54,1.93.8,2.75Z"/><path class="cls-44" d="m95,219.52c9.56-1.99,18.61-5.09,26.27-11.48.95-.79,2.52-.83,4.09-1.21.48.15.67.3.93.85.54.96,1,1.53,1.45,2.1,0,0,.3.21.17.53-.09.99-.05,1.66-.13,2.56-7.8,7.11-16.71,11.45-27.01,13.21-2.05-2.29-3.91-4.43-5.77-6.56Z"/><path class="cls-47" d="m127.91,212.64c-.04-.67-.09-1.34.02-2.15,2.34,3.4,4.8,6.81,6.68,10.51,9.39,18.57,13.33,38.56,15.01,59.47-.2.39-.46.43-.91.15-1.09-1.41-1.99-2.51-2.85-3.94-.55-4.84-1.13-9.34-1.7-14.13-.49-2.84-.99-5.37-1.5-8.2-.95-3.37-1.91-6.45-2.87-9.71-.01-.17-.04-.51.01-.78-.2-1.09-.46-1.92-.7-2.74.01.01.03-.02.04-.3-.42-1.66-.84-3.04-1.32-4.66-.35-1.01-.63-1.78-.94-2.81-.52-1.32-1.03-2.38-1.55-3.42-.02.02.03.01.05-.24-.25-.84-.52-1.43-.8-2-.01.02.03.02.04-.23-.26-.85-.52-1.44-.79-2.01,0,.02.04.03,0-.21-.26-.66-.5-1.08-.75-1.75-.49-1.11-.97-1.97-1.41-2.91.03-.07-.02-.23-.05-.48-.27-.68-.51-1.1-.78-1.79-1-2.07-1.96-3.88-2.93-5.69Z"/><path class="cls-59" d="m127.65,209.57c-.37-.36-.83-.93-1.3-1.73.4.35.8.93,1.3,1.73Z"/><path class="cls-15" d="m355.49,247.9c-3.34,10.52-6.69,21.03-10.03,31.55-4.43,13.97-8.94,27.91-13.19,41.93-.86,2.84-2.16,4.42-5.05,5.01-1.92.4-3.74,1.3-5.58,1.96-4.41-15.12-8.8-30.2-13.2-45.27-.26,0-.52,0-.78,0-.44,1.1-.93,2.18-1.3,3.3-5.59,16.98-11.12,33.99-16.83,50.93-.46,1.35-1.93,2.69-3.27,3.35-2.41,1.19-5.08,1.86-7.79,2.8-6.57-22.73-13.11-45.34-19.69-68.08,5.72-1.66,11.49-3.33,17.4-5.05,4,16.61,8.01,33.24,12.02,49.87.24.01.48.03.72.04,2.24-6.8,4.51-13.59,6.7-20.41,3.83-11.94,7.67-23.89,11.34-35.88.71-2.32,1.68-3.47,4.22-3.72,2.17-.22,4.26-1.25,6.51-1.96,4.37,15.82,8.74,31.67,13.39,48.55,1.16-3.79,2.07-6.61,2.9-9.46,4.29-14.66,8.66-29.3,12.76-44.01.79-2.85,1.79-4.64,4.94-4.76.95-.04,1.88-.61,3.19-.91.37.03.59.23.59.23Z"/><path class="cls-15" d="m204.1,369.71c-1.44.18-2.55.36-3.66.44-19.54,1.3-31.26-10.53-29.61-30.05,2.24-26.39,17.75-42.6,41.01-52.51,10.29-4.38,21.03-6.93,32.36-4.68.96.19,1.91.45,3.28.79-1.13,4.36-2.22,8.58-3.35,12.95-.9-.23-1.5-.2-1.8-.49-8.25-7.9-17.48-6.68-26.65-2.39-16.08,7.52-26.52,27.08-24.73,45.77.29,3.07.81,6.2,1.81,9.1,3.27,9.49,10.87,13.83,20.73,12.16.98-.17,1.96-.33,2.92-.58,14.79-3.93,15.85-5.36,15.61-20.49-.07-4.33-.01-8.65-.01-13.06,5.1-1.65,10.49-3.39,15.42-4.99,0,9.4.03,19.02-.06,28.65,0,.68-.65,1.62-1.26,2-13,7.93-26.39,14.93-42.02,17.39Z"/><path class="cls-15" d="m355.17,247.59c.14,0,.38.11.47.27-.15.05-.37-.16-.47-.27Z"/><path class="cls-4" d="m145.83,277.02c.9,1.1,1.79,2.19,2.77,3.51-.17,1.76-.42,3.3-.91,5.04-4.13-4.46-8.01-9.12-11.6-13.81,1.44-.29,2.59-.53,3.95-.64,2.07,2.06,3.93,3.98,5.79,5.91Z"/><path class="cls-60" d="m135.79,271.79c3.88,4.66,7.77,9.31,11.87,14.09.22.12.33.41.38.56.02.57,0,.99-.33,1.69-.89-.28-1.49-.85-2.18-1.64-2.45-2.63-4.82-5.02-7.25-7.66-2.27-2.55-4.47-4.87-6.72-7.4-.28-.78-.51-1.34-.65-2.11.31-.63.52-1.05.94-1.33,1.45,1.36,2.69,2.59,3.93,3.81Z"/><path class="cls-48" d="m145.63,286.71c.6.57,1.2,1.13,2.05,1.73.25.03.28.02.28,0-.5,2.18-1,4.38-1.81,6.94-4.3,1.81-8.3,3.26-12.3,4.71-.92-2.32-1.84-4.64-2.57-7.23,4.91-2.23,9.63-4.19,14.34-6.16Z"/><path class="cls-21" d="m145.54,286.48c-4.63,2.2-9.35,4.16-14.34,6.13-1.29-2.53-2.31-5.07-3.1-7.93,3.57-2.09,6.91-3.85,10.26-5.62,2.37,2.4,4.73,4.79,7.18,7.42Z"/><path class="cls-37" d="m138.29,278.83c-3.28,2.01-6.62,3.77-10.24,5.59-1.54-2.73-2.8-5.51-3.82-8.62,2.62-1.61,5-2.88,7.38-4.15,2.21,2.31,4.41,4.63,6.68,7.18Z"/><path class="cls-29" d="m133.88,300.37c3.97-1.72,7.97-3.17,12.22-4.68.59,2.71.93,5.48.94,8.61-3.63,1.58-6.93,2.8-10.23,4.01-.97-2.56-1.93-5.11-2.93-7.94Z"/><path class="cls-41" d="m131.65,267.85c-.21.42-.42.84-.94,1.34-1.42-1.07-2.54-2.23-3.76-3.61-2.03-2.31-3.94-4.4-5.98-6.72-2.23-2.49-4.27-4.83-6.47-7.01-1.44-1.43-3.11-2.62-4.68-3.91-2.15-3.09-4.29-6.18-6.58-9.48-.35-1.05-.57-1.89-.57-2.99.78,0,1.35.25,1.99.74,2.54,3.07,5.01,5.89,7.59,8.93,2.46,2.81,4.81,5.39,7.25,8.22,3.31,3.86,6.51,7.48,9.84,11.3.85,1.2,1.58,2.19,2.31,3.19Z"/><path class="cls-32" d="m147.91,318.77c.26,4.75.53,9.5.74,14.6-3.28.8-4.95-.47-5.49-3.83-.44-2.73-1.57-5.36-2.23-8.33,2.44-1.01,4.71-1.73,6.98-2.44Z"/><path class="cls-40" d="m136.85,308.59c3.26-1.49,6.56-2.7,10.13-3.96.25,2.47.24,4.98-.08,7.89-2.58,1.61-4.86,2.83-7.14,4.05-.96-2.57-1.92-5.13-2.91-7.97Z"/><path class="cls-20" d="m127.06,265.8c1.11,1.16,2.23,2.31,3.55,3.6.44.69.68,1.25.96,2.03-2.34,1.49-4.71,2.76-7.38,4.09-1.38-2.05-2.46-4.16-3.37-6.57,2.2-1.25,4.22-2.2,6.23-3.16Z"/><path class="cls-2" d="m126.95,265.57c-1.9,1.18-3.92,2.13-6.19,3.13-1.33-2.15-2.4-4.34-3.36-7.02,1.31-1.2,2.5-1.9,3.68-2.61,1.92,2.09,3.83,4.18,5.86,6.5Z"/><path class="cls-52" d="m120.98,258.86c-1.07.92-2.26,1.63-3.59,2.57-2.59-4.17-5.04-8.56-7.52-13.23,1.53,1.03,3.2,2.22,4.64,3.65,2.2,2.18,4.25,4.52,6.47,7.01Z"/><path class="cls-55" d="m139.77,316.85c2.27-1.5,4.55-2.72,7.08-3.99.55,1.74.84,3.53,1.1,5.61-2.32,1.02-4.59,1.73-7.13,2.49-.53-1.25-.78-2.54-1.05-4.11Z"/><path class="cls-25" d="m121.82,198.63c-1.26.65-2.68,1.1-3.76,1.97-7.87,6.34-16.53,10.63-27.21,10.69-.22-2.37-.1-4.73.21-7.27,11.52-.89,20.1-6.67,27.86-14.94,3.5.97,4.21,3.02,3.3,5.95-.35,1.13-.29,2.39-.41,3.59Z"/><path class="cls-10" d="m121.83,198.91c.12-1.47.05-2.73.4-3.87.91-2.94.2-4.99-3.09-6.07-.26-.39-.26-.73-.23-1.33,5.25,1.55,5.92,2.71,4.85,8.05-.36,1.78-.68,3.58-1.07,5.67-.32-.53-.59-1.35-.86-2.45Z"/><path class="cls-10" d="m117.55,186.81c.28-.05.69.08,1.22.39-.28.05-.68-.08-1.22-.39Z"/><path class="cls-10" d="m115.31,185.32c.27-.04.69.08,1.22.39-.28.05-.68-.09-1.22-.39Z"/><path class="cls-10" d="m113.76,183.82c.15-.07.34.07.58.43-.15.07-.34-.08-.58-.43Z"/><path class="cls-10" d="m114.52,184.57c.16-.09.36.05.58.42-.15.07-.34-.07-.58-.42Z"/><path class="cls-10" d="m116.76,186.06c.16-.09.36.04.58.42-.15.07-.34-.07-.58-.42Z"/><path class="cls-28" d="m87.35,212.12c-.17.02-.37-.16-.62-.56.17-.02.37.16.62.56Z"/><path class="cls-28" d="m94.78,219.39c2.07,2.26,3.93,4.4,6.11,6.9,1.47,1.72,2.62,3.07,3.5,4.43-1.13.84-1.99,1.68-2.84,2.51-2.17-2.77-4.33-5.53-6.78-8.68-.6-.95-.91-1.52-1.23-2.09,0,0,0,.05.03.05-1.51-2.53-3.04-5.06-4.63-7.84,1.84,1.36,3.74,2.98,5.85,4.72Z"/><path class="cls-56" d="m101.56,233.3c.85-.9,1.7-1.73,3.02-2.42,1.58,1.29,2.7,2.43,3.82,3.76,0,.18.02.55-.26.56-1.37.26-2.46.51-3.56.77-.57-.25-1.13-.5-1.93-.76-.23,0-.21-.02-.23-.26-.28-.65-.53-1.07-.79-1.49,0,0-.07-.11-.08-.17Z"/><path class="cls-62" d="m93.34,222.71c.52.32.83.89,1.23,1.72-.42-.32-.93-.89-1.23-1.72Z"/><path class="cls-41" d="m101.64,233.72c.25.16.51.58.79,1.24-.25-.16-.51-.57-.79-1.24Z"/><path class="cls-26" d="m284.54,105.97c1.98,3.81,3.96,7.63,5.98,11.71-31.48,7.21-63.01,14.15-94.85,21.18-1.63-3.96-2.95-8-3.97-12.33,5.35-1.34,10.42-2.34,15.45-3.45,25.79-5.69,51.58-11.4,77.37-17.11Z"/><path d="m284.54,105.69c-25.79,5.98-51.57,11.7-77.37,17.38-5.04,1.11-10.1,2.11-15.45,3.17-1.91-7.52-1.9-7.48,5.69-8.89,19.9-3.71,39.78-7.47,59.68-11.18,6.88-1.28,13.74-2.65,20.66-3.63,2.53-.36,5.47-.31,6.79,3.15Z"/><path class="cls-39" d="m108.39,234.45c-1.12-1.15-2.24-2.29-3.54-3.59-1.34-1.5-2.5-2.85-3.77-4.42,9.99-2.12,18.91-6.46,26.7-13.57,1.09,1.57,2.05,3.39,3.07,5.71.3.93.55,1.36.8,1.78,0,0,.05.16,0,.54-.48,1.23-.69,2.38-1.37,2.88-6.63,4.91-13.73,8.87-21.88,10.68Z"/><path class="cls-53" d="m108.4,234.64c8.14-1.99,15.25-5.95,21.88-10.86.68-.5.89-1.65,1.34-2.81.49.56.97,1.42,1.48,2.78.28.91.52,1.32.76,1.74,0,0-.05,0-.04.23.27.82.53,1.42.79,2.01,0,0-.05,0-.04.23.27.82.52,1.41.78,2,0,0-.05,0-.04.27,0,.84,0,1.4-.24,2.08-5.68,2.97-11.16,5.79-16.57,8.73-1,.54-1.74,1.56-2.76,2.28-.37-.23-.54-.41-.76-.86-2.25-2.57-4.4-4.91-6.55-7.26,0,0-.01-.37-.02-.55Z"/><path class="cls-65" d="m139.75,244.13s.02.34.03.81c.42,3.04-1.26,4.22-3.16,5.24-3.22,1.74-6.45,3.48-9.86,5.09-1.24-1.07-2.29-2.01-3.45-3.16-.58-1.02-1.04-1.83-1.36-2.87,5.53-3.1,10.92-5.98,16.42-8.7.33.29.55.43.77.57,0,0-.02.03-.04.29.2,1.08.43,1.91.66,2.73Z"/><path class="cls-54" d="m126.94,255.4c3.22-1.74,6.45-3.48,9.67-5.21,1.9-1.03,3.58-2.21,3.18-5.07.96,2.78,1.91,5.86,2.69,9.4-1.4,1.26-2.61,2.09-3.84,2.89-2.13,1.39-4.28,2.76-6.59,4.08-.18-.05-.54-.13-.64-.35-1.56-2.06-3.01-3.89-4.47-5.73Z"/><path class="cls-9" d="m132.23,261.53c2.14-1.38,4.28-2.75,6.41-4.13,1.23-.8,2.44-1.62,3.84-2.59.68,2.38,1.19,4.91,1.52,7.93-2.04,2.14-3.91,3.81-5.99,5.32-2.06-2.27-3.92-4.4-5.78-6.52Z"/><path class="cls-43" d="m138.21,268.2c1.87-1.66,3.74-3.32,5.78-5.17.74,4.32,1.32,8.82,1.87,13.65-1.89-1.59-3.75-3.52-5.93-5.78-.78-1.13-1.25-1.91-1.72-2.7Z"/><path class="cls-46" d="m139.13,240.83c-.22.14-.44,0-.87-.54-.39-1.47-.56-2.54-.64-3.67.08-.07.26-.2.26-.2.42,1.38.85,2.76,1.26,4.42Z"/><path class="cls-46" d="m135.29,232.19c0-.57.01-1.13.03-1.99.52.77,1.02,1.83,1.52,3.17,0,.28-.07.32-.23.19-.55-.55-.93-.96-1.31-1.38Z"/><path class="cls-46" d="m139.8,243.86c-.28-.56-.51-1.38-.73-2.48.27.56.52,1.38.73,2.48Z"/><path class="cls-46" d="m136.86,233.64c.32.75.6,1.52.95,2.53.06.24-.11.37-.37.24-.4-.99-.53-1.85-.66-2.72,0,0,.06-.04.09-.06Z"/><path class="cls-46" d="m134.61,227.47c-.26-.34-.52-.93-.78-1.78.26.34.52.93.78,1.78Z"/><path class="cls-46" d="m135.37,229.7c-.28-.34-.54-.93-.79-1.77.27.34.55.93.79,1.77Z"/><path class="cls-53" d="m131.62,220.11c-.22-.18-.47-.6-.73-1.28.22.17.46.6.73,1.28Z"/><path class="cls-46" d="m133.83,225.25c-.21-.17-.45-.59-.71-1.25.22.17.45.59.71,1.25Z"/><path class="cls-45" d="m138.01,268.05c.67.94,1.14,1.72,1.71,2.72-1.04.45-2.18.7-3.63.98-1.54-1.18-2.78-2.4-4.23-3.77-.94-1.13-1.67-2.13-2.46-3.58.66-1.32,1.39-2.19,2.11-3.05,0,0,.36.08.54.13,2.04,2.17,3.89,4.3,5.96,6.57Z"/><path class="cls-18" d="m131.41,261.12c-.62,1.09-1.34,1.96-2.12,3.08-3.26-3.37-6.47-6.99-9.48-10.86,1.34-.51,2.47-.77,3.61-1.03,1.05.94,2.09,1.89,3.33,2.96,1.65,1.96,3.1,3.8,4.66,5.86Z"/><path class="cls-11" d="m123.3,252.11c-1.02.47-2.15.73-3.59,1-2.64-2.58-4.99-5.16-7.39-8.21.88-1.05,1.82-1.63,2.75-2.22.12.22.28.41.79.85,2.18,2.18,4.06,4.06,5.95,5.94.46.81.92,1.62,1.5,2.64Z"/><path class="cls-27" d="m114.97,242.45c-.84.81-1.78,1.4-2.78,2.23-2.53-2.58-4.99-5.4-7.53-8.47,1.01-.5,2.11-.75,3.48-1.01,2.43,2.34,4.58,4.68,6.83,7.25Z"/><path class="cls-42" d="m121.94,249.24c-2.02-1.65-3.91-3.54-5.92-5.63.73-1.01,1.47-2.03,2.47-2.57,5.41-2.94,10.89-5.76,16.57-8.73.61.3,1,.72,1.54,1.27.3.99.44,1.86.75,2.92.35,1.26.52,2.33.79,3.65-5.29,3.13-10.68,6-16.2,9.1Z"/></g><polygon class="cls-6" points="223.02 244.21 239.28 220.08 241.37 231.41 256.09 206.95 263.94 221.61 292.56 182.77 310.31 202.75 316.42 192.72 346.05 211.22 223.02 244.21"/></svg>