<?xml version="1.0" encoding="UTF-8"?><svg id="Layer_1" xmlns="http://www.w3.org/2000/svg" viewBox="0 0 500 500"><defs><style>.cls-1{fill:#f8ad41;}.cls-2{fill:#76c29a;}.cls-3{fill:#73af8e;}.cls-4{fill:#376660;}.cls-5{fill:#ed4035;}.cls-6{fill:#c4e3d2;}</style></defs><path class="cls-3" d="m358.88,241.47l-25.42-51.21,8.1,34.26,17.32,16.95Z"/><path class="cls-6" d="m329.05,172.32l19.62,82.89-63.1-66.68-91.96-85.84-23.47-61.52,158.9,131.15Z"/><path class="cls-2" d="m290.63,190.59l-82.63-39.62-45.11-48.46-5.9-31.92,133.64,120h0Z"/><path class="cls-1" d="m353.84,258.85l-78-19.89-150.01-86.29-58.5-80.29,225.01,119.31,61.5,67.16h0Z"/><path class="cls-3" d="m272.26,236.67v2.3l-10.07,18.82-52.61-17.28-97.77-73.35-38.06-54.53,43.66,26.11,6.72,10.37,148.14,87.55h0Z"/><path class="cls-1" d="m130.51,181.54l-7.28-.85-25.47-9.3,52.16,47.79,13.75,10.57,54.58,18.18-87.74-66.4h0Z"/><path class="cls-2" d="m344.36,255.28l-1.11,42.35-4.05-6.92-23.58-1.63-54.52-31.36,12.53-21.99,70.73,19.55h0Z"/><path class="cls-6" d="m122.46,208.63l67.87,51.86,70.49,23.46,54.37,4.94-53.99-31.28-138.74-48.98h0Z"/><path class="cls-2" d="m155.37,249.95l47.15,26.16,54.89,5.53-66.31-20.63-10.68-6.63-25.05-4.42h0Z"/><path class="cls-3" d="m260.16,280.57l-77.16-6.73,39.75,15.26,26.11,3.59,11.3-12.11h0Z"/><path class="cls-2" d="m242.68,292.46l-6.63.98-30.95,4.4,15.1-10.26,22.47,4.89h0Zm49.42,6.69l-1.51,2.68-112.94,65.44-22.29,29.47,7.93-31.76,24.55-33.68,70.26-47.45,33.99,15.31h0Z"/><path class="cls-1" d="m168.63,331.36l-19.89,26.16v-11.42l19.89-14.74h0Z"/><path class="cls-6" d="m332.57,303.73l-75.52,51.21-6.26-10.68-26.16,55.26,5.89,8.11,4.42,51.21-31.68-58.57,25.79-63.37,63-39.05,40.52,5.89h0Z"/><path class="cls-1" d="m229.05,335.78l-50.47,27.26-1.48,37.58,15.47,50.47v-25.79l36.47-89.52h0Z"/><path class="cls-3" d="m166.42,407.99l.74,2.58,6.63,28-8.84-5.53,1.48-25.05h0Zm91.94-56.65l-6.77-8.35-28.27,53.55,45,58.87-11.15-26.21,1.19-77.86h0Z"/><path class="cls-2" d="m263.68,348.15l-5.89,3.09-.37,64.14,11.05,23.18,20.63-7.73-.74-15.46-22.47-22.03-2.21-45.21h0Z"/><path class="cls-1" d="m365.41,302.95l-34.26,9.58-37.21,31.68-20.26-.74,58.58-39.42,33.16-1.11h0Z"/><path class="cls-3" d="m351.33,307.18l-10.74-19.75-96.63-7.56,43.33,18.07,64.04,9.25h0Zm-56.33,35.8l4.79,11.3,10.31,7.4h1.84l-.74,12.07-31.68,13.24-10.68-24.54-2.95-14.41,9.58-7.79,19.53,2.73h0Z"/><path class="cls-4" d="m311.94,406.52l-19.16-8.47-7.37,15.11,2.58,3.68-.37,16.21,14,15.84-2.21-29.84,3.32-1.47,11.05,10.68-5.16-12.16-11.79-6.26,2.58-4.42,12.53,5.53v-4.42h0Zm4.79-63l-7.37,17.68,1.48,15.1,15.1,18.79-1.84-30.21,2.21-1.47,11.79,10.32-4.79-11.42-13.26-7,2.21-3.68,13.63,5.89-.37-5.16-18.79-8.84h0Z"/><path class="cls-6" d="m384.88,265.42l-40.89-9.58v38.31l4.79,8.47,36.1.37,34.26,11.79-1.1-4.79-21-12.16-42-16.58,23.95-.37-23.21-10.68,29.1-4.79h0Z"/><path class="cls-3" d="m432.58,300.44l-15.47-25.05-35.37-10.68-28,5.16,22.1,11.05-20.63.74,38.68,16.58,22.1,10.68,16.58-8.47h0Z"/><path class="cls-5" d="m412.42,330.26l5.89-8.84-4.42-11.42,18.42-10.32.37,21-11.05,9.95-9.21-.37h0Z"/><path class="cls-5" d="m427.19,297.3l-12.64-5.9-6.74,5.9"/></svg>