<?xml version="1.0" encoding="UTF-8"?><svg id="Layer_1" xmlns="http://www.w3.org/2000/svg" viewBox="0 0 500 500"><defs><style>.cls-1{fill:#e32e16;fill-rule:evenodd;}</style></defs><path class="cls-1" d="m287.35,202.24c1.34-2.36,3.38-4.38,6.05-5.13,1.21-.02,2.41-.02,3.62-.01,1.64.76,3.08,1.94,3.97,3.53.7,1.59.32,3.25-.04,4.87-.47.98-.82,2-1.16,3.03-.29.62-.54,1.25-.77,1.89-.28.62-.53,1.24-.75,1.88-.27.62-.52,1.25-.75,1.88-.27.62-.52,1.25-.76,1.89-.27.62-.52,1.25-.75,1.88-.27.62-.52,1.25-.75,1.88-.27.62-.52,1.25-.75,1.88-.27.62-.52,1.25-.75,1.88-.27.62-.52,1.25-.75,1.88-.27.62-.52,1.25-.75,1.88-.27.62-.52,1.25-.75,1.88-.27.62-.52,1.25-.75,1.88-.27.62-.52,1.25-.75,1.88-.27.62-.52,1.25-.75,1.89-.27.62-.52,1.24-.75,1.88-.27.62-.53,1.25-.76,1.88-.27.62-.52,1.25-.75,1.89-.44,1-.84,2.03-1.17,3.07,4.75-3.56,9.41-7.25,14.3-10.62.5-.27,1.01-.53,1.51-.8,1.66-.68,3.48-.56,5.23-.44,1.24.71,2.42,1.56,3.15,2.83.92,2.31.51,5.04-1.01,7-.95,1.19-2.1,2.19-3.25,3.19-.53.35-1.04.73-1.53,1.13-2.59,1.78-5.08,3.72-7.59,5.62.42.62.84,1.26,1.26,1.89.25.39.5.77.76,1.16.57,1.03,1.22,2.03,1.88,3,.8,1.44,1.73,2.79,2.64,4.15.35.63.71,1.25,1.1,1.86.26.38.52.76.79,1.14.73,1.35,1.51,2.71,1.94,4.2.27,1.1-.2,2.19-.4,3.26-1.14,1.8-2.63,3.45-4.63,4.3-1.37.45-2.76.51-4.12-.01-.84-.59-1.71-1.17-2.26-2.06-1.9-2.87-3.8-5.74-5.71-8.61-.25-.38-.5-.76-.75-1.13-.25-.38-.5-.76-.75-1.13-.25-.38-.5-.76-.75-1.13-.25-.38-.51-.76-.76-1.14-1.6-2.77-3.55-5.3-5.18-8.05.03.12.1.36.13.48-.34.61-.62,1.25-.87,1.9-.26.62-.51,1.25-.73,1.89-.27.62-.53,1.25-.76,1.88-.27.62-.52,1.25-.75,1.88-.28.62-.53,1.24-.75,1.88-1.34,3.17-2.42,6.47-4.14,9.46-1.42,1.57-2.84,3.34-4.99,3.88-.95.12-1.89.64-2.86.37-.77-.19-1.54-.32-2.32-.44-1.13-.98-2.48-1.92-2.93-3.43-.94-2.12.32-4.32.91-6.35.28-.62.54-1.25.78-1.88.26-.62.52-1.25.75-1.88.26-.62.52-1.25.76-1.88.26-.62.52-1.25.75-1.88.26-.63.52-1.25.75-1.89.27-.62.52-1.25.75-1.88.27-.62.52-1.25.75-1.88.26-.63.52-1.25.75-1.89.27-.62.52-1.25.75-1.88.27-.62.52-1.25.75-1.88.27-.62.52-1.25.75-1.88.27-.62.52-1.25.75-1.89.26-.62.52-1.25.75-1.88.27-.62.52-1.25.75-1.88.27-.62.52-1.25.75-1.88.27-.62.52-1.25.75-1.88.27-.62.52-1.25.75-1.88.27-.62.52-1.25.75-1.88.27-.62.52-1.25.75-1.89.27-.62.52-1.25.75-1.88.27-.62.52-1.25.75-1.88.27-.62.52-1.25.75-1.88.27-.62.52-1.25.75-1.88.27-.62.52-1.25.75-1.88.52-1.25,1.03-2.5,1.51-3.77.27-.62.52-1.25.76-1.88.27-.62.52-1.25.75-1.88.27-.62.52-1.25.75-1.88.27-.62.52-1.25.75-1.88.27-.62.52-1.25.75-1.88.27-.62.52-1.25.75-1.88.57-1.36,1.12-2.74,1.64-4.12h0Zm-233.46,4.35c4.34-1.49,8.98-1.39,13.51-1.17.74.15,1.47.34,2.22.41,2.5.75,4.92,1.72,7.18,3.04,2.83,2.07,5.39,4.59,7.12,7.67.42,1.13.88,2.24,1.31,3.36.61,2.59.53,5.25.46,7.89-.25,2.94-1.14,5.77-1.98,8.58-.45.98-.83,1.99-1.14,3.02-.59,1.18-1,2.44-1.66,3.59,1.16-1.53,2.63-2.78,3.92-4.21,2.1-2.53,4.54-4.73,6.77-7.14,2.62-3.15,5.77-5.81,8.37-8.98,4.71-4.6,8.93-9.67,13.77-14.15.78-.5,1.55-1.01,2.32-1.53,1.93-1.09,4.15-1.05,6.3-.86,1.68.83,3.34,2.06,4.02,3.88.62,1.42.35,3,.35,4.5-.56,1.01-1.05,2.06-1.61,3.07-.27.38-.53.77-.78,1.16-1.57,1.58-2.88,3.39-4.51,4.92-1.85,1.92-3.81,3.76-5.5,5.82-2.55,2.71-5.31,5.24-7.7,8.09-1.91,1.98-3.87,3.91-5.76,5.91-2.02,2.44-4.38,4.58-6.56,6.89.23.51.47,1.02.7,1.53.44,1.4.89,2.81,1.5,4.16.47,1.39.9,2.8,1.51,4.14.47,1.39.9,2.8,1.51,4.14.47,1.39.9,2.8,1.51,4.14.47,1.39.9,2.8,1.51,4.14.47,1.39.91,2.79,1.5,4.14.34,1.03.68,2.07,1.17,3.05.04.17.12.52.16.69.44,1.13.8,2.3,1.28,3.43.21.51.44,1.01.69,1.5,1.21,1.86,3.51,2.75,5.67,2.78,111.32,0,222.65,0,333.98,0,1-.01,1.96.37,2.96.45.79.4,1.58.79,2.38,1.18.64.72,1.13,1.54,1.6,2.37.06,1.46.06,2.92-.02,4.38-.17.4-.33.79-.47,1.2-.92,1.62-2.29,2.92-3.87,3.89-1.59.48-3.17,1.18-4.85,1.23-112.46,0-224.92,0-337.38,0-1.36.04-2.66-.49-4.03-.43-1.39-.53-2.88-.87-4.12-1.74-1.6-.95-2.51-2.62-3.58-4.08-.45-.9-.91-1.79-1.34-2.7-.29-.76-.59-1.51-.95-2.24-.05-.23-.1-.45-.16-.68-.81-2.15-1.56-4.33-2.44-6.46-.48-1.4-.9-2.82-1.54-4.15l-.17-.68c-.44-1.14-.8-2.32-1.3-3.44-.34-1.02-.69-2.04-1.13-3.02-.47-1.39-.9-2.8-1.51-4.14-.47-1.39-.91-2.79-1.5-4.13-.34-1.03-.68-2.06-1.17-3.04l-.17-.68c-.44-1.14-.79-2.32-1.3-3.44-.34-1.02-.69-2.04-1.13-3.02-.53-1.64-1.11-3.26-1.79-4.84-.08.49-.18.97-.27,1.46-.32.61-.59,1.25-.83,1.89-.27.62-.51,1.25-.75,1.88-.27.62-.52,1.25-.76,1.88-.27.62-.52,1.25-.75,1.88-.27.62-.52,1.25-.76,1.88-.27.62-.52,1.25-.74,1.89-.7,1.48-1.29,2.99-1.87,4.52-.27.62-.53,1.25-.76,1.88-.27.62-.53,1.25-.76,1.88-.27.62-.52,1.25-.75,1.88-.27.62-.53,1.24-.76,1.88-.27.62-.52,1.24-.75,1.88-.27.62-.52,1.25-.75,1.89-.32.73-.61,1.47-.9,2.21-.24.51-.49,1.02-.73,1.53-1.19,1.93-2.53,3.81-4.48,5.03-.19.1-.56.31-.74.41-1.46.39-2.94,1.05-4.48.8-.64-.14-1.27-.31-1.91-.42-1.13-.64-2.18-1.39-3.07-2.34-.27-.54-.56-1.08-.86-1.61-.35-2.55.15-5.1,1.23-7.42.27-.62.53-1.24.76-1.88.27-.62.52-1.25.75-1.88.27-.62.52-1.25.75-1.88.27-.62.53-1.24.76-1.88.27-.62.52-1.25.75-1.88.27-.63.52-1.25.76-1.88.26-.63.52-1.25.75-1.88.27-.62.52-1.25.76-1.88.26-.62.52-1.25.75-1.89.97-2.09,1.78-4.25,2.62-6.4.27-.62.53-1.25.76-1.88.27-.62.52-1.25.75-1.88.27-.62.52-1.25.75-1.88.27-.62.53-1.25.76-1.88.27-.62.52-1.25.75-1.88.27-.62.52-1.25.76-1.88.26-.62.52-1.25.75-1.88.27-.62.52-1.25.75-1.89,1.1-2.59,2.06-5.24,2.78-7.97.53-1.98.83-4.17.08-6.13-1.18-2.04-3.16-3.56-5.46-4.1-2.41-.34-4.93-.15-7.18.85-.51.23-1.01.48-1.5.75-3.89,2.44-7.22,6.24-8.19,10.83-.34,1.08-.2,2.24-.38,3.35.1,1.51.19,3.03.96,4.39,1.07,1.79,2.65,3.23,4.53,4.12.78.34,1.56.69,2.38.93,1.15.6,2.2,1.38,3.1,2.32.09.2.26.61.34.82.16.4.32.8.49,1.19.55,3.57-1.9,6.92-5.07,8.31-2.9.84-6.06.69-8.97-.03-.62-.29-1.24-.56-1.88-.79-.63-.4-1.27-.77-1.93-1.13-2.96-2.01-5.11-4.92-6.9-7.97-.36-.9-.7-1.81-1.11-2.69-1-3.48-1.45-7.1-1.19-10.72.5-2.82.89-5.69,1.95-8.39.41-.87.75-1.77,1.11-2.67.53-.87,1.07-1.74,1.55-2.63.51-.75,1.02-1.5,1.51-2.26,2.48-3.18,5.39-6.04,8.72-8.34.38-.26.77-.52,1.15-.78,1.48-.81,2.99-1.55,4.51-2.28.76-.23,1.51-.49,2.26-.76Zm383.29,10.26c1.89-.75,3.95-.68,5.94-.55,1.21.58,2.25,1.43,3.14,2.43.09.2.26.61.34.81.15.4.32.81.5,1.21.11,1.22-.15,2.41-.46,3.58-.28.76-.53,1.52-.77,2.29-.62,1.22-1.22,2.45-1.68,3.73-.21.37-.43.74-.64,1.11,1.57.28,3.17.2,4.75.3.4.17.8.32,1.22.46,1.03.66,2.16,1.4,2.5,2.67.7,1.58.28,3.34-.1,4.95-.93,2.15-2.98,3.37-5.05,4.25-2.74.67-5.56.4-8.36.45l-.14.86c-.32.62-.59,1.26-.83,1.92-.27.62-.51,1.25-.74,1.88-.27.62-.52,1.25-.75,1.88-.27.62-.52,1.25-.75,1.88-.27.62-.52,1.25-.75,1.88-.27.62-.52,1.25-.75,1.89-.27.62-.52,1.24-.75,1.88-.27.62-.53,1.24-.76,1.88-.28.65-.54,1.3-.74,1.98-.12.13-.38.38-.5.5,3.28.14,6.6-.3,9.82.46.77.39,1.54.78,2.31,1.17.42.67.85,1.32,1.28,1.99,0,1.51.28,3.11-.35,4.54-.3.81-.82,1.51-1.28,2.22-.99.72-1.98,1.45-3.08,1.98-3.18.85-6.5.42-9.74.53-3.27-.12-6.61.35-9.81-.53-1.98-.86-3.72-2.26-4.65-4.25-.2-1.57-.81-3.19-.18-4.75.32-1.76,1.06-3.37,1.75-5.01.26-.62.52-1.25.75-1.88.27-.62.52-1.25.76-1.88.26-.62.52-1.25.75-1.88.27-.62.52-1.25.75-1.88.27-.62.52-1.25.75-1.88,1.04-2.44,1.91-4.96,3.03-7.38-2.51.16-5.57-.37-6.83-2.84-.17-.98-.61-1.94-.43-2.95.15-.77.34-1.54.41-2.32.93-2,2.66-3.4,4.65-4.26,2.18-.67,4.46-.47,6.7-.58,1.27-.5,1.25-2.31,1.88-3.4.27-.62.52-1.25.75-1.88.27-.62.52-1.25.76-1.88.27-.62.52-1.25.74-1.9.37-.76.75-1.52,1.12-2.28,1.06-1.24,2.22-2.41,3.51-3.41h0Zm-291.06,14.16c1.83-.18,3.68-.06,5.51,0,1.59.56,3.18,1.11,4.64,1.96,1.51,1.34,2.94,2.8,3.89,4.6.44,1.73.99,3.48.82,5.29-.25,2.05-.93,4.01-1.61,5.96-2.04,4.66-3.87,9.42-5.72,14.16,3.38.1,6.81-.3,10.14.44,1.23.53,2.28,1.35,3.15,2.37.78,1.94.45,4.04-.09,5.99-.98,1.23-2.1,2.34-3.45,3.15-.79.24-1.57.5-2.32.83-5.97.17-11.94.17-17.9,0-1.26-.67-2.61-1.24-3.67-2.21-.77-.84-1.28-1.88-1.81-2.87-.06-.82-.14-1.64-.35-2.44.24-.78.31-1.6.35-2.41.06-.09.17-.26.23-.35.17-.63.38-1.25.57-1.88.56-1.24,1.05-2.5,1.53-3.77.27-.62.53-1.25.76-1.88.27-.62.52-1.25.75-1.88.27-.62.53-1.24.76-1.87.27-.63.52-1.25.76-1.89.27-.62.52-1.25.75-1.88.79-1.55,1.19-3.25,1.01-5-.6-.63-1.29-1.16-2.03-1.61-.52-.04-1.04-.08-1.55-.14-3.1-.26-5.49,2.07-7.14,4.4-.44.72-.84,1.45-1.24,2.2-2.96,6.7-5.49,13.57-8.26,20.35-.49.76-.95,1.54-1.37,2.34-1.26,1.5-2.75,2.8-4.6,3.5-.67.08-1.34.21-1.99.37-.98.27-1.92-.25-2.88-.36-1.22-.52-2.24-1.37-3.09-2.37-.12-.21-.36-.62-.47-.83-.29-2.15-.04-4.32.85-6.3.28-.62.54-1.25.77-1.88.27-.62.52-1.25.75-1.88.27-.62.52-1.25.75-1.88.27-.62.52-1.25.75-1.88.27-.62.52-1.25.75-1.88.27-.62.52-1.25.75-1.88.27-.62.52-1.25.75-1.88,2.27-5.65,4.56-11.29,6.77-16.97.25-.5.5-1,.75-1.5,1.02-1.64,2.55-2.78,4.29-3.58,1.98-.08,4.05-.34,5.94.43,1.24.75,2.21,1.83,2.95,3.06.53-.38,1.07-.75,1.61-1.12,1.03-.57,2.03-1.21,3.06-1.77,1.46-.53,2.93-1.05,4.46-1.34h0Zm43.35.43c2.94-.67,5.98-.55,8.98-.45,1.66.19,3.28.68,4.86,1.21,1.61.72,3.09,1.7,4.55,2.69.9.88,1.79,1.77,2.67,2.67.49.78,1,1.54,1.53,2.3.39.76.77,1.52,1.16,2.27.5,1.6.88,3.24,1.18,4.89.1,1.49.03,2.99.05,4.49.1,1.91-.65,3.7-.84,5.58-.41,1.13-.8,2.28-1.15,3.43-1.87,4.28-4.42,8.31-7.98,11.37-2.09,1.51-4.36,2.76-6.85,3.47-4.34.77-8.77.48-13.16.44-3.02-.32-6.17-.85-8.63-2.77-2.3-1.99-4.14-4.45-5.35-7.24-.12-.39-.25-.77-.39-1.15-1.37-5.02-1.09-10.36.38-15.32.29-.62.55-1.27.76-1.92.48-1.02.99-2.03,1.51-3.02,2.16-3.55,5.06-6.58,8.37-9.09.39-.26.78-.52,1.16-.78,1.23-.67,2.48-1.29,3.75-1.91,1.15-.36,2.3-.74,3.43-1.14h0Zm42.17,1.69c2.38-.99,4.82-1.98,7.41-2.15,3.04-.08,6.16-.28,9.06.84,2.29.99,4.42,2.36,6.1,4.23,2.74,3.61,3.48,8.45,2.3,12.77-.29.61-.55,1.24-.79,1.87-.27.4-.52.8-.77,1.21-.51.52-1.02,1.04-1.53,1.56-.52.26-1.03.53-1.55.81-2.47.97-5.57.52-7.29-1.62-.79-1.64-.32-3.5-.61-5.23-.13-.67-.18-1.36-.21-2.04-.48-.91-1.22-1.81-2.3-1.95-1.44-.03-3-.24-4.26.63-1.79.85-3.01,2.44-4.11,4.03-.3.48-.6.97-.9,1.46-.62,1.32-1.19,2.7-1.27,4.17-.59,2.34-.2,5,1.27,6.94,1.58,1.65,4,1.94,6.14,2.31,4.9.08,9.8,0,14.71.04,1.26.14,2.5.49,3.72.81.68.5,1.35,1.01,1.98,1.57.1.21.31.64.41.85.1.74.28,1.48.42,2.22-.2,1.12-.44,2.23-.79,3.32-.43.51-.84,1.04-1.23,1.58-.53.38-1.05.78-1.55,1.18-.18.1-.56.3-.74.4-1.37.46-2.75,1-4.23.9-7.08,0-14.16.15-21.23-.09-.51-.19-1.03-.32-1.56-.45-.74-.33-1.5-.62-2.26-.89-1.06-.67-2.08-1.39-3.06-2.17-1.08-.86-1.79-2.07-2.72-3.06-.67-1.24-1.31-2.5-1.91-3.77-2.02-5.98-1.45-12.55.77-18.39.5-1.01.99-2.03,1.53-3.02.41-.61.78-1.24,1.14-1.88,2.14-2.9,4.71-5.49,7.62-7.61.78-.44,1.55-.9,2.3-1.38h0Zm101.97-2.1c3.91-.21,7.94-.33,11.64,1.18,3.78,1.67,6.93,4.49,9,8.07.16.37.33.73.5,1.1.23.65.49,1.29.79,1.91,1.54,5.27.96,10.92-.76,16.07-.29.62-.55,1.26-.77,1.91-.6,1.27-1.23,2.53-1.89,3.77-2.04,3.33-4.66,6.32-8,8.39-.76.38-1.51.76-2.26,1.14-.78.24-1.56.5-2.32.79-4.32.76-8.73.47-13.1.45-1.25.06-2.43-.46-3.67-.44-1.22-.46-2.52-.76-3.64-1.45-2.11-1.26-3.73-3.17-5.18-5.11-.53-1-1.03-2-1.54-3.01-1.55-4.43-1.53-9.23-.76-13.8.17-.52.29-1.04.41-1.57.26-.75.51-1.51.74-2.27.73-1.52,1.47-3.03,2.28-4.51.26-.38.53-.76.79-1.14.39-.5.77-1.01,1.13-1.54,1.89-2.02,3.79-4.08,6.07-5.68.38-.26.76-.52,1.15-.78,2.91-1.68,6.08-2.91,9.4-3.46h0Zm40.31.41c2.32-.75,5.26-.99,7.18.78.91.73,1.47,1.76,2,2.77.09,1.61.04,3.23-.47,4.79-.55,1.24-1.07,2.5-1.54,3.78-.28.62-.53,1.25-.76,1.88-.27.62-.52,1.25-.75,1.88-.53,1.24-1.03,2.5-1.51,3.77-.28.62-.53,1.25-.76,1.88-.28.62-.52,1.25-.74,1.89-.18.4-.36.8-.54,1.21-.11.35-.23.71-.35,1.06-.12.38-.24.75-.37,1.13-.14.37-.29.75-.43,1.12-.33.97-.42,2.01.15,2.93.91.85,2.19.71,3.34.71,1.74.09,3.41-.55,4.94-1.31,1.73-1.16,3.09-2.84,3.67-4.86.26-.62.51-1.25.75-1.89.26-.62.52-1.25.75-1.88.26-.62.52-1.25.75-1.88.26-.62.52-1.25.75-1.88.26-.62.52-1.25.75-1.88.26-.63.52-1.25.75-1.89.26-.62.52-1.25.75-1.88.26-.62.52-1.25.76-1.88.26-.63.52-1.26.74-1.9.58-1.28,1.21-2.54,1.89-3.77.26-.39.52-.78.78-1.18,1.16-1.36,2.64-2.37,4.24-3.16,1.47-.11,2.96-.12,4.43,0,1.21.58,2.25,1.44,3.14,2.43.09.2.26.6.35.81.15.4.32.8.5,1.19.21,2.45-.9,4.72-1.61,7-.28.62-.54,1.25-.78,1.88-.27.62-.52,1.25-.75,1.88-.27.62-.52,1.25-.75,1.88-.27.62-.52,1.25-.76,1.88-.27.62-.52,1.25-.75,1.88-.27.62-.52,1.25-.74,1.89-1.25,2.79-2.36,5.65-3.44,8.51,3.78.09,7.64-.37,11.3.82.7.68,1.53,1.3,1.91,2.24.21.71.28,1.47.48,2.19-.27,1.19-.37,2.41-.76,3.56-.71,1.11-1.62,2.07-2.76,2.76-.52.26-1.03.51-1.54.78-2.43.74-4.99.49-7.5.54-3.37-.03-6.75.08-10.12-.09-1.42-.64-2.59-1.65-3.59-2.82-.02-.16-.07-.49-.1-.65-.78.77-1.57,1.52-2.39,2.25-.52.24-1.03.49-1.53.74-.4.14-.8.3-1.19.46-4.7.18-9.42.17-14.12,0-.4-.16-.8-.31-1.21-.44-1.52-.68-3.04-1.46-4.22-2.67-1.22-1.17-1.97-2.71-2.69-4.22-.55-1.83-.53-3.74-.42-5.62.36-1.79.99-3.5,1.58-5.22.28-.62.54-1.25.77-1.88.27-.62.52-1.25.75-1.88.27-.62.52-1.25.76-1.88.26-.62.52-1.25.75-1.88.27-.62.52-1.25.75-1.88.27-.62.52-1.25.75-1.88.27-.62.52-1.25.75-1.88.27-.62.52-1.25.75-1.88.26-.62.52-1.25.76-1.88.26-.63.52-1.26.73-1.9.48-1.02.99-2.02,1.5-3.03,1.1-1.71,2.55-3.16,4.26-4.27h0Zm-184.56,13.67c1.34-.94,2.92-1.48,4.54-1.68.91-.02,1.77.34,2.67.42,1.51.73,2.72,1.98,3.49,3.46,1.13,3.95.29,8.35-2.03,11.72-.9,1.42-2.15,2.61-3.66,3.36-2.55,1.06-5.49,1.03-8.05.02-1.01-.73-2.09-1.54-2.52-2.77-.98-2.96-.38-6.22.96-8.98,1.08-2.17,2.6-4.16,4.6-5.56h0Zm143.37-.88c1.55-.49,3.23-1.15,4.86-.53,2.03.3,3.52,1.95,4.42,3.69.9,3.1.49,6.45-.79,9.38-.28.52-.58,1.04-.88,1.55-.25.37-.5.74-.74,1.12-.73,1.13-1.72,2.07-2.88,2.75-1.33.74-2.84.84-4.32,1.05-2.29-.17-5.06-.55-6.27-2.79-1.71-3.07-.85-6.81.57-9.82,1.34-2.65,3.32-5.08,6.03-6.41h0Zm123.6,18.11c1.89-1.2,4.1-1.42,6.28-1.2.41.16.83.31,1.26.45,1.75.87,3.22,2.22,4.23,3.89.95,2.12,1.15,4.5.39,6.72-.27.51-.53,1.03-.78,1.55-.86.96-1.78,1.86-2.72,2.73-2.3,1.19-5.09,1.21-7.51.39-.19-.11-.57-.32-.76-.43-2.04-1.27-3.46-3.38-3.95-5.73-.07-1.08-.02-2.18,0-3.26.16-.4.32-.81.47-1.22.24-.52.49-1.03.74-1.54.76-.8,1.54-1.58,2.34-2.35h0Z"/></svg>