<?xml version="1.0" encoding="UTF-8"?><svg id="Layer_1" xmlns="http://www.w3.org/2000/svg" viewBox="0 0 500 500"><defs><style>.cls-1{fill:#00b935;}.cls-2{fill:#bd554a;}</style></defs><rect class="cls-1" x="142.03" y="112.27" width="30.55" height="275.47"/><rect class="cls-1" x="234.73" y="212.77" width="30.55" height="275.47" transform="translate(-100.5 600.5) rotate(-90)"/><g><path class="cls-2" d="m294.05,163.37v102.61c0,10.01.36,20.56.73,26.56h-24.56l-1.27-13.1h-.36c-5.64,10.01-16.37,15.1-27.84,15.1-21.1,0-38.02-18.01-38.02-45.67-.18-30.02,18.56-47.3,39.84-47.3,10.92,0,19.47,3.82,23.47,10.01h.36v-48.21h27.65Zm-27.65,77.87c0-1.46-.18-3.46-.36-4.91-1.64-7.46-7.64-13.64-16.19-13.64-12.55,0-19.1,11.28-19.1,25.29,0,15.1,7.46,24.56,18.92,24.56,8,0,14.37-5.46,16.01-13.28.54-2,.73-4,.73-6.37v-11.64Z"/><path class="cls-2" d="m383.02,290.36c-4.91,2.18-14.19,4-24.74,4-28.74,0-47.12-17.47-47.12-45.48,0-26.02,17.83-47.3,50.94-47.3,7.28,0,15.28,1.27,21.1,3.46l-4.37,20.56c-3.27-1.46-8.19-2.73-15.46-2.73-14.55,0-24.01,10.37-23.83,24.93,0,16.37,10.92,24.92,24.38,24.92,6.55,0,11.64-1.09,15.83-2.73l3.27,20.38Z"/></g></svg>