<?xml version="1.0" encoding="UTF-8"?>
<svg id="Layer_1" data-name="Layer 1" xmlns="http://www.w3.org/2000/svg" viewBox="0 0 500 500">
  <defs>
    <style>
      .cls-1 {
        fill: #42b1df;
      }

      .cls-2 {
        fill: #ff2400;
      }
    </style>
  </defs>
  <path class="cls-1" d="m179.8,424.03c-3.98-2.19-3.9-5.74-3.05-9.44,2.24-9.69,10.09-16,20.34-16.34,3.38-.11,6.77-.02,10.41-.02v-36.04c-2.71,0-5.4,0-8.08,0-7.37,0-14.73.03-22.1-.02-3.78-.02-6.04-1.91-6.14-4.94-.1-3.13,2.26-5.14,6.2-5.25.91-.02,1.81,0,2.72,0,67.53,0,135.06-.02,202.6.02,10.19,0,18.03-3.96,22.67-13.21,1.19-2.36,1.98-5.13,2.14-7.75.33-5.29.1-10.61.1-16.38-1.38,0-2.7,0-4.02,0-8.16,0-16.32.02-24.47-.01-4.16-.02-6.3-1.74-6.36-4.95-.06-3.33,2.2-5.21,6.5-5.24,8.16-.04,16.32-.01,24.47-.01,1.22,0,2.45,0,3.94,0,.07-1.49.18-2.7.18-3.9,0-62.88-.13-125.75.1-188.63.06-16.08-11.4-25.87-25.91-25.84-88.04.21-176.08.1-264.12.11-16.16,0-25.81,9.63-25.81,25.77,0,62.88,0,125.75,0,188.63,0,1.12,0,2.24,0,3.86,1.61,0,3.03,0,4.44,0,85.21,0,170.42,0,255.63.02,1.68,0,3.75-.27,4.95.57,1.53,1.08,3.05,3.06,3.33,4.84.37,2.44-1.48,4.2-4.03,4.63-1.44.24-2.94.15-4.41.15-85.1,0-170.19,0-255.29,0h-4.45c-.2,11.73-2.11,23.63,8.76,32.22,4.55,3.59,9.75,5.11,15.48,5.11,12.01-.01,24.02,0,36.03,0,1.02,0,2.05-.05,3.05.08,2.97.4,4.84,2.5,4.65,5.28-.21,2.93-1.95,4.53-4.79,4.77-2.14.18-4.3.07-6.45.07-10.99,0-21.98.06-32.97-.01-19.25-.12-34.09-14.79-34.11-33.99-.06-72.73-.06-145.46,0-218.2.02-19.16,14.91-33.97,34.13-33.98,89.29-.05,178.58-.05,267.86,0,18.61,0,32.96,13.71,34.07,32.27.07,1.24.11,2.49.11,3.74,0,71.37-.03,142.74.04,214.12.01,11.96-3.94,21.93-13.6,29.28-6.15,4.67-13.17,6.81-20.9,6.8-29.01-.03-58.01-.01-87.02-.01-1.34,0-2.68,0-4.24,0v36.04c3.42,0,6.88-.08,10.33.01,11.26.3,19.4,7.68,20.87,18.49.44,3.23-.71,5.41-3.02,7.3h-3.4c-1.16-1.56-2.98-2.97-3.37-4.71-1.86-8.31-4.78-10.89-13.24-10.89-33.73,0-67.47,0-101.2,0-1.13,0-2.27-.04-3.39.09-4.9.57-8.34,4.18-9.44,8.89-.54,2.33-2.17,4.42-3.3,6.61h-3.4Zm38.42-61.67v35.6h63.48v-35.6h-63.48Z"/>
  <path class="cls-1" d="m249.82,291.52c-46.11,0-92.22,0-138.33,0-6.66,0-7.91-1.26-7.91-7.93,0-56.64,0-113.27,0-169.91,0-10.72,4.8-15.52,15.56-15.52,87.24,0,174.47,0,261.71,0,10.71,0,15.65,4.9,15.65,15.52,0,56.64,0,113.27,0,169.91,0,6.53-1.42,7.92-8.01,7.92-46.22,0-92.45,0-138.67,0Zm-135.91-10.45h272.12v-135.91h-4.62c-75.34,0-150.68,0-226.02-.01-1.57,0-3.18-.05-4.71-.38-2.56-.56-3.84-2.38-3.72-4.94.12-2.72,1.64-4.42,4.4-4.74,1.46-.17,2.94-.13,4.41-.13,75.34,0,150.68,0,226.02,0h4.49c0-7.16,0-13.71,0-20.27,0-6.11-.19-6.3-6.29-6.3-86.67,0-173.34,0-260.01,0-1.13,0-2.4-.27-3.36.15-1.07.48-2.63,1.58-2.65,2.44-.2,7.88-.12,15.76-.12,23.5.59.24.79.39.99.39,4.08.04,8.15.06,12.23.08,5.28.02,7.72,1.54,7.83,4.91.12,3.57-2.44,5.3-7.86,5.31-4.36,0-8.72,0-13.14,0v135.91Z"/>
  <path class="cls-2" d="m159.68,228.24c-.86,3.09-1.63,6.02-2.51,8.91-.91,2.98-3.12,3.83-6.83,2.73-3.6-1.07-4.79-2.73-3.84-5.84,4.65-15.24,9.4-30.45,14.02-45.69,1.03-3.42,3.59-4.16,6.54-4.19,2.94-.02,5.7.64,6.73,3.98,4.79,15.55,9.56,31.11,14.34,46.66.98,3.19-1.22,4.3-3.57,5.07-2.4.79-4.77.92-5.85-2.12-.26-.74-.43-1.52-.65-2.28q-2.09-7.22-9.76-7.22h-8.63Zm9.06-30.03l-.64-.09c-2.04,7.28-4.08,14.55-6.19,22.11h13.04c-2.13-7.54-4.17-14.78-6.21-22.02Z"/>
  <path class="cls-2" d="m276.6,228.25c-.89,3.19-1.62,6.04-2.47,8.85-.91,3.03-3.05,3.88-6.79,2.81-3.61-1.04-4.85-2.72-3.91-5.79,4.67-15.35,9.44-30.67,14.13-46.01.99-3.26,3.57-3.88,6.38-3.94,2.81-.05,5.67.47,6.65,3.59,4.92,15.74,9.75,31.52,14.52,47.31.95,3.14-1.52,4.17-3.84,4.89-2.31.71-4.6.76-5.56-2.13-.81-2.47-1.33-5.04-2.27-7.45-.34-.88-1.52-1.99-2.35-2.02-4.74-.19-9.48-.09-14.48-.09Zm15.29-8.05c-2.13-7.51-4.17-14.73-6.22-21.95-.22-.02-.43-.03-.65-.05-2.03,7.23-4.06,14.45-6.18,22h13.05Z"/>
  <path class="cls-2" d="m328.69,219.54c-3.69,6.49-6.97,12.29-10.29,18.07-1.87,3.26-4.17,3.86-7.27,1.99-2.98-1.79-3.38-3.73-1.34-7.09,3.58-5.9,7.14-11.81,10.85-17.63,1.11-1.74,1.23-3.02.09-4.85-3.66-5.85-7.12-11.82-10.61-17.77-1.99-3.41-1.66-5.29,1.08-6.92,3.3-1.96,5.7-1.39,7.64,1.99,3.21,5.59,6.33,11.22,9.5,16.83.04.07.19.07.68.21,3.11-5.61,6.27-11.29,9.41-16.99,1.35-2.45,3.16-3.74,6.11-2.79,3.93,1.28,5.03,3.68,2.97,7.26-2.99,5.2-5.86,10.49-9.27,15.41-2.52,3.63-2.77,6.44-.03,10.16,3.55,4.81,6.41,10.13,9.5,15.26,1.93,3.21,1.39,5.29-1.67,7.02-3.07,1.74-5.15,1.17-6.99-2.01-3.38-5.84-6.71-11.71-10.39-18.15Z"/>
  <path class="cls-2" d="m196.73,203.09c0-4.86-.03-9,0-13.14.1-10.23,6.07-17.01,16.19-17.7,5.84-.4,11.77-.27,17.62.22,7.68.64,13.69,7.12,14.41,14.79.34,3.65-1.32,6.14-4.36,6.51-3.01.37-4.98-1.31-5.74-4.87-1-4.74-2.83-6.43-7.59-6.57-4.3-.13-8.6-.14-12.9,0-5.06.18-7.36,2.64-7.42,7.69-.05,4.07-.01,8.13-.01,12.74,1.08-.79,1.82-1.32,2.55-1.87,2.34-1.76,4.71-1.68,6.74.34,1.92,1.9,2.3,4.41.44,6.43-3.83,4.15-7.81,8.18-12,11.95-2.32,2.09-4.89,1.14-6.97-.9-3.23-3.17-6.45-6.35-9.61-9.59-2.65-2.72-2.92-5.58-.88-7.79,2.07-2.24,4.81-2.13,7.79.32.34.28.69.57,1.72,1.43Z"/>
  <path class="cls-2" d="m234.85,217.99c-.6.12-.73.11-.8.17-3.93,3.17-6.64,3.45-8.81.9-2.12-2.5-1.56-5.07,1.87-8.52,2.8-2.81,5.56-5.64,8.41-8.39,3.15-3.05,5.71-3.07,8.83-.05,3.09,2.99,6.11,6.05,9.12,9.12,2.88,2.94,3.2,5.74,1.03,8.04-2.13,2.25-4.91,2.04-8.05-.63-.25-.21-.52-.4-1.39-1.07,0,4.67.08,8.87-.02,13.07-.18,7.98-4.9,15.05-12.45,16.08-7.64,1.04-15.61,1-23.27.07-7.16-.87-12.33-8.06-12.52-14.97-.09-3.34,1.46-5.48,4.3-5.92,2.77-.43,4.99,1.3,5.76,4.48,1.4,5.79,2.72,6.88,8.59,6.91,4.07.02,8.15.09,12.22-.03,4.66-.14,7.05-2.55,7.17-7.22.1-3.95.02-7.9.02-12.04Z"/>
  <path class="cls-2" d="m133.46,122.42c-.07,2.62-2.48,4.94-5.1,4.92-2.81-.02-5.15-2.52-4.99-5.33.15-2.71,2.45-4.77,5.22-4.68,2.71.09,4.94,2.42,4.86,5.08Z"/>
  <path class="cls-2" d="m151.84,122.18c.07,2.62-2.2,5.03-4.85,5.15-2.8.12-5.26-2.26-5.24-5.07.02-2.71,2.25-4.91,4.99-4.93,2.72-.02,5.02,2.17,5.1,4.85Z"/>
  <path class="cls-2" d="m165.15,117.33c2.72-.01,5.01,2.19,5.08,4.86.07,2.78-2.41,5.23-5.19,5.15-2.65-.08-4.94-2.45-4.91-5.09.03-2.68,2.3-4.91,5.02-4.92Z"/>
</svg>