<?xml version="1.0" encoding="UTF-8"?><svg id="Layer_1" xmlns="http://www.w3.org/2000/svg" viewBox="0 0 500 500"><defs><style>.cls-1{fill:#34a753;}</style></defs><path class="cls-1" d="m186.92,158.18c-8.49,0-14.25.82-17.26,1.64v54.53c3.56.82,7.95,1.1,13.97,1.1,22.2,0,35.9-11.23,35.9-30.14,0-16.99-11.78-27.13-32.61-27.13Z"/><path class="cls-1" d="m102.94,92.21v315.57h294.13V92.21H102.94Zm66.72,154.48v66.04h-41.38v-182.22c12.88-2.19,30.96-3.84,56.45-3.84s44.12,4.93,56.45,14.8c11.78,9.32,19.73,24.66,19.73,42.75s-6.03,33.43-16.99,43.84c-14.25,13.43-35.35,19.46-60.01,19.46-5.48,0-10.41-.27-14.25-.82Zm97.6,131.42c4.3,0,9.07-.94,11.87-2.06l2.15,11.12c-2.62,1.31-8.51,2.71-16.17,2.71-21.78,0-33-13.56-33-31.51,0-21.5,15.33-33.47,34.4-33.47,7.39,0,13,1.5,15.52,2.8l-2.9,11.31c-2.9-1.22-6.92-2.34-11.97-2.34-11.31,0-20.1,6.83-20.1,20.85,0,12.62,7.48,20.57,20.19,20.57Zm38.8,11.78c-7.2,0-14.3-1.87-17.86-3.83l2.9-11.78c3.83,1.96,9.72,3.93,15.8,3.93,6.54,0,10-2.71,10-6.83s-2.99-6.17-10.56-8.88c-10.47-3.65-17.3-9.44-17.3-18.6,0-10.75,8.97-18.98,23.84-18.98,7.11,0,12.34,1.5,16.08,3.18l-3.18,11.5c-2.52-1.21-7.01-2.99-13.18-2.99s-9.16,2.8-9.16,6.08c0,4.02,3.55,5.8,11.69,8.88,11.12,4.11,16.36,9.91,16.36,18.79,0,10.56-8.13,19.54-25.43,19.54Zm50.49,0c-7.2,0-14.3-1.87-17.86-3.83l2.9-11.78c3.83,1.96,9.72,3.93,15.8,3.93,6.54,0,10-2.71,10-6.83s-2.99-6.17-10.56-8.88c-10.47-3.65-17.3-9.44-17.3-18.6,0-10.75,8.97-18.98,23.84-18.98,7.11,0,12.34,1.5,16.08,3.18l-3.18,11.5c-2.52-1.21-7.01-2.99-13.18-2.99s-9.16,2.8-9.16,6.08c0,4.02,3.55,5.8,11.69,8.88,11.12,4.11,16.36,9.91,16.36,18.79,0,10.56-8.13,19.54-25.43,19.54Z"/></svg>