<?xml version="1.0" encoding="UTF-8"?><svg id="Layer_1" xmlns="http://www.w3.org/2000/svg" viewBox="0 0 500 500"><defs><style>.cls-1{fill:#1266a8;}</style></defs><path class="cls-1" d="m135.47,306.91c16.14,32.34,45.57,56.92,81.09,66.56-9.16-16.76-15.69-40.31-19.5-66.56h-61.58Z"/><path class="cls-1" d="m364.53,193.09c-16.14-32.34-45.57-56.93-81.09-66.56,9.16,16.76,15.69,40.31,19.5,66.56h61.58Z"/><path class="cls-1" d="m283.44,373.47c35.52-9.64,64.95-34.22,81.09-66.56h-61.58c-3.81,26.25-10.34,49.8-19.5,66.56Z"/><path class="cls-1" d="m216.56,126.53c-35.52,9.63-64.95,34.22-81.09,66.56h61.58c3.81-26.25,10.34-49.8,19.5-66.56Z"/><path class="cls-1" d="m272.52,155.37c-7.66-22.99-16.83-33.28-22.52-33.28s-14.85,10.29-22.52,33.28c-3.7,11.09-6.66,23.84-8.81,37.72h62.66c-2.15-13.87-5.11-26.63-8.81-37.72Z"/><path class="cls-1" d="m227.48,344.63c7.66,22.99,16.83,33.28,22.52,33.28s14.85-10.29,22.52-33.28c3.7-11.1,6.66-23.85,8.81-37.72h-62.66c2.16,13.87,5.11,26.63,8.81,37.72Z"/><path class="cls-1" d="m250,75.22c-96.53,0-174.78,78.25-174.78,174.78s78.25,174.78,174.78,174.78,174.78-78.25,174.78-174.78-78.25-174.78-174.78-174.78Zm140.52,225.25c-20.73,57.57-75.9,98.85-140.52,98.85s-119.78-41.28-140.52-98.85c-.19-.43-.34-.88-.47-1.34-5.38-15.39-8.31-31.93-8.31-49.13s2.93-33.73,8.31-49.12c.12-.46.29-.91.47-1.34,20.73-57.57,75.9-98.85,140.52-98.85s119.79,41.28,140.52,98.85c.19.43.35.88.47,1.34,5.38,15.39,8.31,31.92,8.31,49.12s-2.93,33.74-8.31,49.13c-.13.46-.29.91-.47,1.34Z"/><path class="cls-1" d="m339.91,208.58h-179.82c-22.51,0-40.93,18.42-40.93,40.93v.97c0,22.51,18.42,40.93,40.93,40.93h179.82c22.51,0,40.93-18.42,40.93-40.93v-.97c0-22.51-18.42-40.93-40.93-40.93Zm-7.57,59.53h-8.46l-9.73-25.95-9.87,25.95h-8.46l-13.75-37.47-13.82,37.47h-8.46l-9.73-25.95-9.87,25.95h-8.46l-13.75-37.47-13.83,37.47h-8.46l-9.73-25.95-9.87,25.95h-8.46l-13.82-37.66h8.32l9.95,27.79,10.37-27.79h7.41l10.16,27.93,10.23-27.93h16.01l9.95,27.79,10.37-27.79h7.41l10.16,27.93,10.23-27.93h16.01l9.95,27.79,10.37-27.79h7.41l10.16,27.93,10.23-27.93h7.83l-13.9,37.66Z"/></svg>