<?xml version="1.0" encoding="utf-8"?>
<!-- Generator: Adobe Illustrator 27.4.0, SVG Export Plug-In . SVG Version: 6.00 Build 0)  -->
<svg version="1.1" id="Layer_1" xmlns="http://www.w3.org/2000/svg" xmlns:xlink="http://www.w3.org/1999/xlink" x="0px" y="0px"
	 viewBox="0 0 500 500" style="enable-background:new 0 0 500 500;" xml:space="preserve">
<style type="text/css">
	.st0{fill:#EC6A8C;}
	.st1{fill:#1C75BC;}
</style>
<path class="st0" d="M247.7,355.4c-1.1-1.5-2-2.8-3-4c-24.6-30-49.1-60-73.7-90c-1.6-2-3.1-4.1-4.9-6c-8.2-8.3-12.6-18.8-17.6-29
	c-0.9-1.9-1.9-3.8-2.9-5.7c-0.6-1.1-0.5-1.9,0.4-2.8c16.5-17,32.9-34,49.4-50.9c0.6-0.6,1.7-1.1,2.6-1.1c33.1-0.1,66.2-0.1,99.3,0
	c1.1,0,2.4,0.8,3.2,1.6c11.2,11.3,22.3,22.7,33.4,34.1c5.3,5.4,10.4,10.8,15.7,16.2c1,1,0.9,1.7,0.3,2.8
	c-6.9,13-14.4,25.6-23.9,37.1c-16.6,19.9-32.5,40.4-48.7,60.7C267.6,330.6,257.8,342.8,247.7,355.4z"/>
<path class="st1" d="M378.3,309.2c2.4,4.9,4.7,9.5,7,14.1c1.9,3.8,3.9,7.6,5.7,11.5c0.7,1.5,1.5,1.8,3,1.7
	c8.8-0.7,17.7-1.4,26.6-2.1c0.7-0.1,1.4-0.1,2.4-0.1c-0.3,0.8-0.4,1.3-0.7,1.9c-16.2,32.1-39.5,57.8-70.3,76.5
	c-19.7,12-40.8,20.3-63.3,25.1c-20.6,4.4-41.4,5.5-62.2,3.1c-37.8-4.2-71.4-18.4-100.5-43c-21.8-18.4-38.4-40.9-51.3-66.3
	c-0.7-1.3-0.6-2.3,0.3-3.5c4.8-6.4,9.5-12.7,14.2-19.2c1-1.4,2.1-1.4,3.5-1c8.7,2.3,17.4,4.9,26.2,6.8c3.8,0.8,5.8,2.6,7.7,5.8
	c14.5,24.4,33.9,43.9,59.4,56.8c20.5,10.4,42.3,14.6,65.2,14.1c21.4-0.5,41.6-5.5,60.8-14.8c25.3-12.3,45.5-30.4,59.7-54.8
	C374,317.8,376,313.7,378.3,309.2z"/>
<path class="st1" d="M263.8,108.3c6.5-8.6,12.8-17,19.2-25.4c-5-8.4-10.1-16.8-15.5-25.7c3.1,0.4,5.6,0.8,8.2,1.1
	c28.2,3.8,54.2,13.4,78.1,28.8c24.6,15.9,44.4,36.6,59.6,61.5c13,21.4,21.9,44.3,26.1,69c2.1,12.6,3.7,25.3,3.1,38.1
	c-0.5,11.6-1.6,23.2-4.5,34.4c-2.7,10.6-6.2,21-9.4,31.4c-0.4,1.4-1.3,2.3-2.9,2.4c-8.4,0.6-16.9,1.2-25.3,1.9
	c-1.6,0.1-2.4-0.3-3.1-1.8c-4.2-8.5-8.5-17-12.8-25.5c-0.8-1.6-1-3-0.4-4.7c6.9-19.9,8.6-40.5,6-61.3c-3.5-28.4-14.7-53.7-33.3-75.6
	c-17.3-20.4-38.7-34.7-64.1-42.9c-8.7-2.8-17.7-4.8-26.8-5.6C265.3,108.6,264.8,108.5,263.8,108.3z"/>
<path class="st1" d="M116.3,300.6c-10.9-2.8-21.4-5.6-32-8.3c-5.9,8.3-11.8,16.5-18.1,25.3c-0.9-3.1-1.6-5.7-2.3-8.3
	c-7.9-28.8-9.5-57.8-4.6-87.1c5.1-30.2,16.6-57.6,34-82.4c14.9-21.2,33.1-39,54.9-53c11.1-7.1,22.5-13.8,34.9-18.3
	c11.2-4.2,22.7-7.8,34.6-9.5c11.2-1.6,22.5-2.4,33.7-3.6c1.5-0.2,2.7,0.3,3.5,1.9c4,7.9,8.1,15.8,12.2,23.7c0.8,1.5,0.7,2.5-0.4,3.8
	c-6.4,7.5-12.7,15.1-19,22.7c-1.2,1.4-2.5,2.2-4.3,2.3c-21.8,1.4-42,8-60.7,18.9c-25.6,14.8-45,35.8-58.2,62.6
	c-12.3,24.9-17.1,51.4-14.5,79.3c0.9,9.6,2.7,19,5.6,28.2C115.9,299.1,116,299.7,116.3,300.6z"/>
</svg>
