<?xml version="1.0" encoding="utf-8"?>
<!-- Generator: Adobe Illustrator 26.0.1, SVG Export Plug-In . SVG Version: 6.00 Build 0)  -->
<svg version="1.1" id="Layer_1" xmlns="http://www.w3.org/2000/svg" xmlns:xlink="http://www.w3.org/1999/xlink" x="0px" y="0px"
	 viewBox="0 0 500 500" style="enable-background:new 0 0 500 500;" xml:space="preserve">
<style type="text/css">
	.st0{fill:#FF0000;}
	.st1{fill:#1BB3EF;}
	.st2{fill:#0E4BAD;}
</style>
<g>
	<path class="st0" d="M246.3,12.2L246.3,12.2L246.3,12.2z M246.3,12.2c9.8,38.8-16.6,59.5-42.5,79.7C190.9,102,178.2,112,170.1,124
		c-16.4,24.7,8.1,51.1,41.4,81.2c-2.9-6.7-7.5-13.1-12.1-19.7c-15.7-22.4-32.1-45.7,12.1-80.6C282.7,48.9,246.4,12.3,246.3,12.2
		L246.3,12.2z"/>
	<path class="st0" d="M222.9,217.6c0,0,21.4-17.6,4.5-37.1v0c-57.6-66.3,62.9-96.4,62.9-96.4c-73.5,42.6-63.6,56.3-46.4,80.1
		c0.8,1.1,1.6,2.2,2.4,3.3C266.1,195.4,222.9,217.6,222.9,217.6z"/>
</g>
<g>
	<path class="st1" d="M436.8,424.8c-15.4-0.4-27.4,1.2-37.4,5.4c-2.9,1.2-7.5,1.2-7.9,4.8c1.5,1.5,1.7,4,3.1,6.2
		c2.3,3.9,6.4,9.1,10,11.8c4,3.1,8.1,6.2,12.3,8.9c7.5,4.6,16,7.3,23.3,12c4.2,2.7,8.5,6.2,12.7,9.1c2.1,1.5,3.5,4,6.2,5v-0.6
		c-1.4-1.7-1.7-4.2-3.1-6.2c-1.9-1.9-3.9-3.7-5.8-5.6c-5.6-7.5-12.5-14.1-20-19.5c-6.2-4.2-19.7-10-22.2-17.2c0,0-0.2-0.2-0.4-0.4
		c4.2-0.4,9.3-1.9,13.3-3.1c6.6-1.7,12.5-1.3,19.3-3.1c3.1-0.8,6.2-1.7,9.3-2.7v-1.7c-3.5-3.5-6-8.1-9.6-11.4
		c-9.8-8.5-20.6-16.8-31.8-23.7c-6-3.9-13.7-6.4-20-9.6c-2.3-1.2-6.2-1.7-7.5-3.7c-3.5-4.2-5.4-9.8-7.9-14.8
		c-5.6-10.6-11-22.4-15.8-33.5c-3.5-7.5-5.6-15-9.8-22c-19.9-32.8-41.4-52.6-74.6-72.1c-7.1-4-15.6-5.8-24.7-7.9
		c-4.8-0.2-9.6-0.6-14.5-0.8c-3.1-1.3-6.2-5-8.9-6.7c-11-6.9-39.3-22-47.4-2.1c-5.2,12.5,7.7,24.9,12.1,31.2
		c3.3,4.4,7.5,9.4,9.8,14.5c1.3,3.3,1.7,6.7,3.1,10.2c3.1,8.5,6,17.9,10,25.8c2.1,4,4.4,8.3,7.1,12c1.5,2.1,4.2,3.1,4.8,6.6
		c-2.7,3.9-2.9,9.6-4.4,14.5c-6.9,21.8-4.2,48.8,5.6,64.8c3.1,4.8,10.4,15.4,20.2,11.4c8.7-3.5,6.7-14.5,9.3-24.1
		c0.6-2.3,0.2-3.9,1.4-5.4v0.4c2.7,5.4,5.4,10.6,7.9,16c6,9.4,16.4,19.3,25.1,25.8c4.6,3.5,8.3,9.4,14.1,11.6V434h-0.4
		c-1.2-1.7-2.9-2.5-4.4-3.9c-3.5-3.5-7.3-7.7-10-11.6c-8.1-10.8-15.2-22.7-21.6-35.1c-3.1-6-5.8-12.5-8.3-18.5
		c-1.2-2.3-1.2-5.8-3.1-6.9c-2.9,4.2-7.1,7.9-9.3,13.1c-3.7,8.3-4,18.5-5.4,29.1c-0.8,0.2-0.4,0-0.8,0.4c-6.2-1.5-8.3-7.9-10.6-13.3
		c-5.8-13.7-6.7-35.7-1.7-51.5c1.3-4,7.1-16.8,4.8-20.6c-1.2-3.7-5-5.8-7.1-8.7c-2.5-3.7-5.2-8.3-6.9-12.3
		c-4.6-10.8-6.9-22.7-12-33.5c-2.3-5-6.4-10.2-9.6-14.8c-3.7-5.2-7.7-8.9-10.6-15c-1-2.1-2.3-5.6-0.8-7.9c0.4-1.5,1.2-2.1,2.7-2.5
		c2.5-2.1,9.6,0.6,12.1,1.7c7.1,2.9,13.1,5.6,19.1,9.6c2.7,1.9,5.6,5.6,9.1,6.6h4c6.2,1.3,13.1,0.4,18.9,2.1
		c10.2,3.3,19.5,8.1,27.8,13.3c25.3,16,46.1,38.7,60.1,65.9c2.3,4.4,3.3,8.5,5.4,13.1c4,9.4,9.1,19.1,13.1,28.3
		c4,9.1,7.9,18.3,13.7,25.8c2.9,4,14.5,6.2,19.7,8.3c3.9,1.7,9.8,3.3,13.3,5.4c6.6,4,13.1,8.7,19.3,13.1
		C426.6,416.1,436.2,420.9,436.8,424.8L436.8,424.8z"/>
	<path class="st1" d="M240.2,257.3c-3.3,0-5.6,0.4-7.9,1v0.4h0.4c1.5,3.1,4.2,5.2,6.2,7.9c1.5,3.1,2.9,6.2,4.4,9.3
		c0.2-0.2,0.4-0.4,0.4-0.4c2.7-1.9,4-5,4-9.6c-1.2-1.3-1.3-2.7-2.3-4C244.2,259.8,241.7,258.8,240.2,257.3L240.2,257.3z"/>
</g>
<g>
	<path class="st2" d="M153.4,354.5c0,0-18.1,10.5,12.9,14.1c37.6,4.3,56.8,3.7,98.2-4.2c0,0,10.9,6.8,26.1,12.7
		C197.8,416.9,80.6,374.8,153.4,354.5 M142.1,302.6c0,0-20.3,15,10.7,18.2c40.1,4.1,71.8,4.5,126.6-6.1c0,0,7.6,7.7,19.5,11.9
		C186.8,359.5,61.8,329.2,142.1,302.6"/>
	<path class="st2" d="M360.4,392.9c0,0,13.4,11-14.8,19.6c-53.6,16.2-222.9,21.1-270,0.6c-16.9-7.4,14.8-17.6,24.8-19.7
		c10.4-2.3,16.4-1.8,16.4-1.8c-18.8-13.3-121.6,26-52.2,37.3C253.8,459.5,409.5,415,360.4,392.9 M162.2,248.8
		c0,0-86.1,20.5-30.5,27.9c23.5,3.1,70.3,2.4,114-1.2c35.7-3,71.5-9.4,71.5-9.4s-12.6,5.4-21.7,11.6c-87.5,23-256.5,12.3-207.8-11.2
		C128.7,246.6,162.2,248.8,162.2,248.8 M316.7,335.2c88.9-46.2,47.8-90.6,19.1-84.6c-7,1.5-10.2,2.7-10.2,2.7s2.6-4.1,7.6-5.9
		c56.8-20,100.4,58.9-18.3,90.1C314.9,337.5,316.3,336.3,316.7,335.2"/>
	<path class="st2" d="M170.9,460.4c85.4,5.5,216.4-3,219.6-43.4c0,0-6,15.3-70.5,27.5c-72.9,13.7-162.7,12.1-216,3.3
		C103.9,447.8,114.8,456.8,170.9,460.4"/>
</g>
</svg>
