<?xml version="1.0" encoding="utf-8"?>
<!-- Generator: Adobe Illustrator 27.2.0, SVG Export Plug-In . SVG Version: 6.00 Build 0)  -->
<svg version="1.1" id="Layer_1" xmlns="http://www.w3.org/2000/svg" xmlns:xlink="http://www.w3.org/1999/xlink" x="0px" y="0px"
	 viewBox="0 0 500 500" style="enable-background:new 0 0 500 500;" xml:space="preserve">
<style type="text/css">
	.st0{display:none;}
	.st1{display:inline;fill:#FFFFFF;filter:url(#Adobe_OpacityMaskFilter);}
	.st2{display:inline;fill:#FFFFFF;}
	.st3{display:inline;fill:url(#SVGID_1_);}
	.st4{display:inline;fill:url(#SVGID_00000073695496434610923210000004765330792758646957_);}
	
		.st5{display:inline;mask:url(#a_00000101099906028162570320000005559018957390152870_);fill:url(#SVGID_00000020387060637536098590000014960248547214893245_);}
	.st6{display:inline;}
	.st7{fill:#001D6C;}
	.st8{display:inline;fill:none;stroke:#0DBA4B;stroke-miterlimit:10;}
	.st9{fill:#0DBA4B;}
	.st10{fill:#0F27B7;}
	.st11{fill:#0FA7B7;}
	.st12{fill:#ED1C24;}
	.st13{fill:#FFD42E;}
</style>
<g class="st0">
	<defs>
		<filter id="Adobe_OpacityMaskFilter" filterUnits="userSpaceOnUse" x="82.29" y="89.39" width="316.23" height="316.23">
			<feColorMatrix  type="matrix" values="1 0 0 0 0  0 1 0 0 0  0 0 1 0 0  0 0 0 1 0"/>
		</filter>
	</defs>
	
		<mask maskUnits="userSpaceOnUse" x="82.29" y="89.39" width="316.23" height="316.23" id="a_00000101099906028162570320000005559018957390152870_" class="st6">
		<path style="fill:#FFFFFF;filter:url(#Adobe_OpacityMaskFilter);" d="M131.7,267.26h-19.76v-39.53
			c0-60.28,48.42-108.7,108.7-108.7h88.94v19.76h-88.94c-49.41,0-88.94,39.53-88.94,88.94V267.26z"/>
		<path style="fill:#FFFFFF;" d="M260.17,375.97h-88.94V356.2h88.94c49.41,0,88.94-39.53,88.94-88.94v-39.53h19.76v39.53
			C368.87,327.55,320.45,375.97,260.17,375.97z"/>
		
			<linearGradient id="SVGID_1_" gradientUnits="userSpaceOnUse" x1="17.2261" y1="464.0559" x2="26.2261" y2="464.0559" gradientTransform="matrix(9.8821 0 0 -9.8821 -8.8821 4951.9409)">
			<stop  offset="0.2" style="stop-color:#000000"/>
			<stop  offset="0.9" style="stop-color:#000000;stop-opacity:0"/>
		</linearGradient>
		<path style="fill:url(#SVGID_1_);" d="M161.35,346.32h88.94v39.53h-88.94V346.32z"/>
		
			<linearGradient id="SVGID_00000127751093254458898110000018317496564522346640_" gradientUnits="userSpaceOnUse" x1="24.2261" y1="488.0559" x2="33.2261" y2="488.0559" gradientTransform="matrix(9.8821 0 0 -9.8821 -8.8821 4951.9409)">
			<stop  offset="0.1" style="stop-color:#000000;stop-opacity:0"/>
			<stop  offset="0.8" style="stop-color:#000000"/>
		</linearGradient>
		<path style="fill:url(#SVGID_00000127751093254458898110000018317496564522346640_);" d="M230.52,109.15h88.94v39.53h-88.94
			V109.15z"/>
	</mask>
	
		<linearGradient id="SVGID_00000166655179250041068420000010509148948330930602_" gradientUnits="userSpaceOnUse" x1="9.2261" y1="460.0559" x2="41.2261" y2="492.0559" gradientTransform="matrix(9.8821 0 0 -9.8821 -8.8821 4951.9409)">
		<stop  offset="0.1" style="stop-color:#08BDBA"/>
		<stop  offset="0.9" style="stop-color:#0F62FE"/>
	</linearGradient>
	
		<path style="display:inline;mask:url(#a_00000101099906028162570320000005559018957390152870_);fill:url(#SVGID_00000166655179250041068420000010509148948330930602_);" d="
		M82.29,89.39h316.23v316.23H82.29V89.39z"/>
	<g class="st6">
		<path class="st7" d="M240.4,296.91c-27.67,0-49.41-21.74-49.41-49.41s21.74-49.41,49.41-49.41s49.41,21.74,49.41,49.41
			S268.07,296.91,240.4,296.91z M240.4,217.85c-16.8,0-29.65,12.85-29.65,29.65c0,16.8,12.85,29.65,29.65,29.65
			c16.8,0,29.65-12.85,29.65-29.65S257.2,217.85,240.4,217.85z"/>
		<circle class="st7" cx="358.99" cy="188.21" r="19.76"/>
		<circle class="st7" cx="121.82" cy="306.79" r="19.76"/>
	</g>
	<path class="st8" d="M121.82,266.32"/>
</g>
<g>
	<path class="st9" d="M111,224.88l0.13,1.26h-22.7l-0.25-1.26c-1.89-9.33-7.57-13.74-16.77-13.74c-10.84,0-19.04,9.08-19.04,27.87
		c0,21.94,9.08,29.38,19.17,29.38c8.83,0,14.5-5.42,16.39-15l0.25-1.26h22.7l-0.13,1.26c-2.14,20.93-18.16,31.65-39.97,31.65
		c-23.33,0-42.12-15.13-42.12-44.64c0-30.26,19.42-45.9,43-45.9C96.5,194.49,109.23,207.73,111,224.88z"/>
	<path class="st9" d="M210.23,239.76c0,27.87-17.4,45.27-44.51,45.27s-44.51-17.4-44.51-45.27c0-27.99,17.4-45.27,44.51-45.27
		S210.23,211.77,210.23,239.76z M187.03,239.76c0-18.54-8.2-28.62-21.31-28.62s-21.31,10.09-21.31,28.62
		c0,18.41,8.2,28.62,21.31,28.62S187.03,258.17,187.03,239.76z"/>
	<path class="st10" d="M296.35,257.04c0,16.27-13.24,24.34-24.97,25.72c-4.41,0.5-7.31,0.5-12.86,0.5h-34.68v-87.01h35.69
		c4.67,0,6.68,0,11.1,0.5c14.38,1.77,22.45,10.84,22.45,22.19c0,7.94-4.16,14-12.74,17.02
		C291.31,239.13,296.35,246.44,296.35,257.04z M246.54,230.56h10.21c2.02,0,3.91-0.13,5.55-0.38c4.16-0.63,7.06-2.77,7.06-7.94
		c0-4.92-2.65-7.31-6.94-7.94c-1.64-0.25-3.66-0.38-5.67-0.38h-10.21V230.56z M272.64,256.28c0-5.8-4.16-8.83-8.83-9.21
		c-1.64-0.13-3.66-0.13-5.67-0.13h-11.6v18.66h12.23c2.02,0,4.04,0,5.67-0.12C268.48,265.23,272.64,261.96,272.64,256.28z"/>
	<path class="st9" d="M395.46,239.76c0,27.87-17.4,45.27-44.51,45.27s-44.51-17.4-44.51-45.27c0-27.99,17.4-45.27,44.51-45.27
		S395.46,211.77,395.46,239.76z M372.26,239.76c0-18.54-8.2-28.62-21.31-28.62s-21.31,10.09-21.31,28.62
		c0,18.41,8.2,28.62,21.31,28.62S372.26,258.17,372.26,239.76z"/>
	<path class="st11" d="M475.78,283.27h-66.71v-87.01h22.7v67.84h44.01V283.27z"/>
</g>
<circle class="st12" cx="165.59" cy="238.88" r="46.99"/>
<circle class="st13" cx="350.95" cy="238.88" r="46.99"/>
</svg>
