<?xml version="1.0" encoding="UTF-8"?>
<svg id="Layer_1" data-name="Layer 1" xmlns="http://www.w3.org/2000/svg" width="426.57" height="413.01" xmlns:xlink="http://www.w3.org/1999/xlink" viewBox="0 0 426.57 413.01">
  <defs>
    <style>
      .cls-1 {
        fill: url(#linear-gradient-2);
      }

      .cls-2 {
        opacity: .74;
      }

      .cls-3 {
        fill: #fff;
      }

      .cls-4 {
        fill: url(#linear-gradient-6);
      }

      .cls-5 {
        fill: url(#linear-gradient-10);
      }

      .cls-6 {
        fill: #91b3fa;
      }

      .cls-7 {
        fill: #7d97f4;
      }

      .cls-8 {
        fill: url(#linear-gradient-5);
      }

      .cls-9 {
        fill: #2165b6;
      }

      .cls-10 {
        fill: url(#linear-gradient-7);
      }

      .cls-11 {
        fill: url(#linear-gradient-9);
      }

      .cls-12 {
        fill: url(#linear-gradient-3);
      }

      .cls-13 {
        fill: url(#linear-gradient);
      }

      .cls-14 {
        opacity: .61;
      }

      .cls-15 {
        fill: url(#linear-gradient-4);
      }

      .cls-16 {
        fill: url(#linear-gradient-8);
      }
    </style>
    <linearGradient id="linear-gradient" x1="127.95" y1="-32.18" x2="70.4" y2="428.26" gradientUnits="userSpaceOnUse">
      <stop offset="0" stop-color="#ff928e"/>
      <stop offset="1" stop-color="#fe7062"/>
    </linearGradient>
    <linearGradient id="linear-gradient-2" x1="533.12" y1="490.18" x2="159.68" y2="289.4" gradientUnits="userSpaceOnUse">
      <stop offset="0" stop-color="#4f52ff"/>
      <stop offset="1" stop-color="#4042e2"/>
    </linearGradient>
    <linearGradient id="linear-gradient-3" x1="271.54" y1="282.64" x2="499.08" y2="43.05" xlink:href="#linear-gradient-2"/>
    <linearGradient id="linear-gradient-4" x1="-15.92" y1="447.69" x2="-15.87" y2="447.64" gradientTransform="translate(39984 735981.76) scale(2500 -1643.57)" gradientUnits="userSpaceOnUse">
      <stop offset="0" stop-color="#c9cbce"/>
      <stop offset="1" stop-color="#7b7a81"/>
    </linearGradient>
    <linearGradient id="linear-gradient-5" x1="355.82" y1="2.46" x2="185.52" y2="169.06" gradientUnits="userSpaceOnUse">
      <stop offset="0" stop-color="#2b3582"/>
      <stop offset="1" stop-color="#150e42"/>
    </linearGradient>
    <linearGradient id="linear-gradient-6" x1="162.52" y1="122.82" x2="145.9" y2="139.08" gradientTransform="translate(45.25 -38.12) rotate(16.84)" gradientUnits="userSpaceOnUse">
      <stop offset="0" stop-color="#09005d"/>
      <stop offset="1" stop-color="#1a0f91"/>
    </linearGradient>
    <linearGradient id="linear-gradient-7" x1="227.18" y1="87.49" x2="210.56" y2="103.75" gradientTransform="translate(247.61 -136.85) rotate(73.15)" xlink:href="#linear-gradient-6"/>
    <linearGradient id="linear-gradient-8" x1="287.84" y1="112.82" x2="271.22" y2="129.08" gradientTransform="translate(236.48 -176.67) rotate(58.28)" xlink:href="#linear-gradient-6"/>
    <linearGradient id="linear-gradient-9" x1="338.5" y1="62.83" x2="321.88" y2="79.08" gradientTransform="matrix(1, 0, 0, 1, 0, 0)" xlink:href="#linear-gradient-6"/>
    <linearGradient id="linear-gradient-10" x1="401.16" y1="26.83" x2="384.54" y2="43.09" gradientTransform="translate(105.83 -232.02) rotate(37.98)" xlink:href="#linear-gradient-6"/>
  </defs>
  <g>
    <g>
      <path class="cls-6" d="m421.4,163.78c-.16-.71-.33-1.42-.5-2.13C394.9,54.63,286.12-10.83,177.93,15.46l47.59,195.9,195.89-47.58Z"/>
      <path class="cls-6" d="m224.93,210.6l190.7,65.47c11.85-34.4,14.53-72.43,5.81-110.51-.27-1.2-.56-2.39-.86-3.58l-195.65,48.62Z"/>
      <path class="cls-7" d="m225.51,211.36l38.76,197.84c1.24-.24,2.48-.49,3.72-.76,71.57-15.43,126-67.08,148.22-131.6l-190.7-65.47Z"/>
      <path class="cls-13" d="m200.73,195.03L160.48,0C69.48,18.78,5.58,96.16,0,184.63l199.62,11.68c.7.04,1.25-.6,1.11-1.28Z"/>
      <path class="cls-1" d="m225.63,210.51l-201.16-6.69c-.86,17.62.72,32.39,4.74,50.45,18.72,84.23,87.62,144.33,168.27,155.87l28.15-199.63Z"/>
      <path class="cls-12" d="m195.79,410.75c22.25,3.37,45.44,3.05,68.74-1.5h0l-38.55-197.88-30.19,199.38Z"/>
    </g>
    <g class="cls-14">
      <path class="cls-3" d="m153.64,392.25c-.17,0-.34-.03-.51-.1-27.84-11.5-53.01-29.54-72.77-52.17-20.43-23.39-35.12-51.81-42.5-82.19-.66-2.72-1.27-5.49-1.81-8.21-.14-.73.33-1.43,1.05-1.57.73-.14,1.43.33,1.57,1.05.53,2.69,1.14,5.42,1.79,8.1,7.28,29.96,21.77,58,41.92,81.06,19.5,22.33,44.32,40.12,71.78,51.46.68.28,1.01,1.06.73,1.75-.21.52-.71.83-1.24.83Z"/>
    </g>
    <g class="cls-14">
      <path class="cls-3" d="m299.17,393.11c-.53,0-1.04-.32-1.25-.85-.27-.69.06-1.47.75-1.74,49.8-19.76,89.38-59.95,108.61-110.25.26-.69,1.04-1.04,1.73-.77.69.26,1.04,1.04.77,1.73-19.49,51-59.63,91.74-110.12,111.78-.16.06-.33.09-.49.09Z"/>
    </g>
    <g class="cls-14">
      <path class="cls-3" d="m382.2,96.35c-.41,0-.81-.18-1.07-.53-24.06-31.87-56.92-55.17-95.04-67.41-.7-.23-1.09-.98-.87-1.68.23-.7.98-1.09,1.68-.87,38.64,12.4,71.96,36.04,96.35,68.34.45.59.33,1.43-.26,1.87-.24.18-.52.27-.81.27Z"/>
    </g>
    <g class="cls-2">
      <path class="cls-3" d="m109.58,183.69s-.06,0-.09,0l-102.42-6.61.22-1.45c2.7-17.37,7.13-34.18,13.95-52.91.25-.7,1.02-1.05,1.72-.8.69.25,1.05,1.02.8,1.72-6.57,18.05-10.91,34.28-13.59,50.96l99.49,6.42c.74.05,1.3.68,1.25,1.42-.05.71-.63,1.25-1.33,1.25Z"/>
    </g>
    <g class="cls-2">
      <path class="cls-3" d="m189.91,188.87s-.1,0-.14,0l-20.89-1.35c-.74-.05-1.3-.68-1.25-1.42.05-.74.7-1.3,1.42-1.25l20.2,1.31-21.73-101.74c-.15-.72.31-1.43,1.03-1.59.72-.15,1.43.31,1.59,1.03l21.87,102.42c.14.67-.03,1.34-.48,1.86-.41.48-1,.75-1.63.75Zm-.52-2.04h0,0Z"/>
    </g>
  </g>
  <circle class="cls-3" cx="233" cy="211.83" r="126"/>
  <g>
    <path class="cls-15" d="m247.6,257.31c-44.68,0-82.66-22.38-82.66-49.19s33.51-49.11,78.19-49.11c56.43,0,82.58,21.71,82.58,48.52s-28.83,49.78-78.12,49.78m-17.87-125.11c-58.09,0-107.24,31.28-107.24,71.49,0,37.98,48.85,69.51,106.94,69.51s107.54-29.3,107.54-69.51-49.15-71.49-107.24-71.49"/>
    <path class="cls-9" d="m211.25,175.62v118.22h35.73v-45.97c8.93,0,14.25-1.95,20.1,8.76,8.93,15.33,20.1,37.22,20.1,37.22h42.42s-26.79-43.79-29.03-45.97c-4.12-4.38-8.93-4.38-15.63-6.57,13.4-2.19,25.89-7.75,30.23-19.66,3.8-10.95,3.35-24.87-4.79-34.21-7.05-7.39-14.28-11.81-32.14-11.81h-66.99,0Zm35.73,24.62h23.45c5.56,0,10.05,5.47,10.05,10.95s-4.47,10.95-10.05,10.95h-23.45v-21.89h0Z"/>
  </g>
  <g>
    <polygon class="cls-8" points="151.84 134.62 150.88 132.86 215.97 97.29 276.46 123.88 328.39 72.95 328.5 72.88 389.49 36.89 390.51 38.62 329.62 74.55 276.9 126.27 216.06 99.53 151.84 134.62"/>
    <circle class="cls-4" cx="151.36" cy="133.74" r="7" transform="translate(-32.26 49.6) rotate(-16.84)"/>
    <circle class="cls-10" cx="216.02" cy="98.41" r="7" transform="translate(59.23 276.64) rotate(-73.15)"/>
    <circle class="cls-16" cx="276.68" cy="123.74" r="7" transform="translate(25.96 294.04) rotate(-58.28)"/>
    <circle class="cls-11" cx="327.34" cy="73.75" r="7"/>
    <circle class="cls-5" cx="390" cy="37.75" r="7" transform="translate(59.37 248.01) rotate(-37.98)"/>
  </g>
</svg>