<?xml version="1.0" encoding="utf-8"?>
<!-- Generator: Adobe Illustrator 28.1.0, SVG Export Plug-In . SVG Version: 6.00 Build 0)  -->
<svg version="1.1" id="Layer_1" xmlns="http://www.w3.org/2000/svg" xmlns:xlink="http://www.w3.org/1999/xlink" x="0px" y="0px"
	 viewBox="0 0 500 500" style="enable-background:new 0 0 500 500;" xml:space="preserve">
<style type="text/css">
	.st0{fill:#004065;}
</style>
<path class="st0" d="M313.3,265.8c4.2,24.5,7,49.2,8.5,74c0.4,15.5-4.1,30.6-12.9,43.4c-2.1,7.4-8.3,0-12.7,0
	c-10.9,0-14.9-11.8-20.8-19.1s-1.7-13.9,2.3-19.7c4.2-3,5.9-9.8,12-9.8c6.1,0,5.3-8.4,4.4-12.8c4-6.2,1.6-15.3,5.5-22.1
	c7.1-3.1,5-14.2,7.5-20.4c2-4.4,0-12.9,5.6-14.7c0,0,0.7,0,0.6,1 M306.4,13.1c-9.2-1.1-16.2,5.2-24,8.8c-6.4,2.1-13,3.9-19.7,5.3
	C258,37,246.9,42.8,240.9,52c-6.1,18.4-17.6,34.5-32.8,46.4c-21.8,11.3-32.8,35.9-40,59c-2.5,5.2-2.1,12.9-4.7,17.3
	c-8.7,2.5-4-8.8-5-14.3c-1.3-8.1,5.8-13.3,6.3-21.1c2.9-5.6,4.2-11.9,3.5-18.2c-1-14.1,3.2-31.2-6.7-42.7c-5.9-3.4-4-10.7-6.2-16.3
	c-5.9-8-13.3-14.7-21.9-19.7c-7.1-0.7-13.6-9.8-20.8-5.6c-4.5,5.3-12.9,5.2-15.5,12.3c-1.7,8.8-11.6,6.5-18.1,8.7
	c-8.3,3.2-18.9,0-25.7,6.6S35.3,80.6,38.6,91.8c7.8,15.2,27.8,7.6,38.7,16.8c-3.4,10.2-7.4,20.3-11.9,30.1
	c-1.8,13.3-2,26.8-0.8,40.2c2.1,13.4-1.4,30.6,9.8,40c6.4,2.4,6,9.8,8.5,15.3c2.5,5.5,7.2-2,9.1,3.3c5.7,3.1,0.6,9.8,3.7,13.8
	c5.2,1,10.1,3.6,13.9,7.4c6,4.2,11.7,9,16.8,14.3c3.9,8.1,8.9-7.9,13.3-1.9c2,5,7.8,7.5,12.8,5.4c0.4-0.1,0.7-0.3,1.1-0.5
	c8-1.3,15.6-4.6,22-9.5c4.2,15,1,31.4,2.9,46.9c2.6,11.3,4.3,22.9,4.9,34.5c2.9,11.5,4.7,23.2,5.1,35c3.2,24.6-1,49.5-12,71.7
	c-1.3,7-6.7,12.4-13.7,13.8c-4.9,2.3-15.1,6.3-11.7,13.4c11.4,9.8,29.5,8.8,42.6,3.7c8.7-4.2,1.2-14.7,5.6-21.1
	c5.8-22.4,2.9-46.4,9.8-68.8c5.3-11.3,7.3-23.9,5.8-36.3c1.4-7.6-1.8-16.7,3.1-22.9c0.1-7.6,2.9-15,8-20.6
	c1.6-11.6,2.4-23.2,2.5-34.9c6.9-2.2,14.2-2.9,21.4-2.2c0,6.5-4.6,14-3.2,21.2c1.4,8.2-0.1,16.6-4.4,23.7c-3,12.8-5.1,28.5,2.9,39.3
	c13.2,14.5,30.4,24.7,42.9,40.1c3.9,3.1,4.5,8.8,1.4,12.7c-0.2,0.3-0.5,0.6-0.8,0.8c-2.3,8.3-8.5,15-16.7,17.8
	c-5.2,2.1-13.6,9.8-7.5,15.2c12.3,2.8,25.1,1.9,36.9-2.5c8.1-2.9,5.1-12.7,8.3-18.8c4.3,5.9,8.3,12,12,18.4c5,7.5,13.7,1.3,19.7-1.1
	c0.7-10.9-1.5-21.9-6.4-31.7c-2.8-6.5-13.5-6.7-13-14.6c5.3-19.7,18.5-35,28.9-51.6c8.7-8.3,2.2-20.5,2.7-31
	c-2.8-26.8,3.7-53.7,18.4-76.3c3,12.5,6.9,24.9,11.7,36.9c3.4,14.1,9.6,27.3,18.3,38.9c4,14,2.9,29.5,5.6,43.9
	c3.8,25,2.4,50.5-4.1,74.9c0.7,8.9-7.8,15.5-7,24.3c2.4,8.1,11.8,1.6,16.7,5c8.9,2.8,18.4-1.4,22.4-9.8c-2.1-6.8-3.4-13.8-4.1-20.9
	c-6.7-20.7-8.2-42.7-4.3-64.1c0.8-11.6,7.8-25.8-1.3-35.7c-2.5-10.6,1.8-22.1-0.8-33c-6.1-28-6.8-56.8-2.1-85
	c1.6-3.9,0-11.2,4.2-13.4c4.2,6.2,6.1,13.8,5.3,21.2c3.8,11.6,4.3,24,1.4,35.9c-7.2,9.1-2.8,21.5-1.9,31.9c1.2,7.3,8.8,2.1,9.8-2.5
	c6.6-12.3,11.9-25.3,15.9-38.6c4.5-6.1,0-13.3,0-19.7c7-0.9,4.3-8.8,0.6-12.2c-3.7-12.6-2.9-27.1-11.3-37.9
	c-13.4-13.8-24.5-29.7-32.8-47c-8.9-28.2-34.5-47-43.2-75.5c-3.2-16.5-13.2-31-27.4-40c-6.4-2.9-12.9-5.3-19.7-7.2
	C318.1,12,312.3,12.8,306.4,13.1"/>
</svg>
