<?xml version="1.0" encoding="utf-8"?>
<!-- Generator: Adobe Illustrator 26.0.1, SVG Export Plug-In . SVG Version: 6.00 Build 0)  -->
<svg version="1.1" id="Layer_1" xmlns="http://www.w3.org/2000/svg" xmlns:xlink="http://www.w3.org/1999/xlink" x="0px" y="0px"
	 viewBox="0 0 500 500" style="enable-background:new 0 0 500 500;" xml:space="preserve">
<style type="text/css">
	.st0{fill-rule:evenodd;clip-rule:evenodd;fill:#3999C6;}
	.st1{fill-rule:evenodd;clip-rule:evenodd;fill:#59B4D9;}
	.st2{fill-rule:evenodd;clip-rule:evenodd;fill:#FFFFFF;}
	.st3{fill-rule:evenodd;clip-rule:evenodd;fill:#7FBA00;}
	.st4{fill-rule:evenodd;clip-rule:evenodd;fill:#B8D432;}
</style>
<g id="A">
	<g>
		<path class="st0" d="M250.5,75.3v413.8c-100,0-180-28.8-180-65.3V75.3H250.5z"/>
		<path class="st1" d="M247.7,75.3h182.9v349.5c0,35.5-81,65.3-180,65.3h-2.9V75.3z"/>
		<path class="st2" d="M430.5,75.3c0-35.5-81-65.3-180-65.3s-180,29.8-180,65.3c0,36.5,80,65.3,180,65.3S430.5,111.8,430.5,75.3"/>
		<path class="st3" d="M393.4,71.4c0-24-63.8-43.2-142.9-43.2S107.7,47.4,107.7,71.4s63.8,43.2,142.9,43.2S393.4,95.4,393.4,71.4"/>
		<path class="st4" d="M363.9,98.3C337.2,87.8,296.2,81,250.5,81c-46.7,0-87.6,6.7-113.3,17.3c-18.1-7.7-29.5-17.3-29.5-26.9
			c0-24,63.8-43.2,142.9-43.2s142.9,19.2,142.9,43.2C393.4,82,382.9,90.6,363.9,98.3"/>
		<path class="st2" d="M198.1,411.3v-27.8c-6.7,0-11.4-1.9-14.3-4.8c-2.9-2.9-3.8-7.7-3.8-14.4v-14.4c0-10.6-1.9-20.2-4.8-26.9
			c-2.9-7.7-7.6-12.5-14.3-15.4l0,0c6.7-2.9,11.4-7.7,14.3-14.4c2.9-6.7,3.8-15.4,3.8-25.9V251c0-6.7,1.9-11.5,4.8-14.4
			c3.8-2.9,7.6-3.8,14.3-3.8v-25.9c-14.3,0-24.8,1.9-33.3,4.8c-7.6,3.8-13.3,7.7-17.1,14.4c-3.8,5.8-5.7,16.3-5.7,29.8V275
			c0,14.4-5.7,21.1-17.1,21.1V322c11.4,0,17.1,7.7,17.1,21.1v21.1c0,12.5,1.9,22.1,5.7,28.8c3.8,5.8,9.5,10.6,18.1,13.4
			c7.6,2.9,19,4.8,33.3,4.8H198.1z M362,322v-24c-11.4,0-17.1-7.7-17.1-21.1v-21.1c0-12.5-1.9-22.1-5.7-28.8
			c-3.8-5.8-9.5-10.6-18.1-13.4c-7.6-2.9-19.1-4.8-33.3-4.8v25.9c6.7,0,11.4,1.9,14.3,4.8s3.8,7.7,3.8,14.4v14.4
			c0,10.6,1.9,20.2,4.8,26.9s7.6,12.5,14.3,15.4l0,0c-6.5,2.7-11.6,7.9-14.3,14.4c-2.9,6.7-3.8,15.4-3.8,25.9v16.3
			c0,6.7-1.9,11.5-4.8,14.4s-7.6,3.8-14.3,3.8v25.9c14.3,0,24.8-1.9,33.3-4.8c7.6-3.8,13.3-7.7,17.1-14.4c3.8-5.8,5.7-16.3,5.7-29.8
			v-19.2c0-14.4,5.7-21.1,17.1-21.1L362,322z"/>
	</g>
</g>
</svg>
