<?xml version="1.0" encoding="utf-8"?>
<!-- Generator: Adobe Illustrator 26.0.1, SVG Export Plug-In . SVG Version: 6.00 Build 0)  -->
<svg version="1.1" id="Layer_1" xmlns="http://www.w3.org/2000/svg" xmlns:xlink="http://www.w3.org/1999/xlink" x="0px" y="0px"
	 viewBox="0 0 500 500" style="enable-background:new 0 0 500 500;" xml:space="preserve">
<style type="text/css">
	.st0{fill:#F26834;}
	.st1{fill:#FBB03B;}
	.st2{fill:#F26935;}
</style>
<path id="path4" class="st0" d="M383.7,250.4c0-10.4,0-20.7,0-31.1c0-0.4,0-0.9,0-1.2c0-0.2,0.2-0.4,0.4-0.4s0.5,0,0.7,0
	c4.8,0,9.4,0,14.1,0c1.6,0,3.2,0,4.8,0.2c1.4,0,2.8,0.2,4.2,0.4c1.2,0.2,2.5,0.4,3.9,0.5c1.9,0.4,3.9,0.9,5.8,1.6
	c2.3,0.9,4.4,2.1,6.4,3.7c2.7,2.1,4.6,4.6,6.4,7.4c1.6,2.7,2.8,5.3,3.7,8.3c0.5,2.1,1.1,4.2,1.2,6.4c0.2,1.8,0.4,3.5,0.4,5.3
	c0,4.9-0.7,9.7-2.7,14.3c-1.2,3-3,6-5.1,8.5c-2.5,2.8-5.5,5.1-8.8,6.5c-1.6,0.7-3.2,1.2-4.8,1.4c-2.1,0.4-4.2,0.5-6.4,0.7
	c-3.5,0.2-7.1,0.2-10.6,0.2c-3.9,0-8,0-11.8,0c-0.4,0-0.7,0-1.1,0c-0.4,0-0.4-0.2-0.4-0.4c0-0.4,0-0.7,0-1.1c0-2.8,0-5.5,0-8.3
	C383.7,265.7,383.7,258,383.7,250.4z M396.1,250.2c0,6.4,0,12.7,0,19.1c0,0.4,0,0.7,0,1.1c0,0.2,0.2,0.4,0.4,0.4c0.2,0,0.4,0,0.5,0
	c1.8,0,3.7,0,5.5,0s3.5,0,5.5-0.4c1.2-0.2,2.7-0.4,3.9-0.7c0.7-0.2,1.6-0.5,2.3-0.9c1.6-0.7,2.8-1.8,3.9-3c1.9-2.3,3.4-4.8,4.1-7.8
	c0.4-1.4,0.7-3,0.7-4.6c0.4-3.2,0.2-6.2-0.5-9.4c-0.7-2.8-1.8-5.7-3.7-8c-1.1-1.4-2.3-2.5-3.7-3.4c-1.6-1.1-3.4-1.8-5.3-2.3
	c-2.1-0.5-4.4-0.9-6.7-1.1c-2.1,0-4.1,0-6.2,0c-0.2,0-0.2,0-0.4,0c-0.2,0-0.4,0.2-0.4,0.4c0,0.4,0,0.7,0,1.1
	C396.1,237.5,396.1,243.8,396.1,250.2z"/>
<path id="path6" class="st0" d="M447.3,250.2c0-10.3,0-20.7,0-30.9c0-0.4,0-0.9,0-1.2c0-0.2,0.2-0.4,0.4-0.4c0.2,0,0.4,0,0.5,0
	c4.8,0,9.4,0,14.1,0c2.3,0,4.4,0.2,6.7,0.7c2.5,0.5,4.9,1.2,7.1,2.7c2.3,1.4,4.2,3.4,5.5,5.8c0.9,1.8,1.6,3.7,1.8,5.7
	c0.2,1.6,0.2,3-0.2,4.6c-0.4,2.5-1.4,4.6-3,6.5c-0.7,0.9-1.6,1.8-2.7,2.5c-0.2,0.2-0.4,0.4-0.5,0.4c-0.2,0.2-0.2,0.4,0,0.5
	c0.9,0.5,1.8,0.9,2.7,1.4c1.4,0.9,2.8,1.9,3.9,3.2c1.9,2.1,3.2,4.6,3.9,7.2c0.4,1.8,0.5,3.5,0.5,5.3c0,3.7-1.2,7.1-3.2,10.1
	c-1.1,1.6-2.3,3-3.9,4.2c-1.9,1.4-4.1,2.5-6.4,3.2c-1.4,0.4-2.7,0.5-4.1,0.7c-1.9,0.2-3.7,0.2-5.7,0.2c-5.5,0-11,0-16.4,0
	c-0.4,0-0.5,0-0.9,0c-0.2,0-0.4-0.2-0.4-0.4c0-0.4,0-0.5,0-0.9c0-1.9,0-3.7,0-5.7C447.3,267.5,447.3,258.8,447.3,250.2L447.3,250.2z
	 M459.9,262.7c0,2.3,0,4.8,0,7.1c0,0.4,0,0.7,0,1.1c0,0.2,0.2,0.2,0.2,0.2c0.2,0,0.2,0,0.4,0c2.3,0,4.6,0,7.1-0.2
	c1.2-0.2,2.5-0.4,3.5-0.7c0.5-0.2,1.1-0.4,1.6-0.7c1.4-0.7,2.5-1.9,3-3.5c0.5-1.4,0.5-2.8,0.2-4.4c-0.2-1.1-0.5-1.9-1.1-2.7
	c-0.9-1.2-1.9-2.3-3.4-3c-0.7-0.4-1.6-0.7-2.5-0.9c-1.6-0.4-3.2-0.5-4.9-0.7c-1.2,0-2.5,0-3.7,0c-0.2,0-0.2,0-0.4,0l-0.2,0.2
	c0,0.2,0,0.5,0,0.7C459.9,257.8,459.9,260.3,459.9,262.7z M462.2,229.5c-0.7,0-1.4,0-2.1,0c-0.2,0-0.4,0.2-0.4,0.4s0,0.5,0,0.7
	c0,3.9,0,7.6,0,11.5c0,0.2,0,0.5,0,0.7c0,0.4,0.2,0.4,0.4,0.4c1.1,0,2.3,0,3.4,0c0.5,0,1.2-0.2,1.8-0.2c0.9-0.2,1.8-0.4,2.5-0.7
	c1.8-0.9,2.8-2.3,3.4-4.2c0.2-0.9,0.4-1.8,0.2-2.7c-0.2-2.3-1.4-3.9-3.5-4.9c-0.7-0.4-1.4-0.5-2.3-0.7S463.4,229.5,462.2,229.5
	L462.2,229.5z"/>
<path id="path8" class="st1" d="M152.9,249.6c0,4.1-0.4,7.2-1.4,10.6c-0.9,3.4-2.3,6.4-4.2,9.2c-2.7,4.1-6.2,7.4-10.3,10.1
	c-3.2,2.1-6.7,3.5-10.4,4.4c-3,0.7-6.2,1.1-9.4,0.9c-3.9-0.2-7.8-0.7-11.3-2.1c-3.5-1.4-6.9-3.4-9.7-5.8c-2.1-1.8-4.1-3.9-5.8-6.2
	c-2.7-3.7-4.6-7.8-5.7-12.2c-0.4-1.6-0.5-3-0.7-4.6c-0.2-1.1-0.2-2.1-0.2-3.4c0-1.6,0.2-3.4,0.4-4.9c0.2-1.9,0.7-3.9,1.2-5.8
	c0.9-2.5,1.9-4.9,3.4-7.2c1.9-3.4,4.6-6.4,7.6-8.8c3.7-3,8.1-5.3,12.7-6.5c1.9-0.5,3.7-0.7,5.7-0.9c1.4-0.2,3-0.2,4.4-0.2
	c3.7,0.2,7.2,0.7,10.6,1.9c4.1,1.4,7.8,3.5,11,6.4c2.8,2.5,5.1,5.1,7.1,8.3c1.8,2.8,3,5.8,3.7,9
	C152.5,244.3,152.9,247.3,152.9,249.6z M91,250.5c0,1.9,0.2,3.9,0.5,5.7c0.5,2.5,1.2,4.9,2.5,7.1c1.4,2.7,3.2,4.9,5.1,6.9
	c2.5,2.5,5.5,4.6,8.8,5.8c2.7,1.1,5.3,1.8,8.1,1.9c2.1,0.2,4.1,0.2,6.2-0.2c1.6-0.2,3.2-0.5,4.8-1.1c2.8-0.9,5.3-2.1,7.6-3.7
	c1.9-1.4,3.9-3,5.3-4.9c2.5-3.2,4.2-6.7,5.3-10.8c0.5-1.9,0.7-3.9,0.7-6c0-0.5,0-1.1,0-1.6c0-2.7-0.4-5.1-1.1-7.8
	c-1.6-5.7-4.8-10.3-9.5-13.8c-3.7-2.8-7.8-4.8-12.5-5.5c-1.2-0.2-2.5-0.4-3.7-0.4c-2.3,0-4.6,0.2-6.7,0.7c-4.2,0.9-8,2.8-11.3,5.5
	c-3.2,2.5-5.5,5.5-7.4,9c-1.2,2.7-2.1,5.3-2.7,8.3C91,247.3,90.8,248.9,91,250.5z"/>
<path id="path10" class="st1" d="M287.7,258.8c0-7.6,0-15.2,0-22.8c0-0.4,0-0.7,0-1.1c0,0,0-0.2,0.2-0.2h0.2c1.8,0,3.7,0,5.5,0
	c0.2,0,0.4,0.2,0.4,0.4c0,0.4,0,0.5,0,0.9c0,1.9,0,4.1,0,6c0,0.2,0,0.5,0,0.7l0.2,0.2c0,0,0,0,0.2,0c0.2-0.2,0.2-0.2,0.4-0.4
	c0.5-0.5,1.1-1.2,1.6-1.8c1.4-1.6,3.2-3,4.9-4.2c2.1-1.2,4.4-2.1,6.7-2.7c1.8-0.4,3.4-0.5,5.1-0.4c4.4,0.2,8.3,1.9,11.5,5.1
	c1.8,1.9,3.2,4.1,3.9,6.7c0.5,1.6,0.9,3.4,1.1,4.9c0.4,2.7,0.4,5.5,0.4,8.1c0,7.8,0,15.7,0,23.5c0,1.4,0.2,1.2-1.2,1.2
	c-1.2,0-2.7,0-3.9,0c-0.2,0-0.5,0-0.7,0c-0.2,0-0.4-0.2-0.4-0.4c0-0.2,0-0.2,0-0.4c0-0.4,0-0.5,0-0.9c0-7.2,0-14.7,0-21.9
	c0-1.2,0-2.7,0-3.9c0-1.9-0.2-3.9-0.5-5.8c-0.4-2.1-1.1-4.2-2.3-6c-1.4-2.1-3.5-3.4-6-4.1c-1.8-0.5-3.7-0.5-5.7-0.4
	c-2.5,0.2-4.6,1.1-6.7,2.3c-2.3,1.6-4.2,3.4-5.7,5.8c-1.2,1.9-1.9,4.1-2.3,6.2c-0.2,1.8-0.4,3.4-0.5,5.1c-0.2,2.8-0.2,5.7-0.2,8.5
	c0,4.8,0,9.5,0,14.3c0,0.4,0,0.7,0,1.1c0,0.2-0.2,0.4-0.4,0.4s-0.4,0-0.5,0c-1.4,0-3,0-4.4,0c-0.2,0-0.5,0-0.7,0
	c-0.2,0-0.2-0.2-0.2-0.2c0-0.2,0-0.2,0-0.4c0-0.4,0-0.7,0-1.1C287.7,273.9,287.7,266.4,287.7,258.8L287.7,258.8z"/>
<path id="path12" class="st2" d="M110.8,329.5c0-1.4,0-3-0.2-4.4c0-1.2-0.2-2.3-0.4-3.5c-0.2-1.6-0.4-3.2-0.7-4.8
	c-0.7-3.5-1.6-6.9-2.8-10.1c-0.4-1.1-0.9-2.1-1.2-3.2l0.2-0.2c0.2,0,0.4,0,0.4,0.2c0.9,0.2,1.6,0.4,2.5,0.7c1.9,0.5,3.9,0.7,5.8,0.9
	s3.9,0.2,5.8,0.2s3.9-0.4,5.7-0.5c1.9-0.4,3.7-0.7,5.5-1.2c0.2,0,0.2,0,0.4,0c0,0,0.2,0,0.2,0.2c0,0.2,0,0.4,0,0.5
	c-0.4,1.8-0.7,3.7-1.1,5.5c-0.9,4.2-1.9,8.5-3.4,12.7c-1.6,4.6-3.4,9-5.7,13.3c-2.1,4.1-4.6,8.1-7.4,11.7c-1.9,2.5-3.9,4.8-6.2,6.9
	c-0.7,0.7-1.6,1.4-2.3,2.1c0,0-0.2,0.2-0.4,0.2l0,0c0-0.2,0-0.2,0-0.4c1.2-3.2,2.3-6.4,3.2-9.5c0.5-2.5,1.1-4.9,1.4-7.6
	C110.6,335.7,110.8,332.5,110.8,329.5z"/>
<path id="path14" class="st2" d="M12,237.1c0,0,0.2-0.2,0.2,0c0.4,0.2,0.7,0.2,0.9,0.4c2.1,0.9,4.4,1.6,6.7,2.3
	c2.5,0.7,4.9,1.2,7.4,1.6c2.1,0.4,4.4,0.7,6.5,0.7c1.8,0.2,3.4,0.2,5.1,0.2c1.6,0,3,0,4.6-0.2c1.8-0.2,3.5-0.4,5.1-0.5
	c1.9-0.4,3.7-0.7,5.5-1.1c3.4-0.9,6.5-1.9,9.7-3.2c0.4-0.2,0.5-0.2,0.9-0.4c0,0,0.2,0,0.2,0.2c0,0.2,0,0.2,0,0.4
	c-0.4,1.2-0.7,2.3-0.9,3.5c-0.2,1.2-0.5,2.7-0.5,3.9c-0.4,2.3-0.4,4.8-0.4,7.2c0,1.8,0.4,3.5,0.5,5.5c0.4,1.8,0.7,3.7,1.2,5.5
	c0,0.2,0,0.4-0.4,0.4h-0.2c-2.1-0.4-4.1-0.7-6.2-1.1c-2.7-0.5-5.3-1.2-8-1.9c-4.2-1.2-8.3-2.8-12.4-4.6c-3.5-1.6-7.1-3.4-10.4-5.5
	c-3.7-2.3-7.2-4.9-10.6-7.8c-1.6-1.4-3-2.8-4.4-4.4C12.4,237.5,12,237.3,12,237.1C12,236.9,12,237.1,12,237.1z"/>
<path id="path16" class="st2" d="M118.9,194.5c-2.1,0-4.1,0-6,0.4c-2.5,0.4-4.8,0.7-7.2,1.4c-0.4,0-0.5,0-0.4-0.4
	c0.2-0.9,0.4-1.8,0.4-2.7c0.5-3.4,1.2-6.5,2.3-9.7c1.6-5.5,3.4-10.8,5.8-15.9c1.9-4.2,4.2-8.1,6.9-12c2.3-3.4,4.9-6.7,7.8-9.5
	c0.9-0.9,1.8-1.8,2.7-2.5c0.2-0.2,0.2-0.2,0.4-0.2h0.2c0,0,0,0,0,0.2s-0.2,0.4-0.2,0.4c-1.2,3.2-2.3,6.4-3.2,9.7
	c-0.5,2.5-1.1,5.1-1.4,7.6c-0.2,1.2-0.2,2.3-0.4,3.5c-0.2,2.7-0.2,5.3-0.2,8c0,1.6,0.2,3.2,0.4,4.8c0.2,1.2,0.4,2.5,0.5,3.5
	c0.5,2.8,1.1,5.7,1.9,8.3c0.7,2.1,1.4,4.2,2.3,6.2c0,0.2,0.2,0.4,0.2,0.5c0,0,0,0.2-0.2,0.2s-0.4,0-0.4,0c-2.3-0.7-4.4-1.1-6.7-1.4
	C122.6,194.5,120.7,194.3,118.9,194.5z"/>
<path id="path18" class="st1" d="M165.8,258.8c0-7.6,0-15.2,0-22.8c0-0.4,0-0.7,0-1.1c0,0,0-0.2,0.2-0.2h0.2c1.9,0,3.7,0,5.7,0
	c0,0,0,0,0.2,0c0.2,0,0.4,0.2,0.4,0.4c0,0.4,0,0.5,0,0.9c0,1.6,0,3.2,0,4.9c0,0.2,0,0.4,0,0.4s0,0,0.2,0c0.2-0.2,0.2-0.2,0.4-0.4
	c0.5-0.7,1.2-1.6,1.8-2.3c1.2-1.2,2.5-2.5,4.1-3.4c1.6-0.9,3.2-1.6,4.9-1.8c1.4-0.2,2.7,0,3.9,0.4c0.9,0.4,1.8,0.7,2.7,1.1
	c0,0,0.2,0.2,0,0.4c0,0.2-0.2,0.4-0.2,0.4c-0.5,0.9-1.1,1.6-1.4,2.5c-0.4,0.5-0.7,1.2-1.1,1.8c0,0.2-0.2,0.2-0.2,0.4
	s-0.2,0.2-0.4,0.2c-0.7-0.4-1.4-0.5-2.3-0.7c-0.4,0-0.9-0.2-1.2,0c-1.2,0.2-2.3,0.5-3.4,1.1c-1.9,1.1-3.5,2.7-4.6,4.6
	c-0.9,1.8-1.6,3.5-2.1,5.5c-0.2,1.1-0.4,2.1-0.5,3.2c-0.4,3.2-0.5,6.2-0.5,9.4c0,6,0,12.2,0,18.2c0,0.4,0,0.7,0,1.1
	c0,0.4-0.2,0.5-0.5,0.5c-1.8,0-3.7,0-5.5,0c-0.2,0-0.2,0-0.4,0l-0.2-0.2c0-0.2,0-0.4,0-0.5c0-1.2,0-2.7,0-3.9
	C165.8,271.7,165.8,265.4,165.8,258.8L165.8,258.8z"/>
<path id="path20" class="st1" d="M206.8,258.8c0,7.6,0,15.4,0,23c0,1.4,0.2,1.2-1.2,1.2s-2.8,0-4.2,0c-0.2,0-0.4,0-0.5,0
	s-0.2-0.2-0.2-0.2c0-0.2,0-0.2,0-0.4c0-0.4,0-0.5,0-0.9c0-15.2,0-30.2,0-45.4c0-0.4,0-0.7,0-1.1c0-0.2,0.2-0.4,0.4-0.4h0.2
	c1.8,0,3.5,0,5.3,0c0.2,0,0.2,0,0.4,0l0.2,0.2c0,0.4,0,0.7,0,1.1C206.8,243.6,206.8,251.2,206.8,258.8z"/>
<path id="path22" class="st1" d="M203.6,214.8c2.5-0.2,5.1,2.3,5.1,5.3c0,2.7-2.3,5.1-5.3,5.1c-2.7,0-5.1-2.3-5.1-5.3
	C198.5,216.9,201,214.6,203.6,214.8z"/>
<path id="path28" class="st1" d="M79.2,210.6c-1.4,1.4-2.8,2.8-3.9,4.4c-1.6,1.9-2.8,3.9-4.1,6.2c-0.2,0.4-0.4,0.4-0.5,0
	c-0.5-0.7-1.1-1.4-1.6-2.1c-1.9-2.8-3.7-5.7-5.3-8.5c-2.8-4.9-5.1-10.1-7.1-15.4c-1.6-4.4-2.8-8.8-3.7-13.3
	c-0.7-4.1-1.2-8.1-1.2-12.4c0-1.2,0-2.5,0.2-3.5c0-0.2,0-0.4,0-0.4c0-0.2,0-0.2,0.2-0.2c0,0,0,0,0.2,0c0,0.2,0.2,0.4,0.2,0.4
	c1.2,3.2,2.8,6.2,4.6,9c1.4,2.3,2.8,4.4,4.4,6.4c0.7,0.9,1.4,1.8,2.3,2.7c1.6,2.1,3.5,3.9,5.5,5.7c1.1,1.1,2.3,2.1,3.5,3
	c0.9,0.7,1.9,1.4,2.8,2.1c2.3,1.6,4.8,3.2,7.2,4.4c1.9,1.1,4.1,1.9,6,2.8c0.2,0,0.4,0.2,0.5,0.2v0.2c-0.2,0.2-0.2,0.2-0.4,0.2
	c-1.9,1.1-3.9,2.3-5.8,3.7C82,207.9,80.6,209.2,79.2,210.6z"/>
<path id="path30" class="st1" d="M79.2,288.9c1.4,1.4,2.8,2.8,4.4,3.9c1.9,1.6,3.9,2.8,6.2,4.1c0.4,0.2,0.4,0.4,0,0.5
	c-0.7,0.5-1.4,1.1-2.1,1.6c-2.8,1.9-5.7,3.7-8.5,5.3c-4.9,2.8-10.1,5.1-15.4,7.1c-4.4,1.6-8.8,2.8-13.3,3.7
	c-4.1,0.7-8.1,1.2-12.4,1.2c-1.2,0-2.5,0-3.5-0.2c-0.2,0-0.4,0-0.4,0c-0.2,0-0.2,0-0.2-0.2c0,0,0,0,0-0.2c0.2,0,0.4-0.2,0.4-0.2
	c3.2-1.2,6.2-2.8,9-4.6c2.3-1.4,4.4-2.8,6.4-4.4c0.9-0.7,1.8-1.4,2.7-2.3c2.1-1.6,3.9-3.5,5.7-5.5c1.1-1.1,2.1-2.3,3-3.5
	c0.7-0.9,1.4-1.9,2.1-2.8c1.6-2.3,3.2-4.8,4.4-7.2c1.1-1.9,1.9-4.1,2.8-6c0-0.2,0.2-0.4,0.2-0.5h0.2c0.2,0.2,0.2,0.2,0.2,0.4
	c1.1,1.9,2.3,3.9,3.7,5.8C76.7,286.1,77.9,287.6,79.2,288.9z"/>
<path id="path32" class="st1" d="M270.9,252.3c-0.5-2.3-1.4-4.6-2.5-6.5c-1.2-2.1-2.8-4.1-4.6-5.8c-2.5-2.3-5.1-4.1-8.3-5.1
	c-2.3-0.9-4.6-1.2-7.1-1.4c-2.7-0.2-5.3,0-8,0.7c-3.7,0.9-7.1,2.5-9.9,5.1c-4.2,3.9-7.1,8.5-8.3,14.1c-0.4,1.2-0.5,2.5-0.5,3.9
	c0,1.8,0,3.5,0.2,5.3c0.2,1.4,0.5,2.8,0.9,4.1c1.4,4.6,3.9,8.5,7.2,11.8c1.8,1.8,3.9,3,6.2,4.1c2.8,1.2,5.8,1.8,9,1.9
	c1.6,0,3.4,0,4.9-0.2c1.1-0.2,2.3-0.4,3.4-0.5c3.9-0.9,7.2-2.8,10.3-5.5c1.8-1.6,3.2-3.4,4.4-5.3c0.5-0.9,1.1-1.8,1.6-2.7
	c0.2-0.2,0-0.4-0.2-0.5c-1.6-0.9-3-1.6-4.6-2.5h-0.2h-0.2c-0.2,0.2-0.2,0.4-0.4,0.5c-1.1,1.6-2.1,3.2-3.4,4.6
	c-1.2,1.6-2.8,2.8-4.6,3.7c-3,1.6-6.2,2.7-9.5,2.7c-1.4,0-2.7,0-4.1-0.2c-1.8-0.4-3.4-0.9-4.9-1.8c-3.7-1.9-6.4-4.9-8.1-8.8
	c-0.9-1.9-1.4-4.1-1.6-6.2c0-0.5,0-1.1,0-1.8c0-0.2,0.2-0.4,0.4-0.4c0.4,0,0.7,0,1.1,0c6.7,0,13.4,0,20.3,0c6.7,0,13.4,0,20.3,0
	c0.4,0,0.7,0,1.1,0c0.2,0,0.2-0.2,0.4-0.4c0-0.2,0-0.2,0-0.4C271.7,256.5,271.3,254.4,270.9,252.3L270.9,252.3z M264.4,253.9h-32
	h-3.2c-0.2,0-0.2,0-0.2-0.2v-0.2l0,0l0,0c0,0,0,0,0-0.2c0.5-1.8,1.2-3.5,2.1-5.1c2.1-3.7,5.3-6.4,9.4-7.8c1.8-0.5,3.5-0.9,5.3-0.9
	s3.5,0,5.1,0.5c3.2,0.7,6.2,2.3,8.7,4.6c1.2,1.1,2.1,2.5,3,3.9c0.9,1.6,1.4,3.2,1.9,4.8c0,0.2,0,0.4,0,0.5
	C264.6,253.7,264.6,253.9,264.4,253.9L264.4,253.9z"/>
<path id="path34" class="st1" d="M369.4,235.2V235c0-0.2-0.2-0.2-0.2-0.2c-0.4,0-0.5,0-0.9,0c-1.9,0-3.9,0-6,0h-1.9h-0.2H360
	c-0.2,0-0.4-0.2-0.4-0.2v-0.2v-2.1c0-4.6,0-9.4,0-14c0-0.4,0-0.5,0-0.9c0-0.2-0.2-0.4-0.4-0.4c-0.2,0-0.4,0-0.5,0
	c-1.4,0-2.8,0-4.2,0c-1.4,0-1.2-0.2-1.2,1.2c0,5.1,0,10.1,0,15.2c0,0.4,0,0.7,0,1.1c0,0.2,0,0.2,0,0.4l-0.2,0.2c-0.2,0-0.5,0-0.7,0
	c-2.1,0-4.1,0-6.2,0c-0.4,0-0.5,0-0.9,0c-0.2,0-0.2,0-0.4,0c-0.2,0-0.2,0.2-0.2,0.2c0,1.6,0,3.2,0,4.8c0,0,0,0,0,0.2l0.2,0.2
	c0.2,0,0.5,0,0.7,0c2.1,0,4.2,0,6.4,0c0.4,0,0.5,0,0.9,0c0.2,0,0.4,0.2,0.4,0.4c0,0.4,0,0.7,0,1.1c0,8,0,15.9,0,24
	c0,5.5,0,10.8,0,16.3c0,0.4,0,0.7,0,1.1c0,0.2,0.2,0.4,0.5,0.4c0,0,0,0,0.2,0c1.8,0,3.5,0,5.3,0c0.4,0,0.5-0.2,0.5-0.5
	c0-0.4,0-0.7,0-1.1c0-6.7,0-13.3,0-20s0-13.4,0-20.2c0-0.4,0-0.7,0-1.1v-0.2l0.2-0.2c0.2,0,0.5,0,0.7,0c2.7,0,5.1,0,7.8,0
	c0.4,0,0.5,0,0.9,0c0.2,0,0.4-0.2,0.4-0.4v-0.2C369.4,238,369.4,236.6,369.4,235.2L369.4,235.2z"/>
</svg>
