<?xml version="1.0" encoding="utf-8"?>
<!-- Generator: Adobe Illustrator 26.0.1, SVG Export Plug-In . SVG Version: 6.00 Build 0)  -->
<svg version="1.1" id="Layer_1" xmlns="http://www.w3.org/2000/svg" xmlns:xlink="http://www.w3.org/1999/xlink" x="0px" y="0px"
	 viewBox="0 0 500 500" style="enable-background:new 0 0 500 500;" xml:space="preserve">
<style type="text/css">
	.st0{fill:url(#SVGID_1_);}
	.st1{fill:url(#SVGID_00000145030599133839270560000015243263914776160173_);}
	.st2{fill:url(#SVGID_00000124136825008246793150000012363554787380304521_);}
	.st3{fill:url(#SVGID_00000101784650604489934610000002188766024725243525_);}
	.st4{fill:url(#SVGID_00000004517855221167758330000014547428944295687865_);}
	.st5{fill:url(#SVGID_00000161627029411388249650000014969365490720157076_);}
	.st6{fill:url(#SVGID_00000162353764753789616100000009409265182124193974_);}
	.st7{fill:url(#SVGID_00000050654992532867597970000003082421032721129631_);}
	.st8{fill:url(#SVGID_00000069399378494306124950000001393694546674063240_);}
	.st9{fill:url(#SVGID_00000070098075007688360220000007002667068798500759_);}
	.st10{fill:url(#SVGID_00000080900061266639714100000009704813184893664420_);}
	.st11{fill:url(#SVGID_00000142893190722774111490000014197268581167221121_);}
	.st12{fill:url(#SVGID_00000153704434665577081100000015637926361776907667_);}
	.st13{fill:url(#SVGID_00000175288041671335810710000006815499191373566130_);}
	.st14{fill:url(#SVGID_00000160155256911011834360000012657907806813309825_);}
	.st15{fill:url(#SVGID_00000079453090139407351910000001531053628811014784_);}
	.st16{fill:url(#SVGID_00000066499286559102017460000014493670510784777887_);}
</style>
<g>
	
		<radialGradient id="SVGID_1_" cx="89.8638" cy="412.1662" r="56.8338" gradientTransform="matrix(1 0 0 -1 0 502)" gradientUnits="userSpaceOnUse">
		<stop  offset="0" style="stop-color:#00E1E1"/>
		<stop  offset="0.26" style="stop-color:#00E4E4"/>
		<stop  offset="0.4" style="stop-color:#00EAEA"/>
		<stop  offset="0.44" style="stop-color:#00EAEA;stop-opacity:0.98"/>
		<stop  offset="0.48" style="stop-color:#00ECEC;stop-opacity:0.92"/>
		<stop  offset="0.53" style="stop-color:#00EEEE;stop-opacity:0.81"/>
		<stop  offset="0.58" style="stop-color:#00F1F1;stop-opacity:0.66"/>
		<stop  offset="0.63" style="stop-color:#00F5F5;stop-opacity:0.48"/>
		<stop  offset="0.68" style="stop-color:#00FAFA;stop-opacity:0.25"/>
		<stop  offset="0.73" style="stop-color:#00FFFF;stop-opacity:0"/>
	</radialGradient>
	<path class="st0" d="M89.8,33C58.4,33,33,58.5,33,89.9c0,31.4,25.5,56.8,56.9,56.8c31.4,0,56.8-25.5,56.8-56.8
		C146.7,58.4,121.3,33,89.8,33C89.9,33,89.8,33,89.8,33z M129.8,91.2h-1.2c-18.2,0-37.5,19.3-37.5,37.5v1.1h-2.8v-1.1
		c0-18.2-19.3-37.5-37.5-37.5h-1.1v-2.8h1c18.2,0,37.5-19.3,37.5-37.5v-1.1H91V51c0,18.2,19.3,37.5,37.5,37.5h1.2L129.8,91.2z"/>
	
		<radialGradient id="SVGID_00000066494399669608602700000012836965742350952638_" cx="-7830.2861" cy="8360.0732" r="56.8338" gradientTransform="matrix(1 0 0 -1 7920.1499 8529.9902)" gradientUnits="userSpaceOnUse">
		<stop  offset="0" style="stop-color:#00E1E1"/>
		<stop  offset="0.26" style="stop-color:#00E4E4"/>
		<stop  offset="0.4" style="stop-color:#00EAEA"/>
		<stop  offset="0.44" style="stop-color:#00EAEA;stop-opacity:0.98"/>
		<stop  offset="0.48" style="stop-color:#00ECEC;stop-opacity:0.92"/>
		<stop  offset="0.53" style="stop-color:#00EEEE;stop-opacity:0.81"/>
		<stop  offset="0.58" style="stop-color:#00F1F1;stop-opacity:0.66"/>
		<stop  offset="0.63" style="stop-color:#00F5F5;stop-opacity:0.48"/>
		<stop  offset="0.68" style="stop-color:#00FAFA;stop-opacity:0.25"/>
		<stop  offset="0.73" style="stop-color:#00FFFF;stop-opacity:0"/>
	</radialGradient>
	<path style="fill:url(#SVGID_00000066494399669608602700000012836965742350952638_);" d="M89.8,113.1C58.4,113.1,33,138.6,33,170
		c0,31.4,25.5,56.8,56.9,56.8c31.4,0,56.8-25.5,56.8-56.8C146.7,138.5,121.3,113.1,89.8,113.1C89.9,113.1,89.8,113.1,89.8,113.1z
		 M129.8,171.3h-1.2c-18.2,0-37.5,19.3-37.5,37.5v1.1h-2.8v-1.1c0-18.2-19.3-37.5-37.5-37.5h-1.1v-2.8h1c18.2,0,37.5-19.3,37.5-37.5
		v-1.2H91v1.1c0,18.2,19.3,37.5,37.5,37.5h1.2L129.8,171.3z"/>
	
		<radialGradient id="SVGID_00000134248185156942774120000012960703021693412764_" cx="-7775.313" cy="8360.0732" r="56.8338" gradientTransform="matrix(1 0 0 -1 7945.1401 8529.9902)" gradientUnits="userSpaceOnUse">
		<stop  offset="0" style="stop-color:#00E1E1"/>
		<stop  offset="0.26" style="stop-color:#00E4E4"/>
		<stop  offset="0.4" style="stop-color:#00EAEA"/>
		<stop  offset="0.44" style="stop-color:#00EAEA;stop-opacity:0.98"/>
		<stop  offset="0.48" style="stop-color:#00ECEC;stop-opacity:0.92"/>
		<stop  offset="0.53" style="stop-color:#00EEEE;stop-opacity:0.81"/>
		<stop  offset="0.58" style="stop-color:#00F1F1;stop-opacity:0.66"/>
		<stop  offset="0.63" style="stop-color:#00F5F5;stop-opacity:0.48"/>
		<stop  offset="0.68" style="stop-color:#00FAFA;stop-opacity:0.25"/>
		<stop  offset="0.73" style="stop-color:#00FFFF;stop-opacity:0"/>
	</radialGradient>
	<path style="fill:url(#SVGID_00000134248185156942774120000012960703021693412764_);" d="M169.9,113.1c-31.4,0-56.9,25.4-56.9,56.8
		c0,31.4,25.4,56.9,56.8,56.9c31.4,0,56.9-25.4,56.9-56.8c0,0,0-0.1,0-0.1C226.7,138.6,201.3,113.1,169.9,113.1z M209.8,171.3h-1.1
		c-18.2,0-37.5,19.3-37.5,37.5v1.1h-2.8v-1.1c0-18.2-19.3-37.5-37.5-37.5h-1.1v-2.8h1.1c18.2,0,37.5-19.3,37.5-37.5v-1.2h2.8v1.1
		c0,18.2,19.3,37.5,37.5,37.5h1.1L209.8,171.3z"/>
	
		<radialGradient id="SVGID_00000175285883357969116530000018021277798773126827_" cx="-7830.2861" cy="8304.9805" r="56.8338" gradientTransform="matrix(1 0 0 -1 7920.1499 8554.9805)" gradientUnits="userSpaceOnUse">
		<stop  offset="0" style="stop-color:#00E1E1"/>
		<stop  offset="0.26" style="stop-color:#00E4E4"/>
		<stop  offset="0.4" style="stop-color:#00EAEA"/>
		<stop  offset="0.44" style="stop-color:#00EAEA;stop-opacity:0.98"/>
		<stop  offset="0.48" style="stop-color:#00ECEC;stop-opacity:0.92"/>
		<stop  offset="0.53" style="stop-color:#00EEEE;stop-opacity:0.81"/>
		<stop  offset="0.58" style="stop-color:#00F1F1;stop-opacity:0.66"/>
		<stop  offset="0.63" style="stop-color:#00F5F5;stop-opacity:0.48"/>
		<stop  offset="0.68" style="stop-color:#00FAFA;stop-opacity:0.25"/>
		<stop  offset="0.73" style="stop-color:#00FFFF;stop-opacity:0"/>
	</radialGradient>
	<path style="fill:url(#SVGID_00000175285883357969116530000018021277798773126827_);" d="M89.8,193.2C58.4,193.2,33,218.7,33,250
		c0,31.4,25.5,56.8,56.9,56.8c31.4,0,56.8-25.5,56.8-56.8C146.7,218.6,121.3,193.2,89.8,193.2C89.9,193.2,89.8,193.2,89.8,193.2z
		 M129.8,251.4h-1.2c-18.2,0-37.5,19.3-37.5,37.5v1.1h-2.8v-1.1c0-18.2-19.3-37.5-37.5-37.5h-1.1v-2.8h1c18.2,0,37.5-19.3,37.5-37.5
		v-1.2H91v1.2c0,18.2,19.3,37.5,37.5,37.5h1.2L129.8,251.4z"/>
	
		<radialGradient id="SVGID_00000039135195219281315820000015020287951378028188_" cx="-7830.2861" cy="8249.8965" r="56.8338" gradientTransform="matrix(1 0 0 -1 7920.1499 8579.9805)" gradientUnits="userSpaceOnUse">
		<stop  offset="0" style="stop-color:#00E1E1"/>
		<stop  offset="0.26" style="stop-color:#00E4E4"/>
		<stop  offset="0.4" style="stop-color:#00EAEA"/>
		<stop  offset="0.44" style="stop-color:#00EAEA;stop-opacity:0.98"/>
		<stop  offset="0.48" style="stop-color:#00ECEC;stop-opacity:0.92"/>
		<stop  offset="0.53" style="stop-color:#00EEEE;stop-opacity:0.81"/>
		<stop  offset="0.58" style="stop-color:#00F1F1;stop-opacity:0.66"/>
		<stop  offset="0.63" style="stop-color:#00F5F5;stop-opacity:0.48"/>
		<stop  offset="0.68" style="stop-color:#00FAFA;stop-opacity:0.25"/>
		<stop  offset="0.73" style="stop-color:#00FFFF;stop-opacity:0"/>
	</radialGradient>
	<path style="fill:url(#SVGID_00000039135195219281315820000015020287951378028188_);" d="M89.8,273.2c-31.4,0-56.8,25.5-56.8,56.9
		c0,31.4,25.5,56.8,56.9,56.8c31.4,0,56.8-25.5,56.8-56.8C146.7,298.7,121.3,273.2,89.8,273.2C89.9,273.2,89.8,273.2,89.8,273.2z
		 M129.8,331.5h-1.2c-18.2,0-37.5,19.3-37.5,37.5v1.2h-2.8V369c0-18.2-19.3-37.5-37.5-37.5h-1.1v-2.8h1c18.2,0,37.5-19.3,37.5-37.5
		V290H91v1.2c0,18.2,19.3,37.5,37.5,37.5h1.2L129.8,331.5z"/>
	
		<radialGradient id="SVGID_00000091717433811653966920000002082707490881989256_" cx="-7775.313" cy="8304.9805" r="56.8338" gradientTransform="matrix(1 0 0 -1 7945.1401 8554.9805)" gradientUnits="userSpaceOnUse">
		<stop  offset="0" style="stop-color:#00E1E1"/>
		<stop  offset="0.26" style="stop-color:#00E4E4"/>
		<stop  offset="0.4" style="stop-color:#00EAEA"/>
		<stop  offset="0.44" style="stop-color:#00EAEA;stop-opacity:0.98"/>
		<stop  offset="0.48" style="stop-color:#00ECEC;stop-opacity:0.92"/>
		<stop  offset="0.53" style="stop-color:#00EEEE;stop-opacity:0.81"/>
		<stop  offset="0.58" style="stop-color:#00F1F1;stop-opacity:0.66"/>
		<stop  offset="0.63" style="stop-color:#00F5F5;stop-opacity:0.48"/>
		<stop  offset="0.68" style="stop-color:#00FAFA;stop-opacity:0.25"/>
		<stop  offset="0.73" style="stop-color:#00FFFF;stop-opacity:0"/>
	</radialGradient>
	<path style="fill:url(#SVGID_00000091717433811653966920000002082707490881989256_);" d="M169.9,193.2c-31.4,0-56.9,25.4-56.9,56.8
		c0,31.4,25.4,56.9,56.8,56.9s56.9-25.4,56.9-56.8c0,0,0-0.1,0-0.1C226.7,218.6,201.3,193.2,169.9,193.2z M209.8,251.4h-1.1
		c-18.2,0-37.5,19.3-37.5,37.5v1.1h-2.8v-1.1c0-18.2-19.3-37.5-37.5-37.5h-1.1v-2.8h1.1c18.2,0,37.5-19.3,37.5-37.5v-1.2h2.8v1.2
		c0,18.2,19.3,37.5,37.5,37.5h1.1L209.8,251.4z"/>
	
		<radialGradient id="SVGID_00000111872801075172083770000015928964508031054464_" cx="-7720.1699" cy="8304.9805" r="56.8338" gradientTransform="matrix(1 0 0 -1 7970.1401 8554.9805)" gradientUnits="userSpaceOnUse">
		<stop  offset="0" style="stop-color:#00E1E1"/>
		<stop  offset="0.26" style="stop-color:#00E4E4"/>
		<stop  offset="0.4" style="stop-color:#00EAEA"/>
		<stop  offset="0.44" style="stop-color:#00EAEA;stop-opacity:0.98"/>
		<stop  offset="0.48" style="stop-color:#00ECEC;stop-opacity:0.92"/>
		<stop  offset="0.53" style="stop-color:#00EEEE;stop-opacity:0.81"/>
		<stop  offset="0.58" style="stop-color:#00F1F1;stop-opacity:0.66"/>
		<stop  offset="0.63" style="stop-color:#00F5F5;stop-opacity:0.48"/>
		<stop  offset="0.68" style="stop-color:#00FAFA;stop-opacity:0.25"/>
		<stop  offset="0.73" style="stop-color:#00FFFF;stop-opacity:0"/>
	</radialGradient>
	<path style="fill:url(#SVGID_00000111872801075172083770000015928964508031054464_);" d="M250,193.2c-31.4,0-56.8,25.4-56.9,56.8
		c0,31.4,25.4,56.8,56.8,56.9s56.8-25.4,56.9-56.8c0,0,0,0,0,0C306.8,218.6,281.4,193.2,250,193.2z M290,251.4h-1.1
		c-18.2,0-37.5,19.3-37.5,37.5v1.1h-2.8v-1.1c0-18.2-19.3-37.5-37.5-37.5h-1.2v-2.8h1.2c18.2,0,37.5-19.3,37.5-37.5v-1.2h2.8v1.2
		c0,18.2,19.3,37.5,37.5,37.5h1.1V251.4z"/>
	
		<radialGradient id="SVGID_00000012473769860059193400000012378861622040475063_" cx="-7665.0869" cy="8304.9805" r="56.8338" gradientTransform="matrix(1 0 0 -1 7995.1401 8554.9805)" gradientUnits="userSpaceOnUse">
		<stop  offset="0" style="stop-color:#00E1E1"/>
		<stop  offset="0.26" style="stop-color:#00E4E4"/>
		<stop  offset="0.4" style="stop-color:#00EAEA"/>
		<stop  offset="0.44" style="stop-color:#00EAEA;stop-opacity:0.98"/>
		<stop  offset="0.48" style="stop-color:#00ECEC;stop-opacity:0.92"/>
		<stop  offset="0.53" style="stop-color:#00EEEE;stop-opacity:0.81"/>
		<stop  offset="0.58" style="stop-color:#00F1F1;stop-opacity:0.66"/>
		<stop  offset="0.63" style="stop-color:#00F5F5;stop-opacity:0.48"/>
		<stop  offset="0.68" style="stop-color:#00FAFA;stop-opacity:0.25"/>
		<stop  offset="0.73" style="stop-color:#00FFFF;stop-opacity:0"/>
	</radialGradient>
	<path style="fill:url(#SVGID_00000012473769860059193400000012378861622040475063_);" d="M330.1,193.2c-31.4,0-56.8,25.4-56.8,56.8
		s25.4,56.8,56.8,56.8s56.8-25.4,56.8-56.8l0,0C386.9,218.6,361.5,193.2,330.1,193.2C330.1,193.2,330.1,193.2,330.1,193.2z
		 M370,251.4h-1.1c-18.2,0-37.5,19.3-37.5,37.5v1.1h-2.8v-1.1c0-18.2-19.3-37.5-37.5-37.5H290v-2.8h1.2c18.2,0,37.5-19.3,37.5-37.5
		v-1.2h2.8v1.2c0,18.2,19.3,37.5,37.5,37.5h1.1L370,251.4z"/>
	
		<radialGradient id="SVGID_00000083791575075547212900000008152323907561671358_" cx="-7609.9937" cy="8304.9805" r="56.8338" gradientTransform="matrix(1 0 0 -1 8020.1299 8554.9805)" gradientUnits="userSpaceOnUse">
		<stop  offset="0" style="stop-color:#00E1E1"/>
		<stop  offset="0.26" style="stop-color:#00E4E4"/>
		<stop  offset="0.4" style="stop-color:#00EAEA"/>
		<stop  offset="0.44" style="stop-color:#00EAEA;stop-opacity:0.98"/>
		<stop  offset="0.48" style="stop-color:#00ECEC;stop-opacity:0.92"/>
		<stop  offset="0.53" style="stop-color:#00EEEE;stop-opacity:0.81"/>
		<stop  offset="0.58" style="stop-color:#00F1F1;stop-opacity:0.66"/>
		<stop  offset="0.63" style="stop-color:#00F5F5;stop-opacity:0.48"/>
		<stop  offset="0.68" style="stop-color:#00FAFA;stop-opacity:0.25"/>
		<stop  offset="0.73" style="stop-color:#00FFFF;stop-opacity:0"/>
	</radialGradient>
	<path style="fill:url(#SVGID_00000083791575075547212900000008152323907561671358_);" d="M410.1,193.2c-31.4,0-56.8,25.4-56.8,56.8
		s25.4,56.8,56.8,56.8c31.4,0,56.8-25.4,56.8-56.8l0,0C467,218.6,441.6,193.2,410.1,193.2C410.2,193.2,410.1,193.2,410.1,193.2z
		 M450.1,251.4H449c-18.2,0-37.5,19.3-37.5,37.5v1.1h-2.9v-1.1c0-18.2-19.3-37.5-37.5-37.5h-1.2v-2.8h1.2
		c18.2,0,37.5-19.3,37.5-37.5v-1.2h2.8v1.2c0,18.2,19.3,37.5,37.5,37.5h1.1L450.1,251.4z"/>
	
		<radialGradient id="SVGID_00000172403383971032952350000004276679139834117532_" cx="-7775.313" cy="8249.8965" r="56.8338" gradientTransform="matrix(1 0 0 -1 7945.1401 8579.9805)" gradientUnits="userSpaceOnUse">
		<stop  offset="0" style="stop-color:#00E1E1"/>
		<stop  offset="0.26" style="stop-color:#00E4E4"/>
		<stop  offset="0.4" style="stop-color:#00EAEA"/>
		<stop  offset="0.44" style="stop-color:#00EAEA;stop-opacity:0.98"/>
		<stop  offset="0.48" style="stop-color:#00ECEC;stop-opacity:0.92"/>
		<stop  offset="0.53" style="stop-color:#00EEEE;stop-opacity:0.81"/>
		<stop  offset="0.58" style="stop-color:#00F1F1;stop-opacity:0.66"/>
		<stop  offset="0.63" style="stop-color:#00F5F5;stop-opacity:0.48"/>
		<stop  offset="0.68" style="stop-color:#00FAFA;stop-opacity:0.25"/>
		<stop  offset="0.73" style="stop-color:#00FFFF;stop-opacity:0"/>
	</radialGradient>
	<path style="fill:url(#SVGID_00000172403383971032952350000004276679139834117532_);" d="M169.9,273.2c-31.4,0-56.9,25.4-56.9,56.8
		c0,31.4,25.4,56.9,56.8,56.9c31.4,0,56.9-25.4,56.9-56.8c0,0,0-0.1,0-0.1C226.7,298.7,201.3,273.3,169.9,273.2z M209.8,331.5h-1.1
		c-18.2,0-37.5,19.3-37.5,37.5v1.2h-2.8V369c0-18.2-19.3-37.5-37.5-37.5h-1.1v-2.8h1.1c18.2,0,37.5-19.3,37.5-37.5V290h2.8v1.2
		c0,18.2,19.3,37.5,37.5,37.5h1.1L209.8,331.5z"/>
	
		<radialGradient id="SVGID_00000110464831676729130150000018115883505255362489_" cx="-7665.0869" cy="8360.0732" r="56.8338" gradientTransform="matrix(1 0 0 -1 7995.1401 8529.9902)" gradientUnits="userSpaceOnUse">
		<stop  offset="0" style="stop-color:#00E1E1"/>
		<stop  offset="0.26" style="stop-color:#00E4E4"/>
		<stop  offset="0.4" style="stop-color:#00EAEA"/>
		<stop  offset="0.44" style="stop-color:#00EAEA;stop-opacity:0.98"/>
		<stop  offset="0.48" style="stop-color:#00ECEC;stop-opacity:0.92"/>
		<stop  offset="0.53" style="stop-color:#00EEEE;stop-opacity:0.81"/>
		<stop  offset="0.58" style="stop-color:#00F1F1;stop-opacity:0.66"/>
		<stop  offset="0.63" style="stop-color:#00F5F5;stop-opacity:0.48"/>
		<stop  offset="0.68" style="stop-color:#00FAFA;stop-opacity:0.25"/>
		<stop  offset="0.73" style="stop-color:#00FFFF;stop-opacity:0"/>
	</radialGradient>
	<path style="fill:url(#SVGID_00000110464831676729130150000018115883505255362489_);" d="M330.1,113.1c-31.4,0-56.8,25.4-56.8,56.8
		s25.4,56.8,56.8,56.8s56.8-25.4,56.8-56.8v0C386.9,138.5,361.5,113.1,330.1,113.1C330.1,113.1,330.1,113.1,330.1,113.1z M370,171.3
		h-1.1c-18.2,0-37.5,19.3-37.5,37.5v1.1h-2.8v-1.1c0-18.2-19.3-37.5-37.5-37.5H290v-2.8h1.2c18.1,0,37.5-19.3,37.5-37.5v-1.2h2.8
		v1.2c0,18.2,19.3,37.5,37.5,37.5h1.1L370,171.3z"/>
	
		<radialGradient id="SVGID_00000049184332490258539880000016480578003803630256_" cx="-7665.0869" cy="8249.8965" r="56.8338" gradientTransform="matrix(1 0 0 -1 7995.1401 8579.9805)" gradientUnits="userSpaceOnUse">
		<stop  offset="0" style="stop-color:#00E1E1"/>
		<stop  offset="0.26" style="stop-color:#00E4E4"/>
		<stop  offset="0.4" style="stop-color:#00EAEA"/>
		<stop  offset="0.44" style="stop-color:#00EAEA;stop-opacity:0.98"/>
		<stop  offset="0.48" style="stop-color:#00ECEC;stop-opacity:0.92"/>
		<stop  offset="0.53" style="stop-color:#00EEEE;stop-opacity:0.81"/>
		<stop  offset="0.58" style="stop-color:#00F1F1;stop-opacity:0.66"/>
		<stop  offset="0.63" style="stop-color:#00F5F5;stop-opacity:0.48"/>
		<stop  offset="0.68" style="stop-color:#00FAFA;stop-opacity:0.25"/>
		<stop  offset="0.73" style="stop-color:#00FFFF;stop-opacity:0"/>
	</radialGradient>
	<path style="fill:url(#SVGID_00000049184332490258539880000016480578003803630256_);" d="M330.1,273.2c-31.4,0-56.8,25.4-56.8,56.8
		s25.4,56.8,56.8,56.8s56.8-25.4,56.8-56.8l0,0C386.9,298.7,361.5,273.3,330.1,273.2C330.1,273.2,330.1,273.2,330.1,273.2z
		 M370,331.5h-1.1c-18.2,0-37.5,19.3-37.5,37.5v1.2h-2.8V369c0-18.2-19.3-37.5-37.5-37.5H290v-2.8h1.2c18.2,0,37.5-19.3,37.5-37.5
		V290h2.8v1.2c0,18.2,19.3,37.5,37.5,37.5h1.1L370,331.5z"/>
	
		<radialGradient id="SVGID_00000144336461971855505940000011378177663566719920_" cx="-7609.9937" cy="8360.0732" r="56.8338" gradientTransform="matrix(1 0 0 -1 8020.1299 8529.9902)" gradientUnits="userSpaceOnUse">
		<stop  offset="0" style="stop-color:#00E1E1"/>
		<stop  offset="0.26" style="stop-color:#00E4E4"/>
		<stop  offset="0.4" style="stop-color:#00EAEA"/>
		<stop  offset="0.44" style="stop-color:#00EAEA;stop-opacity:0.98"/>
		<stop  offset="0.48" style="stop-color:#00ECEC;stop-opacity:0.92"/>
		<stop  offset="0.53" style="stop-color:#00EEEE;stop-opacity:0.81"/>
		<stop  offset="0.58" style="stop-color:#00F1F1;stop-opacity:0.66"/>
		<stop  offset="0.63" style="stop-color:#00F5F5;stop-opacity:0.48"/>
		<stop  offset="0.68" style="stop-color:#00FAFA;stop-opacity:0.25"/>
		<stop  offset="0.73" style="stop-color:#00FFFF;stop-opacity:0"/>
	</radialGradient>
	<path style="fill:url(#SVGID_00000144336461971855505940000011378177663566719920_);" d="M410.1,113.1c-31.4,0-56.8,25.4-56.8,56.8
		s25.4,56.8,56.8,56.8c31.4,0,56.8-25.4,56.8-56.8v0C467,138.5,441.6,113.1,410.1,113.1C410.2,113.1,410.1,113.1,410.1,113.1z
		 M450.1,171.3H449c-18.2,0-37.5,19.3-37.5,37.5v1.1h-2.9v-1.1c0-18.2-19.3-37.5-37.5-37.5h-1.2v-2.8h1.2
		c18.2,0,37.5-19.3,37.5-37.5v-1.2h2.8v1.2c0,18.2,19.3,37.5,37.5,37.5h1.1L450.1,171.3z"/>
	
		<radialGradient id="SVGID_00000166639799962700998490000008296361822709371543_" cx="-7609.9937" cy="8249.8965" r="56.8338" gradientTransform="matrix(1 0 0 -1 8020.1299 8579.9805)" gradientUnits="userSpaceOnUse">
		<stop  offset="0" style="stop-color:#00E1E1"/>
		<stop  offset="0.26" style="stop-color:#00E4E4"/>
		<stop  offset="0.4" style="stop-color:#00EAEA"/>
		<stop  offset="0.44" style="stop-color:#00EAEA;stop-opacity:0.98"/>
		<stop  offset="0.48" style="stop-color:#00ECEC;stop-opacity:0.92"/>
		<stop  offset="0.53" style="stop-color:#00EEEE;stop-opacity:0.81"/>
		<stop  offset="0.58" style="stop-color:#00F1F1;stop-opacity:0.66"/>
		<stop  offset="0.63" style="stop-color:#00F5F5;stop-opacity:0.48"/>
		<stop  offset="0.68" style="stop-color:#00FAFA;stop-opacity:0.25"/>
		<stop  offset="0.73" style="stop-color:#00FFFF;stop-opacity:0"/>
	</radialGradient>
	<path style="fill:url(#SVGID_00000166639799962700998490000008296361822709371543_);" d="M410.1,273.2c-31.4,0-56.8,25.4-56.8,56.8
		s25.4,56.8,56.8,56.8c31.4,0,56.8-25.4,56.8-56.8l0,0C467,298.7,441.6,273.3,410.1,273.2C410.2,273.2,410.1,273.2,410.1,273.2z
		 M450.1,331.5H449c-18.2,0-37.5,19.3-37.5,37.5v1.2h-2.9V369c0-18.2-19.3-37.5-37.5-37.5h-1.2v-2.8h1.2c18.2,0,37.5-19.3,37.5-37.5
		V290h2.8v1.2c0,18.2,19.3,37.5,37.5,37.5h1.1L450.1,331.5z"/>
	
		<radialGradient id="SVGID_00000049184360777535965150000014016930749170540967_" cx="-7830.2861" cy="8194.8135" r="56.8338" gradientTransform="matrix(1 0 0 -1 7920.1499 8604.9805)" gradientUnits="userSpaceOnUse">
		<stop  offset="0" style="stop-color:#00E1E1"/>
		<stop  offset="0.26" style="stop-color:#00E4E4"/>
		<stop  offset="0.4" style="stop-color:#00EAEA"/>
		<stop  offset="0.44" style="stop-color:#00EAEA;stop-opacity:0.98"/>
		<stop  offset="0.48" style="stop-color:#00ECEC;stop-opacity:0.92"/>
		<stop  offset="0.53" style="stop-color:#00EEEE;stop-opacity:0.81"/>
		<stop  offset="0.58" style="stop-color:#00F1F1;stop-opacity:0.66"/>
		<stop  offset="0.63" style="stop-color:#00F5F5;stop-opacity:0.48"/>
		<stop  offset="0.68" style="stop-color:#00FAFA;stop-opacity:0.25"/>
		<stop  offset="0.73" style="stop-color:#00FFFF;stop-opacity:0"/>
	</radialGradient>
	<path style="fill:url(#SVGID_00000049184360777535965150000014016930749170540967_);" d="M89.8,353.3c-31.4,0-56.8,25.5-56.8,56.9
		c0,31.4,25.5,56.8,56.9,56.8c31.4,0,56.8-25.5,56.8-56.8C146.7,378.8,121.3,353.3,89.8,353.3C89.9,353.3,89.8,353.3,89.8,353.3z
		 M129.8,411.6h-1.2c-18.2,0-37.5,19.3-37.5,37.5v1.2h-2.8V449c0-18.2-19.3-37.5-37.5-37.5h-1.1v-2.7h1c18.2,0,37.5-19.3,37.5-37.5
		v-1.1H91v1.1c0,18.2,19.3,37.5,37.5,37.5h1.2L129.8,411.6z"/>
	
		<radialGradient id="SVGID_00000062156416912020496600000005758921569125320346_" cx="-7609.9937" cy="8415.1562" r="56.8338" gradientTransform="matrix(1 0 0 -1 8020.1299 8504.9902)" gradientUnits="userSpaceOnUse">
		<stop  offset="0" style="stop-color:#00E1E1"/>
		<stop  offset="0.26" style="stop-color:#00E4E4"/>
		<stop  offset="0.4" style="stop-color:#00EAEA"/>
		<stop  offset="0.44" style="stop-color:#00EAEA;stop-opacity:0.98"/>
		<stop  offset="0.48" style="stop-color:#00ECEC;stop-opacity:0.92"/>
		<stop  offset="0.53" style="stop-color:#00EEEE;stop-opacity:0.81"/>
		<stop  offset="0.58" style="stop-color:#00F1F1;stop-opacity:0.66"/>
		<stop  offset="0.63" style="stop-color:#00F5F5;stop-opacity:0.48"/>
		<stop  offset="0.68" style="stop-color:#00FAFA;stop-opacity:0.25"/>
		<stop  offset="0.73" style="stop-color:#00FFFF;stop-opacity:0"/>
	</radialGradient>
	<path style="fill:url(#SVGID_00000062156416912020496600000005758921569125320346_);" d="M410.1,33c-31.4,0-56.8,25.4-56.8,56.8
		s25.4,56.8,56.8,56.8c31.4,0,56.8-25.4,56.8-56.8l0,0C467,58.5,441.6,33,410.1,33C410.2,33,410.1,33,410.1,33z M450.1,91.2H449
		c-18.2,0-37.5,19.3-37.5,37.5v1.1h-2.9v-1.1c0-18.2-19.3-37.5-37.5-37.5h-1.2v-2.8h1.2c18.2,0,37.5-19.3,37.5-37.4v-1.2h2.8V51
		c0,18.2,19.3,37.5,37.5,37.5h1.1L450.1,91.2z"/>
	
		<radialGradient id="SVGID_00000180325654346345526960000007688567164010817721_" cx="-7609.9937" cy="8194.8135" r="56.8338" gradientTransform="matrix(1 0 0 -1 8020.1299 8604.9805)" gradientUnits="userSpaceOnUse">
		<stop  offset="0" style="stop-color:#00E1E1"/>
		<stop  offset="0.26" style="stop-color:#00E4E4"/>
		<stop  offset="0.4" style="stop-color:#00EAEA"/>
		<stop  offset="0.44" style="stop-color:#00EAEA;stop-opacity:0.98"/>
		<stop  offset="0.48" style="stop-color:#00ECEC;stop-opacity:0.92"/>
		<stop  offset="0.53" style="stop-color:#00EEEE;stop-opacity:0.81"/>
		<stop  offset="0.58" style="stop-color:#00F1F1;stop-opacity:0.66"/>
		<stop  offset="0.63" style="stop-color:#00F5F5;stop-opacity:0.48"/>
		<stop  offset="0.68" style="stop-color:#00FAFA;stop-opacity:0.25"/>
		<stop  offset="0.73" style="stop-color:#00FFFF;stop-opacity:0"/>
	</radialGradient>
	<path style="fill:url(#SVGID_00000180325654346345526960000007688567164010817721_);" d="M410.1,353.3c-31.4,0-56.8,25.4-56.8,56.8
		s25.4,56.8,56.8,56.8c31.4,0,56.8-25.4,56.8-56.8C467,378.8,441.6,353.3,410.1,353.3C410.2,353.3,410.1,353.3,410.1,353.3z
		 M450.1,411.6H449c-18.2,0-37.5,19.3-37.5,37.5v1.2h-2.9V449c0-18.2-19.3-37.5-37.5-37.5h-1.2v-2.7h1.2c18.2,0,37.5-19.3,37.5-37.5
		v-1.1h2.8v1.1c0,18.2,19.3,37.5,37.5,37.5h1.1L450.1,411.6z"/>
</g>
</svg>
