<?xml version="1.0" encoding="utf-8"?>
<!-- Generator: Adobe Illustrator 26.0.1, SVG Export Plug-In . SVG Version: 6.00 Build 0)  -->
<svg version="1.1" id="Layer_1" xmlns="http://www.w3.org/2000/svg" xmlns:xlink="http://www.w3.org/1999/xlink" x="0px" y="0px"
	 viewBox="0 0 500 500" style="enable-background:new 0 0 500 500;" xml:space="preserve">
<style type="text/css">
	.st0{fill:#FBB03B;}
	.st1{fill:#018BFF;}
</style>
<path class="st0" d="M97.9,193c-26,0-43.5,15-43.5,44.4v18c2.7-1.2,5.6-1.8,8.5-2c3-0.1,5.9,0.6,8.5,2v-18c0-19,10.5-29,26.3-29
	s26.3,10,26.3,29v45.9h17v-45.9c0-29.5-17.6-44.4-43.4-44.4"/>
<path class="st0" d="M150.4,239.4c0-27,19.5-46.4,47.4-46.4s46.9,19.6,46.9,46.4v6h-76.4c2,14.6,14.8,25.2,29.5,24.5
	c11.5,0,19.5-3.5,24.5-11h18.6c-7,16.5-23,27-43.4,27c-27.5,0-46.9-19.5-46.9-46.5 M227.4,230.6c-3.2-13.5-15.6-22.7-29.5-22
	c-13.7-0.8-26,8.5-28.9,22H227.4z"/>
<path class="st0" d="M254.1,239.4c0-26.8,19.6-46.4,47.6-46.4c25.2-1,46.4,18.6,47.4,43.8c0,0.9,0,1.7,0,2.6
	c0,27-19.5,46.5-47.5,46.5C273.7,285.8,254.1,266.4,254.1,239.4 M331.5,239.4c0.9-15.9-11.2-29.5-27.1-30.4c-1.1-0.1-2.2-0.1-3.3,0
	c-16.2-0.6-29.8,12-30.5,28.1c0,0.8,0,1.5,0,2.3c-0.9,15.9,11.2,29.6,27.1,30.5c1.1,0.1,2.2,0.1,3.3,0
	C319.5,270.4,331.5,257.4,331.5,239.4"/>
<path class="st0" d="M446,301.3h2c11,0,15-5,15-17.6v-84.8h17v83.9c0,22-8.5,33-30.5,33H446V301.3z"/>
<path class="st0" d="M437.6,291.9h-17v-21h-42.9c-8.1,0.4-15.6-3.9-19.5-11c-3.2-6.6-2.2-14.4,2.5-20l38.4-50.5
	c5.4-7.6,15.2-10.7,24.1-7.6c8.7,2.8,14.5,10.9,14.5,20v54.1h10v15h-10V291.9z M374.6,249.4c-0.6,0.7-1,1.6-1,2.5
	c0,2.4,2,4.4,4.4,4.4h42.5v-54.4c0-3-2-4-3-4H416c-1.4,0.1-2.7,0.8-3.5,2L374.6,249.4z"/>
<path class="st1" d="M471.5,159.8c-8,0-14.5,6.5-14.5,14.5s6.5,14.5,14.5,14.5c8,0,14.5-6.5,14.5-14.5S479.5,159.8,471.5,159.8
	L471.5,159.8"/>
<path class="st1" d="M62,261.9c-3.1-0.2-6.2,0.9-8.5,3l-16-10.5c0.4-1.3,0.6-2.6,0.5-4c0-8-6.4-14.5-14.4-14.5
	c-8,0-14.5,6.4-14.5,14.4c0,8,6.4,14.5,14.4,14.5c0,0,0,0,0,0c3.1,0.2,6.2-0.9,8.5-3l16,11c-0.4,1.3-0.6,2.6-0.5,4
	c-0.1,1.4,0.1,2.7,0.5,4l-16,11c-2.4-2-5.4-3-8.5-3c-8,0-14.5,6.5-14.5,14.5s6.5,14.5,14.5,14.5S38,311.3,38,303.3l0,0
	c0.1-1.4-0.1-2.7-0.5-4l16-11c2.4,1.9,5.4,3,8.5,3c8,0,14.4-6.5,14.4-14.4c0,0,0,0,0,0C76.5,268.7,70,262.1,62,261.9"/>
</svg>
