<?xml version="1.0" encoding="utf-8"?>
<!-- Generator: Adobe Illustrator 26.0.1, SVG Export Plug-In . SVG Version: 6.00 Build 0)  -->
<svg version="1.1" id="Layer_1" xmlns="http://www.w3.org/2000/svg" xmlns:xlink="http://www.w3.org/1999/xlink" x="0px" y="0px"
	 viewBox="0 0 500 500" style="enable-background:new 0 0 500 500;" xml:space="preserve">
<style type="text/css">
	.st0{fill:#FF0000;}
	.st1{fill:#EB1019;}
	.st2{fill:#FFFFFF;}
	.st3{fill:#BD101D;stroke:#BD101D;stroke-width:9.7647;stroke-miterlimit:39.0588;}
</style>
<g>
	<path class="st0" d="M436.2,209.3v-77.6H64.4v77.6H35.3v159h429.4v-159L436.2,209.3L436.2,209.3z"/>
	<path class="st1" d="M27.5,371.7V201.5h29.1V124h387.3v77.6h28.5v170.1H27.5z M39.7,365.5l419.1,0.4L457,217.1h-28.5v-77.6H72.1
		v77.6h-29l-2.8,143.6L39.7,365.5L39.7,365.5z"/>
	<path class="st2" d="M83.8,123.3v35L97,176.2l39-13.2l-0.2-52.8L83.8,123.3L83.8,123.3z"/>
	<path class="st3" d="M91.8,301.7l87.9,19.9l228.6-21.3l0.1,69.3H91.7L91.8,301.7L91.8,301.7z M353.4,252.5l-23.9-9.9l-49.7-33.9
		l-59.4,18.1l-128.7-9.7v45.7l81.6,23.4l233.2-20.7v-47.6L353.4,252.5z"/>
	<path class="st2" d="M56.6,186.6l-14.7,15.6v41.7l20.8,8.8v-24.1l8.8,6.9V219h20.3l37.5,56.5l13.8,3.8l18.8,77.9l9.7,4l6.9,28.5
		H233l-26.1-108.1l73.9-48l40.2,33.9l9.8-3.8l3.7,10.1l72.3-6.5l-6.3-16l-40.7-9.9l-73.7-60L205.7,212L181,179.5l37.2-37.8h35.4
		l14,11.8v-11.8h27.8l-6.7-15.6l-81.5-12.9l-75.3,48.2L56.6,186.6z"/>
</g>
</svg>
