<?xml version="1.0" encoding="utf-8"?>
<!-- Generator: Adobe Illustrator 26.0.1, SVG Export Plug-In . SVG Version: 6.00 Build 0)  -->
<svg version="1.1" id="Layer_1" xmlns="http://www.w3.org/2000/svg" xmlns:xlink="http://www.w3.org/1999/xlink" x="0px" y="0px"
	 viewBox="0 0 500 500" style="enable-background:new 0 0 500 500;" xml:space="preserve">
<style type="text/css">
	.st0{fill:#F4D678;}
	.st1{fill:none;stroke:#47CEFC;stroke-width:12;stroke-linecap:round;stroke-linejoin:round;}
	.st2{fill:none;stroke:#ACE7FC;stroke-width:29;stroke-linecap:round;stroke-linejoin:round;}
</style>
<g id="g5">
	<path id="path14" class="st0" d="M282.3,29.3l-0.4-0.9c-0.2-0.2-0.4-0.4-0.9-0.4l-0.9,0.2c-0.4,0.4-0.6,0.6-0.6,1.1l-18.2,329.8
		l2.8-0.4l17.6-320.8l21,34.5h-0.2c15.9,46.7,22.5,96.4,19.9,149.2l1.3,1.9l20.8,36.9l1.3,1.3c31.9,28.1,67.7,46.9,107.4,56.6
		l9.6,15.6l1.3,0.4l0.2-0.4L281.9,35.5L282.3,29.3"/>
	<path id="path18" class="st0" d="M275.9,145.7c22.5,46.1,30.6,115.7,24.6,209l87.7-10.7L275.9,145.7z"/>
	<path id="path20" class="st0" d="M475.6,348.2c9-1.1,14.8-3,17.4-5.8L34.4,398.3h-0.2c0.2,19.1,8.8,34.1,25.5,44.8
		c4.5,3.2,9.2,5.6,13.5,7.1c4.1-4.7,8.6-8.1,13.9-11.4h0.2c48-29.1,119.4-33.6,213.7-13.7l1.1,0.2c10.3,2.1,20.6,4.7,30.2,7.7
		c2.8,0.4,5.1-0.4,7.1-2.1c3.4-2.6,7.7-4.5,13.5-5.8v-0.2c15.2-27,35.8-46.9,61.5-60C432.1,356.1,452.7,350.3,475.6,348.2"/>
	<path id="path22" class="st0" d="M255.3,356.5l21-321.9C245.9,152.1,197,261.8,130,363.6L255.3,356.5"/>
	<path id="path24" class="st0" d="M137.2,97.2l-0.9-0.4l-0.9,0.2l-0.4,1.1l-17.4,278.6l2.6-0.2l17.4-278.4L137.2,97.2"/>
	<path id="path26" class="st0" d="M112.8,370.7L112.8,370.7l18.4-271.7L34.2,379L112.8,370.7"/>
</g>
<g id="g13">
	<path id="path34" class="st1" d="M116.7,461.3c-24.2,11.6-41.8,13.5-52.9,6.4c-11.1-7.5-28.3-5.8-51.4,5.1"/>
	<path id="path36" class="st1" d="M173.5,463c-4.5-1.5-9.4-2.6-14.6-3c-10.5-0.9-23.1,3.2-37.9,12c-14.8,9-32.6,12.4-53.8,10.5"/>
	<path id="path38" class="st1" d="M305.7,441.1c-102-21-175.5-16.1-220.5,15"/>
	<path id="path40" class="st1" d="M370,451.2c-4.5-1.7-9.4-2.8-14.6-3c-10.5-0.9-23.1,3.2-37.9,12c-14.8,8.8-32.6,12.2-53.8,10.5"/>
	<path id="path42" class="st2" d="M233,99.8c-10.5-6.4-21.4-4.7-32.8,5.4c-9.9-10.1-20.1-11.8-30.9-5.4"/>
	<path id="path44" class="st2" d="M209.3,63.8c-10.7-6.4-21.2-3.9-31.9,7.7c-10.5-11.6-21.2-14.1-31.9-7.7"/>
</g>
</svg>
