<?xml version="1.0" encoding="utf-8"?>
<!-- Generator: Adobe Illustrator 26.0.1, SVG Export Plug-In . SVG Version: 6.00 Build 0)  -->
<svg version="1.1" id="Layer_1" xmlns="http://www.w3.org/2000/svg" xmlns:xlink="http://www.w3.org/1999/xlink" x="0px" y="0px"
	 viewBox="0 0 500 500" style="enable-background:new 0 0 500 500;" xml:space="preserve">
<style type="text/css">
	.st0{fill:#BFBFBF;}
	.st1{fill:#336791;}
	.st2{fill:#FFFFFF;}
	.st3{fill:none;stroke:#FFFFFF;stroke-width:3.4976;stroke-linecap:round;stroke-linejoin:round;}
</style>
<g>
	<path d="M354.6,348.7c2.8-22.9,1.9-26.3,19-22.6l4.3,0.4c13.1,0.6,30.3-2.1,40.4-6.8c21.7-10.1,34.6-26.9,13.2-22.5
		c-48.9,10.1-52.2-6.5-52.2-6.5c51.6-76.6,73.2-173.8,54.6-197.6c-50.8-64.9-138.7-34.2-140.2-33.4l-0.5,0.1
		c-9.7-2-20.5-3.2-32.6-3.4c-22.1-0.4-38.9,5.8-51.6,15.5c0,0-156.8-64.6-149.5,81.3c1.6,31,44.5,234.8,95.7,173.3
		c18.7-22.5,36.8-41.5,36.8-41.5c9,6,19.7,9,31,7.9l0.9-0.7c-0.3,2.8-0.2,5.5,0.4,8.8c-13.2,14.7-9.3,17.3-35.7,22.8
		c-26.7,5.5-11,15.3-0.8,17.8c12.4,3.1,41.1,7.5,60.5-19.6l-0.8,3.1c5.2,4.1,4.8,29.8,5.6,48c0.7,18.3,2,35.4,5.7,45.4
		c3.7,10.1,8.1,36,42.8,28.6C330.5,440.7,352.6,431.8,354.6,348.7"/>
	<path class="st0" d="M290.2,465c-15.3,0-25.3-5.9-31.4-11.7c-9.2-8.6-12.8-19.8-14.9-26.4l-0.9-2.8c-4.4-11.8-5.8-28.8-6.7-50.6
		c-0.1-3.3-0.2-6.7-0.3-10.2c-0.1-2.6-0.2-5.9-0.3-9.4c-5.4,2.6-11.3,4.5-17.4,5.5c-10.8,1.8-22.4,1.2-34.5-1.8
		c-8.5-2.1-17.4-6.6-22.5-13.4c-14.8,12.9-28.8,11.2-36.5,8.6c-13.5-4.5-25.6-17.2-37-38.7c-8.1-15.4-15.9-35.4-23.3-59.5
		c-12.8-42-21-86.2-21.7-100.7c-2.3-45.4,10-77.9,36.3-96.6c41.6-29.4,104.7-12.1,127.7-4.3c15.4-9.3,33.6-13.8,54.2-13.5
		c11,0.2,21.5,1.2,31.3,2.9c10.2-3.2,30.3-7.8,53.3-7.5c42.4,0.5,77.5,17,101.6,47.8c17.2,21.9,8.7,68,2.1,93.5
		c-9.3,35.9-25.5,74.1-45.5,107.3c5.4,0,13.3-0.6,24.4-2.9c22-4.5,28.5,7.3,30.2,12.5c7,21.2-23.4,37.2-32.9,41.6
		c-12.2,5.7-32,9.1-48.2,8.3l-0.7,0l-4.3-0.4l-0.4,3.6l-0.4,3.5c-1.1,42.1-7.1,68.8-19.5,86.4c-13,18.5-31,23.7-46.9,27.1
		C299.6,464.5,294.7,465,290.2,465L290.2,465z M258,311.7c9.9,7.9,10.8,22.8,11.5,50.7c0.1,3.5,0.2,6.8,0.3,9.8
		c0.4,9.3,1.3,31.1,4.7,40.3c0.5,1.3,0.9,2.6,1.4,4c3.8,11.6,5.7,17.5,22.1,14c13.8-3,20.9-5.6,26.4-13.5
		c8.1-11.5,12.6-34.6,13.4-68.7l16.8,0.4l-16.7-2l0.5-4.2c1.6-13.7,2.7-23.6,11.9-30.2c7.4-5.3,15.7-4.7,22.4-3.5
		c-7.3-5.5-9.4-12-9.9-14.7l-1.4-6.9l3.9-5.8c22.7-33.6,41.4-74.9,51.3-113.4c10.2-39.5,7.1-60.5,4-64.4
		c-41.2-52.6-112.6-30.9-120-28.4l-1.3,0.7l-6.3,1.2l-3.2-0.7c-8.9-1.9-18.8-2.9-29.5-3.1c-16.7-0.3-30.2,3.7-41.2,12l-7.7,5.8
		l-8.9-3.7c-19-7.8-74.8-23.4-104.2-2.5C82,96.5,74.6,119.2,76.3,152.3c0.5,10.9,8,52.4,20.3,92.6c17,55.5,32.4,74,38.8,76.1
		c1.1,0.4,4-1.9,6.9-5.4c18.9-22.7,36.8-41.6,37.5-42.4l9.7-10.2l11.8,7.8c4.7,3.2,10,4.9,15.3,5.3l28-23.9l-4.1,41.4
		c-0.1,0.9-0.1,2.2,0.2,4.5l1.2,7.9l-5.3,5.9l-0.6,0.7l15.4,7.1C251.5,319.8,258,311.7,258,311.7z"/>
	<path class="st1" d="M431.6,297.2c-48.9,10.1-52.2-6.5-52.2-6.5c51.6-76.6,73.2-173.8,54.6-197.6c-50.8-64.9-138.7-34.2-140.2-33.4
		l-0.5,0.1c-9.7-2-20.5-3.2-32.6-3.4c-22.1-0.4-38.9,5.8-51.6,15.4c0,0-156.8-64.6-149.5,81.3c1.6,31,44.5,234.8,95.7,173.3
		c18.7-22.5,36.8-41.5,36.8-41.5c9,6,19.7,9,31,7.9l0.9-0.7c-0.3,2.8-0.1,5.5,0.3,8.8c-13.2,14.7-9.3,17.3-35.7,22.8
		c-26.7,5.5-11,15.3-0.8,17.8c12.4,3.1,41.1,7.5,60.5-19.6l-0.8,3.1c5.2,4.1,8.8,26.9,8.2,47.6c-0.6,20.7-1,34.8,3.1,45.9
		c4.1,11.1,8.1,36,42.8,28.6c29-6.2,44-22.3,46.1-49.1c1.5-19.1,4.8-16.3,5-33.3l2.7-8.1c3.1-25.9,0.5-34.2,18.3-30.3l4.3,0.4
		c13.1,0.6,30.3-2.1,40.4-6.8C440.1,309.6,453,292.8,431.6,297.2z"/>
	<path class="st2" d="M292,454.6c-28.9,0-38-22.9-41.8-32.2c-5.5-13.7-6.7-66.9-5.4-110.6c0.1-3.1,2.6-5.5,5.8-5.4
		c3.1,0.1,5.5,2.7,5.4,5.8c-1.4,50.3,0.6,95.9,4.6,106.1c6.3,15.8,15.9,29.7,43.1,23.9c25.8-5.5,35.4-15.3,39.7-40.2
		c3.3-19.1,9.8-73.5,10.6-84.3c0.2-3.1,2.9-5.4,6-5.2c3.1,0.2,5.4,2.9,5.2,6c-0.8,11.2-7.3,65.5-10.8,85.3
		c-5.1,29.4-18.2,42.8-48.4,49.3C300.9,454.2,296.2,454.6,292,454.6z M135.3,342.9c-2.8,0-5.3-0.5-7.4-1.2
		c-18.8-6.3-36.6-36.8-53.1-90.9c-12.6-41.1-20.5-84.1-21.2-98c-2.1-41.4,8.6-70.6,31.7-87c45.7-32.3,122.5-1.5,125.7-0.2
		c2.9,1.2,4.2,4.4,3.1,7.3c-1.2,2.9-4.4,4.2-7.3,3.1v0c-0.7-0.3-74.4-29.8-115-1c-19.7,14-28.8,40-26.9,77.3
		c0.6,11.7,8,53.6,20.7,95.3c14.7,48.2,31.5,78.7,46,83.5c2.3,0.8,9.2,3.1,19.1-8.8c18.6-22.4,35.7-40.3,35.9-40.5
		c2.1-2.2,5.7-2.3,7.9-0.2c2.2,2.1,2.3,5.7,0.2,7.9c-0.2,0.2-17,17.8-35.4,39.9C150.4,339.8,142.1,342.9,135.3,342.9z M379,295.7
		c-1.1,0-2.2-0.3-3.1-1c-2.6-1.7-3.2-5.2-1.5-7.8c52.2-77.4,70.5-170.9,54.8-191c-19.7-25.2-47.6-38.4-82.8-39.2
		c-26.1-0.6-46.8,6.1-50.2,7.3l-0.8,0.3c-3.4,1.1-6-0.8-7-3c-1.2-2.6-0.2-5.6,2.2-7.1l1.5-0.6l-0.1,0l0.1,0
		c5.8-2.1,26.8-8.4,52.9-8.1c39,0.4,71.2,15.4,93.1,43.5c10.4,13.3,10.4,43.8,0.1,83.8c-10.5,40.8-30.4,84.6-54.4,120.3
		C382.6,294.8,380.8,295.7,379,295.7z M381.6,331.5c-8.9,0-16.9-1.3-21.7-4.1c-4.9-2.9-5.9-6.9-6-9.1c-1.3-23.5,11.7-27.6,18.3-29.5
		c-0.9-1.4-2.2-3-3.6-4.7c-3.9-4.8-9.2-11.4-13.2-21.3c-0.6-1.5-2.6-5.1-5-9.3c-12.6-22.5-38.7-69.4-21.9-93.4
		c7.8-11.1,23.2-15.5,46-13c-6.7-20.4-38.6-84.4-114.4-85.6c-22.8-0.4-41.5,6.6-55.5,20.8c-31.4,31.8-30.3,89.2-30.3,89.8
		c0.1,3.1-2.4,5.7-5.5,5.7c-3.1,0.1-5.7-2.4-5.7-5.5c-0.1-2.5-1.2-62.9,33.5-98c16.3-16.4,37.7-24.6,63.7-24.1
		c48.5,0.8,79.7,25.4,97.3,46c19.2,22.4,28.7,47.1,29.4,55.3c0.6,6.1-3.8,7.4-4.7,7.5l-2,0c-22.4-3.6-36.7-1.1-42.7,7.4
		c-12.8,18.3,12,62.6,22.5,81.5c2.7,4.8,4.6,8.3,5.5,10.5c3.5,8.4,8,14.1,11.6,18.6c3.2,4,6,7.5,7,11.5c0.5,0.8,7,10.5,45.7,2.5
		c9.7-2,15.5-0.3,17.3,5.1c3.5,10.6-16.1,22.9-27,28C410.6,328.7,395.1,331.5,381.6,331.5z M365.2,317.4c1.2,1.2,7.4,3.4,20.1,2.8
		c11.3-0.5,23.2-3,30.4-6.3c9.2-4.3,15.3-9,18.4-12.3l-1.8,0.3c-24.8,5.1-42.3,4.4-52-2c-0.7-0.5-1.3-0.9-1.9-1.4
		c-1.1,0.4-2,0.7-2.7,0.9C370.1,301.1,364.4,302.7,365.2,317.4z M205.3,348.7c-6.1,0-12.6-0.8-19.2-2.5c-6.8-1.7-18.4-6.9-18.2-15.3
		c0.2-9.5,14-12.4,19.2-13.4c18.8-3.9,20-5.4,25.9-12.9c1.7-2.2,3.8-4.9,6.7-8.1c4.3-4.8,9-7.3,14-7.3c3.5,0,6.3,1.2,8.2,2
		c6,2.5,11,8.5,13.1,15.7c1.9,6.5,1,12.7-2.5,17.6C241.1,340.3,224.8,348.7,205.3,348.7z M179.9,331.4c1.7,1.3,5.1,3,8.8,4
		c5.7,1.4,11.3,2.2,16.5,2.2c16,0,28.8-6.6,38.1-19.6c1.9-2.7,1.4-6.2,0.8-8c-1.1-3.8-3.8-7.3-6.6-8.4c-1.5-0.6-2.8-1.1-3.9-1.1
		c-0.6,0-2.5,0-5.7,3.5c-2.7,3-4.6,5.4-6.3,7.6c-7.3,9.3-10.7,12.4-32.4,16.9C184,329.5,181.3,330.6,179.9,331.4L179.9,331.4z
		 M223,305.5c-2.7,0-5.1-2-5.5-4.7c-0.1-0.9-0.2-1.9-0.3-2.8c-14.3-0.3-28-6.4-38.5-17.3c-13.2-13.8-19.2-32.9-16.5-52.4
		c3-21.2,1.9-39.9,1.3-49.9c-0.2-2.8-0.3-4.8-0.3-6.2c0-1.8,0-6.5,15.8-14.4c5.6-2.8,16.8-7.8,29-9c20.3-2.1,33.6,6.9,37.6,25.4
		c10.8,49.9,0.9,72-6.4,88.2c-1.4,3-2.6,5.8-3.7,8.6l-0.9,2.4c-3.8,10.3-7.2,19.2-6.1,25.8c0.5,3.1-1.6,5.9-4.7,6.4
		C223.8,305.5,223,305.5,223,305.5z M174.4,173.7l0.2,4c0.6,10.4,1.8,29.9-1.4,52.2c-2.2,16.1,2.7,31.8,13.5,43.1
		c8.5,8.9,19.8,13.8,31.4,13.8h0.2c1.3-5.5,3.4-11.2,5.8-17.4l0.9-2.4c1.2-3.1,2.5-6.1,3.9-9.3c7-15.5,15.7-34.9,5.7-81.2
		c-2-9.2-6.8-14.5-14.7-16.2C203.7,156.6,179.5,168.9,174.4,173.7z M208.2,171.3c-0.3,2,3.6,7.3,8.7,8c5.1,0.7,9.4-3.4,9.7-5.4
		c0.3-2-3.6-4.2-8.7-4.9C212.8,168.3,208.5,169.3,208.2,171.3z M218.1,181.2l-1.4-0.1c-3.2-0.4-6.4-2.4-8.5-5.3c-0.8-1-2-3-1.8-4.8
		c0.4-2.6,3.5-4.1,8.4-4.1c1.1,0,2.2,0.1,3.4,0.2c2.7,0.4,5.2,1.2,7,2.2c3.2,1.8,3.4,3.8,3.3,4.8C228.1,177,223.6,181.2,218.1,181.2
		z M210.1,171.7c0.2,1.2,3.2,5.3,7.1,5.8l0.9,0.1c3.6,0,6.4-2.9,6.7-3.8c-0.3-0.6-2.7-2.2-7.1-2.8c-1-0.1-2-0.2-2.9-0.2
		C211.9,170.7,210.4,171.3,210.1,171.7z M363.1,167.3c0.3,2-3.6,7.3-8.7,8c-5.1,0.7-9.4-3.4-9.7-5.4c-0.3-2,3.6-4.2,8.7-4.9
		C358.5,164.3,362.8,165.3,363.1,167.3z M353.2,176.3c-4.9,0-9.1-3.8-9.5-6.3c-0.4-3,4.5-5.2,9.5-5.9c1.1-0.2,2.2-0.2,3.3-0.2
		c4.3,0,7.2,1.3,7.5,3.3c0.2,1.3-0.8,3.4-2.6,5.2c-1.2,1.2-3.6,3.3-6.9,3.8C354.5,176.2,353.2,176.3,353.2,176.3z M356.5,165.7
		c-1,0-2,0.1-3,0.2c-5.1,0.7-8.1,2.7-7.9,3.8c0.2,1.2,3.4,4.7,7.6,4.7l1-0.1c2.8-0.4,4.8-2.2,5.8-3.2c1.6-1.6,2.2-3.2,2.1-3.7
		C362.1,166.7,360.2,165.7,356.5,165.7z M370.4,281c-1.1,0-2.2-0.3-3.1-0.9c-2.6-1.7-3.3-5.2-1.5-7.8c11.9-17.8,9.7-36,7.6-53.5
		c-0.9-7.5-1.8-15.2-1.6-22.7c0.2-7.6,1.2-13.9,2.2-20c1.1-7.2,2.2-14,1.7-22.1c-0.2-3.1,2.2-5.7,5.3-5.9c3.1-0.2,5.7,2.2,5.9,5.3
		c0.5,9.3-0.7,17-1.8,24.5c-0.9,5.8-1.8,11.7-2,18.7c-0.2,6.6,0.6,13.6,1.5,21c2.2,18.7,4.8,39.9-9.4,61.1
		C374,280.1,372.3,281,370.4,281z"/>
	<path class="st3" d="M40.6,92.2"/>
</g>
</svg>
