<?xml version="1.0" encoding="utf-8"?>
<!-- Generator: Adobe Illustrator 26.0.1, SVG Export Plug-In . SVG Version: 6.00 Build 0)  -->
<svg version="1.1" id="Layer_1" xmlns="http://www.w3.org/2000/svg" xmlns:xlink="http://www.w3.org/1999/xlink" x="0px" y="0px"
	 viewBox="0 0 500 500" style="enable-background:new 0 0 500 500;" xml:space="preserve">
<style type="text/css">
	.st0{fill:#1297C6;}
	.st1{fill:#E48E00;}
</style>
<g>
	<path class="st0" d="M20.1,348.1h15.2V288l23.6,52.4c2.8,6.3,6.6,8.6,14.1,8.6s11.1-2.2,13.9-8.6l23.6-52.4v60.2h15.2v-60.1
		c0-5.9-2.3-8.7-7.2-10.2c-11.6-3.6-19.3-0.5-22.9,7.3L72.6,337l-22.4-51.8c-3.4-7.8-11.3-10.9-22.9-7.3c-4.8,1.5-7.2,4.3-7.2,10.2
		L20.1,348.1L20.1,348.1z M138.4,299.1h15.2v33.1c-0.1,1.8,0.6,6,8.9,6.2c4.3,0.1,32.9,0,33.1,0V299h15.3c0.1,0,0,53.8,0,54
		c0.1,13.3-16.5,16.2-24.1,16.4h-48.1v-10.2c0.1,0,48.1,0,48.2,0c9.8-1,8.6-5.9,8.6-7.5v-4h-32.4c-15.1-0.1-24.7-6.7-24.8-14.3
		C138.4,332.6,138.7,299.5,138.4,299.1z"/>
	<path class="st1" d="M222.7,348.1h43.8c5.1,0,10.1-1.1,14.1-2.9c6.6-3,9.8-7.1,9.8-12.5v-11.1c0-4.4-3.7-8.5-10.8-11.2
		c-3.8-1.5-8.5-2.2-13-2.2H248c-6.2,0-9.1-1.9-9.8-6c-0.1-0.5-0.1-0.9-0.1-1.4v-6.9c0-0.4,0-0.8,0.1-1.3c0.7-3.1,2.3-4,7.8-4.5
		l1.5-0.1h43.5v-10.2h-42.8c-6.2,0-9.4,0.4-12.3,1.3c-9.1,2.8-13,7.3-13,15.1v8.9c0,6.8,7.8,12.7,20.8,14.1c1.5,0.1,2.9,0.2,4.4,0.2
		h15.8c0.6,0,1.2,0,1.6,0.1c4.8,0.4,6.9,1.3,8.3,3c0.9,0.9,1.2,1.8,1.2,2.7v8.9c0,1.1-0.7,2.4-2.2,3.6c-1.3,1.2-3.5,2-6.4,2.2
		l-1.6,0.1h-42C222.7,338,222.7,348.1,222.7,348.1z M385.4,330.4c0,10.4,7.8,16.3,23.4,17.5c1.5,0.1,2.9,0.2,4.4,0.2h39.7V338h-40
		c-8.9,0-12.3-2.2-12.3-7.6v-52.5h-15.2L385.4,330.4L385.4,330.4z M300.1,331v-36.2c0-9.2,6.5-14.8,19.2-16.5
		c1.3-0.2,2.8-0.3,4.1-0.3h28.9c1.5,0,2.8,0.1,4.3,0.3c12.8,1.8,19.2,7.3,19.2,16.5V331c0,7.5-2.7,11.5-9.1,14.1l15,13.5h-17.7
		l-12.1-11l-12.2,0.8h-16.3c-2.8,0-5.7-0.4-9-1.3C304.8,344.5,300.1,339.4,300.1,331z M316.5,330.1c0,0.5,0.1,1,0.3,1.6
		c0.9,4.2,4.8,6.6,10.9,6.6h13.8l-12.7-11.5h17.7l11.1,10c2-1.1,3.4-2.8,3.9-4.9c0.1-0.5,0.1-1,0.1-1.5v-34.7c0-0.4,0-0.9-0.1-1.4
		c-0.9-3.9-4.8-6.2-10.7-6.2h-23c-6.7,0-11.2,2.9-11.2,7.5L316.5,330.1L316.5,330.1z"/>
	<path class="st0" d="M466.3,260.9c-9.4-0.3-16.5,0.6-22.6,3.2c-1.7,0.7-4.5,0.8-4.8,2.9c1,1,1.1,2.5,1.9,3.7
		c1.5,2.4,3.9,5.5,6.1,7.2c2.4,1.8,4.9,3.8,7.5,5.3c4.6,2.8,9.7,4.4,14.1,7.2c2.6,1.7,5.2,3.7,7.7,5.6c1.3,0.9,2.1,2.4,3.7,2.9v-0.3
		c-0.9-1.1-1.1-2.6-1.9-3.7l-3.5-3.5c-3.4-4.5-7.7-8.4-12.3-11.7c-3.6-2.6-11.8-6.1-13.3-10.4l-0.3-0.3c2.6-0.3,5.6-1.2,8-1.9
		c4-1.1,7.6-0.8,11.7-1.9l5.6-1.6v-1.1c-2.1-2.1-3.6-5-5.9-6.9c-6-5.1-12.5-10.1-19.2-14.4c-3.7-2.3-8.3-3.9-12.3-5.9
		c-1.3-0.7-3.6-1-4.5-2.1c-2.1-2.6-3.2-6-4.8-9.1c-3.3-6.4-6.6-13.5-9.6-20.2c-2-4.6-3.3-9.2-5.9-13.3
		c-12.1-19.9-25.1-31.9-45.3-43.7c-4.3-2.5-9.5-3.5-14.9-4.8l-8.8-0.5c-1.8-0.7-3.6-2.9-5.3-4c-6.7-4.2-23.8-13.4-28.8-1.3
		c-3.1,7.6,4.7,15,7.5,18.9c2,2.7,4.5,5.7,5.9,8.8c0.9,2,1.1,4,1.9,6.1c1.9,5.2,3.6,10.9,6.1,15.7c1.3,2.4,2.7,5,4.3,7.2
		c1,1.3,2.7,1.9,2.9,4c-1.6,2.3-1.7,5.9-2.7,8.8c-4.2,13.1-2.6,29.4,3.5,39.1c1.9,3,6.2,9.4,12.2,6.9c5.3-2.1,4.1-8.8,5.6-14.6
		c0.3-1.3,0.1-2.3,0.8-3.2v0.3l4.8,9.6c3.5,5.7,9.8,11.7,15.2,15.7c2.8,2.1,4.9,5.7,8.5,6.9v-0.3h-0.3c-0.7-1.1-1.8-1.5-2.7-2.4
		c-2.1-2-4.4-4.6-6.1-6.9c-4.9-6.6-9.1-13.8-13-21.3c-1.9-3.6-3.5-7.5-5.1-11.2c-0.6-1.4-0.6-3.5-1.9-4.3c-1.7,2.7-4.3,4.8-5.6,8
		c-2.1,5-2.4,11.2-3.2,17.6l-0.5,0.3c-3.7-0.9-5-4.7-6.4-8c-3.5-8.3-4.1-21.6-1.1-31.1c0.8-2.5,4.4-10.2,2.9-12.5
		c-0.7-2.3-3-3.6-4.3-5.3c-1.6-2.1-3.2-5-4.3-7.5c-2.9-6.5-4.2-13.7-7.2-20.2c-1.4-3.1-3.9-6.3-5.9-9.1c-2.2-3.1-4.7-5.3-6.4-9.1
		c-0.6-1.3-1.4-3.4-0.5-4.8c0.3-0.9,0.7-1.3,1.6-1.6c1.5-1.2,5.8,0.4,7.5,1.1c4.3,1.8,7.8,3.5,11.5,5.9c1.7,1.2,3.5,3.4,5.6,4h2.4
		c3.7,0.9,7.9,0.3,11.4,1.3c6.2,1.9,11.7,4.8,16.8,8c15.3,9.7,27.9,23.5,36.5,39.9c1.4,2.7,2,5.2,3.2,8c2.5,5.7,5.5,11.5,8,17
		c2.4,5.5,4.8,11.1,8.3,15.7c1.8,2.4,8.8,3.7,12,5.1c2.2,0.9,5.9,1.9,8,3.2c4,2.4,7.9,5.3,11.7,8C460.2,255.6,466,258.5,466.3,260.9
		z M347.3,159.5c-2,0-3.3,0.2-4.8,0.5v0.3h0.3c0.9,1.9,2.6,3.1,3.7,4.8l2.7,5.6l0.3-0.3c1.6-1.2,2.4-3,2.4-5.9
		c-0.7-0.7-0.8-1.6-1.3-2.4C349.7,161.1,348.2,160.4,347.3,159.5z"/>
</g>
</svg>
