<?xml version="1.0" encoding="utf-8"?>
<!-- Generator: Adobe Illustrator 27.2.0, SVG Export Plug-In . SVG Version: 6.00 Build 0)  -->
<svg version="1.1" id="Layer_1" xmlns="http://www.w3.org/2000/svg" xmlns:xlink="http://www.w3.org/1999/xlink" x="0px" y="0px"
	 viewBox="0 0 500 500" style="enable-background:new 0 0 500 500;" xml:space="preserve">
<style type="text/css">
	.st0{fill:none;stroke:#118FC1;stroke-width:13;stroke-miterlimit:10;}
	.st1{fill:#FFFFFF;stroke:#1C94C4;stroke-width:13;stroke-miterlimit:10;}
	.st2{fill:#FF5A5A;}
	.st3{fill:#27DEBF;}
	.st4{fill:#FFFFFF;}
	.st5{fill:none;}
	.st6{fill:none;stroke:#0DBA4B;stroke-miterlimit:10;}
	.st7{fill:#FC3F3F;}
	.st8{fill:none;stroke:#179ACE;stroke-width:13;stroke-miterlimit:10;}
	.st9{fill:#FFFFFF;stroke:#179ACE;stroke-width:13;stroke-miterlimit:10;}
</style>
<path id="XMLID_00000141444853889526454100000015514662442068802460_" class="st0" d="M223.59,89.09c-1.64,0.95-2.97,3.26-2.97,5.17
	v245.14c0,1.9,1.33,4.22,2.97,5.17l88.71,51.48c1.64,0.95,4.3,0.95,5.93,0l88.71-51.48c1.64-0.95,2.97-3.26,2.97-5.17V94.25
	c0-1.9-1.33-4.22-2.97-5.17"/>
<path id="XMLID_1295_" class="st1" d="M409.91,92.25v245.14c0,1.9-1.34,4.22-2.98,5.17l-89.18,51.49c-0.81,0.48-1.9,0.72-2.98,0.72
	V142.73c1.07,0,2.15-0.25,2.98-0.72l89.18-51.49l0.81-0.68l1.06-0.88C409.48,89.99,409.91,91.17,409.91,92.25z"/>
<path id="XMLID_1294_" class="st2" d="M233.81,116.38l66.79,38.56c1.65,0.95,2.98,3.26,2.98,5.17l0,25.42c0,1.9-1.34,2.67-2.98,1.72
	l-66.79-38.56c-1.65-0.95-2.98-3.26-2.98-5.17l0-25.42C230.83,116.2,232.16,115.43,233.81,116.38z"/>
<path id="XMLID_1293_" class="st3" d="M236.42,127.58c0,1.78,1.34,4,2.98,4.95l55.59,32.1c1.65,0.95,2.98,0.28,2.98-1.51
	c0-1.78-1.34-4-2.98-4.95l-55.59-32.1C237.76,125.12,236.42,125.8,236.42,127.58z"/>
<path id="XMLID_1292_" class="st4" d="M236.42,140.51c0,1.78,1.34,4,2.98,4.95l55.59,32.1c1.65,0.95,2.98,0.28,2.98-1.51
	c0-1.78-1.34-4-2.98-4.95L239.41,139C237.76,138.05,236.42,138.72,236.42,140.51z"/>
<path id="XMLID_1291_" class="st3" d="M239.41,139l30.6,17.66l0,6.46l-30.6-17.66c-1.65-0.95-2.98-3.17-2.98-4.95
	S237.76,138.05,239.41,139z"/>
<path id="XMLID_1289_" class="st2" d="M233.81,161.61l66.79,38.56c1.65,0.95,2.98,3.26,2.98,5.17l0,25.42c0,1.9-1.34,2.67-2.98,1.72
	l-66.79-38.56c-1.65-0.95-2.98-3.26-2.98-5.17l0-25.42C230.83,161.43,232.16,160.66,233.81,161.61z"/>
<path id="XMLID_1288_" class="st3" d="M236.42,172.82c0,1.78,1.34,4,2.98,4.95l55.59,32.1c1.65,0.95,2.98,0.28,2.98-1.51
	c0-1.78-1.34-4-2.98-4.95l-55.59-32.1C237.76,170.36,236.42,171.03,236.42,172.82z"/>
<path id="XMLID_1287_" class="st4" d="M236.42,185.74c0,1.78,1.34,4,2.98,4.95l55.59,32.1c1.65,0.95,2.98,0.28,2.98-1.51
	c0-1.78-1.34-4-2.98-4.95l-55.59-32.1C237.76,183.28,236.42,183.96,236.42,185.74z"/>
<path id="XMLID_1286_" class="st3" d="M239.41,184.23l47.39,27.36l0,6.46l-47.39-27.36c-1.65-0.95-2.98-3.17-2.98-4.95
	C236.42,183.96,237.76,183.28,239.41,184.23z"/>
<path id="XMLID_1284_" class="st2" d="M233.81,206.85l66.79,38.56c1.65,0.95,2.98,3.26,2.98,5.17l0,25.42c0,1.9-1.34,2.67-2.98,1.72
	l-66.79-38.56c-1.65-0.95-2.98-3.26-2.98-5.17l0-25.42C230.83,206.67,232.16,205.9,233.81,206.85z"/>
<path id="XMLID_1283_" class="st3" d="M236.42,218.05c0,1.78,1.34,4,2.98,4.95L295,255.1c1.65,0.95,2.98,0.28,2.98-1.51
	c0-1.78-1.34-4-2.98-4.95l-55.59-32.1C237.76,215.59,236.42,216.27,236.42,218.05z"/>
<path id="XMLID_1282_" class="st4" d="M236.42,230.98c0,1.78,1.34,4,2.98,4.95l55.59,32.1c1.65,0.95,2.98,0.28,2.98-1.51
	c0-1.78-1.34-4-2.98-4.95l-55.59-32.1C237.76,228.52,236.42,229.19,236.42,230.98z"/>
<path id="XMLID_1281_" class="st3" d="M239.41,229.47l19.4,11.2l0,6.46l-19.4-11.2c-1.65-0.95-2.98-3.17-2.98-4.95
	C236.42,229.19,237.76,228.52,239.41,229.47z"/>
<path id="XMLID_1279_" class="st2" d="M233.81,252.08l66.79,38.56c1.65,0.95,2.98,3.26,2.98,5.17l0,25.42c0,1.9-1.34,2.67-2.98,1.72
	l-66.79-38.56c-1.65-0.95-2.98-3.26-2.98-5.17l0-25.42C230.83,251.9,232.16,251.13,233.81,252.08z"/>
<path id="XMLID_1278_" class="st3" d="M236.42,263.29c0,1.78,1.34,4,2.98,4.95l55.59,32.1c1.65,0.95,2.98,0.28,2.98-1.51
	c0-1.78-1.34-4-2.98-4.95l-55.59-32.1C237.76,260.83,236.42,261.5,236.42,263.29z"/>
<path id="XMLID_1277_" class="st4" d="M236.42,276.21c0,1.78,1.34,4,2.98,4.95l55.59,32.1c1.65,0.95,2.98,0.28,2.98-1.51
	c0-1.78-1.34-4-2.98-4.95l-55.59-32.1C237.76,273.75,236.42,274.43,236.42,276.21z"/>
<path id="XMLID_1276_" class="st3" d="M239.41,274.7l30.6,17.66l0,6.46l-30.6-17.66c-1.65-0.95-2.98-3.17-2.98-4.95
	C236.42,274.43,237.76,273.75,239.41,274.7z"/>
<path id="XMLID_1274_" class="st2" d="M233.81,297.32l66.79,38.56c1.65,0.95,2.98,3.26,2.98,5.17l0,25.42c0,1.9-1.34,2.67-2.98,1.72
	l-66.79-38.56c-1.65-0.95-2.98-3.26-2.98-5.17l0-25.42C230.83,297.14,232.16,296.37,233.81,297.32z"/>
<path id="XMLID_1273_" class="st3" d="M236.42,308.52c0,1.78,1.34,4,2.98,4.95l55.59,32.1c1.65,0.95,2.98,0.28,2.98-1.51
	c0-1.78-1.34-4-2.98-4.95l-55.59-32.1C237.76,306.06,236.42,306.74,236.42,308.52z"/>
<path id="XMLID_1272_" class="st4" d="M236.42,321.45c0,1.78,1.34,4,2.98,4.95L295,358.5c1.65,0.95,2.98,0.28,2.98-1.51
	c0-1.78-1.34-4-2.98-4.95l-55.59-32.1C237.76,318.99,236.42,319.66,236.42,321.45z"/>
<path id="XMLID_1271_" class="st3" d="M239.41,319.94l41.79,24.13l0,6.46l-41.79-24.13c-1.65-0.95-2.98-3.17-2.98-4.95
	C236.42,319.66,237.76,318.99,239.41,319.94z"/>
<path id="XMLID_1269_" class="st5" d="M328.76,158.29c3.09-1.79,5.6-0.16,5.6,3.64l0,147.79c0,3.8-2.51,8.34-5.6,10.13
	c-3.09,1.79-5.6,0.16-5.6-3.64l0-147.79C323.17,164.62,325.67,160.08,328.76,158.29z"/>
<path id="XMLID_1268_" class="st6" d="M328.76,316.59c1.55-0.89,2.8-3.16,2.8-5.06l0-148.2c0-1.9-1.25-2.72-2.8-1.83
	c-1.55,0.89-2.8,3.16-2.8,5.06l0,148.2C325.97,316.66,327.22,317.48,328.76,316.59z"/>
<path id="XMLID_1267_" class="st3" d="M328.76,316.59c1.55-0.89,2.8-3.16,2.8-5.06l0-70.86l-5.6,3.23l0,70.86
	C325.97,316.66,327.22,317.48,328.76,316.59z"/>
<path id="XMLID_1266_" class="st5" d="M345.55,148.6c3.09-1.79,5.6-0.16,5.6,3.64l0,147.79c0,3.8-2.51,8.34-5.6,10.13
	s-5.6,0.16-5.6-3.64l0-147.79C339.96,154.93,342.46,150.39,345.55,148.6z"/>
<path id="XMLID_1265_" class="st3" d="M345.55,306.89c1.55-0.89,2.8-3.16,2.8-5.06l0-148.2c0-1.9-1.25-2.72-2.8-1.83
	c-1.55,0.89-2.8,3.16-2.8,5.06l0,148.2C342.75,306.97,344.01,307.79,345.55,306.89z"/>
<path id="XMLID_1264_" class="st5" d="M362.34,138.9c3.09-1.79,5.6-0.16,5.6,3.64l0,147.79c0,3.8-2.51,8.34-5.6,10.13
	c-3.09,1.79-5.6,0.16-5.6-3.64l0-147.79C356.74,145.23,359.25,140.7,362.34,138.9z"/>
<path id="XMLID_1263_" class="st6" d="M362.34,297.2c1.55-0.89,2.8-3.16,2.8-5.06l0-148.2c0-1.9-1.25-2.72-2.8-1.83
	c-1.55,0.89-2.8,3.16-2.8,5.06l0,148.2C359.54,297.27,360.8,298.09,362.34,297.2z"/>
<path id="XMLID_1262_" class="st3" d="M362.34,297.2c1.55-0.89,2.8-3.16,2.8-5.06l0-114.48l-5.6,3.23l0,114.48
	C359.54,297.27,360.8,298.09,362.34,297.2z"/>
<path id="XMLID_1261_" class="st5" d="M379.13,129.21c3.09-1.79,5.6-0.16,5.6,3.64l0,147.79c0,3.8-2.51,8.34-5.6,10.13
	s-5.6,0.16-5.6-3.64l0-147.79C373.53,135.54,376.04,131,379.13,129.21z"/>
<path id="XMLID_1260_" class="st6" d="M379.13,287.51c1.55-0.89,2.8-3.16,2.8-5.06l0-148.2c0-1.9-1.25-2.72-2.8-1.83
	c-1.55,0.89-2.8,3.16-2.8,5.06l0,148.2C376.33,287.58,377.59,288.4,379.13,287.51z"/>
<path id="XMLID_1259_" class="st3" d="M379.13,287.51c1.55-0.89,2.8-3.16,2.8-5.06l0-25.01l-5.6,3.23l0,25.01
	C376.33,287.58,377.59,288.4,379.13,287.51z"/>
<path id="XMLID_1258_" class="st5" d="M395.92,119.52c3.09-1.79,5.6-0.16,5.6,3.64l0,147.79c0,3.8-2.51,8.34-5.6,10.13
	c-3.09,1.79-5.6,0.16-5.6-3.64l0-147.79C390.32,125.85,392.83,121.31,395.92,119.52z"/>
<path id="XMLID_1257_" class="st6" d="M395.92,277.81c1.55-0.89,2.8-3.16,2.8-5.06l0-148.2c0-1.9-1.25-2.72-2.8-1.83
	c-1.55,0.89-2.8,3.16-2.8,5.06l0,148.2C393.12,277.89,394.38,278.71,395.92,277.81z"/>
<path id="XMLID_1256_" class="st3" d="M395.92,277.81c1.55-0.89,2.8-3.16,2.8-5.06l0-77.32l-5.6,3.23l0,77.32
	C393.12,277.89,394.38,278.71,395.92,277.81z"/>
<path id="XMLID_1254_" class="st7" d="M325.55,337.84l73.58-42.48c1.32-0.76,2.39-0.14,2.39,1.38v26.8c0,1.52-1.07,3.37-2.39,4.13
	l-73.58,42.48c-1.32,0.76-2.39,0.14-2.39-1.38v-26.8C323.17,340.45,324.24,338.6,325.55,337.84z"/>
<path id="XMLID_1253_" class="st4" d="M328.58,345.79c0,1.78,1.34,2.46,2.98,1.51l61.56-35.55c1.65-0.95,2.98-3.17,2.98-4.95
	c0-1.78-1.34-2.46-2.98-1.51l-61.56,35.55C329.91,341.78,328.58,344,328.58,345.79z"/>
<path id="XMLID_1252_" class="st3" d="M328.58,345.79c0,1.78,1.34,2.46,2.98,1.51l44.77-25.86l0-6.46l-44.77,25.86
	C329.91,341.78,328.58,344,328.58,345.79z"/>
<path id="XMLID_1250_" class="st4" d="M328.58,358.71c0,1.78,1.34,2.46,2.98,1.51l61.56-35.55c1.65-0.95,2.98-3.17,2.98-4.95
	c0-1.78-1.34-2.46-2.98-1.51l-61.56,35.55C329.91,354.71,328.58,356.93,328.58,358.71z"/>
<path id="XMLID_1249_" class="st3" d="M328.58,358.71c0,1.78,1.34,2.46,2.98,1.51l16.79-9.69l0-6.46l-16.79,9.69
	C329.91,354.71,328.58,356.93,328.58,358.71z"/>
<path id="XMLID_1246_" class="st8" d="M408.79,86.3L320.73,35.7c-1.63-0.93-4.26-0.93-5.89,0L226.78,86.3
	c-1.63,0.93-1.63,2.45,0,3.39l88.06,50.61c1.63,0.93,4.26,0.93,5.89,0l88.06-50.61C410.42,88.75,410.42,87.24,408.79,86.3z"/>
<path id="XMLID_00000110432772139964156710000015833075624836642703_" class="st0" d="M188.85,135.77l-83.93,48.46
	c-1.55,0.9-2.81,3.07-2.81,4.86V419.8c0,1.79,1.26,3.97,2.81,4.86l83.93,48.46c1.55,0.9,4.06,0.9,5.61,0l83.93-48.46
	c1.55-0.9,2.81-3.07,2.81-4.86V189.09c0-1.79-1.26-3.97-2.81-4.86l-83.93-48.46C192.91,134.87,190.4,134.87,188.85,135.77z"/>
<path id="XMLID_00000151508954009062018450000013907727679538408361_" class="st1" d="M281.19,187.08V417.8
	c0,1.79-1.26,3.97-2.8,4.86l-83.93,48.46c-0.76,0.45-1.79,0.67-2.8,0.67v-237.2c1.01,0,2.02-0.23,2.8-0.67l83.93-48.46l0.77-0.64
	l1-0.83C280.79,184.96,281.19,186.07,281.19,187.08z"/>
<path id="XMLID_00000098193964400490002390000000713626917332254894_" class="st2" d="M115.45,209.79l62.86,36.29
	c1.55,0.9,2.81,3.07,2.81,4.86l0,23.93c0,1.79-1.26,2.52-2.81,1.62l-62.86-36.29c-1.55-0.9-2.81-3.07-2.81-4.86l0-23.93
	C112.64,209.63,113.9,208.9,115.45,209.79z"/>
<path id="XMLID_00000181794548374106487530000014022148435193895344_" class="st3" d="M117.91,220.34c0,1.68,1.26,3.77,2.81,4.66
	l52.32,30.21c1.55,0.9,2.81,0.26,2.81-1.42c0-1.68-1.26-3.77-2.81-4.66l-52.32-30.21C119.17,218.02,117.91,218.66,117.91,220.34z"/>
<path id="XMLID_00000156579238169037710030000003868238354754637734_" class="st4" d="M117.91,232.5c0,1.68,1.26,3.77,2.81,4.66
	l52.32,30.21c1.55,0.9,2.81,0.26,2.81-1.42c0-1.68-1.26-3.77-2.81-4.66l-52.32-30.21C119.17,230.19,117.91,230.82,117.91,232.5z"/>
<path id="XMLID_00000105426983907056837920000015439466617080347537_" class="st3" d="M120.72,231.08l28.8,16.63l0,6.08l-28.8-16.62
	c-1.55-0.9-2.81-2.98-2.81-4.66S119.17,230.19,120.72,231.08z"/>
<path id="XMLID_00000161612180088824341620000006692789955367744941_" class="st2" d="M115.45,252.37l62.86,36.29
	c1.55,0.9,2.81,3.07,2.81,4.86l0,23.93c0,1.79-1.26,2.52-2.81,1.62l-62.86-36.29c-1.55-0.9-2.81-3.07-2.81-4.86l0-23.93
	C112.64,252.2,113.9,251.47,115.45,252.37z"/>
<path id="XMLID_00000046309392364111452820000015897740883891043506_" class="st3" d="M117.91,262.91c0,1.68,1.26,3.77,2.81,4.66
	l52.32,30.21c1.55,0.9,2.81,0.26,2.81-1.42c0-1.68-1.26-3.77-2.81-4.66l-52.32-30.21C119.17,260.6,117.91,261.23,117.91,262.91z"/>
<path id="XMLID_00000173134630505234834240000004126648328863656608_" class="st4" d="M117.91,275.08c0,1.68,1.26,3.77,2.81,4.66
	l52.32,30.21c1.55,0.9,2.81,0.26,2.81-1.42c0-1.68-1.26-3.77-2.81-4.66l-52.32-30.21C119.17,272.76,117.91,273.4,117.91,275.08z"/>
<path id="XMLID_00000018935881090061460720000013863608919604534942_" class="st3" d="M120.72,273.66l44.6,25.75l0,6.08l-44.6-25.75
	c-1.55-0.9-2.81-2.98-2.81-4.66C117.91,273.4,119.17,272.76,120.72,273.66z"/>
<path id="XMLID_00000029044963000498811500000008688293430436195253_" class="st2" d="M115.45,294.94l62.86,36.29
	c1.55,0.9,2.81,3.07,2.81,4.86l0,23.93c0,1.79-1.26,2.52-2.81,1.62l-62.86-36.29c-1.55-0.9-2.81-3.07-2.81-4.86l0-23.93
	C112.64,294.77,113.9,294.05,115.45,294.94z"/>
<path id="XMLID_00000022526828010839336830000016537734842793057186_" class="st3" d="M117.91,305.49c0,1.68,1.26,3.77,2.81,4.66
	l52.32,30.21c1.55,0.9,2.81,0.26,2.81-1.42c0-1.68-1.26-3.77-2.81-4.66l-52.32-30.21C119.17,303.17,117.91,303.81,117.91,305.49z"/>
<path id="XMLID_00000070104434449070443100000005504074403447382460_" class="st4" d="M117.91,317.65c0,1.68,1.26,3.77,2.81,4.66
	l52.32,30.21c1.55,0.9,2.81,0.26,2.81-1.42c0-1.68-1.26-3.77-2.81-4.66l-52.32-30.21C119.17,315.34,117.91,315.97,117.91,317.65z"/>
<path id="XMLID_00000166643036109862930120000008153689900459474367_" class="st3" d="M120.72,316.23l18.26,10.54l0,6.08
	l-18.26-10.54c-1.55-0.9-2.81-2.98-2.81-4.66S119.17,315.34,120.72,316.23z"/>
<path id="XMLID_00000041274494985760153080000010321666905059909783_" class="st2" d="M115.45,337.52l62.86,36.29
	c1.55,0.9,2.81,3.07,2.81,4.86l0,23.93c0,1.79-1.26,2.52-2.81,1.62l-62.86-36.29c-1.55-0.9-2.81-3.07-2.81-4.86l0-23.93
	C112.64,337.35,113.9,336.62,115.45,337.52z"/>
<path id="XMLID_00000008855103340972063290000009735374801671853223_" class="st3" d="M117.91,348.06c0,1.68,1.26,3.77,2.81,4.66
	l52.32,30.21c1.55,0.9,2.81,0.26,2.81-1.42c0-1.68-1.26-3.77-2.81-4.66l-52.32-30.21C119.17,345.75,117.91,346.38,117.91,348.06z"/>
<path id="XMLID_00000102512176346503249040000005836739199031576204_" class="st4" d="M117.91,360.23c0,1.68,1.26,3.77,2.81,4.66
	l52.32,30.21c1.55,0.9,2.81,0.26,2.81-1.42c0-1.68-1.26-3.77-2.81-4.66l-52.32-30.21C119.17,357.91,117.91,358.55,117.91,360.23z"/>
<path id="XMLID_00000008130609195530163100000016142929400482011009_" class="st3" d="M120.72,358.81l28.8,16.63l0,6.08l-28.8-16.62
	c-1.55-0.9-2.81-2.98-2.81-4.66S119.17,357.91,120.72,358.81z"/>
<path id="XMLID_00000000930313685037453420000007857214881030063505_" class="st2" d="M115.45,380.09l62.86,36.29
	c1.55,0.9,2.81,3.07,2.81,4.86l0,23.93c0,1.79-1.26,2.52-2.81,1.62l-62.86-36.29c-1.55-0.9-2.81-3.07-2.81-4.86l0-23.93
	C112.64,379.92,113.9,379.2,115.45,380.09z"/>
<path id="XMLID_00000147199842045781293360000006945748476629112740_" class="st3" d="M117.91,390.64c0,1.68,1.26,3.77,2.81,4.66
	l52.32,30.21c1.55,0.9,2.81,0.26,2.81-1.42c0-1.68-1.26-3.77-2.81-4.66l-52.32-30.21C119.17,388.32,117.91,388.96,117.91,390.64z"/>
<path id="XMLID_00000155868182638070462700000013261375007480915331_" class="st4" d="M117.91,402.8c0,1.68,1.26,3.77,2.81,4.66
	l52.32,30.21c1.55,0.9,2.81,0.26,2.81-1.42c0-1.68-1.26-3.77-2.81-4.66l-52.32-30.21C119.17,400.48,117.91,401.12,117.91,402.8z"/>
<path id="XMLID_00000169530374865499919140000008744079294254582710_" class="st3" d="M120.72,401.38l39.33,22.71l0,6.08
	l-39.33-22.71c-1.55-0.9-2.81-2.98-2.81-4.66S119.17,400.48,120.72,401.38z"/>
<path id="XMLID_00000056406420446439956980000006966973546339917712_" class="st5" d="M204.82,249.24c2.91-1.69,5.27-0.15,5.27,3.43
	l0,139.1c0,3.58-2.36,7.85-5.27,9.54c-2.91,1.69-5.27,0.15-5.27-3.43l0-139.1C199.55,255.2,201.91,250.93,204.82,249.24z"/>
<path id="XMLID_00000163787156965050509830000017240560399922728630_" class="st6" d="M204.82,398.23c1.45-0.84,2.63-2.97,2.63-4.76
	l0-139.49c0-1.79-1.18-2.56-2.63-1.72c-1.45,0.84-2.63,2.97-2.63,4.76l0,139.49C202.19,398.3,203.37,399.07,204.82,398.23z"/>
<path id="XMLID_00000034801959372719391220000013913957461150923156_" class="st3" d="M204.82,398.23c1.45-0.84,2.63-2.97,2.63-4.76
	l0-66.69l-5.27,3.04l0,66.69C202.19,398.3,203.37,399.07,204.82,398.23z"/>
<path id="XMLID_00000178176793043115208570000016275365288974068615_" class="st5" d="M220.62,240.12c2.91-1.69,5.27-0.15,5.27,3.43
	l0,139.1c0,3.58-2.36,7.85-5.27,9.54c-2.91,1.69-5.27,0.15-5.27-3.43l0-139.1C215.35,246.07,217.71,241.8,220.62,240.12z"/>
<path id="XMLID_00000072960586042678196080000002482377105362716058_" class="st3" d="M220.62,389.1c1.45-0.84,2.63-2.97,2.63-4.76
	l0-139.49c0-1.79-1.18-2.56-2.63-1.72c-1.45,0.84-2.63,2.97-2.63,4.76l0,139.49C217.99,389.17,219.17,389.94,220.62,389.1z"/>
<path id="XMLID_00000164513446913187260660000005628120346391948714_" class="st5" d="M236.42,231c2.91-1.69,5.27-0.15,5.27,3.43
	l0,139.1c0,3.58-2.36,7.85-5.27,9.54c-2.91,1.69-5.27,0.15-5.27-3.43l0-139.1C231.16,236.95,233.51,232.68,236.42,231z"/>
<path id="XMLID_00000093142089696465121860000014512612253950194071_" class="st6" d="M236.42,379.98c1.45-0.84,2.63-2.97,2.63-4.76
	l0-139.49c0-1.79-1.18-2.56-2.63-1.72c-1.45,0.84-2.63,2.97-2.63,4.76l0,139.49C233.79,380.05,234.97,380.82,236.42,379.98z"/>
<path id="XMLID_00000015325875641467079140000006069624510547825285_" class="st3" d="M236.42,379.98c1.45-0.84,2.63-2.97,2.63-4.76
	l0-107.74l-5.27,3.04l0,107.74C233.79,380.05,234.97,380.82,236.42,379.98z"/>
<path id="XMLID_00000039134175214603296520000001659068932020814772_" class="st5" d="M252.23,221.87c2.91-1.69,5.27-0.15,5.27,3.43
	l0,139.1c0,3.58-2.36,7.85-5.27,9.54c-2.91,1.69-5.27,0.15-5.27-3.43l0-139.1C246.96,227.83,249.32,223.56,252.23,221.87z"/>
<path id="XMLID_00000175292977854357536990000004944106878517593499_" class="st6" d="M252.23,370.86c1.45-0.84,2.63-2.97,2.63-4.76
	l0-139.49c0-1.79-1.18-2.56-2.63-1.72c-1.45,0.84-2.63,2.97-2.63,4.76l0,139.49C249.59,370.93,250.77,371.7,252.23,370.86z"/>
<path id="XMLID_00000178889073913135857740000006879726428867634570_" class="st3" d="M252.23,370.86c1.45-0.84,2.63-2.97,2.63-4.76
	l0-23.54l-5.27,3.04l0,23.54C249.59,370.93,250.77,371.7,252.23,370.86z"/>
<path id="XMLID_00000183970760569368975620000016790762707831208089_" class="st5" d="M268.03,212.75c2.91-1.69,5.27-0.15,5.27,3.43
	l0,139.1c0,3.58-2.36,7.85-5.27,9.54c-2.91,1.69-5.27,0.15-5.27-3.43l0-139.1C262.76,218.71,265.12,214.44,268.03,212.75z"/>
<path id="XMLID_00000076561617792617233970000012521452846451712692_" class="st6" d="M268.03,361.74c1.45-0.84,2.63-2.97,2.63-4.76
	l0-139.49c0-1.79-1.18-2.56-2.63-1.72c-1.45,0.84-2.63,2.97-2.63,4.76l0,139.49C265.39,361.8,266.57,362.58,268.03,361.74z"/>
<path id="XMLID_00000181077513879918548610000008817853908585729437_" class="st3" d="M268.03,361.74c1.45-0.84,2.63-2.97,2.63-4.76
	l0-72.77l-5.27,3.04l0,72.77C265.39,361.8,266.57,362.58,268.03,361.74z"/>
<path id="XMLID_00000061436051822267252060000013388535415693668018_" class="st7" d="M201.8,418.23l69.25-39.98
	c1.24-0.72,2.25-0.14,2.25,1.3v25.22c0,1.43-1.01,3.17-2.25,3.89l-69.25,39.98c-1.24,0.72-2.25,0.14-2.25-1.3v-25.22
	C199.55,420.69,200.56,418.95,201.8,418.23z"/>
<path id="XMLID_00000128470971857796139180000015428363062146801313_" class="st4" d="M204.65,425.71c0,1.68,1.26,2.32,2.81,1.42
	l57.94-33.46c1.55-0.9,2.81-2.98,2.81-4.66c0-1.68-1.26-2.32-2.81-1.42l-57.94,33.46C205.9,421.94,204.65,424.03,204.65,425.71z"/>
<path id="XMLID_00000053526905847984727260000004100793744246803389_" class="st3" d="M204.65,425.71c0,1.68,1.26,2.31,2.81,1.42
	l42.14-24.34l0-6.08l-42.14,24.34C205.9,421.94,204.65,424.03,204.65,425.71z"/>
<path id="XMLID_00000049203852001785664290000010584967246217575572_" class="st4" d="M204.65,437.87c0,1.68,1.26,2.32,2.81,1.42
	l57.94-33.46c1.55-0.9,2.81-2.98,2.81-4.66c0-1.68-1.26-2.32-2.81-1.42l-57.94,33.46C205.9,434.11,204.65,436.19,204.65,437.87z"/>
<path id="XMLID_00000120561108413044510960000003364796812977716901_" class="st3" d="M204.65,437.87c0,1.68,1.26,2.32,2.81,1.42
	l15.8-9.12l0-6.08l-15.8,9.12C205.9,434.11,204.65,436.19,204.65,437.87z"/>
<path id="XMLID_00000111156821628185182660000007231180262674755505_" class="st9" d="M278.39,180.34l-83.93-48.46
	c-1.55-0.9-4.06-0.9-5.61,0l-83.93,48.46c-1.55,0.9-1.55,2.35,0,3.24l83.93,48.46c1.55,0.9,4.06,0.9,5.61,0l83.93-48.46
	C279.94,182.69,279.94,181.24,278.39,180.34z"/>
</svg>
