<?xml version="1.0" encoding="utf-8"?>
<!-- Generator: Adobe Illustrator 26.0.1, SVG Export Plug-In . SVG Version: 6.00 Build 0)  -->
<svg version="1.1" id="Layer_1" xmlns="http://www.w3.org/2000/svg" xmlns:xlink="http://www.w3.org/1999/xlink" x="0px" y="0px"
	 viewBox="0 0 500 500" style="enable-background:new 0 0 500 500;" xml:space="preserve">
<style type="text/css">
	.st0{fill:#EFB922;}
	.st1{fill:#8EC6EF;}
	.st2{fill:#5BAED8;}
	.st3{fill:#71B7E2;}
</style>
<g>
	<path class="st0" d="M269.1,215c0,0-154.7,49.3-185.3,49.8c0,0-0.7,14,8.1,43.8c10,3.5,123.3-25.4,135.9-32
		c50.6-26.5,34-40,156.6-82.6c0,0-2.3-10.6-11.6-25.7C372.7,168.3,327.5,199,269.1,215z"/>
	<path class="st1" d="M93.3,308.2c-4-5.3-9.7-38.4-9.7-38.4s-81.1,35.2-71.9,94c4.3,27.6,27.9,31.4,37.9,32.5
		c21.8,2.5,53.4-14.2,71.5-26.7c36.3-25.3,55.8-49.7,113.2-96.6C234.4,273,153.1,304,93.3,308.2z"/>
	<path class="st1" d="M83.8,264.8c0,0-31.4-116.2,45.8-160.5c25.8-14.8,75.9-30.9,100.8-34.2c24.9-3.3,83.7-13.8,113.9,36.1
		c11,18.2,25.4,50.4,28.4,62.1C341.1,202.7,118.7,262.6,83.8,264.8z"/>
	<path class="st2" d="M282.7,245.6c0,0,52.6-10.4,121.4-13.1c55-2.2,86.6-25,78.8-36.7C475,184,415.3,148.1,282.7,245.6z"/>
	<path class="st3" d="M484.6,194.4c0,0-82.5-93.9-343.3,155.5c-58.4,46.4-113.5,54.5-127.5,20.6c11.2,32.3,43,31.8,82.4,18.6
		c51.6-17.2,123.1-85.4,132.1-92.1c70.6-52.7,191.2-137.7,255.4-94.8C483.6,202.2,485.9,198,484.6,194.4z"/>
</g>
<image style="overflow:visible;enable-background:new    ;" width="364" height="365" id="image5302" xlink:href="DBA1B4A2.png"  transform="matrix(0.4481 2.476446e-02 -2.476446e-02 0.4481 283.039 85)">
</image>
</svg>
