<?xml version="1.0" encoding="utf-8"?>
<!-- Generator: Adobe Illustrator 26.0.1, SVG Export Plug-In . SVG Version: 6.00 Build 0)  -->
<svg version="1.1" id="Layer_1" xmlns="http://www.w3.org/2000/svg" xmlns:xlink="http://www.w3.org/1999/xlink" x="0px" y="0px"
	 viewBox="0 0 500 500" style="enable-background:new 0 0 500 500;" xml:space="preserve">
<style type="text/css">
	.st0{fill:#BFC0C4;}
	.st1{fill:#0071BC;}
</style>
<g transform="translate(-523 -1460.362)">
	<path class="st0" d="M787.1,1503.1c-5.2,0-9.4,4.2-9.4,9.4v9.4c0,5.2,4.2,9.4,9.4,9.4h94.3l0.1,61.1c0,7.8,6.3,14.1,14.1,14.1
		l61.1,0.2v268.6c0,8.1-6.1,14.1-14.1,14.1H725.9c-8.1,0-14.1-6.1-14.1-14.1v-14.1c0-5.2-4.2-9.4-9.4-9.4h-9.4
		c-5.2,0-9.4,4.2-9.4,9.4v14.1c0,23.2,19.2,42.4,42.4,42.4h216.7c23.2,0,42.4-19.2,42.4-42.4V1588c0-3.7-1.5-7.3-4.1-10l-70.8-70.8
		c-2.7-2.7-6.2-4.1-10-4.1L787.1,1503.1z M683.5,1700.9c0,5.2,4.2,9.4,9.4,9.4h9.4c5.2,0,9.4-4.2,9.4-9.4v-94.2
		c0-5.2-4.2-9.4-9.4-9.4h-9.4c-5.2,0-9.4,4.2-9.4,9.4V1700.9z"/>
	<path class="st1" d="M725.9,1503.1c-23.2,0-42.4,19.2-42.4,42.4v23.6c0,5.2,4.2,9.4,9.4,9.4h9.4c5.2,0,9.4-4.2,9.4-9.4v-23.6
		c0-8.1,6.1-14.1,14.1-14.1h23.6c5.2,0,9.4-4.2,9.4-9.4v-9.4c0-5.2-4.2-9.4-9.4-9.4H725.9z M579.8,1729.2
		c-10.4,0-18.8,8.4-18.8,18.8v66c0,10.4,8.4,18.8,18.8,18.8h235.6c10.4,0,18.8-8.4,18.8-18.8v-66c0-10.4-8.4-18.8-18.8-18.8H579.8z
		 M641.6,1747.2c4,0,7.7,0.8,11.5,2.4c1-2.2,2.1-2.4,4.5-2.4c2.9,0,3.6,0.9,3.7,4.7l0.2,8.4v0.5c0,3.3-1.1,4.7-4.5,4.7
		c-3.6,0-4-2-5-4.1c-1.8-3.5-5-5.5-9.2-5.5c-5.5,0-8.8,2.9-8.8,6.5c0,4.6,5,5,14.1,6.9c10.9,2.2,16,7.1,16,16
		c0,10.8-7.6,16.8-21.2,16.8c-4.5,0-8.6-0.5-13.2-2.2c-1,1.7-2.2,2.2-4.1,2.2c-3.6,0-4.9-1.1-5-4.8l-0.3-10.4v-0.4
		c0-3.8,1.3-5.2,5-5.2c3.4,0,3.9,2.5,5.5,5.7c2.3,4.6,6.3,6.8,12.2,6.8c5.3,0,8.6-2.2,8.6-6.4c0-5.7-5-5.7-14.9-8.3
		c-9.9-2.6-15.1-5.9-15.1-14.9C621.3,1754.2,629.6,1747.2,641.6,1747.2L641.6,1747.2z M696.3,1747.2c14.5,0,24.8,11.2,24.8,27.1
		c0,15.9-10.4,27.3-24.4,27.3c-0.5,0-1.5,0-3-0.1l-3.3,3.4c2.4-0.8,4.9-1.3,7.3-1.3c6,0,9.5,2.1,12,2.1c2.7,0,4.9-1.9,6.7-1.9
		c2.2,0,3.8,1.9,3.8,4.4c0,3.2-4.3,6-10.3,6c-5.7,0-9.8-2.8-14.2-2.8c-5.5,0-9.3,3.4-11.9,3.4c-2.5,0-4.5-1.9-4.5-4.2
		c0-1.8,1.3-3.7,3.8-6.2l4.4-4.5c-9.6-3.5-16-13.4-16-25.7C671.5,1758.4,681.6,1747.2,696.3,1747.2L696.3,1747.2z M730.7,1748.6
		h18.8c3.6,0,5.4,1.3,5.4,4.9c0,3.6-1.8,4.9-5.4,4.9h-3.9v32.7h20v-7.8c0-3.8,1.3-5.6,4.8-5.6c3.6,0,4.8,1.9,4.8,5.6v13.5
		c0,3.1-0.9,4-4.6,4h-39.8c-3.6,0-5.3-1.3-5.3-4.9c0-3.6,1.7-4.8,5.3-4.8h3.9v-32.7h-3.9c-3.6,0-5.3-1.3-5.3-4.9
		C725.3,1750,727.1,1748.6,730.7,1748.6z M696.3,1757.4c-7.4,0-12.1,6.1-12.1,17.3c0,11.2,4.9,17.4,12.1,17.4
		c7.3,0,12.1-6.1,12.1-17.4C708.5,1763.4,703.6,1757.4,696.3,1757.4z"/>
</g>
</svg>
