<?xml version="1.0" encoding="utf-8"?>
<!-- Generator: Adobe Illustrator 27.4.1, SVG Export Plug-In . SVG Version: 6.00 Build 0)  -->
<svg version="1.1" id="Layer_1" xmlns="http://www.w3.org/2000/svg" xmlns:xlink="http://www.w3.org/1999/xlink" x="0px" y="0px"
	 viewBox="0 0 500 500" style="enable-background:new 0 0 500 500;" xml:space="preserve">
<style type="text/css">
	.st0{fill:#3A7087;}
	.st1{fill:#F4C70B;stroke:#F4064A;stroke-miterlimit:10;}
	.st2{fill-rule:evenodd;clip-rule:evenodd;fill:#F4C70B;stroke:#F4064A;stroke-miterlimit:10;}
</style>
<path id="path214" class="st0" d="M401.3,371.9l-151.7-58.8L97.9,371.9l59.9-93.7L4.2,220.8l188.7,0.9l56.7-94.2l56.7,94.2
	l188.7-0.9l-153.6,57.4L401.3,371.9"/>
<path id="path300" class="st1" d="M133.1,164c15.2,0,6.3,37.9,0.9,49.3c-4.6,9.8-15,23.9-27.3,23.9c-14.8,0-14.3-16.6-8.5-29
	c3.2-6.7,8.1-14.3,14.8-19.9c-1.7,5.8,4.1,9.8,1.7,14.8c-1.6,3.4-4.9,7.1-6.7,10.8c-2.8,5.9-1.7,16.5,5,16.5
	c6.1,0,11.5-7.5,13.7-12.2c4.5-9.6,15.8-50.5,3.2-50.5c-14.6,0-39.7,35.5-44.9,46.6c-9.4,19.9-2.6,44.4,18.8,44.4
	c14.4,0,26.3-13.9,32.1-26c3.4-7.2,5.3-14.4,6-21.2l2.8-0.5c0.6,18.7,20.4,49.7,12,67.5c-10.8,22.8-43,22.6-61.4,30.7
	c-3.9-9-9.1-17.5-16.5-23.9c16.4-5.5,56.8-14.8,65.5-33.4c3.7-7.8,1.2-20.8-3.1-25.1c-0.7,2.8-1.7,5.6-3.1,8.4
	c-7.5,15.9-23.6,28.2-40.2,28.2c-23.1,0-32.9-16.6-22-39.6C82.5,209.9,115.8,164,133.1,164"/>
<path id="path302" class="st1" d="M172.5,218.8c0.9,2.3,3.6,15,5.6,15c4.3,0,12.2-11.8,14.3-14.9c3.9,2.5,1.7,7.8,8.9,7.8
	c3.2,0,4.9-7,8.3-7.1c0.1,2.8,0.3,5.4-1.2,8.6c-2.4,5-8.4,11.8-14.3,11.8c-4.2,0-10.1-5.1-11.3-5.1c-1.3,0-3.6,0.6-4.3,2.1
	c-3.1,6.5,5.1,28.3,13.4,28.3c4.4,0,9.7-3.2,14.3-5.2c-1.2,7.8-1.4,14.4,0.2,21.2c-4.2,2.7-9.1,3.8-13.1,3.8
	c-20.3,0-9.1-47.1-27.8-57.2L172.5,218.8"/>
<path id="path304" class="st2" d="M250.4,215c15.3,0,21.4,27.5,14.5,42.1c-5.3,11.3-14.8,19.5-26.9,19.5
	c-21.4,0-18.7-29.1-10.4-46.8c2.3-4.9,10.2-15.5,16.3-15.5C246.2,214.3,248,215,250.4,215z M249.9,217.6c-2.4,0-4.5,1.2-5.6,3.6
	c-2.3,5,9.4,10,7.7,13.6c-1.1,2.2-5.1,4.3-7.1,4.3c-10.1,0-10.1-13.2-4-21.8c-3.8,2.4-6.2,6.1-7.8,9.5c-5.9,12.6-1.2,29.9,12.3,29.9
	c7.5,0,16.1-6.7,19.5-13.8C268.9,234,258.4,217.6,249.9,217.6"/>
<path id="path306" class="st2" d="M320,260.4c-4,8.5-11.5,13.1-19.9,13.1c-26.6,0-31.9-24.3-20.4-48.8c2.7-5.8,7.2-12.2,14-12.2
	C315.2,212.6,330.1,239,320,260.4L320,260.4z M298.7,215.7c-2,0-3.7,0.7-4.6,2.7c-2.1,4.4,9.2,8.3,9.2,12.8c-1.2,1.4-4.5,3-5.9,3
	c-8.1,0-14.3-11-7.3-19.2c-2.8,1.8-4.5,4.5-5.7,7c-7,14.9,3,29.9,17.6,29.9c6.1,0,13.9-3.4,17.1-10.1
	C323.5,232.4,307.6,215.7,298.7,215.7"/>
<path id="path308" class="st1" d="M347.5,215.5c23,0,34.6,42.1,24.4,63.9c-2,4.2-5.6,8.3-10.4,8.3c-26.2,0-19.5-52.1-34.3-67
	c1.4-1.4,2.6-2.9,3.8-4.4c10,11.7,5,42.5,26.3,42.5c4.9,0,8.6-4.3,10.6-8.5c5.3-11.2-4.5-30.7-15.2-30.7c-0.1,0-1.6,0.1-1.6,0.7
	c0.4,7.2,6,2.7,0.4,14.9c-5.8-1.2-11.9-10.5-8.8-17.2C343.6,216.1,345.9,215.5,347.5,215.5"/>
<path id="path310" class="st2" d="M404.6,215c2.2,0.2,5.4,0,7.3,0.6c0.3,0.1,0.1,0.5,0.1,0.9c0.6,3.2,1.4,6.2,2.2,9.3
	c3,12,4.8,24.3,8.2,36.2c3.7,12.9,7.6,27.5,3.1,43.8c-0.4,1.6-1,3.2-1.8,4.8c-17.2,33-54,24.1-65.5,24.1c-1.4,0-2.9-0.4-3.6-1.3
	c4.9-3.1,7.9-6.3,10.1-10.9c2.6-5.5,2.6-10.7,2.2-15.4c0.9,0.5,3.9,1.9,5.1,1.9c5,0,32.8,14.3,46.9-12c3.7-7.8,3-15.7,2.4-22.4
	c-0.3-3.3-0.8-6.6-1.4-9.8l-0.9-4.6l-0.1-0.5l-0.1-0.5c0.6,0,0.1,1,0.1,1.5c0.3,8,0.2,19.2-4.1,28.4c-2,4.2-5.3,8.6-10.3,8.6
	c-22,0-11-62.5-28.6-77.4c1-1.6,1.9-3.3,2.6-4.9c10.5,12.6,11,47.4,26.4,47.4c3.7,0,7.6-3.5,9.2-6.9
	C420.9,241.4,409.6,224.6,404.6,215"/>
</svg>
