<?xml version="1.0" encoding="utf-8"?>
<!-- Generator: Adobe Illustrator 26.0.1, SVG Export Plug-In . SVG Version: 6.00 Build 0)  -->
<svg version="1.1" id="Layer_1" xmlns="http://www.w3.org/2000/svg" xmlns:xlink="http://www.w3.org/1999/xlink" x="0px" y="0px"
	 viewBox="0 0 500 500" style="enable-background:new 0 0 500 500;" xml:space="preserve">
<style type="text/css">
	.st0{fill-rule:evenodd;clip-rule:evenodd;fill:#E8AE41;}
	.st1{fill-rule:evenodd;clip-rule:evenodd;fill:#FFFFFF;}
</style>
<path class="st0" d="M491.9,250c0,133.7-108.3,242-242,242C116.5,492,8.1,383.7,8.1,250c0-53.5,17.3-102.9,46.7-143
	c5.6-7.6,11.6-14.9,18-21.7C117,37.7,180,8,249.9,8C383.5,8,491.9,116.3,491.9,250z"/>
<path class="st1" d="M432.5,368.8H310c0,0,1,0.5-6.1,0c-7.2-0.3-16.9-4.4-25.9-9.2c-8.7-4.9-18.2-20.5-18.2-20.5l-30.2-59.9
	l-73.2,78.1c0,0,2-1.8-1.5,2.8c-3.6,4.3-2,12.8-1.8,15.9c0.5,3.1,7.2,10,9,13.3c1.8,3.6,2.3,6.1,2.3,11.5c0,7.7-3.6,21-7.7,28.4
	c-3.8,7.7-19,16.9-29.2,17.9c-10.2,0.8-23.6-9.5-29.5-17.9c-5.6-8.5-7.2-25.6-7.2-25.6c-2.6-19.2,12.5-37.4,12.5-37.4L215,244.9
	l-59.2-128.8c0,0-1.8-5.1-5.9-7.2c-3.8-2.3-7.9-2.3-7.9-2.3L54.9,107c5.6-7.6,11.6-14.9,18-21.7l0.6,0.1h175.4l40.5,81.7l56.3-59.4
	v-2.8c0,0-0.5-3.1-4.4-6.7c-4.1-3.6-16.9-3.6-16.9-3.6v-9h83.5v11.8l-11.5,1.8c0,0-1.3,0.8-4.1,1.5c-2.5,1-5.6,4.1-5.6,4.1l-84,93
	l64.3,140.1c0,0,2.3,3.1,5.1,5.6c2.6,2.8,11,5.4,11,5.4h57.9L432.5,368.8z"/>
</svg>
