<?xml version="1.0" encoding="utf-8"?>
<!-- Generator: Adobe Illustrator 26.0.1, SVG Export Plug-In . SVG Version: 6.00 Build 0)  -->
<svg version="1.1" id="Layer_1" xmlns="http://www.w3.org/2000/svg" xmlns:xlink="http://www.w3.org/1999/xlink" x="0px" y="0px"
	 viewBox="0 0 500 500" style="enable-background:new 0 0 500 500;" xml:space="preserve">
<style type="text/css">
	.st0{fill-rule:evenodd;clip-rule:evenodd;fill:#3999C6;}
	.st1{fill-rule:evenodd;clip-rule:evenodd;fill:#59B4D9;}
	.st2{fill-rule:evenodd;clip-rule:evenodd;fill:#FFFFFF;}
	.st3{fill-rule:evenodd;clip-rule:evenodd;fill:#7FBA00;}
	.st4{fill-rule:evenodd;clip-rule:evenodd;fill:#B8D432;}
	.st5{fill:#FFFFFF;}
</style>
<g id="A">
	<path class="st0" d="M250.5,75.3v413.8c-100,0-180-28.8-180-65.3V75.3H250.5z"/>
	<path class="st1" d="M247.7,75.3h182.9v349.5c0,35.5-81,65.3-180,65.3h-2.9V75.3z"/>
	<path class="st2" d="M430.5,75.3c0-35.5-81-65.3-180-65.3s-180,29.8-180,65.3c0,36.5,80,65.3,180,65.3S430.5,111.8,430.5,75.3"/>
	<path class="st3" d="M393.4,71.4c0-24-63.8-43.2-142.9-43.2S107.7,47.4,107.7,71.4s63.8,43.2,142.9,43.2S393.4,95.4,393.4,71.4"/>
	<path class="st4" d="M363.9,98.3C337.2,87.8,296.2,81,250.5,81c-46.7,0-87.6,6.7-113.3,17.3c-18.1-7.7-29.5-17.3-29.5-26.9
		c0-24,63.8-43.2,142.9-43.2s142.9,19.2,142.9,43.2C393.4,82,382.9,90.6,363.9,98.3"/>
	<g>
		<path class="st5" d="M138.8,321.5c1.2,8.9,6.4,14.4,16.3,14.4c10.1,0,13.3-4.2,13.3-10.2c0-7.9-5.2-11.5-20.2-15.6
			c-27.3-7.4-35.5-17.8-35.5-33.2c0-22.1,18-33.5,41-33.5c27.2,0,41.2,13.1,42.5,33.4h-28.6c-0.9-6.9-4-12.5-13.7-12.5
			c-7.5,0-11.5,3.4-11.5,9.3c0,6.8,4.9,8.8,19.6,12.9c29,8.2,37,19.2,37,35.9c0,20.9-15.5,34.7-44.6,34.7
			c-27.1,0-43.1-13.6-44.3-35.5H138.8z"/>
		<path class="st5" d="M313.7,299.6c0,32.1-15.1,57.5-52.7,57.5c-35.7,0-50.8-25.6-50.8-57.6c0-28.6,15.4-56.2,52.5-56.2
			C298.2,243.4,313.7,269.9,313.7,299.6z M241.7,299.4c0,21.1,6.2,35.6,20.4,35.6c15.4,0,20.2-13.4,20.2-35.7
			c0-19.4-4.6-33.8-20.6-33.8C247.2,265.5,241.7,279,241.7,299.4z M295.7,339.4l25.5,17.3l-14.9,18.8l-32.7-22.6L295.7,339.4z"/>
		<path class="st5" d="M330.7,245.3H361v86.9h46.4l-3.1,22.9h-73.6V245.3z"/>
	</g>
</g>
</svg>
