<?xml version="1.0" encoding="utf-8"?>
<!-- Generator: Adobe Illustrator 26.0.1, SVG Export Plug-In . SVG Version: 6.00 Build 0)  -->
<svg version="1.1" id="Layer_1" xmlns="http://www.w3.org/2000/svg" xmlns:xlink="http://www.w3.org/1999/xlink" x="0px" y="0px"
	 viewBox="0 0 500 500" style="enable-background:new 0 0 500 500;" xml:space="preserve">
<style type="text/css">
	.st0{fill:#1A476F;}
	.st1{fill:#1F5B98;}
	.st2{fill:#2D72B8;}
	.st3{fill:#5294CF;}
</style>
<g>
	<path class="st0" d="M59.3,369.9l44.6,52.3l4-4.8V82.8l-4-5.1L59.3,130V369.9"/>
	<path class="st1" d="M104,422.2l85.3,42.7l3.5-5.7l0.1-419.6l-3.5-4.5L104,77.6L104,422.2"/>
	<path class="st2" d="M440.7,130L396,77.7l-5,1.6l1,338.6l4,4.3l44.7-52.3V130"/>
	<path class="st3" d="M310.7,464.9l85.3-42.7V77.6l-85.4-42.5l-4,5.5l0.1,418.1L310.7,464.9"/>
	<path class="st2" d="M189.4,35.1h121.3v429.7H189.4V35.1z"/>
</g>
</svg>
