<?xml version="1.0" encoding="utf-8"?>
<!-- Generator: Adobe Illustrator 26.0.1, SVG Export Plug-In . SVG Version: 6.00 Build 0)  -->
<svg version="1.1" id="Layer_1" xmlns="http://www.w3.org/2000/svg" xmlns:xlink="http://www.w3.org/1999/xlink" x="0px" y="0px"
	 viewBox="0 0 500 500" style="enable-background:new 0 0 500 500;" xml:space="preserve">
<style type="text/css">
	.st0{fill:#577138;}
	.st1{fill:#DCDF72;}
	.st2{fill:#A2B24F;}
	.st3{fill:#5E3108;}
</style>
<g>
	<path class="st0" d="M474.9,234.8c-8.9-29.6-28.7-52.4-46.6-76.8c-33.7-45.6-77.5-70.7-117.9-71c-77.2-1.4-131.7,33.7-155.1,89.1
		c-2,6.2-7.4,10.7-13.9,11.5c-25.7,5.9-51.5,11.8-75.5,24c-16.3,8.3-32.8,16-43.2,31.9c-13,20.1-11.6,41.4-6.5,63.6
		c13,55,46.6,89.1,101.8,101.5c34,7.4,67.2,6.5,98.2-11.2c19.5-11,35.2-26.6,50.7-42.5c3.8-4.1,6.8-5,11.8-2.7l28.4,13.9
		c30.2,15.1,61,27.5,95.6,25.4c55-3.3,87.9-40.3,84.3-94.1c-1.2-21.3-6.2-42.2-12.4-62.7L474.9,234.8z M271,309.6
		c-33.1,22.2-67.4,41.4-107.1,49.4c-12.7,2.7-25.4,3.5-34,3c-31.9,0-58.9-3.3-82.6-19.5c-27.8-19.5-39.7-62.2-23.7-92
		c5-9.8,13.6-16.9,23.1-22.5c32.8-20.4,69.5-29.9,106.8-37.6c38.8-8.3,78.1-17.2,118.7-16.9c19.5,0,37,7.7,49.4,23.4
		c11,14.2,7.7,30.2,2.4,45.3C314.2,269.9,295.6,293.6,271,309.6L271,309.6z M472.6,333.9c-12.4,31.1-38.8,41.4-68.7,45.9
		c-31.9,4.7-58.3-10.3-85.5-23.1c-8.9-4.1-17.5-9.6-26.6-13c-8-3-9.2-5.9-2.7-11.6c10.1-12.7,20.1-25.4,28.1-39.7
		c9.8-21,15.7-43.2,15.7-66.6c0-36.1-19.2-52.1-55.6-56.2c-7.1-0.9-14.5-0.3-21.8-0.3c-24.6,1.8-49.1,5.5-73.4,10.1
		c-5-0.3-11.2,5.5-14.5,0.3c-2.4-3.8,3.5-8.6,6.2-12.7c17.8-30.8,44.4-49.7,77.8-60.4c29.3-9.2,58.3-11.2,88.5-3.3
		c24.9,6.5,42.6,21.6,58.9,39.7c20.1,22.2,38.5,45.3,53.3,71c14.5,25.2,21.8,52.1,24,80.8c0.6,13.3,1.8,26.3-3.5,39.1L472.6,333.9z"
		/>
	<path class="st1" d="M361.9,364.1c21.8,9.6,43.8,7.7,65.4-0.3c26.3-9.8,38.8-29.9,40.5-56.8c2.4-37.9-9.6-71.6-31.1-102.1
		l-43.5-56.2c-21.8-23.7-47.9-38.5-81.1-39.3c-34.3-0.9-66.3,7.1-95,25.7c-16,10.3-29.3,24.6-35.2,43.8l73.4-10.1
		c1.4-0.6,3-1.8,4.4-1.4c12.7,0.9,24.6-1.8,36.7-5.9c14.2-5,27.5,0.6,38.8,8.9c24.3,18,41.1,40.9,41.1,72.5
		c0,22.8-19.8,49.1-47.9,47.3c-3.8-0.3-8-0.6-11.6,2.1c-7.7,14.5-18,26.9-28.1,39.6c9.6,9.8,22.8,11.2,34.3,16.5
		C335.4,354.9,349,358.8,361.9,364.1L361.9,364.1z"/>
	<path class="st2" d="M452.1,214.1c-15.1-25.7-33.4-49.1-53.3-71c-16.3-18-34-33.1-58.9-39.7c-30.2-8-59.2-5.9-88.5,3.3
		c-33.4,10.4-60.1,29.6-77.8,60.4c-2.4,4.2-8.6,8.9-6.2,12.7c3.3,5,9.6-0.6,14.5-0.3c5.9-19.2,18.9-33.4,35.4-43.8
		c28.6-18.6,60.7-26.3,95-25.7c33.1,0.9,59.2,15.4,81.1,39.3c16,17.5,29.9,37,43.5,56.2c21.6,30.5,33.4,64.2,31.1,102.1
		c-1.8,26.9-14.2,47.1-40.5,56.8c-21.6,8-43.5,9.8-65.3,0.3l-38.5-15.4c-11.5-5.5-24.9-7.1-34.3-16.6c-6.8,5.5-5.5,8.6,2.7,11.6
		c9.2,3.5,17.8,8.9,26.6,13c27.2,12.7,53.9,27.8,85.5,23.1c29.9-4.4,56.2-15.1,68.7-45.9c5-12.7,4.2-25.7,3.3-38.8
		c-1.8-29.6-9.2-56.5-23.7-81.7L452.1,214.1z M323.7,242.2c5.5-15.1,8.6-31.1-2.4-45.3c-12.4-16-29.6-23.4-49.4-23.4
		c-40.3-0.3-79.6,8.6-119,16.9c-37.3,8-74,17.2-106.8,37.6c-9.6,5.9-18,13-23.1,22.5c-15.7,29.9-4.2,72.5,23.7,92
		C70.3,359,97.4,362,129.2,362c8.6,0.6,21.6-0.6,34-3c39.7-8,74-27.2,107.1-49.4C295.2,293.8,314,270,323.7,242.2L323.7,242.2z
		 M255.3,311.8c-28.1,16.9-56.5,33.1-89.4,39.1c-26.6,4.7-53.9,6.2-80.5-0.6c-31.1-7.4-55-35.4-56.2-67.4
		c-0.6-17.5,8-31.5,21.3-42.9c20.6-17.5,45.3-26.6,71.3-32.3c0.6,0,1.4,0.9,2.4,1.4c21.8-16.9,46.6-20.1,73.4-18
		c2.4-5.5,8-3.8,12.1-5c22.8-5.5,45.9-8,68.7-3.3c42.9,8.6,48.3,32.6,34.3,67.4C301.8,278.2,280.2,296.7,255.3,311.8L255.3,311.8z
		 M328.4,290.4c28.1,1.8,47.9-24.6,47.9-47.3c0-31.5-16.9-54.5-41.1-72.5c-11.6-8.2-24.6-13.9-38.8-8.9c-12.1,4.2-24,6.8-36.7,5.9
		c-1.4,0-3,1.2-4.4,1.4c7.4,0,14.5-0.6,21.8,0.3c36.4,4.2,55.8,20.1,55.8,56.2c0,23.4-5.9,45.6-15.7,66.6
		C320.5,290.1,324.3,290.1,328.4,290.4L328.4,290.4z"/>
	<path class="st1" d="M278.4,183c-22.8-4.7-46.2-2.1-68.7,3.3c-4.2,0.9-9.8-0.6-12.1,5c26,5,46.2,19.2,59.8,42.2
		c11.2,18.6,8.3,36.7-8.9,51.2c-18.1,15.7-39.7,23.1-63.3,25.7c-31.5,3.5-60.1-5.9-86.7-22.2c-7.4-4.4-9.6-10.4-8.6-18.4
		c2.9-25.2,15.7-44.7,34.3-60.7c-0.9-0.6-1.8-1.4-2.4-1.4c-26,5.5-50.7,14.8-71.3,32.3c-13.3,11.2-21.8,25.4-21.3,42.9
		c1.2,31.5,25.4,59.8,56.2,67.4c26.9,6.5,53.9,5.3,80.5,0.6c32.5-5.9,61.2-22.2,89.1-39.1c24.9-15.1,46.6-33.4,57.4-61
		c14.2-35.4,8.9-59.2-34-67.8L278.4,183z"/>
	<path class="st3" d="M89.9,269.7c-0.9,7.7,1.2,13.9,8.6,18.4c26.6,16.3,55,25.7,86.7,22.2c23.4-2.7,45.3-10.1,63.3-25.7
		c16.9-14.5,20.1-32.5,8.9-51.2c-13.9-22.8-33.7-37-59.8-42.2c-26.3-2.1-51.5,1.2-73.4,18C105.4,225.2,92.8,244.9,89.9,269.7
		L89.9,269.7z"/>
</g>
</svg>
