<?xml version="1.0" encoding="utf-8"?>
<!-- Generator: Adobe Illustrator 26.0.1, SVG Export Plug-In . SVG Version: 6.00 Build 0)  -->
<svg version="1.1" id="Layer_1" xmlns="http://www.w3.org/2000/svg" xmlns:xlink="http://www.w3.org/1999/xlink" x="0px" y="0px"
	 viewBox="0 0 500 500" style="enable-background:new 0 0 500 500;" xml:space="preserve">
<style type="text/css">
	.st0{fill:#669CFE;}
	.st1{fill:#3FE7FE;}
	.st2{fill:#EDEFAC;}
	.st3{fill:#6A9EFE;}
</style>
<g>
	<path class="st0" d="M477.8,251.3c0,15.7-12.7,28.4-28.4,28.4c-15.7,0-28.4-12.7-28.4-28.4s12.7-28.4,28.4-28.4
		C465.1,223,477.8,235.7,477.8,251.3"/>
	<path class="st1" d="M419.3,309.2c0,15.7-12.7,28.4-28.4,28.4c-15.7,0-28.4-12.7-28.4-28.4c0-15.7,12.7-28.4,28.4-28.4
		C406.6,280.8,419.3,293.5,419.3,309.2"/>
	<path class="st2" d="M360.7,368.2c0,15.7-12.7,28.4-28.4,28.4c-15.7,0-28.4-12.7-28.4-28.4c0-15.7,12.7-28.4,28.4-28.4
		C348,339.8,360.7,352.5,360.7,368.2"/>
	<path class="st0" d="M417.5,193.1c0,14.7-11.9,26.6-26.6,26.6s-26.6-11.9-26.6-26.6s11.9-26.6,26.6-26.6S417.5,178.4,417.5,193.1"
		/>
	<path class="st1" d="M359.1,250.8c0,14.7-11.9,26.6-26.6,26.6s-26.6-11.9-26.6-26.6c0-14.7,11.9-26.6,26.6-26.6
		C347.2,224.3,359.1,236.2,359.1,250.8"/>
	<path class="st2" d="M300.9,309.4c0,14.7-11.9,26.6-26.6,26.6s-26.6-11.9-26.6-26.6s11.9-26.6,26.6-26.6S300.9,294.7,300.9,309.4"
		/>
	<path class="st0" d="M356.9,135c0,13.3-10.8,24.1-24.1,24.1s-24.1-10.8-24.1-24.1s10.8-24.1,24.1-24.1S356.9,121.7,356.9,135"/>
	<path class="st1" d="M298.6,192.8c0,13.3-10.8,24.1-24.1,24.1c-13.3,0-24.1-10.8-24.1-24.1s10.8-24.1,24.1-24.1
		C287.8,168.6,298.6,179.4,298.6,192.8"/>
	<path class="st2" d="M240.1,251.5c0,13.3-10.8,24.1-24.1,24.1s-24.1-10.8-24.1-24.1c0-13.3,10.8-24.1,24.1-24.1
		S240.1,238.2,240.1,251.5"/>
	<path class="st0" d="M296.5,76.7c0,12-9.7,21.7-21.7,21.7s-21.7-9.7-21.7-21.7S262.8,55,274.8,55C286.8,55,296.5,64.7,296.5,76.7"
		/>
	<path class="st1" d="M238,134.7c0,12-9.7,21.7-21.7,21.7s-21.7-9.7-21.7-21.7s9.7-21.7,21.7-21.7S238,122.7,238,134.7"/>
	<path class="st2" d="M179.6,193.4c0,12-9.7,21.7-21.7,21.7s-21.7-9.7-21.7-21.7s9.7-21.7,21.7-21.7
		C169.9,171.7,179.6,181.4,179.6,193.4"/>
	<path class="st3" d="M177.4,309.6c0,10.6-8.6,19.3-19.3,19.3c-10.6,0-19.3-8.6-19.3-19.3c0-10.6,8.6-19.3,19.3-19.3
		C168.8,290.3,177.4,298.9,177.4,309.6"/>
	<path class="st3" d="M235.5,367.7c0,10.6-8.6,19.3-19.3,19.3c-10.6,0-19.3-8.6-19.3-19.3c0-10.6,8.6-19.3,19.3-19.3
		C226.9,348.4,235.5,357.1,235.5,367.7"/>
	<path class="st3" d="M293.5,425.7c0,10.6-8.6,19.3-19.3,19.3s-19.3-8.6-19.3-19.3s8.6-19.3,19.3-19.3S293.5,415.1,293.5,425.7"/>
	<path class="st3" d="M177.7,425.7c0,10.6-8.6,19.3-19.3,19.3c-10.6,0-19.3-8.6-19.3-19.3s8.6-19.3,19.3-19.3
		C169.1,406.4,177.7,415.1,177.7,425.7"/>
	<path class="st3" d="M60.7,425.7c0,10.6-8.6,19.3-19.3,19.3c-10.6,0-19.3-8.6-19.3-19.3s8.6-19.3,19.3-19.3
		C52.1,406.4,60.7,415.1,60.7,425.7"/>
	<path class="st3" d="M118.9,367.6c0,10.6-8.6,19.3-19.3,19.3c-10.6,0-19.3-8.6-19.3-19.3c0-10.6,8.6-19.3,19.3-19.3
		C110.2,348.3,118.9,357,118.9,367.6"/>
	<path class="st1" d="M177.7,76.7c0,11.1-9,20.1-20.1,20.1s-20.1-9-20.1-20.1s9-20.2,20.1-20.2C168.7,56.6,177.7,65.6,177.7,76.7"/>
	<path class="st2" d="M119,135.7c0,11.1-9,20.2-20.2,20.2c-11.1,0-20.1-9-20.1-20.2c0-11.1,9-20.1,20.1-20.1
		C110,115.6,119,124.6,119,135.7"/>
	<path class="st2" d="M57.6,75.9c0,9-7.3,16.3-16.3,16.3S25,84.9,25,75.9s7.3-16.3,16.3-16.3C50.3,59.7,57.6,66.9,57.6,75.9"/>
</g>
</svg>
