<?xml version="1.0" encoding="utf-8"?>
<!-- Generator: Adobe Illustrator 26.0.1, SVG Export Plug-In . SVG Version: 6.00 Build 0)  -->
<svg version="1.1" id="Layer_1" xmlns="http://www.w3.org/2000/svg" xmlns:xlink="http://www.w3.org/1999/xlink" x="0px" y="0px"
	 viewBox="0 0 500 500" style="enable-background:new 0 0 500 500;" xml:space="preserve">
<style type="text/css">
	.st0{fill:#FBB03B;}
	.st1{fill:#FFFFFF;}
</style>
<path class="st0" d="M480.4,90c-7.4,0.2-5.1,2.4-21.2,6.3c-16.3,4-36.1,2.8-53.6,10.1c-52.3,21.9-62.7,96.8-110.2,123.6
	c-35.5,20.1-71.3,21.7-103.5,31.7c-21.2,6.6-44.3,20.2-63.5,36.8c-14.9,12.8-15.3,24.1-30.8,40.2C80.9,356,31.4,339.1,9,365.4
	c7.2,7.3,10.4,9.4,24.6,7.5c-2.9,5.6-20.3,10.3-16.9,18.5c3.6,8.6,45.6,14.5,83.8-8.5c17.8-10.7,31.9-26.2,59.6-29.9
	c35.8-4.8,77.1,3.1,118.6,9c-6.2,18.3-18.5,30.5-28.4,45.1c-3.1,3.3,6.2,3.7,16.7,1.7c18.9-4.7,32.5-8.4,46.8-16.8
	c17.5-10.2,20.2-36.4,41.7-42c12,18.4,44.6,22.8,64.8,8c-17.8-5-22.7-42.8-16.7-59.5c5.7-15.8,11.3-41,17-61.8
	c6.1-22.4,8.4-50.6,15.8-62c11.2-17.2,23.5-23,34.2-32.7c10.7-9.7,20.5-19.1,20.2-41.2C490.9,93.7,487.2,89.8,480.4,90L480.4,90z"/>
<path class="st1" d="M24.4,389.8c27.2,3.9,43.7,0,65.6-9.5c18.6-8.1,36.5-24.7,58.5-31.7c32.2-10.3,67.6,0,102,2.1
	c8.4,0.5,16.7,0.5,24.9-0.4c12.8-7.9,12.6-37.4,25.1-40.1c-0.4,41.4-17.3,66.2-35.1,90.2c37.4-6.6,59.8-28.2,74.9-57.1
	c4.6-8.8,8.5-18.2,12-28.1c5.4,4.1,2.3,16.6,5,23.4c25.8-14.3,40.5-47.1,50.3-80.2c11.3-38.3,15.9-77.1,23.2-88.5
	c7.1-11.1,18.2-17.9,28.3-25c11.5-8.1,21.7-16.5,23.5-31.8c-12.1-1.1-14.9-3.9-16.7-10c-6.1,3.4-11.6,4.1-17.9,4.3
	c-5.5,0.2-11.5-0.1-18.8,0.7c-60.6,6.2-68.4,73.1-107.2,111c-2.9,2.8-5.9,5.4-9.1,7.7c-13.6,10.1-30.3,17.4-45.7,23.3
	c-24.9,9.5-48.5,10.2-71.8,18.4c-17.1,6-34.5,14.7-48.6,24.4c-3.4,2.3-6.7,4.8-9.9,7.4c-8.3,6.8-13.7,14.2-18.9,22
	c-5.4,7.9-10.6,16.1-18.6,23.9c-12.9,12.7-61,3.7-78,15.4c-1.9,1.3-3.4,2.9-4.4,4.8c9.3,4.2,15.4,1.6,26.1,2.8
	C44.3,379.2,21,385.2,24.4,389.8L24.4,389.8z M391.9,317.1c0.7,11.6,7.4,34.6,13.4,40.2c-11.6,2.8-31.7-1.8-36.8-10
	C371.1,335.3,384.8,324.5,391.9,317.1L391.9,317.1z"/>
<path class="st0" d="M408.9,133.2c8.6,7.5,26.6,1.5,23.4-13.4C418.9,118.7,411.2,123.3,408.9,133.2z M468.8,115.9
	c-2.3,4.8-6.7,11-6.7,23.2c0,2.1-1.6,3.5-1.6,0.3c0.1-11.9,3.3-17.1,6.6-23.8C468.7,112.7,469.6,113.9,468.8,115.9L468.8,115.9z"/>
<path class="st0" d="M466.5,114.1c-2.7,4.6-9.2,12.9-10.3,25.1c-0.2,2.1-1.9,3.4-1.6,0.2c1.2-11.9,6.4-19.3,10.3-25.7
	C466.6,110.9,467.5,112.2,466.5,114.1z M464.4,111.7c-3.1,4.3-13.1,14.3-15.1,26.4c-0.4,2.1-2.2,3.2-1.6,0
	c2.2-11.7,10.8-20.9,15.2-27C464.8,108.6,465.5,109.9,464.4,111.7z M462.5,109c-3.6,3.9-15.5,16.6-19.3,28.2c-0.7,2-2.6,2.9-1.6-0.2
	c3.8-11.3,14.2-23.5,19.5-28.9C463.4,106,463.9,107.4,462.5,109z"/>
</svg>
