<?xml version="1.0" encoding="utf-8"?>
<!-- Generator: Adobe Illustrator 26.0.1, SVG Export Plug-In . SVG Version: 6.00 Build 0)  -->
<svg version="1.1" id="Layer_1" xmlns="http://www.w3.org/2000/svg" xmlns:xlink="http://www.w3.org/1999/xlink" x="0px" y="0px"
	 viewBox="0 0 500 500" style="enable-background:new 0 0 500 500;" xml:space="preserve">
<style type="text/css">
	.st0{fill:#FFD42E;}
	.st1{fill:#C69C6D;}
	.st2{fill:#FCEE21;}
</style>
<g>
	<rect x="109.6" y="58.5" class="st0" width="323.4" height="421.3"/>
	<rect x="67" y="20.2" class="st1" width="323.4" height="417.1"/>
</g>
<path class="st2" d="M331.7,255.1l-22.9-12.8c0.9-4.9,1.5-10,1.5-15.2s-0.6-10.3-1.5-15.2l22.9-12.8c3.4-1.9,4.6-6.2,2.6-9.5
	l-21.5-36.1c-2-3.3-6.4-4.5-9.8-2.5L280,163.8c-7.9-6.6-17.1-11.7-27.2-15.2v-25.7c0-3.8-3.2-6.9-7.2-6.9h-43c-4,0-7.2,3.1-7.2,6.9
	v25.7c-10,3.4-19.2,8.6-27.2,15.2L145.4,151c-3.4-1.9-7.8-0.8-9.8,2.5l-21.5,36.1c-2,3.3-0.8,7.6,2.6,9.5l22.9,12.8
	c-0.9,4.9-1.5,10-1.5,15.2c0,5.2,0.6,10.3,1.5,15.2l-22.9,12.8c-3.4,1.9-4.6,6.2-2.6,9.5l21.5,36.1c2,3.3,6.4,4.5,9.8,2.5l22.9-12.8
	c7.9,6.6,17.1,11.7,27.2,15.2v25.7c0,3.8,3.2,6.9,7.2,6.9h43c4,0,7.2-3.1,7.2-6.9v-25.7c10-3.4,19.2-8.6,27.2-15.2l22.9,12.8
	c3.4,1.9,7.8,0.8,9.8-2.5l21.5-36.1C336.3,261.2,335.1,257,331.7,255.1L331.7,255.1z M166.2,267.1c-1.3,1.1-2.9,1.6-4.4,1.6
	c-2,0-4-0.8-5.3-2.5c-2.5-3-2.1-7.3,0.9-9.8l35.3-29.4l-35.3-29.4c-2.9-2.5-3.3-6.8-0.9-9.8c2.5-2.9,6.8-3.3,9.8-0.9l41.6,34.7
	c1.6,1.3,2.5,3.3,2.5,5.3c0,2.1-0.9,4-2.5,5.3L166.2,267.1z M272.8,268.7h-55.5c-3.8,0-6.9-3.1-6.9-6.9s3.1-6.9,6.9-6.9h55.5
	c3.8,0,6.9,3.1,6.9,6.9S276.6,268.7,272.8,268.7z"/>
</svg>
