<?xml version="1.0" encoding="utf-8"?>
<!-- Generator: Adobe Illustrator 26.0.1, SVG Export Plug-In . SVG Version: 6.00 Build 0)  -->
<svg version="1.1" id="Layer_1" xmlns="http://www.w3.org/2000/svg" xmlns:xlink="http://www.w3.org/1999/xlink" x="0px" y="0px"
	 viewBox="0 0 500 500" style="enable-background:new 0 0 500 500;" xml:space="preserve">
<style type="text/css">
	.st0{fill:#FF0000;}
	.st1{fill:#FBB03B;}
</style>
<g>
	<path class="st0" d="M238,269.2c-6.6,0-13.2,0-19.8,0c-1.7,0-3.9,0.1-3.9-2.4c-0.1-2.4,2.1-2.2,3.5-2.3c4.6-0.3,3.9-2.4,2.7-5.6
		c-2-5.2-5.1-8.2-11.2-7.3c-2.6,0.4-3.5,0.4-6.9,0c-5.4-0.6-8.1,1.7-9.8,6.6c-1.2,3.6-1.4,5.7,3.1,6.2c1.4,0.2,2.9,0.7,2.6,2.7
		c-0.3,1.8-1.6,2.2-3.1,2.2c-4.6,0-9.3-0.1-13.9-0.2c-1.5,0-2.9-0.4-3.2-2.2c-0.3-1.6,0.7-2.2,2-2.7c3.6-1.3,4.7-4.7,6.1-7.7
		c6.1-12.6,12-25.2,18.1-37.8c1-2,1.6-4.2,4.7-4.3c3.3-0.1,4.2,2.1,5.3,4.3c6.5,12.8,12.9,25.6,19.5,38.3c1.8,3.5,3.4,8.7,8.4,7.3
		c4.4-1.2,3.1-6.3,3.1-9.7c-0.1-12.9,1.1-25.8-1.1-38.6c-0.2-1.2-0.7-2.8,0.4-3.5c5-3.4,10.4-6.1,16-8.5c0.4-0.2,1.1,0,1.4,0.3
		c0.7,0.8,0.4,1.8-0.3,2.4c-5.1,4-4.3,9.7-4.4,15.1c-0.2,11.7-0.2,23.3-0.2,35c0,2.8-0.1,5.8,2.9,7.5c1.3,0.8,2.3,1.7,1.5,3.4
		c-0.8,1.5-2.2,1.6-3.7,1.6C251.1,269.3,244.6,269.3,238,269.2C238,269.3,238,269.3,238,269.2z M213.6,246.1c-2-3.9-5.9-9.8-5.9-9.8
		l-2.4-4.2c0,0-4.5,12-5.5,14"/>
	<path class="st0" d="M394.4,236.7c3.1-0.9,4.8-3.3,7.1-4.9c6.5-4.4,10-4,14.1,2.6c2.3,3.7,4,3.9,6.6,0.7c0.7-0.8,1.5-1.5,2.4-2.1
		c3.4-2.1,6.5-5.9,11-3.4c4.9,2.7,8.8,6.8,8.7,13c-0.1,4.9-0.4,9.9-0.7,14.8c-0.2,2.8-0.2,5.3,2.7,6.9c1.2,0.6,2,1.5,1.5,3
		c-0.4,1.4-1.5,2-2.8,2c-4.8,0-9.6-0.1-14.4-0.1c-1.1,0-2.2-0.3-2.7-1.4c-0.5-1.2,0.1-2.1,1.1-2.6c2.7-1.3,3-3.8,3.2-6.3
		c0.4-4.9,0.8-9.8,0.3-14.8c-0.2-2.5-1.3-4.4-3.7-5.3c-2.7-1-4.4,0.7-6,2.4c-5.2,5.4-5.4,18-0.4,23.6c2.1,2.4,1.2,4.2-1.6,4.3
		c-5.1,0.3-10.3,0.2-15.5-0.1c-2.4-0.1-3.9-2-1.3-3.7c3.5-2.4,3.8-5.7,3.8-9.3c-0.1-4.1,0-8.1-0.3-12.2c-0.2-2.4-1.5-4.4-4-5.2
		c-2.5-0.7-4,1-5.5,2.6c-5,5.2-5.4,18.4-0.7,23.3c0.8,0.8,1.6,1.4,1.2,2.7c-0.4,1.4-1.4,2.1-2.7,2.1c-5.2,0-10.3,0-15.5-0.2
		c-2.1-0.1-3.8-1.9-1.4-3.4c3.9-2.5,3.6-6.2,3.9-9.8c0.4-5.5,0.3-10.9-1.1-16.3c-1.3-5.3,1.2-9,7.8-10
		C395.6,228.4,392.8,233.9,394.4,236.7z"/>
	<path class="st0" d="M461.8,276.9c7.2,0,13.7-0.2,20.2,0c7.5,0.2,9,2.9,5.4,9.3c-1.6,2.9-3.6,5.7-5.5,8.4c-0.6,0.8-1.5,1.8-2.7,1.2
		c-1.4-0.7-0.5-1.7-0.2-2.7c2.2-6.5,2.2-6.6-4.7-6.7c-6.1-0.1-12.1,0.3-18.1,1.4c-3.2,0.5-6.3,1.2-8.1,4.4c-0.5,1-1.3,1.9-2.5,1.3
		c-1.1-0.6-0.6-1.8-0.5-2.9c1.1-8.4,6.5-13.9,13.1-18.4c4-2.8,4.6-5.3,2.1-9.6c-4.4-7.4-8.1-15.3-12.3-22.9
		c-1.5-2.7-1.3-4.5,1.7-5.8c4.1-1.8,8-3.7,12.1-5.5c1-0.4,2.4-1.4,3.3,0.1c0.7,1.2-0.4,2-1.2,2.6c-4,2.5-3.4,5.8-1.7,9.2
		c2.6,5.2,5.3,10.4,7.8,15.6c1.5,3.1,2.8,3,4.9,0.4c5.5-7,5.4-12.4-0.7-16.8c-2-1.5-5.3-2.3-3.7-5.9c1.3-3,7-5.1,10.1-3.7
		c9.2,4,11.9,13.4,5.9,22c-5.3,7.6-12.5,13.4-19.5,19.4C465.4,272.7,463.2,273.7,461.8,276.9z"/>
	<path class="st0" d="M313.8,237.3c2.4-1.9,4-3.3,5.8-4.4c3.2-2.1,6.3-5.6,10.5-3.3c5,2.7,9,6.6,9,12.8c0,4.8-0.4,9.5-0.7,14.3
		c-0.2,3.1-0.5,6.1,2.9,7.8c1.2,0.7,1.6,1.8,1.1,3.2c-0.4,1.1-1.4,1.6-2.5,1.6c-5.2,0-10.3,0-15.5-0.2c-1.9-0.1-3.2-2-1.4-3.2
		c4.9-3.3,3.9-8.3,4.3-12.9c0.3-3,0.2-6-0.1-9c-0.2-2.4-1.5-4.4-3.9-5.2c-2.4-0.8-4.1,0.7-5.6,2.2c-5.2,5.1-5.8,18.6-1,23.7
		c1,1,1.6,1.9,1,3.2c-0.5,1.1-1.5,1.5-2.6,1.5c-5,0-10-0.1-14.9-0.1c-1.1,0-2.2-0.2-2.6-1.4c-0.4-1.2,0.1-2.1,1.1-2.7
		c3.2-1.8,3.2-4.9,3.2-7.9c0-13.6,1.1-27.2-1-40.6c-0.4-2.6,0.2-4.3,2.7-5.5c4.2-2,8.2-4.2,12.3-6.4c0.9-0.5,2-1.2,2.8,0
		c0.5,0.8,0.1,1.8-0.6,2.4c-4.8,3.7-4.2,9-4.2,14.1C313.8,226.1,313.8,231.2,313.8,237.3z"/>
	<path class="st0" d="M344.4,250.7c0-8.6,9.6-20.4,18.3-22.4c4.4-1,13.3,4.8,14.1,9.2c0.4,2.5-0.7,3.9-3,4.9c-4.6,2-9,4.2-13.6,6
		c-4,1.6-3.9,3.8-2.1,7c3,5.1,7.7,6.3,13.2,3.4c1.4-0.7,2.9-2.9,4.5-0.6c1.5,2-0.4,3.3-1.6,4.4c-5.3,5-10.9,9.5-18.9,6.6
		C348.9,266.8,344.4,259,344.4,250.7z M359.8,236.5c-3.4,0.6-3.6,3.5-4.1,6c-0.3,1.4,0.4,2.7,2.1,2c2.8-1.1,6.6-1.6,7.3-4.5
		C365.6,237.9,362.2,237,359.8,236.5z"/>
	<path class="st0" d="M264.4,250.8c0-8.6,9.7-20.4,18.4-22.5c4.3-1,13.4,4.9,14.2,9.2c0.5,2.9-1.3,4.2-3.6,5c-2.4,0.9-4.8,3-7.1-0.1
		c-2-2.6-3.6-6.9-7.5-5.2c-3.9,1.7-3,6.4-2.8,10c0.1,2.1,0.5,4.2,1.3,6.2c2.8,6.9,8,8.6,14.5,5.1c1.3-0.7,2.6-2.4,4.1-0.5
		c1.3,1.7,0,3-1.2,4.1c-5.2,5-10.6,9.8-18.7,7.3C269.3,267.4,264.4,259.2,264.4,250.8z"/>
</g>
<path class="st1" d="M37.6,273.1c-6.2-0.3-12.4-1.3-18.3-3.2c-3.6-1.1-5.5-3.1-2.5-6.4c4.3-4.8,2.7-8-1.2-12.3
	c-7.9-8.8-7-15.9,1.9-23.7c5.4-4.7,11.5-8.3,18.5-10.2c5.1-1.4,9.9-0.2,14.4,2.1c3.5,1.8,6.4,2.3,7.9-2.3c0.3-1,0.8-2.2,2.2-1.8
	c1.6,0.5,1.5,1.9,1.1,3.1c-1.5,4.9-3.5,9.6-5.9,14.1c-1.2,2.2-2.8,1.5-4.5,0.5c-3.7-2.5-7.6-4.5-12-5.6c-3.5-0.9-7.1-0.9-10.5,0.5
	c-3.4,1.5-6.4,3.5-6.5,7.6c-0.1,5,2.7,8.7,6.2,11.8c1.5,1.3,2.6-0.3,3.6-1.2c3.6-2.9,7.2-5.8,10.5-8.9c2.1-2,4.2-2,6.8-1.2
	c12.3,4.1,16.2,15.8,8.3,26C52.7,268.6,46.6,273.7,37.6,273.1z M42,263.3c0.5,0,1.1,0.1,1.6,0.1c3.5,0,6.5-1,7.2-4.9
	c0.9-4.5-0.2-8.5-4-11.3c-3-2.2-5.8-1.6-8.6,1c-2.8,2.7-6,5-9.1,7.4c-2.5,1.9-2,3.4,0.5,4.7C33.5,262.3,37.7,263.1,42,263.3z"/>
<path class="st1" d="M122.5,238.4c-0.8,9.3-2.6,18.9-10.9,25.1c-16.5,12.4-28.9,10.4-42.3-6c-7.3-8.9-6.2-19.7,2.1-27.8
	c8.8-8.6,19.1-14.2,32.1-12.6C114.2,218.4,122.8,227.9,122.5,238.4z M93.3,225.7c-7,0-12.4,1.8-15.7,7.9c-3.3,6.1-1.8,11.7,2.1,16.8
	c3.6,4.7,8.2,8.3,13.6,10.8c5.1,2.3,9.8,1.4,13.3-3c5.6-7.1,6.6-15.1,3.4-23.5C107.1,226.8,99.6,226.7,93.3,225.7z"/>
<path class="st1" d="M148.7,272.2c-6.6,0-13.2,0-19.7,0c-1.7,0-3.8,0.2-4.1-2.3c-0.3-2.3,1.7-2.4,3.2-2.7c3.5-0.6,4.6-2.8,4.6-6
	c0-10.4,0-20.8,0.1-31.2c0-3.8-1.3-6.5-5.2-7.6c-1.4-0.4-2.9-0.8-2.5-2.8c0.4-2,2-2.2,3.7-2.2c7.3,0.3,14.6,0.8,21.9,0.1
	c1.6-0.2,2.8,0.5,3,2.2c0.2,1.6-0.8,2.3-2.2,2.5c-5,0.6-5.7,4-5.7,8c0,9.5,0,19-0.1,28.6c0,4.4,2,6.5,6.5,6.3c2-0.1,3.9-0.3,5.9-0.2
	c6.2,0.3,10.3-2,11.7-8.3c0.3-1.4,0.4-3.7,2.5-3.5c2.5,0.3,1.8,2.7,1.7,4.3c-0.4,14.5-0.5,14.5-15.1,14.4c-3.4,0-6.8,0-10.1,0
	C148.7,272,148.7,272.1,148.7,272.2z"/>
<path class="st1" d="M79.5,283c5-9.4,9.4-11.2,18.5-7.8c9.4,3.6,18.8,7.4,28.2,11.1c8.9,3.5,9.3,3.3,14-5.1c0.5-0.9,0.7-2.1,2.6-2.1
	c0.8,5.5-1.5,10.1-5.2,13.4c-4.2,3.8-9.8,3-14.7,1c-7.9-3.2-15.5-7.1-23.3-10.5C93.1,280.3,86.5,276.9,79.5,283z"/>
</svg>
